<?xml version="1.0" encoding="UTF-8" ?>
<svg version="1.1" width="32" height="32" xmlns="http://www.w3.org/2000/svg" shape-rendering="crispEdges">
<rect x="0" y="2" width="1" height="1" fill="#F72E2E" />
<rect x="1" y="2" width="1" height="1" fill="#F72E2E" />
<rect x="2" y="2" width="1" height="1" fill="#F72E2E" />
<rect x="3" y="2" width="1" height="1" fill="#F72E2E" />
<rect x="4" y="2" width="1" height="1" fill="#F72E2E" />
<rect x="5" y="2" width="1" height="1" fill="#F72E2E" />
<rect x="6" y="2" width="1" height="1" fill="#F72E2E" />
<rect x="7" y="2" width="1" height="1" fill="#F72E2E" />
<rect x="8" y="2" width="1" height="1" fill="#F72E2E" />
<rect x="9" y="2" width="1" height="1" fill="#F72E2E" />
<rect x="10" y="2" width="1" height="1" fill="#F72E2E" />
<rect x="11" y="2" width="1" height="1" fill="#F72E2E" />
<rect x="12" y="2" width="1" height="1" fill="#F72E2E" />
<rect x="13" y="2" width="1" height="1" fill="#F72E2E" />
<rect x="14" y="2" width="1" height="1" fill="#F72E2E" />
<rect x="15" y="2" width="1" height="1" fill="#F72E2E" />
<rect x="16" y="2" width="1" height="1" fill="#F72E2E" />
<rect x="17" y="2" width="1" height="1" fill="#F72E2E" />
<rect x="18" y="2" width="1" height="1" fill="#F72E2E" />
<rect x="19" y="2" width="1" height="1" fill="#F72E2E" />
<rect x="20" y="2" width="1" height="1" fill="#F72E2E" />
<rect x="21" y="2" width="1" height="1" fill="#F72E2E" />
<rect x="22" y="2" width="1" height="1" fill="#F72E2E" />
<rect x="23" y="2" width="1" height="1" fill="#F72E2E" />
<rect x="24" y="2" width="1" height="1" fill="#F72E2E" />
<rect x="25" y="2" width="1" height="1" fill="#F72E2E" />
<rect x="26" y="2" width="1" height="1" fill="#F72E2E" />
<rect x="27" y="2" width="1" height="1" fill="#F72E2E" />
<rect x="28" y="2" width="1" height="1" fill="#F72E2E" />
<rect x="29" y="2" width="1" height="1" fill="#F72E2E" />
<rect x="30" y="2" width="1" height="1" fill="#F72E2E" />
<rect x="31" y="2" width="1" height="1" fill="#F72E2E" />
<rect x="0" y="3" width="1" height="1" fill="#BD1919" />
<rect x="1" y="3" width="1" height="1" fill="#BD1919" />
<rect x="2" y="3" width="1" height="1" fill="#BD1919" />
<rect x="3" y="3" width="1" height="1" fill="#BD1919" />
<rect x="4" y="3" width="1" height="1" fill="#BD1919" />
<rect x="5" y="3" width="1" height="1" fill="#BD1919" />
<rect x="6" y="3" width="1" height="1" fill="#BD1919" />
<rect x="7" y="3" width="1" height="1" fill="#BD1919" />
<rect x="8" y="3" width="1" height="1" fill="#BD1919" />
<rect x="9" y="3" width="1" height="1" fill="#BD1919" />
<rect x="10" y="3" width="1" height="1" fill="#BD1919" />
<rect x="11" y="3" width="1" height="1" fill="#BD1919" />
<rect x="12" y="3" width="1" height="1" fill="#BD1919" />
<rect x="13" y="3" width="1" height="1" fill="#BD1919" />
<rect x="14" y="3" width="1" height="1" fill="#BD1919" />
<rect x="15" y="3" width="1" height="1" fill="#BD1919" />
<rect x="16" y="3" width="1" height="1" fill="#BD1919" />
<rect x="17" y="3" width="1" height="1" fill="#BD1919" />
<rect x="18" y="3" width="1" height="1" fill="#BD1919" />
<rect x="19" y="3" width="1" height="1" fill="#BD1919" />
<rect x="20" y="3" width="1" height="1" fill="#BD1919" />
<rect x="21" y="3" width="1" height="1" fill="#BD1919" />
<rect x="22" y="3" width="1" height="1" fill="#BD1919" />
<rect x="23" y="3" width="1" height="1" fill="#BD1919" />
<rect x="24" y="3" width="1" height="1" fill="#BD1919" />
<rect x="25" y="3" width="1" height="1" fill="#BD1919" />
<rect x="26" y="3" width="1" height="1" fill="#BD1919" />
<rect x="27" y="3" width="1" height="1" fill="#BD1919" />
<rect x="28" y="3" width="1" height="1" fill="#BD1919" />
<rect x="29" y="3" width="1" height="1" fill="#BD1919" />
<rect x="30" y="3" width="1" height="1" fill="#BD1919" />
<rect x="31" y="3" width="1" height="1" fill="#BD1919" />
<rect x="0" y="4" width="1" height="1" fill="#7B0505" />
<rect x="1" y="4" width="1" height="1" fill="#7B0505" />
<rect x="2" y="4" width="1" height="1" fill="#7B0505" />
<rect x="3" y="4" width="1" height="1" fill="#7B0505" />
<rect x="4" y="4" width="1" height="1" fill="#7B0505" />
<rect x="5" y="4" width="1" height="1" fill="#7B0505" />
<rect x="6" y="4" width="1" height="1" fill="#7B0505" />
<rect x="7" y="4" width="1" height="1" fill="#7B0505" />
<rect x="8" y="4" width="1" height="1" fill="#7B0505" />
<rect x="9" y="4" width="1" height="1" fill="#7B0505" />
<rect x="10" y="4" width="1" height="1" fill="#7B0505" />
<rect x="11" y="4" width="1" height="1" fill="#7B0505" />
<rect x="12" y="4" width="1" height="1" fill="#7B0505" />
<rect x="13" y="4" width="1" height="1" fill="#7B0505" />
<rect x="14" y="4" width="1" height="1" fill="#7B0505" />
<rect x="15" y="4" width="1" height="1" fill="#7B0505" />
<rect x="16" y="4" width="1" height="1" fill="#7B0505" />
<rect x="17" y="4" width="1" height="1" fill="#7B0505" />
<rect x="18" y="4" width="1" height="1" fill="#7B0505" />
<rect x="19" y="4" width="1" height="1" fill="#7B0505" />
<rect x="20" y="4" width="1" height="1" fill="#7B0505" />
<rect x="21" y="4" width="1" height="1" fill="#7B0505" />
<rect x="22" y="4" width="1" height="1" fill="#7B0505" />
<rect x="23" y="4" width="1" height="1" fill="#7B0505" />
<rect x="24" y="4" width="1" height="1" fill="#7B0505" />
<rect x="25" y="4" width="1" height="1" fill="#7B0505" />
<rect x="26" y="4" width="1" height="1" fill="#7B0505" />
<rect x="27" y="4" width="1" height="1" fill="#7B0505" />
<rect x="28" y="4" width="1" height="1" fill="#7B0505" />
<rect x="29" y="4" width="1" height="1" fill="#7B0505" />
<rect x="30" y="4" width="1" height="1" fill="#7B0505" />
<rect x="31" y="4" width="1" height="1" fill="#7B0505" />
<rect x="0" y="27" width="1" height="1" fill="#7B0505" />
<rect x="1" y="27" width="1" height="1" fill="#7B0505" />
<rect x="2" y="27" width="1" height="1" fill="#7B0505" />
<rect x="3" y="27" width="1" height="1" fill="#7B0505" />
<rect x="4" y="27" width="1" height="1" fill="#7B0505" />
<rect x="5" y="27" width="1" height="1" fill="#7B0505" />
<rect x="6" y="27" width="1" height="1" fill="#7B0505" />
<rect x="7" y="27" width="1" height="1" fill="#7B0505" />
<rect x="8" y="27" width="1" height="1" fill="#7B0505" />
<rect x="9" y="27" width="1" height="1" fill="#7B0505" />
<rect x="10" y="27" width="1" height="1" fill="#7B0505" />
<rect x="11" y="27" width="1" height="1" fill="#7B0505" />
<rect x="12" y="27" width="1" height="1" fill="#7B0505" />
<rect x="13" y="27" width="1" height="1" fill="#7B0505" />
<rect x="14" y="27" width="1" height="1" fill="#7B0505" />
<rect x="15" y="27" width="1" height="1" fill="#7B0505" />
<rect x="16" y="27" width="1" height="1" fill="#7B0505" />
<rect x="17" y="27" width="1" height="1" fill="#7B0505" />
<rect x="18" y="27" width="1" height="1" fill="#7B0505" />
<rect x="19" y="27" width="1" height="1" fill="#7B0505" />
<rect x="20" y="27" width="1" height="1" fill="#7B0505" />
<rect x="21" y="27" width="1" height="1" fill="#7B0505" />
<rect x="22" y="27" width="1" height="1" fill="#7B0505" />
<rect x="23" y="27" width="1" height="1" fill="#7B0505" />
<rect x="24" y="27" width="1" height="1" fill="#7B0505" />
<rect x="25" y="27" width="1" height="1" fill="#7B0505" />
<rect x="26" y="27" width="1" height="1" fill="#7B0505" />
<rect x="27" y="27" width="1" height="1" fill="#7B0505" />
<rect x="28" y="27" width="1" height="1" fill="#7B0505" />
<rect x="29" y="27" width="1" height="1" fill="#7B0505" />
<rect x="30" y="27" width="1" height="1" fill="#7B0505" />
<rect x="31" y="27" width="1" height="1" fill="#7B0505" />
<rect x="0" y="28" width="1" height="1" fill="#BD1919" />
<rect x="1" y="28" width="1" height="1" fill="#BD1919" />
<rect x="2" y="28" width="1" height="1" fill="#BD1919" />
<rect x="3" y="28" width="1" height="1" fill="#BD1919" />
<rect x="4" y="28" width="1" height="1" fill="#BD1919" />
<rect x="5" y="28" width="1" height="1" fill="#BD1919" />
<rect x="6" y="28" width="1" height="1" fill="#BD1919" />
<rect x="7" y="28" width="1" height="1" fill="#BD1919" />
<rect x="8" y="28" width="1" height="1" fill="#BD1919" />
<rect x="9" y="28" width="1" height="1" fill="#BD1919" />
<rect x="10" y="28" width="1" height="1" fill="#BD1919" />
<rect x="11" y="28" width="1" height="1" fill="#BD1919" />
<rect x="12" y="28" width="1" height="1" fill="#BD1919" />
<rect x="13" y="28" width="1" height="1" fill="#BD1919" />
<rect x="14" y="28" width="1" height="1" fill="#BD1919" />
<rect x="15" y="28" width="1" height="1" fill="#BD1919" />
<rect x="16" y="28" width="1" height="1" fill="#BD1919" />
<rect x="17" y="28" width="1" height="1" fill="#BD1919" />
<rect x="18" y="28" width="1" height="1" fill="#BD1919" />
<rect x="19" y="28" width="1" height="1" fill="#BD1919" />
<rect x="20" y="28" width="1" height="1" fill="#BD1919" />
<rect x="21" y="28" width="1" height="1" fill="#BD1919" />
<rect x="22" y="28" width="1" height="1" fill="#BD1919" />
<rect x="23" y="28" width="1" height="1" fill="#BD1919" />
<rect x="24" y="28" width="1" height="1" fill="#BD1919" />
<rect x="25" y="28" width="1" height="1" fill="#BD1919" />
<rect x="26" y="28" width="1" height="1" fill="#BD1919" />
<rect x="27" y="28" width="1" height="1" fill="#BD1919" />
<rect x="28" y="28" width="1" height="1" fill="#BD1919" />
<rect x="29" y="28" width="1" height="1" fill="#BD1919" />
<rect x="30" y="28" width="1" height="1" fill="#BD1919" />
<rect x="31" y="28" width="1" height="1" fill="#BD1919" />
<rect x="0" y="29" width="1" height="1" fill="#F72E2E" />
<rect x="1" y="29" width="1" height="1" fill="#F72E2E" />
<rect x="2" y="29" width="1" height="1" fill="#F72E2E" />
<rect x="3" y="29" width="1" height="1" fill="#F72E2E" />
<rect x="4" y="29" width="1" height="1" fill="#F72E2E" />
<rect x="5" y="29" width="1" height="1" fill="#F72E2E" />
<rect x="6" y="29" width="1" height="1" fill="#F72E2E" />
<rect x="7" y="29" width="1" height="1" fill="#F72E2E" />
<rect x="8" y="29" width="1" height="1" fill="#F72E2E" />
<rect x="9" y="29" width="1" height="1" fill="#F72E2E" />
<rect x="10" y="29" width="1" height="1" fill="#F72E2E" />
<rect x="11" y="29" width="1" height="1" fill="#F72E2E" />
<rect x="12" y="29" width="1" height="1" fill="#F72E2E" />
<rect x="13" y="29" width="1" height="1" fill="#F72E2E" />
<rect x="14" y="29" width="1" height="1" fill="#F72E2E" />
<rect x="15" y="29" width="1" height="1" fill="#F72E2E" />
<rect x="16" y="29" width="1" height="1" fill="#F72E2E" />
<rect x="17" y="29" width="1" height="1" fill="#F72E2E" />
<rect x="18" y="29" width="1" height="1" fill="#F72E2E" />
<rect x="19" y="29" width="1" height="1" fill="#F72E2E" />
<rect x="20" y="29" width="1" height="1" fill="#F72E2E" />
<rect x="21" y="29" width="1" height="1" fill="#F72E2E" />
<rect x="22" y="29" width="1" height="1" fill="#F72E2E" />
<rect x="23" y="29" width="1" height="1" fill="#F72E2E" />
<rect x="24" y="29" width="1" height="1" fill="#F72E2E" />
<rect x="25" y="29" width="1" height="1" fill="#F72E2E" />
<rect x="26" y="29" width="1" height="1" fill="#F72E2E" />
<rect x="27" y="29" width="1" height="1" fill="#F72E2E" />
<rect x="28" y="29" width="1" height="1" fill="#F72E2E" />
<rect x="29" y="29" width="1" height="1" fill="#F72E2E" />
<rect x="30" y="29" width="1" height="1" fill="#F72E2E" />
<rect x="31" y="29" width="1" height="1" fill="#F72E2E" />
</svg>