<?xml version="1.0" encoding="UTF-8" ?>
<svg version="1.1" width="128" height="128" xmlns="http://www.w3.org/2000/svg" shape-rendering="crispEdges">
<rect x="0" y="2" width="1" height="1" fill="#F72E2E" />
<rect x="1" y="2" width="1" height="1" fill="#F72E2E" />
<rect x="2" y="2" width="1" height="1" fill="#F72E2E" />
<rect x="3" y="2" width="1" height="1" fill="#F72E2E" />
<rect x="4" y="2" width="1" height="1" fill="#F72E2E" />
<rect x="5" y="2" width="1" height="1" fill="#F72E2E" />
<rect x="6" y="2" width="1" height="1" fill="#F72E2E" />
<rect x="7" y="2" width="1" height="1" fill="#F72E2E" />
<rect x="8" y="2" width="1" height="1" fill="#F72E2E" />
<rect x="9" y="2" width="1" height="1" fill="#F72E2E" />
<rect x="10" y="2" width="1" height="1" fill="#F72E2E" />
<rect x="11" y="2" width="1" height="1" fill="#F72E2E" />
<rect x="12" y="2" width="1" height="1" fill="#F72E2E" />
<rect x="13" y="2" width="1" height="1" fill="#F72E2E" />
<rect x="14" y="2" width="1" height="1" fill="#F72E2E" />
<rect x="15" y="2" width="1" height="1" fill="#F72E2E" />
<rect x="16" y="2" width="1" height="1" fill="#F72E2E" />
<rect x="17" y="2" width="1" height="1" fill="#F72E2E" />
<rect x="18" y="2" width="1" height="1" fill="#F72E2E" />
<rect x="19" y="2" width="1" height="1" fill="#F72E2E" />
<rect x="20" y="2" width="1" height="1" fill="#F72E2E" />
<rect x="21" y="2" width="1" height="1" fill="#F72E2E" />
<rect x="22" y="2" width="1" height="1" fill="#F72E2E" />
<rect x="23" y="2" width="1" height="1" fill="#F72E2E" />
<rect x="24" y="2" width="1" height="1" fill="#F72E2E" />
<rect x="25" y="2" width="1" height="1" fill="#F72E2E" />
<rect x="26" y="2" width="1" height="1" fill="#F72E2E" />
<rect x="27" y="2" width="1" height="1" fill="#F72E2E" />
<rect x="28" y="2" width="1" height="1" fill="#F72E2E" />
<rect x="29" y="2" width="1" height="1" fill="#F72E2E" />
<rect x="30" y="2" width="1" height="1" fill="#F72E2E" />
<rect x="31" y="2" width="1" height="1" fill="#F72E2E" />
<rect x="32" y="2" width="1" height="1" fill="#F72E2E" />
<rect x="33" y="2" width="1" height="1" fill="#F72E2E" />
<rect x="34" y="2" width="1" height="1" fill="#F72E2E" />
<rect x="35" y="2" width="1" height="1" fill="#F72E2E" />
<rect x="36" y="2" width="1" height="1" fill="#F72E2E" />
<rect x="37" y="2" width="1" height="1" fill="#F72E2E" />
<rect x="38" y="2" width="1" height="1" fill="#F72E2E" />
<rect x="39" y="2" width="1" height="1" fill="#F72E2E" />
<rect x="40" y="2" width="1" height="1" fill="#F72E2E" />
<rect x="41" y="2" width="1" height="1" fill="#F72E2E" />
<rect x="42" y="2" width="1" height="1" fill="#F72E2E" />
<rect x="43" y="2" width="1" height="1" fill="#F72E2E" />
<rect x="44" y="2" width="1" height="1" fill="#F72E2E" />
<rect x="45" y="2" width="1" height="1" fill="#F72E2E" />
<rect x="46" y="2" width="1" height="1" fill="#F72E2E" />
<rect x="47" y="2" width="1" height="1" fill="#F72E2E" />
<rect x="48" y="2" width="1" height="1" fill="#F72E2E" />
<rect x="49" y="2" width="1" height="1" fill="#F72E2E" />
<rect x="50" y="2" width="1" height="1" fill="#F72E2E" />
<rect x="51" y="2" width="1" height="1" fill="#F72E2E" />
<rect x="52" y="2" width="1" height="1" fill="#F72E2E" />
<rect x="53" y="2" width="1" height="1" fill="#F72E2E" />
<rect x="54" y="2" width="1" height="1" fill="#F72E2E" />
<rect x="55" y="2" width="1" height="1" fill="#F72E2E" />
<rect x="56" y="2" width="1" height="1" fill="#F72E2E" />
<rect x="57" y="2" width="1" height="1" fill="#F72E2E" />
<rect x="58" y="2" width="1" height="1" fill="#F72E2E" />
<rect x="59" y="2" width="1" height="1" fill="#F72E2E" />
<rect x="60" y="2" width="1" height="1" fill="#F72E2E" />
<rect x="61" y="2" width="1" height="1" fill="#F72E2E" />
<rect x="62" y="2" width="1" height="1" fill="#F72E2E" />
<rect x="63" y="2" width="1" height="1" fill="#F72E2E" />
<rect x="64" y="2" width="1" height="1" fill="#F72E2E" />
<rect x="65" y="2" width="1" height="1" fill="#F72E2E" />
<rect x="66" y="2" width="1" height="1" fill="#F72E2E" />
<rect x="67" y="2" width="1" height="1" fill="#F72E2E" />
<rect x="68" y="2" width="1" height="1" fill="#F72E2E" />
<rect x="69" y="2" width="1" height="1" fill="#F72E2E" />
<rect x="70" y="2" width="1" height="1" fill="#F72E2E" />
<rect x="71" y="2" width="1" height="1" fill="#F72E2E" />
<rect x="72" y="2" width="1" height="1" fill="#F72E2E" />
<rect x="73" y="2" width="1" height="1" fill="#F72E2E" />
<rect x="74" y="2" width="1" height="1" fill="#F72E2E" />
<rect x="75" y="2" width="1" height="1" fill="#F72E2E" />
<rect x="76" y="2" width="1" height="1" fill="#F72E2E" />
<rect x="77" y="2" width="1" height="1" fill="#F72E2E" />
<rect x="78" y="2" width="1" height="1" fill="#F72E2E" />
<rect x="79" y="2" width="1" height="1" fill="#F72E2E" />
<rect x="80" y="2" width="1" height="1" fill="#F72E2E" />
<rect x="81" y="2" width="1" height="1" fill="#F72E2E" />
<rect x="82" y="2" width="1" height="1" fill="#F72E2E" />
<rect x="83" y="2" width="1" height="1" fill="#F72E2E" />
<rect x="84" y="2" width="1" height="1" fill="#F72E2E" />
<rect x="85" y="2" width="1" height="1" fill="#F72E2E" />
<rect x="86" y="2" width="1" height="1" fill="#F72E2E" />
<rect x="87" y="2" width="1" height="1" fill="#F72E2E" />
<rect x="88" y="2" width="1" height="1" fill="#F72E2E" />
<rect x="89" y="2" width="1" height="1" fill="#F72E2E" />
<rect x="90" y="2" width="1" height="1" fill="#F72E2E" />
<rect x="91" y="2" width="1" height="1" fill="#F72E2E" />
<rect x="92" y="2" width="1" height="1" fill="#F72E2E" />
<rect x="93" y="2" width="1" height="1" fill="#F72E2E" />
<rect x="94" y="2" width="1" height="1" fill="#F72E2E" />
<rect x="95" y="2" width="1" height="1" fill="#F72E2E" />
<rect x="96" y="2" width="1" height="1" fill="#F72E2E" />
<rect x="97" y="2" width="1" height="1" fill="#F72E2E" />
<rect x="98" y="2" width="1" height="1" fill="#F72E2E" />
<rect x="99" y="2" width="1" height="1" fill="#F72E2E" />
<rect x="100" y="2" width="1" height="1" fill="#F72E2E" />
<rect x="101" y="2" width="1" height="1" fill="#F72E2E" />
<rect x="102" y="2" width="1" height="1" fill="#F72E2E" />
<rect x="103" y="2" width="1" height="1" fill="#F72E2E" />
<rect x="104" y="2" width="1" height="1" fill="#F72E2E" />
<rect x="105" y="2" width="1" height="1" fill="#F72E2E" />
<rect x="106" y="2" width="1" height="1" fill="#F72E2E" />
<rect x="107" y="2" width="1" height="1" fill="#F72E2E" />
<rect x="108" y="2" width="1" height="1" fill="#F72E2E" />
<rect x="109" y="2" width="1" height="1" fill="#F72E2E" />
<rect x="110" y="2" width="1" height="1" fill="#F72E2E" />
<rect x="111" y="2" width="1" height="1" fill="#F72E2E" />
<rect x="112" y="2" width="1" height="1" fill="#F72E2E" />
<rect x="113" y="2" width="1" height="1" fill="#F72E2E" />
<rect x="114" y="2" width="1" height="1" fill="#F72E2E" />
<rect x="115" y="2" width="1" height="1" fill="#F72E2E" />
<rect x="116" y="2" width="1" height="1" fill="#F72E2E" />
<rect x="117" y="2" width="1" height="1" fill="#F72E2E" />
<rect x="118" y="2" width="1" height="1" fill="#F72E2E" />
<rect x="119" y="2" width="1" height="1" fill="#F72E2E" />
<rect x="120" y="2" width="1" height="1" fill="#F72E2E" />
<rect x="121" y="2" width="1" height="1" fill="#F72E2E" />
<rect x="122" y="2" width="1" height="1" fill="#F72E2E" />
<rect x="123" y="2" width="1" height="1" fill="#F72E2E" />
<rect x="124" y="2" width="1" height="1" fill="#F72E2E" />
<rect x="125" y="2" width="1" height="1" fill="#F72E2E" />
<rect x="126" y="2" width="1" height="1" fill="#F72E2E" />
<rect x="127" y="2" width="1" height="1" fill="#F72E2E" />
<rect x="0" y="3" width="1" height="1" fill="#BD1919" />
<rect x="1" y="3" width="1" height="1" fill="#BD1919" />
<rect x="2" y="3" width="1" height="1" fill="#BD1919" />
<rect x="3" y="3" width="1" height="1" fill="#BD1919" />
<rect x="4" y="3" width="1" height="1" fill="#BD1919" />
<rect x="5" y="3" width="1" height="1" fill="#BD1919" />
<rect x="6" y="3" width="1" height="1" fill="#BD1919" />
<rect x="7" y="3" width="1" height="1" fill="#BD1919" />
<rect x="8" y="3" width="1" height="1" fill="#BD1919" />
<rect x="9" y="3" width="1" height="1" fill="#BD1919" />
<rect x="10" y="3" width="1" height="1" fill="#BD1919" />
<rect x="11" y="3" width="1" height="1" fill="#BD1919" />
<rect x="12" y="3" width="1" height="1" fill="#BD1919" />
<rect x="13" y="3" width="1" height="1" fill="#BD1919" />
<rect x="14" y="3" width="1" height="1" fill="#BD1919" />
<rect x="15" y="3" width="1" height="1" fill="#BD1919" />
<rect x="16" y="3" width="1" height="1" fill="#BD1919" />
<rect x="17" y="3" width="1" height="1" fill="#BD1919" />
<rect x="18" y="3" width="1" height="1" fill="#BD1919" />
<rect x="19" y="3" width="1" height="1" fill="#BD1919" />
<rect x="20" y="3" width="1" height="1" fill="#BD1919" />
<rect x="21" y="3" width="1" height="1" fill="#BD1919" />
<rect x="22" y="3" width="1" height="1" fill="#BD1919" />
<rect x="23" y="3" width="1" height="1" fill="#BD1919" />
<rect x="24" y="3" width="1" height="1" fill="#BD1919" />
<rect x="25" y="3" width="1" height="1" fill="#BD1919" />
<rect x="26" y="3" width="1" height="1" fill="#BD1919" />
<rect x="27" y="3" width="1" height="1" fill="#BD1919" />
<rect x="28" y="3" width="1" height="1" fill="#BD1919" />
<rect x="29" y="3" width="1" height="1" fill="#BD1919" />
<rect x="30" y="3" width="1" height="1" fill="#BD1919" />
<rect x="31" y="3" width="1" height="1" fill="#BD1919" />
<rect x="32" y="3" width="1" height="1" fill="#BD1919" />
<rect x="33" y="3" width="1" height="1" fill="#BD1919" />
<rect x="34" y="3" width="1" height="1" fill="#BD1919" />
<rect x="35" y="3" width="1" height="1" fill="#BD1919" />
<rect x="36" y="3" width="1" height="1" fill="#BD1919" />
<rect x="37" y="3" width="1" height="1" fill="#BD1919" />
<rect x="38" y="3" width="1" height="1" fill="#BD1919" />
<rect x="39" y="3" width="1" height="1" fill="#BD1919" />
<rect x="40" y="3" width="1" height="1" fill="#BD1919" />
<rect x="41" y="3" width="1" height="1" fill="#BD1919" />
<rect x="42" y="3" width="1" height="1" fill="#BD1919" />
<rect x="43" y="3" width="1" height="1" fill="#BD1919" />
<rect x="44" y="3" width="1" height="1" fill="#BD1919" />
<rect x="45" y="3" width="1" height="1" fill="#BD1919" />
<rect x="46" y="3" width="1" height="1" fill="#BD1919" />
<rect x="47" y="3" width="1" height="1" fill="#BD1919" />
<rect x="48" y="3" width="1" height="1" fill="#BD1919" />
<rect x="49" y="3" width="1" height="1" fill="#BD1919" />
<rect x="50" y="3" width="1" height="1" fill="#BD1919" />
<rect x="51" y="3" width="1" height="1" fill="#BD1919" />
<rect x="52" y="3" width="1" height="1" fill="#BD1919" />
<rect x="53" y="3" width="1" height="1" fill="#BD1919" />
<rect x="54" y="3" width="1" height="1" fill="#BD1919" />
<rect x="55" y="3" width="1" height="1" fill="#BD1919" />
<rect x="56" y="3" width="1" height="1" fill="#BD1919" />
<rect x="57" y="3" width="1" height="1" fill="#BD1919" />
<rect x="58" y="3" width="1" height="1" fill="#BD1919" />
<rect x="59" y="3" width="1" height="1" fill="#BD1919" />
<rect x="60" y="3" width="1" height="1" fill="#BD1919" />
<rect x="61" y="3" width="1" height="1" fill="#BD1919" />
<rect x="62" y="3" width="1" height="1" fill="#BD1919" />
<rect x="63" y="3" width="1" height="1" fill="#BD1919" />
<rect x="64" y="3" width="1" height="1" fill="#BD1919" />
<rect x="65" y="3" width="1" height="1" fill="#BD1919" />
<rect x="66" y="3" width="1" height="1" fill="#BD1919" />
<rect x="67" y="3" width="1" height="1" fill="#BD1919" />
<rect x="68" y="3" width="1" height="1" fill="#BD1919" />
<rect x="69" y="3" width="1" height="1" fill="#BD1919" />
<rect x="70" y="3" width="1" height="1" fill="#BD1919" />
<rect x="71" y="3" width="1" height="1" fill="#BD1919" />
<rect x="72" y="3" width="1" height="1" fill="#BD1919" />
<rect x="73" y="3" width="1" height="1" fill="#BD1919" />
<rect x="74" y="3" width="1" height="1" fill="#BD1919" />
<rect x="75" y="3" width="1" height="1" fill="#BD1919" />
<rect x="76" y="3" width="1" height="1" fill="#BD1919" />
<rect x="77" y="3" width="1" height="1" fill="#BD1919" />
<rect x="78" y="3" width="1" height="1" fill="#BD1919" />
<rect x="79" y="3" width="1" height="1" fill="#BD1919" />
<rect x="80" y="3" width="1" height="1" fill="#BD1919" />
<rect x="81" y="3" width="1" height="1" fill="#BD1919" />
<rect x="82" y="3" width="1" height="1" fill="#BD1919" />
<rect x="83" y="3" width="1" height="1" fill="#BD1919" />
<rect x="84" y="3" width="1" height="1" fill="#BD1919" />
<rect x="85" y="3" width="1" height="1" fill="#BD1919" />
<rect x="86" y="3" width="1" height="1" fill="#BD1919" />
<rect x="87" y="3" width="1" height="1" fill="#BD1919" />
<rect x="88" y="3" width="1" height="1" fill="#BD1919" />
<rect x="89" y="3" width="1" height="1" fill="#BD1919" />
<rect x="90" y="3" width="1" height="1" fill="#BD1919" />
<rect x="91" y="3" width="1" height="1" fill="#BD1919" />
<rect x="92" y="3" width="1" height="1" fill="#BD1919" />
<rect x="93" y="3" width="1" height="1" fill="#BD1919" />
<rect x="94" y="3" width="1" height="1" fill="#BD1919" />
<rect x="95" y="3" width="1" height="1" fill="#BD1919" />
<rect x="96" y="3" width="1" height="1" fill="#BD1919" />
<rect x="97" y="3" width="1" height="1" fill="#BD1919" />
<rect x="98" y="3" width="1" height="1" fill="#BD1919" />
<rect x="99" y="3" width="1" height="1" fill="#BD1919" />
<rect x="100" y="3" width="1" height="1" fill="#BD1919" />
<rect x="101" y="3" width="1" height="1" fill="#BD1919" />
<rect x="102" y="3" width="1" height="1" fill="#BD1919" />
<rect x="103" y="3" width="1" height="1" fill="#BD1919" />
<rect x="104" y="3" width="1" height="1" fill="#BD1919" />
<rect x="105" y="3" width="1" height="1" fill="#BD1919" />
<rect x="106" y="3" width="1" height="1" fill="#BD1919" />
<rect x="107" y="3" width="1" height="1" fill="#BD1919" />
<rect x="108" y="3" width="1" height="1" fill="#BD1919" />
<rect x="109" y="3" width="1" height="1" fill="#BD1919" />
<rect x="110" y="3" width="1" height="1" fill="#BD1919" />
<rect x="111" y="3" width="1" height="1" fill="#BD1919" />
<rect x="112" y="3" width="1" height="1" fill="#BD1919" />
<rect x="113" y="3" width="1" height="1" fill="#BD1919" />
<rect x="114" y="3" width="1" height="1" fill="#BD1919" />
<rect x="115" y="3" width="1" height="1" fill="#BD1919" />
<rect x="116" y="3" width="1" height="1" fill="#BD1919" />
<rect x="117" y="3" width="1" height="1" fill="#BD1919" />
<rect x="118" y="3" width="1" height="1" fill="#BD1919" />
<rect x="119" y="3" width="1" height="1" fill="#BD1919" />
<rect x="120" y="3" width="1" height="1" fill="#BD1919" />
<rect x="121" y="3" width="1" height="1" fill="#BD1919" />
<rect x="122" y="3" width="1" height="1" fill="#BD1919" />
<rect x="123" y="3" width="1" height="1" fill="#BD1919" />
<rect x="124" y="3" width="1" height="1" fill="#BD1919" />
<rect x="125" y="3" width="1" height="1" fill="#BD1919" />
<rect x="126" y="3" width="1" height="1" fill="#BD1919" />
<rect x="127" y="3" width="1" height="1" fill="#BD1919" />
<rect x="0" y="4" width="1" height="1" fill="#7B0505" />
<rect x="1" y="4" width="1" height="1" fill="#7B0505" />
<rect x="2" y="4" width="1" height="1" fill="#7B0505" />
<rect x="3" y="4" width="1" height="1" fill="#7B0505" />
<rect x="4" y="4" width="1" height="1" fill="#7B0505" />
<rect x="5" y="4" width="1" height="1" fill="#7B0505" />
<rect x="6" y="4" width="1" height="1" fill="#7B0505" />
<rect x="7" y="4" width="1" height="1" fill="#7B0505" />
<rect x="8" y="4" width="1" height="1" fill="#7B0505" />
<rect x="9" y="4" width="1" height="1" fill="#7B0505" />
<rect x="10" y="4" width="1" height="1" fill="#7B0505" />
<rect x="11" y="4" width="1" height="1" fill="#7B0505" />
<rect x="12" y="4" width="1" height="1" fill="#7B0505" />
<rect x="13" y="4" width="1" height="1" fill="#7B0505" />
<rect x="14" y="4" width="1" height="1" fill="#7B0505" />
<rect x="15" y="4" width="1" height="1" fill="#7B0505" />
<rect x="16" y="4" width="1" height="1" fill="#7B0505" />
<rect x="17" y="4" width="1" height="1" fill="#7B0505" />
<rect x="18" y="4" width="1" height="1" fill="#7B0505" />
<rect x="19" y="4" width="1" height="1" fill="#7B0505" />
<rect x="20" y="4" width="1" height="1" fill="#7B0505" />
<rect x="21" y="4" width="1" height="1" fill="#7B0505" />
<rect x="22" y="4" width="1" height="1" fill="#7B0505" />
<rect x="23" y="4" width="1" height="1" fill="#7B0505" />
<rect x="24" y="4" width="1" height="1" fill="#7B0505" />
<rect x="25" y="4" width="1" height="1" fill="#7B0505" />
<rect x="26" y="4" width="1" height="1" fill="#7B0505" />
<rect x="27" y="4" width="1" height="1" fill="#7B0505" />
<rect x="28" y="4" width="1" height="1" fill="#7B0505" />
<rect x="29" y="4" width="1" height="1" fill="#7B0505" />
<rect x="30" y="4" width="1" height="1" fill="#7B0505" />
<rect x="31" y="4" width="1" height="1" fill="#7B0505" />
<rect x="32" y="4" width="1" height="1" fill="#7B0505" />
<rect x="33" y="4" width="1" height="1" fill="#7B0505" />
<rect x="34" y="4" width="1" height="1" fill="#7B0505" />
<rect x="35" y="4" width="1" height="1" fill="#7B0505" />
<rect x="36" y="4" width="1" height="1" fill="#7B0505" />
<rect x="37" y="4" width="1" height="1" fill="#7B0505" />
<rect x="38" y="4" width="1" height="1" fill="#7B0505" />
<rect x="39" y="4" width="1" height="1" fill="#7B0505" />
<rect x="40" y="4" width="1" height="1" fill="#7B0505" />
<rect x="41" y="4" width="1" height="1" fill="#7B0505" />
<rect x="42" y="4" width="1" height="1" fill="#7B0505" />
<rect x="43" y="4" width="1" height="1" fill="#7B0505" />
<rect x="44" y="4" width="1" height="1" fill="#7B0505" />
<rect x="45" y="4" width="1" height="1" fill="#7B0505" />
<rect x="46" y="4" width="1" height="1" fill="#7B0505" />
<rect x="47" y="4" width="1" height="1" fill="#7B0505" />
<rect x="48" y="4" width="1" height="1" fill="#7B0505" />
<rect x="49" y="4" width="1" height="1" fill="#7B0505" />
<rect x="50" y="4" width="1" height="1" fill="#7B0505" />
<rect x="51" y="4" width="1" height="1" fill="#7B0505" />
<rect x="52" y="4" width="1" height="1" fill="#7B0505" />
<rect x="53" y="4" width="1" height="1" fill="#7B0505" />
<rect x="54" y="4" width="1" height="1" fill="#7B0505" />
<rect x="55" y="4" width="1" height="1" fill="#7B0505" />
<rect x="56" y="4" width="1" height="1" fill="#7B0505" />
<rect x="57" y="4" width="1" height="1" fill="#7B0505" />
<rect x="58" y="4" width="1" height="1" fill="#7B0505" />
<rect x="59" y="4" width="1" height="1" fill="#7B0505" />
<rect x="60" y="4" width="1" height="1" fill="#7B0505" />
<rect x="61" y="4" width="1" height="1" fill="#7B0505" />
<rect x="62" y="4" width="1" height="1" fill="#7B0505" />
<rect x="63" y="4" width="1" height="1" fill="#7B0505" />
<rect x="64" y="4" width="1" height="1" fill="#7B0505" />
<rect x="65" y="4" width="1" height="1" fill="#7B0505" />
<rect x="66" y="4" width="1" height="1" fill="#7B0505" />
<rect x="67" y="4" width="1" height="1" fill="#7B0505" />
<rect x="68" y="4" width="1" height="1" fill="#7B0505" />
<rect x="69" y="4" width="1" height="1" fill="#7B0505" />
<rect x="70" y="4" width="1" height="1" fill="#7B0505" />
<rect x="71" y="4" width="1" height="1" fill="#7B0505" />
<rect x="72" y="4" width="1" height="1" fill="#7B0505" />
<rect x="73" y="4" width="1" height="1" fill="#7B0505" />
<rect x="74" y="4" width="1" height="1" fill="#7B0505" />
<rect x="75" y="4" width="1" height="1" fill="#7B0505" />
<rect x="76" y="4" width="1" height="1" fill="#7B0505" />
<rect x="77" y="4" width="1" height="1" fill="#7B0505" />
<rect x="78" y="4" width="1" height="1" fill="#7B0505" />
<rect x="79" y="4" width="1" height="1" fill="#7B0505" />
<rect x="80" y="4" width="1" height="1" fill="#7B0505" />
<rect x="81" y="4" width="1" height="1" fill="#7B0505" />
<rect x="82" y="4" width="1" height="1" fill="#7B0505" />
<rect x="83" y="4" width="1" height="1" fill="#7B0505" />
<rect x="84" y="4" width="1" height="1" fill="#7B0505" />
<rect x="85" y="4" width="1" height="1" fill="#7B0505" />
<rect x="86" y="4" width="1" height="1" fill="#7B0505" />
<rect x="87" y="4" width="1" height="1" fill="#7B0505" />
<rect x="88" y="4" width="1" height="1" fill="#7B0505" />
<rect x="89" y="4" width="1" height="1" fill="#7B0505" />
<rect x="90" y="4" width="1" height="1" fill="#7B0505" />
<rect x="91" y="4" width="1" height="1" fill="#7B0505" />
<rect x="92" y="4" width="1" height="1" fill="#7B0505" />
<rect x="93" y="4" width="1" height="1" fill="#7B0505" />
<rect x="94" y="4" width="1" height="1" fill="#7B0505" />
<rect x="95" y="4" width="1" height="1" fill="#7B0505" />
<rect x="96" y="4" width="1" height="1" fill="#7B0505" />
<rect x="97" y="4" width="1" height="1" fill="#7B0505" />
<rect x="98" y="4" width="1" height="1" fill="#7B0505" />
<rect x="99" y="4" width="1" height="1" fill="#7B0505" />
<rect x="100" y="4" width="1" height="1" fill="#7B0505" />
<rect x="101" y="4" width="1" height="1" fill="#7B0505" />
<rect x="102" y="4" width="1" height="1" fill="#7B0505" />
<rect x="103" y="4" width="1" height="1" fill="#7B0505" />
<rect x="104" y="4" width="1" height="1" fill="#7B0505" />
<rect x="105" y="4" width="1" height="1" fill="#7B0505" />
<rect x="106" y="4" width="1" height="1" fill="#7B0505" />
<rect x="107" y="4" width="1" height="1" fill="#7B0505" />
<rect x="108" y="4" width="1" height="1" fill="#7B0505" />
<rect x="109" y="4" width="1" height="1" fill="#7B0505" />
<rect x="110" y="4" width="1" height="1" fill="#7B0505" />
<rect x="111" y="4" width="1" height="1" fill="#7B0505" />
<rect x="112" y="4" width="1" height="1" fill="#7B0505" />
<rect x="113" y="4" width="1" height="1" fill="#7B0505" />
<rect x="114" y="4" width="1" height="1" fill="#7B0505" />
<rect x="115" y="4" width="1" height="1" fill="#7B0505" />
<rect x="116" y="4" width="1" height="1" fill="#7B0505" />
<rect x="117" y="4" width="1" height="1" fill="#7B0505" />
<rect x="118" y="4" width="1" height="1" fill="#7B0505" />
<rect x="119" y="4" width="1" height="1" fill="#7B0505" />
<rect x="120" y="4" width="1" height="1" fill="#7B0505" />
<rect x="121" y="4" width="1" height="1" fill="#7B0505" />
<rect x="122" y="4" width="1" height="1" fill="#7B0505" />
<rect x="123" y="4" width="1" height="1" fill="#7B0505" />
<rect x="124" y="4" width="1" height="1" fill="#7B0505" />
<rect x="125" y="4" width="1" height="1" fill="#7B0505" />
<rect x="126" y="4" width="1" height="1" fill="#7B0505" />
<rect x="127" y="4" width="1" height="1" fill="#7B0505" />
<rect x="0" y="123" width="1" height="1" fill="#7B0505" />
<rect x="1" y="123" width="1" height="1" fill="#7B0505" />
<rect x="2" y="123" width="1" height="1" fill="#7B0505" />
<rect x="3" y="123" width="1" height="1" fill="#7B0505" />
<rect x="4" y="123" width="1" height="1" fill="#7B0505" />
<rect x="5" y="123" width="1" height="1" fill="#7B0505" />
<rect x="6" y="123" width="1" height="1" fill="#7B0505" />
<rect x="7" y="123" width="1" height="1" fill="#7B0505" />
<rect x="8" y="123" width="1" height="1" fill="#7B0505" />
<rect x="9" y="123" width="1" height="1" fill="#7B0505" />
<rect x="10" y="123" width="1" height="1" fill="#7B0505" />
<rect x="11" y="123" width="1" height="1" fill="#7B0505" />
<rect x="12" y="123" width="1" height="1" fill="#7B0505" />
<rect x="13" y="123" width="1" height="1" fill="#7B0505" />
<rect x="14" y="123" width="1" height="1" fill="#7B0505" />
<rect x="15" y="123" width="1" height="1" fill="#7B0505" />
<rect x="16" y="123" width="1" height="1" fill="#7B0505" />
<rect x="17" y="123" width="1" height="1" fill="#7B0505" />
<rect x="18" y="123" width="1" height="1" fill="#7B0505" />
<rect x="19" y="123" width="1" height="1" fill="#7B0505" />
<rect x="20" y="123" width="1" height="1" fill="#7B0505" />
<rect x="21" y="123" width="1" height="1" fill="#7B0505" />
<rect x="22" y="123" width="1" height="1" fill="#7B0505" />
<rect x="23" y="123" width="1" height="1" fill="#7B0505" />
<rect x="24" y="123" width="1" height="1" fill="#7B0505" />
<rect x="25" y="123" width="1" height="1" fill="#7B0505" />
<rect x="26" y="123" width="1" height="1" fill="#7B0505" />
<rect x="27" y="123" width="1" height="1" fill="#7B0505" />
<rect x="28" y="123" width="1" height="1" fill="#7B0505" />
<rect x="29" y="123" width="1" height="1" fill="#7B0505" />
<rect x="30" y="123" width="1" height="1" fill="#7B0505" />
<rect x="31" y="123" width="1" height="1" fill="#7B0505" />
<rect x="32" y="123" width="1" height="1" fill="#7B0505" />
<rect x="33" y="123" width="1" height="1" fill="#7B0505" />
<rect x="34" y="123" width="1" height="1" fill="#7B0505" />
<rect x="35" y="123" width="1" height="1" fill="#7B0505" />
<rect x="36" y="123" width="1" height="1" fill="#7B0505" />
<rect x="37" y="123" width="1" height="1" fill="#7B0505" />
<rect x="38" y="123" width="1" height="1" fill="#7B0505" />
<rect x="39" y="123" width="1" height="1" fill="#7B0505" />
<rect x="40" y="123" width="1" height="1" fill="#7B0505" />
<rect x="41" y="123" width="1" height="1" fill="#7B0505" />
<rect x="42" y="123" width="1" height="1" fill="#7B0505" />
<rect x="43" y="123" width="1" height="1" fill="#7B0505" />
<rect x="44" y="123" width="1" height="1" fill="#7B0505" />
<rect x="45" y="123" width="1" height="1" fill="#7B0505" />
<rect x="46" y="123" width="1" height="1" fill="#7B0505" />
<rect x="47" y="123" width="1" height="1" fill="#7B0505" />
<rect x="48" y="123" width="1" height="1" fill="#7B0505" />
<rect x="49" y="123" width="1" height="1" fill="#7B0505" />
<rect x="50" y="123" width="1" height="1" fill="#7B0505" />
<rect x="51" y="123" width="1" height="1" fill="#7B0505" />
<rect x="52" y="123" width="1" height="1" fill="#7B0505" />
<rect x="53" y="123" width="1" height="1" fill="#7B0505" />
<rect x="54" y="123" width="1" height="1" fill="#7B0505" />
<rect x="55" y="123" width="1" height="1" fill="#7B0505" />
<rect x="56" y="123" width="1" height="1" fill="#7B0505" />
<rect x="57" y="123" width="1" height="1" fill="#7B0505" />
<rect x="58" y="123" width="1" height="1" fill="#7B0505" />
<rect x="59" y="123" width="1" height="1" fill="#7B0505" />
<rect x="60" y="123" width="1" height="1" fill="#7B0505" />
<rect x="61" y="123" width="1" height="1" fill="#7B0505" />
<rect x="62" y="123" width="1" height="1" fill="#7B0505" />
<rect x="63" y="123" width="1" height="1" fill="#7B0505" />
<rect x="64" y="123" width="1" height="1" fill="#7B0505" />
<rect x="65" y="123" width="1" height="1" fill="#7B0505" />
<rect x="66" y="123" width="1" height="1" fill="#7B0505" />
<rect x="67" y="123" width="1" height="1" fill="#7B0505" />
<rect x="68" y="123" width="1" height="1" fill="#7B0505" />
<rect x="69" y="123" width="1" height="1" fill="#7B0505" />
<rect x="70" y="123" width="1" height="1" fill="#7B0505" />
<rect x="71" y="123" width="1" height="1" fill="#7B0505" />
<rect x="72" y="123" width="1" height="1" fill="#7B0505" />
<rect x="73" y="123" width="1" height="1" fill="#7B0505" />
<rect x="74" y="123" width="1" height="1" fill="#7B0505" />
<rect x="75" y="123" width="1" height="1" fill="#7B0505" />
<rect x="76" y="123" width="1" height="1" fill="#7B0505" />
<rect x="77" y="123" width="1" height="1" fill="#7B0505" />
<rect x="78" y="123" width="1" height="1" fill="#7B0505" />
<rect x="79" y="123" width="1" height="1" fill="#7B0505" />
<rect x="80" y="123" width="1" height="1" fill="#7B0505" />
<rect x="81" y="123" width="1" height="1" fill="#7B0505" />
<rect x="82" y="123" width="1" height="1" fill="#7B0505" />
<rect x="83" y="123" width="1" height="1" fill="#7B0505" />
<rect x="84" y="123" width="1" height="1" fill="#7B0505" />
<rect x="85" y="123" width="1" height="1" fill="#7B0505" />
<rect x="86" y="123" width="1" height="1" fill="#7B0505" />
<rect x="87" y="123" width="1" height="1" fill="#7B0505" />
<rect x="88" y="123" width="1" height="1" fill="#7B0505" />
<rect x="89" y="123" width="1" height="1" fill="#7B0505" />
<rect x="90" y="123" width="1" height="1" fill="#7B0505" />
<rect x="91" y="123" width="1" height="1" fill="#7B0505" />
<rect x="92" y="123" width="1" height="1" fill="#7B0505" />
<rect x="93" y="123" width="1" height="1" fill="#7B0505" />
<rect x="94" y="123" width="1" height="1" fill="#7B0505" />
<rect x="95" y="123" width="1" height="1" fill="#7B0505" />
<rect x="96" y="123" width="1" height="1" fill="#7B0505" />
<rect x="97" y="123" width="1" height="1" fill="#7B0505" />
<rect x="98" y="123" width="1" height="1" fill="#7B0505" />
<rect x="99" y="123" width="1" height="1" fill="#7B0505" />
<rect x="100" y="123" width="1" height="1" fill="#7B0505" />
<rect x="101" y="123" width="1" height="1" fill="#7B0505" />
<rect x="102" y="123" width="1" height="1" fill="#7B0505" />
<rect x="103" y="123" width="1" height="1" fill="#7B0505" />
<rect x="104" y="123" width="1" height="1" fill="#7B0505" />
<rect x="105" y="123" width="1" height="1" fill="#7B0505" />
<rect x="106" y="123" width="1" height="1" fill="#7B0505" />
<rect x="107" y="123" width="1" height="1" fill="#7B0505" />
<rect x="108" y="123" width="1" height="1" fill="#7B0505" />
<rect x="109" y="123" width="1" height="1" fill="#7B0505" />
<rect x="110" y="123" width="1" height="1" fill="#7B0505" />
<rect x="111" y="123" width="1" height="1" fill="#7B0505" />
<rect x="112" y="123" width="1" height="1" fill="#7B0505" />
<rect x="113" y="123" width="1" height="1" fill="#7B0505" />
<rect x="114" y="123" width="1" height="1" fill="#7B0505" />
<rect x="115" y="123" width="1" height="1" fill="#7B0505" />
<rect x="116" y="123" width="1" height="1" fill="#7B0505" />
<rect x="117" y="123" width="1" height="1" fill="#7B0505" />
<rect x="118" y="123" width="1" height="1" fill="#7B0505" />
<rect x="119" y="123" width="1" height="1" fill="#7B0505" />
<rect x="120" y="123" width="1" height="1" fill="#7B0505" />
<rect x="121" y="123" width="1" height="1" fill="#7B0505" />
<rect x="122" y="123" width="1" height="1" fill="#7B0505" />
<rect x="123" y="123" width="1" height="1" fill="#7B0505" />
<rect x="124" y="123" width="1" height="1" fill="#7B0505" />
<rect x="125" y="123" width="1" height="1" fill="#7B0505" />
<rect x="126" y="123" width="1" height="1" fill="#7B0505" />
<rect x="127" y="123" width="1" height="1" fill="#7B0505" />
<rect x="0" y="124" width="1" height="1" fill="#BD1919" />
<rect x="1" y="124" width="1" height="1" fill="#BD1919" />
<rect x="2" y="124" width="1" height="1" fill="#BD1919" />
<rect x="3" y="124" width="1" height="1" fill="#BD1919" />
<rect x="4" y="124" width="1" height="1" fill="#BD1919" />
<rect x="5" y="124" width="1" height="1" fill="#BD1919" />
<rect x="6" y="124" width="1" height="1" fill="#BD1919" />
<rect x="7" y="124" width="1" height="1" fill="#BD1919" />
<rect x="8" y="124" width="1" height="1" fill="#BD1919" />
<rect x="9" y="124" width="1" height="1" fill="#BD1919" />
<rect x="10" y="124" width="1" height="1" fill="#BD1919" />
<rect x="11" y="124" width="1" height="1" fill="#BD1919" />
<rect x="12" y="124" width="1" height="1" fill="#BD1919" />
<rect x="13" y="124" width="1" height="1" fill="#BD1919" />
<rect x="14" y="124" width="1" height="1" fill="#BD1919" />
<rect x="15" y="124" width="1" height="1" fill="#BD1919" />
<rect x="16" y="124" width="1" height="1" fill="#BD1919" />
<rect x="17" y="124" width="1" height="1" fill="#BD1919" />
<rect x="18" y="124" width="1" height="1" fill="#BD1919" />
<rect x="19" y="124" width="1" height="1" fill="#BD1919" />
<rect x="20" y="124" width="1" height="1" fill="#BD1919" />
<rect x="21" y="124" width="1" height="1" fill="#BD1919" />
<rect x="22" y="124" width="1" height="1" fill="#BD1919" />
<rect x="23" y="124" width="1" height="1" fill="#BD1919" />
<rect x="24" y="124" width="1" height="1" fill="#BD1919" />
<rect x="25" y="124" width="1" height="1" fill="#BD1919" />
<rect x="26" y="124" width="1" height="1" fill="#BD1919" />
<rect x="27" y="124" width="1" height="1" fill="#BD1919" />
<rect x="28" y="124" width="1" height="1" fill="#BD1919" />
<rect x="29" y="124" width="1" height="1" fill="#BD1919" />
<rect x="30" y="124" width="1" height="1" fill="#BD1919" />
<rect x="31" y="124" width="1" height="1" fill="#BD1919" />
<rect x="32" y="124" width="1" height="1" fill="#BD1919" />
<rect x="33" y="124" width="1" height="1" fill="#BD1919" />
<rect x="34" y="124" width="1" height="1" fill="#BD1919" />
<rect x="35" y="124" width="1" height="1" fill="#BD1919" />
<rect x="36" y="124" width="1" height="1" fill="#BD1919" />
<rect x="37" y="124" width="1" height="1" fill="#BD1919" />
<rect x="38" y="124" width="1" height="1" fill="#BD1919" />
<rect x="39" y="124" width="1" height="1" fill="#BD1919" />
<rect x="40" y="124" width="1" height="1" fill="#BD1919" />
<rect x="41" y="124" width="1" height="1" fill="#BD1919" />
<rect x="42" y="124" width="1" height="1" fill="#BD1919" />
<rect x="43" y="124" width="1" height="1" fill="#BD1919" />
<rect x="44" y="124" width="1" height="1" fill="#BD1919" />
<rect x="45" y="124" width="1" height="1" fill="#BD1919" />
<rect x="46" y="124" width="1" height="1" fill="#BD1919" />
<rect x="47" y="124" width="1" height="1" fill="#BD1919" />
<rect x="48" y="124" width="1" height="1" fill="#BD1919" />
<rect x="49" y="124" width="1" height="1" fill="#BD1919" />
<rect x="50" y="124" width="1" height="1" fill="#BD1919" />
<rect x="51" y="124" width="1" height="1" fill="#BD1919" />
<rect x="52" y="124" width="1" height="1" fill="#BD1919" />
<rect x="53" y="124" width="1" height="1" fill="#BD1919" />
<rect x="54" y="124" width="1" height="1" fill="#BD1919" />
<rect x="55" y="124" width="1" height="1" fill="#BD1919" />
<rect x="56" y="124" width="1" height="1" fill="#BD1919" />
<rect x="57" y="124" width="1" height="1" fill="#BD1919" />
<rect x="58" y="124" width="1" height="1" fill="#BD1919" />
<rect x="59" y="124" width="1" height="1" fill="#BD1919" />
<rect x="60" y="124" width="1" height="1" fill="#BD1919" />
<rect x="61" y="124" width="1" height="1" fill="#BD1919" />
<rect x="62" y="124" width="1" height="1" fill="#BD1919" />
<rect x="63" y="124" width="1" height="1" fill="#BD1919" />
<rect x="64" y="124" width="1" height="1" fill="#BD1919" />
<rect x="65" y="124" width="1" height="1" fill="#BD1919" />
<rect x="66" y="124" width="1" height="1" fill="#BD1919" />
<rect x="67" y="124" width="1" height="1" fill="#BD1919" />
<rect x="68" y="124" width="1" height="1" fill="#BD1919" />
<rect x="69" y="124" width="1" height="1" fill="#BD1919" />
<rect x="70" y="124" width="1" height="1" fill="#BD1919" />
<rect x="71" y="124" width="1" height="1" fill="#BD1919" />
<rect x="72" y="124" width="1" height="1" fill="#BD1919" />
<rect x="73" y="124" width="1" height="1" fill="#BD1919" />
<rect x="74" y="124" width="1" height="1" fill="#BD1919" />
<rect x="75" y="124" width="1" height="1" fill="#BD1919" />
<rect x="76" y="124" width="1" height="1" fill="#BD1919" />
<rect x="77" y="124" width="1" height="1" fill="#BD1919" />
<rect x="78" y="124" width="1" height="1" fill="#BD1919" />
<rect x="79" y="124" width="1" height="1" fill="#BD1919" />
<rect x="80" y="124" width="1" height="1" fill="#BD1919" />
<rect x="81" y="124" width="1" height="1" fill="#BD1919" />
<rect x="82" y="124" width="1" height="1" fill="#BD1919" />
<rect x="83" y="124" width="1" height="1" fill="#BD1919" />
<rect x="84" y="124" width="1" height="1" fill="#BD1919" />
<rect x="85" y="124" width="1" height="1" fill="#BD1919" />
<rect x="86" y="124" width="1" height="1" fill="#BD1919" />
<rect x="87" y="124" width="1" height="1" fill="#BD1919" />
<rect x="88" y="124" width="1" height="1" fill="#BD1919" />
<rect x="89" y="124" width="1" height="1" fill="#BD1919" />
<rect x="90" y="124" width="1" height="1" fill="#BD1919" />
<rect x="91" y="124" width="1" height="1" fill="#BD1919" />
<rect x="92" y="124" width="1" height="1" fill="#BD1919" />
<rect x="93" y="124" width="1" height="1" fill="#BD1919" />
<rect x="94" y="124" width="1" height="1" fill="#BD1919" />
<rect x="95" y="124" width="1" height="1" fill="#BD1919" />
<rect x="96" y="124" width="1" height="1" fill="#BD1919" />
<rect x="97" y="124" width="1" height="1" fill="#BD1919" />
<rect x="98" y="124" width="1" height="1" fill="#BD1919" />
<rect x="99" y="124" width="1" height="1" fill="#BD1919" />
<rect x="100" y="124" width="1" height="1" fill="#BD1919" />
<rect x="101" y="124" width="1" height="1" fill="#BD1919" />
<rect x="102" y="124" width="1" height="1" fill="#BD1919" />
<rect x="103" y="124" width="1" height="1" fill="#BD1919" />
<rect x="104" y="124" width="1" height="1" fill="#BD1919" />
<rect x="105" y="124" width="1" height="1" fill="#BD1919" />
<rect x="106" y="124" width="1" height="1" fill="#BD1919" />
<rect x="107" y="124" width="1" height="1" fill="#BD1919" />
<rect x="108" y="124" width="1" height="1" fill="#BD1919" />
<rect x="109" y="124" width="1" height="1" fill="#BD1919" />
<rect x="110" y="124" width="1" height="1" fill="#BD1919" />
<rect x="111" y="124" width="1" height="1" fill="#BD1919" />
<rect x="112" y="124" width="1" height="1" fill="#BD1919" />
<rect x="113" y="124" width="1" height="1" fill="#BD1919" />
<rect x="114" y="124" width="1" height="1" fill="#BD1919" />
<rect x="115" y="124" width="1" height="1" fill="#BD1919" />
<rect x="116" y="124" width="1" height="1" fill="#BD1919" />
<rect x="117" y="124" width="1" height="1" fill="#BD1919" />
<rect x="118" y="124" width="1" height="1" fill="#BD1919" />
<rect x="119" y="124" width="1" height="1" fill="#BD1919" />
<rect x="120" y="124" width="1" height="1" fill="#BD1919" />
<rect x="121" y="124" width="1" height="1" fill="#BD1919" />
<rect x="122" y="124" width="1" height="1" fill="#BD1919" />
<rect x="123" y="124" width="1" height="1" fill="#BD1919" />
<rect x="124" y="124" width="1" height="1" fill="#BD1919" />
<rect x="125" y="124" width="1" height="1" fill="#BD1919" />
<rect x="126" y="124" width="1" height="1" fill="#BD1919" />
<rect x="127" y="124" width="1" height="1" fill="#BD1919" />
<rect x="0" y="125" width="1" height="1" fill="#F72E2E" />
<rect x="1" y="125" width="1" height="1" fill="#F72E2E" />
<rect x="2" y="125" width="1" height="1" fill="#F72E2E" />
<rect x="3" y="125" width="1" height="1" fill="#F72E2E" />
<rect x="4" y="125" width="1" height="1" fill="#F72E2E" />
<rect x="5" y="125" width="1" height="1" fill="#F72E2E" />
<rect x="6" y="125" width="1" height="1" fill="#F72E2E" />
<rect x="7" y="125" width="1" height="1" fill="#F72E2E" />
<rect x="8" y="125" width="1" height="1" fill="#F72E2E" />
<rect x="9" y="125" width="1" height="1" fill="#F72E2E" />
<rect x="10" y="125" width="1" height="1" fill="#F72E2E" />
<rect x="11" y="125" width="1" height="1" fill="#F72E2E" />
<rect x="12" y="125" width="1" height="1" fill="#F72E2E" />
<rect x="13" y="125" width="1" height="1" fill="#F72E2E" />
<rect x="14" y="125" width="1" height="1" fill="#F72E2E" />
<rect x="15" y="125" width="1" height="1" fill="#F72E2E" />
<rect x="16" y="125" width="1" height="1" fill="#F72E2E" />
<rect x="17" y="125" width="1" height="1" fill="#F72E2E" />
<rect x="18" y="125" width="1" height="1" fill="#F72E2E" />
<rect x="19" y="125" width="1" height="1" fill="#F72E2E" />
<rect x="20" y="125" width="1" height="1" fill="#F72E2E" />
<rect x="21" y="125" width="1" height="1" fill="#F72E2E" />
<rect x="22" y="125" width="1" height="1" fill="#F72E2E" />
<rect x="23" y="125" width="1" height="1" fill="#F72E2E" />
<rect x="24" y="125" width="1" height="1" fill="#F72E2E" />
<rect x="25" y="125" width="1" height="1" fill="#F72E2E" />
<rect x="26" y="125" width="1" height="1" fill="#F72E2E" />
<rect x="27" y="125" width="1" height="1" fill="#F72E2E" />
<rect x="28" y="125" width="1" height="1" fill="#F72E2E" />
<rect x="29" y="125" width="1" height="1" fill="#F72E2E" />
<rect x="30" y="125" width="1" height="1" fill="#F72E2E" />
<rect x="31" y="125" width="1" height="1" fill="#F72E2E" />
<rect x="32" y="125" width="1" height="1" fill="#F72E2E" />
<rect x="33" y="125" width="1" height="1" fill="#F72E2E" />
<rect x="34" y="125" width="1" height="1" fill="#F72E2E" />
<rect x="35" y="125" width="1" height="1" fill="#F72E2E" />
<rect x="36" y="125" width="1" height="1" fill="#F72E2E" />
<rect x="37" y="125" width="1" height="1" fill="#F72E2E" />
<rect x="38" y="125" width="1" height="1" fill="#F72E2E" />
<rect x="39" y="125" width="1" height="1" fill="#F72E2E" />
<rect x="40" y="125" width="1" height="1" fill="#F72E2E" />
<rect x="41" y="125" width="1" height="1" fill="#F72E2E" />
<rect x="42" y="125" width="1" height="1" fill="#F72E2E" />
<rect x="43" y="125" width="1" height="1" fill="#F72E2E" />
<rect x="44" y="125" width="1" height="1" fill="#F72E2E" />
<rect x="45" y="125" width="1" height="1" fill="#F72E2E" />
<rect x="46" y="125" width="1" height="1" fill="#F72E2E" />
<rect x="47" y="125" width="1" height="1" fill="#F72E2E" />
<rect x="48" y="125" width="1" height="1" fill="#F72E2E" />
<rect x="49" y="125" width="1" height="1" fill="#F72E2E" />
<rect x="50" y="125" width="1" height="1" fill="#F72E2E" />
<rect x="51" y="125" width="1" height="1" fill="#F72E2E" />
<rect x="52" y="125" width="1" height="1" fill="#F72E2E" />
<rect x="53" y="125" width="1" height="1" fill="#F72E2E" />
<rect x="54" y="125" width="1" height="1" fill="#F72E2E" />
<rect x="55" y="125" width="1" height="1" fill="#F72E2E" />
<rect x="56" y="125" width="1" height="1" fill="#F72E2E" />
<rect x="57" y="125" width="1" height="1" fill="#F72E2E" />
<rect x="58" y="125" width="1" height="1" fill="#F72E2E" />
<rect x="59" y="125" width="1" height="1" fill="#F72E2E" />
<rect x="60" y="125" width="1" height="1" fill="#F72E2E" />
<rect x="61" y="125" width="1" height="1" fill="#F72E2E" />
<rect x="62" y="125" width="1" height="1" fill="#F72E2E" />
<rect x="63" y="125" width="1" height="1" fill="#F72E2E" />
<rect x="64" y="125" width="1" height="1" fill="#F72E2E" />
<rect x="65" y="125" width="1" height="1" fill="#F72E2E" />
<rect x="66" y="125" width="1" height="1" fill="#F72E2E" />
<rect x="67" y="125" width="1" height="1" fill="#F72E2E" />
<rect x="68" y="125" width="1" height="1" fill="#F72E2E" />
<rect x="69" y="125" width="1" height="1" fill="#F72E2E" />
<rect x="70" y="125" width="1" height="1" fill="#F72E2E" />
<rect x="71" y="125" width="1" height="1" fill="#F72E2E" />
<rect x="72" y="125" width="1" height="1" fill="#F72E2E" />
<rect x="73" y="125" width="1" height="1" fill="#F72E2E" />
<rect x="74" y="125" width="1" height="1" fill="#F72E2E" />
<rect x="75" y="125" width="1" height="1" fill="#F72E2E" />
<rect x="76" y="125" width="1" height="1" fill="#F72E2E" />
<rect x="77" y="125" width="1" height="1" fill="#F72E2E" />
<rect x="78" y="125" width="1" height="1" fill="#F72E2E" />
<rect x="79" y="125" width="1" height="1" fill="#F72E2E" />
<rect x="80" y="125" width="1" height="1" fill="#F72E2E" />
<rect x="81" y="125" width="1" height="1" fill="#F72E2E" />
<rect x="82" y="125" width="1" height="1" fill="#F72E2E" />
<rect x="83" y="125" width="1" height="1" fill="#F72E2E" />
<rect x="84" y="125" width="1" height="1" fill="#F72E2E" />
<rect x="85" y="125" width="1" height="1" fill="#F72E2E" />
<rect x="86" y="125" width="1" height="1" fill="#F72E2E" />
<rect x="87" y="125" width="1" height="1" fill="#F72E2E" />
<rect x="88" y="125" width="1" height="1" fill="#F72E2E" />
<rect x="89" y="125" width="1" height="1" fill="#F72E2E" />
<rect x="90" y="125" width="1" height="1" fill="#F72E2E" />
<rect x="91" y="125" width="1" height="1" fill="#F72E2E" />
<rect x="92" y="125" width="1" height="1" fill="#F72E2E" />
<rect x="93" y="125" width="1" height="1" fill="#F72E2E" />
<rect x="94" y="125" width="1" height="1" fill="#F72E2E" />
<rect x="95" y="125" width="1" height="1" fill="#F72E2E" />
<rect x="96" y="125" width="1" height="1" fill="#F72E2E" />
<rect x="97" y="125" width="1" height="1" fill="#F72E2E" />
<rect x="98" y="125" width="1" height="1" fill="#F72E2E" />
<rect x="99" y="125" width="1" height="1" fill="#F72E2E" />
<rect x="100" y="125" width="1" height="1" fill="#F72E2E" />
<rect x="101" y="125" width="1" height="1" fill="#F72E2E" />
<rect x="102" y="125" width="1" height="1" fill="#F72E2E" />
<rect x="103" y="125" width="1" height="1" fill="#F72E2E" />
<rect x="104" y="125" width="1" height="1" fill="#F72E2E" />
<rect x="105" y="125" width="1" height="1" fill="#F72E2E" />
<rect x="106" y="125" width="1" height="1" fill="#F72E2E" />
<rect x="107" y="125" width="1" height="1" fill="#F72E2E" />
<rect x="108" y="125" width="1" height="1" fill="#F72E2E" />
<rect x="109" y="125" width="1" height="1" fill="#F72E2E" />
<rect x="110" y="125" width="1" height="1" fill="#F72E2E" />
<rect x="111" y="125" width="1" height="1" fill="#F72E2E" />
<rect x="112" y="125" width="1" height="1" fill="#F72E2E" />
<rect x="113" y="125" width="1" height="1" fill="#F72E2E" />
<rect x="114" y="125" width="1" height="1" fill="#F72E2E" />
<rect x="115" y="125" width="1" height="1" fill="#F72E2E" />
<rect x="116" y="125" width="1" height="1" fill="#F72E2E" />
<rect x="117" y="125" width="1" height="1" fill="#F72E2E" />
<rect x="118" y="125" width="1" height="1" fill="#F72E2E" />
<rect x="119" y="125" width="1" height="1" fill="#F72E2E" />
<rect x="120" y="125" width="1" height="1" fill="#F72E2E" />
<rect x="121" y="125" width="1" height="1" fill="#F72E2E" />
<rect x="122" y="125" width="1" height="1" fill="#F72E2E" />
<rect x="123" y="125" width="1" height="1" fill="#F72E2E" />
<rect x="124" y="125" width="1" height="1" fill="#F72E2E" />
<rect x="125" y="125" width="1" height="1" fill="#F72E2E" />
<rect x="126" y="125" width="1" height="1" fill="#F72E2E" />
<rect x="127" y="125" width="1" height="1" fill="#F72E2E" />
</svg>