<?xml version="1.0" encoding="UTF-8" ?>
<svg version="1.1" width="5" height="128" xmlns="http://www.w3.org/2000/svg" shape-rendering="crispEdges">
<rect x="1" y="0" width="1" height="1" fill="#101010" />
<rect x="2" y="0" width="1" height="1" fill="#101010" />
<rect x="3" y="0" width="1" height="1" fill="#101010" />
<rect x="4" y="0" width="1" height="1" fill="#101010" />
<rect x="0" y="1" width="1" height="1" fill="#101010" />
<rect x="1" y="1" width="1" height="1" fill="#101010" />
<rect x="2" y="1" width="1" height="1" fill="#282727" />
<rect x="3" y="1" width="1" height="1" fill="#282727" />
<rect x="4" y="1" width="1" height="1" fill="#282727" />
<rect x="0" y="2" width="1" height="1" fill="#101010" />
<rect x="1" y="2" width="1" height="1" fill="#282727" />
<rect x="2" y="2" width="1" height="1" fill="#282727" />
<rect x="3" y="2" width="1" height="1" fill="#484747" />
<rect x="4" y="2" width="1" height="1" fill="#484747" />
<rect x="0" y="3" width="1" height="1" fill="#101010" />
<rect x="1" y="3" width="1" height="1" fill="#282727" />
<rect x="2" y="3" width="1" height="1" fill="#484747" />
<rect x="3" y="3" width="1" height="1" fill="#484747" />
<rect x="4" y="3" width="1" height="1" fill="#303030" />
<rect x="0" y="4" width="1" height="1" fill="#101010" />
<rect x="1" y="4" width="1" height="1" fill="#282727" />
<rect x="2" y="4" width="1" height="1" fill="#484747" />
<rect x="3" y="4" width="1" height="1" fill="#303030" />
<rect x="4" y="4" width="1" height="1" fill="#303030" />
<rect x="0" y="5" width="1" height="1" fill="#101010" />
<rect x="1" y="5" width="1" height="1" fill="#282727" />
<rect x="2" y="5" width="1" height="1" fill="#484747" />
<rect x="3" y="5" width="1" height="1" fill="#303030" />
<rect x="4" y="5" width="1" height="1" fill="#303030" />
<rect x="0" y="6" width="1" height="1" fill="#101010" />
<rect x="1" y="6" width="1" height="1" fill="#282727" />
<rect x="2" y="6" width="1" height="1" fill="#484747" />
<rect x="3" y="6" width="1" height="1" fill="#303030" />
<rect x="4" y="6" width="1" height="1" fill="#303030" />
<rect x="0" y="7" width="1" height="1" fill="#101010" />
<rect x="1" y="7" width="1" height="1" fill="#282727" />
<rect x="2" y="7" width="1" height="1" fill="#484747" />
<rect x="3" y="7" width="1" height="1" fill="#303030" />
<rect x="4" y="7" width="1" height="1" fill="#303030" />
<rect x="0" y="8" width="1" height="1" fill="#101010" />
<rect x="1" y="8" width="1" height="1" fill="#282727" />
<rect x="2" y="8" width="1" height="1" fill="#484747" />
<rect x="3" y="8" width="1" height="1" fill="#303030" />
<rect x="4" y="8" width="1" height="1" fill="#303030" />
<rect x="0" y="9" width="1" height="1" fill="#101010" />
<rect x="1" y="9" width="1" height="1" fill="#282727" />
<rect x="2" y="9" width="1" height="1" fill="#484747" />
<rect x="3" y="9" width="1" height="1" fill="#303030" />
<rect x="4" y="9" width="1" height="1" fill="#303030" />
<rect x="0" y="10" width="1" height="1" fill="#101010" />
<rect x="1" y="10" width="1" height="1" fill="#282727" />
<rect x="2" y="10" width="1" height="1" fill="#484747" />
<rect x="3" y="10" width="1" height="1" fill="#303030" />
<rect x="4" y="10" width="1" height="1" fill="#303030" />
<rect x="0" y="11" width="1" height="1" fill="#101010" />
<rect x="1" y="11" width="1" height="1" fill="#282727" />
<rect x="2" y="11" width="1" height="1" fill="#484747" />
<rect x="3" y="11" width="1" height="1" fill="#303030" />
<rect x="4" y="11" width="1" height="1" fill="#303030" />
<rect x="0" y="12" width="1" height="1" fill="#101010" />
<rect x="1" y="12" width="1" height="1" fill="#282727" />
<rect x="2" y="12" width="1" height="1" fill="#484747" />
<rect x="3" y="12" width="1" height="1" fill="#303030" />
<rect x="4" y="12" width="1" height="1" fill="#303030" />
<rect x="0" y="13" width="1" height="1" fill="#101010" />
<rect x="1" y="13" width="1" height="1" fill="#282727" />
<rect x="2" y="13" width="1" height="1" fill="#484747" />
<rect x="3" y="13" width="1" height="1" fill="#303030" />
<rect x="4" y="13" width="1" height="1" fill="#303030" />
<rect x="0" y="14" width="1" height="1" fill="#101010" />
<rect x="1" y="14" width="1" height="1" fill="#282727" />
<rect x="2" y="14" width="1" height="1" fill="#484747" />
<rect x="3" y="14" width="1" height="1" fill="#303030" />
<rect x="4" y="14" width="1" height="1" fill="#303030" />
<rect x="0" y="15" width="1" height="1" fill="#101010" />
<rect x="1" y="15" width="1" height="1" fill="#282727" />
<rect x="2" y="15" width="1" height="1" fill="#484747" />
<rect x="3" y="15" width="1" height="1" fill="#303030" />
<rect x="4" y="15" width="1" height="1" fill="#303030" />
<rect x="0" y="16" width="1" height="1" fill="#101010" />
<rect x="1" y="16" width="1" height="1" fill="#282727" />
<rect x="2" y="16" width="1" height="1" fill="#484747" />
<rect x="3" y="16" width="1" height="1" fill="#303030" />
<rect x="4" y="16" width="1" height="1" fill="#303030" />
<rect x="0" y="17" width="1" height="1" fill="#101010" />
<rect x="1" y="17" width="1" height="1" fill="#282727" />
<rect x="2" y="17" width="1" height="1" fill="#484747" />
<rect x="3" y="17" width="1" height="1" fill="#303030" />
<rect x="4" y="17" width="1" height="1" fill="#303030" />
<rect x="0" y="18" width="1" height="1" fill="#101010" />
<rect x="1" y="18" width="1" height="1" fill="#282727" />
<rect x="2" y="18" width="1" height="1" fill="#484747" />
<rect x="3" y="18" width="1" height="1" fill="#303030" />
<rect x="4" y="18" width="1" height="1" fill="#303030" />
<rect x="0" y="19" width="1" height="1" fill="#101010" />
<rect x="1" y="19" width="1" height="1" fill="#282727" />
<rect x="2" y="19" width="1" height="1" fill="#484747" />
<rect x="3" y="19" width="1" height="1" fill="#303030" />
<rect x="4" y="19" width="1" height="1" fill="#303030" />
<rect x="0" y="20" width="1" height="1" fill="#101010" />
<rect x="1" y="20" width="1" height="1" fill="#282727" />
<rect x="2" y="20" width="1" height="1" fill="#484747" />
<rect x="3" y="20" width="1" height="1" fill="#303030" />
<rect x="4" y="20" width="1" height="1" fill="#303030" />
<rect x="0" y="21" width="1" height="1" fill="#101010" />
<rect x="1" y="21" width="1" height="1" fill="#282727" />
<rect x="2" y="21" width="1" height="1" fill="#484747" />
<rect x="3" y="21" width="1" height="1" fill="#303030" />
<rect x="4" y="21" width="1" height="1" fill="#303030" />
<rect x="0" y="22" width="1" height="1" fill="#101010" />
<rect x="1" y="22" width="1" height="1" fill="#282727" />
<rect x="2" y="22" width="1" height="1" fill="#484747" />
<rect x="3" y="22" width="1" height="1" fill="#303030" />
<rect x="4" y="22" width="1" height="1" fill="#303030" />
<rect x="0" y="23" width="1" height="1" fill="#101010" />
<rect x="1" y="23" width="1" height="1" fill="#282727" />
<rect x="2" y="23" width="1" height="1" fill="#484747" />
<rect x="3" y="23" width="1" height="1" fill="#303030" />
<rect x="4" y="23" width="1" height="1" fill="#303030" />
<rect x="0" y="24" width="1" height="1" fill="#101010" />
<rect x="1" y="24" width="1" height="1" fill="#282727" />
<rect x="2" y="24" width="1" height="1" fill="#484747" />
<rect x="3" y="24" width="1" height="1" fill="#303030" />
<rect x="4" y="24" width="1" height="1" fill="#303030" />
<rect x="0" y="25" width="1" height="1" fill="#101010" />
<rect x="1" y="25" width="1" height="1" fill="#282727" />
<rect x="2" y="25" width="1" height="1" fill="#484747" />
<rect x="3" y="25" width="1" height="1" fill="#303030" />
<rect x="4" y="25" width="1" height="1" fill="#303030" />
<rect x="0" y="26" width="1" height="1" fill="#101010" />
<rect x="1" y="26" width="1" height="1" fill="#282727" />
<rect x="2" y="26" width="1" height="1" fill="#484747" />
<rect x="3" y="26" width="1" height="1" fill="#303030" />
<rect x="4" y="26" width="1" height="1" fill="#303030" />
<rect x="0" y="27" width="1" height="1" fill="#101010" />
<rect x="1" y="27" width="1" height="1" fill="#282727" />
<rect x="2" y="27" width="1" height="1" fill="#484747" />
<rect x="3" y="27" width="1" height="1" fill="#303030" />
<rect x="4" y="27" width="1" height="1" fill="#303030" />
<rect x="0" y="28" width="1" height="1" fill="#101010" />
<rect x="1" y="28" width="1" height="1" fill="#282727" />
<rect x="2" y="28" width="1" height="1" fill="#484747" />
<rect x="3" y="28" width="1" height="1" fill="#303030" />
<rect x="4" y="28" width="1" height="1" fill="#303030" />
<rect x="0" y="29" width="1" height="1" fill="#101010" />
<rect x="1" y="29" width="1" height="1" fill="#282727" />
<rect x="2" y="29" width="1" height="1" fill="#484747" />
<rect x="3" y="29" width="1" height="1" fill="#303030" />
<rect x="4" y="29" width="1" height="1" fill="#303030" />
<rect x="0" y="30" width="1" height="1" fill="#101010" />
<rect x="1" y="30" width="1" height="1" fill="#282727" />
<rect x="2" y="30" width="1" height="1" fill="#484747" />
<rect x="3" y="30" width="1" height="1" fill="#303030" />
<rect x="4" y="30" width="1" height="1" fill="#303030" />
<rect x="0" y="31" width="1" height="1" fill="#101010" />
<rect x="1" y="31" width="1" height="1" fill="#282727" />
<rect x="2" y="31" width="1" height="1" fill="#484747" />
<rect x="3" y="31" width="1" height="1" fill="#303030" />
<rect x="4" y="31" width="1" height="1" fill="#303030" />
<rect x="0" y="32" width="1" height="1" fill="#101010" />
<rect x="1" y="32" width="1" height="1" fill="#282727" />
<rect x="2" y="32" width="1" height="1" fill="#484747" />
<rect x="3" y="32" width="1" height="1" fill="#303030" />
<rect x="4" y="32" width="1" height="1" fill="#303030" />
<rect x="0" y="33" width="1" height="1" fill="#101010" />
<rect x="1" y="33" width="1" height="1" fill="#282727" />
<rect x="2" y="33" width="1" height="1" fill="#484747" />
<rect x="3" y="33" width="1" height="1" fill="#303030" />
<rect x="4" y="33" width="1" height="1" fill="#303030" />
<rect x="0" y="34" width="1" height="1" fill="#101010" />
<rect x="1" y="34" width="1" height="1" fill="#282727" />
<rect x="2" y="34" width="1" height="1" fill="#484747" />
<rect x="3" y="34" width="1" height="1" fill="#303030" />
<rect x="4" y="34" width="1" height="1" fill="#303030" />
<rect x="0" y="35" width="1" height="1" fill="#101010" />
<rect x="1" y="35" width="1" height="1" fill="#282727" />
<rect x="2" y="35" width="1" height="1" fill="#484747" />
<rect x="3" y="35" width="1" height="1" fill="#303030" />
<rect x="4" y="35" width="1" height="1" fill="#303030" />
<rect x="0" y="36" width="1" height="1" fill="#101010" />
<rect x="1" y="36" width="1" height="1" fill="#282727" />
<rect x="2" y="36" width="1" height="1" fill="#484747" />
<rect x="3" y="36" width="1" height="1" fill="#303030" />
<rect x="4" y="36" width="1" height="1" fill="#303030" />
<rect x="0" y="37" width="1" height="1" fill="#101010" />
<rect x="1" y="37" width="1" height="1" fill="#282727" />
<rect x="2" y="37" width="1" height="1" fill="#484747" />
<rect x="3" y="37" width="1" height="1" fill="#303030" />
<rect x="4" y="37" width="1" height="1" fill="#303030" />
<rect x="0" y="38" width="1" height="1" fill="#101010" />
<rect x="1" y="38" width="1" height="1" fill="#282727" />
<rect x="2" y="38" width="1" height="1" fill="#484747" />
<rect x="3" y="38" width="1" height="1" fill="#303030" />
<rect x="4" y="38" width="1" height="1" fill="#303030" />
<rect x="0" y="39" width="1" height="1" fill="#101010" />
<rect x="1" y="39" width="1" height="1" fill="#282727" />
<rect x="2" y="39" width="1" height="1" fill="#484747" />
<rect x="3" y="39" width="1" height="1" fill="#303030" />
<rect x="4" y="39" width="1" height="1" fill="#303030" />
<rect x="0" y="40" width="1" height="1" fill="#101010" />
<rect x="1" y="40" width="1" height="1" fill="#282727" />
<rect x="2" y="40" width="1" height="1" fill="#484747" />
<rect x="3" y="40" width="1" height="1" fill="#303030" />
<rect x="4" y="40" width="1" height="1" fill="#303030" />
<rect x="0" y="41" width="1" height="1" fill="#101010" />
<rect x="1" y="41" width="1" height="1" fill="#282727" />
<rect x="2" y="41" width="1" height="1" fill="#484747" />
<rect x="3" y="41" width="1" height="1" fill="#303030" />
<rect x="4" y="41" width="1" height="1" fill="#303030" />
<rect x="0" y="42" width="1" height="1" fill="#101010" />
<rect x="1" y="42" width="1" height="1" fill="#282727" />
<rect x="2" y="42" width="1" height="1" fill="#484747" />
<rect x="3" y="42" width="1" height="1" fill="#303030" />
<rect x="4" y="42" width="1" height="1" fill="#303030" />
<rect x="0" y="43" width="1" height="1" fill="#101010" />
<rect x="1" y="43" width="1" height="1" fill="#282727" />
<rect x="2" y="43" width="1" height="1" fill="#484747" />
<rect x="3" y="43" width="1" height="1" fill="#303030" />
<rect x="4" y="43" width="1" height="1" fill="#303030" />
<rect x="0" y="44" width="1" height="1" fill="#101010" />
<rect x="1" y="44" width="1" height="1" fill="#282727" />
<rect x="2" y="44" width="1" height="1" fill="#484747" />
<rect x="3" y="44" width="1" height="1" fill="#303030" />
<rect x="4" y="44" width="1" height="1" fill="#303030" />
<rect x="0" y="45" width="1" height="1" fill="#101010" />
<rect x="1" y="45" width="1" height="1" fill="#282727" />
<rect x="2" y="45" width="1" height="1" fill="#484747" />
<rect x="3" y="45" width="1" height="1" fill="#303030" />
<rect x="4" y="45" width="1" height="1" fill="#303030" />
<rect x="0" y="46" width="1" height="1" fill="#101010" />
<rect x="1" y="46" width="1" height="1" fill="#282727" />
<rect x="2" y="46" width="1" height="1" fill="#484747" />
<rect x="3" y="46" width="1" height="1" fill="#303030" />
<rect x="4" y="46" width="1" height="1" fill="#303030" />
<rect x="0" y="47" width="1" height="1" fill="#101010" />
<rect x="1" y="47" width="1" height="1" fill="#282727" />
<rect x="2" y="47" width="1" height="1" fill="#484747" />
<rect x="3" y="47" width="1" height="1" fill="#303030" />
<rect x="4" y="47" width="1" height="1" fill="#303030" />
<rect x="0" y="48" width="1" height="1" fill="#101010" />
<rect x="1" y="48" width="1" height="1" fill="#282727" />
<rect x="2" y="48" width="1" height="1" fill="#484747" />
<rect x="3" y="48" width="1" height="1" fill="#303030" />
<rect x="4" y="48" width="1" height="1" fill="#303030" />
<rect x="0" y="49" width="1" height="1" fill="#101010" />
<rect x="1" y="49" width="1" height="1" fill="#282727" />
<rect x="2" y="49" width="1" height="1" fill="#484747" />
<rect x="3" y="49" width="1" height="1" fill="#303030" />
<rect x="4" y="49" width="1" height="1" fill="#303030" />
<rect x="0" y="50" width="1" height="1" fill="#101010" />
<rect x="1" y="50" width="1" height="1" fill="#282727" />
<rect x="2" y="50" width="1" height="1" fill="#484747" />
<rect x="3" y="50" width="1" height="1" fill="#303030" />
<rect x="4" y="50" width="1" height="1" fill="#303030" />
<rect x="0" y="51" width="1" height="1" fill="#101010" />
<rect x="1" y="51" width="1" height="1" fill="#282727" />
<rect x="2" y="51" width="1" height="1" fill="#484747" />
<rect x="3" y="51" width="1" height="1" fill="#303030" />
<rect x="4" y="51" width="1" height="1" fill="#303030" />
<rect x="0" y="52" width="1" height="1" fill="#101010" />
<rect x="1" y="52" width="1" height="1" fill="#282727" />
<rect x="2" y="52" width="1" height="1" fill="#484747" />
<rect x="3" y="52" width="1" height="1" fill="#303030" />
<rect x="4" y="52" width="1" height="1" fill="#303030" />
<rect x="0" y="53" width="1" height="1" fill="#101010" />
<rect x="1" y="53" width="1" height="1" fill="#282727" />
<rect x="2" y="53" width="1" height="1" fill="#484747" />
<rect x="3" y="53" width="1" height="1" fill="#303030" />
<rect x="4" y="53" width="1" height="1" fill="#303030" />
<rect x="0" y="54" width="1" height="1" fill="#101010" />
<rect x="1" y="54" width="1" height="1" fill="#282727" />
<rect x="2" y="54" width="1" height="1" fill="#484747" />
<rect x="3" y="54" width="1" height="1" fill="#303030" />
<rect x="4" y="54" width="1" height="1" fill="#303030" />
<rect x="0" y="55" width="1" height="1" fill="#101010" />
<rect x="1" y="55" width="1" height="1" fill="#282727" />
<rect x="2" y="55" width="1" height="1" fill="#484747" />
<rect x="3" y="55" width="1" height="1" fill="#303030" />
<rect x="4" y="55" width="1" height="1" fill="#303030" />
<rect x="0" y="56" width="1" height="1" fill="#101010" />
<rect x="1" y="56" width="1" height="1" fill="#282727" />
<rect x="2" y="56" width="1" height="1" fill="#484747" />
<rect x="3" y="56" width="1" height="1" fill="#303030" />
<rect x="4" y="56" width="1" height="1" fill="#303030" />
<rect x="0" y="57" width="1" height="1" fill="#101010" />
<rect x="1" y="57" width="1" height="1" fill="#282727" />
<rect x="2" y="57" width="1" height="1" fill="#484747" />
<rect x="3" y="57" width="1" height="1" fill="#303030" />
<rect x="4" y="57" width="1" height="1" fill="#303030" />
<rect x="0" y="58" width="1" height="1" fill="#101010" />
<rect x="1" y="58" width="1" height="1" fill="#282727" />
<rect x="2" y="58" width="1" height="1" fill="#484747" />
<rect x="3" y="58" width="1" height="1" fill="#303030" />
<rect x="4" y="58" width="1" height="1" fill="#303030" />
<rect x="0" y="59" width="1" height="1" fill="#101010" />
<rect x="1" y="59" width="1" height="1" fill="#282727" />
<rect x="2" y="59" width="1" height="1" fill="#484747" />
<rect x="3" y="59" width="1" height="1" fill="#303030" />
<rect x="4" y="59" width="1" height="1" fill="#303030" />
<rect x="0" y="60" width="1" height="1" fill="#101010" />
<rect x="1" y="60" width="1" height="1" fill="#282727" />
<rect x="2" y="60" width="1" height="1" fill="#484747" />
<rect x="3" y="60" width="1" height="1" fill="#303030" />
<rect x="4" y="60" width="1" height="1" fill="#303030" />
<rect x="0" y="61" width="1" height="1" fill="#101010" />
<rect x="1" y="61" width="1" height="1" fill="#282727" />
<rect x="2" y="61" width="1" height="1" fill="#484747" />
<rect x="3" y="61" width="1" height="1" fill="#303030" />
<rect x="4" y="61" width="1" height="1" fill="#303030" />
<rect x="0" y="62" width="1" height="1" fill="#101010" />
<rect x="1" y="62" width="1" height="1" fill="#282727" />
<rect x="2" y="62" width="1" height="1" fill="#484747" />
<rect x="3" y="62" width="1" height="1" fill="#303030" />
<rect x="4" y="62" width="1" height="1" fill="#303030" />
<rect x="0" y="63" width="1" height="1" fill="#101010" />
<rect x="1" y="63" width="1" height="1" fill="#282727" />
<rect x="2" y="63" width="1" height="1" fill="#484747" />
<rect x="3" y="63" width="1" height="1" fill="#303030" />
<rect x="4" y="63" width="1" height="1" fill="#303030" />
<rect x="0" y="64" width="1" height="1" fill="#101010" />
<rect x="1" y="64" width="1" height="1" fill="#282727" />
<rect x="2" y="64" width="1" height="1" fill="#484747" />
<rect x="3" y="64" width="1" height="1" fill="#303030" />
<rect x="4" y="64" width="1" height="1" fill="#303030" />
<rect x="0" y="65" width="1" height="1" fill="#101010" />
<rect x="1" y="65" width="1" height="1" fill="#282727" />
<rect x="2" y="65" width="1" height="1" fill="#484747" />
<rect x="3" y="65" width="1" height="1" fill="#303030" />
<rect x="4" y="65" width="1" height="1" fill="#303030" />
<rect x="0" y="66" width="1" height="1" fill="#101010" />
<rect x="1" y="66" width="1" height="1" fill="#282727" />
<rect x="2" y="66" width="1" height="1" fill="#484747" />
<rect x="3" y="66" width="1" height="1" fill="#303030" />
<rect x="4" y="66" width="1" height="1" fill="#303030" />
<rect x="0" y="67" width="1" height="1" fill="#101010" />
<rect x="1" y="67" width="1" height="1" fill="#282727" />
<rect x="2" y="67" width="1" height="1" fill="#484747" />
<rect x="3" y="67" width="1" height="1" fill="#303030" />
<rect x="4" y="67" width="1" height="1" fill="#303030" />
<rect x="0" y="68" width="1" height="1" fill="#101010" />
<rect x="1" y="68" width="1" height="1" fill="#282727" />
<rect x="2" y="68" width="1" height="1" fill="#484747" />
<rect x="3" y="68" width="1" height="1" fill="#303030" />
<rect x="4" y="68" width="1" height="1" fill="#303030" />
<rect x="0" y="69" width="1" height="1" fill="#101010" />
<rect x="1" y="69" width="1" height="1" fill="#282727" />
<rect x="2" y="69" width="1" height="1" fill="#484747" />
<rect x="3" y="69" width="1" height="1" fill="#303030" />
<rect x="4" y="69" width="1" height="1" fill="#303030" />
<rect x="0" y="70" width="1" height="1" fill="#101010" />
<rect x="1" y="70" width="1" height="1" fill="#282727" />
<rect x="2" y="70" width="1" height="1" fill="#484747" />
<rect x="3" y="70" width="1" height="1" fill="#303030" />
<rect x="4" y="70" width="1" height="1" fill="#303030" />
<rect x="0" y="71" width="1" height="1" fill="#101010" />
<rect x="1" y="71" width="1" height="1" fill="#282727" />
<rect x="2" y="71" width="1" height="1" fill="#484747" />
<rect x="3" y="71" width="1" height="1" fill="#303030" />
<rect x="4" y="71" width="1" height="1" fill="#303030" />
<rect x="0" y="72" width="1" height="1" fill="#101010" />
<rect x="1" y="72" width="1" height="1" fill="#282727" />
<rect x="2" y="72" width="1" height="1" fill="#484747" />
<rect x="3" y="72" width="1" height="1" fill="#303030" />
<rect x="4" y="72" width="1" height="1" fill="#303030" />
<rect x="0" y="73" width="1" height="1" fill="#101010" />
<rect x="1" y="73" width="1" height="1" fill="#282727" />
<rect x="2" y="73" width="1" height="1" fill="#484747" />
<rect x="3" y="73" width="1" height="1" fill="#303030" />
<rect x="4" y="73" width="1" height="1" fill="#303030" />
<rect x="0" y="74" width="1" height="1" fill="#101010" />
<rect x="1" y="74" width="1" height="1" fill="#282727" />
<rect x="2" y="74" width="1" height="1" fill="#484747" />
<rect x="3" y="74" width="1" height="1" fill="#303030" />
<rect x="4" y="74" width="1" height="1" fill="#303030" />
<rect x="0" y="75" width="1" height="1" fill="#101010" />
<rect x="1" y="75" width="1" height="1" fill="#282727" />
<rect x="2" y="75" width="1" height="1" fill="#484747" />
<rect x="3" y="75" width="1" height="1" fill="#303030" />
<rect x="4" y="75" width="1" height="1" fill="#303030" />
<rect x="0" y="76" width="1" height="1" fill="#101010" />
<rect x="1" y="76" width="1" height="1" fill="#282727" />
<rect x="2" y="76" width="1" height="1" fill="#484747" />
<rect x="3" y="76" width="1" height="1" fill="#303030" />
<rect x="4" y="76" width="1" height="1" fill="#303030" />
<rect x="0" y="77" width="1" height="1" fill="#101010" />
<rect x="1" y="77" width="1" height="1" fill="#282727" />
<rect x="2" y="77" width="1" height="1" fill="#484747" />
<rect x="3" y="77" width="1" height="1" fill="#303030" />
<rect x="4" y="77" width="1" height="1" fill="#303030" />
<rect x="0" y="78" width="1" height="1" fill="#101010" />
<rect x="1" y="78" width="1" height="1" fill="#282727" />
<rect x="2" y="78" width="1" height="1" fill="#484747" />
<rect x="3" y="78" width="1" height="1" fill="#303030" />
<rect x="4" y="78" width="1" height="1" fill="#303030" />
<rect x="0" y="79" width="1" height="1" fill="#101010" />
<rect x="1" y="79" width="1" height="1" fill="#282727" />
<rect x="2" y="79" width="1" height="1" fill="#484747" />
<rect x="3" y="79" width="1" height="1" fill="#303030" />
<rect x="4" y="79" width="1" height="1" fill="#303030" />
<rect x="0" y="80" width="1" height="1" fill="#101010" />
<rect x="1" y="80" width="1" height="1" fill="#282727" />
<rect x="2" y="80" width="1" height="1" fill="#484747" />
<rect x="3" y="80" width="1" height="1" fill="#303030" />
<rect x="4" y="80" width="1" height="1" fill="#303030" />
<rect x="0" y="81" width="1" height="1" fill="#101010" />
<rect x="1" y="81" width="1" height="1" fill="#282727" />
<rect x="2" y="81" width="1" height="1" fill="#484747" />
<rect x="3" y="81" width="1" height="1" fill="#303030" />
<rect x="4" y="81" width="1" height="1" fill="#303030" />
<rect x="0" y="82" width="1" height="1" fill="#101010" />
<rect x="1" y="82" width="1" height="1" fill="#282727" />
<rect x="2" y="82" width="1" height="1" fill="#484747" />
<rect x="3" y="82" width="1" height="1" fill="#303030" />
<rect x="4" y="82" width="1" height="1" fill="#303030" />
<rect x="0" y="83" width="1" height="1" fill="#101010" />
<rect x="1" y="83" width="1" height="1" fill="#282727" />
<rect x="2" y="83" width="1" height="1" fill="#484747" />
<rect x="3" y="83" width="1" height="1" fill="#303030" />
<rect x="4" y="83" width="1" height="1" fill="#303030" />
<rect x="0" y="84" width="1" height="1" fill="#101010" />
<rect x="1" y="84" width="1" height="1" fill="#282727" />
<rect x="2" y="84" width="1" height="1" fill="#484747" />
<rect x="3" y="84" width="1" height="1" fill="#303030" />
<rect x="4" y="84" width="1" height="1" fill="#303030" />
<rect x="0" y="85" width="1" height="1" fill="#101010" />
<rect x="1" y="85" width="1" height="1" fill="#282727" />
<rect x="2" y="85" width="1" height="1" fill="#484747" />
<rect x="3" y="85" width="1" height="1" fill="#303030" />
<rect x="4" y="85" width="1" height="1" fill="#303030" />
<rect x="0" y="86" width="1" height="1" fill="#101010" />
<rect x="1" y="86" width="1" height="1" fill="#282727" />
<rect x="2" y="86" width="1" height="1" fill="#484747" />
<rect x="3" y="86" width="1" height="1" fill="#303030" />
<rect x="4" y="86" width="1" height="1" fill="#303030" />
<rect x="0" y="87" width="1" height="1" fill="#101010" />
<rect x="1" y="87" width="1" height="1" fill="#282727" />
<rect x="2" y="87" width="1" height="1" fill="#484747" />
<rect x="3" y="87" width="1" height="1" fill="#303030" />
<rect x="4" y="87" width="1" height="1" fill="#303030" />
<rect x="0" y="88" width="1" height="1" fill="#101010" />
<rect x="1" y="88" width="1" height="1" fill="#282727" />
<rect x="2" y="88" width="1" height="1" fill="#484747" />
<rect x="3" y="88" width="1" height="1" fill="#303030" />
<rect x="4" y="88" width="1" height="1" fill="#303030" />
<rect x="0" y="89" width="1" height="1" fill="#101010" />
<rect x="1" y="89" width="1" height="1" fill="#282727" />
<rect x="2" y="89" width="1" height="1" fill="#484747" />
<rect x="3" y="89" width="1" height="1" fill="#303030" />
<rect x="4" y="89" width="1" height="1" fill="#303030" />
<rect x="0" y="90" width="1" height="1" fill="#101010" />
<rect x="1" y="90" width="1" height="1" fill="#282727" />
<rect x="2" y="90" width="1" height="1" fill="#484747" />
<rect x="3" y="90" width="1" height="1" fill="#303030" />
<rect x="4" y="90" width="1" height="1" fill="#303030" />
<rect x="0" y="91" width="1" height="1" fill="#101010" />
<rect x="1" y="91" width="1" height="1" fill="#282727" />
<rect x="2" y="91" width="1" height="1" fill="#484747" />
<rect x="3" y="91" width="1" height="1" fill="#303030" />
<rect x="4" y="91" width="1" height="1" fill="#303030" />
<rect x="0" y="92" width="1" height="1" fill="#101010" />
<rect x="1" y="92" width="1" height="1" fill="#282727" />
<rect x="2" y="92" width="1" height="1" fill="#484747" />
<rect x="3" y="92" width="1" height="1" fill="#303030" />
<rect x="4" y="92" width="1" height="1" fill="#303030" />
<rect x="0" y="93" width="1" height="1" fill="#101010" />
<rect x="1" y="93" width="1" height="1" fill="#282727" />
<rect x="2" y="93" width="1" height="1" fill="#484747" />
<rect x="3" y="93" width="1" height="1" fill="#303030" />
<rect x="4" y="93" width="1" height="1" fill="#303030" />
<rect x="0" y="94" width="1" height="1" fill="#101010" />
<rect x="1" y="94" width="1" height="1" fill="#282727" />
<rect x="2" y="94" width="1" height="1" fill="#484747" />
<rect x="3" y="94" width="1" height="1" fill="#303030" />
<rect x="4" y="94" width="1" height="1" fill="#303030" />
<rect x="0" y="95" width="1" height="1" fill="#101010" />
<rect x="1" y="95" width="1" height="1" fill="#282727" />
<rect x="2" y="95" width="1" height="1" fill="#484747" />
<rect x="3" y="95" width="1" height="1" fill="#303030" />
<rect x="4" y="95" width="1" height="1" fill="#303030" />
<rect x="0" y="96" width="1" height="1" fill="#101010" />
<rect x="1" y="96" width="1" height="1" fill="#282727" />
<rect x="2" y="96" width="1" height="1" fill="#484747" />
<rect x="3" y="96" width="1" height="1" fill="#303030" />
<rect x="4" y="96" width="1" height="1" fill="#303030" />
<rect x="0" y="97" width="1" height="1" fill="#101010" />
<rect x="1" y="97" width="1" height="1" fill="#282727" />
<rect x="2" y="97" width="1" height="1" fill="#484747" />
<rect x="3" y="97" width="1" height="1" fill="#303030" />
<rect x="4" y="97" width="1" height="1" fill="#303030" />
<rect x="0" y="98" width="1" height="1" fill="#101010" />
<rect x="1" y="98" width="1" height="1" fill="#282727" />
<rect x="2" y="98" width="1" height="1" fill="#484747" />
<rect x="3" y="98" width="1" height="1" fill="#303030" />
<rect x="4" y="98" width="1" height="1" fill="#303030" />
<rect x="0" y="99" width="1" height="1" fill="#101010" />
<rect x="1" y="99" width="1" height="1" fill="#282727" />
<rect x="2" y="99" width="1" height="1" fill="#484747" />
<rect x="3" y="99" width="1" height="1" fill="#303030" />
<rect x="4" y="99" width="1" height="1" fill="#303030" />
<rect x="0" y="100" width="1" height="1" fill="#101010" />
<rect x="1" y="100" width="1" height="1" fill="#282727" />
<rect x="2" y="100" width="1" height="1" fill="#484747" />
<rect x="3" y="100" width="1" height="1" fill="#303030" />
<rect x="4" y="100" width="1" height="1" fill="#303030" />
<rect x="0" y="101" width="1" height="1" fill="#101010" />
<rect x="1" y="101" width="1" height="1" fill="#282727" />
<rect x="2" y="101" width="1" height="1" fill="#484747" />
<rect x="3" y="101" width="1" height="1" fill="#303030" />
<rect x="4" y="101" width="1" height="1" fill="#303030" />
<rect x="0" y="102" width="1" height="1" fill="#101010" />
<rect x="1" y="102" width="1" height="1" fill="#282727" />
<rect x="2" y="102" width="1" height="1" fill="#484747" />
<rect x="3" y="102" width="1" height="1" fill="#303030" />
<rect x="4" y="102" width="1" height="1" fill="#303030" />
<rect x="0" y="103" width="1" height="1" fill="#101010" />
<rect x="1" y="103" width="1" height="1" fill="#282727" />
<rect x="2" y="103" width="1" height="1" fill="#484747" />
<rect x="3" y="103" width="1" height="1" fill="#303030" />
<rect x="4" y="103" width="1" height="1" fill="#303030" />
<rect x="0" y="104" width="1" height="1" fill="#101010" />
<rect x="1" y="104" width="1" height="1" fill="#282727" />
<rect x="2" y="104" width="1" height="1" fill="#484747" />
<rect x="3" y="104" width="1" height="1" fill="#303030" />
<rect x="4" y="104" width="1" height="1" fill="#303030" />
<rect x="0" y="105" width="1" height="1" fill="#101010" />
<rect x="1" y="105" width="1" height="1" fill="#282727" />
<rect x="2" y="105" width="1" height="1" fill="#484747" />
<rect x="3" y="105" width="1" height="1" fill="#303030" />
<rect x="4" y="105" width="1" height="1" fill="#303030" />
<rect x="0" y="106" width="1" height="1" fill="#101010" />
<rect x="1" y="106" width="1" height="1" fill="#282727" />
<rect x="2" y="106" width="1" height="1" fill="#484747" />
<rect x="3" y="106" width="1" height="1" fill="#303030" />
<rect x="4" y="106" width="1" height="1" fill="#303030" />
<rect x="0" y="107" width="1" height="1" fill="#101010" />
<rect x="1" y="107" width="1" height="1" fill="#282727" />
<rect x="2" y="107" width="1" height="1" fill="#484747" />
<rect x="3" y="107" width="1" height="1" fill="#303030" />
<rect x="4" y="107" width="1" height="1" fill="#303030" />
<rect x="0" y="108" width="1" height="1" fill="#101010" />
<rect x="1" y="108" width="1" height="1" fill="#282727" />
<rect x="2" y="108" width="1" height="1" fill="#484747" />
<rect x="3" y="108" width="1" height="1" fill="#303030" />
<rect x="4" y="108" width="1" height="1" fill="#303030" />
<rect x="0" y="109" width="1" height="1" fill="#101010" />
<rect x="1" y="109" width="1" height="1" fill="#282727" />
<rect x="2" y="109" width="1" height="1" fill="#484747" />
<rect x="3" y="109" width="1" height="1" fill="#303030" />
<rect x="4" y="109" width="1" height="1" fill="#303030" />
<rect x="0" y="110" width="1" height="1" fill="#101010" />
<rect x="1" y="110" width="1" height="1" fill="#282727" />
<rect x="2" y="110" width="1" height="1" fill="#484747" />
<rect x="3" y="110" width="1" height="1" fill="#303030" />
<rect x="4" y="110" width="1" height="1" fill="#303030" />
<rect x="0" y="111" width="1" height="1" fill="#101010" />
<rect x="1" y="111" width="1" height="1" fill="#282727" />
<rect x="2" y="111" width="1" height="1" fill="#484747" />
<rect x="3" y="111" width="1" height="1" fill="#303030" />
<rect x="4" y="111" width="1" height="1" fill="#303030" />
<rect x="0" y="112" width="1" height="1" fill="#101010" />
<rect x="1" y="112" width="1" height="1" fill="#282727" />
<rect x="2" y="112" width="1" height="1" fill="#484747" />
<rect x="3" y="112" width="1" height="1" fill="#303030" />
<rect x="4" y="112" width="1" height="1" fill="#303030" />
<rect x="0" y="113" width="1" height="1" fill="#101010" />
<rect x="1" y="113" width="1" height="1" fill="#282727" />
<rect x="2" y="113" width="1" height="1" fill="#484747" />
<rect x="3" y="113" width="1" height="1" fill="#303030" />
<rect x="4" y="113" width="1" height="1" fill="#303030" />
<rect x="0" y="114" width="1" height="1" fill="#101010" />
<rect x="1" y="114" width="1" height="1" fill="#282727" />
<rect x="2" y="114" width="1" height="1" fill="#484747" />
<rect x="3" y="114" width="1" height="1" fill="#303030" />
<rect x="4" y="114" width="1" height="1" fill="#303030" />
<rect x="0" y="115" width="1" height="1" fill="#101010" />
<rect x="1" y="115" width="1" height="1" fill="#282727" />
<rect x="2" y="115" width="1" height="1" fill="#484747" />
<rect x="3" y="115" width="1" height="1" fill="#303030" />
<rect x="4" y="115" width="1" height="1" fill="#303030" />
<rect x="0" y="116" width="1" height="1" fill="#101010" />
<rect x="1" y="116" width="1" height="1" fill="#282727" />
<rect x="2" y="116" width="1" height="1" fill="#484747" />
<rect x="3" y="116" width="1" height="1" fill="#303030" />
<rect x="4" y="116" width="1" height="1" fill="#303030" />
<rect x="0" y="117" width="1" height="1" fill="#101010" />
<rect x="1" y="117" width="1" height="1" fill="#282727" />
<rect x="2" y="117" width="1" height="1" fill="#484747" />
<rect x="3" y="117" width="1" height="1" fill="#303030" />
<rect x="4" y="117" width="1" height="1" fill="#303030" />
<rect x="0" y="118" width="1" height="1" fill="#101010" />
<rect x="1" y="118" width="1" height="1" fill="#282727" />
<rect x="2" y="118" width="1" height="1" fill="#484747" />
<rect x="3" y="118" width="1" height="1" fill="#303030" />
<rect x="4" y="118" width="1" height="1" fill="#303030" />
<rect x="0" y="119" width="1" height="1" fill="#101010" />
<rect x="1" y="119" width="1" height="1" fill="#282727" />
<rect x="2" y="119" width="1" height="1" fill="#484747" />
<rect x="3" y="119" width="1" height="1" fill="#303030" />
<rect x="4" y="119" width="1" height="1" fill="#303030" />
<rect x="0" y="120" width="1" height="1" fill="#101010" />
<rect x="1" y="120" width="1" height="1" fill="#282727" />
<rect x="2" y="120" width="1" height="1" fill="#484747" />
<rect x="3" y="120" width="1" height="1" fill="#303030" />
<rect x="4" y="120" width="1" height="1" fill="#303030" />
<rect x="0" y="121" width="1" height="1" fill="#101010" />
<rect x="1" y="121" width="1" height="1" fill="#282727" />
<rect x="2" y="121" width="1" height="1" fill="#484747" />
<rect x="3" y="121" width="1" height="1" fill="#303030" />
<rect x="4" y="121" width="1" height="1" fill="#303030" />
<rect x="0" y="122" width="1" height="1" fill="#101010" />
<rect x="1" y="122" width="1" height="1" fill="#282727" />
<rect x="2" y="122" width="1" height="1" fill="#484747" />
<rect x="3" y="122" width="1" height="1" fill="#303030" />
<rect x="4" y="122" width="1" height="1" fill="#303030" />
<rect x="0" y="123" width="1" height="1" fill="#101010" />
<rect x="1" y="123" width="1" height="1" fill="#282727" />
<rect x="2" y="123" width="1" height="1" fill="#484747" />
<rect x="3" y="123" width="1" height="1" fill="#303030" />
<rect x="4" y="123" width="1" height="1" fill="#303030" />
<rect x="0" y="124" width="1" height="1" fill="#101010" />
<rect x="1" y="124" width="1" height="1" fill="#282727" />
<rect x="2" y="124" width="1" height="1" fill="#484747" />
<rect x="3" y="124" width="1" height="1" fill="#484747" />
<rect x="4" y="124" width="1" height="1" fill="#303030" />
<rect x="0" y="125" width="1" height="1" fill="#101010" />
<rect x="1" y="125" width="1" height="1" fill="#282727" />
<rect x="2" y="125" width="1" height="1" fill="#282727" />
<rect x="3" y="125" width="1" height="1" fill="#484747" />
<rect x="4" y="125" width="1" height="1" fill="#484747" />
<rect x="0" y="126" width="1" height="1" fill="#101010" />
<rect x="1" y="126" width="1" height="1" fill="#101010" />
<rect x="2" y="126" width="1" height="1" fill="#282727" />
<rect x="3" y="126" width="1" height="1" fill="#282727" />
<rect x="4" y="126" width="1" height="1" fill="#282727" />
<rect x="1" y="127" width="1" height="1" fill="#101010" />
<rect x="2" y="127" width="1" height="1" fill="#101010" />
<rect x="3" y="127" width="1" height="1" fill="#101010" />
<rect x="4" y="127" width="1" height="1" fill="#101010" />
</svg>