<?xml version="1.0" encoding="UTF-8" ?>
<svg version="1.1" width="4" height="32" xmlns="http://www.w3.org/2000/svg" shape-rendering="crispEdges">
<rect x="2" y="2" width="1" height="1" fill="#EF032C" />
<rect x="3" y="2" width="1" height="1" fill="#EF032C" />
<rect x="1" y="3" width="1" height="1" fill="#F72E2E" />
<rect x="2" y="3" width="1" height="1" fill="#94021C" />
<rect x="3" y="3" width="1" height="1" fill="#94021C" />
<rect x="0" y="4" width="1" height="1" fill="#F72E2E" />
<rect x="1" y="4" width="1" height="1" fill="#94021C" />
<rect x="2" y="4" width="1" height="1" fill="#94021C" />
<rect x="3" y="4" width="1" height="1" fill="#520404" />
<rect x="0" y="5" width="1" height="1" fill="#F72E2E" />
<rect x="1" y="5" width="1" height="1" fill="#94021C" />
<rect x="2" y="5" width="1" height="1" fill="#520404" />
<rect x="3" y="5" width="1" height="1" fill="#520404" />
<rect x="0" y="6" width="1" height="1" fill="#F72E2E" />
<rect x="1" y="6" width="1" height="1" fill="#94021C" />
<rect x="2" y="6" width="1" height="1" fill="#520404" />
<rect x="0" y="7" width="1" height="1" fill="#F72E2E" />
<rect x="1" y="7" width="1" height="1" fill="#94021C" />
<rect x="2" y="7" width="1" height="1" fill="#520404" />
<rect x="0" y="8" width="1" height="1" fill="#F72E2E" />
<rect x="1" y="8" width="1" height="1" fill="#94021C" />
<rect x="2" y="8" width="1" height="1" fill="#520404" />
<rect x="0" y="9" width="1" height="1" fill="#F72E2E" />
<rect x="1" y="9" width="1" height="1" fill="#94021C" />
<rect x="2" y="9" width="1" height="1" fill="#520404" />
<rect x="0" y="10" width="1" height="1" fill="#F72E2E" />
<rect x="1" y="10" width="1" height="1" fill="#94021C" />
<rect x="2" y="10" width="1" height="1" fill="#520404" />
<rect x="0" y="11" width="1" height="1" fill="#F72E2E" />
<rect x="1" y="11" width="1" height="1" fill="#94021C" />
<rect x="2" y="11" width="1" height="1" fill="#520404" />
<rect x="0" y="12" width="1" height="1" fill="#F72E2E" />
<rect x="1" y="12" width="1" height="1" fill="#94021C" />
<rect x="2" y="12" width="1" height="1" fill="#520404" />
<rect x="0" y="13" width="1" height="1" fill="#F72E2E" />
<rect x="1" y="13" width="1" height="1" fill="#94021C" />
<rect x="2" y="13" width="1" height="1" fill="#520404" />
<rect x="0" y="14" width="1" height="1" fill="#F72E2E" />
<rect x="1" y="14" width="1" height="1" fill="#94021C" />
<rect x="2" y="14" width="1" height="1" fill="#520404" />
<rect x="0" y="15" width="1" height="1" fill="#F72E2E" />
<rect x="1" y="15" width="1" height="1" fill="#94021C" />
<rect x="2" y="15" width="1" height="1" fill="#520404" />
<rect x="0" y="16" width="1" height="1" fill="#F72E2E" />
<rect x="1" y="16" width="1" height="1" fill="#94021C" />
<rect x="2" y="16" width="1" height="1" fill="#520404" />
<rect x="0" y="17" width="1" height="1" fill="#F72E2E" />
<rect x="1" y="17" width="1" height="1" fill="#94021C" />
<rect x="2" y="17" width="1" height="1" fill="#520404" />
<rect x="0" y="18" width="1" height="1" fill="#F72E2E" />
<rect x="1" y="18" width="1" height="1" fill="#94021C" />
<rect x="2" y="18" width="1" height="1" fill="#520404" />
<rect x="0" y="19" width="1" height="1" fill="#F72E2E" />
<rect x="1" y="19" width="1" height="1" fill="#94021C" />
<rect x="2" y="19" width="1" height="1" fill="#520404" />
<rect x="0" y="20" width="1" height="1" fill="#F72E2E" />
<rect x="1" y="20" width="1" height="1" fill="#94021C" />
<rect x="2" y="20" width="1" height="1" fill="#520404" />
<rect x="0" y="21" width="1" height="1" fill="#F72E2E" />
<rect x="1" y="21" width="1" height="1" fill="#94021C" />
<rect x="2" y="21" width="1" height="1" fill="#520404" />
<rect x="0" y="22" width="1" height="1" fill="#F72E2E" />
<rect x="1" y="22" width="1" height="1" fill="#94021C" />
<rect x="2" y="22" width="1" height="1" fill="#520404" />
<rect x="0" y="23" width="1" height="1" fill="#F72E2E" />
<rect x="1" y="23" width="1" height="1" fill="#94021C" />
<rect x="2" y="23" width="1" height="1" fill="#520404" />
<rect x="0" y="24" width="1" height="1" fill="#F72E2E" />
<rect x="1" y="24" width="1" height="1" fill="#94021C" />
<rect x="2" y="24" width="1" height="1" fill="#520404" />
<rect x="0" y="25" width="1" height="1" fill="#F72E2E" />
<rect x="1" y="25" width="1" height="1" fill="#94021C" />
<rect x="2" y="25" width="1" height="1" fill="#520404" />
<rect x="0" y="26" width="1" height="1" fill="#F72E2E" />
<rect x="1" y="26" width="1" height="1" fill="#94021C" />
<rect x="2" y="26" width="1" height="1" fill="#520404" />
<rect x="3" y="26" width="1" height="1" fill="#520404" />
<rect x="0" y="27" width="1" height="1" fill="#F72E2E" />
<rect x="1" y="27" width="1" height="1" fill="#94021C" />
<rect x="2" y="27" width="1" height="1" fill="#94021C" />
<rect x="3" y="27" width="1" height="1" fill="#520404" />
<rect x="1" y="28" width="1" height="1" fill="#F72E2E" />
<rect x="2" y="28" width="1" height="1" fill="#94021C" />
<rect x="3" y="28" width="1" height="1" fill="#94021C" />
<rect x="2" y="29" width="1" height="1" fill="#F72E2E" />
<rect x="3" y="29" width="1" height="1" fill="#F72E2E" />
</svg>