<?xml version="1.0" encoding="UTF-8" ?>
<svg version="1.1" width="112" height="32" xmlns="http://www.w3.org/2000/svg" shape-rendering="crispEdges">
<rect x="7" y="1" width="1" height="1" fill="#A88D75" />
<rect x="8" y="1" width="1" height="1" fill="#A88D75" />
<rect x="9" y="1" width="1" height="1" fill="#81675D" />
<rect x="10" y="1" width="1" height="1" fill="#81675D" />
<rect x="11" y="1" width="1" height="1" fill="#81675D" />
<rect x="12" y="1" width="1" height="1" fill="#4A3C3A" />
<rect x="13" y="1" width="1" height="1" fill="#81675D" />
<rect x="14" y="1" width="1" height="1" fill="#4A3C3A" />
<rect x="15" y="1" width="1" height="1" fill="#4A3C3A" />
<rect x="16" y="1" width="1" height="1" fill="#4A3C3A" />
<rect x="17" y="1" width="1" height="1" fill="#4A3C3A" />
<rect x="18" y="1" width="1" height="1" fill="#4A3C3A" />
<rect x="19" y="1" width="1" height="1" fill="#4A3C3A" />
<rect x="20" y="1" width="1" height="1" fill="#4A3C3A" />
<rect x="21" y="1" width="1" height="1" fill="#4A3C3A" />
<rect x="22" y="1" width="1" height="1" fill="#4A3C3A" />
<rect x="23" y="1" width="1" height="1" fill="#4A3C3A" />
<rect x="24" y="1" width="1" height="1" fill="#4A3C3A" />
<rect x="25" y="1" width="1" height="1" fill="#4A3C3A" />
<rect x="26" y="1" width="1" height="1" fill="#4A3C3A" />
<rect x="27" y="1" width="1" height="1" fill="#4A3C3A" />
<rect x="28" y="1" width="1" height="1" fill="#4A3C3A" />
<rect x="29" y="1" width="1" height="1" fill="#4A3C3A" />
<rect x="30" y="1" width="1" height="1" fill="#4A3C3A" />
<rect x="31" y="1" width="1" height="1" fill="#4A3C3A" />
<rect x="32" y="1" width="1" height="1" fill="#4A3C3A" />
<rect x="33" y="1" width="1" height="1" fill="#4A3C3A" />
<rect x="34" y="1" width="1" height="1" fill="#4A3C3A" />
<rect x="35" y="1" width="1" height="1" fill="#4A3C3A" />
<rect x="36" y="1" width="1" height="1" fill="#4A3C3A" />
<rect x="37" y="1" width="1" height="1" fill="#4A3C3A" />
<rect x="38" y="1" width="1" height="1" fill="#4A3C3A" />
<rect x="39" y="1" width="1" height="1" fill="#4A3C3A" />
<rect x="40" y="1" width="1" height="1" fill="#4A3C3A" />
<rect x="41" y="1" width="1" height="1" fill="#4A3C3A" />
<rect x="42" y="1" width="1" height="1" fill="#4A3C3A" />
<rect x="43" y="1" width="1" height="1" fill="#4A3C3A" />
<rect x="44" y="1" width="1" height="1" fill="#4A3C3A" />
<rect x="45" y="1" width="1" height="1" fill="#4A3C3A" />
<rect x="46" y="1" width="1" height="1" fill="#4A3C3A" />
<rect x="47" y="1" width="1" height="1" fill="#4A3C3A" />
<rect x="48" y="1" width="1" height="1" fill="#4A3C3A" />
<rect x="49" y="1" width="1" height="1" fill="#4A3C3A" />
<rect x="50" y="1" width="1" height="1" fill="#4A3C3A" />
<rect x="51" y="1" width="1" height="1" fill="#4A3C3A" />
<rect x="52" y="1" width="1" height="1" fill="#4A3C3A" />
<rect x="53" y="1" width="1" height="1" fill="#4A3C3A" />
<rect x="54" y="1" width="1" height="1" fill="#4A3C3A" />
<rect x="55" y="1" width="1" height="1" fill="#4A3C3A" />
<rect x="56" y="1" width="1" height="1" fill="#4A3C3A" />
<rect x="57" y="1" width="1" height="1" fill="#4A3C3A" />
<rect x="58" y="1" width="1" height="1" fill="#4A3C3A" />
<rect x="59" y="1" width="1" height="1" fill="#4A3C3A" />
<rect x="60" y="1" width="1" height="1" fill="#4A3C3A" />
<rect x="61" y="1" width="1" height="1" fill="#4A3C3A" />
<rect x="62" y="1" width="1" height="1" fill="#4A3C3A" />
<rect x="63" y="1" width="1" height="1" fill="#4A3C3A" />
<rect x="64" y="1" width="1" height="1" fill="#4A3C3A" />
<rect x="65" y="1" width="1" height="1" fill="#4A3C3A" />
<rect x="66" y="1" width="1" height="1" fill="#4A3C3A" />
<rect x="67" y="1" width="1" height="1" fill="#4A3C3A" />
<rect x="68" y="1" width="1" height="1" fill="#4A3C3A" />
<rect x="69" y="1" width="1" height="1" fill="#4A3C3A" />
<rect x="70" y="1" width="1" height="1" fill="#4A3C3A" />
<rect x="71" y="1" width="1" height="1" fill="#4A3C3A" />
<rect x="72" y="1" width="1" height="1" fill="#4A3C3A" />
<rect x="73" y="1" width="1" height="1" fill="#4A3C3A" />
<rect x="74" y="1" width="1" height="1" fill="#4A3C3A" />
<rect x="75" y="1" width="1" height="1" fill="#4A3C3A" />
<rect x="76" y="1" width="1" height="1" fill="#4A3C3A" />
<rect x="77" y="1" width="1" height="1" fill="#4A3C3A" />
<rect x="78" y="1" width="1" height="1" fill="#4A3C3A" />
<rect x="79" y="1" width="1" height="1" fill="#4A3C3A" />
<rect x="80" y="1" width="1" height="1" fill="#4A3C3A" />
<rect x="81" y="1" width="1" height="1" fill="#4A3C3A" />
<rect x="82" y="1" width="1" height="1" fill="#4A3C3A" />
<rect x="83" y="1" width="1" height="1" fill="#4A3C3A" />
<rect x="84" y="1" width="1" height="1" fill="#4A3C3A" />
<rect x="85" y="1" width="1" height="1" fill="#4A3C3A" />
<rect x="86" y="1" width="1" height="1" fill="#4A3C3A" />
<rect x="87" y="1" width="1" height="1" fill="#4A3C3A" />
<rect x="88" y="1" width="1" height="1" fill="#4A3C3A" />
<rect x="89" y="1" width="1" height="1" fill="#4A3C3A" />
<rect x="90" y="1" width="1" height="1" fill="#4A3C3A" />
<rect x="91" y="1" width="1" height="1" fill="#4A3C3A" />
<rect x="92" y="1" width="1" height="1" fill="#4A3C3A" />
<rect x="93" y="1" width="1" height="1" fill="#4A3C3A" />
<rect x="94" y="1" width="1" height="1" fill="#4A3C3A" />
<rect x="95" y="1" width="1" height="1" fill="#4A3C3A" />
<rect x="96" y="1" width="1" height="1" fill="#4A3C3A" />
<rect x="97" y="1" width="1" height="1" fill="#4A3C3A" />
<rect x="98" y="1" width="1" height="1" fill="#81675D" />
<rect x="99" y="1" width="1" height="1" fill="#4A3C3A" />
<rect x="100" y="1" width="1" height="1" fill="#81675D" />
<rect x="101" y="1" width="1" height="1" fill="#81675D" />
<rect x="102" y="1" width="1" height="1" fill="#81675D" />
<rect x="103" y="1" width="1" height="1" fill="#A88D75" />
<rect x="104" y="1" width="1" height="1" fill="#A88D75" />
<rect x="6" y="2" width="1" height="1" fill="#81675D" />
<rect x="7" y="2" width="1" height="1" fill="#A88D75" />
<rect x="8" y="2" width="1" height="1" fill="#81675D" />
<rect x="103" y="2" width="1" height="1" fill="#81675D" />
<rect x="104" y="2" width="1" height="1" fill="#A88D75" />
<rect x="105" y="2" width="1" height="1" fill="#81675D" />
<rect x="5" y="3" width="1" height="1" fill="#A88D75" />
<rect x="6" y="3" width="1" height="1" fill="#A88D75" />
<rect x="7" y="3" width="1" height="1" fill="#65514B" />
<rect x="104" y="3" width="1" height="1" fill="#65514B" />
<rect x="105" y="3" width="1" height="1" fill="#A88D75" />
<rect x="106" y="3" width="1" height="1" fill="#A88D75" />
<rect x="4" y="4" width="1" height="1" fill="#A88D75" />
<rect x="5" y="4" width="1" height="1" fill="#81675D" />
<rect x="6" y="4" width="1" height="1" fill="#65514B" />
<rect x="7" y="4" width="1" height="1" fill="#81675D" />
<rect x="104" y="4" width="1" height="1" fill="#81675D" />
<rect x="105" y="4" width="1" height="1" fill="#65514B" />
<rect x="106" y="4" width="1" height="1" fill="#81675D" />
<rect x="107" y="4" width="1" height="1" fill="#A88D75" />
<rect x="3" y="5" width="1" height="1" fill="#A88D75" />
<rect x="4" y="5" width="1" height="1" fill="#65514B" />
<rect x="5" y="5" width="1" height="1" fill="#65514B" />
<rect x="6" y="5" width="1" height="1" fill="#A88D75" />
<rect x="7" y="5" width="1" height="1" fill="#65514B" />
<rect x="104" y="5" width="1" height="1" fill="#65514B" />
<rect x="105" y="5" width="1" height="1" fill="#A88D75" />
<rect x="106" y="5" width="1" height="1" fill="#65514B" />
<rect x="107" y="5" width="1" height="1" fill="#65514B" />
<rect x="108" y="5" width="1" height="1" fill="#A88D75" />
<rect x="2" y="6" width="1" height="1" fill="#A88D75" />
<rect x="3" y="6" width="1" height="1" fill="#81675D" />
<rect x="4" y="6" width="1" height="1" fill="#81675D" />
<rect x="5" y="6" width="1" height="1" fill="#81675D" />
<rect x="6" y="6" width="1" height="1" fill="#65514B" />
<rect x="7" y="6" width="1" height="1" fill="#81675D" />
<rect x="104" y="6" width="1" height="1" fill="#81675D" />
<rect x="105" y="6" width="1" height="1" fill="#65514B" />
<rect x="106" y="6" width="1" height="1" fill="#81675D" />
<rect x="107" y="6" width="1" height="1" fill="#81675D" />
<rect x="108" y="6" width="1" height="1" fill="#81675D" />
<rect x="109" y="6" width="1" height="1" fill="#A88D75" />
<rect x="1" y="7" width="1" height="1" fill="#A88D75" />
<rect x="2" y="7" width="1" height="1" fill="#81675D" />
<rect x="5" y="7" width="1" height="1" fill="#A88D75" />
<rect x="6" y="7" width="1" height="1" fill="#81675D" />
<rect x="7" y="7" width="1" height="1" fill="#81675D" />
<rect x="104" y="7" width="1" height="1" fill="#81675D" />
<rect x="105" y="7" width="1" height="1" fill="#81675D" />
<rect x="106" y="7" width="1" height="1" fill="#A88D75" />
<rect x="109" y="7" width="1" height="1" fill="#81675D" />
<rect x="110" y="7" width="1" height="1" fill="#A88D75" />
<rect x="1" y="8" width="1" height="1" fill="#A88D75" />
<rect x="6" y="8" width="1" height="1" fill="#A88D75" />
<rect x="7" y="8" width="1" height="1" fill="#65514B" />
<rect x="104" y="8" width="1" height="1" fill="#65514B" />
<rect x="105" y="8" width="1" height="1" fill="#A88D75" />
<rect x="110" y="8" width="1" height="1" fill="#A88D75" />
<rect x="7" y="9" width="1" height="1" fill="#81675D" />
<rect x="104" y="9" width="1" height="1" fill="#81675D" />
<rect x="7" y="10" width="1" height="1" fill="#65514B" />
<rect x="104" y="10" width="1" height="1" fill="#65514B" />
<rect x="5" y="11" width="1" height="1" fill="#81675D" />
<rect x="6" y="11" width="1" height="1" fill="#A88D75" />
<rect x="7" y="11" width="1" height="1" fill="#A88D75" />
<rect x="104" y="11" width="1" height="1" fill="#A88D75" />
<rect x="105" y="11" width="1" height="1" fill="#A88D75" />
<rect x="106" y="11" width="1" height="1" fill="#81675D" />
<rect x="4" y="12" width="1" height="1" fill="#81675D" />
<rect x="5" y="12" width="1" height="1" fill="#A88D75" />
<rect x="6" y="12" width="1" height="1" fill="#4A3C3A" />
<rect x="7" y="12" width="1" height="1" fill="#A88D75" />
<rect x="104" y="12" width="1" height="1" fill="#A88D75" />
<rect x="105" y="12" width="1" height="1" fill="#4A3C3A" />
<rect x="106" y="12" width="1" height="1" fill="#A88D75" />
<rect x="107" y="12" width="1" height="1" fill="#81675D" />
<rect x="2" y="13" width="1" height="1" fill="#A88D75" />
<rect x="3" y="13" width="1" height="1" fill="#81675D" />
<rect x="4" y="13" width="1" height="1" fill="#65514B" />
<rect x="5" y="13" width="1" height="1" fill="#A88D75" />
<rect x="6" y="13" width="1" height="1" fill="#A88D75" />
<rect x="7" y="13" width="1" height="1" fill="#81675D" />
<rect x="104" y="13" width="1" height="1" fill="#81675D" />
<rect x="105" y="13" width="1" height="1" fill="#A88D75" />
<rect x="106" y="13" width="1" height="1" fill="#A88D75" />
<rect x="107" y="13" width="1" height="1" fill="#65514B" />
<rect x="108" y="13" width="1" height="1" fill="#81675D" />
<rect x="109" y="13" width="1" height="1" fill="#A88D75" />
<rect x="1" y="14" width="1" height="1" fill="#A88D75" />
<rect x="2" y="14" width="1" height="1" fill="#65514B" />
<rect x="3" y="14" width="1" height="1" fill="#81675D" />
<rect x="4" y="14" width="1" height="1" fill="#A88D75" />
<rect x="5" y="14" width="1" height="1" fill="#65514B" />
<rect x="6" y="14" width="1" height="1" fill="#81675D" />
<rect x="7" y="14" width="1" height="1" fill="#81675D" />
<rect x="104" y="14" width="1" height="1" fill="#81675D" />
<rect x="105" y="14" width="1" height="1" fill="#81675D" />
<rect x="106" y="14" width="1" height="1" fill="#65514B" />
<rect x="107" y="14" width="1" height="1" fill="#A88D75" />
<rect x="108" y="14" width="1" height="1" fill="#81675D" />
<rect x="109" y="14" width="1" height="1" fill="#65514B" />
<rect x="110" y="14" width="1" height="1" fill="#A88D75" />
<rect x="0" y="15" width="1" height="1" fill="#A88D75" />
<rect x="1" y="15" width="1" height="1" fill="#81675D" />
<rect x="2" y="15" width="1" height="1" fill="#A88D75" />
<rect x="3" y="15" width="1" height="1" fill="#A88D75" />
<rect x="4" y="15" width="1" height="1" fill="#65514B" />
<rect x="5" y="15" width="1" height="1" fill="#A88D75" />
<rect x="6" y="15" width="1" height="1" fill="#65514B" />
<rect x="7" y="15" width="1" height="1" fill="#4A3C3A" />
<rect x="104" y="15" width="1" height="1" fill="#4A3C3A" />
<rect x="105" y="15" width="1" height="1" fill="#65514B" />
<rect x="106" y="15" width="1" height="1" fill="#A88D75" />
<rect x="107" y="15" width="1" height="1" fill="#65514B" />
<rect x="108" y="15" width="1" height="1" fill="#A88D75" />
<rect x="109" y="15" width="1" height="1" fill="#A88D75" />
<rect x="110" y="15" width="1" height="1" fill="#81675D" />
<rect x="111" y="15" width="1" height="1" fill="#A88D75" />
<rect x="0" y="16" width="1" height="1" fill="#A88D75" />
<rect x="1" y="16" width="1" height="1" fill="#81675D" />
<rect x="2" y="16" width="1" height="1" fill="#A88D75" />
<rect x="3" y="16" width="1" height="1" fill="#A88D75" />
<rect x="4" y="16" width="1" height="1" fill="#65514B" />
<rect x="5" y="16" width="1" height="1" fill="#A88D75" />
<rect x="6" y="16" width="1" height="1" fill="#65514B" />
<rect x="7" y="16" width="1" height="1" fill="#4A3C3A" />
<rect x="104" y="16" width="1" height="1" fill="#4A3C3A" />
<rect x="105" y="16" width="1" height="1" fill="#65514B" />
<rect x="106" y="16" width="1" height="1" fill="#A88D75" />
<rect x="107" y="16" width="1" height="1" fill="#65514B" />
<rect x="108" y="16" width="1" height="1" fill="#A88D75" />
<rect x="109" y="16" width="1" height="1" fill="#A88D75" />
<rect x="110" y="16" width="1" height="1" fill="#81675D" />
<rect x="111" y="16" width="1" height="1" fill="#A88D75" />
<rect x="1" y="17" width="1" height="1" fill="#A88D75" />
<rect x="2" y="17" width="1" height="1" fill="#65514B" />
<rect x="3" y="17" width="1" height="1" fill="#81675D" />
<rect x="4" y="17" width="1" height="1" fill="#A88D75" />
<rect x="5" y="17" width="1" height="1" fill="#65514B" />
<rect x="6" y="17" width="1" height="1" fill="#81675D" />
<rect x="7" y="17" width="1" height="1" fill="#81675D" />
<rect x="104" y="17" width="1" height="1" fill="#81675D" />
<rect x="105" y="17" width="1" height="1" fill="#81675D" />
<rect x="106" y="17" width="1" height="1" fill="#65514B" />
<rect x="107" y="17" width="1" height="1" fill="#A88D75" />
<rect x="108" y="17" width="1" height="1" fill="#81675D" />
<rect x="109" y="17" width="1" height="1" fill="#65514B" />
<rect x="110" y="17" width="1" height="1" fill="#A88D75" />
<rect x="2" y="18" width="1" height="1" fill="#A88D75" />
<rect x="3" y="18" width="1" height="1" fill="#81675D" />
<rect x="4" y="18" width="1" height="1" fill="#65514B" />
<rect x="5" y="18" width="1" height="1" fill="#A88D75" />
<rect x="6" y="18" width="1" height="1" fill="#A88D75" />
<rect x="7" y="18" width="1" height="1" fill="#81675D" />
<rect x="104" y="18" width="1" height="1" fill="#81675D" />
<rect x="105" y="18" width="1" height="1" fill="#A88D75" />
<rect x="106" y="18" width="1" height="1" fill="#A88D75" />
<rect x="107" y="18" width="1" height="1" fill="#65514B" />
<rect x="108" y="18" width="1" height="1" fill="#81675D" />
<rect x="109" y="18" width="1" height="1" fill="#A88D75" />
<rect x="4" y="19" width="1" height="1" fill="#81675D" />
<rect x="5" y="19" width="1" height="1" fill="#A88D75" />
<rect x="6" y="19" width="1" height="1" fill="#4A3C3A" />
<rect x="7" y="19" width="1" height="1" fill="#A88D75" />
<rect x="104" y="19" width="1" height="1" fill="#A88D75" />
<rect x="105" y="19" width="1" height="1" fill="#4A3C3A" />
<rect x="106" y="19" width="1" height="1" fill="#A88D75" />
<rect x="107" y="19" width="1" height="1" fill="#81675D" />
<rect x="5" y="20" width="1" height="1" fill="#81675D" />
<rect x="6" y="20" width="1" height="1" fill="#A88D75" />
<rect x="7" y="20" width="1" height="1" fill="#A88D75" />
<rect x="104" y="20" width="1" height="1" fill="#A88D75" />
<rect x="105" y="20" width="1" height="1" fill="#A88D75" />
<rect x="106" y="20" width="1" height="1" fill="#81675D" />
<rect x="7" y="21" width="1" height="1" fill="#65514B" />
<rect x="104" y="21" width="1" height="1" fill="#65514B" />
<rect x="7" y="22" width="1" height="1" fill="#81675D" />
<rect x="104" y="22" width="1" height="1" fill="#81675D" />
<rect x="1" y="23" width="1" height="1" fill="#A88D75" />
<rect x="6" y="23" width="1" height="1" fill="#A88D75" />
<rect x="7" y="23" width="1" height="1" fill="#65514B" />
<rect x="104" y="23" width="1" height="1" fill="#65514B" />
<rect x="105" y="23" width="1" height="1" fill="#A88D75" />
<rect x="110" y="23" width="1" height="1" fill="#A88D75" />
<rect x="1" y="24" width="1" height="1" fill="#A88D75" />
<rect x="2" y="24" width="1" height="1" fill="#81675D" />
<rect x="5" y="24" width="1" height="1" fill="#A88D75" />
<rect x="6" y="24" width="1" height="1" fill="#81675D" />
<rect x="7" y="24" width="1" height="1" fill="#81675D" />
<rect x="104" y="24" width="1" height="1" fill="#81675D" />
<rect x="105" y="24" width="1" height="1" fill="#81675D" />
<rect x="106" y="24" width="1" height="1" fill="#A88D75" />
<rect x="109" y="24" width="1" height="1" fill="#81675D" />
<rect x="110" y="24" width="1" height="1" fill="#A88D75" />
<rect x="2" y="25" width="1" height="1" fill="#A88D75" />
<rect x="3" y="25" width="1" height="1" fill="#81675D" />
<rect x="4" y="25" width="1" height="1" fill="#81675D" />
<rect x="5" y="25" width="1" height="1" fill="#81675D" />
<rect x="6" y="25" width="1" height="1" fill="#65514B" />
<rect x="7" y="25" width="1" height="1" fill="#81675D" />
<rect x="104" y="25" width="1" height="1" fill="#81675D" />
<rect x="105" y="25" width="1" height="1" fill="#65514B" />
<rect x="106" y="25" width="1" height="1" fill="#81675D" />
<rect x="107" y="25" width="1" height="1" fill="#81675D" />
<rect x="108" y="25" width="1" height="1" fill="#81675D" />
<rect x="109" y="25" width="1" height="1" fill="#A88D75" />
<rect x="3" y="26" width="1" height="1" fill="#A88D75" />
<rect x="4" y="26" width="1" height="1" fill="#65514B" />
<rect x="5" y="26" width="1" height="1" fill="#65514B" />
<rect x="6" y="26" width="1" height="1" fill="#A88D75" />
<rect x="7" y="26" width="1" height="1" fill="#65514B" />
<rect x="104" y="26" width="1" height="1" fill="#65514B" />
<rect x="105" y="26" width="1" height="1" fill="#A88D75" />
<rect x="106" y="26" width="1" height="1" fill="#65514B" />
<rect x="107" y="26" width="1" height="1" fill="#65514B" />
<rect x="108" y="26" width="1" height="1" fill="#A88D75" />
<rect x="4" y="27" width="1" height="1" fill="#A88D75" />
<rect x="5" y="27" width="1" height="1" fill="#81675D" />
<rect x="6" y="27" width="1" height="1" fill="#65514B" />
<rect x="7" y="27" width="1" height="1" fill="#81675D" />
<rect x="104" y="27" width="1" height="1" fill="#81675D" />
<rect x="105" y="27" width="1" height="1" fill="#65514B" />
<rect x="106" y="27" width="1" height="1" fill="#81675D" />
<rect x="107" y="27" width="1" height="1" fill="#A88D75" />
<rect x="5" y="28" width="1" height="1" fill="#A88D75" />
<rect x="6" y="28" width="1" height="1" fill="#A88D75" />
<rect x="7" y="28" width="1" height="1" fill="#65514B" />
<rect x="104" y="28" width="1" height="1" fill="#65514B" />
<rect x="105" y="28" width="1" height="1" fill="#A88D75" />
<rect x="106" y="28" width="1" height="1" fill="#A88D75" />
<rect x="6" y="29" width="1" height="1" fill="#81675D" />
<rect x="7" y="29" width="1" height="1" fill="#A88D75" />
<rect x="8" y="29" width="1" height="1" fill="#81675D" />
<rect x="103" y="29" width="1" height="1" fill="#81675D" />
<rect x="104" y="29" width="1" height="1" fill="#A88D75" />
<rect x="105" y="29" width="1" height="1" fill="#81675D" />
<rect x="7" y="30" width="1" height="1" fill="#A88D75" />
<rect x="8" y="30" width="1" height="1" fill="#A88D75" />
<rect x="9" y="30" width="1" height="1" fill="#A88D75" />
<rect x="10" y="30" width="1" height="1" fill="#A88D75" />
<rect x="11" y="30" width="1" height="1" fill="#A88D75" />
<rect x="12" y="30" width="1" height="1" fill="#65514B" />
<rect x="13" y="30" width="1" height="1" fill="#A88D75" />
<rect x="14" y="30" width="1" height="1" fill="#65514B" />
<rect x="15" y="30" width="1" height="1" fill="#65514B" />
<rect x="16" y="30" width="1" height="1" fill="#65514B" />
<rect x="17" y="30" width="1" height="1" fill="#65514B" />
<rect x="18" y="30" width="1" height="1" fill="#65514B" />
<rect x="19" y="30" width="1" height="1" fill="#65514B" />
<rect x="20" y="30" width="1" height="1" fill="#65514B" />
<rect x="21" y="30" width="1" height="1" fill="#4A3C3A" />
<rect x="22" y="30" width="1" height="1" fill="#65514B" />
<rect x="23" y="30" width="1" height="1" fill="#4A3C3A" />
<rect x="24" y="30" width="1" height="1" fill="#4A3C3A" />
<rect x="25" y="30" width="1" height="1" fill="#4A3C3A" />
<rect x="26" y="30" width="1" height="1" fill="#4A3C3A" />
<rect x="27" y="30" width="1" height="1" fill="#4A3C3A" />
<rect x="28" y="30" width="1" height="1" fill="#4A3C3A" />
<rect x="29" y="30" width="1" height="1" fill="#4A3C3A" />
<rect x="30" y="30" width="1" height="1" fill="#4A3C3A" />
<rect x="31" y="30" width="1" height="1" fill="#4A3C3A" />
<rect x="32" y="30" width="1" height="1" fill="#4A3C3A" />
<rect x="33" y="30" width="1" height="1" fill="#4A3C3A" />
<rect x="34" y="30" width="1" height="1" fill="#4A3C3A" />
<rect x="35" y="30" width="1" height="1" fill="#4A3C3A" />
<rect x="36" y="30" width="1" height="1" fill="#4A3C3A" />
<rect x="37" y="30" width="1" height="1" fill="#4A3C3A" />
<rect x="38" y="30" width="1" height="1" fill="#4A3C3A" />
<rect x="39" y="30" width="1" height="1" fill="#4A3C3A" />
<rect x="40" y="30" width="1" height="1" fill="#4A3C3A" />
<rect x="41" y="30" width="1" height="1" fill="#4A3C3A" />
<rect x="42" y="30" width="1" height="1" fill="#4A3C3A" />
<rect x="43" y="30" width="1" height="1" fill="#4A3C3A" />
<rect x="44" y="30" width="1" height="1" fill="#4A3C3A" />
<rect x="45" y="30" width="1" height="1" fill="#4A3C3A" />
<rect x="46" y="30" width="1" height="1" fill="#4A3C3A" />
<rect x="47" y="30" width="1" height="1" fill="#4A3C3A" />
<rect x="48" y="30" width="1" height="1" fill="#4A3C3A" />
<rect x="49" y="30" width="1" height="1" fill="#4A3C3A" />
<rect x="50" y="30" width="1" height="1" fill="#4A3C3A" />
<rect x="51" y="30" width="1" height="1" fill="#4A3C3A" />
<rect x="52" y="30" width="1" height="1" fill="#4A3C3A" />
<rect x="53" y="30" width="1" height="1" fill="#4A3C3A" />
<rect x="54" y="30" width="1" height="1" fill="#4A3C3A" />
<rect x="55" y="30" width="1" height="1" fill="#4A3C3A" />
<rect x="56" y="30" width="1" height="1" fill="#4A3C3A" />
<rect x="57" y="30" width="1" height="1" fill="#4A3C3A" />
<rect x="58" y="30" width="1" height="1" fill="#4A3C3A" />
<rect x="59" y="30" width="1" height="1" fill="#4A3C3A" />
<rect x="60" y="30" width="1" height="1" fill="#4A3C3A" />
<rect x="61" y="30" width="1" height="1" fill="#4A3C3A" />
<rect x="62" y="30" width="1" height="1" fill="#4A3C3A" />
<rect x="63" y="30" width="1" height="1" fill="#4A3C3A" />
<rect x="64" y="30" width="1" height="1" fill="#4A3C3A" />
<rect x="65" y="30" width="1" height="1" fill="#4A3C3A" />
<rect x="66" y="30" width="1" height="1" fill="#4A3C3A" />
<rect x="67" y="30" width="1" height="1" fill="#4A3C3A" />
<rect x="68" y="30" width="1" height="1" fill="#4A3C3A" />
<rect x="69" y="30" width="1" height="1" fill="#4A3C3A" />
<rect x="70" y="30" width="1" height="1" fill="#4A3C3A" />
<rect x="71" y="30" width="1" height="1" fill="#4A3C3A" />
<rect x="72" y="30" width="1" height="1" fill="#4A3C3A" />
<rect x="73" y="30" width="1" height="1" fill="#4A3C3A" />
<rect x="74" y="30" width="1" height="1" fill="#4A3C3A" />
<rect x="75" y="30" width="1" height="1" fill="#4A3C3A" />
<rect x="76" y="30" width="1" height="1" fill="#4A3C3A" />
<rect x="77" y="30" width="1" height="1" fill="#4A3C3A" />
<rect x="78" y="30" width="1" height="1" fill="#4A3C3A" />
<rect x="79" y="30" width="1" height="1" fill="#4A3C3A" />
<rect x="80" y="30" width="1" height="1" fill="#4A3C3A" />
<rect x="81" y="30" width="1" height="1" fill="#65514B" />
<rect x="82" y="30" width="1" height="1" fill="#4A3C3A" />
<rect x="83" y="30" width="1" height="1" fill="#65514B" />
<rect x="84" y="30" width="1" height="1" fill="#65514B" />
<rect x="85" y="30" width="1" height="1" fill="#65514B" />
<rect x="86" y="30" width="1" height="1" fill="#65514B" />
<rect x="87" y="30" width="1" height="1" fill="#65514B" />
<rect x="88" y="30" width="1" height="1" fill="#65514B" />
<rect x="89" y="30" width="1" height="1" fill="#65514B" />
<rect x="90" y="30" width="1" height="1" fill="#65514B" />
<rect x="91" y="30" width="1" height="1" fill="#65514B" />
<rect x="92" y="30" width="1" height="1" fill="#65514B" />
<rect x="93" y="30" width="1" height="1" fill="#65514B" />
<rect x="94" y="30" width="1" height="1" fill="#65514B" />
<rect x="95" y="30" width="1" height="1" fill="#65514B" />
<rect x="96" y="30" width="1" height="1" fill="#65514B" />
<rect x="97" y="30" width="1" height="1" fill="#65514B" />
<rect x="98" y="30" width="1" height="1" fill="#A88D75" />
<rect x="99" y="30" width="1" height="1" fill="#65514B" />
<rect x="100" y="30" width="1" height="1" fill="#A88D75" />
<rect x="101" y="30" width="1" height="1" fill="#A88D75" />
<rect x="102" y="30" width="1" height="1" fill="#A88D75" />
<rect x="103" y="30" width="1" height="1" fill="#A88D75" />
<rect x="104" y="30" width="1" height="1" fill="#A88D75" />
</svg>