<?xml version="1.0" encoding="UTF-8" ?>
<svg version="1.1" width="32" height="32" xmlns="http://www.w3.org/2000/svg" shape-rendering="crispEdges">
<rect x="3" y="4" width="1" height="1" fill="#A88D75" />
<rect x="4" y="4" width="1" height="1" fill="#A88D75" />
<rect x="5" y="4" width="1" height="1" fill="#A88D75" />
<rect x="6" y="4" width="1" height="1" fill="#A88D75" />
<rect x="7" y="4" width="1" height="1" fill="#A88D75" />
<rect x="8" y="4" width="1" height="1" fill="#81675D" />
<rect x="9" y="4" width="1" height="1" fill="#81675D" />
<rect x="10" y="4" width="1" height="1" fill="#4A3C3A" />
<rect x="11" y="4" width="1" height="1" fill="#81675D" />
<rect x="12" y="4" width="1" height="1" fill="#4A3C3A" />
<rect x="13" y="4" width="1" height="1" fill="#4A3C3A" />
<rect x="14" y="4" width="1" height="1" fill="#4A3C3A" />
<rect x="15" y="4" width="1" height="1" fill="#4A3C3A" />
<rect x="16" y="4" width="1" height="1" fill="#4A3C3A" />
<rect x="17" y="4" width="1" height="1" fill="#4A3C3A" />
<rect x="18" y="4" width="1" height="1" fill="#4A3C3A" />
<rect x="19" y="4" width="1" height="1" fill="#4A3C3A" />
<rect x="20" y="4" width="1" height="1" fill="#4A3C3A" />
<rect x="21" y="4" width="1" height="1" fill="#4A3C3A" />
<rect x="22" y="4" width="1" height="1" fill="#81675D" />
<rect x="23" y="4" width="1" height="1" fill="#4A3C3A" />
<rect x="24" y="4" width="1" height="1" fill="#81675D" />
<rect x="25" y="4" width="1" height="1" fill="#81675D" />
<rect x="26" y="4" width="1" height="1" fill="#81675D" />
<rect x="27" y="4" width="1" height="1" fill="#A88D75" />
<rect x="28" y="4" width="1" height="1" fill="#A88D75" />
<rect x="3" y="5" width="1" height="1" fill="#A88D75" />
<rect x="4" y="5" width="1" height="1" fill="#81675D" />
<rect x="27" y="5" width="1" height="1" fill="#81675D" />
<rect x="28" y="5" width="1" height="1" fill="#A88D75" />
<rect x="3" y="6" width="1" height="1" fill="#65514B" />
<rect x="28" y="6" width="1" height="1" fill="#65514B" />
<rect x="3" y="7" width="1" height="1" fill="#81675D" />
<rect x="28" y="7" width="1" height="1" fill="#81675D" />
<rect x="3" y="8" width="1" height="1" fill="#65514B" />
<rect x="28" y="8" width="1" height="1" fill="#65514B" />
<rect x="3" y="9" width="1" height="1" fill="#65514B" />
<rect x="28" y="9" width="1" height="1" fill="#65514B" />
<rect x="3" y="10" width="1" height="1" fill="#65514B" />
<rect x="28" y="10" width="1" height="1" fill="#65514B" />
<rect x="3" y="11" width="1" height="1" fill="#65514B" />
<rect x="10" y="11" width="1" height="1" fill="#8B7563" />
<rect x="21" y="11" width="1" height="1" fill="#8B7563" />
<rect x="28" y="11" width="1" height="1" fill="#65514B" />
<rect x="3" y="12" width="1" height="1" fill="#81675D" />
<rect x="9" y="12" width="1" height="1" fill="#8B7563" />
<rect x="10" y="12" width="1" height="1" fill="#8B7563" />
<rect x="21" y="12" width="1" height="1" fill="#8B7563" />
<rect x="22" y="12" width="1" height="1" fill="#8B7563" />
<rect x="28" y="12" width="1" height="1" fill="#81675D" />
<rect x="3" y="13" width="1" height="1" fill="#81675D" />
<rect x="8" y="13" width="1" height="1" fill="#8B7563" />
<rect x="9" y="13" width="1" height="1" fill="#8B7563" />
<rect x="10" y="13" width="1" height="1" fill="#8B7563" />
<rect x="21" y="13" width="1" height="1" fill="#8B7563" />
<rect x="22" y="13" width="1" height="1" fill="#8B7563" />
<rect x="23" y="13" width="1" height="1" fill="#8B7563" />
<rect x="28" y="13" width="1" height="1" fill="#81675D" />
<rect x="3" y="14" width="1" height="1" fill="#81675D" />
<rect x="7" y="14" width="1" height="1" fill="#8B7563" />
<rect x="8" y="14" width="1" height="1" fill="#8B7563" />
<rect x="9" y="14" width="1" height="1" fill="#8B7563" />
<rect x="10" y="14" width="1" height="1" fill="#8B7563" />
<rect x="11" y="14" width="1" height="1" fill="#8B7563" />
<rect x="12" y="14" width="1" height="1" fill="#8B7563" />
<rect x="13" y="14" width="1" height="1" fill="#8B7563" />
<rect x="14" y="14" width="1" height="1" fill="#8B7563" />
<rect x="15" y="14" width="1" height="1" fill="#8B7563" />
<rect x="16" y="14" width="1" height="1" fill="#8B7563" />
<rect x="17" y="14" width="1" height="1" fill="#8B7563" />
<rect x="18" y="14" width="1" height="1" fill="#8B7563" />
<rect x="19" y="14" width="1" height="1" fill="#8B7563" />
<rect x="20" y="14" width="1" height="1" fill="#8B7563" />
<rect x="21" y="14" width="1" height="1" fill="#8B7563" />
<rect x="22" y="14" width="1" height="1" fill="#8B7563" />
<rect x="23" y="14" width="1" height="1" fill="#8B7563" />
<rect x="24" y="14" width="1" height="1" fill="#8B7563" />
<rect x="28" y="14" width="1" height="1" fill="#81675D" />
<rect x="3" y="15" width="1" height="1" fill="#81675D" />
<rect x="6" y="15" width="1" height="1" fill="#8B7563" />
<rect x="7" y="15" width="1" height="1" fill="#8B7563" />
<rect x="8" y="15" width="1" height="1" fill="#8B7563" />
<rect x="9" y="15" width="1" height="1" fill="#8B7563" />
<rect x="10" y="15" width="1" height="1" fill="#8B7563" />
<rect x="11" y="15" width="1" height="1" fill="#8B7563" />
<rect x="12" y="15" width="1" height="1" fill="#8B7563" />
<rect x="13" y="15" width="1" height="1" fill="#8B7563" />
<rect x="14" y="15" width="1" height="1" fill="#8B7563" />
<rect x="15" y="15" width="1" height="1" fill="#8B7563" />
<rect x="16" y="15" width="1" height="1" fill="#8B7563" />
<rect x="17" y="15" width="1" height="1" fill="#8B7563" />
<rect x="18" y="15" width="1" height="1" fill="#8B7563" />
<rect x="19" y="15" width="1" height="1" fill="#8B7563" />
<rect x="20" y="15" width="1" height="1" fill="#8B7563" />
<rect x="21" y="15" width="1" height="1" fill="#8B7563" />
<rect x="22" y="15" width="1" height="1" fill="#8B7563" />
<rect x="23" y="15" width="1" height="1" fill="#8B7563" />
<rect x="24" y="15" width="1" height="1" fill="#8B7563" />
<rect x="25" y="15" width="1" height="1" fill="#8B7563" />
<rect x="28" y="15" width="1" height="1" fill="#81675D" />
<rect x="3" y="16" width="1" height="1" fill="#81675D" />
<rect x="6" y="16" width="1" height="1" fill="#8B7563" />
<rect x="7" y="16" width="1" height="1" fill="#8B7563" />
<rect x="8" y="16" width="1" height="1" fill="#8B7563" />
<rect x="9" y="16" width="1" height="1" fill="#8B7563" />
<rect x="10" y="16" width="1" height="1" fill="#8B7563" />
<rect x="11" y="16" width="1" height="1" fill="#8B7563" />
<rect x="12" y="16" width="1" height="1" fill="#8B7563" />
<rect x="13" y="16" width="1" height="1" fill="#8B7563" />
<rect x="14" y="16" width="1" height="1" fill="#8B7563" />
<rect x="15" y="16" width="1" height="1" fill="#8B7563" />
<rect x="16" y="16" width="1" height="1" fill="#8B7563" />
<rect x="17" y="16" width="1" height="1" fill="#8B7563" />
<rect x="18" y="16" width="1" height="1" fill="#8B7563" />
<rect x="19" y="16" width="1" height="1" fill="#8B7563" />
<rect x="20" y="16" width="1" height="1" fill="#8B7563" />
<rect x="21" y="16" width="1" height="1" fill="#8B7563" />
<rect x="22" y="16" width="1" height="1" fill="#8B7563" />
<rect x="23" y="16" width="1" height="1" fill="#8B7563" />
<rect x="24" y="16" width="1" height="1" fill="#8B7563" />
<rect x="25" y="16" width="1" height="1" fill="#8B7563" />
<rect x="28" y="16" width="1" height="1" fill="#81675D" />
<rect x="3" y="17" width="1" height="1" fill="#81675D" />
<rect x="7" y="17" width="1" height="1" fill="#8B7563" />
<rect x="8" y="17" width="1" height="1" fill="#8B7563" />
<rect x="9" y="17" width="1" height="1" fill="#8B7563" />
<rect x="10" y="17" width="1" height="1" fill="#8B7563" />
<rect x="11" y="17" width="1" height="1" fill="#8B7563" />
<rect x="12" y="17" width="1" height="1" fill="#8B7563" />
<rect x="13" y="17" width="1" height="1" fill="#8B7563" />
<rect x="14" y="17" width="1" height="1" fill="#8B7563" />
<rect x="15" y="17" width="1" height="1" fill="#8B7563" />
<rect x="16" y="17" width="1" height="1" fill="#8B7563" />
<rect x="17" y="17" width="1" height="1" fill="#8B7563" />
<rect x="18" y="17" width="1" height="1" fill="#8B7563" />
<rect x="19" y="17" width="1" height="1" fill="#8B7563" />
<rect x="20" y="17" width="1" height="1" fill="#8B7563" />
<rect x="21" y="17" width="1" height="1" fill="#8B7563" />
<rect x="22" y="17" width="1" height="1" fill="#8B7563" />
<rect x="23" y="17" width="1" height="1" fill="#8B7563" />
<rect x="24" y="17" width="1" height="1" fill="#8B7563" />
<rect x="28" y="17" width="1" height="1" fill="#81675D" />
<rect x="3" y="18" width="1" height="1" fill="#81675D" />
<rect x="8" y="18" width="1" height="1" fill="#8B7563" />
<rect x="9" y="18" width="1" height="1" fill="#8B7563" />
<rect x="10" y="18" width="1" height="1" fill="#8B7563" />
<rect x="21" y="18" width="1" height="1" fill="#8B7563" />
<rect x="22" y="18" width="1" height="1" fill="#8B7563" />
<rect x="23" y="18" width="1" height="1" fill="#8B7563" />
<rect x="28" y="18" width="1" height="1" fill="#81675D" />
<rect x="3" y="19" width="1" height="1" fill="#65514B" />
<rect x="9" y="19" width="1" height="1" fill="#8B7563" />
<rect x="10" y="19" width="1" height="1" fill="#8B7563" />
<rect x="21" y="19" width="1" height="1" fill="#8B7563" />
<rect x="22" y="19" width="1" height="1" fill="#8B7563" />
<rect x="28" y="19" width="1" height="1" fill="#65514B" />
<rect x="3" y="20" width="1" height="1" fill="#65514B" />
<rect x="10" y="20" width="1" height="1" fill="#8B7563" />
<rect x="21" y="20" width="1" height="1" fill="#8B7563" />
<rect x="28" y="20" width="1" height="1" fill="#65514B" />
<rect x="3" y="21" width="1" height="1" fill="#65514B" />
<rect x="28" y="21" width="1" height="1" fill="#65514B" />
<rect x="3" y="22" width="1" height="1" fill="#65514B" />
<rect x="28" y="22" width="1" height="1" fill="#65514B" />
<rect x="3" y="23" width="1" height="1" fill="#65514B" />
<rect x="28" y="23" width="1" height="1" fill="#65514B" />
<rect x="3" y="24" width="1" height="1" fill="#81675D" />
<rect x="28" y="24" width="1" height="1" fill="#81675D" />
<rect x="3" y="25" width="1" height="1" fill="#65514B" />
<rect x="28" y="25" width="1" height="1" fill="#65514B" />
<rect x="3" y="26" width="1" height="1" fill="#A88D75" />
<rect x="4" y="26" width="1" height="1" fill="#81675D" />
<rect x="27" y="26" width="1" height="1" fill="#81675D" />
<rect x="28" y="26" width="1" height="1" fill="#A88D75" />
<rect x="3" y="27" width="1" height="1" fill="#A88D75" />
<rect x="4" y="27" width="1" height="1" fill="#A88D75" />
<rect x="5" y="27" width="1" height="1" fill="#81675D" />
<rect x="6" y="27" width="1" height="1" fill="#81675D" />
<rect x="7" y="27" width="1" height="1" fill="#4A3C3A" />
<rect x="8" y="27" width="1" height="1" fill="#4A3C3A" />
<rect x="9" y="27" width="1" height="1" fill="#4A3C3A" />
<rect x="10" y="27" width="1" height="1" fill="#4A3C3A" />
<rect x="11" y="27" width="1" height="1" fill="#4A3C3A" />
<rect x="12" y="27" width="1" height="1" fill="#4A3C3A" />
<rect x="13" y="27" width="1" height="1" fill="#4A3C3A" />
<rect x="14" y="27" width="1" height="1" fill="#4A3C3A" />
<rect x="15" y="27" width="1" height="1" fill="#4A3C3A" />
<rect x="16" y="27" width="1" height="1" fill="#4A3C3A" />
<rect x="17" y="27" width="1" height="1" fill="#4A3C3A" />
<rect x="18" y="27" width="1" height="1" fill="#65514B" />
<rect x="19" y="27" width="1" height="1" fill="#65514B" />
<rect x="20" y="27" width="1" height="1" fill="#65514B" />
<rect x="21" y="27" width="1" height="1" fill="#65514B" />
<rect x="22" y="27" width="1" height="1" fill="#A88D75" />
<rect x="23" y="27" width="1" height="1" fill="#65514B" />
<rect x="24" y="27" width="1" height="1" fill="#A88D75" />
<rect x="25" y="27" width="1" height="1" fill="#A88D75" />
<rect x="26" y="27" width="1" height="1" fill="#A88D75" />
<rect x="27" y="27" width="1" height="1" fill="#A88D75" />
<rect x="28" y="27" width="1" height="1" fill="#A88D75" />
</svg>