<?xml version="1.0" encoding="UTF-8" ?>
<svg version="1.1" width="12" height="12" xmlns="http://www.w3.org/2000/svg" shape-rendering="crispEdges">
<rect x="6" y="1" width="1" height="1" fill="#A88D75" />
<rect x="5" y="2" width="1" height="1" fill="#81675D" />
<rect x="6" y="2" width="1" height="1" fill="#65514B" />
<rect x="7" y="2" width="1" height="1" fill="#81675D" />
<rect x="4" y="3" width="1" height="1" fill="#65514B" />
<rect x="5" y="3" width="1" height="1" fill="#4A3C3A" />
<rect x="6" y="3" width="1" height="1" fill="#81675D" />
<rect x="7" y="3" width="1" height="1" fill="#4A3C3A" />
<rect x="8" y="3" width="1" height="1" fill="#65514B" />
<rect x="4" y="4" width="1" height="1" fill="#81675D" />
<rect x="5" y="4" width="1" height="1" fill="#A88D75" />
<rect x="6" y="4" width="1" height="1" fill="#65514B" />
<rect x="7" y="4" width="1" height="1" fill="#A88D75" />
<rect x="8" y="4" width="1" height="1" fill="#81675D" />
<rect x="4" y="5" width="1" height="1" fill="#4A3C3A" />
<rect x="5" y="5" width="1" height="1" fill="#81675D" />
<rect x="6" y="5" width="1" height="1" fill="#4A3C3A" />
<rect x="7" y="5" width="1" height="1" fill="#81675D" />
<rect x="8" y="5" width="1" height="1" fill="#4A3C3A" />
<rect x="3" y="6" width="1" height="1" fill="#4A3C3A" />
<rect x="4" y="6" width="1" height="1" fill="#81675D" />
<rect x="5" y="6" width="1" height="1" fill="#A88D75" />
<rect x="6" y="6" width="1" height="1" fill="#81675D" />
<rect x="7" y="6" width="1" height="1" fill="#A88D75" />
<rect x="8" y="6" width="1" height="1" fill="#81675D" />
<rect x="9" y="6" width="1" height="1" fill="#4A3C3A" />
<rect x="3" y="7" width="1" height="1" fill="#81675D" />
<rect x="4" y="7" width="1" height="1" fill="#A88D75" />
<rect x="5" y="7" width="1" height="1" fill="#4A3C3A" />
<rect x="6" y="7" width="1" height="1" fill="#65514B" />
<rect x="7" y="7" width="1" height="1" fill="#4A3C3A" />
<rect x="8" y="7" width="1" height="1" fill="#A88D75" />
<rect x="9" y="7" width="1" height="1" fill="#81675D" />
<rect x="3" y="8" width="1" height="1" fill="#65514B" />
<rect x="4" y="8" width="1" height="1" fill="#A88D75" />
<rect x="5" y="8" width="1" height="1" fill="#A88D75" />
<rect x="6" y="8" width="1" height="1" fill="#81675D" />
<rect x="7" y="8" width="1" height="1" fill="#A88D75" />
<rect x="8" y="8" width="1" height="1" fill="#A88D75" />
<rect x="9" y="8" width="1" height="1" fill="#65514B" />
<rect x="2" y="9" width="1" height="1" fill="#81675D" />
<rect x="3" y="9" width="1" height="1" fill="#A88D75" />
<rect x="4" y="9" width="1" height="1" fill="#65514B" />
<rect x="5" y="9" width="1" height="1" fill="#81675D" />
<rect x="6" y="9" width="1" height="1" fill="#4A3C3A" />
<rect x="7" y="9" width="1" height="1" fill="#81675D" />
<rect x="8" y="9" width="1" height="1" fill="#65514B" />
<rect x="9" y="9" width="1" height="1" fill="#A88D75" />
<rect x="10" y="9" width="1" height="1" fill="#81675D" />
<rect x="5" y="10" width="1" height="1" fill="#A88D75" />
<rect x="6" y="10" width="1" height="1" fill="#81675D" />
<rect x="7" y="10" width="1" height="1" fill="#A88D75" />
</svg>