<?xml version="1.0" encoding="UTF-8" ?>
<svg version="1.1" width="32" height="32" xmlns="http://www.w3.org/2000/svg" shape-rendering="crispEdges">
<rect x="0" y="0" width="1" height="1" fill="#F72E2E" />
<rect x="1" y="0" width="1" height="1" fill="#F72E2E" />
<rect x="2" y="0" width="1" height="1" fill="#F72E2E" />
<rect x="3" y="0" width="1" height="1" fill="#F72E2E" />
<rect x="4" y="0" width="1" height="1" fill="#F72E2E" />
<rect x="5" y="0" width="1" height="1" fill="#F72E2E" />
<rect x="6" y="0" width="1" height="1" fill="#F72E2E" />
<rect x="7" y="0" width="1" height="1" fill="#F72E2E" />
<rect x="8" y="0" width="1" height="1" fill="#F72E2E" />
<rect x="9" y="0" width="1" height="1" fill="#F72E2E" />
<rect x="10" y="0" width="1" height="1" fill="#F72E2E" />
<rect x="11" y="0" width="1" height="1" fill="#F72E2E" />
<rect x="12" y="0" width="1" height="1" fill="#F72E2E" />
<rect x="13" y="0" width="1" height="1" fill="#F72E2E" />
<rect x="14" y="0" width="1" height="1" fill="#F72E2E" />
<rect x="15" y="0" width="1" height="1" fill="#F72E2E" />
<rect x="16" y="0" width="1" height="1" fill="#F72E2E" />
<rect x="17" y="0" width="1" height="1" fill="#F72E2E" />
<rect x="18" y="0" width="1" height="1" fill="#F72E2E" />
<rect x="19" y="0" width="1" height="1" fill="#F72E2E" />
<rect x="20" y="0" width="1" height="1" fill="#F72E2E" />
<rect x="21" y="0" width="1" height="1" fill="#F72E2E" />
<rect x="22" y="0" width="1" height="1" fill="#F72E2E" />
<rect x="23" y="0" width="1" height="1" fill="#F72E2E" />
<rect x="24" y="0" width="1" height="1" fill="#F72E2E" />
<rect x="25" y="0" width="1" height="1" fill="#F72E2E" />
<rect x="26" y="0" width="1" height="1" fill="#F72E2E" />
<rect x="27" y="0" width="1" height="1" fill="#F72E2E" />
<rect x="28" y="0" width="1" height="1" fill="#F72E2E" />
<rect x="29" y="0" width="1" height="1" fill="#F72E2E" />
<rect x="30" y="0" width="1" height="1" fill="#F72E2E" />
<rect x="31" y="0" width="1" height="1" fill="#F72E2E" />
<rect x="0" y="1" width="1" height="1" fill="#BD1919" />
<rect x="1" y="1" width="1" height="1" fill="#BD1919" />
<rect x="2" y="1" width="1" height="1" fill="#BD1919" />
<rect x="3" y="1" width="1" height="1" fill="#BD1919" />
<rect x="4" y="1" width="1" height="1" fill="#BD1919" />
<rect x="5" y="1" width="1" height="1" fill="#BD1919" />
<rect x="6" y="1" width="1" height="1" fill="#BD1919" />
<rect x="7" y="1" width="1" height="1" fill="#BD1919" />
<rect x="8" y="1" width="1" height="1" fill="#BD1919" />
<rect x="9" y="1" width="1" height="1" fill="#BD1919" />
<rect x="10" y="1" width="1" height="1" fill="#BD1919" />
<rect x="11" y="1" width="1" height="1" fill="#BD1919" />
<rect x="12" y="1" width="1" height="1" fill="#BD1919" />
<rect x="13" y="1" width="1" height="1" fill="#BD1919" />
<rect x="14" y="1" width="1" height="1" fill="#BD1919" />
<rect x="15" y="1" width="1" height="1" fill="#BD1919" />
<rect x="16" y="1" width="1" height="1" fill="#BD1919" />
<rect x="17" y="1" width="1" height="1" fill="#BD1919" />
<rect x="18" y="1" width="1" height="1" fill="#BD1919" />
<rect x="19" y="1" width="1" height="1" fill="#BD1919" />
<rect x="20" y="1" width="1" height="1" fill="#BD1919" />
<rect x="21" y="1" width="1" height="1" fill="#BD1919" />
<rect x="22" y="1" width="1" height="1" fill="#BD1919" />
<rect x="23" y="1" width="1" height="1" fill="#BD1919" />
<rect x="24" y="1" width="1" height="1" fill="#BD1919" />
<rect x="25" y="1" width="1" height="1" fill="#BD1919" />
<rect x="26" y="1" width="1" height="1" fill="#BD1919" />
<rect x="27" y="1" width="1" height="1" fill="#BD1919" />
<rect x="28" y="1" width="1" height="1" fill="#BD1919" />
<rect x="29" y="1" width="1" height="1" fill="#BD1919" />
<rect x="30" y="1" width="1" height="1" fill="#BD1919" />
<rect x="31" y="1" width="1" height="1" fill="#BD1919" />
<rect x="0" y="2" width="1" height="1" fill="#7B0505" />
<rect x="1" y="2" width="1" height="1" fill="#7B0505" />
<rect x="2" y="2" width="1" height="1" fill="#7B0505" />
<rect x="3" y="2" width="1" height="1" fill="#7B0505" />
<rect x="4" y="2" width="1" height="1" fill="#7B0505" />
<rect x="5" y="2" width="1" height="1" fill="#7B0505" />
<rect x="6" y="2" width="1" height="1" fill="#7B0505" />
<rect x="7" y="2" width="1" height="1" fill="#7B0505" />
<rect x="8" y="2" width="1" height="1" fill="#7B0505" />
<rect x="9" y="2" width="1" height="1" fill="#7B0505" />
<rect x="10" y="2" width="1" height="1" fill="#7B0505" />
<rect x="11" y="2" width="1" height="1" fill="#7B0505" />
<rect x="12" y="2" width="1" height="1" fill="#7B0505" />
<rect x="13" y="2" width="1" height="1" fill="#7B0505" />
<rect x="14" y="2" width="1" height="1" fill="#7B0505" />
<rect x="15" y="2" width="1" height="1" fill="#7B0505" />
<rect x="16" y="2" width="1" height="1" fill="#7B0505" />
<rect x="17" y="2" width="1" height="1" fill="#7B0505" />
<rect x="18" y="2" width="1" height="1" fill="#7B0505" />
<rect x="19" y="2" width="1" height="1" fill="#7B0505" />
<rect x="20" y="2" width="1" height="1" fill="#7B0505" />
<rect x="21" y="2" width="1" height="1" fill="#7B0505" />
<rect x="22" y="2" width="1" height="1" fill="#7B0505" />
<rect x="23" y="2" width="1" height="1" fill="#7B0505" />
<rect x="24" y="2" width="1" height="1" fill="#7B0505" />
<rect x="25" y="2" width="1" height="1" fill="#7B0505" />
<rect x="26" y="2" width="1" height="1" fill="#7B0505" />
<rect x="27" y="2" width="1" height="1" fill="#7B0505" />
<rect x="28" y="2" width="1" height="1" fill="#7B0505" />
<rect x="29" y="2" width="1" height="1" fill="#7B0505" />
<rect x="30" y="2" width="1" height="1" fill="#7B0505" />
<rect x="31" y="2" width="1" height="1" fill="#7B0505" />
<rect x="0" y="29" width="1" height="1" fill="#7B0505" />
<rect x="1" y="29" width="1" height="1" fill="#7B0505" />
<rect x="2" y="29" width="1" height="1" fill="#7B0505" />
<rect x="3" y="29" width="1" height="1" fill="#7B0505" />
<rect x="4" y="29" width="1" height="1" fill="#7B0505" />
<rect x="5" y="29" width="1" height="1" fill="#7B0505" />
<rect x="6" y="29" width="1" height="1" fill="#7B0505" />
<rect x="7" y="29" width="1" height="1" fill="#7B0505" />
<rect x="8" y="29" width="1" height="1" fill="#7B0505" />
<rect x="9" y="29" width="1" height="1" fill="#7B0505" />
<rect x="10" y="29" width="1" height="1" fill="#7B0505" />
<rect x="11" y="29" width="1" height="1" fill="#7B0505" />
<rect x="12" y="29" width="1" height="1" fill="#7B0505" />
<rect x="13" y="29" width="1" height="1" fill="#7B0505" />
<rect x="14" y="29" width="1" height="1" fill="#7B0505" />
<rect x="15" y="29" width="1" height="1" fill="#7B0505" />
<rect x="16" y="29" width="1" height="1" fill="#7B0505" />
<rect x="17" y="29" width="1" height="1" fill="#7B0505" />
<rect x="18" y="29" width="1" height="1" fill="#7B0505" />
<rect x="19" y="29" width="1" height="1" fill="#7B0505" />
<rect x="20" y="29" width="1" height="1" fill="#7B0505" />
<rect x="21" y="29" width="1" height="1" fill="#7B0505" />
<rect x="22" y="29" width="1" height="1" fill="#7B0505" />
<rect x="23" y="29" width="1" height="1" fill="#7B0505" />
<rect x="24" y="29" width="1" height="1" fill="#7B0505" />
<rect x="25" y="29" width="1" height="1" fill="#7B0505" />
<rect x="26" y="29" width="1" height="1" fill="#7B0505" />
<rect x="27" y="29" width="1" height="1" fill="#7B0505" />
<rect x="28" y="29" width="1" height="1" fill="#7B0505" />
<rect x="29" y="29" width="1" height="1" fill="#7B0505" />
<rect x="30" y="29" width="1" height="1" fill="#7B0505" />
<rect x="31" y="29" width="1" height="1" fill="#7B0505" />
<rect x="0" y="30" width="1" height="1" fill="#BD1919" />
<rect x="1" y="30" width="1" height="1" fill="#BD1919" />
<rect x="2" y="30" width="1" height="1" fill="#BD1919" />
<rect x="3" y="30" width="1" height="1" fill="#BD1919" />
<rect x="4" y="30" width="1" height="1" fill="#BD1919" />
<rect x="5" y="30" width="1" height="1" fill="#BD1919" />
<rect x="6" y="30" width="1" height="1" fill="#BD1919" />
<rect x="7" y="30" width="1" height="1" fill="#BD1919" />
<rect x="8" y="30" width="1" height="1" fill="#BD1919" />
<rect x="9" y="30" width="1" height="1" fill="#BD1919" />
<rect x="10" y="30" width="1" height="1" fill="#BD1919" />
<rect x="11" y="30" width="1" height="1" fill="#BD1919" />
<rect x="12" y="30" width="1" height="1" fill="#BD1919" />
<rect x="13" y="30" width="1" height="1" fill="#BD1919" />
<rect x="14" y="30" width="1" height="1" fill="#BD1919" />
<rect x="15" y="30" width="1" height="1" fill="#BD1919" />
<rect x="16" y="30" width="1" height="1" fill="#BD1919" />
<rect x="17" y="30" width="1" height="1" fill="#BD1919" />
<rect x="18" y="30" width="1" height="1" fill="#BD1919" />
<rect x="19" y="30" width="1" height="1" fill="#BD1919" />
<rect x="20" y="30" width="1" height="1" fill="#BD1919" />
<rect x="21" y="30" width="1" height="1" fill="#BD1919" />
<rect x="22" y="30" width="1" height="1" fill="#BD1919" />
<rect x="23" y="30" width="1" height="1" fill="#BD1919" />
<rect x="24" y="30" width="1" height="1" fill="#BD1919" />
<rect x="25" y="30" width="1" height="1" fill="#BD1919" />
<rect x="26" y="30" width="1" height="1" fill="#BD1919" />
<rect x="27" y="30" width="1" height="1" fill="#BD1919" />
<rect x="28" y="30" width="1" height="1" fill="#BD1919" />
<rect x="29" y="30" width="1" height="1" fill="#BD1919" />
<rect x="30" y="30" width="1" height="1" fill="#BD1919" />
<rect x="31" y="30" width="1" height="1" fill="#BD1919" />
<rect x="0" y="31" width="1" height="1" fill="#F72E2E" />
<rect x="1" y="31" width="1" height="1" fill="#F72E2E" />
<rect x="2" y="31" width="1" height="1" fill="#F72E2E" />
<rect x="3" y="31" width="1" height="1" fill="#F72E2E" />
<rect x="4" y="31" width="1" height="1" fill="#F72E2E" />
<rect x="5" y="31" width="1" height="1" fill="#F72E2E" />
<rect x="6" y="31" width="1" height="1" fill="#F72E2E" />
<rect x="7" y="31" width="1" height="1" fill="#F72E2E" />
<rect x="8" y="31" width="1" height="1" fill="#F72E2E" />
<rect x="9" y="31" width="1" height="1" fill="#F72E2E" />
<rect x="10" y="31" width="1" height="1" fill="#F72E2E" />
<rect x="11" y="31" width="1" height="1" fill="#F72E2E" />
<rect x="12" y="31" width="1" height="1" fill="#F72E2E" />
<rect x="13" y="31" width="1" height="1" fill="#F72E2E" />
<rect x="14" y="31" width="1" height="1" fill="#F72E2E" />
<rect x="15" y="31" width="1" height="1" fill="#F72E2E" />
<rect x="16" y="31" width="1" height="1" fill="#F72E2E" />
<rect x="17" y="31" width="1" height="1" fill="#F72E2E" />
<rect x="18" y="31" width="1" height="1" fill="#F72E2E" />
<rect x="19" y="31" width="1" height="1" fill="#F72E2E" />
<rect x="20" y="31" width="1" height="1" fill="#F72E2E" />
<rect x="21" y="31" width="1" height="1" fill="#F72E2E" />
<rect x="22" y="31" width="1" height="1" fill="#F72E2E" />
<rect x="23" y="31" width="1" height="1" fill="#F72E2E" />
<rect x="24" y="31" width="1" height="1" fill="#F72E2E" />
<rect x="25" y="31" width="1" height="1" fill="#F72E2E" />
<rect x="26" y="31" width="1" height="1" fill="#F72E2E" />
<rect x="27" y="31" width="1" height="1" fill="#F72E2E" />
<rect x="28" y="31" width="1" height="1" fill="#F72E2E" />
<rect x="29" y="31" width="1" height="1" fill="#F72E2E" />
<rect x="30" y="31" width="1" height="1" fill="#F72E2E" />
<rect x="31" y="31" width="1" height="1" fill="#F72E2E" />
</svg>