<?xml version="1.0" encoding="UTF-8" ?>
<svg version="1.1" width="16" height="32" xmlns="http://www.w3.org/2000/svg" shape-rendering="crispEdges">
<rect x="13" y="0" width="1" height="1" fill="#F72E2E" />
<rect x="14" y="0" width="1" height="1" fill="#F72E2E" />
<rect x="15" y="0" width="1" height="1" fill="#F72E2E" />
<rect x="10" y="1" width="1" height="1" fill="#F72E2E" />
<rect x="11" y="1" width="1" height="1" fill="#F72E2E" />
<rect x="12" y="1" width="1" height="1" fill="#F72E2E" />
<rect x="13" y="1" width="1" height="1" fill="#BD1919" />
<rect x="14" y="1" width="1" height="1" fill="#BD1919" />
<rect x="15" y="1" width="1" height="1" fill="#F72E2E" />
<rect x="0" y="2" width="1" height="1" fill="#F72E2E" />
<rect x="1" y="2" width="1" height="1" fill="#F72E2E" />
<rect x="2" y="2" width="1" height="1" fill="#F72E2E" />
<rect x="3" y="2" width="1" height="1" fill="#F72E2E" />
<rect x="4" y="2" width="1" height="1" fill="#F72E2E" />
<rect x="5" y="2" width="1" height="1" fill="#F72E2E" />
<rect x="6" y="2" width="1" height="1" fill="#F72E2E" />
<rect x="7" y="2" width="1" height="1" fill="#F72E2E" />
<rect x="8" y="2" width="1" height="1" fill="#F72E2E" />
<rect x="9" y="2" width="1" height="1" fill="#F72E2E" />
<rect x="10" y="2" width="1" height="1" fill="#BD1919" />
<rect x="11" y="2" width="1" height="1" fill="#BD1919" />
<rect x="12" y="2" width="1" height="1" fill="#BD1919" />
<rect x="13" y="2" width="1" height="1" fill="#7B0505" />
<rect x="14" y="2" width="1" height="1" fill="#BD1919" />
<rect x="15" y="2" width="1" height="1" fill="#F72E2E" />
<rect x="0" y="3" width="1" height="1" fill="#BD1919" />
<rect x="1" y="3" width="1" height="1" fill="#BD1919" />
<rect x="2" y="3" width="1" height="1" fill="#BD1919" />
<rect x="3" y="3" width="1" height="1" fill="#BD1919" />
<rect x="4" y="3" width="1" height="1" fill="#BD1919" />
<rect x="5" y="3" width="1" height="1" fill="#BD1919" />
<rect x="6" y="3" width="1" height="1" fill="#BD1919" />
<rect x="7" y="3" width="1" height="1" fill="#BD1919" />
<rect x="8" y="3" width="1" height="1" fill="#BD1919" />
<rect x="9" y="3" width="1" height="1" fill="#BD1919" />
<rect x="10" y="3" width="1" height="1" fill="#BD1919" />
<rect x="11" y="3" width="1" height="1" fill="#7B0505" />
<rect x="12" y="3" width="1" height="1" fill="#7B0505" />
<rect x="13" y="3" width="1" height="1" fill="#BD1919" />
<rect x="14" y="3" width="1" height="1" fill="#F72E2E" />
<rect x="0" y="4" width="1" height="1" fill="#7B0505" />
<rect x="1" y="4" width="1" height="1" fill="#7B0505" />
<rect x="2" y="4" width="1" height="1" fill="#7B0505" />
<rect x="3" y="4" width="1" height="1" fill="#7B0505" />
<rect x="4" y="4" width="1" height="1" fill="#7B0505" />
<rect x="5" y="4" width="1" height="1" fill="#7B0505" />
<rect x="6" y="4" width="1" height="1" fill="#7B0505" />
<rect x="7" y="4" width="1" height="1" fill="#7B0505" />
<rect x="8" y="4" width="1" height="1" fill="#7B0505" />
<rect x="9" y="4" width="1" height="1" fill="#7B0505" />
<rect x="10" y="4" width="1" height="1" fill="#7B0505" />
<rect x="11" y="4" width="1" height="1" fill="#7B0505" />
<rect x="12" y="4" width="1" height="1" fill="#7B0505" />
<rect x="13" y="4" width="1" height="1" fill="#BD1919" />
<rect x="14" y="4" width="1" height="1" fill="#F72E2E" />
<rect x="10" y="5" width="1" height="1" fill="#7B0505" />
<rect x="11" y="5" width="1" height="1" fill="#7B0505" />
<rect x="12" y="5" width="1" height="1" fill="#BD1919" />
<rect x="13" y="5" width="1" height="1" fill="#BD1919" />
<rect x="14" y="5" width="1" height="1" fill="#F72E2E" />
<rect x="11" y="6" width="1" height="1" fill="#7B0505" />
<rect x="12" y="6" width="1" height="1" fill="#BD1919" />
<rect x="13" y="6" width="1" height="1" fill="#F72E2E" />
<rect x="11" y="7" width="1" height="1" fill="#7B0505" />
<rect x="12" y="7" width="1" height="1" fill="#BD1919" />
<rect x="13" y="7" width="1" height="1" fill="#F72E2E" />
<rect x="11" y="8" width="1" height="1" fill="#7B0505" />
<rect x="12" y="8" width="1" height="1" fill="#BD1919" />
<rect x="13" y="8" width="1" height="1" fill="#F72E2E" />
<rect x="14" y="8" width="1" height="1" fill="#F72E2E" />
<rect x="11" y="9" width="1" height="1" fill="#7B0505" />
<rect x="12" y="9" width="1" height="1" fill="#7B0505" />
<rect x="13" y="9" width="1" height="1" fill="#BD1919" />
<rect x="14" y="9" width="1" height="1" fill="#F72E2E" />
<rect x="11" y="10" width="1" height="1" fill="#7B0505" />
<rect x="13" y="10" width="1" height="1" fill="#7B0505" />
<rect x="14" y="10" width="1" height="1" fill="#BD1919" />
<rect x="15" y="10" width="1" height="1" fill="#F72E2E" />
<rect x="11" y="11" width="1" height="1" fill="#7B0505" />
<rect x="13" y="11" width="1" height="1" fill="#7B0505" />
<rect x="14" y="11" width="1" height="1" fill="#BD1919" />
<rect x="15" y="11" width="1" height="1" fill="#F72E2E" />
<rect x="11" y="12" width="1" height="1" fill="#7B0505" />
<rect x="13" y="12" width="1" height="1" fill="#7B0505" />
<rect x="14" y="12" width="1" height="1" fill="#BD1919" />
<rect x="15" y="12" width="1" height="1" fill="#F72E2E" />
<rect x="11" y="13" width="1" height="1" fill="#7B0505" />
<rect x="12" y="13" width="1" height="1" fill="#7B0505" />
<rect x="13" y="13" width="1" height="1" fill="#BD1919" />
<rect x="14" y="13" width="1" height="1" fill="#F72E2E" />
<rect x="10" y="14" width="1" height="1" fill="#7B0505" />
<rect x="11" y="14" width="1" height="1" fill="#7B0505" />
<rect x="12" y="14" width="1" height="1" fill="#BD1919" />
<rect x="13" y="14" width="1" height="1" fill="#BD1919" />
<rect x="14" y="14" width="1" height="1" fill="#F72E2E" />
<rect x="9" y="15" width="1" height="1" fill="#7B0505" />
<rect x="10" y="15" width="1" height="1" fill="#7B0505" />
<rect x="11" y="15" width="1" height="1" fill="#BD1919" />
<rect x="12" y="15" width="1" height="1" fill="#BD1919" />
<rect x="13" y="15" width="1" height="1" fill="#F72E2E" />
<rect x="9" y="16" width="1" height="1" fill="#7B0505" />
<rect x="10" y="16" width="1" height="1" fill="#7B0505" />
<rect x="11" y="16" width="1" height="1" fill="#BD1919" />
<rect x="12" y="16" width="1" height="1" fill="#BD1919" />
<rect x="13" y="16" width="1" height="1" fill="#F72E2E" />
<rect x="10" y="17" width="1" height="1" fill="#7B0505" />
<rect x="11" y="17" width="1" height="1" fill="#7B0505" />
<rect x="12" y="17" width="1" height="1" fill="#BD1919" />
<rect x="13" y="17" width="1" height="1" fill="#BD1919" />
<rect x="14" y="17" width="1" height="1" fill="#F72E2E" />
<rect x="11" y="18" width="1" height="1" fill="#7B0505" />
<rect x="12" y="18" width="1" height="1" fill="#7B0505" />
<rect x="13" y="18" width="1" height="1" fill="#BD1919" />
<rect x="14" y="18" width="1" height="1" fill="#F72E2E" />
<rect x="11" y="19" width="1" height="1" fill="#7B0505" />
<rect x="13" y="19" width="1" height="1" fill="#7B0505" />
<rect x="14" y="19" width="1" height="1" fill="#BD1919" />
<rect x="15" y="19" width="1" height="1" fill="#F72E2E" />
<rect x="11" y="20" width="1" height="1" fill="#7B0505" />
<rect x="13" y="20" width="1" height="1" fill="#7B0505" />
<rect x="14" y="20" width="1" height="1" fill="#BD1919" />
<rect x="15" y="20" width="1" height="1" fill="#F72E2E" />
<rect x="11" y="21" width="1" height="1" fill="#7B0505" />
<rect x="13" y="21" width="1" height="1" fill="#7B0505" />
<rect x="14" y="21" width="1" height="1" fill="#BD1919" />
<rect x="15" y="21" width="1" height="1" fill="#F72E2E" />
<rect x="11" y="22" width="1" height="1" fill="#7B0505" />
<rect x="12" y="22" width="1" height="1" fill="#7B0505" />
<rect x="13" y="22" width="1" height="1" fill="#BD1919" />
<rect x="14" y="22" width="1" height="1" fill="#F72E2E" />
<rect x="11" y="23" width="1" height="1" fill="#7B0505" />
<rect x="12" y="23" width="1" height="1" fill="#7B0505" />
<rect x="13" y="23" width="1" height="1" fill="#BD1919" />
<rect x="14" y="23" width="1" height="1" fill="#F72E2E" />
<rect x="11" y="24" width="1" height="1" fill="#7B0505" />
<rect x="12" y="24" width="1" height="1" fill="#BD1919" />
<rect x="13" y="24" width="1" height="1" fill="#F72E2E" />
<rect x="11" y="25" width="1" height="1" fill="#7B0505" />
<rect x="12" y="25" width="1" height="1" fill="#BD1919" />
<rect x="13" y="25" width="1" height="1" fill="#F72E2E" />
<rect x="10" y="26" width="1" height="1" fill="#7B0505" />
<rect x="11" y="26" width="1" height="1" fill="#7B0505" />
<rect x="12" y="26" width="1" height="1" fill="#BD1919" />
<rect x="13" y="26" width="1" height="1" fill="#BD1919" />
<rect x="14" y="26" width="1" height="1" fill="#F72E2E" />
<rect x="0" y="27" width="1" height="1" fill="#7B0505" />
<rect x="1" y="27" width="1" height="1" fill="#7B0505" />
<rect x="2" y="27" width="1" height="1" fill="#7B0505" />
<rect x="3" y="27" width="1" height="1" fill="#7B0505" />
<rect x="4" y="27" width="1" height="1" fill="#7B0505" />
<rect x="5" y="27" width="1" height="1" fill="#7B0505" />
<rect x="6" y="27" width="1" height="1" fill="#7B0505" />
<rect x="7" y="27" width="1" height="1" fill="#7B0505" />
<rect x="8" y="27" width="1" height="1" fill="#7B0505" />
<rect x="9" y="27" width="1" height="1" fill="#7B0505" />
<rect x="10" y="27" width="1" height="1" fill="#7B0505" />
<rect x="11" y="27" width="1" height="1" fill="#7B0505" />
<rect x="12" y="27" width="1" height="1" fill="#7B0505" />
<rect x="13" y="27" width="1" height="1" fill="#BD1919" />
<rect x="14" y="27" width="1" height="1" fill="#F72E2E" />
<rect x="0" y="28" width="1" height="1" fill="#BD1919" />
<rect x="1" y="28" width="1" height="1" fill="#BD1919" />
<rect x="2" y="28" width="1" height="1" fill="#BD1919" />
<rect x="3" y="28" width="1" height="1" fill="#BD1919" />
<rect x="4" y="28" width="1" height="1" fill="#BD1919" />
<rect x="5" y="28" width="1" height="1" fill="#BD1919" />
<rect x="6" y="28" width="1" height="1" fill="#BD1919" />
<rect x="7" y="28" width="1" height="1" fill="#BD1919" />
<rect x="8" y="28" width="1" height="1" fill="#BD1919" />
<rect x="9" y="28" width="1" height="1" fill="#BD1919" />
<rect x="10" y="28" width="1" height="1" fill="#BD1919" />
<rect x="11" y="28" width="1" height="1" fill="#7B0505" />
<rect x="12" y="28" width="1" height="1" fill="#7B0505" />
<rect x="13" y="28" width="1" height="1" fill="#BD1919" />
<rect x="14" y="28" width="1" height="1" fill="#F72E2E" />
<rect x="0" y="29" width="1" height="1" fill="#F72E2E" />
<rect x="1" y="29" width="1" height="1" fill="#F72E2E" />
<rect x="2" y="29" width="1" height="1" fill="#F72E2E" />
<rect x="3" y="29" width="1" height="1" fill="#F72E2E" />
<rect x="4" y="29" width="1" height="1" fill="#F72E2E" />
<rect x="5" y="29" width="1" height="1" fill="#F72E2E" />
<rect x="6" y="29" width="1" height="1" fill="#F72E2E" />
<rect x="7" y="29" width="1" height="1" fill="#F72E2E" />
<rect x="8" y="29" width="1" height="1" fill="#F72E2E" />
<rect x="9" y="29" width="1" height="1" fill="#F72E2E" />
<rect x="10" y="29" width="1" height="1" fill="#BD1919" />
<rect x="11" y="29" width="1" height="1" fill="#BD1919" />
<rect x="12" y="29" width="1" height="1" fill="#BD1919" />
<rect x="13" y="29" width="1" height="1" fill="#7B0505" />
<rect x="14" y="29" width="1" height="1" fill="#BD1919" />
<rect x="15" y="29" width="1" height="1" fill="#F72E2E" />
<rect x="10" y="30" width="1" height="1" fill="#F72E2E" />
<rect x="11" y="30" width="1" height="1" fill="#F72E2E" />
<rect x="12" y="30" width="1" height="1" fill="#F72E2E" />
<rect x="13" y="30" width="1" height="1" fill="#BD1919" />
<rect x="14" y="30" width="1" height="1" fill="#BD1919" />
<rect x="15" y="30" width="1" height="1" fill="#F72E2E" />
<rect x="13" y="31" width="1" height="1" fill="#F72E2E" />
<rect x="14" y="31" width="1" height="1" fill="#F72E2E" />
<rect x="15" y="31" width="1" height="1" fill="#F72E2E" />
</svg>