<?xml version="1.0" encoding="UTF-8" ?>
<svg version="1.1" width="10" height="10" xmlns="http://www.w3.org/2000/svg" shape-rendering="crispEdges">
<rect x="0" y="0" width="1" height="1" fill="#A88D75" />
<rect x="1" y="0" width="1" height="1" fill="#C3B99C" />
<rect x="2" y="0" width="1" height="1" fill="#65514B" />
<rect x="3" y="0" width="1" height="1" fill="#C3B99C" />
<rect x="4" y="0" width="1" height="1" fill="#81675D" />
<rect x="5" y="0" width="1" height="1" fill="#A88D75" />
<rect x="6" y="0" width="1" height="1" fill="#C3B99C" />
<rect x="7" y="0" width="1" height="1" fill="#81675D" />
<rect x="8" y="0" width="1" height="1" fill="#81675D" />
<rect x="9" y="0" width="1" height="1" fill="#65514B" />
<rect x="0" y="1" width="1" height="1" fill="#C3B99C" />
<rect x="1" y="1" width="1" height="1" fill="#81675D" />
<rect x="2" y="1" width="1" height="1" fill="#A88D75" />
<rect x="3" y="1" width="1" height="1" fill="#65514B" />
<rect x="4" y="1" width="1" height="1" fill="#A88D75" />
<rect x="5" y="1" width="1" height="1" fill="#81675D" />
<rect x="6" y="1" width="1" height="1" fill="#65514B" />
<rect x="7" y="1" width="1" height="1" fill="#4A3C3A" />
<rect x="0" y="2" width="1" height="1" fill="#65514B" />
<rect x="1" y="2" width="1" height="1" fill="#A88D75" />
<rect x="2" y="2" width="1" height="1" fill="#C3B99C" />
<rect x="3" y="2" width="1" height="1" fill="#A88D75" />
<rect x="4" y="2" width="1" height="1" fill="#81675D" />
<rect x="0" y="3" width="1" height="1" fill="#C3B99C" />
<rect x="1" y="3" width="1" height="1" fill="#65514B" />
<rect x="2" y="3" width="1" height="1" fill="#A88D75" />
<rect x="3" y="3" width="1" height="1" fill="#81675D" />
<rect x="0" y="4" width="1" height="1" fill="#81675D" />
<rect x="1" y="4" width="1" height="1" fill="#A88D75" />
<rect x="2" y="4" width="1" height="1" fill="#81675D" />
<rect x="0" y="5" width="1" height="1" fill="#A88D75" />
<rect x="1" y="5" width="1" height="1" fill="#81675D" />
<rect x="0" y="6" width="1" height="1" fill="#C3B99C" />
<rect x="1" y="6" width="1" height="1" fill="#65514B" />
<rect x="0" y="7" width="1" height="1" fill="#81675D" />
<rect x="1" y="7" width="1" height="1" fill="#4A3C3A" />
<rect x="0" y="8" width="1" height="1" fill="#81675D" />
<rect x="0" y="9" width="1" height="1" fill="#65514B" />
</svg>