<?xml version="1.0" encoding="UTF-8" ?>
<svg version="1.1" width="160" height="16" xmlns="http://www.w3.org/2000/svg" shape-rendering="crispEdges">
<rect x="0" y="7" width="1" height="1" fill="#81675D" opacity="0.011765" />
<rect x="1" y="7" width="1" height="1" fill="#81675D" opacity="0.027451" />
<rect x="2" y="7" width="1" height="1" fill="#81675D" opacity="0.039216" />
<rect x="3" y="7" width="1" height="1" fill="#81675D" opacity="0.054902" />
<rect x="4" y="7" width="1" height="1" fill="#81675D" opacity="0.070588" />
<rect x="5" y="7" width="1" height="1" fill="#81675D" opacity="0.082353" />
<rect x="6" y="7" width="1" height="1" fill="#81675D" opacity="0.098039" />
<rect x="7" y="7" width="1" height="1" fill="#81675D" opacity="0.113725" />
<rect x="8" y="7" width="1" height="1" fill="#81675D" opacity="0.125490" />
<rect x="9" y="7" width="1" height="1" fill="#81675D" opacity="0.141176" />
<rect x="10" y="7" width="1" height="1" fill="#81675D" opacity="0.156863" />
<rect x="11" y="7" width="1" height="1" fill="#81675D" opacity="0.168627" />
<rect x="12" y="7" width="1" height="1" fill="#81675D" opacity="0.184314" />
<rect x="13" y="7" width="1" height="1" fill="#81675D" opacity="0.200000" />
<rect x="14" y="7" width="1" height="1" fill="#81675D" opacity="0.211765" />
<rect x="15" y="7" width="1" height="1" fill="#81675D" opacity="0.227451" />
<rect x="16" y="7" width="1" height="1" fill="#81675D" opacity="0.239216" />
<rect x="17" y="7" width="1" height="1" fill="#81675D" opacity="0.254902" />
<rect x="18" y="7" width="1" height="1" fill="#81675D" opacity="0.270588" />
<rect x="19" y="7" width="1" height="1" fill="#81675D" opacity="0.282353" />
<rect x="20" y="7" width="1" height="1" fill="#81675D" opacity="0.298039" />
<rect x="21" y="7" width="1" height="1" fill="#81675D" opacity="0.313725" />
<rect x="22" y="7" width="1" height="1" fill="#81675D" opacity="0.325490" />
<rect x="23" y="7" width="1" height="1" fill="#81675D" opacity="0.341176" />
<rect x="24" y="7" width="1" height="1" fill="#81675D" opacity="0.356863" />
<rect x="25" y="7" width="1" height="1" fill="#81675D" opacity="0.368627" />
<rect x="26" y="7" width="1" height="1" fill="#81675D" opacity="0.384314" />
<rect x="27" y="7" width="1" height="1" fill="#81675D" opacity="0.400000" />
<rect x="28" y="7" width="1" height="1" fill="#81675D" opacity="0.411765" />
<rect x="29" y="7" width="1" height="1" fill="#81675D" opacity="0.427451" />
<rect x="30" y="7" width="1" height="1" fill="#81675D" opacity="0.439216" />
<rect x="31" y="7" width="1" height="1" fill="#81675D" opacity="0.454902" />
<rect x="32" y="7" width="1" height="1" fill="#81675D" opacity="0.470588" />
<rect x="33" y="7" width="1" height="1" fill="#81675D" opacity="0.482353" />
<rect x="34" y="7" width="1" height="1" fill="#81675D" opacity="0.498039" />
<rect x="35" y="7" width="1" height="1" fill="#81675D" opacity="0.513725" />
<rect x="36" y="7" width="1" height="1" fill="#81675D" opacity="0.525490" />
<rect x="37" y="7" width="1" height="1" fill="#81675D" opacity="0.541176" />
<rect x="38" y="7" width="1" height="1" fill="#81675D" opacity="0.556863" />
<rect x="39" y="7" width="1" height="1" fill="#81675D" opacity="0.568627" />
<rect x="40" y="7" width="1" height="1" fill="#81675D" opacity="0.584314" />
<rect x="41" y="7" width="1" height="1" fill="#81675D" opacity="0.600000" />
<rect x="42" y="7" width="1" height="1" fill="#81675D" opacity="0.611765" />
<rect x="43" y="7" width="1" height="1" fill="#81675D" opacity="0.627451" />
<rect x="44" y="7" width="1" height="1" fill="#81675D" opacity="0.639216" />
<rect x="45" y="7" width="1" height="1" fill="#81675D" opacity="0.654902" />
<rect x="46" y="7" width="1" height="1" fill="#81675D" opacity="0.670588" />
<rect x="47" y="7" width="1" height="1" fill="#81675D" opacity="0.682353" />
<rect x="48" y="7" width="1" height="1" fill="#81675D" opacity="0.698039" />
<rect x="49" y="7" width="1" height="1" fill="#81675D" opacity="0.713725" />
<rect x="50" y="7" width="1" height="1" fill="#81675D" opacity="0.725490" />
<rect x="51" y="7" width="1" height="1" fill="#81675D" opacity="0.741176" />
<rect x="52" y="7" width="1" height="1" fill="#81675D" opacity="0.756863" />
<rect x="53" y="7" width="1" height="1" fill="#81675D" opacity="0.768627" />
<rect x="54" y="7" width="1" height="1" fill="#81675D" opacity="0.784314" />
<rect x="55" y="7" width="1" height="1" fill="#81675D" opacity="0.800000" />
<rect x="56" y="7" width="1" height="1" fill="#81675D" opacity="0.811765" />
<rect x="57" y="7" width="1" height="1" fill="#81675D" opacity="0.827451" />
<rect x="58" y="7" width="1" height="1" fill="#81675D" opacity="0.839216" />
<rect x="59" y="7" width="1" height="1" fill="#81675D" opacity="0.854902" />
<rect x="60" y="7" width="1" height="1" fill="#81675D" opacity="0.870588" />
<rect x="61" y="7" width="1" height="1" fill="#81675D" opacity="0.882353" />
<rect x="62" y="7" width="1" height="1" fill="#81675D" opacity="0.898039" />
<rect x="63" y="7" width="1" height="1" fill="#81675D" opacity="0.913725" />
<rect x="64" y="7" width="1" height="1" fill="#81675D" opacity="0.925490" />
<rect x="65" y="7" width="1" height="1" fill="#81675D" opacity="0.941176" />
<rect x="66" y="7" width="1" height="1" fill="#65514B" />
<rect x="67" y="7" width="1" height="1" fill="#4A3C3A" />
<rect x="68" y="7" width="1" height="1" fill="#A88D75" />
<rect x="69" y="7" width="1" height="1" fill="#81675D" />
<rect x="70" y="7" width="1" height="1" fill="#A88D75" />
<rect x="71" y="7" width="1" height="1" fill="#4A3C3A" />
<rect x="72" y="7" width="1" height="1" fill="#A88D75" />
<rect x="73" y="7" width="1" height="1" fill="#81675D" />
<rect x="74" y="7" width="1" height="1" fill="#81675D" />
<rect x="75" y="7" width="1" height="1" fill="#A88D75" />
<rect x="76" y="7" width="1" height="1" fill="#4A3C3A" />
<rect x="77" y="7" width="1" height="1" fill="#A88D75" />
<rect x="78" y="7" width="1" height="1" fill="#81675D" />
<rect x="79" y="7" width="1" height="1" fill="#A88D75" />
<rect x="80" y="7" width="1" height="1" fill="#81675D" />
<rect x="81" y="7" width="1" height="1" fill="#A88D75" />
<rect x="82" y="7" width="1" height="1" fill="#81675D" />
<rect x="83" y="7" width="1" height="1" fill="#A88D75" />
<rect x="84" y="7" width="1" height="1" fill="#4A3C3A" />
<rect x="85" y="7" width="1" height="1" fill="#A88D75" />
<rect x="86" y="7" width="1" height="1" fill="#81675D" />
<rect x="87" y="7" width="1" height="1" fill="#81675D" />
<rect x="88" y="7" width="1" height="1" fill="#A88D75" />
<rect x="89" y="7" width="1" height="1" fill="#4A3C3A" />
<rect x="90" y="7" width="1" height="1" fill="#A88D75" />
<rect x="91" y="7" width="1" height="1" fill="#81675D" />
<rect x="92" y="7" width="1" height="1" fill="#A88D75" />
<rect x="93" y="7" width="1" height="1" fill="#4A3C3A" />
<rect x="94" y="7" width="1" height="1" fill="#65514B" />
<rect x="95" y="7" width="1" height="1" fill="#81675D" opacity="0.925490" />
<rect x="96" y="7" width="1" height="1" fill="#81675D" opacity="0.913725" />
<rect x="97" y="7" width="1" height="1" fill="#81675D" opacity="0.898039" />
<rect x="98" y="7" width="1" height="1" fill="#81675D" opacity="0.882353" />
<rect x="99" y="7" width="1" height="1" fill="#81675D" opacity="0.870588" />
<rect x="100" y="7" width="1" height="1" fill="#81675D" opacity="0.854902" />
<rect x="101" y="7" width="1" height="1" fill="#81675D" opacity="0.839216" />
<rect x="102" y="7" width="1" height="1" fill="#81675D" opacity="0.827451" />
<rect x="103" y="7" width="1" height="1" fill="#81675D" opacity="0.811765" />
<rect x="104" y="7" width="1" height="1" fill="#81675D" opacity="0.800000" />
<rect x="105" y="7" width="1" height="1" fill="#81675D" opacity="0.784314" />
<rect x="106" y="7" width="1" height="1" fill="#81675D" opacity="0.768627" />
<rect x="107" y="7" width="1" height="1" fill="#81675D" opacity="0.756863" />
<rect x="108" y="7" width="1" height="1" fill="#81675D" opacity="0.741176" />
<rect x="109" y="7" width="1" height="1" fill="#81675D" opacity="0.725490" />
<rect x="110" y="7" width="1" height="1" fill="#81675D" opacity="0.713725" />
<rect x="111" y="7" width="1" height="1" fill="#81675D" opacity="0.698039" />
<rect x="112" y="7" width="1" height="1" fill="#81675D" opacity="0.682353" />
<rect x="113" y="7" width="1" height="1" fill="#81675D" opacity="0.670588" />
<rect x="114" y="7" width="1" height="1" fill="#81675D" opacity="0.654902" />
<rect x="115" y="7" width="1" height="1" fill="#81675D" opacity="0.639216" />
<rect x="116" y="7" width="1" height="1" fill="#81675D" opacity="0.627451" />
<rect x="117" y="7" width="1" height="1" fill="#81675D" opacity="0.611765" />
<rect x="118" y="7" width="1" height="1" fill="#81675D" opacity="0.600000" />
<rect x="119" y="7" width="1" height="1" fill="#81675D" opacity="0.584314" />
<rect x="120" y="7" width="1" height="1" fill="#81675D" opacity="0.568627" />
<rect x="121" y="7" width="1" height="1" fill="#81675D" opacity="0.556863" />
<rect x="122" y="7" width="1" height="1" fill="#81675D" opacity="0.541176" />
<rect x="123" y="7" width="1" height="1" fill="#81675D" opacity="0.525490" />
<rect x="124" y="7" width="1" height="1" fill="#81675D" opacity="0.513725" />
<rect x="125" y="7" width="1" height="1" fill="#81675D" opacity="0.498039" />
<rect x="126" y="7" width="1" height="1" fill="#81675D" opacity="0.482353" />
<rect x="127" y="7" width="1" height="1" fill="#81675D" opacity="0.470588" />
<rect x="128" y="7" width="1" height="1" fill="#81675D" opacity="0.454902" />
<rect x="129" y="7" width="1" height="1" fill="#81675D" opacity="0.439216" />
<rect x="130" y="7" width="1" height="1" fill="#81675D" opacity="0.427451" />
<rect x="131" y="7" width="1" height="1" fill="#81675D" opacity="0.411765" />
<rect x="132" y="7" width="1" height="1" fill="#81675D" opacity="0.400000" />
<rect x="133" y="7" width="1" height="1" fill="#81675D" opacity="0.384314" />
<rect x="134" y="7" width="1" height="1" fill="#81675D" opacity="0.368627" />
<rect x="135" y="7" width="1" height="1" fill="#81675D" opacity="0.356863" />
<rect x="136" y="7" width="1" height="1" fill="#81675D" opacity="0.341176" />
<rect x="137" y="7" width="1" height="1" fill="#81675D" opacity="0.325490" />
<rect x="138" y="7" width="1" height="1" fill="#81675D" opacity="0.313725" />
<rect x="139" y="7" width="1" height="1" fill="#81675D" opacity="0.298039" />
<rect x="140" y="7" width="1" height="1" fill="#81675D" opacity="0.282353" />
<rect x="141" y="7" width="1" height="1" fill="#81675D" opacity="0.270588" />
<rect x="142" y="7" width="1" height="1" fill="#81675D" opacity="0.254902" />
<rect x="143" y="7" width="1" height="1" fill="#81675D" opacity="0.239216" />
<rect x="144" y="7" width="1" height="1" fill="#81675D" opacity="0.227451" />
<rect x="145" y="7" width="1" height="1" fill="#81675D" opacity="0.211765" />
<rect x="146" y="7" width="1" height="1" fill="#81675D" opacity="0.200000" />
<rect x="147" y="7" width="1" height="1" fill="#81675D" opacity="0.184314" />
<rect x="148" y="7" width="1" height="1" fill="#81675D" opacity="0.168627" />
<rect x="149" y="7" width="1" height="1" fill="#81675D" opacity="0.156863" />
<rect x="150" y="7" width="1" height="1" fill="#81675D" opacity="0.141176" />
<rect x="151" y="7" width="1" height="1" fill="#81675D" opacity="0.125490" />
<rect x="152" y="7" width="1" height="1" fill="#81675D" opacity="0.113725" />
<rect x="153" y="7" width="1" height="1" fill="#81675D" opacity="0.098039" />
<rect x="154" y="7" width="1" height="1" fill="#81675D" opacity="0.082353" />
<rect x="155" y="7" width="1" height="1" fill="#81675D" opacity="0.070588" />
<rect x="156" y="7" width="1" height="1" fill="#81675D" opacity="0.054902" />
<rect x="157" y="7" width="1" height="1" fill="#81675D" opacity="0.039216" />
<rect x="158" y="7" width="1" height="1" fill="#81675D" opacity="0.027451" />
<rect x="159" y="7" width="1" height="1" fill="#81675D" opacity="0.011765" />
<rect x="67" y="8" width="1" height="1" fill="#65514B" />
<rect x="68" y="8" width="1" height="1" fill="#81675D" />
<rect x="69" y="8" width="1" height="1" fill="#65514B" />
<rect x="70" y="8" width="1" height="1" fill="#81675D" />
<rect x="71" y="8" width="1" height="1" fill="#A88D75" />
<rect x="72" y="8" width="1" height="1" fill="#A88D75" />
<rect x="73" y="8" width="1" height="1" fill="#65514B" />
<rect x="74" y="8" width="1" height="1" fill="#65514B" />
<rect x="75" y="8" width="1" height="1" fill="#A88D75" />
<rect x="76" y="8" width="1" height="1" fill="#A88D75" />
<rect x="77" y="8" width="1" height="1" fill="#81675D" />
<rect x="79" y="8" width="1" height="1" fill="#65514B" />
<rect x="80" y="8" width="1" height="1" fill="#65514B" />
<rect x="81" y="8" width="1" height="1" fill="#81675D" />
<rect x="83" y="8" width="1" height="1" fill="#81675D" />
<rect x="84" y="8" width="1" height="1" fill="#A88D75" />
<rect x="85" y="8" width="1" height="1" fill="#A88D75" />
<rect x="86" y="8" width="1" height="1" fill="#65514B" />
<rect x="87" y="8" width="1" height="1" fill="#65514B" />
<rect x="88" y="8" width="1" height="1" fill="#A88D75" />
<rect x="89" y="8" width="1" height="1" fill="#A88D75" />
<rect x="90" y="8" width="1" height="1" fill="#81675D" />
<rect x="91" y="8" width="1" height="1" fill="#65514B" />
<rect x="92" y="8" width="1" height="1" fill="#81675D" />
<rect x="93" y="8" width="1" height="1" fill="#65514B" />
<rect x="70" y="9" width="1" height="1" fill="#4A3C3A" />
<rect x="71" y="9" width="1" height="1" fill="#81675D" />
<rect x="72" y="9" width="1" height="1" fill="#65514B" />
<rect x="73" y="9" width="1" height="1" fill="#A88D75" />
<rect x="74" y="9" width="1" height="1" fill="#A88D75" />
<rect x="75" y="9" width="1" height="1" fill="#65514B" />
<rect x="76" y="9" width="1" height="1" fill="#81675D" />
<rect x="77" y="9" width="1" height="1" fill="#4A3C3A" />
<rect x="83" y="9" width="1" height="1" fill="#4A3C3A" />
<rect x="84" y="9" width="1" height="1" fill="#81675D" />
<rect x="85" y="9" width="1" height="1" fill="#65514B" />
<rect x="86" y="9" width="1" height="1" fill="#A88D75" />
<rect x="87" y="9" width="1" height="1" fill="#A88D75" />
<rect x="88" y="9" width="1" height="1" fill="#65514B" />
<rect x="89" y="9" width="1" height="1" fill="#81675D" />
<rect x="90" y="9" width="1" height="1" fill="#4A3C3A" />
<rect x="73" y="10" width="1" height="1" fill="#81675D" />
<rect x="74" y="10" width="1" height="1" fill="#81675D" />
<rect x="86" y="10" width="1" height="1" fill="#81675D" />
<rect x="87" y="10" width="1" height="1" fill="#81675D" />
</svg>