<?xml version="1.0" encoding="UTF-8" ?>
<svg version="1.1" width="96" height="96" xmlns="http://www.w3.org/2000/svg" shape-rendering="crispEdges">
<rect x="94" y="40" width="1" height="1" fill="#961A1A" />
<rect x="95" y="40" width="1" height="1" fill="#961A1A" />
<rect x="94" y="41" width="1" height="1" fill="#961A1A" />
<rect x="95" y="41" width="1" height="1" fill="#961A1A" />
<rect x="94" y="42" width="1" height="1" fill="#961A1A" />
<rect x="95" y="42" width="1" height="1" fill="#961A1A" />
<rect x="89" y="43" width="1" height="1" fill="#961A1A" />
<rect x="90" y="43" width="1" height="1" fill="#961A1A" />
<rect x="91" y="43" width="1" height="1" fill="#DD3333" />
<rect x="92" y="43" width="1" height="1" fill="#DD3333" />
<rect x="93" y="43" width="1" height="1" fill="#DD3333" />
<rect x="94" y="43" width="1" height="1" fill="#DD3333" />
<rect x="95" y="43" width="1" height="1" fill="#DD3333" />
<rect x="89" y="44" width="1" height="1" fill="#961A1A" />
<rect x="90" y="44" width="1" height="1" fill="#961A1A" />
<rect x="91" y="44" width="1" height="1" fill="#DD3333" />
<rect x="92" y="44" width="1" height="1" fill="#DD3333" />
<rect x="93" y="44" width="1" height="1" fill="#DD3333" />
<rect x="94" y="44" width="1" height="1" fill="#DD3333" />
<rect x="95" y="44" width="1" height="1" fill="#DD3333" />
<rect x="86" y="45" width="1" height="1" fill="#961A1A" />
<rect x="87" y="45" width="1" height="1" fill="#961A1A" />
<rect x="88" y="45" width="1" height="1" fill="#961A1A" />
<rect x="89" y="45" width="1" height="1" fill="#DD3333" />
<rect x="90" y="45" width="1" height="1" fill="#DD3333" />
<rect x="91" y="45" width="1" height="1" fill="#000000" />
<rect x="92" y="45" width="1" height="1" fill="#000000" />
<rect x="93" y="45" width="1" height="1" fill="#000000" />
<rect x="94" y="45" width="1" height="1" fill="#000000" />
<rect x="95" y="45" width="1" height="1" fill="#000000" />
<rect x="86" y="46" width="1" height="1" fill="#961A1A" />
<rect x="87" y="46" width="1" height="1" fill="#961A1A" />
<rect x="88" y="46" width="1" height="1" fill="#961A1A" />
<rect x="89" y="46" width="1" height="1" fill="#DD3333" />
<rect x="90" y="46" width="1" height="1" fill="#DD3333" />
<rect x="91" y="46" width="1" height="1" fill="#000000" />
<rect x="92" y="46" width="1" height="1" fill="#000000" />
<rect x="93" y="46" width="1" height="1" fill="#000000" />
<rect x="94" y="46" width="1" height="1" fill="#000000" />
<rect x="95" y="46" width="1" height="1" fill="#000000" />
<rect x="86" y="47" width="1" height="1" fill="#961A1A" />
<rect x="87" y="47" width="1" height="1" fill="#961A1A" />
<rect x="88" y="47" width="1" height="1" fill="#961A1A" />
<rect x="89" y="47" width="1" height="1" fill="#DD3333" />
<rect x="90" y="47" width="1" height="1" fill="#DD3333" />
<rect x="91" y="47" width="1" height="1" fill="#000000" />
<rect x="92" y="47" width="1" height="1" fill="#000000" />
<rect x="93" y="47" width="1" height="1" fill="#000000" />
<rect x="94" y="47" width="1" height="1" fill="#000000" />
<rect x="95" y="47" width="1" height="1" fill="#000000" />
<rect x="84" y="48" width="1" height="1" fill="#961A1A" />
<rect x="85" y="48" width="1" height="1" fill="#961A1A" />
<rect x="86" y="48" width="1" height="1" fill="#DD3333" />
<rect x="87" y="48" width="1" height="1" fill="#DD3333" />
<rect x="88" y="48" width="1" height="1" fill="#DD3333" />
<rect x="89" y="48" width="1" height="1" fill="#000000" />
<rect x="90" y="48" width="1" height="1" fill="#000000" />
<rect x="84" y="49" width="1" height="1" fill="#961A1A" />
<rect x="85" y="49" width="1" height="1" fill="#961A1A" />
<rect x="86" y="49" width="1" height="1" fill="#DD3333" />
<rect x="87" y="49" width="1" height="1" fill="#DD3333" />
<rect x="88" y="49" width="1" height="1" fill="#DD3333" />
<rect x="89" y="49" width="1" height="1" fill="#000000" />
<rect x="90" y="49" width="1" height="1" fill="#000000" />
<rect x="82" y="50" width="1" height="1" fill="#961A1A" />
<rect x="83" y="50" width="1" height="1" fill="#961A1A" />
<rect x="84" y="50" width="1" height="1" fill="#DD3333" />
<rect x="85" y="50" width="1" height="1" fill="#DD3333" />
<rect x="86" y="50" width="1" height="1" fill="#DD3333" />
<rect x="87" y="50" width="1" height="1" fill="#DD3333" />
<rect x="88" y="50" width="1" height="1" fill="#DD3333" />
<rect x="82" y="51" width="1" height="1" fill="#961A1A" />
<rect x="83" y="51" width="1" height="1" fill="#961A1A" />
<rect x="84" y="51" width="1" height="1" fill="#DD3333" />
<rect x="85" y="51" width="1" height="1" fill="#DD3333" />
<rect x="86" y="51" width="1" height="1" fill="#DD3333" />
<rect x="87" y="51" width="1" height="1" fill="#DD3333" />
<rect x="88" y="51" width="1" height="1" fill="#DD3333" />
<rect x="82" y="52" width="1" height="1" fill="#961A1A" />
<rect x="83" y="52" width="1" height="1" fill="#961A1A" />
<rect x="84" y="52" width="1" height="1" fill="#DD3333" />
<rect x="85" y="52" width="1" height="1" fill="#DD3333" />
<rect x="86" y="52" width="1" height="1" fill="#DD3333" />
<rect x="87" y="52" width="1" height="1" fill="#DD3333" />
<rect x="88" y="52" width="1" height="1" fill="#DD3333" />
<rect x="82" y="53" width="1" height="1" fill="#961A1A" />
<rect x="83" y="53" width="1" height="1" fill="#961A1A" />
<rect x="84" y="53" width="1" height="1" fill="#DD3333" />
<rect x="85" y="53" width="1" height="1" fill="#DD3333" />
<rect x="86" y="53" width="1" height="1" fill="#DD3333" />
<rect x="82" y="54" width="1" height="1" fill="#961A1A" />
<rect x="83" y="54" width="1" height="1" fill="#961A1A" />
<rect x="84" y="54" width="1" height="1" fill="#DD3333" />
<rect x="85" y="54" width="1" height="1" fill="#DD3333" />
<rect x="86" y="54" width="1" height="1" fill="#DD3333" />
<rect x="82" y="55" width="1" height="1" fill="#961A1A" />
<rect x="83" y="55" width="1" height="1" fill="#961A1A" />
<rect x="84" y="55" width="1" height="1" fill="#DD3333" />
<rect x="85" y="55" width="1" height="1" fill="#DD3333" />
<rect x="86" y="55" width="1" height="1" fill="#DD3333" />
<rect x="87" y="55" width="1" height="1" fill="#DD3333" />
<rect x="88" y="55" width="1" height="1" fill="#DD3333" />
<rect x="82" y="56" width="1" height="1" fill="#961A1A" />
<rect x="83" y="56" width="1" height="1" fill="#961A1A" />
<rect x="84" y="56" width="1" height="1" fill="#DD3333" />
<rect x="85" y="56" width="1" height="1" fill="#DD3333" />
<rect x="86" y="56" width="1" height="1" fill="#DD3333" />
<rect x="87" y="56" width="1" height="1" fill="#DD3333" />
<rect x="88" y="56" width="1" height="1" fill="#DD3333" />
<rect x="82" y="57" width="1" height="1" fill="#961A1A" />
<rect x="83" y="57" width="1" height="1" fill="#961A1A" />
<rect x="84" y="57" width="1" height="1" fill="#DD3333" />
<rect x="85" y="57" width="1" height="1" fill="#DD3333" />
<rect x="86" y="57" width="1" height="1" fill="#DD3333" />
<rect x="87" y="57" width="1" height="1" fill="#DD3333" />
<rect x="88" y="57" width="1" height="1" fill="#DD3333" />
<rect x="84" y="58" width="1" height="1" fill="#961A1A" />
<rect x="85" y="58" width="1" height="1" fill="#961A1A" />
<rect x="86" y="58" width="1" height="1" fill="#DD3333" />
<rect x="87" y="58" width="1" height="1" fill="#DD3333" />
<rect x="88" y="58" width="1" height="1" fill="#DD3333" />
<rect x="89" y="58" width="1" height="1" fill="#000000" />
<rect x="90" y="58" width="1" height="1" fill="#000000" />
<rect x="84" y="59" width="1" height="1" fill="#961A1A" />
<rect x="85" y="59" width="1" height="1" fill="#961A1A" />
<rect x="86" y="59" width="1" height="1" fill="#DD3333" />
<rect x="87" y="59" width="1" height="1" fill="#DD3333" />
<rect x="88" y="59" width="1" height="1" fill="#DD3333" />
<rect x="89" y="59" width="1" height="1" fill="#000000" />
<rect x="90" y="59" width="1" height="1" fill="#000000" />
<rect x="86" y="60" width="1" height="1" fill="#961A1A" />
<rect x="87" y="60" width="1" height="1" fill="#961A1A" />
<rect x="88" y="60" width="1" height="1" fill="#961A1A" />
<rect x="89" y="60" width="1" height="1" fill="#DD3333" />
<rect x="90" y="60" width="1" height="1" fill="#DD3333" />
<rect x="91" y="60" width="1" height="1" fill="#000000" />
<rect x="92" y="60" width="1" height="1" fill="#000000" />
<rect x="93" y="60" width="1" height="1" fill="#000000" />
<rect x="94" y="60" width="1" height="1" fill="#000000" />
<rect x="95" y="60" width="1" height="1" fill="#000000" />
<rect x="86" y="61" width="1" height="1" fill="#961A1A" />
<rect x="87" y="61" width="1" height="1" fill="#961A1A" />
<rect x="88" y="61" width="1" height="1" fill="#961A1A" />
<rect x="89" y="61" width="1" height="1" fill="#DD3333" />
<rect x="90" y="61" width="1" height="1" fill="#DD3333" />
<rect x="91" y="61" width="1" height="1" fill="#000000" />
<rect x="92" y="61" width="1" height="1" fill="#000000" />
<rect x="93" y="61" width="1" height="1" fill="#000000" />
<rect x="94" y="61" width="1" height="1" fill="#000000" />
<rect x="95" y="61" width="1" height="1" fill="#000000" />
<rect x="86" y="62" width="1" height="1" fill="#961A1A" />
<rect x="87" y="62" width="1" height="1" fill="#961A1A" />
<rect x="88" y="62" width="1" height="1" fill="#961A1A" />
<rect x="89" y="62" width="1" height="1" fill="#DD3333" />
<rect x="90" y="62" width="1" height="1" fill="#DD3333" />
<rect x="91" y="62" width="1" height="1" fill="#000000" />
<rect x="92" y="62" width="1" height="1" fill="#000000" />
<rect x="93" y="62" width="1" height="1" fill="#000000" />
<rect x="94" y="62" width="1" height="1" fill="#000000" />
<rect x="95" y="62" width="1" height="1" fill="#000000" />
<rect x="89" y="63" width="1" height="1" fill="#961A1A" />
<rect x="90" y="63" width="1" height="1" fill="#961A1A" />
<rect x="91" y="63" width="1" height="1" fill="#DD3333" />
<rect x="92" y="63" width="1" height="1" fill="#DD3333" />
<rect x="93" y="63" width="1" height="1" fill="#DD3333" />
<rect x="94" y="63" width="1" height="1" fill="#DD3333" />
<rect x="95" y="63" width="1" height="1" fill="#DD3333" />
<rect x="89" y="64" width="1" height="1" fill="#961A1A" />
<rect x="90" y="64" width="1" height="1" fill="#961A1A" />
<rect x="91" y="64" width="1" height="1" fill="#DD3333" />
<rect x="92" y="64" width="1" height="1" fill="#DD3333" />
<rect x="93" y="64" width="1" height="1" fill="#DD3333" />
<rect x="94" y="64" width="1" height="1" fill="#DD3333" />
<rect x="95" y="64" width="1" height="1" fill="#DD3333" />
<rect x="94" y="65" width="1" height="1" fill="#961A1A" />
<rect x="95" y="65" width="1" height="1" fill="#961A1A" />
<rect x="94" y="66" width="1" height="1" fill="#961A1A" />
<rect x="95" y="66" width="1" height="1" fill="#961A1A" />
<rect x="94" y="67" width="1" height="1" fill="#961A1A" />
<rect x="95" y="67" width="1" height="1" fill="#961A1A" />
</svg>