<?xml version="1.0" encoding="UTF-8" ?>
<svg version="1.1" width="96" height="96" xmlns="http://www.w3.org/2000/svg" shape-rendering="crispEdges">
<rect x="19" y="39" width="1" height="1" fill="#000000" />
<rect x="20" y="39" width="1" height="1" fill="#000000" />
<rect x="21" y="39" width="1" height="1" fill="#000000" />
<rect x="22" y="39" width="1" height="1" fill="#000000" />
<rect x="23" y="39" width="1" height="1" fill="#000000" />
<rect x="24" y="39" width="1" height="1" fill="#000000" />
<rect x="71" y="39" width="1" height="1" fill="#000000" />
<rect x="72" y="39" width="1" height="1" fill="#000000" />
<rect x="73" y="39" width="1" height="1" fill="#000000" />
<rect x="19" y="40" width="1" height="1" fill="#000000" />
<rect x="20" y="40" width="1" height="1" fill="#292828" />
<rect x="21" y="40" width="1" height="1" fill="#292828" />
<rect x="22" y="40" width="1" height="1" fill="#292828" />
<rect x="24" y="40" width="1" height="1" fill="#000000" />
<rect x="25" y="40" width="1" height="1" fill="#000000" />
<rect x="70" y="40" width="1" height="1" fill="#000000" />
<rect x="71" y="40" width="1" height="1" fill="#000000" />
<rect x="72" y="40" width="1" height="1" fill="#292828" />
<rect x="73" y="40" width="1" height="1" fill="#292828" />
<rect x="74" y="40" width="1" height="1" fill="#292828" />
<rect x="14" y="41" width="1" height="1" fill="#000000" />
<rect x="15" y="41" width="1" height="1" fill="#000000" />
<rect x="16" y="41" width="1" height="1" fill="#000000" />
<rect x="17" y="41" width="1" height="1" fill="#000000" />
<rect x="18" y="41" width="1" height="1" fill="#000000" />
<rect x="19" y="41" width="1" height="1" fill="#000000" />
<rect x="20" y="41" width="1" height="1" fill="#292828" />
<rect x="21" y="41" width="1" height="1" fill="#292828" />
<rect x="22" y="41" width="1" height="1" fill="#292828" />
<rect x="23" y="41" width="1" height="1" fill="#292828" />
<rect x="24" y="41" width="1" height="1" fill="#292828" />
<rect x="25" y="41" width="1" height="1" fill="#000000" />
<rect x="26" y="41" width="1" height="1" fill="#292828" />
<rect x="41" y="41" width="1" height="1" fill="#000000" />
<rect x="42" y="41" width="1" height="1" fill="#000000" />
<rect x="43" y="41" width="1" height="1" fill="#000000" />
<rect x="69" y="41" width="1" height="1" fill="#000000" />
<rect x="70" y="41" width="1" height="1" fill="#000000" />
<rect x="71" y="41" width="1" height="1" fill="#292828" />
<rect x="72" y="41" width="1" height="1" fill="#292828" />
<rect x="73" y="41" width="1" height="1" fill="#292828" />
<rect x="74" y="41" width="1" height="1" fill="#292828" />
<rect x="75" y="41" width="1" height="1" fill="#292828" />
<rect x="76" y="41" width="1" height="1" fill="#292828" />
<rect x="78" y="41" width="1" height="1" fill="#000000" />
<rect x="84" y="41" width="1" height="1" fill="#000000" />
<rect x="85" y="41" width="1" height="1" fill="#000000" />
<rect x="86" y="41" width="1" height="1" fill="#000000" />
<rect x="87" y="41" width="1" height="1" fill="#000000" />
<rect x="88" y="41" width="1" height="1" fill="#000000" />
<rect x="89" y="41" width="1" height="1" fill="#000000" />
<rect x="5" y="42" width="1" height="1" fill="#000000" />
<rect x="6" y="42" width="1" height="1" fill="#000000" />
<rect x="7" y="42" width="1" height="1" fill="#292828" />
<rect x="8" y="42" width="1" height="1" fill="#292828" />
<rect x="9" y="42" width="1" height="1" fill="#292828" />
<rect x="10" y="42" width="1" height="1" fill="#292828" />
<rect x="11" y="42" width="1" height="1" fill="#292828" />
<rect x="12" y="42" width="1" height="1" fill="#000000" />
<rect x="13" y="42" width="1" height="1" fill="#000000" />
<rect x="16" y="42" width="1" height="1" fill="#000000" />
<rect x="17" y="42" width="1" height="1" fill="#000000" />
<rect x="18" y="42" width="1" height="1" fill="#000000" />
<rect x="19" y="42" width="1" height="1" fill="#292828" />
<rect x="21" y="42" width="1" height="1" fill="#292828" />
<rect x="22" y="42" width="1" height="1" fill="#292828" />
<rect x="23" y="42" width="1" height="1" fill="#292828" />
<rect x="24" y="42" width="1" height="1" fill="#000000" />
<rect x="25" y="42" width="1" height="1" fill="#000000" />
<rect x="26" y="42" width="1" height="1" fill="#000000" />
<rect x="27" y="42" width="1" height="1" fill="#000000" />
<rect x="28" y="42" width="1" height="1" fill="#000000" />
<rect x="29" y="42" width="1" height="1" fill="#000000" />
<rect x="30" y="42" width="1" height="1" fill="#000000" />
<rect x="33" y="42" width="1" height="1" fill="#000000" />
<rect x="34" y="42" width="1" height="1" fill="#000000" />
<rect x="35" y="42" width="1" height="1" fill="#000000" />
<rect x="40" y="42" width="1" height="1" fill="#000000" />
<rect x="41" y="42" width="1" height="1" fill="#292828" />
<rect x="42" y="42" width="1" height="1" fill="#292828" />
<rect x="43" y="42" width="1" height="1" fill="#000000" />
<rect x="44" y="42" width="1" height="1" fill="#000000" />
<rect x="60" y="42" width="1" height="1" fill="#000000" />
<rect x="61" y="42" width="1" height="1" fill="#000000" />
<rect x="62" y="42" width="1" height="1" fill="#000000" />
<rect x="65" y="42" width="1" height="1" fill="#000000" />
<rect x="66" y="42" width="1" height="1" fill="#000000" />
<rect x="67" y="42" width="1" height="1" fill="#000000" />
<rect x="68" y="42" width="1" height="1" fill="#000000" />
<rect x="69" y="42" width="1" height="1" fill="#000000" />
<rect x="70" y="42" width="1" height="1" fill="#000000" />
<rect x="71" y="42" width="1" height="1" fill="#000000" />
<rect x="72" y="42" width="1" height="1" fill="#292828" />
<rect x="73" y="42" width="1" height="1" fill="#292828" />
<rect x="74" y="42" width="1" height="1" fill="#292828" />
<rect x="76" y="42" width="1" height="1" fill="#292828" />
<rect x="77" y="42" width="1" height="1" fill="#000000" />
<rect x="78" y="42" width="1" height="1" fill="#000000" />
<rect x="79" y="42" width="1" height="1" fill="#000000" />
<rect x="82" y="42" width="1" height="1" fill="#000000" />
<rect x="83" y="42" width="1" height="1" fill="#000000" />
<rect x="84" y="42" width="1" height="1" fill="#292828" />
<rect x="85" y="42" width="1" height="1" fill="#292828" />
<rect x="86" y="42" width="1" height="1" fill="#292828" />
<rect x="87" y="42" width="1" height="1" fill="#292828" />
<rect x="88" y="42" width="1" height="1" fill="#292828" />
<rect x="89" y="42" width="1" height="1" fill="#000000" />
<rect x="90" y="42" width="1" height="1" fill="#000000" />
<rect x="4" y="43" width="1" height="1" fill="#000000" />
<rect x="5" y="43" width="1" height="1" fill="#000000" />
<rect x="6" y="43" width="1" height="1" fill="#292828" />
<rect x="7" y="43" width="1" height="1" fill="#292828" />
<rect x="10" y="43" width="1" height="1" fill="#1A1919" />
<rect x="11" y="43" width="1" height="1" fill="#292828" />
<rect x="12" y="43" width="1" height="1" fill="#292828" />
<rect x="13" y="43" width="1" height="1" fill="#000000" />
<rect x="14" y="43" width="1" height="1" fill="#000000" />
<rect x="15" y="43" width="1" height="1" fill="#000000" />
<rect x="16" y="43" width="1" height="1" fill="#000000" />
<rect x="17" y="43" width="1" height="1" fill="#292828" />
<rect x="18" y="43" width="1" height="1" fill="#000000" />
<rect x="19" y="43" width="1" height="1" fill="#000000" />
<rect x="20" y="43" width="1" height="1" fill="#000000" />
<rect x="21" y="43" width="1" height="1" fill="#292828" />
<rect x="22" y="43" width="1" height="1" fill="#292828" />
<rect x="23" y="43" width="1" height="1" fill="#000000" />
<rect x="24" y="43" width="1" height="1" fill="#000000" />
<rect x="25" y="43" width="1" height="1" fill="#292828" />
<rect x="26" y="43" width="1" height="1" fill="#292828" />
<rect x="27" y="43" width="1" height="1" fill="#292828" />
<rect x="28" y="43" width="1" height="1" fill="#292828" />
<rect x="29" y="43" width="1" height="1" fill="#292828" />
<rect x="30" y="43" width="1" height="1" fill="#000000" />
<rect x="31" y="43" width="1" height="1" fill="#000000" />
<rect x="32" y="43" width="1" height="1" fill="#000000" />
<rect x="33" y="43" width="1" height="1" fill="#292828" />
<rect x="34" y="43" width="1" height="1" fill="#292828" />
<rect x="35" y="43" width="1" height="1" fill="#292828" />
<rect x="36" y="43" width="1" height="1" fill="#000000" />
<rect x="37" y="43" width="1" height="1" fill="#000000" />
<rect x="39" y="43" width="1" height="1" fill="#000000" />
<rect x="40" y="43" width="1" height="1" fill="#292828" />
<rect x="41" y="43" width="1" height="1" fill="#292828" />
<rect x="42" y="43" width="1" height="1" fill="#292828" />
<rect x="44" y="43" width="1" height="1" fill="#000000" />
<rect x="53" y="43" width="1" height="1" fill="#292828" />
<rect x="54" y="43" width="1" height="1" fill="#292828" />
<rect x="55" y="43" width="1" height="1" fill="#292828" />
<rect x="58" y="43" width="1" height="1" fill="#000000" />
<rect x="59" y="43" width="1" height="1" fill="#000000" />
<rect x="60" y="43" width="1" height="1" fill="#292828" />
<rect x="61" y="43" width="1" height="1" fill="#292828" />
<rect x="62" y="43" width="1" height="1" fill="#292828" />
<rect x="63" y="43" width="1" height="1" fill="#000000" />
<rect x="64" y="43" width="1" height="1" fill="#000000" />
<rect x="65" y="43" width="1" height="1" fill="#000000" />
<rect x="66" y="43" width="1" height="1" fill="#292828" />
<rect x="67" y="43" width="1" height="1" fill="#292828" />
<rect x="68" y="43" width="1" height="1" fill="#292828" />
<rect x="69" y="43" width="1" height="1" fill="#292828" />
<rect x="70" y="43" width="1" height="1" fill="#292828" />
<rect x="71" y="43" width="1" height="1" fill="#000000" />
<rect x="72" y="43" width="1" height="1" fill="#000000" />
<rect x="73" y="43" width="1" height="1" fill="#292828" />
<rect x="74" y="43" width="1" height="1" fill="#292828" />
<rect x="75" y="43" width="1" height="1" fill="#000000" />
<rect x="76" y="43" width="1" height="1" fill="#000000" />
<rect x="77" y="43" width="1" height="1" fill="#000000" />
<rect x="78" y="43" width="1" height="1" fill="#292828" />
<rect x="79" y="43" width="1" height="1" fill="#000000" />
<rect x="80" y="43" width="1" height="1" fill="#000000" />
<rect x="81" y="43" width="1" height="1" fill="#000000" />
<rect x="82" y="43" width="1" height="1" fill="#000000" />
<rect x="83" y="43" width="1" height="1" fill="#292828" />
<rect x="84" y="43" width="1" height="1" fill="#292828" />
<rect x="85" y="43" width="1" height="1" fill="#1A1919" />
<rect x="88" y="43" width="1" height="1" fill="#292828" />
<rect x="89" y="43" width="1" height="1" fill="#292828" />
<rect x="90" y="43" width="1" height="1" fill="#000000" />
<rect x="91" y="43" width="1" height="1" fill="#000000" />
<rect x="3" y="44" width="1" height="1" fill="#000000" />
<rect x="4" y="44" width="1" height="1" fill="#000000" />
<rect x="5" y="44" width="1" height="1" fill="#292828" />
<rect x="6" y="44" width="1" height="1" fill="#292828" />
<rect x="7" y="44" width="1" height="1" fill="#292828" />
<rect x="8" y="44" width="1" height="1" fill="#292828" />
<rect x="9" y="44" width="1" height="1" fill="#292828" />
<rect x="10" y="44" width="1" height="1" fill="#292828" />
<rect x="12" y="44" width="1" height="1" fill="#292828" />
<rect x="13" y="44" width="1" height="1" fill="#292828" />
<rect x="14" y="44" width="1" height="1" fill="#000000" />
<rect x="15" y="44" width="1" height="1" fill="#000000" />
<rect x="16" y="44" width="1" height="1" fill="#292828" />
<rect x="17" y="44" width="1" height="1" fill="#292828" />
<rect x="18" y="44" width="1" height="1" fill="#292828" />
<rect x="19" y="44" width="1" height="1" fill="#292828" />
<rect x="20" y="44" width="1" height="1" fill="#000000" />
<rect x="21" y="44" width="1" height="1" fill="#000000" />
<rect x="22" y="44" width="1" height="1" fill="#292828" />
<rect x="23" y="44" width="1" height="1" fill="#1A1919" />
<rect x="24" y="44" width="1" height="1" fill="#292828" />
<rect x="25" y="44" width="1" height="1" fill="#000000" />
<rect x="26" y="44" width="1" height="1" fill="#292828" />
<rect x="27" y="44" width="1" height="1" fill="#292828" />
<rect x="29" y="44" width="1" height="1" fill="#292828" />
<rect x="30" y="44" width="1" height="1" fill="#292828" />
<rect x="31" y="44" width="1" height="1" fill="#000000" />
<rect x="32" y="44" width="1" height="1" fill="#000000" />
<rect x="33" y="44" width="1" height="1" fill="#292828" />
<rect x="35" y="44" width="1" height="1" fill="#292828" />
<rect x="36" y="44" width="1" height="1" fill="#292828" />
<rect x="37" y="44" width="1" height="1" fill="#292828" />
<rect x="38" y="44" width="1" height="1" fill="#000000" />
<rect x="39" y="44" width="1" height="1" fill="#000000" />
<rect x="40" y="44" width="1" height="1" fill="#292828" />
<rect x="41" y="44" width="1" height="1" fill="#292828" />
<rect x="42" y="44" width="1" height="1" fill="#292828" />
<rect x="43" y="44" width="1" height="1" fill="#292828" />
<rect x="44" y="44" width="1" height="1" fill="#000000" />
<rect x="45" y="44" width="1" height="1" fill="#000000" />
<rect x="50" y="44" width="1" height="1" fill="#000000" />
<rect x="51" y="44" width="1" height="1" fill="#000000" />
<rect x="52" y="44" width="1" height="1" fill="#292828" />
<rect x="53" y="44" width="1" height="1" fill="#292828" />
<rect x="54" y="44" width="1" height="1" fill="#292828" />
<rect x="55" y="44" width="1" height="1" fill="#292828" />
<rect x="56" y="44" width="1" height="1" fill="#000000" />
<rect x="57" y="44" width="1" height="1" fill="#000000" />
<rect x="58" y="44" width="1" height="1" fill="#292828" />
<rect x="59" y="44" width="1" height="1" fill="#292828" />
<rect x="60" y="44" width="1" height="1" fill="#292828" />
<rect x="62" y="44" width="1" height="1" fill="#292828" />
<rect x="63" y="44" width="1" height="1" fill="#000000" />
<rect x="64" y="44" width="1" height="1" fill="#000000" />
<rect x="65" y="44" width="1" height="1" fill="#292828" />
<rect x="66" y="44" width="1" height="1" fill="#292828" />
<rect x="68" y="44" width="1" height="1" fill="#292828" />
<rect x="69" y="44" width="1" height="1" fill="#292828" />
<rect x="70" y="44" width="1" height="1" fill="#000000" />
<rect x="71" y="44" width="1" height="1" fill="#292828" />
<rect x="72" y="44" width="1" height="1" fill="#1A1919" />
<rect x="73" y="44" width="1" height="1" fill="#292828" />
<rect x="74" y="44" width="1" height="1" fill="#000000" />
<rect x="75" y="44" width="1" height="1" fill="#000000" />
<rect x="76" y="44" width="1" height="1" fill="#292828" />
<rect x="77" y="44" width="1" height="1" fill="#292828" />
<rect x="78" y="44" width="1" height="1" fill="#292828" />
<rect x="79" y="44" width="1" height="1" fill="#292828" />
<rect x="80" y="44" width="1" height="1" fill="#000000" />
<rect x="81" y="44" width="1" height="1" fill="#000000" />
<rect x="82" y="44" width="1" height="1" fill="#292828" />
<rect x="83" y="44" width="1" height="1" fill="#292828" />
<rect x="85" y="44" width="1" height="1" fill="#292828" />
<rect x="86" y="44" width="1" height="1" fill="#292828" />
<rect x="87" y="44" width="1" height="1" fill="#292828" />
<rect x="88" y="44" width="1" height="1" fill="#292828" />
<rect x="89" y="44" width="1" height="1" fill="#292828" />
<rect x="90" y="44" width="1" height="1" fill="#292828" />
<rect x="91" y="44" width="1" height="1" fill="#000000" />
<rect x="92" y="44" width="1" height="1" fill="#000000" />
<rect x="0" y="45" width="1" height="1" fill="#000000" />
<rect x="1" y="45" width="1" height="1" fill="#000000" />
<rect x="2" y="45" width="1" height="1" fill="#000000" />
<rect x="3" y="45" width="1" height="1" fill="#000000" />
<rect x="4" y="45" width="1" height="1" fill="#292828" />
<rect x="5" y="45" width="1" height="1" fill="#292828" />
<rect x="6" y="45" width="1" height="1" fill="#000000" />
<rect x="7" y="45" width="1" height="1" fill="#7C1212" />
<rect x="8" y="45" width="1" height="1" fill="#292828" />
<rect x="9" y="45" width="1" height="1" fill="#000000" />
<rect x="10" y="45" width="1" height="1" fill="#000000" />
<rect x="11" y="45" width="1" height="1" fill="#000000" />
<rect x="12" y="45" width="1" height="1" fill="#000000" />
<rect x="13" y="45" width="1" height="1" fill="#292828" />
<rect x="14" y="45" width="1" height="1" fill="#292828" />
<rect x="15" y="45" width="1" height="1" fill="#000000" />
<rect x="16" y="45" width="1" height="1" fill="#000000" />
<rect x="17" y="45" width="1" height="1" fill="#292828" />
<rect x="18" y="45" width="1" height="1" fill="#292828" />
<rect x="19" y="45" width="1" height="1" fill="#292828" />
<rect x="20" y="45" width="1" height="1" fill="#292828" />
<rect x="21" y="45" width="1" height="1" fill="#292828" />
<rect x="22" y="45" width="1" height="1" fill="#292828" />
<rect x="23" y="45" width="1" height="1" fill="#292828" />
<rect x="24" y="45" width="1" height="1" fill="#000000" />
<rect x="25" y="45" width="1" height="1" fill="#000000" />
<rect x="26" y="45" width="1" height="1" fill="#000000" />
<rect x="27" y="45" width="1" height="1" fill="#000000" />
<rect x="28" y="45" width="1" height="1" fill="#292828" />
<rect x="29" y="45" width="1" height="1" fill="#292828" />
<rect x="30" y="45" width="1" height="1" fill="#292828" />
<rect x="31" y="45" width="1" height="1" fill="#000000" />
<rect x="32" y="45" width="1" height="1" fill="#000000" />
<rect x="33" y="45" width="1" height="1" fill="#000000" />
<rect x="34" y="45" width="1" height="1" fill="#000000" />
<rect x="35" y="45" width="1" height="1" fill="#000000" />
<rect x="36" y="45" width="1" height="1" fill="#000000" />
<rect x="37" y="45" width="1" height="1" fill="#000000" />
<rect x="38" y="45" width="1" height="1" fill="#000000" />
<rect x="39" y="45" width="1" height="1" fill="#000000" />
<rect x="40" y="45" width="1" height="1" fill="#000000" />
<rect x="41" y="45" width="1" height="1" fill="#000000" />
<rect x="42" y="45" width="1" height="1" fill="#000000" />
<rect x="43" y="45" width="1" height="1" fill="#000000" />
<rect x="44" y="45" width="1" height="1" fill="#000000" />
<rect x="45" y="45" width="1" height="1" fill="#000000" />
<rect x="46" y="45" width="1" height="1" fill="#000000" />
<rect x="47" y="45" width="1" height="1" fill="#000000" />
<rect x="48" y="45" width="1" height="1" fill="#000000" />
<rect x="49" y="45" width="1" height="1" fill="#000000" />
<rect x="50" y="45" width="1" height="1" fill="#000000" />
<rect x="51" y="45" width="1" height="1" fill="#000000" />
<rect x="52" y="45" width="1" height="1" fill="#000000" />
<rect x="53" y="45" width="1" height="1" fill="#000000" />
<rect x="54" y="45" width="1" height="1" fill="#000000" />
<rect x="55" y="45" width="1" height="1" fill="#000000" />
<rect x="56" y="45" width="1" height="1" fill="#000000" />
<rect x="57" y="45" width="1" height="1" fill="#000000" />
<rect x="58" y="45" width="1" height="1" fill="#000000" />
<rect x="59" y="45" width="1" height="1" fill="#000000" />
<rect x="60" y="45" width="1" height="1" fill="#000000" />
<rect x="61" y="45" width="1" height="1" fill="#000000" />
<rect x="62" y="45" width="1" height="1" fill="#000000" />
<rect x="63" y="45" width="1" height="1" fill="#000000" />
<rect x="64" y="45" width="1" height="1" fill="#000000" />
<rect x="65" y="45" width="1" height="1" fill="#292828" />
<rect x="66" y="45" width="1" height="1" fill="#292828" />
<rect x="67" y="45" width="1" height="1" fill="#292828" />
<rect x="68" y="45" width="1" height="1" fill="#000000" />
<rect x="69" y="45" width="1" height="1" fill="#000000" />
<rect x="70" y="45" width="1" height="1" fill="#000000" />
<rect x="71" y="45" width="1" height="1" fill="#000000" />
<rect x="72" y="45" width="1" height="1" fill="#292828" />
<rect x="73" y="45" width="1" height="1" fill="#292828" />
<rect x="74" y="45" width="1" height="1" fill="#292828" />
<rect x="75" y="45" width="1" height="1" fill="#292828" />
<rect x="76" y="45" width="1" height="1" fill="#292828" />
<rect x="77" y="45" width="1" height="1" fill="#292828" />
<rect x="78" y="45" width="1" height="1" fill="#292828" />
<rect x="79" y="45" width="1" height="1" fill="#000000" />
<rect x="80" y="45" width="1" height="1" fill="#000000" />
<rect x="81" y="45" width="1" height="1" fill="#292828" />
<rect x="82" y="45" width="1" height="1" fill="#292828" />
<rect x="83" y="45" width="1" height="1" fill="#000000" />
<rect x="84" y="45" width="1" height="1" fill="#000000" />
<rect x="85" y="45" width="1" height="1" fill="#000000" />
<rect x="86" y="45" width="1" height="1" fill="#000000" />
<rect x="87" y="45" width="1" height="1" fill="#292828" />
<rect x="88" y="45" width="1" height="1" fill="#7C1212" />
<rect x="89" y="45" width="1" height="1" fill="#000000" />
<rect x="90" y="45" width="1" height="1" fill="#292828" />
<rect x="91" y="45" width="1" height="1" fill="#292828" />
<rect x="92" y="45" width="1" height="1" fill="#000000" />
<rect x="93" y="45" width="1" height="1" fill="#000000" />
<rect x="94" y="45" width="1" height="1" fill="#000000" />
<rect x="95" y="45" width="1" height="1" fill="#000000" />
<rect x="0" y="46" width="1" height="1" fill="#292828" />
<rect x="1" y="46" width="1" height="1" fill="#292828" />
<rect x="2" y="46" width="1" height="1" fill="#292828" />
<rect x="3" y="46" width="1" height="1" fill="#292828" />
<rect x="4" y="46" width="1" height="1" fill="#292828" />
<rect x="5" y="46" width="1" height="1" fill="#292828" />
<rect x="6" y="46" width="1" height="1" fill="#7C1212" />
<rect x="7" y="46" width="1" height="1" fill="#7C1212" />
<rect x="8" y="46" width="1" height="1" fill="#292828" />
<rect x="9" y="46" width="1" height="1" fill="#292828" />
<rect x="10" y="46" width="1" height="1" fill="#7C1212" />
<rect x="11" y="46" width="1" height="1" fill="#7C1212" />
<rect x="12" y="46" width="1" height="1" fill="#292828" />
<rect x="13" y="46" width="1" height="1" fill="#7C1212" />
<rect x="14" y="46" width="1" height="1" fill="#292828" />
<rect x="15" y="46" width="1" height="1" fill="#292828" />
<rect x="16" y="46" width="1" height="1" fill="#000000" />
<rect x="17" y="46" width="1" height="1" fill="#7C1212" />
<rect x="18" y="46" width="1" height="1" fill="#7C1212" />
<rect x="19" y="46" width="1" height="1" fill="#292828" />
<rect x="20" y="46" width="1" height="1" fill="#292828" />
<rect x="21" y="46" width="1" height="1" fill="#292828" />
<rect x="22" y="46" width="1" height="1" fill="#000000" />
<rect x="23" y="46" width="1" height="1" fill="#292828" />
<rect x="24" y="46" width="1" height="1" fill="#292828" />
<rect x="25" y="46" width="1" height="1" fill="#000000" />
<rect x="26" y="46" width="1" height="1" fill="#000000" />
<rect x="27" y="46" width="1" height="1" fill="#292828" />
<rect x="28" y="46" width="1" height="1" fill="#292828" />
<rect x="29" y="46" width="1" height="1" fill="#292828" />
<rect x="30" y="46" width="1" height="1" fill="#292828" />
<rect x="31" y="46" width="1" height="1" fill="#292828" />
<rect x="32" y="46" width="1" height="1" fill="#292828" />
<rect x="33" y="46" width="1" height="1" fill="#000000" />
<rect x="34" y="46" width="1" height="1" fill="#292828" />
<rect x="35" y="46" width="1" height="1" fill="#292828" />
<rect x="36" y="46" width="1" height="1" fill="#292828" />
<rect x="37" y="46" width="1" height="1" fill="#292828" />
<rect x="38" y="46" width="1" height="1" fill="#7C1212" />
<rect x="39" y="46" width="1" height="1" fill="#000000" />
<rect x="40" y="46" width="1" height="1" fill="#292828" />
<rect x="41" y="46" width="1" height="1" fill="#292828" />
<rect x="42" y="46" width="1" height="1" fill="#292828" />
<rect x="43" y="46" width="1" height="1" fill="#292828" />
<rect x="44" y="46" width="1" height="1" fill="#7C1212" />
<rect x="45" y="46" width="1" height="1" fill="#292828" />
<rect x="46" y="46" width="1" height="1" fill="#000000" />
<rect x="47" y="46" width="1" height="1" fill="#292828" />
<rect x="48" y="46" width="1" height="1" fill="#292828" />
<rect x="49" y="46" width="1" height="1" fill="#000000" />
<rect x="50" y="46" width="1" height="1" fill="#292828" />
<rect x="51" y="46" width="1" height="1" fill="#7C1212" />
<rect x="52" y="46" width="1" height="1" fill="#292828" />
<rect x="53" y="46" width="1" height="1" fill="#292828" />
<rect x="54" y="46" width="1" height="1" fill="#292828" />
<rect x="55" y="46" width="1" height="1" fill="#292828" />
<rect x="56" y="46" width="1" height="1" fill="#000000" />
<rect x="57" y="46" width="1" height="1" fill="#7C1212" />
<rect x="58" y="46" width="1" height="1" fill="#292828" />
<rect x="59" y="46" width="1" height="1" fill="#292828" />
<rect x="60" y="46" width="1" height="1" fill="#292828" />
<rect x="61" y="46" width="1" height="1" fill="#292828" />
<rect x="62" y="46" width="1" height="1" fill="#000000" />
<rect x="63" y="46" width="1" height="1" fill="#292828" />
<rect x="64" y="46" width="1" height="1" fill="#292828" />
<rect x="65" y="46" width="1" height="1" fill="#292828" />
<rect x="66" y="46" width="1" height="1" fill="#292828" />
<rect x="67" y="46" width="1" height="1" fill="#292828" />
<rect x="68" y="46" width="1" height="1" fill="#292828" />
<rect x="69" y="46" width="1" height="1" fill="#000000" />
<rect x="70" y="46" width="1" height="1" fill="#000000" />
<rect x="71" y="46" width="1" height="1" fill="#292828" />
<rect x="72" y="46" width="1" height="1" fill="#292828" />
<rect x="73" y="46" width="1" height="1" fill="#000000" />
<rect x="74" y="46" width="1" height="1" fill="#292828" />
<rect x="75" y="46" width="1" height="1" fill="#292828" />
<rect x="76" y="46" width="1" height="1" fill="#292828" />
<rect x="77" y="46" width="1" height="1" fill="#7C1212" />
<rect x="78" y="46" width="1" height="1" fill="#7C1212" />
<rect x="79" y="46" width="1" height="1" fill="#000000" />
<rect x="80" y="46" width="1" height="1" fill="#292828" />
<rect x="81" y="46" width="1" height="1" fill="#292828" />
<rect x="82" y="46" width="1" height="1" fill="#7C1212" />
<rect x="83" y="46" width="1" height="1" fill="#292828" />
<rect x="84" y="46" width="1" height="1" fill="#7C1212" />
<rect x="85" y="46" width="1" height="1" fill="#7C1212" />
<rect x="86" y="46" width="1" height="1" fill="#292828" />
<rect x="87" y="46" width="1" height="1" fill="#292828" />
<rect x="88" y="46" width="1" height="1" fill="#7C1212" />
<rect x="89" y="46" width="1" height="1" fill="#7C1212" />
<rect x="90" y="46" width="1" height="1" fill="#292828" />
<rect x="91" y="46" width="1" height="1" fill="#292828" />
<rect x="92" y="46" width="1" height="1" fill="#292828" />
<rect x="93" y="46" width="1" height="1" fill="#292828" />
<rect x="94" y="46" width="1" height="1" fill="#292828" />
<rect x="95" y="46" width="1" height="1" fill="#292828" />
<rect x="0" y="47" width="1" height="1" fill="#292828" />
<rect x="1" y="47" width="1" height="1" fill="#292828" />
<rect x="2" y="47" width="1" height="1" fill="#292828" />
<rect x="3" y="47" width="1" height="1" fill="#292828" />
<rect x="4" y="47" width="1" height="1" fill="#292828" />
<rect x="5" y="47" width="1" height="1" fill="#292828" />
<rect x="6" y="47" width="1" height="1" fill="#7C1212" />
<rect x="7" y="47" width="1" height="1" fill="#7C1212" />
<rect x="8" y="47" width="1" height="1" fill="#7C1212" />
<rect x="9" y="47" width="1" height="1" fill="#292828" />
<rect x="10" y="47" width="1" height="1" fill="#292828" />
<rect x="11" y="47" width="1" height="1" fill="#292828" />
<rect x="12" y="47" width="1" height="1" fill="#292828" />
<rect x="13" y="47" width="1" height="1" fill="#7C1212" />
<rect x="14" y="47" width="1" height="1" fill="#7C1212" />
<rect x="15" y="47" width="1" height="1" fill="#292828" />
<rect x="16" y="47" width="1" height="1" fill="#7C1212" />
<rect x="17" y="47" width="1" height="1" fill="#7C1212" />
<rect x="18" y="47" width="1" height="1" fill="#7C1212" />
<rect x="19" y="47" width="1" height="1" fill="#7C1212" />
<rect x="20" y="47" width="1" height="1" fill="#292828" />
<rect x="21" y="47" width="1" height="1" fill="#292828" />
<rect x="22" y="47" width="1" height="1" fill="#000000" />
<rect x="23" y="47" width="1" height="1" fill="#292828" />
<rect x="24" y="47" width="1" height="1" fill="#292828" />
<rect x="25" y="47" width="1" height="1" fill="#292828" />
<rect x="26" y="47" width="1" height="1" fill="#000000" />
<rect x="27" y="47" width="1" height="1" fill="#7C1212" />
<rect x="28" y="47" width="1" height="1" fill="#292828" />
<rect x="29" y="47" width="1" height="1" fill="#7C1212" />
<rect x="30" y="47" width="1" height="1" fill="#292828" />
<rect x="31" y="47" width="1" height="1" fill="#7C1212" />
<rect x="32" y="47" width="1" height="1" fill="#292828" />
<rect x="33" y="47" width="1" height="1" fill="#000000" />
<rect x="34" y="47" width="1" height="1" fill="#000000" />
<rect x="35" y="47" width="1" height="1" fill="#7C1212" />
<rect x="36" y="47" width="1" height="1" fill="#292828" />
<rect x="37" y="47" width="1" height="1" fill="#292828" />
<rect x="38" y="47" width="1" height="1" fill="#292828" />
<rect x="39" y="47" width="1" height="1" fill="#000000" />
<rect x="40" y="47" width="1" height="1" fill="#292828" />
<rect x="41" y="47" width="1" height="1" fill="#7C1212" />
<rect x="42" y="47" width="1" height="1" fill="#292828" />
<rect x="43" y="47" width="1" height="1" fill="#292828" />
<rect x="44" y="47" width="1" height="1" fill="#7C1212" />
<rect x="45" y="47" width="1" height="1" fill="#292828" />
<rect x="46" y="47" width="1" height="1" fill="#292828" />
<rect x="47" y="47" width="1" height="1" fill="#000000" />
<rect x="48" y="47" width="1" height="1" fill="#000000" />
<rect x="49" y="47" width="1" height="1" fill="#292828" />
<rect x="50" y="47" width="1" height="1" fill="#292828" />
<rect x="51" y="47" width="1" height="1" fill="#7C1212" />
<rect x="52" y="47" width="1" height="1" fill="#292828" />
<rect x="53" y="47" width="1" height="1" fill="#292828" />
<rect x="54" y="47" width="1" height="1" fill="#7C1212" />
<rect x="55" y="47" width="1" height="1" fill="#292828" />
<rect x="56" y="47" width="1" height="1" fill="#000000" />
<rect x="57" y="47" width="1" height="1" fill="#292828" />
<rect x="58" y="47" width="1" height="1" fill="#292828" />
<rect x="59" y="47" width="1" height="1" fill="#292828" />
<rect x="60" y="47" width="1" height="1" fill="#7C1212" />
<rect x="61" y="47" width="1" height="1" fill="#000000" />
<rect x="62" y="47" width="1" height="1" fill="#000000" />
<rect x="63" y="47" width="1" height="1" fill="#292828" />
<rect x="64" y="47" width="1" height="1" fill="#7C1212" />
<rect x="65" y="47" width="1" height="1" fill="#292828" />
<rect x="66" y="47" width="1" height="1" fill="#7C1212" />
<rect x="67" y="47" width="1" height="1" fill="#292828" />
<rect x="68" y="47" width="1" height="1" fill="#7C1212" />
<rect x="69" y="47" width="1" height="1" fill="#000000" />
<rect x="70" y="47" width="1" height="1" fill="#292828" />
<rect x="71" y="47" width="1" height="1" fill="#7C1212" />
<rect x="72" y="47" width="1" height="1" fill="#7C1212" />
<rect x="73" y="47" width="1" height="1" fill="#000000" />
<rect x="74" y="47" width="1" height="1" fill="#292828" />
<rect x="75" y="47" width="1" height="1" fill="#292828" />
<rect x="76" y="47" width="1" height="1" fill="#7C1212" />
<rect x="77" y="47" width="1" height="1" fill="#7C1212" />
<rect x="78" y="47" width="1" height="1" fill="#7C1212" />
<rect x="79" y="47" width="1" height="1" fill="#7C1212" />
<rect x="80" y="47" width="1" height="1" fill="#7C1212" />
<rect x="81" y="47" width="1" height="1" fill="#7C1212" />
<rect x="82" y="47" width="1" height="1" fill="#7C1212" />
<rect x="83" y="47" width="1" height="1" fill="#7C1212" />
<rect x="84" y="47" width="1" height="1" fill="#7C1212" />
<rect x="85" y="47" width="1" height="1" fill="#7C1212" />
<rect x="86" y="47" width="1" height="1" fill="#292828" />
<rect x="87" y="47" width="1" height="1" fill="#7C1212" />
<rect x="88" y="47" width="1" height="1" fill="#7C1212" />
<rect x="89" y="47" width="1" height="1" fill="#7C1212" />
<rect x="90" y="47" width="1" height="1" fill="#292828" />
<rect x="91" y="47" width="1" height="1" fill="#292828" />
<rect x="92" y="47" width="1" height="1" fill="#292828" />
<rect x="93" y="47" width="1" height="1" fill="#292828" />
<rect x="94" y="47" width="1" height="1" fill="#292828" />
<rect x="95" y="47" width="1" height="1" fill="#292828" />
<rect x="0" y="48" width="1" height="1" fill="#292828" />
<rect x="1" y="48" width="1" height="1" fill="#292828" />
<rect x="2" y="48" width="1" height="1" fill="#292828" />
<rect x="3" y="48" width="1" height="1" fill="#7C1212" />
<rect x="4" y="48" width="1" height="1" fill="#7C1212" />
<rect x="5" y="48" width="1" height="1" fill="#292828" />
<rect x="6" y="48" width="1" height="1" fill="#292828" />
<rect x="7" y="48" width="1" height="1" fill="#7C1212" />
<rect x="8" y="48" width="1" height="1" fill="#7C1212" />
<rect x="9" y="48" width="1" height="1" fill="#7C1212" />
<rect x="10" y="48" width="1" height="1" fill="#292828" />
<rect x="11" y="48" width="1" height="1" fill="#7C1212" />
<rect x="12" y="48" width="1" height="1" fill="#292828" />
<rect x="13" y="48" width="1" height="1" fill="#7C1212" />
<rect x="14" y="48" width="1" height="1" fill="#7C1212" />
<rect x="15" y="48" width="1" height="1" fill="#292828" />
<rect x="16" y="48" width="1" height="1" fill="#7C1212" />
<rect x="17" y="48" width="1" height="1" fill="#7C1212" />
<rect x="18" y="48" width="1" height="1" fill="#7C1212" />
<rect x="19" y="48" width="1" height="1" fill="#7C1212" />
<rect x="20" y="48" width="1" height="1" fill="#7C1212" />
<rect x="21" y="48" width="1" height="1" fill="#292828" />
<rect x="22" y="48" width="1" height="1" fill="#292828" />
<rect x="23" y="48" width="1" height="1" fill="#000000" />
<rect x="24" y="48" width="1" height="1" fill="#292828" />
<rect x="25" y="48" width="1" height="1" fill="#292828" />
<rect x="26" y="48" width="1" height="1" fill="#000000" />
<rect x="27" y="48" width="1" height="1" fill="#000000" />
<rect x="28" y="48" width="1" height="1" fill="#000000" />
<rect x="29" y="48" width="1" height="1" fill="#7C1212" />
<rect x="30" y="48" width="1" height="1" fill="#292828" />
<rect x="31" y="48" width="1" height="1" fill="#7C1212" />
<rect x="32" y="48" width="1" height="1" fill="#292828" />
<rect x="33" y="48" width="1" height="1" fill="#000000" />
<rect x="34" y="48" width="1" height="1" fill="#000000" />
<rect x="35" y="48" width="1" height="1" fill="#7C1212" />
<rect x="36" y="48" width="1" height="1" fill="#292828" />
<rect x="37" y="48" width="1" height="1" fill="#7C1212" />
<rect x="38" y="48" width="1" height="1" fill="#292828" />
<rect x="39" y="48" width="1" height="1" fill="#292828" />
<rect x="40" y="48" width="1" height="1" fill="#000000" />
<rect x="41" y="48" width="1" height="1" fill="#292828" />
<rect x="42" y="48" width="1" height="1" fill="#7C1212" />
<rect x="43" y="48" width="1" height="1" fill="#292828" />
<rect x="44" y="48" width="1" height="1" fill="#292828" />
<rect x="45" y="48" width="1" height="1" fill="#292828" />
<rect x="46" y="48" width="1" height="1" fill="#7C1212" />
<rect x="47" y="48" width="1" height="1" fill="#292828" />
<rect x="48" y="48" width="1" height="1" fill="#292828" />
<rect x="49" y="48" width="1" height="1" fill="#7C1212" />
<rect x="50" y="48" width="1" height="1" fill="#292828" />
<rect x="51" y="48" width="1" height="1" fill="#292828" />
<rect x="52" y="48" width="1" height="1" fill="#292828" />
<rect x="53" y="48" width="1" height="1" fill="#7C1212" />
<rect x="54" y="48" width="1" height="1" fill="#292828" />
<rect x="55" y="48" width="1" height="1" fill="#000000" />
<rect x="56" y="48" width="1" height="1" fill="#292828" />
<rect x="57" y="48" width="1" height="1" fill="#292828" />
<rect x="58" y="48" width="1" height="1" fill="#7C1212" />
<rect x="59" y="48" width="1" height="1" fill="#292828" />
<rect x="60" y="48" width="1" height="1" fill="#7C1212" />
<rect x="61" y="48" width="1" height="1" fill="#000000" />
<rect x="62" y="48" width="1" height="1" fill="#000000" />
<rect x="63" y="48" width="1" height="1" fill="#292828" />
<rect x="64" y="48" width="1" height="1" fill="#7C1212" />
<rect x="65" y="48" width="1" height="1" fill="#292828" />
<rect x="66" y="48" width="1" height="1" fill="#7C1212" />
<rect x="67" y="48" width="1" height="1" fill="#000000" />
<rect x="68" y="48" width="1" height="1" fill="#7C1212" />
<rect x="69" y="48" width="1" height="1" fill="#7C1212" />
<rect x="70" y="48" width="1" height="1" fill="#7C1212" />
<rect x="71" y="48" width="1" height="1" fill="#7C1212" />
<rect x="72" y="48" width="1" height="1" fill="#7C1212" />
<rect x="73" y="48" width="1" height="1" fill="#7C1212" />
<rect x="74" y="48" width="1" height="1" fill="#292828" />
<rect x="75" y="48" width="1" height="1" fill="#7C1212" />
<rect x="76" y="48" width="1" height="1" fill="#7C1212" />
<rect x="77" y="48" width="1" height="1" fill="#7C1212" />
<rect x="78" y="48" width="1" height="1" fill="#7C1212" />
<rect x="79" y="48" width="1" height="1" fill="#7C1212" />
<rect x="80" y="48" width="1" height="1" fill="#7C1212" />
<rect x="81" y="48" width="1" height="1" fill="#7C1212" />
<rect x="82" y="48" width="1" height="1" fill="#7C1212" />
<rect x="83" y="48" width="1" height="1" fill="#7C1212" />
<rect x="84" y="48" width="1" height="1" fill="#7C1212" />
<rect x="85" y="48" width="1" height="1" fill="#7C1212" />
<rect x="86" y="48" width="1" height="1" fill="#7C1212" />
<rect x="87" y="48" width="1" height="1" fill="#7C1212" />
<rect x="88" y="48" width="1" height="1" fill="#7C1212" />
<rect x="89" y="48" width="1" height="1" fill="#7C1212" />
<rect x="90" y="48" width="1" height="1" fill="#7C1212" />
<rect x="91" y="48" width="1" height="1" fill="#7C1212" />
<rect x="92" y="48" width="1" height="1" fill="#7C1212" />
<rect x="93" y="48" width="1" height="1" fill="#292828" />
<rect x="94" y="48" width="1" height="1" fill="#292828" />
<rect x="95" y="48" width="1" height="1" fill="#292828" />
<rect x="5" y="49" width="1" height="1" fill="#292828" />
<rect x="7" y="49" width="1" height="1" fill="#292828" />
<rect x="12" y="49" width="1" height="1" fill="#292828" />
<rect x="22" y="49" width="1" height="1" fill="#292828" />
<rect x="23" y="49" width="1" height="1" fill="#000000" />
<rect x="25" y="49" width="1" height="1" fill="#292828" />
<rect x="26" y="49" width="1" height="1" fill="#292828" />
<rect x="27" y="49" width="1" height="1" fill="#292828" />
<rect x="28" y="49" width="1" height="1" fill="#292828" />
<rect x="32" y="49" width="1" height="1" fill="#292828" />
<rect x="33" y="49" width="1" height="1" fill="#292828" />
<rect x="34" y="49" width="1" height="1" fill="#292828" />
<rect x="35" y="49" width="1" height="1" fill="#000000" />
<rect x="36" y="49" width="1" height="1" fill="#000000" />
<rect x="37" y="49" width="1" height="1" fill="#7C1212" />
<rect x="38" y="49" width="1" height="1" fill="#7C1212" />
<rect x="39" y="49" width="1" height="1" fill="#292828" />
<rect x="40" y="49" width="1" height="1" fill="#292828" />
<rect x="41" y="49" width="1" height="1" fill="#292828" />
<rect x="42" y="49" width="1" height="1" fill="#7C1212" />
<rect x="43" y="49" width="1" height="1" fill="#292828" />
<rect x="44" y="49" width="1" height="1" fill="#7C1212" />
<rect x="45" y="49" width="1" height="1" fill="#292828" />
<rect x="50" y="49" width="1" height="1" fill="#292828" />
<rect x="52" y="49" width="1" height="1" fill="#292828" />
<rect x="54" y="49" width="1" height="1" fill="#292828" />
<rect x="55" y="49" width="1" height="1" fill="#292828" />
<rect x="56" y="49" width="1" height="1" fill="#292828" />
<rect x="59" y="49" width="1" height="1" fill="#000000" />
<rect x="60" y="49" width="1" height="1" fill="#000000" />
<rect x="61" y="49" width="1" height="1" fill="#292828" />
<rect x="62" y="49" width="1" height="1" fill="#292828" />
<rect x="63" y="49" width="1" height="1" fill="#292828" />
<rect x="67" y="49" width="1" height="1" fill="#292828" />
<rect x="68" y="49" width="1" height="1" fill="#292828" />
<rect x="5" y="50" width="1" height="1" fill="#292828" />
<rect x="12" y="50" width="1" height="1" fill="#292828" />
<rect x="22" y="50" width="1" height="1" fill="#292828" />
<rect x="26" y="50" width="1" height="1" fill="#1A1919" />
<rect x="27" y="50" width="1" height="1" fill="#292828" />
<rect x="32" y="50" width="1" height="1" fill="#292828" />
<rect x="33" y="50" width="1" height="1" fill="#7C1212" />
<rect x="34" y="50" width="1" height="1" fill="#292828" />
<rect x="35" y="50" width="1" height="1" fill="#292828" />
<rect x="36" y="50" width="1" height="1" fill="#000000" />
<rect x="37" y="50" width="1" height="1" fill="#7C1212" />
<rect x="38" y="50" width="1" height="1" fill="#7C1212" />
<rect x="39" y="50" width="1" height="1" fill="#7C1212" />
<rect x="40" y="50" width="1" height="1" fill="#292828" />
<rect x="41" y="50" width="1" height="1" fill="#7C1212" />
<rect x="42" y="50" width="1" height="1" fill="#292828" />
<rect x="43" y="50" width="1" height="1" fill="#292828" />
<rect x="44" y="50" width="1" height="1" fill="#7C1212" />
<rect x="45" y="50" width="1" height="1" fill="#292828" />
<rect x="50" y="50" width="1" height="1" fill="#292828" />
<rect x="55" y="50" width="1" height="1" fill="#292828" />
<rect x="59" y="50" width="1" height="1" fill="#000000" />
<rect x="60" y="50" width="1" height="1" fill="#292828" />
<rect x="61" y="50" width="1" height="1" fill="#292828" />
<rect x="62" y="50" width="1" height="1" fill="#7C1212" />
<rect x="63" y="50" width="1" height="1" fill="#292828" />
<rect x="68" y="50" width="1" height="1" fill="#292828" />
<rect x="27" y="51" width="1" height="1" fill="#292828" />
<rect x="33" y="51" width="1" height="1" fill="#292828" />
<rect x="35" y="51" width="1" height="1" fill="#292828" />
<rect x="36" y="51" width="1" height="1" fill="#292828" />
<rect x="37" y="51" width="1" height="1" fill="#000000" />
<rect x="38" y="51" width="1" height="1" fill="#000000" />
<rect x="39" y="51" width="1" height="1" fill="#7C1212" />
<rect x="40" y="51" width="1" height="1" fill="#000000" />
<rect x="41" y="51" width="1" height="1" fill="#000000" />
<rect x="42" y="51" width="1" height="1" fill="#292828" />
<rect x="43" y="51" width="1" height="1" fill="#292828" />
<rect x="44" y="51" width="1" height="1" fill="#292828" />
<rect x="55" y="51" width="1" height="1" fill="#000000" />
<rect x="58" y="51" width="1" height="1" fill="#000000" />
<rect x="59" y="51" width="1" height="1" fill="#292828" />
<rect x="60" y="51" width="1" height="1" fill="#292828" />
<rect x="62" y="51" width="1" height="1" fill="#292828" />
<rect x="27" y="52" width="1" height="1" fill="#292828" />
<rect x="33" y="52" width="1" height="1" fill="#292828" />
<rect x="35" y="52" width="1" height="1" fill="#292828" />
<rect x="37" y="52" width="1" height="1" fill="#292828" />
<rect x="38" y="52" width="1" height="1" fill="#000000" />
<rect x="39" y="52" width="1" height="1" fill="#000000" />
<rect x="40" y="52" width="1" height="1" fill="#292828" />
<rect x="41" y="52" width="1" height="1" fill="#000000" />
<rect x="42" y="52" width="1" height="1" fill="#000000" />
<rect x="43" y="52" width="1" height="1" fill="#292828" />
<rect x="58" y="52" width="1" height="1" fill="#292828" />
<rect x="60" y="52" width="1" height="1" fill="#292828" />
<rect x="62" y="52" width="1" height="1" fill="#292828" />
<rect x="38" y="53" width="1" height="1" fill="#292828" />
<rect x="39" y="53" width="1" height="1" fill="#292828" />
<rect x="40" y="53" width="1" height="1" fill="#292828" />
<rect x="41" y="53" width="1" height="1" fill="#292828" />
<rect x="42" y="53" width="1" height="1" fill="#000000" />
<rect x="43" y="53" width="1" height="1" fill="#292828" />
<rect x="39" y="54" width="1" height="1" fill="#292828" />
<rect x="41" y="54" width="1" height="1" fill="#292828" />
<rect x="42" y="54" width="1" height="1" fill="#292828" />
<rect x="42" y="55" width="1" height="1" fill="#292828" />
</svg>