<svg xmlns="http://www.w3.org/2000/svg" width="25" height="94" shape-rendering="crispEdges"><path fill="#777F76" d="M12 0h1v1h-1zM11 1h1v1h-1z" opacity=".035"/><path fill="#505D70" d="M12 1h1v1h-1z"/><path fill="#777F76" d="M13 1h1v1h-1zM11 2h1v1h-1z" opacity=".035"/><path fill="#505D70" d="M12 2h1v1h-1z"/><path fill="#777F76" d="M13 2h1v1h-1zM10 3h1v1h-1z" opacity=".035"/><path fill="#505D70" d="M11 3h1v1h-1z"/><path fill="#2B313C" d="M12 3h1v1h-1z"/><path fill="#33405B" d="M13 3h1v1h-1z"/><path fill="#777F76" d="M14 3h1v1h-1zM10 4h1v1h-1z" opacity=".035"/><path fill="#505D70" d="M11 4h1v1h-1z"/><path fill="#374458" d="M12 4h1v1h-1z"/><path fill="#394860" d="M13 4h1v1h-1z"/><path fill="#777F76" d="M14 4h1v1h-1zM10 5h1v1h-1z" opacity=".035"/><path fill="#4E5B6B" d="M11 5h1v1h-1z"/><path fill="#212731" d="M12 5h1v1h-1z"/><path fill="#394860" d="M13 5h1v1h-1z"/><path fill="#777F76" d="M14 5h1v1h-1zM10 6h1v1h-1z" opacity=".035"/><path fill="#4E5B6C" d="M11 6h1v1h-1z"/><path fill="#212731" d="M12 6h1v1h-1z"/><path fill="#33405B" d="M13 6h1v1h-1z"/><path fill="#777F76" d="M14 6h1v1h-1z" opacity=".035"/><path fill="#27521B" d="M18 6h1v1h-1z" opacity=".639"/><path fill="#2F641B" d="M19 6h1v1h-1z" opacity=".714"/><path fill="#27521B" d="M20 6h1v1h-1z" opacity=".4"/><path fill="#777F76" d="M10 7h1v1h-1z" opacity=".035"/><path fill="#485466" d="M11 7h1v1h-1z"/><path fill="#212731" d="M12 7h1v1h-1z"/><path fill="#33405B" d="M13 7h1v1h-1z"/><path fill="#777F76" d="M14 7h1v1h-1z" opacity=".035"/><path fill="#295B1B" d="M17 7h1v1h-1z" opacity=".659"/><path fill="#31671B" d="M18 7h1v1h-1z" opacity=".729"/><path fill="#2D5E1D" d="M19 7h1v1h-1z"/><path fill="#27521B" d="M20 7h1v1h-1z" opacity=".424"/><path fill="#27521B" d="M21 7h1v1h-1z" opacity=".4"/><path fill="#777F76" d="M9 8h1v1H9z" opacity=".035"/><path fill="#836CA6" d="M10 8h1v1h-1z"/><path fill="#272F37" d="M11 8h1v1h-1z"/><path fill="#212731" d="M12 8h1v1h-1z"/><path fill="#171A25" d="M13 8h1v1h-1z"/><path fill="#777F76" d="M14 8h1v1h-1z" opacity=".035"/><path fill="#2D601B" d="M17 8h1v1h-1z" opacity=".82"/><path fill="#27481D" d="M18 8h1v1h-1z" opacity=".161"/><path fill="#2B541D" d="M19 8h1v1h-1z"/><path fill="#27521B" d="M20 8h1v1h-1z" opacity=".188"/><path fill="#27521B" d="M21 8h1v1h-1z" opacity=".784"/><path fill="#777F76" d="M9 9h1v1H9z" opacity=".035"/><path fill="#404A5E" d="M10 9h1v1h-1z"/><path fill="#272F37" d="M11 9h1v1h-1z"/><path fill="#353E50" d="M12 9h1v1h-1z"/><path fill="#1C2333" d="M13 9h1v1h-1z"/><path fill="#33405B" d="M14 9h1v1h-1z"/><path fill="#777F76" d="M15 9h1v1h-1z" opacity=".035"/><path fill="#295B1B" d="M17 9h1v1h-1z" opacity=".796"/><path fill="#27481D" d="M18 9h1v1h-1z" opacity=".294"/><path fill="#2D5621" d="M19 9h1v1h-1z"/><path fill="#33671B" d="M20 9h1v1h-1z" opacity=".847"/><path fill="#27521B" d="M21 9h1v1h-1z" opacity=".784"/><path fill="#777F76" d="M9 10h1v1H9z" opacity=".035"/><path fill="#3E485E" d="M10 10h1v1h-1z"/><path fill="#212731" d="M11 10h1v1h-1z"/><path fill="#272F37" d="M12 10h1v1h-1z"/><path fill="#1C2333" d="M13 10h1v1h-1z"/><path fill="#1F293E" d="M14 10h1v1h-1z"/><path fill="#777F76" d="M15 10h1v1h-1z" opacity=".035"/><path fill="#27521B" d="M17 10h1v1h-1z" opacity=".639"/><path fill="#29541A" d="M18 10h1v1h-1z" opacity=".827"/><path fill="#2B5C1B" d="M19 10h1v1h-1z" opacity=".929"/><path fill="#27521B" d="M20 10h1v1h-1zM21 10h1v1h-1z" opacity=".784"/><path fill="#777F76" d="M9 11h1v1H9z" opacity=".035"/><path fill="#3E485C" d="M10 11h1v1h-1z"/><path fill="#1A1F29" d="M11 11h1v1h-1z"/><path fill="#212731" d="M12 11h1v1h-1z"/><path fill="#1C2333" d="M13 11h1v1h-1z"/><path fill="#2B3550" d="M14 11h1v1h-1z"/><path fill="#777F76" d="M15 11h1v1h-1z" opacity=".035"/><path fill="#29541A" d="M18 11h1v1h-1z" opacity=".714"/><path fill="#27521B" d="M19 11h1v1h-1z" opacity=".784"/><path fill="#29541A" d="M20 11h1v1h-1z" opacity=".071"/><path fill="#27521B" d="M21 11h1v1h-1z" opacity=".4"/><path fill="#777F76" d="M9 12h1v1H9z" opacity=".035"/><path fill="#3E485C" d="M10 12h1v1h-1z"/><path fill="#272F37" d="M11 12h1v1h-1z"/><path fill="#27313E" d="M12 12h1v1h-1z"/><path fill="#1C2333" d="M13 12h1v1h-1z"/><path fill="#2D3750" d="M14 12h1v1h-1z"/><path fill="#777F76" d="M15 12h1v1h-1z" opacity=".035"/><path fill="#295C19" d="M18 12h1v1h-1z" opacity=".212"/><path fill="#29561A" d="M19 12h1v1h-1z" opacity=".525"/><path fill="#29561A" d="M20 12h1v1h-1z" opacity=".086"/><path fill="#27521B" d="M21 12h1v1h-1z" opacity=".4"/><path fill="#777F76" d="M9 13h1v1H9z" opacity=".035"/><path fill="#3E485C" d="M10 13h1v1h-1z"/><path fill="#272F37" d="M11 13h1v1h-1z"/><path fill="#27313E" d="M12 13h1v1h-1z"/><path fill="#1C2333" d="M13 13h1v1h-1z"/><path fill="#2F3C56" d="M14 13h1v1h-1z"/><path fill="#777F76" d="M15 13h1v1h-1z" opacity=".035"/><path fill="#295C19" d="M18 13h1v1h-1z" opacity=".212"/><path fill="#29561A" d="M19 13h1v1h-1zM20 13h1v1h-1z" opacity=".525"/><path fill="#777F76" d="M9 14h1v1H9z" opacity=".035"/><path fill="#3E485C" d="M10 14h1v1h-1z"/><path fill="#212731" d="M11 14h1v1h-1z"/><path fill="#27313E" d="M12 14h1v1h-1z"/><path fill="#1C2333" d="M13 14h1v1h-1z"/><path fill="#273146" d="M14 14h1v1h-1z"/><path fill="#777F76" d="M15 14h1v1h-1z" opacity=".035"/><path fill="#295C19" d="M18 14h1v1h-1z" opacity=".212"/><path fill="#29561A" d="M19 14h1v1h-1z" opacity=".525"/><path fill="#295C19" d="M20 14h1v1h-1z" opacity=".212"/><path fill="#777F76" d="M9 15h1v1H9z" opacity=".035"/><path fill="#3E485C" d="M10 15h1v1h-1z"/><path fill="#212731" d="M11 15h1v1h-1z"/><path fill="#27313E" d="M12 15h1v1h-1z"/><path fill="#1C2333" d="M13 15h1v1h-1zM14 15h1v1h-1z"/><path fill="#777F76" d="M15 15h1v1h-1z" opacity=".035"/><path fill="#295C19" d="M18 15h1v1h-1zM19 15h1v1h-1z" opacity=".212"/><path fill="#777F76" d="M9 16h1v1H9z" opacity=".035"/><path fill="#3C485B" d="M10 16h1v1h-1z"/><path fill="#1A1F29" d="M11 16h1v1h-1z"/><path fill="#27313E" d="M12 16h1v1h-1z"/><path fill="#1C2333" d="M13 16h1v1h-1z"/><path fill="#2B3346" d="M14 16h1v1h-1z"/><path fill="#777F76" d="M15 16h1v1h-1z" opacity=".035"/><path fill="#295C19" d="M18 16h1v1h-1zM19 16h1v1h-1z" opacity=".212"/><path fill="#777F76" d="M9 17h1v1H9z" opacity=".035"/><path fill="#39445B" d="M10 17h1v1h-1z"/><path fill="#16191F" d="M11 17h1v1h-1z"/><path fill="#27313E" d="M12 17h1v1h-1z"/><path fill="#1C2333" d="M13 17h1v1h-1z"/><path fill="#2B3346" d="M14 17h1v1h-1z"/><path fill="#777F76" d="M15 17h1v1h-1z" opacity=".035"/><path fill="#295C19" d="M18 17h1v1h-1z" opacity=".212"/><path fill="#27521B" d="M4 18h1v1H4z" opacity=".639"/><path fill="#2D601B" d="M5 18h1v1H5z" opacity=".82"/><path fill="#31671B" d="M6 18h1v1H6z" opacity=".729"/><path fill="#27521B" d="M7 18h1v1H7z" opacity=".4"/><path fill="#777F76" d="M9 18h1v1H9z" opacity=".035"/><path fill="#424E60" d="M10 18h1v1h-1z"/><path fill="#16191F" d="M11 18h1v1h-1z"/><path fill="#1A1F29" d="M12 18h1v1h-1z"/><path fill="#1C2333" d="M13 18h1v1h-1z"/><path fill="#2B3346" d="M14 18h1v1h-1z"/><path fill="#777F76" d="M15 18h1v1h-1z" opacity=".035"/><path fill="#295C19" d="M17 18h1v1h-1zM19 18h1v1h-1z" opacity=".212"/><path fill="#27521B" d="M3 19h1v1H3z" opacity=".639"/><path fill="#27521B" d="M4 19h1v1H4z" opacity=".784"/><path fill="#2B5D1B" d="M5 19h1v1H5z" opacity=".808"/><path fill="#27521B" d="M6 19h1v1H6z" opacity=".871"/><path fill="#27521B" d="M7 19h1v1H7z" opacity=".784"/><path fill="#27521B" d="M8 19h1v1H8z" opacity=".4"/><path fill="#777F76" d="M9 19h1v1H9z" opacity=".035"/><path fill="#3E4A5E" d="M10 19h1v1h-1z"/><path fill="#212935" d="M11 19h1v1h-1z"/><path fill="#1A1F29" d="M12 19h1v1h-1z"/><path fill="#1C2333" d="M13 19h1v1h-1z"/><path fill="#4E5B6B" d="M14 19h1v1h-1z"/><path fill="#777F76" d="M15 19h1v1h-1z" opacity=".035"/><path fill="#295C19" d="M17 19h1v1h-1zM18 19h1v1h-1z" opacity=".212"/><path fill="#27521B" d="M3 20h1v1H3z" opacity=".639"/><path fill="#27521B" d="M4 20h1v1H4z" opacity=".341"/><path fill="#27521B" d="M5 20h1v1H5z" opacity=".871"/><path fill="#27521B" d="M6 20h1v1H6z" opacity=".922"/><path fill="#27521B" d="M7 20h1v1H7z" opacity=".871"/><path fill="#27521B" d="M8 20h1v1H8z" opacity=".784"/><path fill="#777F76" d="M9 20h1v1H9z" opacity=".035"/><path fill="#424E63" d="M10 20h1v1h-1z"/><path fill="#2F3748" d="M11 20h1v1h-1z"/><path fill="#333E50" d="M12 20h1v1h-1z"/><path fill="#171A25" d="M13 20h1v1h-1z"/><path fill="#2B3346" d="M14 20h1v1h-1z"/><path fill="#777F76" d="M15 20h1v1h-1z" opacity=".035"/><path fill="#295C19" d="M17 20h1v1h-1z" opacity=".51"/><path fill="#295C19" d="M18 20h1v1h-1z" opacity=".212"/><path fill="#27521B" d="M3 21h1v1H3z" opacity=".4"/><path fill="#27521B" d="M4 21h1v1H4z" opacity=".02"/><path fill="#27521B" d="M5 21h1v1H5z" opacity=".761"/><path fill="#27521B" d="M6 21h1v1H6z" opacity=".471"/><path fill="#27521B" d="M7 21h1v1H7z" opacity=".067"/><path fill="#27521B" d="M8 21h1v1H8z" opacity=".784"/><path fill="#777F76" d="M9 21h1v1H9z" opacity=".035"/><path fill="#3E485E" d="M10 21h1v1h-1z"/><path fill="#2F3748" d="M11 21h1v1h-1z"/><path fill="#171A25" d="M12 21h1v1h-1zM13 21h1v1h-1z"/><path fill="#2B3346" d="M14 21h1v1h-1z"/><path fill="#777F76" d="M15 21h1v1h-1z" opacity=".035"/><path fill="#295C19" d="M16 21h1v1h-1z" opacity=".38"/><path fill="#27521B" d="M2 22h1v1H2z" opacity=".4"/><path fill="#27521B" d="M3 22h1v1H3z" opacity=".345"/><path fill="#27521B" d="M4 22h1v1H4z" opacity=".031"/><path fill="#27521B" d="M5 22h1v1H5z" opacity=".784"/><path fill="#27521B" d="M6 22h1v1H6z" opacity=".078"/><path fill="#27521B" d="M7 22h1v1H7z" opacity=".055"/><path fill="#27521B" d="M8 22h1v1H8z" opacity=".4"/><path fill="#777F76" d="M9 22h1v1H9z" opacity=".035"/><path fill="#404C61" d="M10 22h1v1h-1z"/><path fill="#39445B" d="M11 22h1v1h-1z"/><path fill="#171A25" d="M12 22h1v1h-1zM13 22h1v1h-1z"/><path fill="#252F40" d="M14 22h1v1h-1z"/><path fill="#1F331B" d="M15 22h1v1h-1z"/><path fill="#27521B" d="M2 23h1v1H2z" opacity=".639"/><path fill="#27521B" d="M3 23h1v1H3z" opacity=".784"/><path fill="#27521B" d="M4 23h1v1H4z" opacity=".471"/><path fill="#27521B" d="M5 23h1v1H5z" opacity=".922"/><path fill="#27521B" d="M6 23h1v1H6z" opacity=".031"/><path fill="#27521B" d="M7 23h1v1H7z" opacity=".871"/><path fill="#777F76" d="M9 23h1v1H9z" opacity=".035"/><path fill="#424E64" d="M10 23h1v1h-1z"/><path fill="#39445B" d="M11 23h1v1h-1z"/><path fill="#171A25" d="M12 23h1v1h-1zM13 23h1v1h-1z"/><path fill="#1F2939" d="M14 23h1v1h-1z"/><path fill="#777F76" d="M15 23h1v1h-1z" opacity=".035"/><path fill="#27521B" d="M2 24h1v1H2z" opacity=".4"/><path fill="#27521B" d="M3 24h1v1H3z" opacity=".871"/><path fill="#27521B" d="M4 24h1v1H4z" opacity=".784"/><path fill="#27521B" d="M5 24h1v1H5z" opacity=".871"/><path fill="#27521B" d="M6 24h1v1H6z" opacity=".345"/><path fill="#27521B" d="M7 24h1v1H7z" opacity=".784"/><path fill="#295C19" d="M8 24h1v1H8z" opacity=".212"/><path fill="#326124" d="M9 24h1v1H9z" opacity=".239"/><path fill="#404C61" d="M10 24h1v1h-1z"/><path fill="#353E54" d="M11 24h1v1h-1z"/><path fill="#171A25" d="M12 24h1v1h-1zM13 24h1v1h-1z"/><path fill="#2B3346" d="M14 24h1v1h-1z"/><path fill="#777F76" d="M15 24h1v1h-1z" opacity=".035"/><path fill="#27521B" d="M3 25h1v1H3z" opacity=".639"/><path fill="#27521B" d="M4 25h1v1H4z" opacity=".871"/><path fill="#27521B" d="M5 25h1v1H5z" opacity=".216"/><path fill="#27521B" d="M6 25h1v1H6z" opacity=".953"/><path fill="#27521B" d="M7 25h1v1H7z" opacity=".4"/><path fill="#295C19" d="M8 25h1v1H8z" opacity=".38"/><path fill="#326124" d="M9 25h1v1H9z" opacity=".239"/><path fill="#3E485E" d="M10 25h1v1h-1z"/><path fill="#293140" d="M11 25h1v1h-1z"/><path fill="#171A25" d="M12 25h1v1h-1zM13 25h1v1h-1z"/><path fill="#2B4035" d="M14 25h1v1h-1z"/><path fill="#1D251B" d="M15 25h1v1h-1z"/><path fill="#27521B" d="M16 25h1v1h-1z" opacity=".118"/><path fill="#27521B" d="M3 26h1v1H3z" opacity=".639"/><path fill="#27521B" d="M4 26h1v1H4z" opacity=".4"/><path fill="#27521B" d="M5 26h1v1H5z" opacity=".035"/><path fill="#27521B" d="M6 26h1v1H6z" opacity=".024"/><path fill="#27521B" d="M7 26h1v1H7z" opacity=".4"/><path fill="#295C19" d="M8 26h1v1H8z" opacity=".51"/><path fill="#326124" d="M9 26h1v1H9z" opacity=".239"/><path fill="#37445B" d="M10 26h1v1h-1z"/><path fill="#1B1F2B" d="M11 26h1v1h-1z"/><path fill="#171A25" d="M12 26h1v1h-1z"/><path fill="#1B2D21" d="M13 26h1v1h-1z"/><path fill="#2F5B2F" d="M14 26h1v1h-1z"/><path fill="#27501B" d="M15 26h1v1h-1z"/><path fill="#2B5D1B" d="M16 26h1v1h-1z" opacity=".455"/><path fill="#27521B" d="M17 26h1v1h-1z" opacity=".118"/><path fill="#27521B" d="M4 27h1v1H4z" opacity=".639"/><path fill="#27521B" d="M5 27h1v1H5z" opacity=".118"/><path fill="#27521B" d="M6 27h1v1H6z" opacity=".055"/><path fill="#295C19" d="M7 27h1v1H7zM8 27h1v1H8z" opacity=".38"/><path fill="#777F76" d="M9 27h1v1H9z" opacity=".035"/><path fill="#39465C" d="M10 27h1v1h-1z"/><path fill="#232B35" d="M11 27h1v1h-1z"/><path fill="#171A25" d="M12 27h1v1h-1z"/><path fill="#214C1F" d="M13 27h1v1h-1z"/><path fill="#2F621F" d="M14 27h1v1h-1z"/><path fill="#295B1B" d="M15 27h1v1h-1z"/><path fill="#27521B" d="M16 27h1v1h-1z" opacity=".871"/><path fill="#27521B" d="M17 27h1v1h-1z" opacity=".784"/><path fill="#27521B" d="M18 27h1v1h-1z" opacity=".345"/><path fill="#27521B" d="M5 28h1v1H5z" opacity=".4"/><path fill="#27521B" d="M6 28h1v1H6z" opacity=".227"/><path fill="#295C19" d="M7 28h1v1H7z" opacity=".212"/><path fill="#295C19" d="M8 28h1v1H8z" opacity=".38"/><path fill="#777F76" d="M9 28h1v1H9z" opacity=".035"/><path fill="#39465C" d="M10 28h1v1h-1z"/><path fill="#212933" d="M11 28h1v1h-1z"/><path fill="#171A25" d="M12 28h1v1h-1z"/><path fill="#1F421F" d="M13 28h1v1h-1z"/><path fill="#2D5E21" d="M14 28h1v1h-1z"/><path fill="#23461B" d="M15 28h1v1h-1z"/><path fill="#27521B" d="M16 28h1v1h-1z" opacity=".122"/><path fill="#27521B" d="M17 28h1v1h-1z" opacity=".102"/><path fill="#27521B" d="M18 28h1v1h-1z" opacity=".188"/><path fill="#27521B" d="M19 28h1v1h-1z" opacity=".02"/><path fill="#27521B" d="M6 29h1v1H6z" opacity=".4"/><path fill="#295C19" d="M7 29h1v1H7z" opacity=".38"/><path fill="#295C19" d="M8 29h1v1H8z" opacity=".212"/><path fill="#777F76" d="M9 29h1v1H9z" opacity=".035"/><path fill="#465468" d="M10 29h1v1h-1z"/><path fill="#2D3744" d="M11 29h1v1h-1z"/><path fill="#171A25" d="M12 29h1v1h-1z"/><path fill="#1B2D21" d="M13 29h1v1h-1z"/><path fill="#2B3542" d="M14 29h1v1h-1z"/><path fill="#1D251B" d="M15 29h1v1h-1z"/><path fill="#27521B" d="M16 29h1v1h-1z" opacity=".639"/><path fill="#27521B" d="M17 29h1v1h-1z" opacity=".063"/><path fill="#27521B" d="M18 29h1v1h-1z" opacity=".216"/><path fill="#27521B" d="M19 29h1v1h-1z" opacity=".188"/><path fill="#295C19" d="M7 30h1v1H7zM8 30h1v1H8z" opacity=".212"/><path fill="#777F76" d="M9 30h1v1H9z" opacity=".035"/><path fill="#37445B" d="M10 30h1v1h-1z"/><path fill="#4E5D6F" d="M11 30h1v1h-1z"/><path fill="#171A25" d="M12 30h1v1h-1zM13 30h1v1h-1z"/><path fill="#2B4035" d="M14 30h1v1h-1z"/><path fill="#777F76" d="M15 30h1v1h-1z" opacity=".035"/><path fill="#27521B" d="M16 30h1v1h-1z" opacity=".4"/><path fill="#27521B" d="M17 30h1v1h-1zM18 30h1v1h-1z" opacity=".639"/><path fill="#27521B" d="M19 30h1v1h-1z" opacity=".063"/><path fill="#27521B" d="M20 30h1v1h-1z" opacity=".02"/><path fill="#295C19" d="M7 31h1v1H7zM8 31h1v1H8z" opacity=".212"/><path fill="#777F76" d="M9 31h1v1H9z" opacity=".035"/><path fill="#2B354C" d="M10 31h1v1h-1z"/><path fill="#2D3744" d="M11 31h1v1h-1z"/><path fill="#171A25" d="M12 31h1v1h-1zM13 31h1v1h-1z"/><path fill="#2B3346" d="M14 31h1v1h-1z"/><path fill="#1F2F1B" d="M15 31h1v1h-1z"/><path fill="#27521B" d="M18 31h1v1h-1z" opacity=".188"/><path fill="#273721" d="M19 31h1v1h-1z" opacity=".541"/><path fill="#27521B" d="M20 31h1v1h-1z" opacity=".118"/><path fill="#528F27" d="M6 32h1v1H6zM7 32h1v1H7z" opacity=".055"/><path fill="#295C19" d="M8 32h1v1H8z" opacity=".212"/><path fill="#326124" d="M9 32h1v1H9z" opacity=".239"/><path fill="#2B354C" d="M10 32h1v1h-1z"/><path fill="#1B212B" d="M11 32h1v1h-1z"/><path fill="#171A25" d="M12 32h1v1h-1zM13 32h1v1h-1z"/><path fill="#2B3346" d="M14 32h1v1h-1z"/><path fill="#777F76" d="M15 32h1v1h-1z" opacity=".035"/><path fill="#2F631B" d="M16 32h1v1h-1z" opacity=".463"/><path fill="#27521B" d="M18 32h1v1h-1zM19 32h1v1h-1zM20 32h1v1h-1z" opacity=".063"/><path fill="#528F27" d="M6 33h1v1H6zM7 33h1v1H7zM8 33h1v1H8z" opacity=".055"/><path fill="#386A23" d="M9 33h1v1H9z" opacity=".282"/><path fill="#253739" d="M10 33h1v1h-1z"/><path fill="#111316" d="M11 33h1v1h-1z"/><path fill="#171A25" d="M12 33h1v1h-1zM13 33h1v1h-1z"/><path fill="#2B3346" d="M14 33h1v1h-1z"/><path fill="#1D231B" d="M15 33h1v1h-1z"/><path fill="#528F27" d="M16 33h1v1h-1z" opacity=".055"/><path fill="#27521B" d="M17 33h1v1h-1z" opacity=".216"/><path fill="#27521B" d="M19 33h1v1h-1z" opacity=".02"/><path fill="#27521B" d="M20 33h1v1h-1z" opacity=".188"/><path fill="#528F27" d="M7 34h1v1H7z" opacity=".157"/><path fill="#598C35" d="M9 34h1v1H9z" opacity=".188"/><path fill="#2D5233" d="M10 34h1v1h-1z"/><path fill="#172717" d="M11 34h1v1h-1z"/><path fill="#171A25" d="M12 34h1v1h-1zM13 34h1v1h-1z"/><path fill="#4E5C69" d="M14 34h1v1h-1z"/><path fill="#1F2D1B" d="M15 34h1v1h-1z"/><path fill="#27521B" d="M17 34h1v1h-1z" opacity=".035"/><path fill="#27521B" d="M18 34h1v1h-1z" opacity=".216"/><path fill="#27521B" d="M19 34h1v1h-1z" opacity=".063"/><path fill="#27521B" d="M20 34h1v1h-1z" opacity=".345"/><path fill="#295C19" d="M3 35h1v1H3z" opacity=".008"/><path fill="#295C19" d="M4 35h1v1H4z" opacity=".027"/><path fill="#528F27" d="M7 35h1v1H7z" opacity=".055"/><path fill="#528F27" d="M8 35h1v1H8z" opacity=".157"/><path fill="#777F76" d="M9 35h1v1H9z" opacity=".035"/><path fill="#273542" d="M10 35h1v1h-1z"/><path fill="#275D1B" d="M11 35h1v1h-1z"/><path fill="#295D1C" d="M12 35h1v1h-1z"/><path fill="#1D3E23" d="M13 35h1v1h-1z"/><path fill="#2D3C46" d="M14 35h1v1h-1z"/><path fill="#1F2D1B" d="M15 35h1v1h-1z"/><path fill="#27521B" d="M18 35h1v1h-1z" opacity=".216"/><path fill="#27521B" d="M20 35h1v1h-1z" opacity=".345"/><path fill="#528F27" d="M6 36h1v1H6zM7 36h1v1H7zM8 36h1v1H8z" opacity=".055"/><path fill="#5B8B3A" d="M9 36h1v1H9z" opacity=".137"/><path fill="#273542" d="M10 36h1v1h-1z"/><path fill="#131816" d="M11 36h1v1h-1z"/><path fill="#275821" d="M12 36h1v1h-1z"/><path fill="#2B5F1C" d="M13 36h1v1h-1z"/><path fill="#2B4E2F" d="M14 36h1v1h-1z"/><path fill="#777F76" d="M15 36h1v1h-1z" opacity=".035"/><path fill="#27521B" d="M19 36h1v1h-1z" opacity=".4"/><path fill="#27521B" d="M20 36h1v1h-1z" opacity=".118"/><path fill="#295C19" d="M5 37h1v1H5z" opacity=".027"/><path fill="#447D21" d="M7 37h1v1H7z" opacity=".082"/><path fill="#528F27" d="M8 37h1v1H8z" opacity=".157"/><path fill="#568D2F" d="M9 37h1v1H9z" opacity=".275"/><path fill="#2D4C3E" d="M10 37h1v1h-1z"/><path fill="#151C17" d="M11 37h1v1h-1z"/><path fill="#1A2925" d="M12 37h1v1h-1zM13 37h1v1h-1z"/><path fill="#2D5E23" d="M14 37h1v1h-1z"/><path fill="#25501A" d="M15 37h1v1h-1z"/><path fill="#295C19" d="M16 37h1v1h-1z" opacity=".38"/><path fill="#27521B" d="M19 37h1v1h-1z" opacity=".063"/><path fill="#295C19" d="M2 38h1v1H2z" opacity=".016"/><path fill="#295C19" d="M3 38h1v1H3z" opacity=".043"/><path fill="#295C19" d="M4 38h1v1H4z" opacity=".082"/><path fill="#4A8623" d="M5 38h1v1H5z" opacity=".212"/><path fill="#4E8A25" d="M6 38h1v1H6z" opacity=".239"/><path fill="#468221" d="M7 38h1v1H7z" opacity=".341"/><path fill="#488621" d="M8 38h1v1H8z" opacity=".4"/><path fill="#568D2F" d="M9 38h1v1H9z" opacity=".275"/><path fill="#355F39" d="M10 38h1v1h-1z"/><path fill="#162517" d="M11 38h1v1h-1z"/><path fill="#181F25" d="M12 38h1v1h-1z"/><path fill="#171A25" d="M13 38h1v1h-1z"/><path fill="#293140" d="M14 38h1v1h-1z"/><path fill="#1F331B" d="M15 38h1v1h-1z"/><path fill="#295C19" d="M16 38h1v1h-1z" opacity=".51"/><path fill="#295C19" d="M17 38h1v1h-1z" opacity=".212"/><path fill="#295C19" d="M2 39h1v1H2z" opacity=".016"/><path fill="#295C19" d="M3 39h1v1H3z" opacity=".024"/><path fill="#447F21" d="M4 39h1v1H4z" opacity=".255"/><path fill="#295C19" d="M5 39h1v1H5z" opacity=".129"/><path fill="#4C8923" d="M6 39h1v1H6z" opacity=".118"/><path fill="#488221" d="M7 39h1v1H7z" opacity=".141"/><path fill="#39701C" d="M8 39h1v1H8z" opacity=".137"/><path fill="#4B6B41" d="M9 39h1v1H9z" opacity=".082"/><path fill="#273740" d="M10 39h1v1h-1z"/><path fill="#1F4221" d="M11 39h1v1h-1z"/><path fill="#234A25" d="M12 39h1v1h-1z"/><path fill="#181F25" d="M13 39h1v1h-1z"/><path fill="#2B3940" d="M14 39h1v1h-1z"/><path fill="#23351C" d="M15 39h1v1h-1z"/><path fill="#31671A" d="M16 39h1v1h-1z" opacity=".447"/><path fill="#2D6419" d="M17 39h1v1h-1z" opacity=".651"/><path fill="#295C19" d="M18 39h1v1h-1z" opacity=".38"/><path fill="#295C19" d="M1 40h1v1H1zM2 40h1v1H2z" opacity=".02"/><path fill="#447D1F" d="M3 40h1v1H3z" opacity=".267"/><path fill="#295C19" d="M4 40h1v1H4z" opacity=".204"/><path fill="#356C1B" d="M5 40h1v1H5z" opacity=".176"/><path fill="#295C19" d="M6 40h1v1H6z" opacity=".071"/><path fill="#295C19" d="M7 40h1v1H7z" opacity=".024"/><path fill="#295C19" d="M8 40h1v1H8z" opacity=".071"/><path fill="#536F4B" d="M9 40h1v1H9z" opacity=".067"/><path fill="#2B354C" d="M10 40h1v1h-1z"/><path fill="#1B212B" d="M11 40h1v1h-1z"/><path fill="#2B3940" d="M12 40h1v1h-1z"/><path fill="#255025" d="M13 40h1v1h-1z"/><path fill="#31563C" d="M14 40h1v1h-1z"/><path fill="#23351C" d="M15 40h1v1h-1z"/><path fill="#3E791C" d="M16 40h1v1h-1z" opacity=".404"/><path fill="#39741A" d="M17 40h1v1h-1z" opacity=".561"/><path fill="#2F6519" d="M18 40h1v1h-1z" opacity=".796"/><path fill="#295C19" d="M1 41h1v1H1z" opacity=".039"/><path fill="#447725" d="M2 41h1v1H2z" opacity=".263"/><path fill="#273123" d="M3 41h1v1H3z" opacity=".086"/><path fill="#295C19" d="M4 41h1v1H4z" opacity=".176"/><path fill="#315B23" d="M5 41h1v1H5z" opacity=".624"/><path fill="#295C19" d="M6 41h1v1H6z" opacity=".459"/><path fill="#295C19" d="M7 41h1v1H7z" opacity=".122"/><path fill="#295C19" d="M8 41h1v1H8z" opacity=".055"/><path fill="#496B40" d="M9 41h1v1H9z" opacity=".086"/><path fill="#2F3C52" d="M10 41h1v1h-1z"/><path fill="#1B212B" d="M11 41h1v1h-1z"/><path fill="#39465C" d="M12 41h1v1h-1z"/><path fill="#171A25" d="M13 41h1v1h-1z"/><path fill="#2B3940" d="M14 41h1v1h-1z"/><path fill="#253E1C" d="M15 41h1v1h-1z"/><path fill="#3E791C" d="M16 41h1v1h-1z" opacity=".404"/><path fill="#377019" d="M17 41h1v1h-1z" opacity=".737"/><path fill="#2F6519" d="M18 41h1v1h-1z" opacity=".561"/><path fill="#528F27" d="M19 41h1v1h-1z" opacity=".055"/><path fill="#27521B" d="M22 41h1v1h-1zM23 41h1v1h-1z" opacity=".118"/><path fill="#273123" d="M1 42h1v1H1z" opacity=".086"/><path fill="#4A8125" d="M2 42h1v1H2z" opacity=".216"/><path fill="#273123" d="M3 42h1v1H3z" opacity=".086"/><path fill="#33691B" d="M4 42h1v1H4z" opacity=".678"/><path fill="#273123" d="M5 42h1v1H5zM6 42h1v1H6z" opacity=".161"/><path fill="#273123" d="M7 42h1v1H7z" opacity=".541"/><path fill="#295C19" d="M8 42h1v1H8z" opacity=".043"/><path fill="#486A3E" d="M9 42h1v1H9z" opacity=".09"/><path fill="#2F3C50" d="M10 42h1v1h-1z"/><path fill="#212933" d="M11 42h1v1h-1z"/><path fill="#39445B" d="M12 42h1v1h-1z"/><path fill="#171A25" d="M13 42h1v1h-1z"/><path fill="#293140" d="M14 42h1v1h-1z"/><path fill="#1D231B" d="M15 42h1v1h-1z"/><path fill="#31671A" d="M16 42h1v1h-1z" opacity=".447"/><path fill="#336B1A" d="M17 42h1v1h-1z" opacity=".478"/><path fill="#336A1B" d="M18 42h1v1h-1z" opacity=".196"/><path fill="#27521B" d="M21 42h1v1h-1z" opacity=".063"/><path fill="#295C19" d="M1 43h1v1H1z" opacity=".114"/><path fill="#295C19" d="M2 43h1v1H2z" opacity=".38"/><path fill="#27521B" d="M3 43h1v1H3z"/><path fill="#2D601C" d="M4 43h1v1H4z"/><path fill="#295C19" d="M5 43h1v1H5z" opacity=".059"/><path fill="#273123" d="M6 43h1v1H6z" opacity=".161"/><path fill="#273123" d="M7 43h1v1H7z" opacity=".541"/><path fill="#295C19" d="M8 43h1v1H8z" opacity=".157"/><path fill="#536F4B" d="M9 43h1v1H9z" opacity=".067"/><path fill="#445263" d="M10 43h1v1h-1z"/><path fill="#2B3342" d="M11 43h1v1h-1z"/><path fill="#39445B" d="M12 43h1v1h-1z"/><path fill="#171A25" d="M13 43h1v1h-1z"/><path fill="#293140" d="M14 43h1v1h-1z"/><path fill="#1D271B" d="M15 43h1v1h-1z"/><path fill="#31671A" d="M16 43h1v1h-1z" opacity=".447"/><path fill="#3E771D" d="M17 43h1v1h-1z" opacity=".204"/><path fill="#427A1F" d="M18 43h1v1h-1z" opacity=".239"/><path fill="#27521B" d="M19 43h1v1h-1z" opacity=".012"/><path fill="#27521B" d="M20 43h1v1h-1z" opacity=".02"/><path fill="#295C19" d="M2 44h1v1H2z" opacity=".38"/><path fill="#27521B" d="M3 44h1v1H3zM4 44h1v1H4z"/><path fill="#295C19" d="M5 44h1v1H5z" opacity=".38"/><path fill="#295C19" d="M6 44h1v1H6z" opacity=".204"/><path fill="#273123" d="M7 44h1v1H7z" opacity=".541"/><path fill="#295C19" d="M8 44h1v1H8z" opacity=".149"/><path fill="#486A3E" d="M9 44h1v1H9z" opacity=".09"/><path fill="#424E62" d="M10 44h1v1h-1z"/><path fill="#505D70" d="M11 44h1v1h-1zM12 44h1v1h-1z"/><path fill="#171A25" d="M13 44h1v1h-1z"/><path fill="#293140" d="M14 44h1v1h-1z"/><path fill="#1F331B" d="M15 44h1v1h-1z"/><path fill="#295C19" d="M16 44h1v1h-1z" opacity=".38"/><path fill="#40771F" d="M17 44h1v1h-1z" opacity=".184"/><path fill="#528F27" d="M18 44h1v1h-1z" opacity=".157"/><path fill="#29561A" d="M1 45h1v1H1z" opacity=".039"/><path fill="#27521B" d="M2 45h1v1H2z"/><path fill="#272725" d="M3 45h1v1H3z" opacity=".357"/><path fill="#272725" d="M4 45h1v1H4z" opacity=".192"/><path fill="#295C19" d="M5 45h1v1H5z" opacity=".694"/><path fill="#295C19" d="M6 45h1v1H6z" opacity=".212"/><path fill="#295C19" d="M7 45h1v1H7z" opacity=".192"/><path fill="#295C19" d="M8 45h1v1H8z" opacity=".184"/><path fill="#3C6530" d="M9 45h1v1H9z" opacity=".129"/><path fill="#334056" d="M10 45h1v1h-1z"/><path fill="#39445B" d="M11 45h1v1h-1z"/><path fill="#505D70" d="M12 45h1v1h-1z"/><path fill="#171A25" d="M13 45h1v1h-1z"/><path fill="#293140" d="M14 45h1v1h-1z"/><path fill="#213C1A" d="M15 45h1v1h-1z"/><path fill="#295C19" d="M16 45h1v1h-1z" opacity=".212"/><path fill="#528F27" d="M18 45h1v1h-1z" opacity=".055"/><path fill="#295C19" d="M1 46h1v1H1z" opacity=".094"/><path fill="#273123" d="M2 46h1v1H2z" opacity=".435"/><path fill="#272725" d="M3 46h1v1H3z" opacity=".067"/><path fill="#272725" d="M4 46h1v1H4z" opacity=".192"/><path fill="#295C19" d="M5 46h1v1H5z" opacity=".51"/><path fill="#295C19" d="M6 46h1v1H6z" opacity=".38"/><path fill="#295C19" d="M7 46h1v1H7z" opacity=".408"/><path fill="#295C19" d="M8 46h1v1H8z" opacity=".098"/><path fill="#777F76" d="M9 46h1v1H9z" opacity=".035"/><path fill="#334056" d="M10 46h1v1h-1z"/><path fill="#1B1F29" d="M11 46h1v1h-1z"/><path fill="#505D70" d="M12 46h1v1h-1z"/><path fill="#171A25" d="M13 46h1v1h-1z"/><path fill="#293937" d="M14 46h1v1h-1z"/><path fill="#777F76" d="M15 46h1v1h-1z" opacity=".035"/><path fill="#27521B" d="M19 46h1v1h-1z" opacity=".012"/><path fill="#27521B" d="M20 46h1v1h-1z" opacity=".031"/><path fill="#27521B" d="M21 46h1v1h-1z" opacity=".012"/><path fill="#29561A" d="M2 47h1v1H2z" opacity=".498"/><path fill="#272725" d="M3 47h1v1H3z" opacity=".082"/><path fill="#27521B" d="M4 47h1v1H4z" opacity=".149"/><path fill="#295C19" d="M5 47h1v1H5z" opacity=".212"/><path fill="#295C19" d="M6 47h1v1H6z" opacity=".114"/><path fill="#295C19" d="M7 47h1v1H7z" opacity=".141"/><path fill="#295C19" d="M8 47h1v1H8z" opacity=".063"/><path fill="#777F76" d="M9 47h1v1H9z" opacity=".035"/><path fill="#334056" d="M10 47h1v1h-1z"/><path fill="#17191D" d="M11 47h1v1h-1z"/><path fill="#505D70" d="M12 47h1v1h-1z"/><path fill="#171A25" d="M13 47h1v1h-1z"/><path fill="#293140" d="M14 47h1v1h-1z"/><path fill="#777F76" d="M15 47h1v1h-1z" opacity=".035"/><path fill="#27521B" d="M18 47h1v1h-1z" opacity=".188"/><path fill="#27521B" d="M19 47h1v1h-1z" opacity=".122"/><path fill="#27521B" d="M20 47h1v1h-1zM21 47h1v1h-1z" opacity=".004"/><path fill="#27521B" d="M22 47h1v1h-1z" opacity=".02"/><path fill="#29541A" d="M2 48h1v1H2z" opacity=".651"/><path fill="#273123" d="M3 48h1v1H3z" opacity=".082"/><path fill="#27521B" d="M4 48h1v1H4z" opacity=".573"/><path fill="#29541A" d="M5 48h1v1H5z" opacity=".427"/><path fill="#295C19" d="M6 48h1v1H6z" opacity=".035"/><path fill="#295C19" d="M7 48h1v1H7z" opacity=".055"/><path fill="#2E5F1F" d="M9 48h1v1H9z" opacity=".404"/><path fill="#2F3C50" d="M10 48h1v1h-1z"/><path fill="#17191D" d="M11 48h1v1h-1z"/><path fill="#39445B" d="M12 48h1v1h-1z"/><path fill="#171A25" d="M13 48h1v1h-1z"/><path fill="#293140" d="M14 48h1v1h-1z"/><path fill="#777F76" d="M15 48h1v1h-1z" opacity=".035"/><path fill="#27521B" d="M17 48h1v1h-1z" opacity=".784"/><path fill="#27521B" d="M18 48h1v1h-1z" opacity=".122"/><path fill="#27521B" d="M19 48h1v1h-1z" opacity=".016"/><path fill="#27521B" d="M20 48h1v1h-1zM21 48h1v1h-1z" opacity=".004"/><path fill="#273721" d="M2 49h1v1H2z" opacity=".294"/><path fill="#27521B" d="M3 49h1v1H3z" opacity=".784"/><path fill="#295619" d="M4 49h1v1H4z" opacity=".471"/><path fill="#295619" d="M5 49h1v1H5z" opacity=".149"/><path fill="#295C19" d="M6 49h1v1H6z" opacity=".043"/><path fill="#295C19" d="M7 49h1v1H7z" opacity=".039"/><path fill="#295C19" d="M8 49h1v1H8z" opacity=".38"/><path fill="#2B5D1B" d="M9 49h1v1H9z" opacity=".624"/><path fill="#2F3C50" d="M10 49h1v1h-1z"/><path fill="#111114" d="M11 49h1v1h-1z"/><path fill="#39445B" d="M12 49h1v1h-1z"/><path fill="#171A25" d="M13 49h1v1h-1z"/><path fill="#293140" d="M14 49h1v1h-1z"/><path fill="#777F76" d="M15 49h1v1h-1z" opacity=".035"/><path fill="#27521B" d="M16 49h1v1h-1z" opacity=".639"/><path fill="#27521B" d="M17 49h1v1h-1z" opacity=".345"/><path fill="#27521B" d="M18 49h1v1h-1z" opacity=".02"/><path fill="#27521B" d="M19 49h1v1h-1zM20 49h1v1h-1z" opacity=".004"/><path fill="#273721" d="M2 50h1v1H2z" opacity=".047"/><path fill="#273721" d="M3 50h1v1H3z" opacity=".161"/><path fill="#29541A" d="M4 50h1v1H4z" opacity=".129"/><path fill="#295C19" d="M5 50h1v1H5z" opacity=".082"/><path fill="#295C19" d="M6 50h1v1H6z" opacity=".133"/><path fill="#2F6819" d="M7 50h1v1H7z" opacity=".608"/><path fill="#295C19" d="M8 50h1v1H8z" opacity=".38"/><path fill="#326124" d="M9 50h1v1H9z" opacity=".239"/><path fill="#334056" d="M10 50h1v1h-1z"/><path fill="#101114" d="M11 50h1v1h-1z"/><path fill="#293140" d="M12 50h1v1h-1z"/><path fill="#171A25" d="M13 50h1v1h-1z"/><path fill="#293140" d="M14 50h1v1h-1z"/><path fill="#777F76" d="M15 50h1v1h-1z" opacity=".035"/><path fill="#27521B" d="M16 50h1v1h-1z" opacity=".4"/><path fill="#27521B" d="M17 50h1v1h-1z" opacity=".031"/><path fill="#27521B" d="M18 50h1v1h-1zM19 50h1v1h-1z" opacity=".004"/><path fill="#273721" d="M2 51h1v1H2z" opacity=".008"/><path fill="#273721" d="M3 51h1v1H3z" opacity=".086"/><path fill="#273721" d="M4 51h1v1H4z" opacity=".294"/><path fill="#295C19" d="M5 51h1v1H5z" opacity=".38"/><path fill="#295C19" d="M6 51h1v1H6z" opacity=".584"/><path fill="#39741A" d="M7 51h1v1H7z" opacity=".561"/><path fill="#295C19" d="M8 51h1v1H8z" opacity=".38"/><path fill="#777F76" d="M9 51h1v1H9z" opacity=".035"/><path fill="#334056" d="M10 51h1v1h-1z"/><path fill="#0F1012" d="M11 51h1v1h-1z"/><path fill="#293140" d="M12 51h1v1h-1z"/><path fill="#171A25" d="M13 51h1v1h-1z"/><path fill="#293140" d="M14 51h1v1h-1z"/><path fill="#1F2F1B" d="M15 51h1v1h-1z"/><path fill="#27521B" d="M16 51h1v1h-1z" opacity=".063"/><path fill="#27521B" d="M17 51h1v1h-1zM18 51h1v1h-1z" opacity=".004"/><path fill="#273721" d="M3 52h1v1H3z" opacity=".294"/><path fill="#27521B" d="M4 52h1v1H4z" opacity=".118"/><path fill="#295C19" d="M5 52h1v1H5z" opacity=".212"/><path fill="#31671A" d="M6 52h1v1H6z" opacity=".447"/><path fill="#336C19" d="M7 52h1v1H7z" opacity=".706"/><path fill="#295C19" d="M8 52h1v1H8z" opacity=".38"/><path fill="#777F76" d="M9 52h1v1H9z" opacity=".035"/><path fill="#2F3C50" d="M10 52h1v1h-1z"/><path fill="#0A0A0B" d="M11 52h1v1h-1z"/><path fill="#94937E" d="M12 52h1v1h-1z"/><path fill="#171A25" d="M13 52h1v1h-1z"/><path fill="#293140" d="M14 52h1v1h-1z"/><path fill="#777F76" d="M15 52h1v1h-1z" opacity=".035"/><path fill="#27521B" d="M17 52h1v1h-1z" opacity=".004"/><path fill="#273721" d="M3 53h1v1H3z" opacity=".294"/><path fill="#27521B" d="M4 53h1v1H4z" opacity=".639"/><path fill="#295C19" d="M5 53h1v1H5z" opacity=".212"/><path fill="#316A19" d="M6 53h1v1H6z" opacity=".69"/><path fill="#336B19" d="M7 53h1v1H7z" opacity=".769"/><path fill="#295C19" d="M8 53h1v1H8z" opacity=".38"/><path fill="#777F76" d="M9 53h1v1H9z" opacity=".035"/><path fill="#21293E" d="M10 53h1v1h-1z"/><path fill="#94937E" d="M11 53h1v1h-1z"/><path fill="#29271A" d="M12 53h1v1h-1z"/><path fill="#94937E" d="M13 53h1v1h-1z"/><path fill="#293140" d="M14 53h1v1h-1z"/><path fill="#777F76" d="M15 53h1v1h-1z" opacity=".035"/><path fill="#27521B" d="M5 54h1v1H5z" opacity=".4"/><path fill="#295C19" d="M6 54h1v1H6z" opacity=".694"/><path fill="#337119" d="M7 54h1v1H7z" opacity=".855"/><path fill="#295C19" d="M8 54h1v1H8z" opacity=".38"/><path fill="#2E5F1F" d="M9 54h1v1H9z" opacity=".404"/><path fill="#21293E" d="M10 54h1v1h-1z"/><path fill="#94937E" d="M11 54h1v1h-1z"/><path fill="#29271A" d="M12 54h1v1h-1z"/><path fill="#94937E" d="M13 54h1v1h-1z"/><path fill="#293140" d="M14 54h1v1h-1z"/><path fill="#777F76" d="M15 54h1v1h-1z" opacity=".035"/><path fill="#295C19" d="M6 55h1v1H6z" opacity=".612"/><path fill="#336B1A" d="M7 55h1v1H7z" opacity=".478"/><path fill="#336B19" d="M8 55h1v1H8z" opacity=".831"/><path fill="#2E5F1F" d="M9 55h1v1H9z" opacity=".404"/><path fill="#213C2D" d="M10 55h1v1h-1z"/><path fill="#0D0F11" d="M11 55h1v1h-1z"/><path fill="#29271A" d="M12 55h1v1h-1z"/><path fill="#0D0F11" d="M13 55h1v1h-1z"/><path fill="#293140" d="M14 55h1v1h-1z"/><path fill="#777F76" d="M15 55h1v1h-1z" opacity=".035"/><path fill="#528F27" d="M19 55h1v1h-1z" opacity=".055"/><path fill="#295C19" d="M6 56h1v1H6z" opacity=".212"/><path fill="#295C19" d="M7 56h1v1H7z" opacity=".38"/><path fill="#2D6119" d="M8 56h1v1H8z" opacity=".537"/><path fill="#326A1A" d="M9 56h1v1H9z" opacity=".765"/><path fill="#274E25" d="M10 56h1v1h-1z"/><path fill="#162514" d="M11 56h1v1h-1z"/><path fill="#15181B" d="M12 56h1v1h-1z"/><path fill="#0C0D0F" d="M13 56h1v1h-1z"/><path fill="#293140" d="M14 56h1v1h-1z"/><path fill="#777F76" d="M15 56h1v1h-1z" opacity=".035"/><path fill="#528F27" d="M18 56h1v1h-1z" opacity=".157"/><path fill="#528F27" d="M19 56h1v1h-1z" opacity=".106"/><path fill="#295C19" d="M7 57h1v1H7z" opacity=".212"/><path fill="#295C19" d="M8 57h1v1H8z" opacity=".38"/><path fill="#2E5F1F" d="M9 57h1v1H9z" opacity=".404"/><path fill="#295625" d="M10 57h1v1h-1z"/><path fill="#1D4816" d="M11 57h1v1h-1z"/><path fill="#111711" d="M12 57h1v1h-1z"/><path fill="#0F1013" d="M13 57h1v1h-1z"/><path fill="#293140" d="M14 57h1v1h-1z"/><path fill="#777F76" d="M15 57h1v1h-1z" opacity=".035"/><path fill="#528F27" d="M18 57h1v1h-1z" opacity=".055"/><path fill="#528F27" d="M19 57h1v1h-1z" opacity=".247"/><path fill="#2E5F1F" d="M9 58h1v1H9z" opacity=".404"/><path fill="#213C2D" d="M10 58h1v1h-1z"/><path fill="#162515" d="M11 58h1v1h-1z"/><path fill="#1C4016" d="M12 58h1v1h-1z"/><path fill="#152113" d="M13 58h1v1h-1z"/><path fill="#293140" d="M14 58h1v1h-1z"/><path fill="#777F76" d="M15 58h1v1h-1z" opacity=".035"/><path fill="#528F27" d="M20 58h1v1h-1z" opacity=".055"/><path fill="#777F76" d="M9 59h1v1H9z" opacity=".035"/><path fill="#21293E" d="M10 59h1v1h-1z"/><path fill="#0E1012" d="M11 59h1v1h-1z"/><path fill="#0B0B0D" d="M12 59h1v1h-1z"/><path fill="#141F11" d="M13 59h1v1h-1z"/><path fill="#293937" d="M14 59h1v1h-1z"/><path fill="#1D271B" d="M15 59h1v1h-1z"/><path fill="#528F27" d="M21 59h1v1h-1z" opacity=".055"/><path fill="#777F76" d="M9 60h1v1H9z" opacity=".035"/><path fill="#1F2739" d="M10 60h1v1h-1z"/><path fill="#0B0B0D" d="M11 60h1v1h-1z"/><path fill="#787869" d="M12 60h1v1h-1z"/><path fill="#0A0A0B" d="M13 60h1v1h-1z"/><path fill="#293140" d="M14 60h1v1h-1z"/><path fill="#1D271B" d="M15 60h1v1h-1z"/><path fill="#295C19" d="M16 60h1v1h-1zM17 60h1v1h-1z" opacity=".38"/><path fill="#528F27" d="M21 60h1v1h-1z" opacity=".055"/><path fill="#777F76" d="M9 61h1v1H9z" opacity=".035"/><path fill="#252D42" d="M10 61h1v1h-1z"/><path fill="#94937E" d="M11 61h1v1h-1z"/><path fill="#29271A" d="M12 61h1v1h-1z"/><path fill="#94937E" d="M13 61h1v1h-1z"/><path fill="#293140" d="M14 61h1v1h-1z"/><path fill="#777F76" d="M15 61h1v1h-1z" opacity=".035"/><path fill="#295C19" d="M17 61h1v1h-1zM18 61h1v1h-1z" opacity=".38"/><path fill="#528F27" d="M21 61h1v1h-1z" opacity=".055"/><path fill="#528F27" d="M6 62h1v1H6zM7 62h1v1H7z" opacity=".016"/><path fill="#528F27" d="M8 62h1v1H8z" opacity=".031"/><path fill="#777F76" d="M9 62h1v1H9z" opacity=".035"/><path fill="#334058" d="M10 62h1v1h-1z"/><path fill="#0A0A0B" d="M11 62h1v1h-1z"/><path fill="#94937E" d="M12 62h1v1h-1z"/><path fill="#0A0A0B" d="M13 62h1v1h-1z"/><path fill="#1B1D2B" d="M14 62h1v1h-1z"/><path fill="#777F76" d="M15 62h1v1h-1z" opacity=".035"/><path fill="#39731C" d="M17 62h1v1h-1z" opacity=".333"/><path fill="#295C19" d="M18 62h1v1h-1z" opacity=".51"/><path fill="#528F27" d="M5 63h1v1H5z" opacity=".008"/><path fill="#528F27" d="M6 63h1v1H6z" opacity=".106"/><path fill="#528F27" d="M7 63h1v1H7z" opacity=".204"/><path fill="#528F27" d="M8 63h1v1H8z" opacity=".157"/><path fill="#618846" d="M9 63h1v1H9z" opacity=".09"/><path fill="#334058" d="M10 63h1v1h-1z"/><path fill="#0A0A0B" d="M11 63h1v1h-1zM12 63h1v1h-1zM13 63h1v1h-1z"/><path fill="#121315" d="M14 63h1v1h-1z"/><path fill="#777F76" d="M15 63h1v1h-1z" opacity=".035"/><path fill="#295C19" d="M17 63h1v1h-1z" opacity=".212"/><path fill="#377119" d="M18 63h1v1h-1z" opacity=".647"/><path fill="#528F27" d="M5 64h1v1H5z" opacity=".016"/><path fill="#528F27" d="M6 64h1v1H6z" opacity=".157"/><path fill="#528F27" d="M7 64h1v1H7z" opacity=".329"/><path fill="#528F27" d="M8 64h1v1H8z" opacity=".522"/><path fill="#5F8943" d="M9 64h1v1H9z" opacity=".09"/><path fill="#212937" d="M10 64h1v1h-1z"/><path fill="#0A0A0B" d="M11 64h1v1h-1z"/><path fill="#232935" d="M12 64h1v1h-1z"/><path fill="#0A0A0B" d="M13 64h1v1h-1zM14 64h1v1h-1z"/><path fill="#777F76" d="M15 64h1v1h-1z" opacity=".035"/><path fill="#528F27" d="M17 64h1v1h-1z" opacity=".055"/><path fill="#397519" d="M18 64h1v1h-1z" opacity=".686"/><path fill="#528F27" d="M6 65h1v1H6z" opacity=".157"/><path fill="#528F27" d="M7 65h1v1H7z" opacity=".431"/><path fill="#528F27" d="M8 65h1v1H8z" opacity=".329"/><path fill="#528F27" d="M9 65h1v1H9z" opacity=".031"/><path fill="#777F76" d="M10 65h1v1h-1z" opacity=".035"/><path fill="#0A0A0B" d="M11 65h1v1h-1z"/><path fill="#181A1F" d="M12 65h1v1h-1z"/><path fill="#0A0A0B" d="M13 65h1v1h-1z"/><path fill="#777F76" d="M14 65h1v1h-1z" opacity=".035"/><path fill="#356E1B" d="M17 65h1v1h-1z" opacity=".294"/><path fill="#356F1A" d="M18 65h1v1h-1z" opacity=".506"/><path fill="#528F27" d="M7 66h1v1H7z" opacity=".29"/><path fill="#528F27" d="M8 66h1v1H8z" opacity=".012"/><path fill="#777F76" d="M10 66h1v1h-1z" opacity=".035"/><path fill="#0D0F11" d="M11 66h1v1h-1z"/><path fill="#94937E" d="M12 66h1v1h-1z"/><path fill="#0A0A0B" d="M13 66h1v1h-1z"/><path fill="#777F76" d="M14 66h1v1h-1z" opacity=".035"/><path fill="#295C19" d="M17 66h1v1h-1z" opacity=".212"/><path fill="#295C19" d="M18 66h1v1h-1z" opacity=".38"/><path fill="#777F76" d="M1 67h1v1H1zM2 67h1v1H2zM3 67h1v1H3z" opacity=".035"/><path fill="#528F27" d="M7 67h1v1H7z" opacity=".055"/><path fill="#528F27" d="M8 67h1v1H8z" opacity=".047"/><path fill="#777F76" d="M9 67h1v1H9z" opacity=".035"/><path fill="#3C445B" d="M10 67h1v1h-1z"/><path fill="#94937E" d="M11 67h1v1h-1zM12 67h1v1h-1zM13 67h1v1h-1z"/><path fill="#0F1115" d="M14 67h1v1h-1z"/><path fill="#777F76" d="M15 67h1v1h-1z" opacity=".035"/><path fill="#295C19" d="M16 67h1v1h-1z" opacity=".212"/><path fill="#295C19" d="M17 67h1v1h-1z" opacity=".38"/><path fill="#777F76" d="M21 67h1v1h-1zM22 67h1v1h-1zM23 67h1v1h-1zM0 68h1v1H0z" opacity=".035"/><path fill="#94937E" d="M1 68h1v1H1zM2 68h1v1H2z"/><path fill="#6F6D54" d="M3 68h1v1H3z"/><path fill="#777F76" d="M4 68h1v1H4zM5 68h1v1H5zM6 68h1v1H6zM8 68h1v1H8zM9 68h1v1H9z" opacity=".035"/><path fill="#13151C" d="M10 68h1v1h-1z"/><path fill="#94937E" d="M11 68h1v1h-1z"/><path fill="#6F6D54" d="M12 68h1v1h-1zM13 68h1v1h-1z"/><path fill="#0F1115" d="M14 68h1v1h-1z"/><path fill="#1D271B" d="M15 68h1v1h-1z"/><path fill="#326124" d="M16 68h1v1h-1z" opacity=".239"/><path fill="#777F76" d="M18 68h1v1h-1zM19 68h1v1h-1zM20 68h1v1h-1z" opacity=".035"/><path fill="#94937E" d="M21 68h1v1h-1zM22 68h1v1h-1z"/><path fill="#6F6D54" d="M23 68h1v1h-1z"/><path fill="#777F76" d="M24 68h1v1h-1zM0 69h1v1H0z" opacity=".035"/><path fill="#8D4433" d="M1 69h1v1H1z"/><path fill="#565435" d="M2 69h1v1H2z"/><path fill="#8D4433" d="M3 69h1v1H3z"/><path fill="#13151C" d="M4 69h1v1H4z"/><path fill="#3C445B" d="M5 69h1v1H5zM6 69h1v1H6z"/><path fill="#777F76" d="M7 69h1v1H7z" opacity=".035"/><path fill="#3C445B" d="M8 69h1v1H8z"/><path fill="#232937" d="M9 69h1v1H9z"/><path fill="#0D0F11" d="M10 69h1v1h-1z"/><path fill="#8D4433" d="M11 69h1v1h-1z"/><path fill="#29271A" d="M12 69h1v1h-1z"/><path fill="#833C29" d="M13 69h1v1h-1z"/><path fill="#111812" d="M14 69h1v1h-1z"/><path fill="#17211F" d="M15 69h1v1h-1z"/><path fill="#13151C" d="M16 69h1v1h-1z"/><path fill="#777F76" d="M17 69h1v1h-1z" opacity=".035"/><path fill="#3C445B" d="M18 69h1v1h-1z"/><path fill="#191C27" d="M19 69h1v1h-1z"/><path fill="#13151C" d="M20 69h1v1h-1z"/><path fill="#8D4433" d="M21 69h1v1h-1z"/><path fill="#565435" d="M22 69h1v1h-1z"/><path fill="#8D4433" d="M23 69h1v1h-1z"/><path fill="#777F76" d="M24 69h1v1h-1zM0 70h1v1H0z" opacity=".035"/><path fill="#6F6D54" d="M1 70h1v1H1z"/><path fill="#565435" d="M2 70h1v1H2z"/><path fill="#6F6D54" d="M3 70h1v1H3z"/><path fill="#0D0F11" d="M4 70h1v1H4zM5 70h1v1H5z"/><path fill="#0F1013" d="M6 70h1v1H6z"/><path fill="#100D0D" d="M7 70h1v1H7z"/><path fill="#0D0F11" d="M8 70h1v1H8zM9 70h1v1H9zM10 70h1v1h-1z"/><path fill="#94937E" d="M11 70h1v1h-1z"/><path fill="#0D0F11" d="M12 70h1v1h-1z"/><path fill="#94937E" d="M13 70h1v1h-1z"/><path fill="#0D0F11" d="M14 70h1v1h-1zM15 70h1v1h-1zM16 70h1v1h-1z"/><path fill="#100D0D" d="M17 70h1v1h-1z"/><path fill="#0F1013" d="M18 70h1v1h-1z"/><path fill="#0D0F11" d="M19 70h1v1h-1zM20 70h1v1h-1z"/><path fill="#6F6D54" d="M21 70h1v1h-1z"/><path fill="#565435" d="M22 70h1v1h-1z"/><path fill="#6F6D54" d="M23 70h1v1h-1z"/><path fill="#777F76" d="M24 70h1v1h-1zM1 71h1v1H1z" opacity=".035"/><path fill="#6F6D54" d="M2 71h1v1H2z"/><path fill="#0D0F11" d="M3 71h1v1H3zM4 71h1v1H4zM5 71h1v1H5z"/><path fill="#100D0D" d="M6 71h1v1H6z"/><path fill="#372723" d="M7 71h1v1H7z"/><path fill="#2D1C1C" d="M8 71h1v1H8z"/><path fill="#0D0F11" d="M9 71h1v1H9zM10 71h1v1h-1zM11 71h1v1h-1z"/><path fill="#5F5F42" d="M12 71h1v1h-1z"/><path fill="#0D0F11" d="M13 71h1v1h-1zM14 71h1v1h-1zM15 71h1v1h-1z"/><path fill="#2D1C1C" d="M16 71h1v1h-1zM17 71h1v1h-1z"/><path fill="#100D0D" d="M18 71h1v1h-1z"/><path fill="#0D0F11" d="M19 71h1v1h-1zM20 71h1v1h-1zM21 71h1v1h-1z"/><path fill="#6F6D54" d="M22 71h1v1h-1z"/><path fill="#777F76" d="M23 71h1v1h-1zM2 72h1v1H2zM3 72h1v1H3zM4 72h1v1H4zM5 72h1v1H5zM6 72h1v1H6z" opacity=".035"/><path fill="#0D0F11" d="M7 72h1v1H7zM8 72h1v1H8z"/><path fill="#100D0D" d="M9 72h1v1H9zM10 72h1v1h-1z"/><path fill="#29271A" d="M11 72h1v1h-1z"/><path fill="#130C0B" d="M12 72h1v1h-1z"/><path fill="#29271A" d="M13 72h1v1h-1z"/><path fill="#100D0D" d="M14 72h1v1h-1zM15 72h1v1h-1z"/><path fill="#0D0F11" d="M16 72h1v1h-1zM17 72h1v1h-1z"/><path fill="#777F76" d="M18 72h1v1h-1zM19 72h1v1h-1zM20 72h1v1h-1zM21 72h1v1h-1zM22 72h1v1h-1zM5 73h1v1H5z" opacity=".035"/><path fill="#0D0F11" d="M6 73h1v1H6z"/><path fill="#777F76" d="M7 73h1v1H7zM8 73h1v1H8zM9 73h1v1H9z" opacity=".035"/><path fill="#100D0D" d="M10 73h1v1h-1z"/><path fill="#6F6D54" d="M11 73h1v1h-1z"/><path fill="#130C0B" d="M12 73h1v1h-1z"/><path fill="#6F6D54" d="M13 73h1v1h-1z"/><path fill="#100D0D" d="M14 73h1v1h-1z"/><path fill="#777F76" d="M15 73h1v1h-1zM16 73h1v1h-1zM17 73h1v1h-1z" opacity=".035"/><path fill="#0D0F11" d="M18 73h1v1h-1z"/><path fill="#777F76" d="M19 73h1v1h-1zM5 74h1v1H5z" opacity=".035"/><path fill="#0D0F11" d="M6 74h1v1H6z"/><path fill="#777F76" d="M7 74h1v1H7zM9 74h1v1H9z" opacity=".035"/><path fill="#0D0F11" d="M10 74h1v1h-1zM11 74h1v1h-1z"/><path fill="#6F6D54" d="M12 74h1v1h-1z"/><path fill="#0D0F11" d="M13 74h1v1h-1zM14 74h1v1h-1z"/><path fill="#777F76" d="M15 74h1v1h-1zM17 74h1v1h-1z" opacity=".035"/><path fill="#0D0F11" d="M18 74h1v1h-1z"/><path fill="#777F76" d="M19 74h1v1h-1zM6 75h1v1H6zM10 75h1v1h-1z" opacity=".035"/><path fill="#0D0F11" d="M11 75h1v1h-1zM12 75h1v1h-1zM13 75h1v1h-1z"/><path fill="#777F76" d="M14 75h1v1h-1zM18 75h1v1h-1zM10 76h1v1h-1z" opacity=".035"/><path fill="#171D1F" d="M11 76h1v1h-1z"/><path fill="#120F0F" d="M12 76h1v1h-1z"/><path fill="#171D1F" d="M13 76h1v1h-1z"/><path fill="#777F76" d="M14 76h1v1h-1zM10 77h1v1h-1z" opacity=".035"/><path fill="#1A1515" d="M11 77h1v1h-1z"/><path fill="#0D0F11" d="M12 77h1v1h-1z"/><path fill="#2D1C1C" d="M13 77h1v1h-1z"/><path fill="#777F76" d="M14 77h1v1h-1zM10 78h1v1h-1z" opacity=".035"/><path fill="#0D0F11" d="M11 78h1v1h-1zM12 78h1v1h-1zM13 78h1v1h-1z"/><path fill="#777F76" d="M14 78h1v1h-1zM10 79h1v1h-1z" opacity=".035"/><path fill="#1A1515" d="M11 79h1v1h-1z"/><path fill="#130F10" d="M12 79h1v1h-1z"/><path fill="#2D1C1C" d="M13 79h1v1h-1z"/><path fill="#777F76" d="M14 79h1v1h-1zM10 80h1v1h-1z" opacity=".035"/><path fill="#1A1515" d="M11 80h1v1h-1z"/><path fill="#130F10" d="M12 80h1v1h-1z"/><path fill="#1A1515" d="M13 80h1v1h-1z"/><path fill="#777F76" d="M14 80h1v1h-1zM10 81h1v1h-1z" opacity=".035"/><path fill="#0D0F11" d="M11 81h1v1h-1zM12 81h1v1h-1zM13 81h1v1h-1z"/><path fill="#777F76" d="M14 81h1v1h-1zM10 82h1v1h-1z" opacity=".035"/><path fill="#1A1515" d="M11 82h1v1h-1z"/><path fill="#100D0D" d="M12 82h1v1h-1z"/><path fill="#2D1C1C" d="M13 82h1v1h-1z"/><path fill="#777F76" d="M14 82h1v1h-1zM10 83h1v1h-1z" opacity=".035"/><path fill="#1A1515" d="M11 83h1v1h-1z"/><path fill="#120E0E" d="M12 83h1v1h-1z"/><path fill="#2D1C1C" d="M13 83h1v1h-1z"/><path fill="#777F76" d="M14 83h1v1h-1zM9 84h1v1H9zM10 84h1v1h-1z" opacity=".035"/><path fill="#0D0F11" d="M11 84h1v1h-1zM12 84h1v1h-1zM13 84h1v1h-1z"/><path fill="#777F76" d="M14 84h1v1h-1zM15 84h1v1h-1zM8 85h1v1H8z" opacity=".035"/><path fill="#0D0F11" d="M9 85h1v1H9zM10 85h1v1h-1z"/><path fill="#110D0E" d="M11 85h1v1h-1z"/><path fill="#2D1C1C" d="M12 85h1v1h-1z"/><path fill="#130F0F" d="M13 85h1v1h-1z"/><path fill="#0D0F11" d="M14 85h1v1h-1zM15 85h1v1h-1z"/><path fill="#777F76" d="M16 85h1v1h-1zM7 86h1v1H7z" opacity=".035"/><path fill="#0D0F11" d="M8 86h1v1H8z"/><path fill="#777F76" d="M9 86h1v1H9z" opacity=".035"/><path fill="#0D0F11" d="M10 86h1v1h-1z"/><path fill="#130F0F" d="M11 86h1v1h-1z"/><path fill="#94937E" d="M12 86h1v1h-1z"/><path fill="#130F0F" d="M13 86h1v1h-1z"/><path fill="#0D0F11" d="M14 86h1v1h-1z"/><path fill="#777F76" d="M15 86h1v1h-1z" opacity=".035"/><path fill="#0D0F11" d="M16 86h1v1h-1z"/><path fill="#777F76" d="M17 86h1v1h-1zM7 87h1v1H7z" opacity=".035"/><path fill="#0D0F11" d="M8 87h1v1H8z"/><path fill="#777F76" d="M9 87h1v1H9z" opacity=".035"/><path fill="#0D0F11" d="M10 87h1v1h-1z"/><path fill="#94937E" d="M11 87h1v1h-1zM12 87h1v1h-1zM13 87h1v1h-1z"/><path fill="#0D0F11" d="M14 87h1v1h-1z"/><path fill="#777F76" d="M15 87h1v1h-1z" opacity=".035"/><path fill="#0D0F11" d="M16 87h1v1h-1z"/><path fill="#777F76" d="M17 87h1v1h-1zM8 88h1v1H8zM10 88h1v1h-1z" opacity=".035"/><path fill="#8D4433" d="M11 88h1v1h-1z"/><path fill="#5F5F42" d="M12 88h1v1h-1z"/><path fill="#833C29" d="M13 88h1v1h-1z"/><path fill="#777F76" d="M14 88h1v1h-1zM16 88h1v1h-1zM10 89h1v1h-1z" opacity=".035"/><path fill="#94937E" d="M11 89h1v1h-1z"/><path fill="#0D0F11" d="M12 89h1v1h-1z"/><path fill="#94937E" d="M13 89h1v1h-1z"/><path fill="#777F76" d="M14 89h1v1h-1zM10 90h1v1h-1z" opacity=".035"/><path fill="#0D0F11" d="M11 90h1v1h-1z"/><path fill="#5F5F42" d="M12 90h1v1h-1z"/><path fill="#0D0F11" d="M13 90h1v1h-1z"/><path fill="#777F76" d="M14 90h1v1h-1zM10 91h1v1h-1z" opacity=".035"/><path fill="#0D0F11" d="M11 91h1v1h-1zM12 91h1v1h-1zM13 91h1v1h-1z"/><path fill="#777F76" d="M14 91h1v1h-1zM11 92h1v1h-1z" opacity=".035"/><path fill="#0D0F11" d="M12 92h1v1h-1z"/><path fill="#777F76" d="M13 92h1v1h-1zM12 93h1v1h-1z" opacity=".035"/></svg>