<svg xmlns="http://www.w3.org/2000/svg" width="64" height="64" shape-rendering="crispEdges"><path fill="#343440" d="M25 5h1v1h-1z" opacity=".498"/><path fill="#353441" d="M26 5h1v1h-1zM27 5h1v1h-1zM28 5h1v1h-1zM36 5h1v1h-1zM37 5h1v1h-1zM38 5h1v1h-1z"/><path fill="#343440" d="M39 5h1v1h-1zM25 6h1v1h-1z" opacity=".498"/><path fill="#353441" d="M26 6h1v1h-1zM27 6h1v1h-1zM28 6h1v1h-1zM29 6h1v1h-1zM30 6h1v1h-1zM31 6h1v1h-1zM32 6h1v1h-1zM33 6h1v1h-1zM34 6h1v1h-1zM35 6h1v1h-1zM36 6h1v1h-1zM37 6h1v1h-1zM38 6h1v1h-1z"/><path fill="#343440" d="M39 6h1v1h-1zM25 7h1v1h-1z" opacity=".498"/><path fill="#353441" d="M26 7h1v1h-1zM27 7h1v1h-1zM28 7h1v1h-1zM29 7h1v1h-1zM30 7h1v1h-1zM31 7h1v1h-1zM32 7h1v1h-1zM33 7h1v1h-1zM34 7h1v1h-1zM35 7h1v1h-1zM36 7h1v1h-1zM37 7h1v1h-1zM38 7h1v1h-1z"/><path fill="#343440" d="M39 7h1v1h-1zM25 8h1v1h-1z" opacity=".498"/><path fill="#353441" d="M26 8h1v1h-1zM27 8h1v1h-1zM28 8h1v1h-1zM29 8h1v1h-1zM30 8h1v1h-1zM31 8h1v1h-1zM32 8h1v1h-1zM33 8h1v1h-1zM34 8h1v1h-1zM35 8h1v1h-1zM36 8h1v1h-1z"/><path fill="#B18B8B" d="M37 8h1v1h-1z"/><path fill="#353441" d="M38 8h1v1h-1z"/><path fill="#343440" d="M39 8h1v1h-1z" opacity=".498"/><path d="M23 9h1v1h-1z" opacity=".004"/><path fill="#353441" d="M24 9h1v1h-1zM25 9h1v1h-1zM26 9h1v1h-1zM27 9h1v1h-1z"/><path fill="#B18B8B" d="M28 9h1v1h-1z"/><path fill="#353441" d="M29 9h1v1h-1zM30 9h1v1h-1zM31 9h1v1h-1zM32 9h1v1h-1zM33 9h1v1h-1zM34 9h1v1h-1zM35 9h1v1h-1z"/><path fill="#B18B8B" d="M36 9h1v1h-1z"/><path fill="#353441" d="M37 9h1v1h-1zM38 9h1v1h-1zM39 9h1v1h-1zM40 9h1v1h-1z"/><path fill="#373749" d="M41 9h1v1h-1z" opacity=".055"/><path fill="#2E2E46" d="M20 10h1v1h-1zM21 10h1v1h-1z" opacity=".043"/><path fill="#353441" d="M22 10h1v1h-1zM23 10h1v1h-1zM24 10h1v1h-1z"/><path fill="#736066" d="M25 10h1v1h-1z"/><path fill="#B18B8B" d="M26 10h1v1h-1z"/><path fill="#353441" d="M27 10h1v1h-1z"/><path fill="#B18B8B" d="M28 10h1v1h-1zM29 10h1v1h-1zM30 10h1v1h-1z"/><path fill="#353441" d="M31 10h1v1h-1zM32 10h1v1h-1zM33 10h1v1h-1z"/><path fill="#B18B8B" d="M34 10h1v1h-1zM35 10h1v1h-1zM36 10h1v1h-1z"/><path fill="#353441" d="M37 10h1v1h-1z"/><path fill="#B18B8B" d="M38 10h1v1h-1zM39 10h1v1h-1zM40 10h1v1h-1z"/><path fill="#353441" d="M41 10h1v1h-1zM42 10h1v1h-1z"/><path fill="#323240" d="M43 10h1v1h-1zM44 10h1v1h-1z" opacity=".141"/><path fill="#3B3B3B" d="M18 11h1v1h-1z" opacity=".051"/><path fill="#343440" d="M19 11h1v1h-1z" opacity=".498"/><path fill="#343441" d="M20 11h1v1h-1zM21 11h1v1h-1z" opacity=".522"/><path fill="#736066" d="M22 11h1v1h-1zM23 11h1v1h-1zM24 11h1v1h-1z"/><path fill="#927578" d="M25 11h1v1h-1z"/><path fill="#B18B8B" d="M26 11h1v1h-1z"/><path fill="#353441" d="M27 11h1v1h-1z"/><path fill="#B18B8B" d="M28 11h1v1h-1zM29 11h1v1h-1zM30 11h1v1h-1z"/><path fill="#353441" d="M31 11h1v1h-1zM32 11h1v1h-1zM33 11h1v1h-1z"/><path fill="#B18B8B" d="M34 11h1v1h-1zM35 11h1v1h-1zM36 11h1v1h-1z"/><path fill="#353441" d="M37 11h1v1h-1z"/><path fill="#B18B8B" d="M38 11h1v1h-1zM39 11h1v1h-1zM40 11h1v1h-1z"/><path fill="#736066" d="M41 11h1v1h-1zM42 11h1v1h-1z"/><path fill="#353341" d="M43 11h1v1h-1zM44 11h1v1h-1z" opacity=".569"/><path fill="#343440" d="M45 11h1v1h-1z" opacity=".498"/><path fill="#383040" d="M46 11h1v1h-1z" opacity=".125"/><path fill="#393942" d="M18 12h1v1h-1z" opacity=".106"/><path fill="#353441" d="M19 12h1v1h-1zM20 12h1v1h-1zM21 12h1v1h-1z"/><path fill="#B18B8B" d="M22 12h1v1h-1zM23 12h1v1h-1zM24 12h1v1h-1zM25 12h1v1h-1zM26 12h1v1h-1z"/><path fill="#353441" d="M27 12h1v1h-1z"/><path fill="#B18B8B" d="M28 12h1v1h-1zM29 12h1v1h-1zM30 12h1v1h-1z"/><path fill="#353441" d="M31 12h1v1h-1zM32 12h1v1h-1zM33 12h1v1h-1z"/><path fill="#B18B8B" d="M34 12h1v1h-1zM35 12h1v1h-1zM36 12h1v1h-1z"/><path fill="#353441" d="M37 12h1v1h-1z"/><path fill="#B18B8B" d="M38 12h1v1h-1zM39 12h1v1h-1zM40 12h1v1h-1zM41 12h1v1h-1zM42 12h1v1h-1z"/><path fill="#353441" d="M43 12h1v1h-1zM44 12h1v1h-1zM45 12h1v1h-1z"/><path fill="#373343" d="M46 12h1v1h-1z" opacity=".255"/><path fill="#363640" d="M15 13h1v1h-1zM16 13h1v1h-1z" opacity=".204"/><path fill="#353441" d="M17 13h1v1h-1zM18 13h1v1h-1z"/><path fill="#B18B8B" d="M19 13h1v1h-1zM20 13h1v1h-1zM21 13h1v1h-1zM22 13h1v1h-1zM23 13h1v1h-1zM24 13h1v1h-1zM25 13h1v1h-1zM26 13h1v1h-1zM27 13h1v1h-1zM28 13h1v1h-1zM29 13h1v1h-1zM30 13h1v1h-1z"/><path fill="#353441" d="M31 13h1v1h-1zM32 13h1v1h-1zM33 13h1v1h-1z"/><path fill="#B18B8B" d="M34 13h1v1h-1zM35 13h1v1h-1zM36 13h1v1h-1z"/><path fill="#353441" d="M37 13h1v1h-1z"/><path fill="#B18B8B" d="M38 13h1v1h-1zM39 13h1v1h-1zM40 13h1v1h-1zM41 13h1v1h-1zM42 13h1v1h-1zM43 13h1v1h-1zM44 13h1v1h-1zM45 13h1v1h-1z"/><path fill="#353441" d="M46 13h1v1h-1zM47 13h1v1h-1z"/><path fill="#363441" d="M48 13h1v1h-1zM49 13h1v1h-1z" opacity=".369"/><path fill="#353441" d="M13 14h1v1h-1z" opacity=".851"/><path fill="#353441" d="M14 14h1v1h-1zM15 14h1v1h-1zM16 14h1v1h-1zM17 14h1v1h-1z"/><path fill="#B18B8B" d="M18 14h1v1h-1zM19 14h1v1h-1zM20 14h1v1h-1zM21 14h1v1h-1zM22 14h1v1h-1zM23 14h1v1h-1zM24 14h1v1h-1zM25 14h1v1h-1zM26 14h1v1h-1zM27 14h1v1h-1z"/><path fill="#353441" d="M28 14h1v1h-1z"/><path fill="#B18B8B" d="M29 14h1v1h-1zM30 14h1v1h-1zM31 14h1v1h-1z"/><path fill="#353441" d="M32 14h1v1h-1z"/><path fill="#B18B8B" d="M33 14h1v1h-1zM34 14h1v1h-1zM35 14h1v1h-1z"/><path fill="#353441" d="M36 14h1v1h-1z"/><path fill="#B18B8B" d="M37 14h1v1h-1zM38 14h1v1h-1zM39 14h1v1h-1zM40 14h1v1h-1zM41 14h1v1h-1zM42 14h1v1h-1zM43 14h1v1h-1zM44 14h1v1h-1zM45 14h1v1h-1zM46 14h1v1h-1z"/><path fill="#353441" d="M47 14h1v1h-1zM48 14h1v1h-1zM49 14h1v1h-1zM50 14h1v1h-1z"/><path fill="#353441" d="M51 14h1v1h-1z" opacity=".957"/><path fill="#555" d="M10 15h1v1h-1z" opacity=".012"/><path fill="#353341" d="M11 15h1v1h-1z" opacity=".506"/><path fill="#353441" d="M12 15h1v1h-1zM13 15h1v1h-1z"/><path fill="#B18B8B" d="M14 15h1v1h-1zM15 15h1v1h-1zM16 15h1v1h-1zM17 15h1v1h-1z"/><path fill="#353441" d="M18 15h1v1h-1zM19 15h1v1h-1zM20 15h1v1h-1zM21 15h1v1h-1zM22 15h1v1h-1z"/><path fill="#B18B8B" d="M23 15h1v1h-1zM24 15h1v1h-1zM25 15h1v1h-1zM26 15h1v1h-1zM27 15h1v1h-1z"/><path fill="#353441" d="M28 15h1v1h-1z"/><path fill="#B18B8B" d="M29 15h1v1h-1zM30 15h1v1h-1zM31 15h1v1h-1z"/><path fill="#353441" d="M32 15h1v1h-1z"/><path fill="#B18B8B" d="M33 15h1v1h-1zM34 15h1v1h-1zM35 15h1v1h-1z"/><path fill="#353441" d="M36 15h1v1h-1z"/><path fill="#B18B8B" d="M37 15h1v1h-1zM38 15h1v1h-1zM39 15h1v1h-1zM40 15h1v1h-1zM41 15h1v1h-1z"/><path fill="#353441" d="M42 15h1v1h-1zM43 15h1v1h-1zM44 15h1v1h-1zM45 15h1v1h-1zM46 15h1v1h-1z"/><path fill="#B18B8B" d="M47 15h1v1h-1zM48 15h1v1h-1zM49 15h1v1h-1zM50 15h1v1h-1z"/><path fill="#353441" d="M51 15h1v1h-1zM52 15h1v1h-1z"/><path fill="#353340" d="M53 15h1v1h-1z" opacity=".545"/><path fill="#373743" d="M54 15h1v1h-1z" opacity=".09"/><path fill="#555" d="M10 16h1v1h-1z" opacity=".012"/><path fill="#353341" d="M11 16h1v1h-1z" opacity=".506"/><path fill="#353441" d="M12 16h1v1h-1zM13 16h1v1h-1z"/><path fill="#B18B8B" d="M14 16h1v1h-1zM15 16h1v1h-1zM16 16h1v1h-1zM17 16h1v1h-1z"/><path fill="#353441" d="M18 16h1v1h-1zM19 16h1v1h-1zM20 16h1v1h-1zM21 16h1v1h-1zM22 16h1v1h-1z"/><path fill="#B18B8B" d="M23 16h1v1h-1zM24 16h1v1h-1zM25 16h1v1h-1zM26 16h1v1h-1zM27 16h1v1h-1z"/><path fill="#353441" d="M28 16h1v1h-1z"/><path fill="#B18B8B" d="M29 16h1v1h-1zM30 16h1v1h-1zM31 16h1v1h-1z"/><path fill="#353441" d="M32 16h1v1h-1z"/><path fill="#B18B8B" d="M33 16h1v1h-1zM34 16h1v1h-1zM35 16h1v1h-1z"/><path fill="#353441" d="M36 16h1v1h-1z"/><path fill="#B18B8B" d="M37 16h1v1h-1zM38 16h1v1h-1zM39 16h1v1h-1zM40 16h1v1h-1zM41 16h1v1h-1z"/><path fill="#353441" d="M42 16h1v1h-1zM43 16h1v1h-1zM44 16h1v1h-1zM45 16h1v1h-1zM46 16h1v1h-1z"/><path fill="#B18B8B" d="M47 16h1v1h-1zM48 16h1v1h-1zM49 16h1v1h-1zM50 16h1v1h-1z"/><path fill="#353441" d="M51 16h1v1h-1zM52 16h1v1h-1z"/><path fill="#353340" d="M53 16h1v1h-1z" opacity=".545"/><path fill="#373743" d="M54 16h1v1h-1z" opacity=".09"/><path fill="#363441" d="M9 17h1v1H9z" opacity=".596"/><path fill="#353441" d="M10 17h1v1h-1z"/><path fill="#736066" d="M11 17h1v1h-1z"/><path fill="#B18B8B" d="M12 17h1v1h-1zM13 17h1v1h-1zM14 17h1v1h-1zM15 17h1v1h-1zM16 17h1v1h-1zM17 17h1v1h-1zM18 17h1v1h-1zM19 17h1v1h-1zM20 17h1v1h-1zM21 17h1v1h-1z"/><path fill="#353441" d="M22 17h1v1h-1zM23 17h1v1h-1zM24 17h1v1h-1zM25 17h1v1h-1zM26 17h1v1h-1zM27 17h1v1h-1zM28 17h1v1h-1zM29 17h1v1h-1zM30 17h1v1h-1z"/><path fill="#B18B8B" d="M31 17h1v1h-1z"/><path fill="#353441" d="M32 17h1v1h-1z"/><path fill="#B18B8B" d="M33 17h1v1h-1z"/><path fill="#353441" d="M34 17h1v1h-1zM35 17h1v1h-1zM36 17h1v1h-1zM37 17h1v1h-1zM38 17h1v1h-1zM39 17h1v1h-1zM40 17h1v1h-1zM41 17h1v1h-1zM42 17h1v1h-1z"/><path fill="#B18B8B" d="M43 17h1v1h-1zM44 17h1v1h-1zM45 17h1v1h-1zM46 17h1v1h-1zM47 17h1v1h-1zM48 17h1v1h-1zM49 17h1v1h-1zM50 17h1v1h-1zM51 17h1v1h-1zM52 17h1v1h-1z"/><path fill="#736066" d="M53 17h1v1h-1z"/><path fill="#353441" d="M54 17h1v1h-1z"/><path fill="#353341" d="M55 17h1v1h-1z" opacity=".816"/><path fill="#373240" d="M8 18h1v1H8z" opacity=".22"/><path fill="#353441" d="M9 18h1v1H9z"/><path fill="#B18B8B" d="M10 18h1v1h-1zM11 18h1v1h-1zM12 18h1v1h-1zM13 18h1v1h-1zM14 18h1v1h-1zM15 18h1v1h-1zM16 18h1v1h-1zM17 18h1v1h-1zM18 18h1v1h-1z"/><path fill="#353441" d="M19 18h1v1h-1z"/><path fill="#EF1A1A" d="M20 18h1v1h-1zM21 18h1v1h-1zM22 18h1v1h-1zM23 18h1v1h-1zM24 18h1v1h-1zM25 18h1v1h-1zM26 18h1v1h-1zM27 18h1v1h-1z"/><path fill="#353441" d="M28 18h1v1h-1zM29 18h1v1h-1zM30 18h1v1h-1zM31 18h1v1h-1zM32 18h1v1h-1zM33 18h1v1h-1zM34 18h1v1h-1zM35 18h1v1h-1zM36 18h1v1h-1z"/><path fill="#EF1A1A" d="M37 18h1v1h-1zM38 18h1v1h-1zM39 18h1v1h-1zM40 18h1v1h-1zM41 18h1v1h-1zM42 18h1v1h-1zM43 18h1v1h-1zM44 18h1v1h-1z"/><path fill="#353441" d="M45 18h1v1h-1z"/><path fill="#B18B8B" d="M46 18h1v1h-1zM47 18h1v1h-1zM48 18h1v1h-1zM49 18h1v1h-1zM50 18h1v1h-1zM51 18h1v1h-1zM52 18h1v1h-1zM53 18h1v1h-1zM54 18h1v1h-1z"/><path fill="#353441" d="M55 18h1v1h-1z"/><path fill="#343441" d="M56 18h1v1h-1z" opacity=".478"/><path fill="#353441" d="M8 19h1v1H8z"/><path fill="#B18B8B" d="M9 19h1v1H9zM10 19h1v1h-1zM11 19h1v1h-1zM12 19h1v1h-1zM13 19h1v1h-1zM14 19h1v1h-1zM15 19h1v1h-1zM16 19h1v1h-1zM17 19h1v1h-1z"/><path fill="#353441" d="M18 19h1v1h-1z"/><path fill="#EF1A1A" d="M19 19h1v1h-1zM20 19h1v1h-1zM21 19h1v1h-1zM22 19h1v1h-1zM23 19h1v1h-1zM24 19h1v1h-1zM25 19h1v1h-1zM26 19h1v1h-1zM27 19h1v1h-1zM28 19h1v1h-1zM29 19h1v1h-1zM30 19h1v1h-1z"/><path fill="#353441" d="M31 19h1v1h-1zM32 19h1v1h-1zM33 19h1v1h-1z"/><path fill="#EF1A1A" d="M34 19h1v1h-1zM35 19h1v1h-1zM36 19h1v1h-1zM37 19h1v1h-1zM38 19h1v1h-1zM39 19h1v1h-1zM40 19h1v1h-1zM41 19h1v1h-1zM42 19h1v1h-1zM43 19h1v1h-1zM44 19h1v1h-1zM45 19h1v1h-1z"/><path fill="#353441" d="M46 19h1v1h-1zM47 19h1v1h-1z"/><path fill="#B18B8B" d="M48 19h1v1h-1zM49 19h1v1h-1zM50 19h1v1h-1zM51 19h1v1h-1zM52 19h1v1h-1zM53 19h1v1h-1zM54 19h1v1h-1zM55 19h1v1h-1z"/><path fill="#353441" d="M56 19h1v1h-1z"/><path fill="#353441" d="M6 20h1v1H6zM7 20h1v1H7z" opacity=".831"/><path fill="#353441" d="M8 20h1v1H8z"/><path fill="#B18B8B" d="M9 20h1v1H9zM10 20h1v1h-1zM11 20h1v1h-1zM12 20h1v1h-1zM13 20h1v1h-1zM14 20h1v1h-1zM15 20h1v1h-1zM16 20h1v1h-1z"/><path fill="#353441" d="M17 20h1v1h-1z"/><path fill="#EF1A1A" d="M18 20h1v1h-1zM19 20h1v1h-1zM20 20h1v1h-1zM21 20h1v1h-1zM22 20h1v1h-1zM23 20h1v1h-1zM24 20h1v1h-1zM25 20h1v1h-1zM26 20h1v1h-1zM27 20h1v1h-1zM28 20h1v1h-1zM29 20h1v1h-1zM30 20h1v1h-1zM31 20h1v1h-1z"/><path fill="#353441" d="M32 20h1v1h-1z"/><path fill="#EF1A1A" d="M33 20h1v1h-1zM34 20h1v1h-1zM35 20h1v1h-1zM36 20h1v1h-1zM37 20h1v1h-1zM38 20h1v1h-1zM39 20h1v1h-1zM40 20h1v1h-1zM41 20h1v1h-1zM42 20h1v1h-1zM43 20h1v1h-1zM44 20h1v1h-1zM45 20h1v1h-1zM46 20h1v1h-1z"/><path fill="#353441" d="M47 20h1v1h-1z"/><path fill="#B18B8B" d="M48 20h1v1h-1zM49 20h1v1h-1zM50 20h1v1h-1zM51 20h1v1h-1zM52 20h1v1h-1zM53 20h1v1h-1zM54 20h1v1h-1zM55 20h1v1h-1z"/><path fill="#353441" d="M56 20h1v1h-1z"/><path fill="#353441" d="M57 20h1v1h-1zM58 20h1v1h-1z" opacity=".996"/><path fill="#353441" d="M6 21h1v1H6zM7 21h1v1H7z" opacity=".831"/><path fill="#353441" d="M8 21h1v1H8z"/><path fill="#B18B8B" d="M9 21h1v1H9zM10 21h1v1h-1zM11 21h1v1h-1zM12 21h1v1h-1zM13 21h1v1h-1zM14 21h1v1h-1zM15 21h1v1h-1zM16 21h1v1h-1z"/><path fill="#353441" d="M17 21h1v1h-1z"/><path fill="#EF1A1A" d="M18 21h1v1h-1zM19 21h1v1h-1zM20 21h1v1h-1zM21 21h1v1h-1zM22 21h1v1h-1zM23 21h1v1h-1zM24 21h1v1h-1zM25 21h1v1h-1zM26 21h1v1h-1zM27 21h1v1h-1zM28 21h1v1h-1zM29 21h1v1h-1zM30 21h1v1h-1zM31 21h1v1h-1z"/><path fill="#353441" d="M32 21h1v1h-1z"/><path fill="#EF1A1A" d="M33 21h1v1h-1zM34 21h1v1h-1zM35 21h1v1h-1zM36 21h1v1h-1zM37 21h1v1h-1zM38 21h1v1h-1zM39 21h1v1h-1zM40 21h1v1h-1zM41 21h1v1h-1zM42 21h1v1h-1zM43 21h1v1h-1zM44 21h1v1h-1zM45 21h1v1h-1zM46 21h1v1h-1z"/><path fill="#353441" d="M47 21h1v1h-1z"/><path fill="#B18B8B" d="M48 21h1v1h-1zM49 21h1v1h-1zM50 21h1v1h-1zM51 21h1v1h-1zM52 21h1v1h-1zM53 21h1v1h-1zM54 21h1v1h-1zM55 21h1v1h-1z"/><path fill="#353441" d="M56 21h1v1h-1z"/><path fill="#353441" d="M57 21h1v1h-1zM58 21h1v1h-1z" opacity=".996"/><path fill="#353441" d="M6 22h1v1H6zM7 22h1v1H7z"/><path fill="#B18B8B" d="M8 22h1v1H8zM9 22h1v1H9zM10 22h1v1h-1zM11 22h1v1h-1zM12 22h1v1h-1zM13 22h1v1h-1zM14 22h1v1h-1z"/><path fill="#353441" d="M15 22h1v1h-1zM16 22h1v1h-1z"/><path fill="#EF1A1A" d="M17 22h1v1h-1zM18 22h1v1h-1zM19 22h1v1h-1zM20 22h1v1h-1zM21 22h1v1h-1zM22 22h1v1h-1zM23 22h1v1h-1zM24 22h1v1h-1zM25 22h1v1h-1zM26 22h1v1h-1zM27 22h1v1h-1zM28 22h1v1h-1zM29 22h1v1h-1zM30 22h1v1h-1zM31 22h1v1h-1z"/><path fill="#353441" d="M32 22h1v1h-1z"/><path fill="#EF1A1A" d="M33 22h1v1h-1zM34 22h1v1h-1zM35 22h1v1h-1zM36 22h1v1h-1zM37 22h1v1h-1zM38 22h1v1h-1zM39 22h1v1h-1zM40 22h1v1h-1zM41 22h1v1h-1zM42 22h1v1h-1zM43 22h1v1h-1zM44 22h1v1h-1zM45 22h1v1h-1zM46 22h1v1h-1zM47 22h1v1h-1z"/><path fill="#353441" d="M48 22h1v1h-1zM49 22h1v1h-1z"/><path fill="#B18B8B" d="M50 22h1v1h-1zM51 22h1v1h-1zM52 22h1v1h-1zM53 22h1v1h-1zM54 22h1v1h-1zM55 22h1v1h-1zM56 22h1v1h-1z"/><path fill="#353441" d="M57 22h1v1h-1zM58 22h1v1h-1zM6 23h1v1H6zM7 23h1v1H7z"/><path fill="#B18B8B" d="M8 23h1v1H8zM9 23h1v1H9zM10 23h1v1h-1zM11 23h1v1h-1zM12 23h1v1h-1zM13 23h1v1h-1zM14 23h1v1h-1z"/><path fill="#353441" d="M15 23h1v1h-1zM16 23h1v1h-1z"/><path fill="#EF1A1A" d="M17 23h1v1h-1zM18 23h1v1h-1zM19 23h1v1h-1zM20 23h1v1h-1zM21 23h1v1h-1zM22 23h1v1h-1zM23 23h1v1h-1zM24 23h1v1h-1zM25 23h1v1h-1zM26 23h1v1h-1zM27 23h1v1h-1zM28 23h1v1h-1zM29 23h1v1h-1zM30 23h1v1h-1zM31 23h1v1h-1z"/><path fill="#353441" d="M32 23h1v1h-1z"/><path fill="#EF1A1A" d="M33 23h1v1h-1zM34 23h1v1h-1zM35 23h1v1h-1zM36 23h1v1h-1zM37 23h1v1h-1zM38 23h1v1h-1zM39 23h1v1h-1zM40 23h1v1h-1zM41 23h1v1h-1zM42 23h1v1h-1zM43 23h1v1h-1zM44 23h1v1h-1zM45 23h1v1h-1zM46 23h1v1h-1zM47 23h1v1h-1z"/><path fill="#353441" d="M48 23h1v1h-1zM49 23h1v1h-1z"/><path fill="#B18B8B" d="M50 23h1v1h-1zM51 23h1v1h-1zM52 23h1v1h-1zM53 23h1v1h-1zM54 23h1v1h-1zM55 23h1v1h-1zM56 23h1v1h-1z"/><path fill="#353441" d="M57 23h1v1h-1zM58 23h1v1h-1zM6 24h1v1H6zM7 24h1v1H7z"/><path fill="#B18B8B" d="M8 24h1v1H8zM9 24h1v1H9zM10 24h1v1h-1zM11 24h1v1h-1zM12 24h1v1h-1zM13 24h1v1h-1z"/><path fill="#353441" d="M14 24h1v1h-1z"/><path fill="#EF1A1A" d="M15 24h1v1h-1zM16 24h1v1h-1zM17 24h1v1h-1zM18 24h1v1h-1zM19 24h1v1h-1zM20 24h1v1h-1zM21 24h1v1h-1zM22 24h1v1h-1zM23 24h1v1h-1zM24 24h1v1h-1zM25 24h1v1h-1zM26 24h1v1h-1zM27 24h1v1h-1zM28 24h1v1h-1zM29 24h1v1h-1zM30 24h1v1h-1zM31 24h1v1h-1z"/><path fill="#353441" d="M32 24h1v1h-1z"/><path fill="#EF1A1A" d="M33 24h1v1h-1zM34 24h1v1h-1zM35 24h1v1h-1zM36 24h1v1h-1zM37 24h1v1h-1zM38 24h1v1h-1zM39 24h1v1h-1zM40 24h1v1h-1zM41 24h1v1h-1zM42 24h1v1h-1zM43 24h1v1h-1zM44 24h1v1h-1zM45 24h1v1h-1zM46 24h1v1h-1zM47 24h1v1h-1zM48 24h1v1h-1zM49 24h1v1h-1z"/><path fill="#353441" d="M50 24h1v1h-1z"/><path fill="#B18B8B" d="M51 24h1v1h-1zM52 24h1v1h-1zM53 24h1v1h-1zM54 24h1v1h-1zM55 24h1v1h-1zM56 24h1v1h-1z"/><path fill="#353441" d="M57 24h1v1h-1zM58 24h1v1h-1zM6 25h1v1H6zM7 25h1v1H7z"/><path fill="#B18B8B" d="M8 25h1v1H8zM9 25h1v1H9zM10 25h1v1h-1zM11 25h1v1h-1zM12 25h1v1h-1zM13 25h1v1h-1z"/><path fill="#353441" d="M14 25h1v1h-1z"/><path fill="#EF1A1A" d="M15 25h1v1h-1zM16 25h1v1h-1zM17 25h1v1h-1zM18 25h1v1h-1zM19 25h1v1h-1zM20 25h1v1h-1zM21 25h1v1h-1zM22 25h1v1h-1zM23 25h1v1h-1zM24 25h1v1h-1zM25 25h1v1h-1zM26 25h1v1h-1zM27 25h1v1h-1zM28 25h1v1h-1zM29 25h1v1h-1zM30 25h1v1h-1zM31 25h1v1h-1z"/><path fill="#353441" d="M32 25h1v1h-1z"/><path fill="#EF1A1A" d="M33 25h1v1h-1zM34 25h1v1h-1zM35 25h1v1h-1zM36 25h1v1h-1zM37 25h1v1h-1zM38 25h1v1h-1zM39 25h1v1h-1zM40 25h1v1h-1zM41 25h1v1h-1zM42 25h1v1h-1zM43 25h1v1h-1zM44 25h1v1h-1zM45 25h1v1h-1zM46 25h1v1h-1zM47 25h1v1h-1zM48 25h1v1h-1zM49 25h1v1h-1z"/><path fill="#353441" d="M50 25h1v1h-1z"/><path fill="#B18B8B" d="M51 25h1v1h-1zM52 25h1v1h-1zM53 25h1v1h-1zM54 25h1v1h-1zM55 25h1v1h-1zM56 25h1v1h-1z"/><path fill="#353441" d="M57 25h1v1h-1zM58 25h1v1h-1zM6 26h1v1H6zM7 26h1v1H7z"/><path fill="#B18B8B" d="M8 26h1v1H8zM9 26h1v1H9zM10 26h1v1h-1zM11 26h1v1h-1zM12 26h1v1h-1zM13 26h1v1h-1z"/><path fill="#353441" d="M14 26h1v1h-1z"/><path fill="#EF1A1A" d="M15 26h1v1h-1zM16 26h1v1h-1zM17 26h1v1h-1zM18 26h1v1h-1zM19 26h1v1h-1zM20 26h1v1h-1zM21 26h1v1h-1zM22 26h1v1h-1zM23 26h1v1h-1zM24 26h1v1h-1zM25 26h1v1h-1zM26 26h1v1h-1zM27 26h1v1h-1zM28 26h1v1h-1zM29 26h1v1h-1zM30 26h1v1h-1zM31 26h1v1h-1z"/><path fill="#353441" d="M32 26h1v1h-1z"/><path fill="#EF1A1A" d="M33 26h1v1h-1zM34 26h1v1h-1zM35 26h1v1h-1zM36 26h1v1h-1zM37 26h1v1h-1zM38 26h1v1h-1zM39 26h1v1h-1zM40 26h1v1h-1zM41 26h1v1h-1zM42 26h1v1h-1zM43 26h1v1h-1zM44 26h1v1h-1zM45 26h1v1h-1zM46 26h1v1h-1zM47 26h1v1h-1zM48 26h1v1h-1zM49 26h1v1h-1z"/><path fill="#353441" d="M50 26h1v1h-1z"/><path fill="#B18B8B" d="M51 26h1v1h-1zM52 26h1v1h-1zM53 26h1v1h-1zM54 26h1v1h-1zM55 26h1v1h-1zM56 26h1v1h-1z"/><path fill="#353441" d="M57 26h1v1h-1zM58 26h1v1h-1zM6 27h1v1H6zM7 27h1v1H7z"/><path fill="#B18B8B" d="M8 27h1v1H8zM9 27h1v1H9zM10 27h1v1h-1zM11 27h1v1h-1zM12 27h1v1h-1z"/><path fill="#353441" d="M13 27h1v1h-1z"/><path fill="#EF1A1A" d="M14 27h1v1h-1zM15 27h1v1h-1zM16 27h1v1h-1zM17 27h1v1h-1zM18 27h1v1h-1zM19 27h1v1h-1zM20 27h1v1h-1zM21 27h1v1h-1zM22 27h1v1h-1zM23 27h1v1h-1zM24 27h1v1h-1zM25 27h1v1h-1zM26 27h1v1h-1zM27 27h1v1h-1zM28 27h1v1h-1zM29 27h1v1h-1zM30 27h1v1h-1zM31 27h1v1h-1z"/><path fill="#353441" d="M32 27h1v1h-1z"/><path fill="#EF1A1A" d="M33 27h1v1h-1zM34 27h1v1h-1zM35 27h1v1h-1zM36 27h1v1h-1zM37 27h1v1h-1zM38 27h1v1h-1zM39 27h1v1h-1zM40 27h1v1h-1zM41 27h1v1h-1zM42 27h1v1h-1zM43 27h1v1h-1zM44 27h1v1h-1zM45 27h1v1h-1zM46 27h1v1h-1zM47 27h1v1h-1zM48 27h1v1h-1zM49 27h1v1h-1zM50 27h1v1h-1z"/><path fill="#353441" d="M51 27h1v1h-1z"/><path fill="#B18B8B" d="M52 27h1v1h-1zM53 27h1v1h-1zM54 27h1v1h-1zM55 27h1v1h-1zM56 27h1v1h-1z"/><path fill="#353441" d="M57 27h1v1h-1zM58 27h1v1h-1zM6 28h1v1H6zM7 28h1v1H7z"/><path fill="#B18B8B" d="M8 28h1v1H8zM9 28h1v1H9zM10 28h1v1h-1z"/><path fill="#736066" d="M11 28h1v1h-1z"/><path fill="#353441" d="M12 28h1v1h-1zM13 28h1v1h-1zM14 28h1v1h-1z"/><path fill="#EF1A1A" d="M15 28h1v1h-1zM16 28h1v1h-1zM17 28h1v1h-1zM18 28h1v1h-1zM19 28h1v1h-1zM20 28h1v1h-1zM21 28h1v1h-1zM22 28h1v1h-1zM23 28h1v1h-1zM24 28h1v1h-1zM25 28h1v1h-1zM26 28h1v1h-1zM27 28h1v1h-1zM28 28h1v1h-1zM29 28h1v1h-1zM30 28h1v1h-1zM31 28h1v1h-1z"/><path fill="#353441" d="M32 28h1v1h-1z"/><path fill="#EF1A1A" d="M33 28h1v1h-1zM34 28h1v1h-1zM35 28h1v1h-1zM36 28h1v1h-1zM37 28h1v1h-1zM38 28h1v1h-1zM39 28h1v1h-1zM40 28h1v1h-1zM41 28h1v1h-1zM42 28h1v1h-1zM43 28h1v1h-1zM44 28h1v1h-1zM45 28h1v1h-1zM46 28h1v1h-1zM47 28h1v1h-1zM48 28h1v1h-1zM49 28h1v1h-1z"/><path fill="#353441" d="M50 28h1v1h-1zM51 28h1v1h-1zM52 28h1v1h-1z"/><path fill="#736066" d="M53 28h1v1h-1z"/><path fill="#B18B8B" d="M54 28h1v1h-1zM55 28h1v1h-1zM56 28h1v1h-1z"/><path fill="#353441" d="M57 28h1v1h-1zM58 28h1v1h-1zM6 29h1v1H6zM7 29h1v1H7z"/><path fill="#B18B8B" d="M8 29h1v1H8zM9 29h1v1H9z"/><path fill="#353441" d="M10 29h1v1h-1z"/><path fill="#736066" d="M11 29h1v1h-1z"/><path fill="#B18B8B" d="M12 29h1v1h-1zM13 29h1v1h-1z"/><path fill="#353441" d="M14 29h1v1h-1zM15 29h1v1h-1zM16 29h1v1h-1zM17 29h1v1h-1z"/><path fill="#EF1A1A" d="M18 29h1v1h-1zM19 29h1v1h-1zM20 29h1v1h-1zM21 29h1v1h-1zM22 29h1v1h-1zM23 29h1v1h-1zM24 29h1v1h-1zM25 29h1v1h-1zM26 29h1v1h-1zM27 29h1v1h-1zM28 29h1v1h-1z"/><path fill="#353441" d="M29 29h1v1h-1zM30 29h1v1h-1zM31 29h1v1h-1zM32 29h1v1h-1zM33 29h1v1h-1zM34 29h1v1h-1zM35 29h1v1h-1z"/><path fill="#EF1A1A" d="M36 29h1v1h-1zM37 29h1v1h-1zM38 29h1v1h-1zM39 29h1v1h-1zM40 29h1v1h-1zM41 29h1v1h-1zM42 29h1v1h-1zM43 29h1v1h-1zM44 29h1v1h-1zM45 29h1v1h-1zM46 29h1v1h-1z"/><path fill="#353441" d="M47 29h1v1h-1zM48 29h1v1h-1zM49 29h1v1h-1zM50 29h1v1h-1z"/><path fill="#B18B8B" d="M51 29h1v1h-1zM52 29h1v1h-1z"/><path fill="#736066" d="M53 29h1v1h-1z"/><path fill="#353441" d="M54 29h1v1h-1z"/><path fill="#B18B8B" d="M55 29h1v1h-1zM56 29h1v1h-1z"/><path fill="#353441" d="M57 29h1v1h-1zM58 29h1v1h-1zM6 30h1v1H6zM7 30h1v1H7z"/><path fill="#B18B8B" d="M8 30h1v1H8zM9 30h1v1H9z"/><path fill="#353441" d="M10 30h1v1h-1z"/><path fill="#736066" d="M11 30h1v1h-1z"/><path fill="#B18B8B" d="M12 30h1v1h-1zM13 30h1v1h-1z"/><path fill="#353441" d="M14 30h1v1h-1zM15 30h1v1h-1zM16 30h1v1h-1zM17 30h1v1h-1z"/><path fill="#EF1A1A" d="M18 30h1v1h-1zM19 30h1v1h-1zM20 30h1v1h-1zM21 30h1v1h-1zM22 30h1v1h-1zM23 30h1v1h-1zM24 30h1v1h-1zM25 30h1v1h-1zM26 30h1v1h-1zM27 30h1v1h-1zM28 30h1v1h-1z"/><path fill="#353441" d="M29 30h1v1h-1zM30 30h1v1h-1zM31 30h1v1h-1zM32 30h1v1h-1zM33 30h1v1h-1zM34 30h1v1h-1zM35 30h1v1h-1z"/><path fill="#EF1A1A" d="M36 30h1v1h-1zM37 30h1v1h-1zM38 30h1v1h-1zM39 30h1v1h-1zM40 30h1v1h-1zM41 30h1v1h-1zM42 30h1v1h-1zM43 30h1v1h-1zM44 30h1v1h-1zM45 30h1v1h-1zM46 30h1v1h-1z"/><path fill="#353441" d="M47 30h1v1h-1zM48 30h1v1h-1zM49 30h1v1h-1zM50 30h1v1h-1z"/><path fill="#B18B8B" d="M51 30h1v1h-1zM52 30h1v1h-1z"/><path fill="#736066" d="M53 30h1v1h-1z"/><path fill="#353441" d="M54 30h1v1h-1z"/><path fill="#B18B8B" d="M55 30h1v1h-1zM56 30h1v1h-1z"/><path fill="#353441" d="M57 30h1v1h-1zM58 30h1v1h-1zM6 31h1v1H6zM7 31h1v1H7z"/><path fill="#B18B8B" d="M8 31h1v1H8z"/><path fill="#353441" d="M9 31h1v1H9z"/><path fill="#B18B8B" d="M10 31h1v1h-1zM11 31h1v1h-1zM12 31h1v1h-1zM13 31h1v1h-1z"/><path fill="#353441" d="M14 31h1v1h-1zM15 31h1v1h-1zM16 31h1v1h-1zM17 31h1v1h-1zM18 31h1v1h-1z"/><path fill="#EF1A1A" d="M19 31h1v1h-1zM20 31h1v1h-1zM21 31h1v1h-1zM22 31h1v1h-1zM23 31h1v1h-1zM24 31h1v1h-1z"/><path fill="#92272D" d="M25 31h1v1h-1z"/><path fill="#353441" d="M26 31h1v1h-1zM27 31h1v1h-1zM28 31h1v1h-1zM29 31h1v1h-1zM30 31h1v1h-1z"/><path fill="#B18B8B" d="M31 31h1v1h-1z"/><path fill="#353441" d="M32 31h1v1h-1z"/><path fill="#B18B8B" d="M33 31h1v1h-1z"/><path fill="#353441" d="M34 31h1v1h-1zM35 31h1v1h-1zM36 31h1v1h-1zM37 31h1v1h-1zM38 31h1v1h-1z"/><path fill="#92272D" d="M39 31h1v1h-1z"/><path fill="#EF1A1A" d="M40 31h1v1h-1zM41 31h1v1h-1zM42 31h1v1h-1zM43 31h1v1h-1zM44 31h1v1h-1zM45 31h1v1h-1z"/><path fill="#353441" d="M46 31h1v1h-1zM47 31h1v1h-1zM48 31h1v1h-1zM49 31h1v1h-1zM50 31h1v1h-1z"/><path fill="#B18B8B" d="M51 31h1v1h-1zM52 31h1v1h-1zM53 31h1v1h-1zM54 31h1v1h-1z"/><path fill="#353441" d="M55 31h1v1h-1z"/><path fill="#B18B8B" d="M56 31h1v1h-1z"/><path fill="#353441" d="M57 31h1v1h-1zM58 31h1v1h-1zM6 32h1v1H6zM7 32h1v1H7zM8 32h1v1H8z"/><path fill="#B18B8B" d="M9 32h1v1H9zM10 32h1v1h-1zM11 32h1v1h-1zM12 32h1v1h-1zM13 32h1v1h-1z"/><path fill="#353441" d="M14 32h1v1h-1zM15 32h1v1h-1zM16 32h1v1h-1zM17 32h1v1h-1zM18 32h1v1h-1zM19 32h1v1h-1zM20 32h1v1h-1zM21 32h1v1h-1zM22 32h1v1h-1zM23 32h1v1h-1zM24 32h1v1h-1zM25 32h1v1h-1zM26 32h1v1h-1z"/><path fill="#B18B8B" d="M27 32h1v1h-1zM28 32h1v1h-1zM29 32h1v1h-1zM30 32h1v1h-1zM31 32h1v1h-1z"/><path fill="#353441" d="M32 32h1v1h-1z"/><path fill="#B18B8B" d="M33 32h1v1h-1zM34 32h1v1h-1zM35 32h1v1h-1zM36 32h1v1h-1zM37 32h1v1h-1z"/><path fill="#353441" d="M38 32h1v1h-1zM39 32h1v1h-1zM40 32h1v1h-1zM41 32h1v1h-1zM42 32h1v1h-1zM43 32h1v1h-1zM44 32h1v1h-1zM45 32h1v1h-1zM46 32h1v1h-1zM47 32h1v1h-1zM48 32h1v1h-1zM49 32h1v1h-1zM50 32h1v1h-1z"/><path fill="#B18B8B" d="M51 32h1v1h-1zM52 32h1v1h-1zM53 32h1v1h-1zM54 32h1v1h-1zM55 32h1v1h-1z"/><path fill="#353441" d="M56 32h1v1h-1zM57 32h1v1h-1zM58 32h1v1h-1zM5 33h1v1H5zM6 33h1v1H6zM7 33h1v1H7z"/><path fill="#B18B8B" d="M8 33h1v1H8zM9 33h1v1H9zM10 33h1v1h-1zM11 33h1v1h-1zM12 33h1v1h-1zM13 33h1v1h-1z"/><path fill="#353441" d="M14 33h1v1h-1zM15 33h1v1h-1zM16 33h1v1h-1zM17 33h1v1h-1zM18 33h1v1h-1zM19 33h1v1h-1zM20 33h1v1h-1zM21 33h1v1h-1zM22 33h1v1h-1z"/><path fill="#B18B8B" d="M23 33h1v1h-1zM24 33h1v1h-1zM25 33h1v1h-1zM26 33h1v1h-1zM27 33h1v1h-1zM28 33h1v1h-1zM29 33h1v1h-1zM30 33h1v1h-1zM31 33h1v1h-1z"/><path fill="#353441" d="M32 33h1v1h-1z"/><path fill="#B18B8B" d="M33 33h1v1h-1zM34 33h1v1h-1zM35 33h1v1h-1zM36 33h1v1h-1zM37 33h1v1h-1zM38 33h1v1h-1zM39 33h1v1h-1zM40 33h1v1h-1zM41 33h1v1h-1z"/><path fill="#353441" d="M42 33h1v1h-1zM43 33h1v1h-1zM44 33h1v1h-1zM45 33h1v1h-1zM46 33h1v1h-1zM47 33h1v1h-1zM48 33h1v1h-1zM49 33h1v1h-1zM50 33h1v1h-1z"/><path fill="#B18B8B" d="M51 33h1v1h-1zM52 33h1v1h-1zM53 33h1v1h-1zM54 33h1v1h-1zM55 33h1v1h-1zM56 33h1v1h-1z"/><path fill="#353441" d="M57 33h1v1h-1zM58 33h1v1h-1zM59 33h1v1h-1zM4 34h1v1H4zM5 34h1v1H5zM6 34h1v1H6zM7 34h1v1H7z"/><path fill="#B18B8B" d="M8 34h1v1H8zM9 34h1v1H9zM10 34h1v1h-1zM11 34h1v1h-1zM12 34h1v1h-1zM13 34h1v1h-1z"/><path fill="#353441" d="M14 34h1v1h-1zM15 34h1v1h-1zM16 34h1v1h-1zM17 34h1v1h-1zM18 34h1v1h-1zM19 34h1v1h-1zM20 34h1v1h-1zM21 34h1v1h-1z"/><path fill="#B18B8B" d="M22 34h1v1h-1zM23 34h1v1h-1zM24 34h1v1h-1zM25 34h1v1h-1zM26 34h1v1h-1zM27 34h1v1h-1zM28 34h1v1h-1zM29 34h1v1h-1zM30 34h1v1h-1zM31 34h1v1h-1z"/><path fill="#353441" d="M32 34h1v1h-1z"/><path fill="#B18B8B" d="M33 34h1v1h-1zM34 34h1v1h-1zM35 34h1v1h-1zM36 34h1v1h-1zM37 34h1v1h-1zM38 34h1v1h-1zM39 34h1v1h-1zM40 34h1v1h-1zM41 34h1v1h-1zM42 34h1v1h-1z"/><path fill="#353441" d="M43 34h1v1h-1zM44 34h1v1h-1zM45 34h1v1h-1zM46 34h1v1h-1zM47 34h1v1h-1zM48 34h1v1h-1zM49 34h1v1h-1zM50 34h1v1h-1z"/><path fill="#B18B8B" d="M51 34h1v1h-1zM52 34h1v1h-1zM53 34h1v1h-1zM54 34h1v1h-1zM55 34h1v1h-1zM56 34h1v1h-1z"/><path fill="#353441" d="M57 34h1v1h-1zM58 34h1v1h-1zM59 34h1v1h-1zM60 34h1v1h-1zM4 35h1v1H4zM5 35h1v1H5zM6 35h1v1H6zM7 35h1v1H7z"/><path fill="#B18B8B" d="M8 35h1v1H8zM9 35h1v1H9zM10 35h1v1h-1zM11 35h1v1h-1zM12 35h1v1h-1zM13 35h1v1h-1z"/><path fill="#353441" d="M14 35h1v1h-1zM15 35h1v1h-1zM16 35h1v1h-1zM17 35h1v1h-1zM18 35h1v1h-1zM19 35h1v1h-1zM20 35h1v1h-1zM21 35h1v1h-1z"/><path fill="#B18B8B" d="M22 35h1v1h-1zM23 35h1v1h-1zM24 35h1v1h-1zM25 35h1v1h-1zM26 35h1v1h-1zM27 35h1v1h-1zM28 35h1v1h-1zM29 35h1v1h-1zM30 35h1v1h-1zM31 35h1v1h-1z"/><path fill="#353441" d="M32 35h1v1h-1z"/><path fill="#B18B8B" d="M33 35h1v1h-1zM34 35h1v1h-1zM35 35h1v1h-1zM36 35h1v1h-1zM37 35h1v1h-1zM38 35h1v1h-1zM39 35h1v1h-1zM40 35h1v1h-1zM41 35h1v1h-1zM42 35h1v1h-1z"/><path fill="#353441" d="M43 35h1v1h-1zM44 35h1v1h-1zM45 35h1v1h-1zM46 35h1v1h-1zM47 35h1v1h-1zM48 35h1v1h-1zM49 35h1v1h-1zM50 35h1v1h-1z"/><path fill="#B18B8B" d="M51 35h1v1h-1zM52 35h1v1h-1zM53 35h1v1h-1zM54 35h1v1h-1zM55 35h1v1h-1zM56 35h1v1h-1z"/><path fill="#353441" d="M57 35h1v1h-1zM58 35h1v1h-1zM59 35h1v1h-1zM60 35h1v1h-1z"/><path fill="#31313D" d="M2 36h1v1H2z" opacity=".082"/><path fill="#373743" d="M3 36h1v1H3z" opacity=".165"/><path fill="#353441" d="M4 36h1v1H4z"/><path fill="#B18B8B" d="M5 36h1v1H5zM6 36h1v1H6zM7 36h1v1H7zM8 36h1v1H8zM9 36h1v1H9zM10 36h1v1h-1zM11 36h1v1h-1zM12 36h1v1h-1zM13 36h1v1h-1z"/><path fill="#353441" d="M14 36h1v1h-1zM15 36h1v1h-1zM16 36h1v1h-1zM17 36h1v1h-1zM18 36h1v1h-1zM19 36h1v1h-1zM20 36h1v1h-1zM21 36h1v1h-1zM22 36h1v1h-1z"/><path fill="#B18B8B" d="M23 36h1v1h-1zM24 36h1v1h-1zM25 36h1v1h-1zM26 36h1v1h-1zM27 36h1v1h-1zM28 36h1v1h-1zM29 36h1v1h-1zM30 36h1v1h-1zM31 36h1v1h-1z"/><path fill="#353441" d="M32 36h1v1h-1z"/><path fill="#B18B8B" d="M33 36h1v1h-1zM34 36h1v1h-1zM35 36h1v1h-1zM36 36h1v1h-1zM37 36h1v1h-1zM38 36h1v1h-1zM39 36h1v1h-1zM40 36h1v1h-1zM41 36h1v1h-1z"/><path fill="#353441" d="M42 36h1v1h-1zM43 36h1v1h-1zM44 36h1v1h-1zM45 36h1v1h-1zM46 36h1v1h-1zM47 36h1v1h-1zM48 36h1v1h-1zM49 36h1v1h-1zM50 36h1v1h-1z"/><path fill="#B18B8B" d="M51 36h1v1h-1zM52 36h1v1h-1zM53 36h1v1h-1zM54 36h1v1h-1zM55 36h1v1h-1zM56 36h1v1h-1zM57 36h1v1h-1zM58 36h1v1h-1zM59 36h1v1h-1z"/><path fill="#353441" d="M60 36h1v1h-1z"/><path fill="#343441" d="M61 36h1v1h-1z" opacity=".443"/><path fill="#323240" d="M62 36h1v1h-1z" opacity=".22"/><path fill="#343440" d="M2 37h1v1H2z" opacity=".498"/><path fill="#353441" d="M3 37h1v1H3z"/><path fill="#B18B8B" d="M4 37h1v1H4z"/><path fill="#353441" d="M5 37h1v1H5z"/><path fill="#B18B8B" d="M6 37h1v1H6zM7 37h1v1H7zM8 37h1v1H8zM9 37h1v1H9zM10 37h1v1h-1zM11 37h1v1h-1zM12 37h1v1h-1z"/><path fill="#353441" d="M13 37h1v1h-1zM14 37h1v1h-1zM15 37h1v1h-1zM16 37h1v1h-1zM17 37h1v1h-1zM18 37h1v1h-1zM19 37h1v1h-1zM20 37h1v1h-1zM21 37h1v1h-1zM22 37h1v1h-1z"/><path fill="#B18B8B" d="M23 37h1v1h-1zM24 37h1v1h-1zM25 37h1v1h-1zM26 37h1v1h-1zM27 37h1v1h-1zM28 37h1v1h-1z"/><path fill="#353441" d="M29 37h1v1h-1zM30 37h1v1h-1zM31 37h1v1h-1zM32 37h1v1h-1zM33 37h1v1h-1zM34 37h1v1h-1zM35 37h1v1h-1z"/><path fill="#B18B8B" d="M36 37h1v1h-1zM37 37h1v1h-1zM38 37h1v1h-1zM39 37h1v1h-1zM40 37h1v1h-1zM41 37h1v1h-1z"/><path fill="#353441" d="M42 37h1v1h-1zM43 37h1v1h-1zM44 37h1v1h-1zM45 37h1v1h-1zM46 37h1v1h-1zM47 37h1v1h-1zM48 37h1v1h-1zM49 37h1v1h-1zM50 37h1v1h-1zM51 37h1v1h-1z"/><path fill="#B18B8B" d="M52 37h1v1h-1zM53 37h1v1h-1zM54 37h1v1h-1zM55 37h1v1h-1zM56 37h1v1h-1zM57 37h1v1h-1zM58 37h1v1h-1z"/><path fill="#353441" d="M59 37h1v1h-1z"/><path fill="#B18B8B" d="M60 37h1v1h-1z"/><path fill="#353441" d="M61 37h1v1h-1z"/><path fill="#343440" d="M62 37h1v1h-1zM2 38h1v1H2z" opacity=".498"/><path fill="#353441" d="M3 38h1v1H3z"/><path fill="#B18B8B" d="M4 38h1v1H4z"/><path fill="#353441" d="M5 38h1v1H5z"/><path fill="#B18B8B" d="M6 38h1v1H6zM7 38h1v1H7zM8 38h1v1H8zM9 38h1v1H9zM10 38h1v1h-1zM11 38h1v1h-1zM12 38h1v1h-1z"/><path fill="#353441" d="M13 38h1v1h-1zM14 38h1v1h-1zM15 38h1v1h-1zM16 38h1v1h-1zM17 38h1v1h-1zM18 38h1v1h-1zM19 38h1v1h-1zM20 38h1v1h-1zM21 38h1v1h-1zM22 38h1v1h-1zM23 38h1v1h-1z"/><path fill="#B18B8B" d="M24 38h1v1h-1z"/><path fill="#736066" d="M25 38h1v1h-1z"/><path fill="#353441" d="M26 38h1v1h-1zM27 38h1v1h-1zM28 38h1v1h-1z"/><path fill="#B18B8B" d="M29 38h1v1h-1zM30 38h1v1h-1zM31 38h1v1h-1z"/><path fill="#353441" d="M32 38h1v1h-1z"/><path fill="#B18B8B" d="M33 38h1v1h-1zM34 38h1v1h-1zM35 38h1v1h-1z"/><path fill="#353441" d="M36 38h1v1h-1zM37 38h1v1h-1zM38 38h1v1h-1z"/><path fill="#736066" d="M39 38h1v1h-1z"/><path fill="#B18B8B" d="M40 38h1v1h-1z"/><path fill="#353441" d="M41 38h1v1h-1zM42 38h1v1h-1zM43 38h1v1h-1zM44 38h1v1h-1zM45 38h1v1h-1zM46 38h1v1h-1zM47 38h1v1h-1zM48 38h1v1h-1zM49 38h1v1h-1zM50 38h1v1h-1zM51 38h1v1h-1z"/><path fill="#B18B8B" d="M52 38h1v1h-1zM53 38h1v1h-1zM54 38h1v1h-1zM55 38h1v1h-1zM56 38h1v1h-1zM57 38h1v1h-1zM58 38h1v1h-1z"/><path fill="#353441" d="M59 38h1v1h-1z"/><path fill="#B18B8B" d="M60 38h1v1h-1z"/><path fill="#353441" d="M61 38h1v1h-1z"/><path fill="#343440" d="M62 38h1v1h-1z" opacity=".498"/><path d="M1 39h1v1H1z" opacity=".008"/><path fill="#353341" d="M2 39h1v1H2z" opacity=".506"/><path fill="#353441" d="M3 39h1v1H3z"/><path fill="#B18B8B" d="M4 39h1v1H4z"/><path fill="#736066" d="M5 39h1v1H5z"/><path fill="#B18B8B" d="M6 39h1v1H6zM7 39h1v1H7zM8 39h1v1H8zM9 39h1v1H9zM10 39h1v1h-1zM11 39h1v1h-1zM12 39h1v1h-1z"/><path fill="#736066" d="M13 39h1v1h-1z"/><path fill="#353441" d="M14 39h1v1h-1zM15 39h1v1h-1zM16 39h1v1h-1zM17 39h1v1h-1zM18 39h1v1h-1zM19 39h1v1h-1zM20 39h1v1h-1zM21 39h1v1h-1zM22 39h1v1h-1zM23 39h1v1h-1z"/><path fill="#736066" d="M24 39h1v1h-1z"/><path fill="#544A53" d="M25 39h1v1h-1z"/><path fill="#353441" d="M26 39h1v1h-1z"/><path fill="#736066" d="M27 39h1v1h-1zM28 39h1v1h-1z"/><path fill="#B18B8B" d="M29 39h1v1h-1zM30 39h1v1h-1zM31 39h1v1h-1z"/><path fill="#353441" d="M32 39h1v1h-1z"/><path fill="#B18B8B" d="M33 39h1v1h-1zM34 39h1v1h-1zM35 39h1v1h-1z"/><path fill="#736066" d="M36 39h1v1h-1zM37 39h1v1h-1z"/><path fill="#353441" d="M38 39h1v1h-1z"/><path fill="#544A53" d="M39 39h1v1h-1z"/><path fill="#736066" d="M40 39h1v1h-1z"/><path fill="#353441" d="M41 39h1v1h-1zM42 39h1v1h-1zM43 39h1v1h-1zM44 39h1v1h-1zM45 39h1v1h-1zM46 39h1v1h-1zM47 39h1v1h-1zM48 39h1v1h-1zM49 39h1v1h-1zM50 39h1v1h-1z"/><path fill="#736066" d="M51 39h1v1h-1z"/><path fill="#B18B8B" d="M52 39h1v1h-1zM53 39h1v1h-1zM54 39h1v1h-1zM55 39h1v1h-1zM56 39h1v1h-1zM57 39h1v1h-1zM58 39h1v1h-1z"/><path fill="#736066" d="M59 39h1v1h-1z"/><path fill="#B18B8B" d="M60 39h1v1h-1z"/><path fill="#353441" d="M61 39h1v1h-1z"/><path fill="#353341" d="M62 39h1v1h-1z" opacity=".569"/><path fill="#333342" d="M63 39h1v1h-1z" opacity=".137"/><path fill="#333" d="M1 40h1v1H1z" opacity=".02"/><path fill="#353341" d="M2 40h1v1H2z" opacity=".51"/><path fill="#353441" d="M3 40h1v1H3z"/><path fill="#B18B8B" d="M4 40h1v1H4zM5 40h1v1H5zM6 40h1v1H6zM7 40h1v1H7zM8 40h1v1H8zM9 40h1v1H9zM10 40h1v1h-1zM11 40h1v1h-1zM12 40h1v1h-1zM13 40h1v1h-1z"/><path fill="#353441" d="M14 40h1v1h-1zM15 40h1v1h-1zM16 40h1v1h-1zM17 40h1v1h-1zM18 40h1v1h-1zM19 40h1v1h-1zM20 40h1v1h-1zM21 40h1v1h-1zM22 40h1v1h-1zM23 40h1v1h-1zM24 40h1v1h-1zM25 40h1v1h-1zM26 40h1v1h-1z"/><path fill="#B18B8B" d="M27 40h1v1h-1zM28 40h1v1h-1zM29 40h1v1h-1zM30 40h1v1h-1zM31 40h1v1h-1z"/><path fill="#353441" d="M32 40h1v1h-1z"/><path fill="#B18B8B" d="M33 40h1v1h-1zM34 40h1v1h-1zM35 40h1v1h-1zM36 40h1v1h-1zM37 40h1v1h-1z"/><path fill="#353441" d="M38 40h1v1h-1zM39 40h1v1h-1zM40 40h1v1h-1zM41 40h1v1h-1zM42 40h1v1h-1zM43 40h1v1h-1zM44 40h1v1h-1zM45 40h1v1h-1zM46 40h1v1h-1zM47 40h1v1h-1zM48 40h1v1h-1zM49 40h1v1h-1zM50 40h1v1h-1z"/><path fill="#B18B8B" d="M51 40h1v1h-1zM52 40h1v1h-1zM53 40h1v1h-1zM54 40h1v1h-1zM55 40h1v1h-1zM56 40h1v1h-1zM57 40h1v1h-1zM58 40h1v1h-1zM59 40h1v1h-1zM60 40h1v1h-1z"/><path fill="#353441" d="M61 40h1v1h-1z"/><path fill="#353440" d="M62 40h1v1h-1z" opacity=".639"/><path fill="#363241" d="M63 40h1v1h-1z" opacity=".278"/><path fill="#353441" d="M1 41h1v1H1z" opacity=".733"/><path fill="#7D666B" d="M2 41h1v1H2z" opacity=".867"/><path fill="#B18B8B" d="M3 41h1v1H3zM4 41h1v1H4zM5 41h1v1H5zM6 41h1v1H6zM7 41h1v1H7zM8 41h1v1H8zM9 41h1v1H9zM10 41h1v1h-1z"/><path fill="#736066" d="M11 41h1v1h-1z"/><path fill="#353441" d="M12 41h1v1h-1z"/><path fill="#B18B8B" d="M13 41h1v1h-1z"/><path fill="#353441" d="M14 41h1v1h-1zM15 41h1v1h-1zM16 41h1v1h-1zM17 41h1v1h-1zM18 41h1v1h-1zM19 41h1v1h-1zM20 41h1v1h-1zM21 41h1v1h-1zM22 41h1v1h-1zM23 41h1v1h-1zM24 41h1v1h-1z"/><path fill="#736066" d="M25 41h1v1h-1z"/><path fill="#B18B8B" d="M26 41h1v1h-1zM27 41h1v1h-1zM28 41h1v1h-1zM29 41h1v1h-1zM30 41h1v1h-1zM31 41h1v1h-1z"/><path fill="#353441" d="M32 41h1v1h-1z"/><path fill="#B18B8B" d="M33 41h1v1h-1zM34 41h1v1h-1zM35 41h1v1h-1zM36 41h1v1h-1zM37 41h1v1h-1zM38 41h1v1h-1z"/><path fill="#736066" d="M39 41h1v1h-1z"/><path fill="#353441" d="M40 41h1v1h-1zM41 41h1v1h-1zM42 41h1v1h-1zM43 41h1v1h-1zM44 41h1v1h-1zM45 41h1v1h-1zM46 41h1v1h-1zM47 41h1v1h-1zM48 41h1v1h-1zM49 41h1v1h-1zM50 41h1v1h-1z"/><path fill="#B18B8B" d="M51 41h1v1h-1z"/><path fill="#353441" d="M52 41h1v1h-1z"/><path fill="#736066" d="M53 41h1v1h-1z"/><path fill="#B18B8B" d="M54 41h1v1h-1zM55 41h1v1h-1zM56 41h1v1h-1zM57 41h1v1h-1zM58 41h1v1h-1zM59 41h1v1h-1zM60 41h1v1h-1zM61 41h1v1h-1z"/><path fill="#736066" d="M62 41h1v1h-1z" opacity=".996"/><path fill="#353441" d="M63 41h1v1h-1z" opacity=".996"/><path fill="#353441" d="M1 42h1v1H1z"/><path fill="#736066" d="M2 42h1v1H2z"/><path fill="#B18B8B" d="M3 42h1v1H3zM4 42h1v1H4zM5 42h1v1H5zM6 42h1v1H6zM7 42h1v1H7zM8 42h1v1H8zM9 42h1v1H9zM10 42h1v1h-1zM11 42h1v1h-1zM12 42h1v1h-1z"/><path fill="#353441" d="M13 42h1v1h-1zM14 42h1v1h-1zM15 42h1v1h-1zM16 42h1v1h-1zM17 42h1v1h-1zM18 42h1v1h-1z"/><path fill="#B18B8B" d="M19 42h1v1h-1z"/><path fill="#353441" d="M20 42h1v1h-1zM21 42h1v1h-1zM22 42h1v1h-1zM23 42h1v1h-1z"/><path fill="#B18B8B" d="M24 42h1v1h-1zM25 42h1v1h-1zM26 42h1v1h-1zM27 42h1v1h-1zM28 42h1v1h-1zM29 42h1v1h-1zM30 42h1v1h-1zM31 42h1v1h-1z"/><path fill="#353441" d="M32 42h1v1h-1z"/><path fill="#B18B8B" d="M33 42h1v1h-1zM34 42h1v1h-1zM35 42h1v1h-1zM36 42h1v1h-1zM37 42h1v1h-1zM38 42h1v1h-1zM39 42h1v1h-1zM40 42h1v1h-1z"/><path fill="#353441" d="M41 42h1v1h-1zM42 42h1v1h-1zM43 42h1v1h-1zM44 42h1v1h-1z"/><path fill="#B18B8B" d="M45 42h1v1h-1z"/><path fill="#353441" d="M46 42h1v1h-1zM47 42h1v1h-1zM48 42h1v1h-1zM49 42h1v1h-1zM50 42h1v1h-1zM51 42h1v1h-1z"/><path fill="#B18B8B" d="M52 42h1v1h-1zM53 42h1v1h-1zM54 42h1v1h-1zM55 42h1v1h-1zM56 42h1v1h-1zM57 42h1v1h-1zM58 42h1v1h-1zM59 42h1v1h-1zM60 42h1v1h-1zM61 42h1v1h-1z"/><path fill="#736066" d="M62 42h1v1h-1z"/><path fill="#353441" d="M63 42h1v1h-1z"/><path fill="#343440" d="M2 43h1v1H2z" opacity=".498"/><path fill="#353441" d="M3 43h1v1H3z"/><path fill="#B18B8B" d="M4 43h1v1H4zM5 43h1v1H5zM6 43h1v1H6zM7 43h1v1H7zM8 43h1v1H8zM9 43h1v1H9z"/><path fill="#353441" d="M10 43h1v1h-1zM11 43h1v1h-1zM12 43h1v1h-1zM13 43h1v1h-1z"/><path fill="#343441" d="M14 43h1v1h-1z" opacity=".306"/><path fill="#353441" d="M15 43h1v1h-1zM16 43h1v1h-1zM17 43h1v1h-1zM18 43h1v1h-1z"/><path fill="#B18B8B" d="M19 43h1v1h-1zM20 43h1v1h-1zM21 43h1v1h-1z"/><path fill="#353441" d="M22 43h1v1h-1zM23 43h1v1h-1zM24 43h1v1h-1z"/><path fill="#736066" d="M25 43h1v1h-1z"/><path fill="#B18B8B" d="M26 43h1v1h-1zM27 43h1v1h-1zM28 43h1v1h-1zM29 43h1v1h-1zM30 43h1v1h-1zM31 43h1v1h-1z"/><path fill="#353441" d="M32 43h1v1h-1z"/><path fill="#B18B8B" d="M33 43h1v1h-1zM34 43h1v1h-1zM35 43h1v1h-1zM36 43h1v1h-1zM37 43h1v1h-1zM38 43h1v1h-1z"/><path fill="#736066" d="M39 43h1v1h-1z"/><path fill="#353441" d="M40 43h1v1h-1zM41 43h1v1h-1zM42 43h1v1h-1z"/><path fill="#B18B8B" d="M43 43h1v1h-1zM44 43h1v1h-1zM45 43h1v1h-1z"/><path fill="#353441" d="M46 43h1v1h-1zM47 43h1v1h-1zM48 43h1v1h-1zM49 43h1v1h-1z"/><path fill="#34343E" d="M50 43h1v1h-1z" opacity=".192"/><path fill="#353441" d="M51 43h1v1h-1zM52 43h1v1h-1zM53 43h1v1h-1zM54 43h1v1h-1z"/><path fill="#B18B8B" d="M55 43h1v1h-1zM56 43h1v1h-1zM57 43h1v1h-1zM58 43h1v1h-1zM59 43h1v1h-1zM60 43h1v1h-1z"/><path fill="#353441" d="M61 43h1v1h-1z"/><path fill="#343440" d="M62 43h1v1h-1zM2 44h1v1H2z" opacity=".498"/><path fill="#353441" d="M3 44h1v1H3z"/><path fill="#B18B8B" d="M4 44h1v1H4zM5 44h1v1H5zM6 44h1v1H6zM7 44h1v1H7zM8 44h1v1H8zM9 44h1v1H9z"/><path fill="#353441" d="M10 44h1v1h-1zM11 44h1v1h-1zM12 44h1v1h-1zM13 44h1v1h-1z"/><path fill="#343441" d="M14 44h1v1h-1z" opacity=".306"/><path fill="#353441" d="M15 44h1v1h-1zM16 44h1v1h-1zM17 44h1v1h-1zM18 44h1v1h-1z"/><path fill="#B18B8B" d="M19 44h1v1h-1zM20 44h1v1h-1zM21 44h1v1h-1z"/><path fill="#353441" d="M22 44h1v1h-1zM23 44h1v1h-1zM24 44h1v1h-1z"/><path fill="#736066" d="M25 44h1v1h-1z"/><path fill="#B18B8B" d="M26 44h1v1h-1zM27 44h1v1h-1zM28 44h1v1h-1zM29 44h1v1h-1zM30 44h1v1h-1zM31 44h1v1h-1z"/><path fill="#353441" d="M32 44h1v1h-1z"/><path fill="#B18B8B" d="M33 44h1v1h-1zM34 44h1v1h-1zM35 44h1v1h-1zM36 44h1v1h-1zM37 44h1v1h-1zM38 44h1v1h-1z"/><path fill="#736066" d="M39 44h1v1h-1z"/><path fill="#353441" d="M40 44h1v1h-1zM41 44h1v1h-1zM42 44h1v1h-1z"/><path fill="#B18B8B" d="M43 44h1v1h-1zM44 44h1v1h-1zM45 44h1v1h-1z"/><path fill="#353441" d="M46 44h1v1h-1zM47 44h1v1h-1zM48 44h1v1h-1zM49 44h1v1h-1z"/><path fill="#34343E" d="M50 44h1v1h-1z" opacity=".192"/><path fill="#353441" d="M51 44h1v1h-1zM52 44h1v1h-1zM53 44h1v1h-1zM54 44h1v1h-1z"/><path fill="#B18B8B" d="M55 44h1v1h-1zM56 44h1v1h-1zM57 44h1v1h-1zM58 44h1v1h-1zM59 44h1v1h-1zM60 44h1v1h-1z"/><path fill="#353441" d="M61 44h1v1h-1z"/><path fill="#343440" d="M62 44h1v1h-1zM2 45h1v1H2z" opacity=".498"/><path fill="#353441" d="M3 45h1v1H3z" opacity=".996"/><path fill="#B18B8B" d="M4 45h1v1H4z"/><path fill="#353441" d="M5 45h1v1H5z"/><path fill="#B18B8B" d="M6 45h1v1H6zM7 45h1v1H7zM8 45h1v1H8zM9 45h1v1H9z"/><path fill="#353441" d="M10 45h1v1h-1zM11 45h1v1h-1zM12 45h1v1h-1zM13 45h1v1h-1z"/><path fill="#353441" d="M15 45h1v1h-1zM16 45h1v1h-1z" opacity=".973"/><path fill="#353441" d="M17 45h1v1h-1zM18 45h1v1h-1z"/><path fill="#B18B8B" d="M19 45h1v1h-1zM20 45h1v1h-1zM21 45h1v1h-1zM22 45h1v1h-1z"/><path fill="#353441" d="M23 45h1v1h-1zM24 45h1v1h-1zM25 45h1v1h-1zM26 45h1v1h-1zM27 45h1v1h-1zM28 45h1v1h-1zM29 45h1v1h-1zM30 45h1v1h-1zM31 45h1v1h-1zM32 45h1v1h-1zM33 45h1v1h-1zM34 45h1v1h-1zM35 45h1v1h-1zM36 45h1v1h-1zM37 45h1v1h-1zM38 45h1v1h-1zM39 45h1v1h-1zM40 45h1v1h-1zM41 45h1v1h-1z"/><path fill="#B18B8B" d="M42 45h1v1h-1zM43 45h1v1h-1zM44 45h1v1h-1zM45 45h1v1h-1z"/><path fill="#353441" d="M46 45h1v1h-1zM47 45h1v1h-1zM48 45h1v1h-1zM49 45h1v1h-1z"/><path fill="#363441" d="M51 45h1v1h-1z" opacity=".953"/><path fill="#353441" d="M52 45h1v1h-1zM53 45h1v1h-1zM54 45h1v1h-1z"/><path fill="#B18B8B" d="M55 45h1v1h-1zM56 45h1v1h-1zM57 45h1v1h-1zM58 45h1v1h-1z"/><path fill="#353441" d="M59 45h1v1h-1z"/><path fill="#B18B8B" d="M60 45h1v1h-1z"/><path fill="#353441" d="M61 45h1v1h-1z"/><path fill="#343440" d="M62 45h1v1h-1z" opacity=".498"/><path fill="#353441" d="M4 46h1v1H4zM5 46h1v1H5z"/><path fill="#B18B8B" d="M6 46h1v1H6zM7 46h1v1H7zM8 46h1v1H8z"/><path fill="#353441" d="M9 46h1v1H9zM10 46h1v1h-1zM11 46h1v1h-1zM12 46h1v1h-1zM17 46h1v1h-1zM18 46h1v1h-1z"/><path fill="#B18B8B" d="M19 46h1v1h-1zM20 46h1v1h-1zM21 46h1v1h-1zM22 46h1v1h-1z"/><path fill="#353441" d="M23 46h1v1h-1zM24 46h1v1h-1zM25 46h1v1h-1zM26 46h1v1h-1z"/><path fill="#B18B8B" d="M27 46h1v1h-1zM28 46h1v1h-1zM29 46h1v1h-1zM30 46h1v1h-1zM31 46h1v1h-1z"/><path fill="#353441" d="M32 46h1v1h-1z"/><path fill="#B18B8B" d="M33 46h1v1h-1zM34 46h1v1h-1zM35 46h1v1h-1zM36 46h1v1h-1zM37 46h1v1h-1z"/><path fill="#353441" d="M38 46h1v1h-1zM39 46h1v1h-1zM40 46h1v1h-1zM41 46h1v1h-1z"/><path fill="#B18B8B" d="M42 46h1v1h-1zM43 46h1v1h-1zM44 46h1v1h-1zM45 46h1v1h-1z"/><path fill="#353441" d="M46 46h1v1h-1zM47 46h1v1h-1zM52 46h1v1h-1zM53 46h1v1h-1zM54 46h1v1h-1zM55 46h1v1h-1z"/><path fill="#B18B8B" d="M56 46h1v1h-1zM57 46h1v1h-1zM58 46h1v1h-1z"/><path fill="#353441" d="M59 46h1v1h-1zM60 46h1v1h-1z"/><path fill="#373243" d="M4 47h1v1H4z" opacity=".18"/><path fill="#353441" d="M5 47h1v1H5zM6 47h1v1H6zM7 47h1v1H7zM8 47h1v1H8zM9 47h1v1H9zM10 47h1v1h-1zM11 47h1v1h-1zM12 47h1v1h-1z"/><path fill="#353441" d="M17 47h1v1h-1z" opacity=".988"/><path fill="#353441" d="M18 47h1v1h-1zM19 47h1v1h-1z"/><path fill="#B18B8B" d="M20 47h1v1h-1zM21 47h1v1h-1zM22 47h1v1h-1z"/><path fill="#353441" d="M23 47h1v1h-1zM24 47h1v1h-1zM25 47h1v1h-1zM26 47h1v1h-1z"/><path fill="#B18B8B" d="M27 47h1v1h-1zM28 47h1v1h-1zM29 47h1v1h-1zM30 47h1v1h-1zM31 47h1v1h-1z"/><path fill="#353441" d="M32 47h1v1h-1z"/><path fill="#B18B8B" d="M33 47h1v1h-1zM34 47h1v1h-1zM35 47h1v1h-1zM36 47h1v1h-1zM37 47h1v1h-1z"/><path fill="#353441" d="M38 47h1v1h-1zM39 47h1v1h-1zM40 47h1v1h-1zM41 47h1v1h-1z"/><path fill="#B18B8B" d="M42 47h1v1h-1zM43 47h1v1h-1zM44 47h1v1h-1z"/><path fill="#353441" d="M45 47h1v1h-1zM46 47h1v1h-1zM47 47h1v1h-1zM52 47h1v1h-1zM53 47h1v1h-1zM54 47h1v1h-1zM55 47h1v1h-1zM56 47h1v1h-1zM57 47h1v1h-1zM58 47h1v1h-1zM59 47h1v1h-1zM60 47h1v1h-1zM5 48h1v1H5zM6 48h1v1H6zM7 48h1v1H7zM8 48h1v1H8zM9 48h1v1H9zM10 48h1v1h-1zM11 48h1v1h-1zM12 48h1v1h-1z"/><path fill="#363340" d="M17 48h1v1h-1z" opacity=".467"/><path fill="#353441" d="M18 48h1v1h-1zM19 48h1v1h-1z"/><path fill="#B18B8B" d="M20 48h1v1h-1zM21 48h1v1h-1zM22 48h1v1h-1z"/><path fill="#353441" d="M23 48h1v1h-1zM24 48h1v1h-1zM25 48h1v1h-1zM26 48h1v1h-1z"/><path fill="#B18B8B" d="M27 48h1v1h-1zM28 48h1v1h-1zM29 48h1v1h-1zM30 48h1v1h-1zM31 48h1v1h-1z"/><path fill="#353441" d="M32 48h1v1h-1z"/><path fill="#B18B8B" d="M33 48h1v1h-1zM34 48h1v1h-1zM35 48h1v1h-1zM36 48h1v1h-1zM37 48h1v1h-1z"/><path fill="#353441" d="M38 48h1v1h-1zM39 48h1v1h-1zM40 48h1v1h-1zM41 48h1v1h-1z"/><path fill="#B18B8B" d="M42 48h1v1h-1zM43 48h1v1h-1zM44 48h1v1h-1z"/><path fill="#353441" d="M45 48h1v1h-1zM46 48h1v1h-1z"/><path fill="#353441" d="M47 48h1v1h-1z" opacity=".757"/><path fill="#353441" d="M52 48h1v1h-1zM53 48h1v1h-1zM54 48h1v1h-1zM55 48h1v1h-1zM56 48h1v1h-1zM57 48h1v1h-1zM58 48h1v1h-1zM59 48h1v1h-1zM5 49h1v1H5zM6 49h1v1H6zM7 49h1v1H7zM8 49h1v1H8zM9 49h1v1H9zM10 49h1v1h-1zM11 49h1v1h-1zM12 49h1v1h-1z"/><path fill="#363340" d="M17 49h1v1h-1z" opacity=".467"/><path fill="#353441" d="M18 49h1v1h-1zM19 49h1v1h-1z"/><path fill="#B18B8B" d="M20 49h1v1h-1zM21 49h1v1h-1zM22 49h1v1h-1z"/><path fill="#353441" d="M23 49h1v1h-1zM24 49h1v1h-1zM25 49h1v1h-1zM26 49h1v1h-1z"/><path fill="#B18B8B" d="M27 49h1v1h-1zM28 49h1v1h-1zM29 49h1v1h-1zM30 49h1v1h-1zM31 49h1v1h-1z"/><path fill="#353441" d="M32 49h1v1h-1z"/><path fill="#B18B8B" d="M33 49h1v1h-1zM34 49h1v1h-1zM35 49h1v1h-1zM36 49h1v1h-1zM37 49h1v1h-1z"/><path fill="#353441" d="M38 49h1v1h-1zM39 49h1v1h-1zM40 49h1v1h-1zM41 49h1v1h-1z"/><path fill="#B18B8B" d="M42 49h1v1h-1zM43 49h1v1h-1zM44 49h1v1h-1z"/><path fill="#353441" d="M45 49h1v1h-1zM46 49h1v1h-1z"/><path fill="#353441" d="M47 49h1v1h-1z" opacity=".757"/><path fill="#353441" d="M52 49h1v1h-1zM53 49h1v1h-1zM54 49h1v1h-1zM55 49h1v1h-1zM56 49h1v1h-1zM57 49h1v1h-1zM58 49h1v1h-1zM59 49h1v1h-1zM6 50h1v1H6zM7 50h1v1H7zM8 50h1v1H8zM9 50h1v1H9zM10 50h1v1h-1zM11 50h1v1h-1zM12 50h1v1h-1z"/><path fill="#353441" d="M17 50h1v1h-1z" opacity=".922"/><path fill="#353441" d="M18 50h1v1h-1z"/><path fill="#B18B8B" d="M19 50h1v1h-1z"/><path fill="#353441" d="M20 50h1v1h-1zM21 50h1v1h-1z"/><path fill="#B18B8B" d="M22 50h1v1h-1z"/><path fill="#353441" d="M23 50h1v1h-1zM24 50h1v1h-1zM25 50h1v1h-1zM26 50h1v1h-1z"/><path fill="#B18B8B" d="M27 50h1v1h-1zM28 50h1v1h-1zM29 50h1v1h-1zM30 50h1v1h-1zM31 50h1v1h-1z"/><path fill="#353441" d="M32 50h1v1h-1z"/><path fill="#B18B8B" d="M33 50h1v1h-1zM34 50h1v1h-1zM35 50h1v1h-1zM36 50h1v1h-1zM37 50h1v1h-1z"/><path fill="#353441" d="M38 50h1v1h-1zM39 50h1v1h-1zM40 50h1v1h-1zM41 50h1v1h-1z"/><path fill="#B18B8B" d="M42 50h1v1h-1z"/><path fill="#353441" d="M43 50h1v1h-1zM44 50h1v1h-1z"/><path fill="#B18B8B" d="M45 50h1v1h-1z"/><path fill="#353441" d="M46 50h1v1h-1zM47 50h1v1h-1zM52 50h1v1h-1zM53 50h1v1h-1zM54 50h1v1h-1zM55 50h1v1h-1zM56 50h1v1h-1zM57 50h1v1h-1zM58 50h1v1h-1z"/><path fill="#353441" d="M59 50h1v1h-1z" opacity=".945"/><path fill="#353441" d="M6 51h1v1H6zM7 51h1v1H7z" opacity=".961"/><path fill="#353441" d="M8 51h1v1H8zM9 51h1v1H9zM10 51h1v1h-1z"/><path fill="#353441" d="M11 51h1v1h-1z" opacity=".749"/><path fill="#363442" d="M12 51h1v1h-1z" opacity=".502"/><path fill="#353441" d="M17 51h1v1h-1zM18 51h1v1h-1z"/><path fill="#B18B8B" d="M19 51h1v1h-1zM20 51h1v1h-1zM21 51h1v1h-1z"/><path fill="#353441" d="M22 51h1v1h-1zM23 51h1v1h-1zM24 51h1v1h-1zM25 51h1v1h-1zM26 51h1v1h-1z"/><path fill="#B18B8B" d="M27 51h1v1h-1zM28 51h1v1h-1zM29 51h1v1h-1zM30 51h1v1h-1zM31 51h1v1h-1z"/><path fill="#353441" d="M32 51h1v1h-1z"/><path fill="#B18B8B" d="M33 51h1v1h-1zM34 51h1v1h-1zM35 51h1v1h-1zM36 51h1v1h-1zM37 51h1v1h-1z"/><path fill="#353441" d="M38 51h1v1h-1zM39 51h1v1h-1zM40 51h1v1h-1zM41 51h1v1h-1zM42 51h1v1h-1z"/><path fill="#B18B8B" d="M43 51h1v1h-1zM44 51h1v1h-1zM45 51h1v1h-1z"/><path fill="#353441" d="M46 51h1v1h-1zM47 51h1v1h-1z"/><path fill="#343442" d="M52 51h1v1h-1z" opacity=".212"/><path fill="#353541" d="M53 51h1v1h-1z" opacity=".604"/><path fill="#353441" d="M54 51h1v1h-1zM55 51h1v1h-1zM56 51h1v1h-1zM57 51h1v1h-1zM58 51h1v1h-1zM8 52h1v1H8zM9 52h1v1H9zM10 52h1v1h-1z"/><path fill="#343440" d="M11 52h1v1h-1z" opacity=".498"/><path fill="#353441" d="M17 52h1v1h-1zM18 52h1v1h-1z"/><path fill="#B18B8B" d="M19 52h1v1h-1zM20 52h1v1h-1zM21 52h1v1h-1zM22 52h1v1h-1z"/><path fill="#353441" d="M23 52h1v1h-1zM24 52h1v1h-1zM25 52h1v1h-1zM26 52h1v1h-1z"/><path fill="#B18B8B" d="M27 52h1v1h-1zM28 52h1v1h-1zM29 52h1v1h-1zM30 52h1v1h-1zM31 52h1v1h-1z"/><path fill="#353441" d="M32 52h1v1h-1z"/><path fill="#B18B8B" d="M33 52h1v1h-1zM34 52h1v1h-1zM35 52h1v1h-1zM36 52h1v1h-1zM37 52h1v1h-1z"/><path fill="#353441" d="M38 52h1v1h-1zM39 52h1v1h-1zM40 52h1v1h-1zM41 52h1v1h-1z"/><path fill="#B18B8B" d="M42 52h1v1h-1zM43 52h1v1h-1zM44 52h1v1h-1zM45 52h1v1h-1z"/><path fill="#353441" d="M46 52h1v1h-1zM47 52h1v1h-1z"/><path fill="#343440" d="M53 52h1v1h-1z" opacity=".498"/><path fill="#353441" d="M54 52h1v1h-1zM55 52h1v1h-1zM56 52h1v1h-1z"/><path fill="#363441" d="M57 52h1v1h-1zM58 52h1v1h-1z" opacity=".557"/><path fill="#353340" d="M8 53h1v1H8z" opacity=".545"/><path fill="#353441" d="M9 53h1v1H9zM10 53h1v1h-1z"/><path fill="#343440" d="M11 53h1v1h-1z" opacity=".498"/><path fill="#353441" d="M17 53h1v1h-1zM18 53h1v1h-1z"/><path fill="#736066" d="M19 53h1v1h-1z"/><path fill="#B18B8B" d="M20 53h1v1h-1zM21 53h1v1h-1zM22 53h1v1h-1z"/><path fill="#353441" d="M23 53h1v1h-1zM24 53h1v1h-1zM25 53h1v1h-1zM26 53h1v1h-1z"/><path fill="#B18B8B" d="M27 53h1v1h-1zM28 53h1v1h-1zM29 53h1v1h-1zM30 53h1v1h-1zM31 53h1v1h-1z"/><path fill="#353441" d="M32 53h1v1h-1z"/><path fill="#B18B8B" d="M33 53h1v1h-1zM34 53h1v1h-1zM35 53h1v1h-1zM36 53h1v1h-1zM37 53h1v1h-1z"/><path fill="#353441" d="M38 53h1v1h-1zM39 53h1v1h-1zM40 53h1v1h-1zM41 53h1v1h-1z"/><path fill="#B18B8B" d="M42 53h1v1h-1zM43 53h1v1h-1zM44 53h1v1h-1z"/><path fill="#736066" d="M45 53h1v1h-1z"/><path fill="#353441" d="M46 53h1v1h-1zM47 53h1v1h-1z"/><path fill="#343440" d="M53 53h1v1h-1z" opacity=".498"/><path fill="#353441" d="M54 53h1v1h-1zM55 53h1v1h-1zM56 53h1v1h-1z"/><path fill="#363241" d="M57 53h1v1h-1zM58 53h1v1h-1z" opacity=".278"/><path fill="#373743" d="M8 54h1v1H8z" opacity=".09"/><path fill="#353441" d="M9 54h1v1H9zM10 54h1v1h-1z"/><path fill="#343440" d="M11 54h1v1h-1z" opacity=".498"/><path fill="#353441" d="M17 54h1v1h-1zM18 54h1v1h-1zM19 54h1v1h-1z"/><path fill="#B18B8B" d="M20 54h1v1h-1zM21 54h1v1h-1zM22 54h1v1h-1z"/><path fill="#353441" d="M23 54h1v1h-1zM24 54h1v1h-1zM25 54h1v1h-1zM26 54h1v1h-1z"/><path fill="#B18B8B" d="M27 54h1v1h-1zM28 54h1v1h-1zM29 54h1v1h-1zM30 54h1v1h-1zM31 54h1v1h-1z"/><path fill="#353441" d="M32 54h1v1h-1z"/><path fill="#B18B8B" d="M33 54h1v1h-1zM34 54h1v1h-1zM35 54h1v1h-1zM36 54h1v1h-1zM37 54h1v1h-1z"/><path fill="#353441" d="M38 54h1v1h-1zM39 54h1v1h-1zM40 54h1v1h-1zM41 54h1v1h-1z"/><path fill="#B18B8B" d="M42 54h1v1h-1zM43 54h1v1h-1zM44 54h1v1h-1z"/><path fill="#353441" d="M45 54h1v1h-1zM46 54h1v1h-1zM47 54h1v1h-1z"/><path fill="#343440" d="M53 54h1v1h-1z" opacity=".498"/><path fill="#353441" d="M54 54h1v1h-1zM55 54h1v1h-1zM56 54h1v1h-1z"/><path fill="#353440" d="M9 55h1v1H9z" opacity=".776"/><path fill="#353441" d="M17 55h1v1h-1zM18 55h1v1h-1zM19 55h1v1h-1zM20 55h1v1h-1zM21 55h1v1h-1z"/><path fill="#B18B8B" d="M22 55h1v1h-1z"/><path fill="#353441" d="M23 55h1v1h-1zM24 55h1v1h-1zM25 55h1v1h-1zM26 55h1v1h-1zM27 55h1v1h-1zM28 55h1v1h-1zM29 55h1v1h-1zM30 55h1v1h-1zM31 55h1v1h-1zM32 55h1v1h-1zM33 55h1v1h-1zM34 55h1v1h-1zM35 55h1v1h-1zM36 55h1v1h-1zM37 55h1v1h-1zM38 55h1v1h-1zM39 55h1v1h-1zM40 55h1v1h-1zM41 55h1v1h-1z"/><path fill="#B18B8B" d="M42 55h1v1h-1z"/><path fill="#353441" d="M43 55h1v1h-1zM44 55h1v1h-1zM45 55h1v1h-1zM46 55h1v1h-1zM47 55h1v1h-1zM55 55h1v1h-1z"/><path fill="#313142" d="M56 55h1v1h-1z" opacity=".122"/><path fill="#242449" d="M15 56h1v1h-1zM16 56h1v1h-1z" opacity=".027"/><path fill="#353441" d="M17 56h1v1h-1zM18 56h1v1h-1zM19 56h1v1h-1zM20 56h1v1h-1zM21 56h1v1h-1zM22 56h1v1h-1zM23 56h1v1h-1zM24 56h1v1h-1zM25 56h1v1h-1zM26 56h1v1h-1zM27 56h1v1h-1zM28 56h1v1h-1zM29 56h1v1h-1zM30 56h1v1h-1zM31 56h1v1h-1zM32 56h1v1h-1zM33 56h1v1h-1zM34 56h1v1h-1zM35 56h1v1h-1zM36 56h1v1h-1zM37 56h1v1h-1zM38 56h1v1h-1zM39 56h1v1h-1zM40 56h1v1h-1zM41 56h1v1h-1zM42 56h1v1h-1zM43 56h1v1h-1zM44 56h1v1h-1zM45 56h1v1h-1zM46 56h1v1h-1zM47 56h1v1h-1z"/><path fill="#343441" d="M48 56h1v1h-1zM49 56h1v1h-1z" opacity=".31"/><path fill="#353441" d="M17 57h1v1h-1z" opacity=".957"/><path fill="#353441" d="M18 57h1v1h-1zM19 57h1v1h-1zM20 57h1v1h-1zM21 57h1v1h-1zM22 57h1v1h-1zM23 57h1v1h-1zM24 57h1v1h-1zM25 57h1v1h-1zM26 57h1v1h-1zM27 57h1v1h-1zM28 57h1v1h-1zM29 57h1v1h-1zM30 57h1v1h-1zM31 57h1v1h-1zM32 57h1v1h-1zM33 57h1v1h-1zM34 57h1v1h-1zM35 57h1v1h-1zM36 57h1v1h-1zM37 57h1v1h-1zM38 57h1v1h-1zM39 57h1v1h-1zM40 57h1v1h-1zM41 57h1v1h-1zM42 57h1v1h-1zM43 57h1v1h-1zM44 57h1v1h-1zM45 57h1v1h-1zM46 57h1v1h-1z"/><path fill="#353441" d="M47 57h1v1h-1z" opacity=".984"/><path fill="#353441" d="M17 58h1v1h-1z" opacity=".957"/><path fill="#353441" d="M18 58h1v1h-1zM19 58h1v1h-1zM20 58h1v1h-1zM21 58h1v1h-1zM22 58h1v1h-1zM23 58h1v1h-1zM24 58h1v1h-1zM25 58h1v1h-1zM26 58h1v1h-1zM27 58h1v1h-1zM28 58h1v1h-1zM29 58h1v1h-1zM30 58h1v1h-1zM31 58h1v1h-1zM32 58h1v1h-1zM33 58h1v1h-1zM34 58h1v1h-1zM35 58h1v1h-1zM36 58h1v1h-1zM37 58h1v1h-1zM38 58h1v1h-1zM39 58h1v1h-1zM40 58h1v1h-1zM41 58h1v1h-1zM42 58h1v1h-1zM43 58h1v1h-1zM44 58h1v1h-1zM45 58h1v1h-1zM46 58h1v1h-1z"/><path fill="#353441" d="M47 58h1v1h-1z" opacity=".984"/><path fill="#363643" d="M22 59h1v1h-1z" opacity=".075"/><path fill="#353441" d="M23 59h1v1h-1zM24 59h1v1h-1zM25 59h1v1h-1zM26 59h1v1h-1zM27 59h1v1h-1zM28 59h1v1h-1zM29 59h1v1h-1zM30 59h1v1h-1zM31 59h1v1h-1zM32 59h1v1h-1zM33 59h1v1h-1zM34 59h1v1h-1zM35 59h1v1h-1zM36 59h1v1h-1zM37 59h1v1h-1zM38 59h1v1h-1zM39 59h1v1h-1zM40 59h1v1h-1zM41 59h1v1h-1z"/><path fill="#373743" d="M42 59h1v1h-1z" opacity=".09"/><path fill="#343441" d="M29 60h1v1h-1zM30 60h1v1h-1z" opacity=".443"/><path fill="#353441" d="M31 60h1v1h-1z" opacity=".788"/><path fill="#353441" d="M32 60h1v1h-1z" opacity=".898"/><path fill="#363441" d="M33 60h1v1h-1z" opacity=".765"/><path fill="#353342" d="M34 60h1v1h-1zM35 60h1v1h-1z" opacity=".412"/></svg>