<svg xmlns="http://www.w3.org/2000/svg" width="21" height="93" shape-rendering="crispEdges"><path fill="#B4BCC0" d="M10 0h1v1h-1z"/><path fill="#BDC5C9" d="M10 1h1v1h-1zM9 2h1v1H9z"/><path fill="#C0C8CC" d="M10 2h1v1h-1z"/><path fill="#B1B9BD" d="M11 2h1v1h-1z"/><path fill="#B5BFC4" d="M9 3h1v1H9z"/><path fill="#B7C1C6" d="M10 3h1v1h-1z"/><path fill="#A8B2B8" d="M11 3h1v1h-1z"/><path fill="#B6C0C5" d="M9 4h1v1H9zM10 4h1v1h-1z"/><path fill="#B3BDC3" d="M11 4h1v1h-1z"/><path fill="#B9C3C8" d="M8 5h1v1H8z"/><path fill="#B6C0C5" d="M9 5h1v1H9zM10 5h1v1h-1zM11 5h1v1h-1z"/><path fill="#B9C3C8" d="M12 5h1v1h-1zM8 6h1v1H8z"/><path fill="#B6C0C5" d="M9 6h1v1H9zM10 6h1v1h-1z"/><path fill="#B4BEC4" d="M11 6h1v1h-1z"/><path fill="#B7C1C6" d="M12 6h1v1h-1z"/><path fill="#B9C3C8" d="M8 7h1v1H8z"/><path fill="#ABB5BA" d="M9 7h1v1H9z"/><path fill="#96A4AC" d="M11 7h1v1h-1z"/><path fill="#B5BFC4" d="M12 7h1v1h-1z"/><path fill="#B9C3C8" d="M7 8h1v1H7z"/><path fill="#B8C2C7" d="M8 8h1v1H8z"/><path fill="#803324" d="M9 8h1v1H9zM10 8h1v1h-1zM11 8h1v1h-1z"/><path fill="#B4BEC4" d="M12 8h1v1h-1z"/><path fill="#B9C3C8" d="M13 8h1v1h-1z"/><path fill="#B8C2C7" d="M7 9h1v1H7z"/><path fill="#B5BFC4" d="M8 9h1v1H8z"/><path fill="#803324" d="M9 9h1v1H9z"/><path fill="#AE432E" d="M10 9h1v1h-1z"/><path fill="#803324" d="M11 9h1v1h-1z"/><path fill="#B3BDC3" d="M12 9h1v1h-1z"/><path fill="#B7C1C6" d="M13 9h1v1h-1z"/><path fill="#BFC7CB" d="M7 10h1v1H7z"/><path fill="#ABB5BA" d="M8 10h1v1H8z"/><path fill="#803324" d="M9 10h1v1H9z"/><path fill="#68757D" d="M10 10h1v1h-1z"/><path fill="#803324" d="M11 10h1v1h-1z"/><path fill="#80929D" d="M12 10h1v1h-1z"/><path fill="#A0AAB1" d="M13 10h1v1h-1z"/><path fill="#B4BCC0" d="M7 11h1v1H7z"/><path fill="#A3ABB0" d="M8 11h1v1H8z"/><path fill="#803324" d="M9 11h1v1H9z"/><path fill="#66737A" d="M10 11h1v1h-1z"/><path fill="#803324" d="M11 11h1v1h-1z"/><path fill="#778892" d="M12 11h1v1h-1z"/><path fill="#A3ABB0" d="M13 11h1v1h-1z"/><path fill="#A8B0B5" d="M7 12h1v1H7z"/><path fill="#969EA3" d="M8 12h1v1H8z"/><path fill="#AE432E" d="M9 12h1v1H9z"/><path fill="#6D787F" d="M10 12h1v1h-1z"/><path fill="#803324" d="M11 12h1v1h-1z"/><path fill="#8C989F" d="M12 12h1v1h-1z"/><path fill="#929BA0" d="M13 12h1v1h-1z"/><path fill="#A3ABB0" d="M7 13h1v1H7z"/><path fill="#838B90" d="M8 13h1v1H8z"/><path fill="#AE432E" d="M9 13h1v1H9z"/><path fill="#657177" d="M10 13h1v1h-1z"/><path fill="#803324" d="M11 13h1v1h-1z"/><path fill="#7B8A93" d="M12 13h1v1h-1z"/><path fill="#969EA3" d="M13 13h1v1h-1zM7 14h1v1H7z"/><path fill="#838B90" d="M8 14h1v1H8z"/><path fill="#AE432E" d="M9 14h1v1H9z"/><path fill="#838B90" d="M10 14h1v1h-1z"/><path fill="#803324" d="M11 14h1v1h-1z"/><path fill="#727E85" d="M12 14h1v1h-1z"/><path fill="#9DA5AA" d="M13 14h1v1h-1z"/><path fill="#9CA5AA" d="M7 15h1v1H7z"/><path fill="#778186" d="M8 15h1v1H8z"/><path fill="#AE432E" d="M9 15h1v1H9z"/><path fill="#282F32" d="M10 15h1v1h-1z"/><path fill="#803324" d="M11 15h1v1h-1z"/><path fill="#7F898F" d="M12 15h1v1h-1z"/><path fill="#9DA5AA" d="M13 15h1v1h-1z"/><path fill="#9DA6AB" d="M7 16h1v1H7z"/><path fill="#7A848A" d="M8 16h1v1H8z"/><path fill="#AE432E" d="M9 16h1v1H9z"/><path fill="#282F32" d="M10 16h1v1h-1z"/><path fill="#803324" d="M11 16h1v1h-1z"/><path fill="#778186" d="M12 16h1v1h-1z"/><path fill="#A3ABB0" d="M13 16h1v1h-1z"/><path fill="#9CA4A9" d="M7 17h1v1H7z"/><path fill="#838B90" d="M8 17h1v1H8z"/><path fill="#AE432E" d="M9 17h1v1H9z"/><path fill="#282F32" d="M10 17h1v1h-1z"/><path fill="#803324" d="M11 17h1v1h-1z"/><path fill="#838B90" d="M12 17h1v1h-1z"/><path fill="#9FA7AC" d="M13 17h1v1h-1z"/><path fill="#9CA5AA" d="M7 18h1v1H7z"/><path fill="#AE432E" d="M8 18h1v1H8z"/><path fill="#495053" d="M9 18h1v1H9z"/><path fill="#282F32" d="M10 18h1v1h-1zM11 18h1v1h-1z"/><path fill="#803324" d="M12 18h1v1h-1z"/><path fill="#9CA5AA" d="M13 18h1v1h-1z"/><path fill="#969FA4" d="M7 19h1v1H7z"/><path fill="#AE432E" d="M8 19h1v1H8z"/><path fill="#495053" d="M9 19h1v1H9z"/><path fill="#31383B" d="M10 19h1v1h-1z"/><path fill="#282F32" d="M11 19h1v1h-1z"/><path fill="#803324" d="M12 19h1v1h-1z"/><path fill="#9CA5AA" d="M13 19h1v1h-1z"/><path fill="#90989D" d="M7 20h1v1H7z"/><path fill="#AE432E" d="M8 20h1v1H8z"/><path fill="#495053" d="M9 20h1v1H9zM10 20h1v1h-1z"/><path fill="#282F32" d="M11 20h1v1h-1z"/><path fill="#803324" d="M12 20h1v1h-1z"/><path fill="#9CA5AA" d="M13 20h1v1h-1z"/><path fill="#8D959A" d="M7 21h1v1H7z"/><path fill="#803324" d="M8 21h1v1H8z"/><path fill="#3B4246" d="M9 21h1v1H9z"/><path fill="#2E3539" d="M10 21h1v1h-1z"/><path fill="#282F32" d="M11 21h1v1h-1z"/><path fill="#803324" d="M12 21h1v1h-1z"/><path fill="#969FA4" d="M13 21h1v1h-1z"/><path fill="#8D959A" d="M7 22h1v1H7z"/><path fill="#803324" d="M8 22h1v1H8z"/><path fill="#495053" d="M9 22h1v1H9z"/><path fill="#2E3539" d="M10 22h1v1h-1z"/><path fill="#282F32" d="M11 22h1v1h-1z"/><path fill="#803324" d="M12 22h1v1h-1z"/><path fill="#969EA3" d="M13 22h1v1h-1z"/><path fill="#858E93" d="M7 23h1v1H7z"/><path fill="#803324" d="M8 23h1v1H8z"/><path fill="#3E4548" d="M9 23h1v1H9z"/><path fill="#2D3437" d="M10 23h1v1h-1z"/><path fill="#282F32" d="M11 23h1v1h-1z"/><path fill="#803324" d="M12 23h1v1h-1z"/><path fill="#8D969B" d="M13 23h1v1h-1z"/><path fill="#AE432E" d="M7 24h1v1H7z"/><path fill="#803324" d="M8 24h1v1H8z"/><path fill="#3D4346" d="M9 24h1v1H9z"/><path fill="#2D3437" d="M10 24h1v1h-1z"/><path fill="#282F32" d="M11 24h1v1h-1z"/><path fill="#803324" d="M12 24h1v1h-1zM13 24h1v1h-1z"/><path fill="#AE432E" d="M7 25h1v1H7z"/><path fill="#5C6970" d="M8 25h1v1H8z"/><path fill="#3D4346" d="M9 25h1v1H9z"/><path fill="#272E32" d="M10 25h1v1h-1z"/><path fill="#282F32" d="M11 25h1v1h-1z"/><path fill="#5C6970" d="M12 25h1v1h-1z"/><path fill="#803324" d="M13 25h1v1h-1z"/><path fill="#AE432E" d="M7 26h1v1H7z"/><path fill="#5C6970" d="M8 26h1v1H8z"/><path fill="#333A3E" d="M9 26h1v1H9z"/><path fill="#2A3034" d="M10 26h1v1h-1z"/><path fill="#282F32" d="M11 26h1v1h-1z"/><path fill="#5C6970" d="M12 26h1v1h-1z"/><path fill="#803324" d="M13 26h1v1h-1z"/><path fill="#AE432E" d="M7 27h1v1H7z"/><path fill="#5C6970" d="M8 27h1v1H8z"/><path fill="#353C3F" d="M9 27h1v1H9z"/><path fill="#2A3034" d="M10 27h1v1h-1z"/><path fill="#333A3E" d="M11 27h1v1h-1z"/><path fill="#5C6970" d="M12 27h1v1h-1z"/><path fill="#803324" d="M13 27h1v1h-1zM7 28h1v1H7z"/><path fill="#5C6970" d="M8 28h1v1H8z"/><path fill="#383F42" d="M9 28h1v1H9z"/><path fill="#2A3034" d="M10 28h1v1h-1z"/><path fill="#373E42" d="M11 28h1v1h-1z"/><path fill="#5C6970" d="M12 28h1v1h-1z"/><path fill="#803324" d="M13 28h1v1h-1zM7 29h1v1H7z"/><path fill="#7A858A" d="M8 29h1v1H8z"/><path fill="#30373B" d="M9 29h1v1H9z"/><path fill="#2C3336" d="M10 29h1v1h-1z"/><path fill="#32393D" d="M11 29h1v1h-1z"/><path fill="#68757B" d="M12 29h1v1h-1z"/><path fill="#803324" d="M13 29h1v1h-1z"/><path fill="#AE432E" d="M6 30h1v1H6z"/><path fill="#803324" d="M7 30h1v1H7z"/><path fill="#717C82" d="M8 30h1v1H8z"/><path fill="#30373B" d="M9 30h1v1H9z"/><path fill="#2E3438" d="M10 30h1v1h-1z"/><path fill="#32393D" d="M11 30h1v1h-1z"/><path fill="#68757B" d="M12 30h1v1h-1z"/><path fill="#803324" d="M13 30h1v1h-1zM14 30h1v1h-1z"/><path fill="#AE432E" d="M6 31h1v1H6z"/><path fill="#803324" d="M7 31h1v1H7z"/><path fill="#848D92" d="M8 31h1v1H8z"/><path fill="#30373B" d="M9 31h1v1H9z"/><path fill="#31373B" d="M10 31h1v1h-1z"/><path fill="#333A3E" d="M11 31h1v1h-1z"/><path fill="#758187" d="M12 31h1v1h-1z"/><path fill="#803324" d="M13 31h1v1h-1z"/><path fill="#AE432E" d="M14 31h1v1h-1zM6 32h1v1H6z"/><path fill="#803324" d="M7 32h1v1H7z"/><path fill="#848D92" d="M8 32h1v1H8z"/><path fill="#333A3E" d="M9 32h1v1H9z"/><path fill="#32393C" d="M10 32h1v1h-1z"/><path fill="#353C3F" d="M11 32h1v1h-1z"/><path fill="#758187" d="M12 32h1v1h-1z"/><path fill="#803324" d="M13 32h1v1h-1z"/><path fill="#AE432E" d="M14 32h1v1h-1zM6 33h1v1H6z"/><path fill="#803324" d="M7 33h1v1H7z"/><path fill="#848D92" d="M8 33h1v1H8z"/><path fill="#434A4D" d="M9 33h1v1H9z"/><path fill="#373D41" d="M10 33h1v1h-1z"/><path fill="#3A4245" d="M11 33h1v1h-1z"/><path fill="#758187" d="M12 33h1v1h-1z"/><path fill="#803324" d="M13 33h1v1h-1z"/><path fill="#AE432E" d="M14 33h1v1h-1z"/><path fill="#803324" d="M6 34h1v1H6z"/><path fill="#858F94" d="M7 34h1v1H7z"/><path fill="#2A3034" d="M8 34h1v1H8z"/><path fill="#4A5154" d="M9 34h1v1H9z"/><path fill="#454D51" d="M10 34h1v1h-1z"/><path fill="#394144" d="M11 34h1v1h-1z"/><path fill="#2A3034" d="M12 34h1v1h-1z"/><path fill="#727D83" d="M13 34h1v1h-1z"/><path fill="#AE432E" d="M14 34h1v1h-1z"/><path fill="#803324" d="M6 35h1v1H6z"/><path fill="#858F94" d="M7 35h1v1H7z"/><path fill="#2A3034" d="M8 35h1v1H8z"/><path fill="#4A5154" d="M9 35h1v1H9z"/><path fill="#4D5458" d="M10 35h1v1h-1z"/><path fill="#4D5358" d="M11 35h1v1h-1z"/><path fill="#75291A" d="M12 35h1v1h-1z"/><path fill="#6B777D" d="M13 35h1v1h-1z"/><path fill="#803324" d="M14 35h1v1h-1z"/><path fill="#AE432E" d="M5 36h1v1H5z"/><path fill="#803324" d="M6 36h1v1H6z"/><path fill="#8B949A" d="M7 36h1v1H7z"/><path fill="#848D92" d="M8 36h1v1H8z"/><path fill="#464E52" d="M9 36h1v1H9z"/><path fill="#4D5458" d="M10 36h1v1h-1z"/><path fill="#AE432E" d="M11 36h1v1h-1z"/><path fill="#803324" d="M12 36h1v1h-1z"/><path fill="#67747A" d="M13 36h1v1h-1z"/><path fill="#803324" d="M14 36h1v1h-1z"/><path fill="#AE432E" d="M15 36h1v1h-1zM5 37h1v1H5z"/><path fill="#803324" d="M6 37h1v1H6z"/><path fill="#90999F" d="M7 37h1v1H7z"/><path fill="#848D92" d="M8 37h1v1H8z"/><path fill="#3E464B" d="M9 37h1v1H9z"/><path fill="#AE432E" d="M10 37h1v1h-1z"/><path fill="#803324" d="M11 37h1v1h-1z"/><path fill="#758187" d="M12 37h1v1h-1z"/><path fill="#647077" d="M13 37h1v1h-1z"/><path fill="#803324" d="M14 37h1v1h-1z"/><path fill="#AE432E" d="M15 37h1v1h-1zM5 38h1v1H5z"/><path fill="#803324" d="M6 38h1v1H6z"/><path fill="#949DA3" d="M7 38h1v1H7z"/><path fill="#AE432E" d="M8 38h1v1H8z"/><path fill="#803324" d="M9 38h1v1H9z"/><path fill="#464E52" d="M10 38h1v1h-1z"/><path fill="#485155" d="M11 38h1v1h-1z"/><path fill="#2A3034" d="M12 38h1v1h-1z"/><path fill="#5C6970" d="M13 38h1v1h-1z"/><path fill="#803324" d="M14 38h1v1h-1z"/><path fill="#AE432E" d="M15 38h1v1h-1zM5 39h1v1H5z"/><path fill="#803324" d="M6 39h1v1H6z"/><path fill="#98A2A6" d="M7 39h1v1H7z"/><path fill="#2A3034" d="M8 39h1v1H8z"/><path fill="#595F63" d="M9 39h1v1H9z"/><path fill="#4D5458" d="M10 39h1v1h-1z"/><path fill="#474E52" d="M11 39h1v1h-1z"/><path fill="#2A3034" d="M12 39h1v1h-1z"/><path fill="#5C6970" d="M13 39h1v1h-1z"/><path fill="#803324" d="M14 39h1v1h-1z"/><path fill="#AE432E" d="M15 39h1v1h-1z"/><path fill="#803324" d="M5 40h1v1H5z"/><path fill="#949DA3" d="M7 40h1v1H7z"/><path fill="#AE432E" d="M8 40h1v1H8zM9 40h1v1H9zM10 40h1v1h-1zM11 40h1v1h-1z"/><path fill="#75291A" d="M12 40h1v1h-1z"/><path fill="#5C6970" d="M13 40h1v1h-1z"/><path fill="#803324" d="M15 40h1v1h-1z"/><path fill="#AE432E" d="M4 41h1v1H4z"/><path fill="#803324" d="M5 41h1v1H5z"/><path fill="#949DA3" d="M7 41h1v1H7z"/><path fill="#2A3034" d="M8 41h1v1H8z"/><path fill="#803324" d="M9 41h1v1H9zM10 41h1v1h-1zM11 41h1v1h-1z"/><path fill="#2A3034" d="M12 41h1v1h-1z"/><path fill="#69757C" d="M13 41h1v1h-1z"/><path fill="#803324" d="M15 41h1v1h-1z"/><path fill="#AE432E" d="M16 41h1v1h-1zM4 42h1v1H4z"/><path fill="#803324" d="M5 42h1v1H5z"/><path fill="#A2ABAF" d="M7 42h1v1H7z"/><path fill="#717C82" d="M8 42h1v1H8z"/><path fill="#3F464A" d="M9 42h1v1H9z"/><path fill="#42484B" d="M10 42h1v1h-1z"/><path fill="#4D5458" d="M11 42h1v1h-1z"/><path fill="#6F7A81" d="M12 42h1v1h-1z"/><path fill="#7E898F" d="M13 42h1v1h-1z"/><path fill="#803324" d="M15 42h1v1h-1z"/><path fill="#AE432E" d="M16 42h1v1h-1zM4 43h1v1H4z"/><path fill="#803324" d="M5 43h1v1H5z"/><path fill="#B1B9BD" d="M7 43h1v1H7z"/><path fill="#AE432E" d="M8 43h1v1H8z"/><path fill="#373D41" d="M9 43h1v1H9z"/><path fill="#363C3F" d="M10 43h1v1h-1z"/><path fill="#464D51" d="M11 43h1v1h-1z"/><path fill="#803324" d="M12 43h1v1h-1z"/><path fill="#7F8A90" d="M13 43h1v1h-1z"/><path fill="#803324" d="M15 43h1v1h-1z"/><path fill="#AE432E" d="M16 43h1v1h-1zM4 44h1v1H4z"/><path fill="#803324" d="M5 44h1v1H5z"/><path fill="#B1B9BD" d="M7 44h1v1H7z"/><path fill="#AE432E" d="M8 44h1v1H8zM9 44h1v1H9z"/><path fill="#343B3E" d="M10 44h1v1h-1z"/><path fill="#AE432E" d="M11 44h1v1h-1z"/><path fill="#803324" d="M12 44h1v1h-1z"/><path fill="#8A949A" d="M13 44h1v1h-1z"/><path fill="#803324" d="M15 44h1v1h-1z"/><path fill="#AE432E" d="M16 44h1v1h-1zM4 45h1v1H4z"/><path fill="#903827" d="M5 45h1v1H5z"/><path fill="#A3ABB0" d="M7 45h1v1H7z"/><path fill="#2A3034" d="M8 45h1v1H8z"/><path fill="#75291A" d="M9 45h1v1H9z"/><path fill="#AE432E" d="M10 45h1v1h-1z"/><path fill="#75291A" d="M11 45h1v1h-1z"/><path fill="#2A3034" d="M12 45h1v1h-1z"/><path fill="#98A1A6" d="M13 45h1v1h-1z"/><path fill="#803324" d="M15 45h1v1h-1z"/><path fill="#AE432E" d="M16 45h1v1h-1zM3 46h1v1H3z"/><path fill="#803324" d="M4 46h1v1H4z"/><path fill="#99A2A7" d="M7 46h1v1H7z"/><path fill="#AE432E" d="M8 46h1v1H8z"/><path fill="#973A28" d="M9 46h1v1H9z"/><path fill="#873020" d="M10 46h1v1h-1z"/><path fill="#AE432E" d="M11 46h1v1h-1zM12 46h1v1h-1z"/><path fill="#8A949A" d="M13 46h1v1h-1z"/><path fill="#803324" d="M16 46h1v1h-1z"/><path fill="#AE432E" d="M17 46h1v1h-1zM3 47h1v1H3z"/><path fill="#803324" d="M4 47h1v1H4z"/><path fill="#99A2A7" d="M7 47h1v1H7z"/><path fill="#AE432E" d="M8 47h1v1H8z"/><path fill="#803324" d="M9 47h1v1H9z"/><path fill="#20272A" d="M10 47h1v1h-1z"/><path fill="#803324" d="M11 47h1v1h-1z"/><path fill="#AE432E" d="M12 47h1v1h-1z"/><path fill="#8A949A" d="M13 47h1v1h-1z"/><path fill="#803324" d="M16 47h1v1h-1z"/><path fill="#AE432E" d="M17 47h1v1h-1zM3 48h1v1H3z"/><path fill="#803324" d="M4 48h1v1H4z"/><path fill="#949CA2" d="M7 48h1v1H7z"/><path fill="#AE432E" d="M8 48h1v1H8z"/><path fill="#262D30" d="M9 48h1v1H9z"/><path fill="#22292D" d="M10 48h1v1h-1z"/><path fill="#2B3236" d="M11 48h1v1h-1z"/><path fill="#873020" d="M12 48h1v1h-1z"/><path fill="#869095" d="M13 48h1v1h-1z"/><path fill="#803324" d="M16 48h1v1h-1z"/><path fill="#AE432E" d="M17 48h1v1h-1zM3 49h1v1H3z"/><path fill="#803324" d="M4 49h1v1H4z"/><path fill="#949CA2" d="M7 49h1v1H7z"/><path fill="#2A3034" d="M8 49h1v1H8z"/><path fill="#252C30" d="M9 49h1v1H9z"/><path fill="#242B2E" d="M10 49h1v1h-1z"/><path fill="#2A3134" d="M11 49h1v1h-1z"/><path fill="#2A3034" d="M12 49h1v1h-1z"/><path fill="#7D878D" d="M13 49h1v1h-1z"/><path fill="#803324" d="M16 49h1v1h-1z"/><path fill="#AE432E" d="M17 49h1v1h-1zM3 50h1v1H3z"/><path fill="#963A28" d="M4 50h1v1H4z"/><path fill="#8A9399" d="M7 50h1v1H7z"/><path fill="#AE432E" d="M8 50h1v1H8z"/><path fill="#2F3639" d="M9 50h1v1H9z"/><path fill="#272E31" d="M10 50h1v1h-1z"/><path fill="#2E3539" d="M11 50h1v1h-1z"/><path fill="#6F7A81" d="M12 50h1v1h-1z"/><path fill="#949CA2" d="M13 50h1v1h-1z"/><path fill="#963A28" d="M16 50h1v1h-1z"/><path fill="#803324" d="M17 50h1v1h-1z"/><path fill="#AE432E" d="M2 51h1v1H2z"/><path fill="#803324" d="M3 51h1v1H3z"/><path fill="#9E3C2A" d="M4 51h1v1H4z"/><path fill="#818A91" d="M7 51h1v1H7z"/><path fill="#AE432E" d="M8 51h1v1H8z"/><path fill="#75291A" d="M9 51h1v1H9z"/><path fill="#30373B" d="M10 51h1v1h-1z"/><path fill="#31383B" d="M11 51h1v1h-1z"/><path fill="#2A3034" d="M12 51h1v1h-1z"/><path fill="#949CA2" d="M13 51h1v1h-1z"/><path fill="#9E3C2A" d="M16 51h1v1h-1z"/><path fill="#803324" d="M17 51h1v1h-1z"/><path fill="#9A3B28" d="M18 51h1v1h-1z"/><path fill="#9B3A27" d="M2 52h1v1H2z"/><path fill="#772E1F" d="M3 52h1v1H3z"/><path fill="#8A9399" d="M7 52h1v1H7z"/><path fill="#2A3034" d="M8 52h1v1H8z"/><path fill="#AE432E" d="M9 52h1v1H9z"/><path fill="#75291A" d="M10 52h1v1h-1zM11 52h1v1h-1z"/><path fill="#2A3034" d="M12 52h1v1h-1z"/><path fill="#949CA2" d="M13 52h1v1h-1z"/><path fill="#772E1F" d="M17 52h1v1h-1z"/><path fill="#702A1B" d="M18 52h1v1h-1z"/><path fill="#8C3322" d="M2 53h1v1H2z"/><path fill="#702A1B" d="M3 53h1v1H3z"/><path fill="#949CA2" d="M6 53h1v1H6z"/><path fill="#7E888E" d="M7 53h1v1H7z"/><path fill="#2A3034" d="M8 53h1v1H8z"/><path fill="#474F53" d="M9 53h1v1H9z"/><path fill="#474E52" d="M10 53h1v1h-1z"/><path fill="#AE432E" d="M11 53h1v1h-1z"/><path fill="#75291A" d="M12 53h1v1h-1z"/><path fill="#68747A" d="M13 53h1v1h-1z"/><path fill="#949CA2" d="M14 53h1v1h-1z"/><path fill="#832F1F" d="M17 53h1v1h-1z"/><path fill="#6B2618" d="M18 53h1v1h-1z"/><path fill="#631F12" d="M2 54h1v1H2z"/><path fill="#6B2618" d="M3 54h1v1H3z"/><path fill="#808A8F" d="M6 54h1v1H6z"/><path fill="#737D83" d="M7 54h1v1H7z"/><path fill="#7D878D" d="M8 54h1v1H8z"/><path fill="#474F53" d="M9 54h1v1H9z"/><path fill="#484F53" d="M10 54h1v1h-1z"/><path fill="#464D51" d="M11 54h1v1h-1z"/><path fill="#69747B" d="M12 54h1v1h-1z"/><path fill="#68747A" d="M13 54h1v1h-1z"/><path fill="#949CA2" d="M14 54h1v1h-1z"/><path fill="#832F1F" d="M17 54h1v1h-1z"/><path fill="#672316" d="M18 54h1v1h-1z"/><path fill="#949CA2" d="M1 55h1v1H1zM2 55h1v1H2z"/><path fill="#632114" d="M3 55h1v1H3z"/><path fill="#949CA2" d="M5 55h1v1H5z"/><path fill="#68747A" d="M6 55h1v1H6z"/><path fill="#949CA2" d="M7 55h1v1H7z"/><path fill="#788288" d="M8 55h1v1H8z"/><path fill="#40484D" d="M9 55h1v1H9z"/><path fill="#3F464B" d="M10 55h1v1h-1z"/><path fill="#444B4E" d="M11 55h1v1h-1z"/><path fill="#6F7A81" d="M12 55h1v1h-1z"/><path fill="#626E76" d="M13 55h1v1h-1z"/><path fill="#657278" d="M14 55h1v1h-1z"/><path fill="#949CA2" d="M15 55h1v1h-1z"/><path fill="#632114" d="M17 55h1v1h-1z"/><path fill="#8D959A" d="M18 55h1v1h-1zM19 55h1v1h-1z"/><path fill="#949CA2" d="M0 56h1v1H0z"/><path fill="#725A1F" d="M2 56h1v1H2zM3 56h1v1H3z"/><path fill="#8B6F2A" d="M4 56h1v1H4z"/><path fill="#937530" d="M5 56h1v1H5z"/><path fill="#65511D" d="M6 56h1v1H6z"/><path fill="#5C491B" d="M7 56h1v1H7z"/><path fill="#5A471A" d="M8 56h1v1H8z"/><path fill="#3F484C" d="M9 56h1v1H9z"/><path fill="#3C4246" d="M10 56h1v1h-1z"/><path fill="#3D4448" d="M11 56h1v1h-1z"/><path fill="#55441B" d="M12 56h1v1h-1z"/><path fill="#5A471A" d="M13 56h1v1h-1z"/><path fill="#604C1C" d="M14 56h1v1h-1z"/><path fill="#94772F" d="M15 56h1v1h-1z"/><path fill="#8B6F2A" d="M16 56h1v1h-1z"/><path fill="#725A1F" d="M17 56h1v1h-1zM18 56h1v1h-1z"/><path fill="#8D959A" d="M20 56h1v1h-1zM0 57h1v1H0z"/><path fill="#702A1B" d="M2 57h1v1H2z"/><path fill="#282F32" d="M3 57h1v1H3zM4 57h1v1H4zM5 57h1v1H5zM7 57h1v1H7z"/><path fill="#57461A" d="M8 57h1v1H8z"/><path fill="#8B6F2A" d="M9 57h1v1H9zM10 57h1v1h-1z"/><path fill="#675220" d="M11 57h1v1h-1z"/><path fill="#282F32" d="M12 57h1v1h-1zM13 57h1v1h-1zM15 57h1v1h-1zM16 57h1v1h-1z"/><path fill="#702A1B" d="M17 57h1v1h-1zM18 57h1v1h-1z"/><path fill="#8D959A" d="M20 57h1v1h-1zM1 58h1v1H1zM2 58h1v1H2z"/><path fill="#702A1B" d="M3 58h1v1H3zM4 58h1v1H4zM5 58h1v1H5z"/><path fill="#632114" d="M6 58h1v1H6z"/><path fill="#858F94" d="M7 58h1v1H7z"/><path fill="#493A15" d="M8 58h1v1H8z"/><path fill="#282F32" d="M9 58h1v1H9zM10 58h1v1h-1z"/><path fill="#675220" d="M11 58h1v1h-1z"/><path fill="#604C1C" d="M12 58h1v1h-1z"/><path fill="#505E66" d="M13 58h1v1h-1z"/><path fill="#601F13" d="M14 58h1v1h-1z"/><path fill="#6B2618" d="M15 58h1v1h-1z"/><path fill="#772E1F" d="M16 58h1v1h-1z"/><path fill="#803324" d="M17 58h1v1h-1z"/><path fill="#808A8F" d="M18 58h1v1h-1z"/><path fill="#8D959A" d="M19 58h1v1h-1z"/><path fill="#702A1B" d="M5 59h1v1H5z"/><path fill="#632114" d="M6 59h1v1H6z"/><path fill="#858F94" d="M7 59h1v1H7z"/><path fill="#806525" d="M8 59h1v1H8z"/><path fill="#282F32" d="M9 59h1v1H9z"/><path fill="#2E3438" d="M10 59h1v1h-1z"/><path fill="#282F32" d="M11 59h1v1h-1z"/><path fill="#57461A" d="M12 59h1v1h-1z"/><path fill="#4B5961" d="M13 59h1v1h-1z"/><path fill="#601F13" d="M14 59h1v1h-1z"/><path fill="#6B2618" d="M15 59h1v1h-1z"/><path fill="#858F94" d="M7 60h1v1H7z"/><path fill="#94772F" d="M8 60h1v1H8z"/><path fill="#282F32" d="M9 60h1v1H9zM10 60h1v1h-1z"/><path fill="#2E3539" d="M11 60h1v1h-1z"/><path fill="#282F32" d="M12 60h1v1h-1z"/><path fill="#48575F" d="M13 60h1v1h-1z"/><path fill="#858F94" d="M7 61h1v1H7z"/><path fill="#9A7C32" d="M8 61h1v1H8z"/><path fill="#806525" d="M9 61h1v1H9z"/><path fill="#282F32" d="M10 61h1v1h-1z"/><path fill="#272F32" d="M11 61h1v1h-1z"/><path fill="#4B5961" d="M12 61h1v1h-1z"/><path fill="#44535B" d="M13 61h1v1h-1z"/><path fill="#9B3A27" d="M6 62h1v1H6z"/><path fill="#7E888E" d="M7 62h1v1H7z"/><path fill="#8B6F2A" d="M8 62h1v1H8zM9 62h1v1H9z"/><path fill="#9A7C32" d="M10 62h1v1h-1z"/><path fill="#272F32" d="M11 62h1v1h-1z"/><path fill="#5B676F" d="M12 62h1v1h-1z"/><path fill="#59666D" d="M13 62h1v1h-1z"/><path fill="#812E1E" d="M14 62h1v1h-1z"/><path fill="#AE432E" d="M5 63h1v1H5z"/><path fill="#672316" d="M6 63h1v1H6z"/><path fill="#7E888E" d="M7 63h1v1H7z"/><path fill="#282F32" d="M8 63h1v1H8z"/><path fill="#9A7C32" d="M9 63h1v1H9z"/><path fill="#806525" d="M10 63h1v1h-1z"/><path fill="#A08035" d="M11 63h1v1h-1z"/><path fill="#5B676F" d="M12 63h1v1h-1z"/><path fill="#58656C" d="M13 63h1v1h-1z"/><path fill="#672316" d="M14 63h1v1h-1z"/><path fill="#8C3322" d="M15 63h1v1h-1z"/><path fill="#803324" d="M4 64h1v1H4zM5 64h1v1H5z"/><path fill="#48575F" d="M6 64h1v1H6z"/><path fill="#778188" d="M7 64h1v1H7z"/><path fill="#48575F" d="M8 64h1v1H8z"/><path fill="#282F32" d="M9 64h1v1H9z"/><path fill="#9C7D33" d="M10 64h1v1h-1z"/><path fill="#6A531D" d="M11 64h1v1h-1z"/><path fill="#8B6F2D" d="M12 64h1v1h-1z"/><path fill="#59666D" d="M13 64h1v1h-1z"/><path fill="#48575F" d="M14 64h1v1h-1z"/><path fill="#772E1F" d="M15 64h1v1h-1z"/><path fill="#702A1B" d="M16 64h1v1h-1z"/><path fill="#949CA2" d="M1 65h1v1H1z"/><path fill="#8D959A" d="M2 65h1v1H2z"/><path fill="#803324" d="M3 65h1v1H3z"/><path fill="#48575F" d="M5 65h1v1H5z"/><path fill="#808A8F" d="M6 65h1v1H6z"/><path fill="#7B858B" d="M7 65h1v1H7z"/><path fill="#6B757C" d="M8 65h1v1H8z"/><path fill="#3A4144" d="M9 65h1v1H9z"/><path fill="#252B2F" d="M10 65h1v1h-1z"/><path fill="#927630" d="M11 65h1v1h-1z"/><path fill="#7A6228" d="M12 65h1v1h-1z"/><path fill="#48575F" d="M13 65h1v1h-1z"/><path fill="#5C6A70" d="M14 65h1v1h-1z"/><path fill="#48575F" d="M15 65h1v1h-1z"/><path fill="#772E1F" d="M17 65h1v1h-1z"/><path fill="#808A8F" d="M18 65h1v1h-1z"/><path fill="#8D959A" d="M19 65h1v1h-1z"/><path fill="#949CA2" d="M0 66h1v1H0z"/><path fill="#803324" d="M2 66h1v1H2z"/><path fill="#993C2A" d="M3 66h1v1H3z"/><path fill="#A23F2C" d="M4 66h1v1H4z"/><path fill="#AE432E" d="M5 66h1v1H5zM6 66h1v1H6z"/><path fill="#48575F" d="M7 66h1v1H7zM8 66h1v1H8z"/><path fill="#303639" d="M9 66h1v1H9z"/><path fill="#252C30" d="M10 66h1v1h-1z"/><path fill="#282F32" d="M11 66h1v1h-1z"/><path fill="#9C7F35" d="M12 66h1v1h-1z"/><path fill="#48575F" d="M13 66h1v1h-1z"/><path fill="#5F6D73" d="M14 66h1v1h-1z"/><path fill="#6E7A7F" d="M15 66h1v1h-1z"/><path fill="#949CA2" d="M16 66h1v1h-1zM17 66h1v1h-1z"/><path fill="#8D959A" d="M20 66h1v1h-1zM0 67h1v1H0z"/><path fill="#963A28" d="M2 67h1v1H2z"/><path fill="#A33E29" d="M3 67h1v1H3z"/><path fill="#923927" d="M4 67h1v1H4z"/><path fill="#803324" d="M5 67h1v1H5zM6 67h1v1H6z"/><path fill="#AE432E" d="M7 67h1v1H7zM8 67h1v1H8z"/><path fill="#993C2A" d="M9 67h1v1H9z"/><path fill="#923A29" d="M10 67h1v1h-1z"/><path fill="#993C2A" d="M11 67h1v1h-1z"/><path fill="#A23F2C" d="M12 67h1v1h-1z"/><path fill="#AE432E" d="M13 67h1v1h-1zM14 67h1v1h-1z"/><path fill="#48575F" d="M15 67h1v1h-1z"/><path fill="#768186" d="M16 67h1v1h-1z"/><path fill="#808A8F" d="M17 67h1v1h-1z"/><path fill="#632114" d="M18 67h1v1h-1z"/><path fill="#8D959A" d="M20 67h1v1h-1zM1 68h1v1H1z"/><path fill="#803324" d="M2 68h1v1H2z"/><path fill="#8D959A" d="M3 68h1v1H3z"/><path fill="#5F4B1B" d="M8 68h1v1H8z"/><path fill="#57461A" d="M9 68h1v1H9z"/><path fill="#803324" d="M10 68h1v1h-1zM11 68h1v1h-1zM12 68h1v1h-1zM13 68h1v1h-1z"/><path fill="#8D3928" d="M14 68h1v1h-1z"/><path fill="#923A29" d="M15 68h1v1h-1z"/><path fill="#993C2A" d="M16 68h1v1h-1z"/><path fill="#AE432E" d="M17 68h1v1h-1z"/><path fill="#772E1F" d="M18 68h1v1h-1z"/><path fill="#8D959A" d="M19 68h1v1h-1z"/><path fill="#803324" d="M3 69h1v1H3z"/><path fill="#876C2A" d="M8 69h1v1H8z"/><path fill="#5C4A1B" d="M9 69h1v1H9z"/><path fill="#8B6F2D" d="M10 69h1v1h-1z"/><path fill="#34393C" d="M11 69h1v1h-1z"/><path fill="#803324" d="M17 69h1v1h-1z"/><path fill="#AE432E" d="M3 70h1v1H3z"/><path fill="#725A1F" d="M8 70h1v1H8z"/><path fill="#8B6F2A" d="M9 70h1v1H9z"/><path fill="#6A531D" d="M10 70h1v1h-1z"/><path fill="#8E722E" d="M11 70h1v1h-1z"/><path fill="#963A28" d="M17 70h1v1h-1z"/><path fill="#803324" d="M4 71h1v1H4z"/><path fill="#725A1F" d="M9 71h1v1H9z"/><path fill="#8B6F2A" d="M10 71h1v1h-1z"/><path fill="#604C1C" d="M11 71h1v1h-1z"/><path fill="#856C2E" d="M12 71h1v1h-1z"/><path fill="#AE432E" d="M16 71h1v1h-1zM4 72h1v1H4z"/><path fill="#873220" d="M5 72h1v1H5z"/><path fill="#2B3235" d="M9 72h1v1H9zM10 72h1v1h-1z"/><path fill="#725A23" d="M11 72h1v1h-1z"/><path fill="#675323" d="M12 72h1v1h-1z"/><path fill="#A23F2C" d="M15 72h1v1h-1z"/><path fill="#853627" d="M16 72h1v1h-1z"/><path fill="#8D3928" d="M5 73h1v1H5z"/><path fill="#823120" d="M6 73h1v1H6z"/><path fill="#666E74" d="M9 73h1v1H9z"/><path fill="#394145" d="M10 73h1v1h-1z"/><path fill="#2B3235" d="M11 73h1v1h-1z"/><path fill="#55441B" d="M12 73h1v1h-1z"/><path fill="#9F3D29" d="M14 73h1v1h-1z"/><path fill="#853627" d="M15 73h1v1h-1z"/><path fill="#AE432E" d="M5 74h1v1H5z"/><path fill="#772E1F" d="M6 74h1v1H6z"/><path fill="#893422" d="M7 74h1v1H7z"/><path fill="#8E722E" d="M8 74h1v1H8z"/><path fill="#343B3D" d="M9 74h1v1H9z"/><path fill="#272E32" d="M10 74h1v1h-1z"/><path fill="#303539" d="M11 74h1v1h-1z"/><path fill="#747C82" d="M12 74h1v1h-1z"/><path fill="#853120" d="M13 74h1v1h-1z"/><path fill="#833624" d="M14 74h1v1h-1z"/><path fill="#6C2619" d="M15 74h1v1h-1z"/><path fill="#803324" d="M6 75h1v1H6z"/><path fill="#8E722E" d="M7 75h1v1H7zM8 75h1v1H8z"/><path fill="#796129" d="M9 75h1v1H9z"/><path fill="#272E32" d="M10 75h1v1h-1zM11 75h1v1h-1z"/><path fill="#3F464A" d="M12 75h1v1h-1z"/><path fill="#747C82" d="M13 75h1v1h-1z"/><path fill="#652316" d="M14 75h1v1h-1z"/><path fill="#803324" d="M6 76h1v1H6z"/><path fill="#3C4447" d="M7 76h1v1H7z"/><path fill="#626A70" d="M8 76h1v1H8z"/><path fill="#57461A" d="M9 76h1v1H9z"/><path fill="#642216" d="M10 76h1v1h-1z"/><path fill="#272E32" d="M11 76h1v1h-1zM12 76h1v1h-1z"/><path fill="#7E868C" d="M13 76h1v1h-1zM7 77h1v1H7z"/><path fill="#272E32" d="M8 77h1v1H8z"/><path fill="#642216" d="M9 77h1v1H9z"/><path fill="#5C1E12" d="M10 77h1v1h-1z"/><path fill="#772A1A" d="M11 77h1v1h-1z"/><path fill="#272E32" d="M12 77h1v1h-1z"/><path fill="#545B61" d="M13 77h1v1h-1z"/><path fill="#6F777D" d="M7 78h1v1H7z"/><path fill="#722B1D" d="M8 78h1v1H8z"/><path fill="#6A2719" d="M9 78h1v1H9z"/><path fill="#8F3422" d="M10 78h1v1h-1z"/><path fill="#725A1F" d="M12 78h1v1h-1z"/><path fill="#373D41" d="M13 78h1v1h-1z"/><path fill="#575F64" d="M7 79h1v1H7z"/><path fill="#7E2F20" d="M8 79h1v1H8z"/><path fill="#8B3423" d="M9 79h1v1H9z"/><path fill="#8B6F2A" d="M12 79h1v1h-1z"/><path fill="#796129" d="M13 79h1v1h-1z"/><path fill="#8D3726" d="M6 80h1v1H6z"/><path fill="#4B5054" d="M7 80h1v1H7z"/><path fill="#893424" d="M8 80h1v1H8z"/><path fill="#725A1F" d="M13 80h1v1h-1z"/><path fill="#883321" d="M6 81h1v1H6z"/><path fill="#983926" d="M7 81h1v1H7z"/><path fill="#373D41" d="M13 81h1v1h-1z"/><path fill="#9F3D29" d="M6 82h1v1H6z"/><path fill="#873220" d="M7 82h1v1H7z"/><path fill="#3D4447" d="M13 82h1v1h-1z"/><path fill="#5D6568" d="M7 83h1v1H7z"/><path fill="#806525" d="M13 83h1v1h-1z"/><path fill="#803324" d="M6 84h1v1H6z"/><path fill="#963926" d="M7 84h1v1H7z"/><path fill="#6E5922" d="M13 84h1v1h-1z"/><path fill="#9D3B28" d="M6 85h1v1H6z"/><path fill="#632215" d="M7 85h1v1H7z"/><path fill="#632115" d="M8 85h1v1H8z"/><path fill="#2B3235" d="M13 85h1v1h-1z"/><path fill="#65511D" d="M7 86h1v1H7z"/><path fill="#57461A" d="M8 86h1v1H8z"/><path fill="#6E5922" d="M12 86h1v1h-1z"/><path fill="#474E52" d="M13 86h1v1h-1z"/><path fill="#725A1F" d="M7 87h1v1H7z"/><path fill="#2B3235" d="M8 87h1v1H8z"/><path fill="#70291B" d="M9 87h1v1H9z"/><path fill="#6E5922" d="M11 87h1v1h-1z"/><path fill="#644F1B" d="M12 87h1v1h-1z"/><path fill="#6C2619" d="M8 88h1v1H8z"/><path fill="#601F12" d="M9 88h1v1H9z"/><path fill="#2B3235" d="M10 88h1v1h-1z"/><path fill="#4D5459" d="M11 88h1v1h-1z"/><path fill="#6E5922" d="M12 88h1v1h-1z"/><path fill="#A53F2A" d="M3 89h1v1H3zM4 89h1v1H4z"/><path fill="#601F13" d="M9 89h1v1H9z"/><path fill="#2B3235" d="M10 89h1v1h-1z"/><path fill="#474E52" d="M11 89h1v1h-1z"/><path fill="#A53F2A" d="M2 90h1v1H2zM5 90h1v1H5z"/><path fill="#6D271B" d="M9 90h1v1H9zM10 90h1v1h-1z"/><path fill="#7D6428" d="M11 90h1v1h-1z"/><path fill="#A53F2A" d="M5 91h1v1H5zM8 91h1v1H8z"/><path fill="#7D6428" d="M12 91h1v1h-1z"/><path fill="#A53F2A" d="M6 92h1v1H6zM7 92h1v1H7z"/><path fill="#7D6428" d="M12 92h1v1h-1z"/></svg>