<svg xmlns="http://www.w3.org/2000/svg" width="31" height="91" shape-rendering="crispEdges"><path fill="#5A2416" d="M15 0h1v1h-1zM15 1h1v1h-1z"/><path fill="#83945E" d="M14 2h1v1h-1z"/><path fill="#5A2416" d="M15 2h1v1h-1zM16 2h1v1h-1z"/><path fill="#83945E" d="M14 3h1v1h-1z"/><path fill="#592315" d="M15 3h1v1h-1z"/><path fill="#603320" d="M16 3h1v1h-1z"/><path fill="#5F321F" d="M14 4h1v1h-1zM15 4h1v1h-1z"/><path fill="#59331F" d="M16 4h1v1h-1z"/><path fill="#643F27" d="M14 5h1v1h-1z"/><path fill="#5D3722" d="M15 5h1v1h-1z"/><path fill="#6A4C30" d="M16 5h1v1h-1z"/><path fill="#623D25" d="M14 6h1v1h-1z"/><path fill="#633D27" d="M15 6h1v1h-1z"/><path fill="#6A4C30" d="M16 6h1v1h-1z"/><path fill="#65482C" d="M14 7h1v1h-1z"/><path fill="#5D3F27" d="M15 7h1v1h-1z"/><path fill="#614229" d="M16 7h1v1h-1z"/><path fill="#65482C" d="M14 8h1v1h-1z"/><path fill="#644B30" d="M15 8h1v1h-1z"/><path fill="#728152" d="M16 8h1v1h-1z"/><path fill="#80915B" d="M14 9h1v1h-1z"/><path fill="#644B30" d="M15 9h1v1h-1z"/><path fill="#879862" d="M16 9h1v1h-1z"/><path fill="#83945F" d="M14 10h1v1h-1z"/><path fill="#654C30" d="M15 10h1v1h-1z"/><path fill="#879862" d="M16 10h1v1h-1z"/><path fill="#83945F" d="M14 11h1v1h-1z"/><path fill="#684F32" d="M15 11h1v1h-1z"/><path fill="#879862" d="M16 11h1v1h-1z"/><path fill="#637247" d="M14 12h1v1h-1z"/><path fill="#61472D" d="M15 12h1v1h-1z"/><path fill="#738451" d="M16 12h1v1h-1z"/><path fill="#5E6A40" d="M13 13h1v1h-1z"/><path fill="#634F31" d="M14 13h1v1h-1z"/><path fill="#515E38" d="M15 13h1v1h-1z"/><path fill="#454F2F" d="M16 13h1v1h-1z"/><path fill="#6C7C4A" d="M17 13h1v1h-1z"/><path fill="#525F39" d="M13 14h1v1h-1z"/><path fill="#574328" d="M14 14h1v1h-1z"/><path fill="#4A5633" d="M15 14h1v1h-1z"/><path fill="#454F2F" d="M16 14h1v1h-1z"/><path fill="#5F6E43" d="M17 14h1v1h-1z"/><path fill="#50311D" d="M13 15h1v1h-1z"/><path fill="#594429" d="M14 15h1v1h-1z"/><path fill="#4A5633" d="M15 15h1v1h-1z"/><path fill="#454F2F" d="M16 15h1v1h-1z"/><path fill="#5F6E43" d="M17 15h1v1h-1z"/><path fill="#52331F" d="M13 16h1v1h-1z"/><path fill="#54341F" d="M14 16h1v1h-1z"/><path fill="#465130" d="M15 16h1v1h-1z"/><path fill="#4D2D1A" d="M16 16h1v1h-1z"/><path fill="#593A23" d="M17 16h1v1h-1z"/><path fill="#5A673F" d="M13 17h1v1h-1z"/><path fill="#563721" d="M14 17h1v1h-1z"/><path fill="#472D19" d="M15 17h1v1h-1z"/><path fill="#4B311D" d="M16 17h1v1h-1z"/><path fill="#563B24" d="M17 17h1v1h-1z"/><path fill="#738252" d="M13 18h1v1h-1z"/><path fill="#5A4127" d="M14 18h1v1h-1z"/><path fill="#432C19" d="M15 18h1v1h-1z"/><path fill="#4B311D" d="M16 18h1v1h-1z"/><path fill="#553520" d="M17 18h1v1h-1z"/><path fill="#738252" d="M13 19h1v1h-1z"/><path fill="#593A23" d="M14 19h1v1h-1z"/><path fill="#442314" d="M15 19h1v1h-1z"/><path fill="#4D2D1A" d="M16 19h1v1h-1z"/><path fill="#563B24" d="M17 19h1v1h-1z"/><path fill="#6F7D4F" d="M13 20h1v1h-1z"/><path fill="#4D3722" d="M14 20h1v1h-1z"/><path fill="#3C2D19" d="M15 20h1v1h-1z"/><path fill="#493B23" d="M16 20h1v1h-1z"/><path fill="#5C5031" d="M17 20h1v1h-1z"/><path fill="#6C5D3A" d="M13 21h1v1h-1z"/><path fill="#4D301D" d="M14 21h1v1h-1z"/><path fill="#3A301B" d="M15 21h1v1h-1z"/><path fill="#484227" d="M16 21h1v1h-1z"/><path fill="#5C5735" d="M17 21h1v1h-1z"/><path fill="#736B44" d="M13 22h1v1h-1z"/><path fill="#50331F" d="M14 22h1v1h-1z"/><path fill="#38321C" d="M15 22h1v1h-1z"/><path fill="#474429" d="M16 22h1v1h-1z"/><path fill="#5F6E43" d="M17 22h1v1h-1z"/><path fill="#523723" d="M13 23h1v1h-1z"/><path fill="#6C6A42" d="M14 23h1v1h-1z"/><path fill="#38371D" d="M15 23h1v1h-1z"/><path fill="#5A5B36" d="M16 23h1v1h-1z"/><path fill="#5E603B" d="M17 23h1v1h-1z"/><path fill="#533824" d="M13 24h1v1h-1z"/><path fill="#6D6D44" d="M14 24h1v1h-1z"/><path fill="#383920" d="M15 24h1v1h-1z"/><path fill="#646841" d="M16 24h1v1h-1z"/><path fill="#696E42" d="M17 24h1v1h-1z"/><path fill="#584129" d="M13 25h1v1h-1z"/><path fill="#716F48" d="M14 25h1v1h-1z"/><path fill="#39381F" d="M15 25h1v1h-1z"/><path fill="#696E46" d="M16 25h1v1h-1z"/><path fill="#71804F" d="M17 25h1v1h-1z"/><path fill="#533723" d="M13 26h1v1h-1z"/><path fill="#716F48" d="M14 26h1v1h-1z"/><path fill="#393920" d="M15 26h1v1h-1z"/><path fill="#728152" d="M16 26h1v1h-1z"/><path fill="#56452B" d="M17 26h1v1h-1z"/><path fill="#564029" d="M13 27h1v1h-1z"/><path fill="#778556" d="M14 27h1v1h-1z"/><path fill="#363F24" d="M15 27h1v1h-1z"/><path fill="#728150" d="M16 27h1v1h-1z"/><path fill="#56452B" d="M17 27h1v1h-1z"/><path fill="#513522" d="M13 28h1v1h-1z"/><path fill="#778556" d="M14 28h1v1h-1z"/><path fill="#363F23" d="M15 28h1v1h-1z"/><path fill="#728150" d="M16 28h1v1h-1z"/><path fill="#513622" d="M17 28h1v1h-1z"/><path fill="#78754B" d="M12 29h1v1h-1z"/><path fill="#513522" d="M13 29h1v1h-1z"/><path fill="#6F6C46" d="M14 29h1v1h-1z"/><path fill="#363F24" d="M15 29h1v1h-1z"/><path fill="#637146" d="M16 29h1v1h-1z"/><path fill="#4D2E1C" d="M17 29h1v1h-1z"/><path fill="#4D311F" d="M18 29h1v1h-1z"/><path fill="#716A43" d="M12 30h1v1h-1z"/><path fill="#574229" d="M13 30h1v1h-1z"/><path fill="#6F6C45" d="M14 30h1v1h-1z"/><path fill="#3A371E" d="M15 30h1v1h-1z"/><path fill="#523C25" d="M16 30h1v1h-1z"/><path fill="#595634" d="M17 30h1v1h-1z"/><path fill="#4D311F" d="M18 30h1v1h-1z"/><path fill="#6A6841" d="M12 31h1v1h-1z"/><path fill="#544027" d="M13 31h1v1h-1z"/><path fill="#667446" d="M14 31h1v1h-1z"/><path fill="#38371F" d="M15 31h1v1h-1z"/><path fill="#4F3721" d="M16 31h1v1h-1z"/><path fill="#515030" d="M17 31h1v1h-1z"/><path fill="#503420" d="M18 31h1v1h-1z"/><path fill="#585332" d="M12 32h1v1h-1z"/><path fill="#554B2E" d="M13 32h1v1h-1z"/><path fill="#616F44" d="M14 32h1v1h-1z"/><path fill="#363F23" d="M15 32h1v1h-1z"/><path fill="#4A3C25" d="M16 32h1v1h-1z"/><path fill="#65643D" d="M17 32h1v1h-1z"/><path fill="#50331F" d="M18 32h1v1h-1z"/><path fill="#55613C" d="M12 33h1v1h-1z"/><path fill="#4D462A" d="M13 33h1v1h-1z"/><path fill="#515E37" d="M14 33h1v1h-1z"/><path fill="#363F23" d="M15 33h1v1h-1z"/><path fill="#4F442A" d="M16 33h1v1h-1z"/><path fill="#4D3621" d="M17 33h1v1h-1z"/><path fill="#524028" d="M18 33h1v1h-1z"/><path fill="#55603B" d="M12 34h1v1h-1z"/><path fill="#4C452A" d="M13 34h1v1h-1z"/><path fill="#4F5D37" d="M14 34h1v1h-1z"/><path fill="#3E331E" d="M15 34h1v1h-1z"/><path fill="#4F5D37" d="M16 34h1v1h-1z"/><path fill="#4F3420" d="M17 34h1v1h-1zM18 34h1v1h-1z"/><path fill="#525F39" d="M12 35h1v1h-1z"/><path fill="#4C452A" d="M13 35h1v1h-1z"/><path fill="#4F5D37" d="M14 35h1v1h-1z"/><path fill="#3D351F" d="M15 35h1v1h-1z"/><path fill="#4A482B" d="M16 35h1v1h-1z"/><path fill="#4B311E" d="M17 35h1v1h-1z"/><path fill="#4D2F1C" d="M18 35h1v1h-1z"/><path fill="#4E4C2E" d="M12 36h1v1h-1z"/><path fill="#4B3D25" d="M13 36h1v1h-1z"/><path fill="#4F5D37" d="M14 36h1v1h-1z"/><path fill="#40311D" d="M15 36h1v1h-1z"/><path fill="#50492B" d="M16 36h1v1h-1z"/><path fill="#4A2F1D" d="M17 36h1v1h-1z"/><path fill="#503F25" d="M18 36h1v1h-1z"/><path fill="#5E5F3B" d="M12 37h1v1h-1z"/><path fill="#585A36" d="M13 37h1v1h-1z"/><path fill="#514529" d="M14 37h1v1h-1z"/><path fill="#3E2E1A" d="M15 37h1v1h-1z"/><path fill="#4F4F2F" d="M16 37h1v1h-1z"/><path fill="#4E3D24" d="M17 37h1v1h-1z"/><path fill="#4E321D" d="M18 37h1v1h-1z"/><path fill="#5E613C" d="M12 38h1v1h-1z"/><path fill="#5B603B" d="M13 38h1v1h-1z"/><path fill="#534B2D" d="M14 38h1v1h-1z"/><path fill="#372919" d="M15 38h1v1h-1z"/><path fill="#555031" d="M16 38h1v1h-1z"/><path fill="#55452A" d="M17 38h1v1h-1z"/><path fill="#4E3B23" d="M18 38h1v1h-1z"/><path fill="#748355" d="M12 39h1v1h-1z"/><path fill="#666C45" d="M13 39h1v1h-1z"/><path fill="#51462A" d="M14 39h1v1h-1z"/><path fill="#3B2818" d="M15 39h1v1h-1z"/><path fill="#3C3D21" d="M16 39h1v1h-1z"/><path fill="#55452A" d="M17 39h1v1h-1z"/><path fill="#554127" d="M18 39h1v1h-1z"/><path fill="#81915E" d="M12 40h1v1h-1z"/><path fill="#778556" d="M13 40h1v1h-1z"/><path fill="#594B2F" d="M14 40h1v1h-1z"/><path fill="#3B2818" d="M15 40h1v1h-1z"/><path fill="#3B3F22" d="M16 40h1v1h-1z"/><path fill="#555031" d="M17 40h1v1h-1z"/><path fill="#554B2D" d="M18 40h1v1h-1z"/><path fill="#81915E" d="M12 41h1v1h-1z"/><path fill="#747A4F" d="M13 41h1v1h-1z"/><path fill="#5E5435" d="M14 41h1v1h-1z"/><path fill="#3D2818" d="M15 41h1v1h-1z"/><path fill="#3C3D21" d="M16 41h1v1h-1z"/><path fill="#555031" d="M17 41h1v1h-1z"/><path fill="#55472B" d="M18 41h1v1h-1z"/><path fill="#81915E" d="M12 42h1v1h-1z"/><path fill="#666E45" d="M13 42h1v1h-1z"/><path fill="#748354" d="M14 42h1v1h-1z"/><path fill="#3C2919" d="M15 42h1v1h-1z"/><path fill="#3C3D21" d="M16 42h1v1h-1z"/><path fill="#554E30" d="M17 42h1v1h-1z"/><path fill="#5F5B38" d="M18 42h1v1h-1z"/><path fill="#81915E" d="M12 43h1v1h-1z"/><path fill="#5D613C" d="M13 43h1v1h-1z"/><path fill="#727A4E" d="M14 43h1v1h-1z"/><path fill="#3D2818" d="M15 43h1v1h-1z"/><path fill="#32391F" d="M16 43h1v1h-1z"/><path fill="#394424" d="M17 43h1v1h-1z"/><path fill="#63613B" d="M18 43h1v1h-1z"/><path fill="#879862" d="M11 44h1v1h-1z"/><path fill="#677449" d="M12 44h1v1h-1z"/><path fill="#656640" d="M13 44h1v1h-1z"/><path fill="#3B4022" d="M14 44h1v1h-1z"/><path fill="#3D2818" d="M15 44h1v1h-1z"/><path fill="#2E351D" d="M16 44h1v1h-1z"/><path fill="#394424" d="M17 44h1v1h-1z"/><path fill="#55613B" d="M18 44h1v1h-1z"/><path fill="#667446" d="M19 44h1v1h-1z"/><path fill="#879862" d="M11 45h1v1h-1z"/><path fill="#677449" d="M12 45h1v1h-1z"/><path fill="#3C3D21" d="M13 45h1v1h-1z"/><path fill="#996334" d="M14 45h1v1h-1z"/><path fill="#462514" d="M15 45h1v1h-1z"/><path fill="#A5713B" d="M16 45h1v1h-1z"/><path fill="#2F371E" d="M17 45h1v1h-1z"/><path fill="#55613B" d="M18 45h1v1h-1z"/><path fill="#788855" d="M19 45h1v1h-1z"/><path fill="#879862" d="M11 46h1v1h-1z"/><path fill="#778556" d="M12 46h1v1h-1z"/><path fill="#3D3C20" d="M13 46h1v1h-1z"/><path fill="#A5713B" d="M14 46h1v1h-1z"/><path fill="#462515" d="M15 46h1v1h-1z"/><path fill="#A5713B" d="M16 46h1v1h-1z"/><path fill="#2E351D" d="M17 46h1v1h-1z"/><path fill="#55613B" d="M18 46h1v1h-1z"/><path fill="#788855" d="M19 46h1v1h-1z"/><path fill="#879862" d="M11 47h1v1h-1z"/><path fill="#40351D" d="M12 47h1v1h-1z"/><path fill="#A5713B" d="M13 47h1v1h-1z"/><path fill="#98652E" d="M14 47h1v1h-1z"/><path fill="#462515" d="M15 47h1v1h-1z"/><path fill="#925F28" d="M16 47h1v1h-1z"/><path fill="#A5713B" d="M17 47h1v1h-1z"/><path fill="#394424" d="M18 47h1v1h-1z"/><path fill="#778756" d="M19 47h1v1h-1z"/><path fill="#879862" d="M11 48h1v1h-1z"/><path fill="#442F19" d="M12 48h1v1h-1z"/><path fill="#A5713B" d="M13 48h1v1h-1z"/><path fill="#98652E" d="M14 48h1v1h-1z"/><path fill="#44250E" d="M15 48h1v1h-1z"/><path fill="#925F28" d="M16 48h1v1h-1z"/><path fill="#A5713B" d="M17 48h1v1h-1z"/><path fill="#343E21" d="M18 48h1v1h-1z"/><path fill="#778756" d="M19 48h1v1h-1z"/><path fill="#81925E" d="M11 49h1v1h-1z"/><path fill="#452C18" d="M12 49h1v1h-1z"/><path fill="#815528" d="M13 49h1v1h-1z"/><path fill="#925F28" d="M14 49h1v1h-1z"/><path fill="#44250E" d="M15 49h1v1h-1z"/><path fill="#885520" d="M16 49h1v1h-1z"/><path fill="#815528" d="M17 49h1v1h-1z"/><path fill="#32391F" d="M18 49h1v1h-1z"/><path fill="#778756" d="M19 49h1v1h-1z"/><path fill="#81925E" d="M11 50h1v1h-1z"/><path fill="#452C18" d="M12 50h1v1h-1z"/><path fill="#815528" d="M13 50h1v1h-1z"/><path fill="#885520" d="M14 50h1v1h-1z"/><path fill="#2F1D0F" d="M15 50h1v1h-1z"/><path fill="#A5713B" d="M16 50h1v1h-1z"/><path fill="#815528" d="M17 50h1v1h-1z"/><path fill="#2F371E" d="M18 50h1v1h-1z"/><path fill="#778756" d="M19 50h1v1h-1z"/><path fill="#7C8C59" d="M11 51h1v1h-1z"/><path fill="#394424" d="M12 51h1v1h-1z"/><path fill="#815528" d="M13 51h1v1h-1z"/><path fill="#2F1D0F" d="M14 51h1v1h-1zM15 51h1v1h-1zM16 51h1v1h-1z"/><path fill="#815528" d="M17 51h1v1h-1z"/><path fill="#32391F" d="M18 51h1v1h-1z"/><path fill="#5B683F" d="M19 51h1v1h-1z"/><path fill="#784716" d="M12 52h1v1h-1z"/><path fill="#2F1D0F" d="M13 52h1v1h-1zM14 52h1v1h-1z"/><path fill="#41507F" d="M15 52h1v1h-1z"/><path fill="#23170C" d="M16 52h1v1h-1z"/><path fill="#2F1D0F" d="M17 52h1v1h-1z"/><path fill="#44250E" d="M18 52h1v1h-1z"/><path fill="#784716" d="M12 53h1v1h-1z"/><path fill="#2F1D0F" d="M13 53h1v1h-1z"/><path fill="#394773" d="M14 53h1v1h-1z"/><path fill="#323D61" d="M15 53h1v1h-1z"/><path fill="#252F4C" d="M16 53h1v1h-1z"/><path fill="#23170C" d="M17 53h1v1h-1z"/><path fill="#44250E" d="M18 53h1v1h-1z"/><path fill="#784716" d="M12 54h1v1h-1z"/><path fill="#2F1D0F" d="M13 54h1v1h-1zM14 54h1v1h-1z"/><path fill="#252F4C" d="M15 54h1v1h-1z"/><path fill="#23170C" d="M16 54h1v1h-1zM17 54h1v1h-1z"/><path fill="#44250E" d="M18 54h1v1h-1z"/><path fill="#879862" d="M11 55h1v1h-1z"/><path fill="#394424" d="M12 55h1v1h-1z"/><path fill="#8C5E2E" d="M13 55h1v1h-1z"/><path fill="#2F1D0F" d="M14 55h1v1h-1z"/><path fill="#23170C" d="M15 55h1v1h-1zM16 55h1v1h-1z"/><path fill="#815528" d="M17 55h1v1h-1z"/><path fill="#343E21" d="M18 55h1v1h-1z"/><path fill="#5B683F" d="M19 55h1v1h-1z"/><path fill="#879862" d="M11 56h1v1h-1z"/><path fill="#394424" d="M12 56h1v1h-1z"/><path fill="#84582B" d="M13 56h1v1h-1z"/><path fill="#523214" d="M14 56h1v1h-1z"/><path fill="#38200F" d="M15 56h1v1h-1z"/><path fill="#583618" d="M16 56h1v1h-1z"/><path fill="#815528" d="M17 56h1v1h-1z"/><path fill="#343E21" d="M18 56h1v1h-1z"/><path fill="#5F462C" d="M19 56h1v1h-1z"/><path fill="#879862" d="M11 57h1v1h-1z"/><path fill="#394424" d="M12 57h1v1h-1z"/><path fill="#7B5025" d="M13 57h1v1h-1z"/><path fill="#825628" d="M14 57h1v1h-1z"/><path fill="#23170C" d="M15 57h1v1h-1z"/><path fill="#825628" d="M16 57h1v1h-1z"/><path fill="#794F25" d="M17 57h1v1h-1z"/><path fill="#3C2D19" d="M18 57h1v1h-1z"/><path fill="#6E5637" d="M19 57h1v1h-1z"/><path fill="#6A4C30" d="M11 58h1v1h-1z"/><path fill="#394424" d="M12 58h1v1h-1z"/><path fill="#82562A" d="M13 58h1v1h-1z"/><path fill="#6C461F" d="M14 58h1v1h-1z"/><path fill="#23170C" d="M15 58h1v1h-1z"/><path fill="#68441F" d="M16 58h1v1h-1z"/><path fill="#815528" d="M17 58h1v1h-1z"/><path fill="#392D19" d="M18 58h1v1h-1z"/><path fill="#746641" d="M19 58h1v1h-1z"/><path fill="#6A4C30" d="M10 59h1v1h-1z"/><path fill="#5E3F28" d="M11 59h1v1h-1z"/><path fill="#394424" d="M12 59h1v1h-1z"/><path fill="#85582A" d="M13 59h1v1h-1z"/><path fill="#40240E" d="M14 59h1v1h-1z"/><path fill="#23170C" d="M15 59h1v1h-1z"/><path fill="#44250E" d="M16 59h1v1h-1z"/><path fill="#85582A" d="M17 59h1v1h-1z"/><path fill="#372B18" d="M18 59h1v1h-1z"/><path fill="#442F19" d="M19 59h1v1h-1z"/><path fill="#715E3C" d="M20 59h1v1h-1z"/><path fill="#6A4C30" d="M10 60h1v1h-1z"/><path fill="#624D31" d="M11 60h1v1h-1z"/><path fill="#394424" d="M12 60h1v1h-1z"/><path fill="#44250E" d="M13 60h1v1h-1z"/><path fill="#A5713B" d="M14 60h1v1h-1zM15 60h1v1h-1z"/><path fill="#603712" d="M16 60h1v1h-1z"/><path fill="#44250E" d="M17 60h1v1h-1z"/><path fill="#2E351D" d="M18 60h1v1h-1z"/><path fill="#422615" d="M19 60h1v1h-1z"/><path fill="#6E5637" d="M20 60h1v1h-1z"/><path fill="#6A4C30" d="M9 61h1v1H9z"/><path fill="#766C46" d="M10 61h1v1h-1z"/><path fill="#584B2E" d="M11 61h1v1h-1z"/><path fill="#A5713B" d="M12 61h1v1h-1z"/><path fill="#523012" d="M13 61h1v1h-1z"/><path fill="#6B441C" d="M14 61h1v1h-1zM15 61h1v1h-1zM16 61h1v1h-1z"/><path fill="#523012" d="M17 61h1v1h-1z"/><path fill="#6F471D" d="M18 61h1v1h-1z"/><path fill="#32391F" d="M19 61h1v1h-1z"/><path fill="#394424" d="M20 61h1v1h-1z"/><path fill="#879862" d="M21 61h1v1h-1z"/><path fill="#766C46" d="M9 62h1v1H9z"/><path fill="#584E30" d="M10 62h1v1h-1z"/><path fill="#A5713B" d="M11 62h1v1h-1z"/><path fill="#523012" d="M12 62h1v1h-1z"/><path fill="#6B441C" d="M13 62h1v1h-1z"/><path fill="#613D19" d="M17 62h1v1h-1z"/><path fill="#2F1D0F" d="M18 62h1v1h-1z"/><path fill="#6F471D" d="M19 62h1v1h-1z"/><path fill="#343E21" d="M20 62h1v1h-1z"/><path fill="#55613B" d="M21 62h1v1h-1z"/><path fill="#2F3C65" d="M3 63h1v1H3z"/><path fill="#766C46" d="M8 63h1v1H8z"/><path fill="#584B2E" d="M9 63h1v1H9z"/><path fill="#A5713B" d="M10 63h1v1h-1z"/><path fill="#523012" d="M11 63h1v1h-1z"/><path fill="#6B441C" d="M12 63h1v1h-1z"/><path fill="#613D19" d="M18 63h1v1h-1z"/><path fill="#2F1D0F" d="M19 63h1v1h-1z"/><path fill="#815525" d="M20 63h1v1h-1z"/><path fill="#495432" d="M21 63h1v1h-1z"/><path fill="#55613B" d="M22 63h1v1h-1z"/><path fill="#2F3C65" d="M27 63h1v1h-1zM2 64h1v1H2z"/><path fill="#212A46" d="M3 64h1v1H3zM4 64h1v1H4z"/><path fill="#879862" d="M7 64h1v1H7z"/><path fill="#645838" d="M8 64h1v1H8z"/><path fill="#A5713B" d="M9 64h1v1H9z"/><path fill="#784716" d="M10 64h1v1h-1z"/><path fill="#7C5124" d="M11 64h1v1h-1z"/><path fill="#835524" d="M19 64h1v1h-1z"/><path fill="#2F1D0F" d="M20 64h1v1h-1z"/><path fill="#885520" d="M21 64h1v1h-1z"/><path fill="#3F492A" d="M22 64h1v1h-1z"/><path fill="#55613B" d="M23 64h1v1h-1z"/><path fill="#2F3C65" d="M26 64h1v1h-1z"/><path fill="#212A46" d="M27 64h1v1h-1zM28 64h1v1h-1z"/><path fill="#A5713B" d="M2 65h1v1H2z"/><path fill="#191F34" d="M3 65h1v1H3z"/><path fill="#A5713B" d="M4 65h1v1H4z"/><path fill="#55613B" d="M5 65h1v1H5z"/><path fill="#879862" d="M6 65h1v1H6zM7 65h1v1H7z"/><path fill="#55613B" d="M8 65h1v1H8z"/><path fill="#A5713B" d="M9 65h1v1H9z"/><path fill="#784716" d="M10 65h1v1h-1z"/><path fill="#7C5124" d="M11 65h1v1h-1z"/><path fill="#8E5B25" d="M19 65h1v1h-1z"/><path fill="#44250E" d="M20 65h1v1h-1z"/><path fill="#784716" d="M21 65h1v1h-1z"/><path fill="#3F492A" d="M22 65h1v1h-1z"/><path fill="#55613B" d="M23 65h1v1h-1zM24 65h1v1h-1zM25 65h1v1h-1z"/><path fill="#A5713B" d="M26 65h1v1h-1z"/><path fill="#191F34" d="M27 65h1v1h-1z"/><path fill="#784716" d="M28 65h1v1h-1z"/><path fill="#885520" d="M1 66h1v1H1z"/><path fill="#A5713B" d="M2 66h1v1H2z"/><path fill="#603712" d="M3 66h1v1H3z"/><path fill="#885520" d="M4 66h1v1H4z"/><path fill="#A5713B" d="M5 66h1v1H5z"/><path fill="#55613B" d="M6 66h1v1H6zM7 66h1v1H7z"/><path fill="#A5713B" d="M8 66h1v1H8z"/><path fill="#784716" d="M9 66h1v1H9z"/><path fill="#603712" d="M10 66h1v1h-1z"/><path fill="#6B441C" d="M11 66h1v1h-1z"/><path fill="#814C17" d="M19 66h1v1h-1z"/><path fill="#44250E" d="M20 66h1v1h-1z"/><path fill="#784716" d="M21 66h1v1h-1zM22 66h1v1h-1z"/><path fill="#3F492A" d="M23 66h1v1h-1z"/><path fill="#495432" d="M24 66h1v1h-1z"/><path fill="#A5713B" d="M25 66h1v1h-1z"/><path fill="#885520" d="M26 66h1v1h-1z"/><path fill="#603712" d="M27 66h1v1h-1z"/><path fill="#784716" d="M28 66h1v1h-1z"/><path fill="#885520" d="M29 66h1v1h-1zM0 67h1v1H0z"/><path fill="#A5713B" d="M3 67h1v1H3z"/><path fill="#784716" d="M4 67h1v1H4z"/><path fill="#885520" d="M5 67h1v1H5z"/><path fill="#A5713B" d="M6 67h1v1H6zM7 67h1v1H7z"/><path fill="#784716" d="M8 67h1v1H8z"/><path fill="#191F34" d="M9 67h1v1H9z"/><path fill="#44250E" d="M10 67h1v1h-1z"/><path fill="#2F1D0F" d="M11 67h1v1h-1z"/><path fill="#764D21" d="M12 67h1v1h-1z"/><path fill="#A5713B" d="M18 67h1v1h-1z"/><path fill="#2F1D0F" d="M19 67h1v1h-1z"/><path fill="#44250E" d="M20 67h1v1h-1z"/><path fill="#131722" d="M21 67h1v1h-1z"/><path fill="#784716" d="M22 67h1v1h-1z"/><path fill="#A5713B" d="M23 67h1v1h-1zM24 67h1v1h-1z"/><path fill="#885520" d="M25 67h1v1h-1z"/><path fill="#784716" d="M26 67h1v1h-1zM27 67h1v1h-1z"/><path fill="#885520" d="M30 67h1v1h-1z"/><path fill="#2F3C65" d="M6 68h1v1H6z"/><path fill="#3F4E81" d="M7 68h1v1H7z"/><path fill="#263051" d="M8 68h1v1H8z"/><path fill="#2F3C65" d="M9 68h1v1H9z"/><path fill="#191F34" d="M10 68h1v1h-1z"/><path fill="#2F1D0F" d="M11 68h1v1h-1zM12 68h1v1h-1z"/><path fill="#764D21" d="M13 68h1v1h-1z"/><path fill="#A5713B" d="M17 68h1v1h-1z"/><path fill="#2F1D0F" d="M18 68h1v1h-1z"/><path fill="#44250E" d="M19 68h1v1h-1z"/><path fill="#131722" d="M20 68h1v1h-1z"/><path fill="#2F3C65" d="M21 68h1v1h-1z"/><path fill="#263051" d="M22 68h1v1h-1z"/><path fill="#212A46" d="M23 68h1v1h-1z"/><path fill="#263051" d="M24 68h1v1h-1z"/><path fill="#2F3C65" d="M25 68h1v1h-1zM10 69h1v1h-1z"/><path fill="#191F34" d="M11 69h1v1h-1z"/><path fill="#2F1D0F" d="M12 69h1v1h-1z"/><path fill="#23170C" d="M13 69h1v1h-1z"/><path fill="#603712" d="M14 69h1v1h-1z"/><path fill="#804F1E" d="M15 69h1v1h-1z"/><path fill="#85521E" d="M16 69h1v1h-1z"/><path fill="#2F1D0F" d="M17 69h1v1h-1z"/><path fill="#44250E" d="M18 69h1v1h-1z"/><path fill="#131722" d="M19 69h1v1h-1z"/><path fill="#212A46" d="M20 69h1v1h-1z"/><path fill="#263051" d="M11 70h1v1h-1z"/><path fill="#191F34" d="M12 70h1v1h-1z"/><path fill="#2F1D0F" d="M13 70h1v1h-1z"/><path fill="#23170C" d="M14 70h1v1h-1zM15 70h1v1h-1z"/><path fill="#2F1D0F" d="M16 70h1v1h-1z"/><path fill="#44250E" d="M17 70h1v1h-1z"/><path fill="#131722" d="M18 70h1v1h-1z"/><path fill="#1C243C" d="M19 70h1v1h-1z"/><path fill="#1E263F" d="M12 71h1v1h-1z"/><path fill="#191F34" d="M13 71h1v1h-1z"/><path fill="#131722" d="M14 71h1v1h-1zM15 71h1v1h-1zM16 71h1v1h-1zM17 71h1v1h-1z"/><path fill="#263051" d="M18 71h1v1h-1z"/><path fill="#784716" d="M12 72h1v1h-1z"/><path fill="#A5713B" d="M13 72h1v1h-1z"/><path fill="#191F34" d="M14 72h1v1h-1z"/><path fill="#131722" d="M15 72h1v1h-1zM16 72h1v1h-1z"/><path fill="#603C17" d="M17 72h1v1h-1zM18 72h1v1h-1z"/><path fill="#191F34" d="M13 73h1v1h-1z"/><path fill="#A5713B" d="M14 73h1v1h-1z"/><path fill="#784716" d="M15 73h1v1h-1z"/><path fill="#603C17" d="M16 73h1v1h-1z"/><path fill="#2F3C65" d="M17 73h1v1h-1z"/><path fill="#191F34" d="M13 74h1v1h-1z"/><path fill="#2F3C65" d="M14 74h1v1h-1z"/><path fill="#131722" d="M15 74h1v1h-1zM16 74h1v1h-1z"/><path fill="#191F34" d="M17 74h1v1h-1z"/><path fill="#3F4E81" d="M13 75h1v1h-1z"/><path fill="#1C2548" d="M14 75h1v1h-1z"/><path fill="#784716" d="M15 75h1v1h-1z"/><path fill="#161B2C" d="M16 75h1v1h-1z"/><path fill="#263051" d="M17 75h1v1h-1z"/><path fill="#2F3C65" d="M13 76h1v1h-1z"/><path fill="#A5713B" d="M14 76h1v1h-1z"/><path fill="#784716" d="M15 76h1v1h-1z"/><path fill="#754A1B" d="M16 76h1v1h-1z"/><path fill="#2F3C65" d="M17 76h1v1h-1z"/><path fill="#441615" d="M13 77h1v1h-1z"/><path fill="#3F4E81" d="M14 77h1v1h-1z"/><path fill="#784716" d="M15 77h1v1h-1z"/><path fill="#171C2E" d="M16 77h1v1h-1z"/><path fill="#191F34" d="M17 77h1v1h-1z"/><path fill="#4A1D21" d="M13 78h1v1h-1zM14 78h1v1h-1z"/><path fill="#131722" d="M15 78h1v1h-1z"/><path fill="#161B2C" d="M16 78h1v1h-1z"/><path fill="#2F3C65" d="M17 78h1v1h-1z"/><path fill="#431D23" d="M13 79h1v1h-1z"/><path fill="#371C2A" d="M14 79h1v1h-1z"/><path fill="#784716" d="M15 79h1v1h-1z"/><path fill="#191F34" d="M16 79h1v1h-1z"/><path fill="#263051" d="M17 79h1v1h-1z"/><path fill="#402838" d="M13 80h1v1h-1z"/><path fill="#7D4223" d="M14 80h1v1h-1z"/><path fill="#6A3312" d="M15 80h1v1h-1z"/><path fill="#754A1B" d="M16 80h1v1h-1z"/><path fill="#2F3C65" d="M17 80h1v1h-1z"/><path fill="#191F34" d="M13 81h1v1h-1z"/><path fill="#3C2D43" d="M14 81h1v1h-1z"/><path fill="#784716" d="M15 81h1v1h-1z"/><path fill="#161B2C" d="M16 81h1v1h-1z"/><path fill="#191F34" d="M17 81h1v1h-1z"/><path fill="#3F4E81" d="M13 82h1v1h-1z"/><path fill="#39304B" d="M14 82h1v1h-1z"/><path fill="#25161C" d="M15 82h1v1h-1z"/><path fill="#131722" d="M16 82h1v1h-1z"/><path fill="#2F3C65" d="M17 82h1v1h-1z"/><path fill="#263051" d="M13 83h1v1h-1z"/><path fill="#3F4E81" d="M14 83h1v1h-1z"/><path fill="#6E3813" d="M15 83h1v1h-1z"/><path fill="#191F34" d="M16 83h1v1h-1z"/><path fill="#2F3C65" d="M17 83h1v1h-1zM13 84h1v1h-1z"/><path fill="#A5713B" d="M14 84h1v1h-1z"/><path fill="#6C3613" d="M15 84h1v1h-1z"/><path fill="#754A1B" d="M16 84h1v1h-1z"/><path fill="#2F3C65" d="M17 84h1v1h-1z"/><path fill="#191F34" d="M13 85h1v1h-1z"/><path fill="#2F3C65" d="M14 85h1v1h-1z"/><path fill="#784716" d="M15 85h1v1h-1z"/><path fill="#171C2F" d="M16 85h1v1h-1z"/><path fill="#191F34" d="M17 85h1v1h-1z"/><path fill="#3F4E81" d="M13 86h1v1h-1z"/><path fill="#191F34" d="M14 86h1v1h-1z"/><path fill="#131722" d="M15 86h1v1h-1z"/><path fill="#161B2C" d="M16 86h1v1h-1z"/><path fill="#2F3C65" d="M17 86h1v1h-1z"/><path fill="#2F3C63" d="M13 87h1v1h-1z"/><path fill="#3F4E81" d="M14 87h1v1h-1z"/><path fill="#1C2548" d="M15 87h1v1h-1z"/><path fill="#191F34" d="M16 87h1v1h-1z"/><path fill="#263051" d="M17 87h1v1h-1z"/><path fill="#A5713B" d="M13 88h1v1h-1z"/><path fill="#131722" d="M14 88h1v1h-1z"/><path fill="#1C2548" d="M15 88h1v1h-1z"/><path fill="#131722" d="M16 88h1v1h-1z"/><path fill="#A5713B" d="M17 88h1v1h-1zM13 89h1v1h-1z"/><path fill="#44250E" d="M14 89h1v1h-1z"/><path fill="#131722" d="M15 89h1v1h-1z"/><path fill="#44250E" d="M16 89h1v1h-1zM17 89h1v1h-1z"/><path fill="#784716" d="M14 90h1v1h-1z"/><path fill="#44250E" d="M15 90h1v1h-1zM16 90h1v1h-1z"/></svg>