<svg xmlns="http://www.w3.org/2000/svg" width="64" height="64" shape-rendering="crispEdges"><path fill="#363441" d="M15 0h1v1h-1zM16 0h1v1h-1z" opacity=".651"/><path fill="#393939" d="M17 0h1v1h-1z" opacity=".035"/><path fill="#353541" d="M48 0h1v1h-1zM49 0h1v1h-1z" opacity=".647"/><path fill="#353441" d="M13 1h1v1h-1zM14 1h1v1h-1zM15 1h1v1h-1zM16 1h1v1h-1zM17 1h1v1h-1zM18 1h1v1h-1zM19 1h1v1h-1zM20 1h1v1h-1zM21 1h1v1h-1zM22 1h1v1h-1z"/><path fill="#363441" d="M23 1h1v1h-1z" opacity=".953"/><path fill="#353543" d="M24 1h1v1h-1z" opacity=".133"/><path fill="#2D2D3C" d="M25 1h1v1h-1z" opacity=".067"/><path d="M39 1h1v1h-1z" opacity=".004"/><path fill="navy" d="M40 1h1v1h-1z" opacity=".008"/><path fill="#363441" d="M41 1h1v1h-1z" opacity=".765"/><path fill="#353441" d="M42 1h1v1h-1zM43 1h1v1h-1zM44 1h1v1h-1zM45 1h1v1h-1zM46 1h1v1h-1zM47 1h1v1h-1zM48 1h1v1h-1zM49 1h1v1h-1zM50 1h1v1h-1zM51 1h1v1h-1z"/><path fill="#343440" d="M10 2h1v1h-1z" opacity=".173"/><path fill="#353241" d="M11 2h1v1h-1z" opacity=".337"/><path fill="#343440" d="M12 2h1v1h-1z" opacity=".498"/><path fill="#353441" d="M13 2h1v1h-1z"/><path fill="#736066" d="M14 2h1v1h-1zM15 2h1v1h-1zM16 2h1v1h-1zM17 2h1v1h-1zM18 2h1v1h-1z"/><path fill="#353441" d="M19 2h1v1h-1zM20 2h1v1h-1zM21 2h1v1h-1zM22 2h1v1h-1z"/><path fill="#353442" d="M23 2h1v1h-1z" opacity=".976"/><path fill="#353342" d="M24 2h1v1h-1z" opacity=".565"/><path fill="#353542" d="M25 2h1v1h-1z" opacity=".533"/><path fill="#343440" d="M26 2h1v1h-1zM27 2h1v1h-1zM28 2h1v1h-1zM29 2h1v1h-1zM30 2h1v1h-1zM31 2h1v1h-1zM32 2h1v1h-1zM33 2h1v1h-1zM34 2h1v1h-1zM35 2h1v1h-1zM36 2h1v1h-1zM37 2h1v1h-1zM38 2h1v1h-1z" opacity=".498"/><path fill="#343442" d="M39 2h1v1h-1zM40 2h1v1h-1z" opacity=".502"/><path fill="#353441" d="M41 2h1v1h-1z" opacity=".882"/><path fill="#353441" d="M42 2h1v1h-1zM43 2h1v1h-1zM44 2h1v1h-1zM45 2h1v1h-1z"/><path fill="#736066" d="M46 2h1v1h-1zM47 2h1v1h-1zM48 2h1v1h-1zM49 2h1v1h-1zM50 2h1v1h-1z"/><path fill="#353441" d="M51 2h1v1h-1z"/><path fill="#343440" d="M52 2h1v1h-1z" opacity=".498"/><path fill="#353342" d="M53 2h1v1h-1z" opacity=".486"/><path fill="#353541" d="M54 2h1v1h-1z" opacity=".475"/><path fill="#343440" d="M10 3h1v1h-1z" opacity=".345"/><path fill="#343440" d="M11 3h1v1h-1z" opacity=".671"/><path fill="#353441" d="M12 3h1v1h-1zM13 3h1v1h-1z"/><path fill="#B18B8B" d="M14 3h1v1h-1zM15 3h1v1h-1zM16 3h1v1h-1zM17 3h1v1h-1zM18 3h1v1h-1z"/><path fill="#353441" d="M19 3h1v1h-1zM20 3h1v1h-1zM21 3h1v1h-1zM22 3h1v1h-1zM23 3h1v1h-1zM24 3h1v1h-1zM25 3h1v1h-1zM26 3h1v1h-1zM27 3h1v1h-1zM28 3h1v1h-1zM29 3h1v1h-1zM30 3h1v1h-1zM31 3h1v1h-1zM32 3h1v1h-1zM33 3h1v1h-1zM34 3h1v1h-1zM35 3h1v1h-1zM36 3h1v1h-1zM37 3h1v1h-1zM38 3h1v1h-1zM39 3h1v1h-1zM40 3h1v1h-1zM41 3h1v1h-1zM42 3h1v1h-1zM43 3h1v1h-1zM44 3h1v1h-1zM45 3h1v1h-1z"/><path fill="#B18B8B" d="M46 3h1v1h-1zM47 3h1v1h-1zM48 3h1v1h-1zM49 3h1v1h-1zM50 3h1v1h-1z"/><path fill="#353441" d="M51 3h1v1h-1zM52 3h1v1h-1z"/><path fill="#353442" d="M53 3h1v1h-1z" opacity=".976"/><path fill="#363441" d="M54 3h1v1h-1z" opacity=".953"/><path fill="#353441" d="M9 4h1v1H9z" opacity=".922"/><path fill="#353441" d="M10 4h1v1h-1z"/><path fill="#736066" d="M11 4h1v1h-1z"/><path fill="#B18B8B" d="M12 4h1v1h-1zM13 4h1v1h-1zM14 4h1v1h-1zM15 4h1v1h-1zM16 4h1v1h-1zM17 4h1v1h-1zM18 4h1v1h-1zM19 4h1v1h-1z"/><path fill="#353441" d="M20 4h1v1h-1zM21 4h1v1h-1zM22 4h1v1h-1z"/><path fill="#B18B8B" d="M23 4h1v1h-1zM24 4h1v1h-1z"/><path fill="#736066" d="M25 4h1v1h-1z"/><path fill="#353441" d="M26 4h1v1h-1zM27 4h1v1h-1zM28 4h1v1h-1zM29 4h1v1h-1zM30 4h1v1h-1zM31 4h1v1h-1zM32 4h1v1h-1zM33 4h1v1h-1zM34 4h1v1h-1zM35 4h1v1h-1zM36 4h1v1h-1zM37 4h1v1h-1zM38 4h1v1h-1z"/><path fill="#736066" d="M39 4h1v1h-1z"/><path fill="#B18B8B" d="M40 4h1v1h-1zM41 4h1v1h-1z"/><path fill="#353441" d="M42 4h1v1h-1zM43 4h1v1h-1zM44 4h1v1h-1z"/><path fill="#B18B8B" d="M45 4h1v1h-1zM46 4h1v1h-1zM47 4h1v1h-1zM48 4h1v1h-1zM49 4h1v1h-1zM50 4h1v1h-1zM51 4h1v1h-1zM52 4h1v1h-1z"/><path fill="#736066" d="M53 4h1v1h-1z"/><path fill="#353441" d="M54 4h1v1h-1zM55 4h1v1h-1z"/><path fill="#353341" d="M8 5h1v1H8z" opacity=".49"/><path fill="#353441" d="M9 5h1v1H9z"/><path fill="#B18B8B" d="M10 5h1v1h-1zM11 5h1v1h-1zM12 5h1v1h-1zM13 5h1v1h-1zM14 5h1v1h-1zM15 5h1v1h-1zM16 5h1v1h-1zM17 5h1v1h-1z"/><path fill="#353441" d="M18 5h1v1h-1zM19 5h1v1h-1z"/><path fill="#B18B8B" d="M20 5h1v1h-1zM21 5h1v1h-1zM22 5h1v1h-1zM23 5h1v1h-1zM24 5h1v1h-1zM25 5h1v1h-1zM26 5h1v1h-1zM27 5h1v1h-1zM28 5h1v1h-1z"/><path fill="#353441" d="M29 5h1v1h-1zM30 5h1v1h-1zM31 5h1v1h-1zM32 5h1v1h-1zM33 5h1v1h-1zM34 5h1v1h-1zM35 5h1v1h-1zM36 5h1v1h-1z"/><path fill="#B18B8B" d="M37 5h1v1h-1zM38 5h1v1h-1zM39 5h1v1h-1zM40 5h1v1h-1zM41 5h1v1h-1zM42 5h1v1h-1zM43 5h1v1h-1zM44 5h1v1h-1z"/><path fill="#353441" d="M45 5h1v1h-1zM46 5h1v1h-1z"/><path fill="#B18B8B" d="M47 5h1v1h-1zM48 5h1v1h-1zM49 5h1v1h-1zM50 5h1v1h-1zM51 5h1v1h-1zM52 5h1v1h-1zM53 5h1v1h-1zM54 5h1v1h-1z"/><path fill="#353441" d="M55 5h1v1h-1zM56 5h1v1h-1zM8 6h1v1H8z"/><path fill="#B18B8B" d="M9 6h1v1H9zM10 6h1v1h-1zM11 6h1v1h-1zM12 6h1v1h-1zM13 6h1v1h-1zM14 6h1v1h-1zM15 6h1v1h-1zM16 6h1v1h-1z"/><path fill="#353441" d="M17 6h1v1h-1zM18 6h1v1h-1z"/><path fill="#B18B8B" d="M19 6h1v1h-1zM20 6h1v1h-1zM21 6h1v1h-1zM22 6h1v1h-1zM23 6h1v1h-1zM24 6h1v1h-1zM25 6h1v1h-1zM26 6h1v1h-1zM27 6h1v1h-1zM28 6h1v1h-1zM29 6h1v1h-1zM30 6h1v1h-1z"/><path fill="#353441" d="M31 6h1v1h-1zM32 6h1v1h-1zM33 6h1v1h-1z"/><path fill="#B18B8B" d="M34 6h1v1h-1zM35 6h1v1h-1zM36 6h1v1h-1zM37 6h1v1h-1zM38 6h1v1h-1zM39 6h1v1h-1zM40 6h1v1h-1zM41 6h1v1h-1zM42 6h1v1h-1zM43 6h1v1h-1zM44 6h1v1h-1zM45 6h1v1h-1zM46 6h1v1h-1z"/><path fill="#353441" d="M47 6h1v1h-1z"/><path fill="#B18B8B" d="M48 6h1v1h-1zM49 6h1v1h-1zM50 6h1v1h-1zM51 6h1v1h-1zM52 6h1v1h-1zM53 6h1v1h-1zM54 6h1v1h-1zM55 6h1v1h-1z"/><path fill="#353441" d="M56 6h1v1h-1zM8 7h1v1H8z"/><path fill="#B18B8B" d="M9 7h1v1H9zM10 7h1v1h-1zM11 7h1v1h-1zM12 7h1v1h-1zM13 7h1v1h-1zM14 7h1v1h-1zM15 7h1v1h-1zM16 7h1v1h-1z"/><path fill="#353441" d="M17 7h1v1h-1zM18 7h1v1h-1z"/><path fill="#B18B8B" d="M19 7h1v1h-1zM20 7h1v1h-1zM21 7h1v1h-1zM22 7h1v1h-1zM23 7h1v1h-1zM24 7h1v1h-1zM25 7h1v1h-1zM26 7h1v1h-1zM27 7h1v1h-1zM28 7h1v1h-1zM29 7h1v1h-1zM30 7h1v1h-1z"/><path fill="#353441" d="M31 7h1v1h-1zM32 7h1v1h-1zM33 7h1v1h-1z"/><path fill="#B18B8B" d="M34 7h1v1h-1zM35 7h1v1h-1zM36 7h1v1h-1zM37 7h1v1h-1zM38 7h1v1h-1zM39 7h1v1h-1zM40 7h1v1h-1zM41 7h1v1h-1zM42 7h1v1h-1zM43 7h1v1h-1zM44 7h1v1h-1zM45 7h1v1h-1zM46 7h1v1h-1z"/><path fill="#353441" d="M47 7h1v1h-1z"/><path fill="#B18B8B" d="M48 7h1v1h-1zM49 7h1v1h-1zM50 7h1v1h-1zM51 7h1v1h-1zM52 7h1v1h-1zM53 7h1v1h-1zM54 7h1v1h-1zM55 7h1v1h-1z"/><path fill="#353441" d="M56 7h1v1h-1z"/><path fill="#353441" d="M6 8h1v1H6zM7 8h1v1H7z" opacity=".788"/><path fill="#353441" d="M8 8h1v1H8z"/><path fill="#B18B8B" d="M9 8h1v1H9zM10 8h1v1h-1zM11 8h1v1h-1zM12 8h1v1h-1zM13 8h1v1h-1zM14 8h1v1h-1zM15 8h1v1h-1zM16 8h1v1h-1z"/><path fill="#353441" d="M17 8h1v1h-1z"/><path fill="#B18B8B" d="M18 8h1v1h-1zM19 8h1v1h-1zM20 8h1v1h-1zM21 8h1v1h-1zM22 8h1v1h-1zM23 8h1v1h-1zM24 8h1v1h-1zM25 8h1v1h-1zM26 8h1v1h-1zM27 8h1v1h-1zM28 8h1v1h-1zM29 8h1v1h-1zM30 8h1v1h-1zM31 8h1v1h-1z"/><path fill="#353441" d="M32 8h1v1h-1z"/><path fill="#B18B8B" d="M33 8h1v1h-1zM34 8h1v1h-1zM35 8h1v1h-1zM36 8h1v1h-1zM37 8h1v1h-1zM38 8h1v1h-1zM39 8h1v1h-1zM40 8h1v1h-1zM41 8h1v1h-1zM42 8h1v1h-1zM43 8h1v1h-1zM44 8h1v1h-1zM45 8h1v1h-1zM46 8h1v1h-1zM47 8h1v1h-1z"/><path fill="#353441" d="M48 8h1v1h-1zM49 8h1v1h-1z"/><path fill="#B18B8B" d="M50 8h1v1h-1zM51 8h1v1h-1zM52 8h1v1h-1zM53 8h1v1h-1zM54 8h1v1h-1zM55 8h1v1h-1zM56 8h1v1h-1z"/><path fill="#353441" d="M57 8h1v1h-1zM58 8h1v1h-1zM6 9h1v1H6zM7 9h1v1H7z"/><path fill="#B18B8B" d="M8 9h1v1H8zM9 9h1v1H9zM10 9h1v1h-1zM11 9h1v1h-1zM12 9h1v1h-1zM13 9h1v1h-1zM14 9h1v1h-1z"/><path fill="#353441" d="M15 9h1v1h-1zM16 9h1v1h-1z"/><path fill="#B18B8B" d="M17 9h1v1h-1zM18 9h1v1h-1zM19 9h1v1h-1zM20 9h1v1h-1zM21 9h1v1h-1zM22 9h1v1h-1zM23 9h1v1h-1zM24 9h1v1h-1zM25 9h1v1h-1zM26 9h1v1h-1zM27 9h1v1h-1zM28 9h1v1h-1zM29 9h1v1h-1zM30 9h1v1h-1zM31 9h1v1h-1z"/><path fill="#353441" d="M32 9h1v1h-1z"/><path fill="#B18B8B" d="M33 9h1v1h-1zM34 9h1v1h-1zM35 9h1v1h-1zM36 9h1v1h-1zM37 9h1v1h-1zM38 9h1v1h-1zM39 9h1v1h-1zM40 9h1v1h-1zM41 9h1v1h-1zM42 9h1v1h-1zM43 9h1v1h-1zM44 9h1v1h-1zM45 9h1v1h-1zM46 9h1v1h-1zM47 9h1v1h-1z"/><path fill="#353441" d="M48 9h1v1h-1zM49 9h1v1h-1z"/><path fill="#B18B8B" d="M50 9h1v1h-1zM51 9h1v1h-1zM52 9h1v1h-1zM53 9h1v1h-1zM54 9h1v1h-1zM55 9h1v1h-1zM56 9h1v1h-1z"/><path fill="#353441" d="M57 9h1v1h-1zM58 9h1v1h-1zM6 10h1v1H6zM7 10h1v1H7z"/><path fill="#B18B8B" d="M8 10h1v1H8zM9 10h1v1H9zM10 10h1v1h-1zM11 10h1v1h-1zM12 10h1v1h-1zM13 10h1v1h-1zM14 10h1v1h-1z"/><path fill="#353441" d="M15 10h1v1h-1zM16 10h1v1h-1z"/><path fill="#B18B8B" d="M17 10h1v1h-1zM18 10h1v1h-1zM19 10h1v1h-1zM20 10h1v1h-1zM21 10h1v1h-1zM22 10h1v1h-1zM23 10h1v1h-1zM24 10h1v1h-1zM25 10h1v1h-1zM26 10h1v1h-1zM27 10h1v1h-1zM28 10h1v1h-1zM29 10h1v1h-1zM30 10h1v1h-1zM31 10h1v1h-1z"/><path fill="#353441" d="M32 10h1v1h-1z"/><path fill="#B18B8B" d="M33 10h1v1h-1zM34 10h1v1h-1zM35 10h1v1h-1zM36 10h1v1h-1zM37 10h1v1h-1zM38 10h1v1h-1zM39 10h1v1h-1zM40 10h1v1h-1zM41 10h1v1h-1zM42 10h1v1h-1zM43 10h1v1h-1zM44 10h1v1h-1zM45 10h1v1h-1zM46 10h1v1h-1zM47 10h1v1h-1zM48 10h1v1h-1zM49 10h1v1h-1z"/><path fill="#353441" d="M50 10h1v1h-1z"/><path fill="#B18B8B" d="M51 10h1v1h-1zM52 10h1v1h-1zM53 10h1v1h-1zM54 10h1v1h-1zM55 10h1v1h-1zM56 10h1v1h-1z"/><path fill="#353441" d="M57 10h1v1h-1zM58 10h1v1h-1zM6 11h1v1H6zM7 11h1v1H7z"/><path fill="#B18B8B" d="M8 11h1v1H8zM9 11h1v1H9zM10 11h1v1h-1zM11 11h1v1h-1zM12 11h1v1h-1zM13 11h1v1h-1z"/><path fill="#736066" d="M14 11h1v1h-1zM15 11h1v1h-1zM16 11h1v1h-1z"/><path fill="#B18B8B" d="M17 11h1v1h-1zM18 11h1v1h-1zM19 11h1v1h-1zM20 11h1v1h-1zM21 11h1v1h-1zM22 11h1v1h-1zM23 11h1v1h-1zM24 11h1v1h-1zM25 11h1v1h-1zM26 11h1v1h-1zM27 11h1v1h-1zM28 11h1v1h-1zM29 11h1v1h-1zM30 11h1v1h-1zM31 11h1v1h-1z"/><path fill="#353441" d="M32 11h1v1h-1z"/><path fill="#B18B8B" d="M33 11h1v1h-1zM34 11h1v1h-1zM35 11h1v1h-1zM36 11h1v1h-1zM37 11h1v1h-1zM38 11h1v1h-1zM39 11h1v1h-1zM40 11h1v1h-1zM41 11h1v1h-1zM42 11h1v1h-1zM43 11h1v1h-1zM44 11h1v1h-1zM45 11h1v1h-1zM46 11h1v1h-1zM47 11h1v1h-1zM48 11h1v1h-1zM49 11h1v1h-1z"/><path fill="#353441" d="M50 11h1v1h-1z"/><path fill="#B18B8B" d="M51 11h1v1h-1zM52 11h1v1h-1zM53 11h1v1h-1zM54 11h1v1h-1zM55 11h1v1h-1zM56 11h1v1h-1z"/><path fill="#353441" d="M57 11h1v1h-1zM58 11h1v1h-1zM6 12h1v1H6zM7 12h1v1H7z"/><path fill="#B18B8B" d="M8 12h1v1H8zM9 12h1v1H9zM10 12h1v1h-1zM11 12h1v1h-1zM12 12h1v1h-1zM13 12h1v1h-1z"/><path fill="#353441" d="M14 12h1v1h-1z"/><path fill="#B18B8B" d="M15 12h1v1h-1zM16 12h1v1h-1zM17 12h1v1h-1zM18 12h1v1h-1zM19 12h1v1h-1zM20 12h1v1h-1zM21 12h1v1h-1zM22 12h1v1h-1zM23 12h1v1h-1zM24 12h1v1h-1zM25 12h1v1h-1zM26 12h1v1h-1zM27 12h1v1h-1zM28 12h1v1h-1zM29 12h1v1h-1zM30 12h1v1h-1zM31 12h1v1h-1z"/><path fill="#353441" d="M32 12h1v1h-1z"/><path fill="#B18B8B" d="M33 12h1v1h-1zM34 12h1v1h-1zM35 12h1v1h-1zM36 12h1v1h-1zM37 12h1v1h-1zM38 12h1v1h-1zM39 12h1v1h-1zM40 12h1v1h-1zM41 12h1v1h-1zM42 12h1v1h-1zM43 12h1v1h-1zM44 12h1v1h-1zM45 12h1v1h-1zM46 12h1v1h-1zM47 12h1v1h-1zM48 12h1v1h-1zM49 12h1v1h-1z"/><path fill="#353441" d="M50 12h1v1h-1z"/><path fill="#B18B8B" d="M51 12h1v1h-1zM52 12h1v1h-1zM53 12h1v1h-1zM54 12h1v1h-1zM55 12h1v1h-1zM56 12h1v1h-1z"/><path fill="#353441" d="M57 12h1v1h-1zM58 12h1v1h-1zM6 13h1v1H6zM7 13h1v1H7z"/><path fill="#B18B8B" d="M8 13h1v1H8zM9 13h1v1H9zM10 13h1v1h-1zM11 13h1v1h-1zM12 13h1v1h-1zM13 13h1v1h-1z"/><path fill="#353441" d="M14 13h1v1h-1z"/><path fill="#B18B8B" d="M15 13h1v1h-1zM16 13h1v1h-1zM17 13h1v1h-1zM18 13h1v1h-1zM19 13h1v1h-1zM20 13h1v1h-1zM21 13h1v1h-1zM22 13h1v1h-1zM23 13h1v1h-1zM24 13h1v1h-1zM25 13h1v1h-1zM26 13h1v1h-1zM27 13h1v1h-1zM28 13h1v1h-1zM29 13h1v1h-1zM30 13h1v1h-1zM31 13h1v1h-1z"/><path fill="#353441" d="M32 13h1v1h-1z"/><path fill="#B18B8B" d="M33 13h1v1h-1zM34 13h1v1h-1zM35 13h1v1h-1zM36 13h1v1h-1zM37 13h1v1h-1zM38 13h1v1h-1zM39 13h1v1h-1zM40 13h1v1h-1zM41 13h1v1h-1zM42 13h1v1h-1zM43 13h1v1h-1zM44 13h1v1h-1zM45 13h1v1h-1zM46 13h1v1h-1zM47 13h1v1h-1zM48 13h1v1h-1zM49 13h1v1h-1zM50 13h1v1h-1zM51 13h1v1h-1zM52 13h1v1h-1zM53 13h1v1h-1zM54 13h1v1h-1zM55 13h1v1h-1zM56 13h1v1h-1z"/><path fill="#353441" d="M57 13h1v1h-1zM58 13h1v1h-1z"/><path fill="#353543" d="M59 13h1v1h-1z" opacity=".208"/><path fill="#353441" d="M6 14h1v1H6zM7 14h1v1H7z"/><path fill="#B18B8B" d="M8 14h1v1H8zM9 14h1v1H9zM10 14h1v1h-1zM11 14h1v1h-1zM12 14h1v1h-1z"/><path fill="#353441" d="M13 14h1v1h-1z"/><path fill="#B18B8B" d="M14 14h1v1h-1zM15 14h1v1h-1zM16 14h1v1h-1zM17 14h1v1h-1zM18 14h1v1h-1zM19 14h1v1h-1zM20 14h1v1h-1zM21 14h1v1h-1zM22 14h1v1h-1zM23 14h1v1h-1zM24 14h1v1h-1zM25 14h1v1h-1zM26 14h1v1h-1zM27 14h1v1h-1zM28 14h1v1h-1zM29 14h1v1h-1zM30 14h1v1h-1zM31 14h1v1h-1z"/><path fill="#353441" d="M32 14h1v1h-1z"/><path fill="#B18B8B" d="M33 14h1v1h-1zM34 14h1v1h-1zM35 14h1v1h-1zM36 14h1v1h-1zM37 14h1v1h-1zM38 14h1v1h-1zM39 14h1v1h-1zM40 14h1v1h-1zM41 14h1v1h-1zM42 14h1v1h-1zM43 14h1v1h-1zM44 14h1v1h-1zM45 14h1v1h-1zM46 14h1v1h-1zM47 14h1v1h-1zM48 14h1v1h-1zM49 14h1v1h-1zM50 14h1v1h-1z"/><path fill="#353441" d="M51 14h1v1h-1z"/><path fill="#B18B8B" d="M52 14h1v1h-1zM53 14h1v1h-1zM54 14h1v1h-1zM55 14h1v1h-1zM56 14h1v1h-1z"/><path fill="#353441" d="M57 14h1v1h-1zM58 14h1v1h-1z"/><path fill="#363640" d="M59 14h1v1h-1z" opacity=".204"/><path fill="#353441" d="M6 15h1v1H6zM7 15h1v1H7z"/><path fill="#B18B8B" d="M8 15h1v1H8zM9 15h1v1H9zM10 15h1v1h-1z"/><path fill="#736066" d="M11 15h1v1h-1z"/><path fill="#353441" d="M12 15h1v1h-1zM13 15h1v1h-1zM14 15h1v1h-1zM15 15h1v1h-1zM16 15h1v1h-1z"/><path fill="#B18B8B" d="M17 15h1v1h-1zM18 15h1v1h-1zM19 15h1v1h-1zM20 15h1v1h-1zM21 15h1v1h-1zM22 15h1v1h-1zM23 15h1v1h-1zM24 15h1v1h-1zM25 15h1v1h-1zM26 15h1v1h-1zM27 15h1v1h-1zM28 15h1v1h-1zM29 15h1v1h-1zM30 15h1v1h-1zM31 15h1v1h-1z"/><path fill="#353441" d="M32 15h1v1h-1z"/><path fill="#B18B8B" d="M33 15h1v1h-1zM34 15h1v1h-1zM35 15h1v1h-1zM36 15h1v1h-1zM37 15h1v1h-1zM38 15h1v1h-1zM39 15h1v1h-1zM40 15h1v1h-1zM41 15h1v1h-1zM42 15h1v1h-1zM43 15h1v1h-1zM44 15h1v1h-1zM45 15h1v1h-1zM46 15h1v1h-1zM47 15h1v1h-1z"/><path fill="#353441" d="M48 15h1v1h-1zM49 15h1v1h-1zM50 15h1v1h-1zM51 15h1v1h-1zM52 15h1v1h-1z"/><path fill="#736066" d="M53 15h1v1h-1z"/><path fill="#B18B8B" d="M54 15h1v1h-1zM55 15h1v1h-1zM56 15h1v1h-1z"/><path fill="#353441" d="M57 15h1v1h-1zM58 15h1v1h-1zM6 16h1v1H6zM7 16h1v1H7z"/><path fill="#B18B8B" d="M8 16h1v1H8zM9 16h1v1H9zM10 16h1v1h-1z"/><path fill="#736066" d="M11 16h1v1h-1z"/><path fill="#353441" d="M12 16h1v1h-1zM13 16h1v1h-1zM14 16h1v1h-1zM15 16h1v1h-1zM16 16h1v1h-1z"/><path fill="#B18B8B" d="M17 16h1v1h-1zM18 16h1v1h-1zM19 16h1v1h-1zM20 16h1v1h-1zM21 16h1v1h-1zM22 16h1v1h-1zM23 16h1v1h-1zM24 16h1v1h-1zM25 16h1v1h-1zM26 16h1v1h-1zM27 16h1v1h-1zM28 16h1v1h-1zM29 16h1v1h-1zM30 16h1v1h-1zM31 16h1v1h-1z"/><path fill="#353441" d="M32 16h1v1h-1z"/><path fill="#B18B8B" d="M33 16h1v1h-1zM34 16h1v1h-1zM35 16h1v1h-1zM36 16h1v1h-1zM37 16h1v1h-1zM38 16h1v1h-1zM39 16h1v1h-1zM40 16h1v1h-1zM41 16h1v1h-1zM42 16h1v1h-1zM43 16h1v1h-1zM44 16h1v1h-1zM45 16h1v1h-1zM46 16h1v1h-1zM47 16h1v1h-1z"/><path fill="#353441" d="M48 16h1v1h-1zM49 16h1v1h-1zM50 16h1v1h-1zM51 16h1v1h-1zM52 16h1v1h-1z"/><path fill="#736066" d="M53 16h1v1h-1z"/><path fill="#B18B8B" d="M54 16h1v1h-1zM55 16h1v1h-1zM56 16h1v1h-1z"/><path fill="#353441" d="M57 16h1v1h-1zM58 16h1v1h-1zM6 17h1v1H6zM7 17h1v1H7z"/><path fill="#B18B8B" d="M8 17h1v1H8zM9 17h1v1H9z"/><path fill="#353441" d="M10 17h1v1h-1z"/><path fill="#736066" d="M11 17h1v1h-1z"/><path fill="#B18B8B" d="M12 17h1v1h-1zM13 17h1v1h-1z"/><path fill="#353441" d="M14 17h1v1h-1zM15 17h1v1h-1zM16 17h1v1h-1zM17 17h1v1h-1z"/><path fill="#B18B8B" d="M18 17h1v1h-1zM19 17h1v1h-1zM20 17h1v1h-1zM21 17h1v1h-1zM22 17h1v1h-1zM23 17h1v1h-1zM24 17h1v1h-1zM25 17h1v1h-1zM26 17h1v1h-1zM27 17h1v1h-1zM28 17h1v1h-1z"/><path fill="#353441" d="M29 17h1v1h-1zM30 17h1v1h-1zM31 17h1v1h-1zM32 17h1v1h-1zM33 17h1v1h-1zM34 17h1v1h-1zM35 17h1v1h-1z"/><path fill="#B18B8B" d="M36 17h1v1h-1zM37 17h1v1h-1zM38 17h1v1h-1zM39 17h1v1h-1zM40 17h1v1h-1zM41 17h1v1h-1zM42 17h1v1h-1zM43 17h1v1h-1zM44 17h1v1h-1zM45 17h1v1h-1zM46 17h1v1h-1z"/><path fill="#353441" d="M47 17h1v1h-1zM48 17h1v1h-1zM49 17h1v1h-1zM50 17h1v1h-1z"/><path fill="#B18B8B" d="M51 17h1v1h-1zM52 17h1v1h-1z"/><path fill="#736066" d="M53 17h1v1h-1z"/><path fill="#353441" d="M54 17h1v1h-1z"/><path fill="#B18B8B" d="M55 17h1v1h-1zM56 17h1v1h-1z"/><path fill="#353441" d="M57 17h1v1h-1zM58 17h1v1h-1zM6 18h1v1H6zM7 18h1v1H7z"/><path fill="#B18B8B" d="M8 18h1v1H8z"/><path fill="#353441" d="M9 18h1v1H9z"/><path fill="#B18B8B" d="M10 18h1v1h-1zM11 18h1v1h-1zM12 18h1v1h-1zM13 18h1v1h-1z"/><path fill="#353441" d="M14 18h1v1h-1zM15 18h1v1h-1zM16 18h1v1h-1zM17 18h1v1h-1zM18 18h1v1h-1z"/><path fill="#B18B8B" d="M19 18h1v1h-1zM20 18h1v1h-1zM21 18h1v1h-1zM22 18h1v1h-1zM23 18h1v1h-1zM24 18h1v1h-1z"/><path fill="#736066" d="M25 18h1v1h-1z"/><path fill="#353441" d="M26 18h1v1h-1zM27 18h1v1h-1zM28 18h1v1h-1z"/><path fill="#AC1717" d="M29 18h1v1h-1zM30 18h1v1h-1z"/><path fill="#EF1A1A" d="M31 18h1v1h-1z"/><path fill="#353441" d="M32 18h1v1h-1z"/><path fill="#EF1A1A" d="M33 18h1v1h-1zM34 18h1v1h-1zM35 18h1v1h-1z"/><path fill="#353441" d="M36 18h1v1h-1zM37 18h1v1h-1zM38 18h1v1h-1z"/><path fill="#736066" d="M39 18h1v1h-1z"/><path fill="#B18B8B" d="M40 18h1v1h-1zM41 18h1v1h-1zM42 18h1v1h-1zM43 18h1v1h-1zM44 18h1v1h-1zM45 18h1v1h-1z"/><path fill="#353441" d="M46 18h1v1h-1zM47 18h1v1h-1zM48 18h1v1h-1zM49 18h1v1h-1zM50 18h1v1h-1z"/><path fill="#B18B8B" d="M51 18h1v1h-1zM52 18h1v1h-1zM53 18h1v1h-1zM54 18h1v1h-1z"/><path fill="#353441" d="M55 18h1v1h-1z"/><path fill="#B18B8B" d="M56 18h1v1h-1z"/><path fill="#353441" d="M57 18h1v1h-1zM58 18h1v1h-1z"/><path fill="#33334D" d="M5 19h1v1H5z" opacity=".039"/><path fill="#353441" d="M6 19h1v1H6zM7 19h1v1H7zM8 19h1v1H8z"/><path fill="#B18B8B" d="M9 19h1v1H9zM10 19h1v1h-1zM11 19h1v1h-1zM12 19h1v1h-1zM13 19h1v1h-1z"/><path fill="#353441" d="M14 19h1v1h-1zM15 19h1v1h-1zM16 19h1v1h-1zM17 19h1v1h-1zM18 19h1v1h-1zM19 19h1v1h-1zM20 19h1v1h-1zM21 19h1v1h-1zM22 19h1v1h-1zM23 19h1v1h-1zM24 19h1v1h-1z"/><path fill="#70252C" d="M25 19h1v1h-1z"/><path fill="#AC1717" d="M26 19h1v1h-1z"/><path fill="#EF1A1A" d="M27 19h1v1h-1zM28 19h1v1h-1zM29 19h1v1h-1zM30 19h1v1h-1zM31 19h1v1h-1z"/><path fill="#353441" d="M32 19h1v1h-1z"/><path fill="#EF1A1A" d="M33 19h1v1h-1zM34 19h1v1h-1zM35 19h1v1h-1zM36 19h1v1h-1zM37 19h1v1h-1zM38 19h1v1h-1z"/><path fill="#92272D" d="M39 19h1v1h-1z"/><path fill="#353441" d="M40 19h1v1h-1zM41 19h1v1h-1zM42 19h1v1h-1zM43 19h1v1h-1zM44 19h1v1h-1zM45 19h1v1h-1zM46 19h1v1h-1zM47 19h1v1h-1zM48 19h1v1h-1zM49 19h1v1h-1zM50 19h1v1h-1z"/><path fill="#B18B8B" d="M51 19h1v1h-1zM52 19h1v1h-1zM53 19h1v1h-1zM54 19h1v1h-1zM55 19h1v1h-1zM56 19h1v1h-1z"/><path fill="#353441" d="M57 19h1v1h-1zM58 19h1v1h-1z"/><path fill="#353441" d="M59 19h1v1h-1z" opacity=".749"/><path fill="#353441" d="M5 20h1v1H5zM6 20h1v1H6zM7 20h1v1H7z"/><path fill="#B18B8B" d="M8 20h1v1H8zM9 20h1v1H9zM10 20h1v1h-1zM11 20h1v1h-1zM12 20h1v1h-1zM13 20h1v1h-1z"/><path fill="#353441" d="M14 20h1v1h-1zM15 20h1v1h-1zM16 20h1v1h-1zM17 20h1v1h-1zM18 20h1v1h-1zM19 20h1v1h-1zM20 20h1v1h-1zM21 20h1v1h-1zM22 20h1v1h-1z"/><path fill="#EF1A1A" d="M23 20h1v1h-1zM24 20h1v1h-1zM25 20h1v1h-1zM26 20h1v1h-1zM27 20h1v1h-1zM28 20h1v1h-1zM29 20h1v1h-1zM30 20h1v1h-1zM31 20h1v1h-1z"/><path fill="#353441" d="M32 20h1v1h-1z"/><path fill="#EF1A1A" d="M33 20h1v1h-1zM34 20h1v1h-1zM35 20h1v1h-1zM36 20h1v1h-1zM37 20h1v1h-1zM38 20h1v1h-1zM39 20h1v1h-1zM40 20h1v1h-1zM41 20h1v1h-1z"/><path fill="#AC1717" d="M42 20h1v1h-1z"/><path fill="#353441" d="M43 20h1v1h-1zM44 20h1v1h-1zM45 20h1v1h-1zM46 20h1v1h-1zM47 20h1v1h-1zM48 20h1v1h-1zM49 20h1v1h-1zM50 20h1v1h-1z"/><path fill="#B18B8B" d="M51 20h1v1h-1zM52 20h1v1h-1zM53 20h1v1h-1zM54 20h1v1h-1zM55 20h1v1h-1zM56 20h1v1h-1z"/><path fill="#353441" d="M57 20h1v1h-1zM58 20h1v1h-1zM59 20h1v1h-1z"/><path fill="#353542" d="M60 20h1v1h-1z" opacity=".227"/><path fill="#353441" d="M5 21h1v1H5zM6 21h1v1H6zM7 21h1v1H7z"/><path fill="#B18B8B" d="M8 21h1v1H8zM9 21h1v1H9zM10 21h1v1h-1zM11 21h1v1h-1zM12 21h1v1h-1zM13 21h1v1h-1z"/><path fill="#353441" d="M14 21h1v1h-1zM15 21h1v1h-1zM16 21h1v1h-1zM17 21h1v1h-1zM18 21h1v1h-1zM19 21h1v1h-1zM20 21h1v1h-1zM21 21h1v1h-1zM22 21h1v1h-1z"/><path fill="#EF1A1A" d="M23 21h1v1h-1zM24 21h1v1h-1zM25 21h1v1h-1zM26 21h1v1h-1zM27 21h1v1h-1zM28 21h1v1h-1zM29 21h1v1h-1zM30 21h1v1h-1zM31 21h1v1h-1z"/><path fill="#353441" d="M32 21h1v1h-1z"/><path fill="#EF1A1A" d="M33 21h1v1h-1zM34 21h1v1h-1zM35 21h1v1h-1zM36 21h1v1h-1zM37 21h1v1h-1zM38 21h1v1h-1zM39 21h1v1h-1zM40 21h1v1h-1zM41 21h1v1h-1z"/><path fill="#AC1717" d="M42 21h1v1h-1z"/><path fill="#353441" d="M43 21h1v1h-1zM44 21h1v1h-1zM45 21h1v1h-1zM46 21h1v1h-1zM47 21h1v1h-1zM48 21h1v1h-1zM49 21h1v1h-1zM50 21h1v1h-1z"/><path fill="#B18B8B" d="M51 21h1v1h-1zM52 21h1v1h-1zM53 21h1v1h-1zM54 21h1v1h-1zM55 21h1v1h-1zM56 21h1v1h-1z"/><path fill="#353441" d="M57 21h1v1h-1zM58 21h1v1h-1zM59 21h1v1h-1z"/><path fill="#353542" d="M60 21h1v1h-1z" opacity=".227"/><path fill="#353441" d="M4 22h1v1H4zM5 22h1v1H5zM6 22h1v1H6zM7 22h1v1H7z"/><path fill="#B18B8B" d="M8 22h1v1H8zM9 22h1v1H9zM10 22h1v1h-1zM11 22h1v1h-1zM12 22h1v1h-1zM13 22h1v1h-1z"/><path fill="#353441" d="M14 22h1v1h-1zM15 22h1v1h-1zM16 22h1v1h-1zM17 22h1v1h-1zM18 22h1v1h-1zM19 22h1v1h-1zM20 22h1v1h-1zM21 22h1v1h-1z"/><path fill="#AC1717" d="M22 22h1v1h-1z"/><path fill="#EF1A1A" d="M23 22h1v1h-1zM24 22h1v1h-1zM25 22h1v1h-1zM26 22h1v1h-1zM27 22h1v1h-1zM28 22h1v1h-1zM29 22h1v1h-1zM30 22h1v1h-1zM31 22h1v1h-1z"/><path fill="#353441" d="M32 22h1v1h-1z"/><path fill="#EF1A1A" d="M33 22h1v1h-1zM34 22h1v1h-1zM35 22h1v1h-1zM36 22h1v1h-1zM37 22h1v1h-1zM38 22h1v1h-1zM39 22h1v1h-1zM40 22h1v1h-1zM41 22h1v1h-1zM42 22h1v1h-1z"/><path fill="#353441" d="M43 22h1v1h-1zM44 22h1v1h-1zM45 22h1v1h-1zM46 22h1v1h-1zM47 22h1v1h-1zM48 22h1v1h-1zM49 22h1v1h-1zM50 22h1v1h-1z"/><path fill="#B18B8B" d="M51 22h1v1h-1zM52 22h1v1h-1zM53 22h1v1h-1zM54 22h1v1h-1zM55 22h1v1h-1zM56 22h1v1h-1z"/><path fill="#353441" d="M57 22h1v1h-1zM58 22h1v1h-1zM59 22h1v1h-1zM60 22h1v1h-1z"/><path fill="#313145" d="M2 23h1v1H2z" opacity=".102"/><path fill="#353543" d="M3 23h1v1H3z" opacity=".208"/><path fill="#353441" d="M4 23h1v1H4z"/><path fill="#B18B8B" d="M5 23h1v1H5zM6 23h1v1H6zM7 23h1v1H7zM8 23h1v1H8zM9 23h1v1H9zM10 23h1v1h-1zM11 23h1v1h-1zM12 23h1v1h-1zM13 23h1v1h-1z"/><path fill="#353441" d="M14 23h1v1h-1zM15 23h1v1h-1zM16 23h1v1h-1zM17 23h1v1h-1zM18 23h1v1h-1zM19 23h1v1h-1zM20 23h1v1h-1zM21 23h1v1h-1zM22 23h1v1h-1z"/><path fill="#EF1A1A" d="M23 23h1v1h-1zM24 23h1v1h-1zM25 23h1v1h-1zM26 23h1v1h-1zM27 23h1v1h-1zM28 23h1v1h-1zM29 23h1v1h-1zM30 23h1v1h-1zM31 23h1v1h-1z"/><path fill="#353441" d="M32 23h1v1h-1z"/><path fill="#EF1A1A" d="M33 23h1v1h-1zM34 23h1v1h-1zM35 23h1v1h-1zM36 23h1v1h-1zM37 23h1v1h-1zM38 23h1v1h-1zM39 23h1v1h-1zM40 23h1v1h-1zM41 23h1v1h-1z"/><path fill="#353441" d="M42 23h1v1h-1zM43 23h1v1h-1zM44 23h1v1h-1zM45 23h1v1h-1zM46 23h1v1h-1zM47 23h1v1h-1zM48 23h1v1h-1zM49 23h1v1h-1zM50 23h1v1h-1z"/><path fill="#B18B8B" d="M51 23h1v1h-1zM52 23h1v1h-1zM53 23h1v1h-1zM54 23h1v1h-1zM55 23h1v1h-1zM56 23h1v1h-1zM57 23h1v1h-1zM58 23h1v1h-1zM59 23h1v1h-1z"/><path fill="#353441" d="M60 23h1v1h-1zM61 23h1v1h-1z"/><path fill="#343440" d="M62 23h1v1h-1zM2 24h1v1H2z" opacity=".498"/><path fill="#353441" d="M3 24h1v1H3z"/><path fill="#B18B8B" d="M4 24h1v1H4z"/><path fill="#353441" d="M5 24h1v1H5z"/><path fill="#B18B8B" d="M6 24h1v1H6zM7 24h1v1H7zM8 24h1v1H8zM9 24h1v1H9zM10 24h1v1h-1zM11 24h1v1h-1zM12 24h1v1h-1z"/><path fill="#353441" d="M13 24h1v1h-1zM14 24h1v1h-1zM15 24h1v1h-1zM16 24h1v1h-1zM17 24h1v1h-1zM18 24h1v1h-1zM19 24h1v1h-1zM20 24h1v1h-1zM21 24h1v1h-1zM22 24h1v1h-1z"/><path fill="#EF1A1A" d="M23 24h1v1h-1zM24 24h1v1h-1zM25 24h1v1h-1zM26 24h1v1h-1zM27 24h1v1h-1z"/><path fill="#353441" d="M28 24h1v1h-1zM29 24h1v1h-1zM30 24h1v1h-1zM31 24h1v1h-1zM32 24h1v1h-1zM33 24h1v1h-1zM34 24h1v1h-1zM35 24h1v1h-1zM36 24h1v1h-1z"/><path fill="#EF1A1A" d="M37 24h1v1h-1zM38 24h1v1h-1zM39 24h1v1h-1zM40 24h1v1h-1zM41 24h1v1h-1z"/><path fill="#353441" d="M42 24h1v1h-1zM43 24h1v1h-1zM44 24h1v1h-1zM45 24h1v1h-1zM46 24h1v1h-1zM47 24h1v1h-1zM48 24h1v1h-1zM49 24h1v1h-1zM50 24h1v1h-1zM51 24h1v1h-1z"/><path fill="#B18B8B" d="M52 24h1v1h-1zM53 24h1v1h-1zM54 24h1v1h-1zM55 24h1v1h-1zM56 24h1v1h-1zM57 24h1v1h-1zM58 24h1v1h-1z"/><path fill="#353441" d="M59 24h1v1h-1z"/><path fill="#B18B8B" d="M60 24h1v1h-1z"/><path fill="#353441" d="M61 24h1v1h-1z"/><path fill="#343440" d="M62 24h1v1h-1zM2 25h1v1H2z" opacity=".498"/><path fill="#353441" d="M3 25h1v1H3z"/><path fill="#B18B8B" d="M4 25h1v1H4z"/><path fill="#353441" d="M5 25h1v1H5z"/><path fill="#B18B8B" d="M6 25h1v1H6zM7 25h1v1H7zM8 25h1v1H8zM9 25h1v1H9zM10 25h1v1h-1zM11 25h1v1h-1zM12 25h1v1h-1z"/><path fill="#353441" d="M13 25h1v1h-1zM14 25h1v1h-1zM15 25h1v1h-1zM16 25h1v1h-1zM17 25h1v1h-1zM18 25h1v1h-1zM19 25h1v1h-1zM20 25h1v1h-1zM21 25h1v1h-1zM22 25h1v1h-1z"/><path fill="#92272D" d="M23 25h1v1h-1z"/><path fill="#EF1A1A" d="M24 25h1v1h-1z"/><path fill="#C02024" d="M25 25h1v1h-1z"/><path fill="#92272D" d="M26 25h1v1h-1zM27 25h1v1h-1zM28 25h1v1h-1zM29 25h1v1h-1zM30 25h1v1h-1zM31 25h1v1h-1z"/><path fill="#353441" d="M32 25h1v1h-1z"/><path fill="#92272D" d="M33 25h1v1h-1zM34 25h1v1h-1zM35 25h1v1h-1zM36 25h1v1h-1zM37 25h1v1h-1zM38 25h1v1h-1z"/><path fill="#B02023" d="M39 25h1v1h-1z"/><path fill="#CD1818" d="M40 25h1v1h-1z"/><path fill="#92272D" d="M41 25h1v1h-1z"/><path fill="#353441" d="M42 25h1v1h-1zM43 25h1v1h-1zM44 25h1v1h-1zM45 25h1v1h-1zM46 25h1v1h-1zM47 25h1v1h-1zM48 25h1v1h-1zM49 25h1v1h-1zM50 25h1v1h-1z"/><path fill="#736066" d="M51 25h1v1h-1z"/><path fill="#B18B8B" d="M52 25h1v1h-1zM53 25h1v1h-1zM54 25h1v1h-1zM55 25h1v1h-1zM56 25h1v1h-1zM57 25h1v1h-1zM58 25h1v1h-1z"/><path fill="#736066" d="M59 25h1v1h-1z"/><path fill="#B18B8B" d="M60 25h1v1h-1z"/><path fill="#353441" d="M61 25h1v1h-1z"/><path fill="#343440" d="M62 25h1v1h-1zM2 26h1v1H2z" opacity=".498"/><path fill="#353441" d="M3 26h1v1H3z"/><path fill="#B18B8B" d="M4 26h1v1H4z"/><path fill="#353441" d="M5 26h1v1H5z"/><path fill="#B18B8B" d="M6 26h1v1H6zM7 26h1v1H7zM8 26h1v1H8zM9 26h1v1H9zM10 26h1v1h-1zM11 26h1v1h-1zM12 26h1v1h-1z"/><path fill="#353441" d="M13 26h1v1h-1zM14 26h1v1h-1zM15 26h1v1h-1zM16 26h1v1h-1zM17 26h1v1h-1zM18 26h1v1h-1zM19 26h1v1h-1zM20 26h1v1h-1zM21 26h1v1h-1zM22 26h1v1h-1zM23 26h1v1h-1z"/><path fill="#EF1A1A" d="M24 26h1v1h-1z"/><path fill="#92272D" d="M25 26h1v1h-1z"/><path fill="#353441" d="M26 26h1v1h-1zM27 26h1v1h-1z"/><path fill="#EF1A1A" d="M28 26h1v1h-1zM29 26h1v1h-1zM30 26h1v1h-1zM31 26h1v1h-1z"/><path fill="#353441" d="M32 26h1v1h-1z"/><path fill="#EF1A1A" d="M33 26h1v1h-1zM34 26h1v1h-1zM35 26h1v1h-1zM36 26h1v1h-1z"/><path fill="#353441" d="M37 26h1v1h-1zM38 26h1v1h-1z"/><path fill="#70252C" d="M39 26h1v1h-1z"/><path fill="#AC1717" d="M40 26h1v1h-1z"/><path fill="#353441" d="M41 26h1v1h-1zM42 26h1v1h-1zM43 26h1v1h-1zM44 26h1v1h-1zM45 26h1v1h-1zM46 26h1v1h-1zM47 26h1v1h-1zM48 26h1v1h-1zM49 26h1v1h-1zM50 26h1v1h-1z"/><path fill="#B18B8B" d="M51 26h1v1h-1zM52 26h1v1h-1zM53 26h1v1h-1zM54 26h1v1h-1zM55 26h1v1h-1zM56 26h1v1h-1zM57 26h1v1h-1zM58 26h1v1h-1zM59 26h1v1h-1zM60 26h1v1h-1z"/><path fill="#353441" d="M61 26h1v1h-1z"/><path fill="#343440" d="M62 26h1v1h-1zM2 27h1v1H2z" opacity=".498"/><path fill="#353441" d="M3 27h1v1H3z"/><path fill="#B18B8B" d="M4 27h1v1H4zM5 27h1v1H5zM6 27h1v1H6zM7 27h1v1H7zM8 27h1v1H8zM9 27h1v1H9zM10 27h1v1h-1zM11 27h1v1h-1zM12 27h1v1h-1zM13 27h1v1h-1z"/><path fill="#353441" d="M14 27h1v1h-1zM15 27h1v1h-1zM16 27h1v1h-1zM17 27h1v1h-1zM18 27h1v1h-1zM19 27h1v1h-1zM20 27h1v1h-1zM21 27h1v1h-1zM22 27h1v1h-1zM23 27h1v1h-1zM24 27h1v1h-1zM25 27h1v1h-1zM26 27h1v1h-1z"/><path fill="#EF1A1A" d="M27 27h1v1h-1zM28 27h1v1h-1zM29 27h1v1h-1zM30 27h1v1h-1zM31 27h1v1h-1z"/><path fill="#353441" d="M32 27h1v1h-1z"/><path fill="#EF1A1A" d="M33 27h1v1h-1zM34 27h1v1h-1zM35 27h1v1h-1zM36 27h1v1h-1zM37 27h1v1h-1zM38 27h1v1h-1z"/><path fill="#92272D" d="M39 27h1v1h-1z"/><path fill="#353441" d="M40 27h1v1h-1zM41 27h1v1h-1zM42 27h1v1h-1zM43 27h1v1h-1zM44 27h1v1h-1zM45 27h1v1h-1zM46 27h1v1h-1zM47 27h1v1h-1zM48 27h1v1h-1zM49 27h1v1h-1zM50 27h1v1h-1z"/><path fill="#B18B8B" d="M51 27h1v1h-1zM52 27h1v1h-1zM53 27h1v1h-1zM54 27h1v1h-1zM55 27h1v1h-1zM56 27h1v1h-1zM57 27h1v1h-1zM58 27h1v1h-1zM59 27h1v1h-1zM60 27h1v1h-1zM61 27h1v1h-1z"/><path fill="#79646B" d="M62 27h1v1h-1z" opacity=".898"/><path fill="#353441" d="M63 27h1v1h-1z" opacity=".796"/><path fill="#353341" d="M1 28h1v1H1z" opacity=".49"/><path fill="#343340" d="M2 28h1v1H2z" opacity=".745"/><path fill="#353441" d="M3 28h1v1H3z"/><path fill="#B18B8B" d="M4 28h1v1H4zM5 28h1v1H5zM6 28h1v1H6zM7 28h1v1H7zM8 28h1v1H8zM9 28h1v1H9zM10 28h1v1h-1z"/><path fill="#736066" d="M11 28h1v1h-1z"/><path fill="#353441" d="M12 28h1v1h-1z"/><path fill="#B18B8B" d="M13 28h1v1h-1z"/><path fill="#353441" d="M14 28h1v1h-1zM15 28h1v1h-1zM16 28h1v1h-1zM17 28h1v1h-1zM18 28h1v1h-1zM19 28h1v1h-1zM20 28h1v1h-1zM21 28h1v1h-1zM22 28h1v1h-1zM23 28h1v1h-1zM24 28h1v1h-1z"/><path fill="#92272D" d="M25 28h1v1h-1z"/><path fill="#EF1A1A" d="M26 28h1v1h-1zM27 28h1v1h-1zM28 28h1v1h-1zM29 28h1v1h-1zM30 28h1v1h-1zM31 28h1v1h-1z"/><path fill="#353441" d="M32 28h1v1h-1z"/><path fill="#EF1A1A" d="M33 28h1v1h-1zM34 28h1v1h-1zM35 28h1v1h-1zM36 28h1v1h-1zM37 28h1v1h-1zM38 28h1v1h-1z"/><path fill="#CD1818" d="M39 28h1v1h-1z"/><path fill="#AC1717" d="M40 28h1v1h-1z"/><path fill="#353441" d="M41 28h1v1h-1zM42 28h1v1h-1zM43 28h1v1h-1zM44 28h1v1h-1zM45 28h1v1h-1zM46 28h1v1h-1zM47 28h1v1h-1zM48 28h1v1h-1zM49 28h1v1h-1zM50 28h1v1h-1zM51 28h1v1h-1zM52 28h1v1h-1z"/><path fill="#736066" d="M53 28h1v1h-1z"/><path fill="#B18B8B" d="M54 28h1v1h-1zM55 28h1v1h-1zM56 28h1v1h-1zM57 28h1v1h-1zM58 28h1v1h-1zM59 28h1v1h-1zM60 28h1v1h-1zM61 28h1v1h-1z"/><path fill="#736066" d="M62 28h1v1h-1z"/><path fill="#353441" d="M63 28h1v1h-1z"/><path fill="#353541" d="M1 29h1v1H1z" opacity=".78"/><path fill="#7A656B" d="M2 29h1v1H2z" opacity=".89"/><path fill="#B18B8B" d="M3 29h1v1H3zM4 29h1v1H4zM5 29h1v1H5zM6 29h1v1H6zM7 29h1v1H7zM8 29h1v1H8zM9 29h1v1H9zM10 29h1v1h-1zM11 29h1v1h-1zM12 29h1v1h-1z"/><path fill="#353441" d="M13 29h1v1h-1zM14 29h1v1h-1zM15 29h1v1h-1zM16 29h1v1h-1zM17 29h1v1h-1zM18 29h1v1h-1z"/><path fill="#B18B8B" d="M19 29h1v1h-1z"/><path fill="#353441" d="M20 29h1v1h-1zM21 29h1v1h-1zM22 29h1v1h-1zM23 29h1v1h-1zM24 29h1v1h-1z"/><path fill="#92272D" d="M25 29h1v1h-1z"/><path fill="#EF1A1A" d="M26 29h1v1h-1zM27 29h1v1h-1zM28 29h1v1h-1zM29 29h1v1h-1zM30 29h1v1h-1zM31 29h1v1h-1z"/><path fill="#353441" d="M32 29h1v1h-1z"/><path fill="#EF1A1A" d="M33 29h1v1h-1zM34 29h1v1h-1zM35 29h1v1h-1zM36 29h1v1h-1zM37 29h1v1h-1zM38 29h1v1h-1z"/><path fill="#CD1818" d="M39 29h1v1h-1z"/><path fill="#AC1717" d="M40 29h1v1h-1z"/><path fill="#353441" d="M41 29h1v1h-1zM42 29h1v1h-1zM43 29h1v1h-1zM44 29h1v1h-1z"/><path fill="#B18B8B" d="M45 29h1v1h-1z"/><path fill="#353441" d="M46 29h1v1h-1zM47 29h1v1h-1zM48 29h1v1h-1zM49 29h1v1h-1zM50 29h1v1h-1zM51 29h1v1h-1z"/><path fill="#B18B8B" d="M52 29h1v1h-1zM53 29h1v1h-1zM54 29h1v1h-1zM55 29h1v1h-1zM56 29h1v1h-1zM57 29h1v1h-1zM58 29h1v1h-1zM59 29h1v1h-1zM60 29h1v1h-1zM61 29h1v1h-1z"/><path fill="#736066" d="M62 29h1v1h-1z"/><path fill="#353441" d="M63 29h1v1h-1z"/><path fill="#353541" d="M1 30h1v1H1z" opacity=".78"/><path fill="#7A656B" d="M2 30h1v1H2z" opacity=".89"/><path fill="#B18B8B" d="M3 30h1v1H3zM4 30h1v1H4zM5 30h1v1H5zM6 30h1v1H6zM7 30h1v1H7zM8 30h1v1H8zM9 30h1v1H9zM10 30h1v1h-1zM11 30h1v1h-1zM12 30h1v1h-1z"/><path fill="#353441" d="M13 30h1v1h-1zM14 30h1v1h-1zM15 30h1v1h-1zM16 30h1v1h-1zM17 30h1v1h-1zM18 30h1v1h-1z"/><path fill="#B18B8B" d="M19 30h1v1h-1z"/><path fill="#353441" d="M20 30h1v1h-1zM21 30h1v1h-1zM22 30h1v1h-1zM23 30h1v1h-1zM24 30h1v1h-1z"/><path fill="#92272D" d="M25 30h1v1h-1z"/><path fill="#EF1A1A" d="M26 30h1v1h-1zM27 30h1v1h-1zM28 30h1v1h-1zM29 30h1v1h-1zM30 30h1v1h-1zM31 30h1v1h-1z"/><path fill="#353441" d="M32 30h1v1h-1z"/><path fill="#EF1A1A" d="M33 30h1v1h-1zM34 30h1v1h-1zM35 30h1v1h-1zM36 30h1v1h-1zM37 30h1v1h-1zM38 30h1v1h-1z"/><path fill="#CD1818" d="M39 30h1v1h-1z"/><path fill="#AC1717" d="M40 30h1v1h-1z"/><path fill="#353441" d="M41 30h1v1h-1zM42 30h1v1h-1zM43 30h1v1h-1zM44 30h1v1h-1z"/><path fill="#B18B8B" d="M45 30h1v1h-1z"/><path fill="#353441" d="M46 30h1v1h-1zM47 30h1v1h-1zM48 30h1v1h-1zM49 30h1v1h-1zM50 30h1v1h-1zM51 30h1v1h-1z"/><path fill="#B18B8B" d="M52 30h1v1h-1zM53 30h1v1h-1zM54 30h1v1h-1zM55 30h1v1h-1zM56 30h1v1h-1zM57 30h1v1h-1zM58 30h1v1h-1zM59 30h1v1h-1zM60 30h1v1h-1zM61 30h1v1h-1z"/><path fill="#736066" d="M62 30h1v1h-1z"/><path fill="#353441" d="M63 30h1v1h-1z"/><path fill="#343440" d="M2 31h1v1H2z" opacity=".498"/><path fill="#353441" d="M3 31h1v1H3z"/><path fill="#B18B8B" d="M4 31h1v1H4z"/><path fill="#353441" d="M5 31h1v1H5z"/><path fill="#B18B8B" d="M6 31h1v1H6zM7 31h1v1H7zM8 31h1v1H8zM9 31h1v1H9z"/><path fill="#353441" d="M10 31h1v1h-1zM11 31h1v1h-1zM12 31h1v1h-1zM13 31h1v1h-1z"/><path fill="#31313D" d="M14 31h1v1h-1z" opacity=".082"/><path fill="#353441" d="M15 31h1v1h-1zM16 31h1v1h-1zM17 31h1v1h-1zM18 31h1v1h-1z"/><path fill="#B18B8B" d="M19 31h1v1h-1zM20 31h1v1h-1zM21 31h1v1h-1z"/><path fill="#353441" d="M22 31h1v1h-1zM23 31h1v1h-1zM24 31h1v1h-1z"/><path fill="#92272D" d="M25 31h1v1h-1z"/><path fill="#EF1A1A" d="M26 31h1v1h-1zM27 31h1v1h-1zM28 31h1v1h-1zM29 31h1v1h-1zM30 31h1v1h-1zM31 31h1v1h-1z"/><path fill="#353441" d="M32 31h1v1h-1z"/><path fill="#EF1A1A" d="M33 31h1v1h-1zM34 31h1v1h-1zM35 31h1v1h-1zM36 31h1v1h-1zM37 31h1v1h-1zM38 31h1v1h-1z"/><path fill="#92272D" d="M39 31h1v1h-1z"/><path fill="#353441" d="M40 31h1v1h-1zM41 31h1v1h-1zM42 31h1v1h-1z"/><path fill="#B18B8B" d="M43 31h1v1h-1zM44 31h1v1h-1zM45 31h1v1h-1z"/><path fill="#353441" d="M46 31h1v1h-1zM47 31h1v1h-1zM48 31h1v1h-1zM49 31h1v1h-1z"/><path fill="#333" d="M50 31h1v1h-1z" opacity=".02"/><path fill="#353441" d="M51 31h1v1h-1zM52 31h1v1h-1zM53 31h1v1h-1zM54 31h1v1h-1z"/><path fill="#B18B8B" d="M55 31h1v1h-1zM56 31h1v1h-1zM57 31h1v1h-1zM58 31h1v1h-1zM59 31h1v1h-1zM60 31h1v1h-1z"/><path fill="#353441" d="M61 31h1v1h-1z"/><path fill="#343440" d="M62 31h1v1h-1z" opacity=".498"/><path fill="#353342" d="M2 32h1v1H2z" opacity=".412"/><path fill="#353442" d="M3 32h1v1H3z" opacity=".824"/><path fill="#B18B8B" d="M4 32h1v1H4z"/><path fill="#353441" d="M5 32h1v1H5z"/><path fill="#B18B8B" d="M6 32h1v1H6zM7 32h1v1H7zM8 32h1v1H8zM9 32h1v1H9z"/><path fill="#353441" d="M10 32h1v1h-1zM11 32h1v1h-1zM12 32h1v1h-1z"/><path fill="#353441" d="M13 32h1v1h-1z" opacity=".945"/><path fill="#333342" d="M15 32h1v1h-1zM16 32h1v1h-1z" opacity=".196"/><path fill="#353441" d="M17 32h1v1h-1zM18 32h1v1h-1z"/><path fill="#B18B8B" d="M19 32h1v1h-1zM20 32h1v1h-1zM21 32h1v1h-1zM22 32h1v1h-1z"/><path fill="#353441" d="M23 32h1v1h-1zM24 32h1v1h-1zM25 32h1v1h-1zM26 32h1v1h-1zM27 32h1v1h-1zM28 32h1v1h-1zM29 32h1v1h-1zM30 32h1v1h-1zM31 32h1v1h-1zM32 32h1v1h-1zM33 32h1v1h-1zM34 32h1v1h-1zM35 32h1v1h-1zM36 32h1v1h-1zM37 32h1v1h-1zM38 32h1v1h-1zM39 32h1v1h-1zM40 32h1v1h-1zM41 32h1v1h-1z"/><path fill="#B18B8B" d="M42 32h1v1h-1zM43 32h1v1h-1zM44 32h1v1h-1zM45 32h1v1h-1z"/><path fill="#353441" d="M46 32h1v1h-1zM47 32h1v1h-1z"/><path fill="#353441" d="M48 32h1v1h-1zM49 32h1v1h-1z" opacity=".973"/><path fill="#343441" d="M51 32h1v1h-1z" opacity=".153"/><path fill="#353441" d="M52 32h1v1h-1zM53 32h1v1h-1zM54 32h1v1h-1zM55 32h1v1h-1z"/><path fill="#B18B8B" d="M56 32h1v1h-1zM57 32h1v1h-1zM58 32h1v1h-1z"/><path fill="#353441" d="M59 32h1v1h-1z"/><path fill="#B18B8B" d="M60 32h1v1h-1z"/><path fill="#353441" d="M61 32h1v1h-1z"/><path fill="#343440" d="M62 32h1v1h-1z" opacity=".498"/><path fill="#353441" d="M4 33h1v1H4zM5 33h1v1H5z"/><path fill="#B18B8B" d="M6 33h1v1H6zM7 33h1v1H7zM8 33h1v1H8z"/><path fill="#353441" d="M9 33h1v1H9zM10 33h1v1h-1zM11 33h1v1h-1zM12 33h1v1h-1zM17 33h1v1h-1zM18 33h1v1h-1z"/><path fill="#B18B8B" d="M19 33h1v1h-1zM20 33h1v1h-1zM21 33h1v1h-1zM22 33h1v1h-1z"/><path fill="#353441" d="M23 33h1v1h-1zM24 33h1v1h-1zM25 33h1v1h-1zM26 33h1v1h-1z"/><path fill="#EF1A1A" d="M27 33h1v1h-1zM28 33h1v1h-1zM29 33h1v1h-1zM30 33h1v1h-1zM31 33h1v1h-1z"/><path fill="#353441" d="M32 33h1v1h-1z"/><path fill="#EF1A1A" d="M33 33h1v1h-1zM34 33h1v1h-1zM35 33h1v1h-1zM36 33h1v1h-1zM37 33h1v1h-1z"/><path fill="#353441" d="M38 33h1v1h-1zM39 33h1v1h-1zM40 33h1v1h-1zM41 33h1v1h-1z"/><path fill="#B18B8B" d="M42 33h1v1h-1zM43 33h1v1h-1zM44 33h1v1h-1zM45 33h1v1h-1z"/><path fill="#353441" d="M46 33h1v1h-1zM47 33h1v1h-1zM52 33h1v1h-1zM53 33h1v1h-1zM54 33h1v1h-1zM55 33h1v1h-1zM56 33h1v1h-1z"/><path fill="#B18B8B" d="M57 33h1v1h-1zM58 33h1v1h-1z"/><path fill="#353441" d="M59 33h1v1h-1zM60 33h1v1h-1z"/><path fill="#343442" d="M4 34h1v1H4z" opacity=".365"/><path fill="#353441" d="M5 34h1v1H5zM6 34h1v1H6zM7 34h1v1H7zM8 34h1v1H8zM9 34h1v1H9zM10 34h1v1h-1zM11 34h1v1h-1zM12 34h1v1h-1z"/><path fill="#353341" d="M17 34h1v1h-1z" opacity=".506"/><path fill="#353441" d="M18 34h1v1h-1zM19 34h1v1h-1z"/><path fill="#B18B8B" d="M20 34h1v1h-1zM21 34h1v1h-1zM22 34h1v1h-1z"/><path fill="#353441" d="M23 34h1v1h-1zM24 34h1v1h-1zM25 34h1v1h-1zM26 34h1v1h-1z"/><path fill="#EF1A1A" d="M27 34h1v1h-1zM28 34h1v1h-1zM29 34h1v1h-1zM30 34h1v1h-1zM31 34h1v1h-1z"/><path fill="#353441" d="M32 34h1v1h-1z"/><path fill="#EF1A1A" d="M33 34h1v1h-1zM34 34h1v1h-1zM35 34h1v1h-1zM36 34h1v1h-1zM37 34h1v1h-1z"/><path fill="#353441" d="M38 34h1v1h-1zM39 34h1v1h-1zM40 34h1v1h-1zM41 34h1v1h-1z"/><path fill="#B18B8B" d="M42 34h1v1h-1zM43 34h1v1h-1zM44 34h1v1h-1z"/><path fill="#353441" d="M45 34h1v1h-1zM46 34h1v1h-1zM47 34h1v1h-1zM52 34h1v1h-1zM53 34h1v1h-1zM54 34h1v1h-1zM55 34h1v1h-1zM56 34h1v1h-1zM57 34h1v1h-1zM58 34h1v1h-1zM59 34h1v1h-1zM60 34h1v1h-1z"/><path fill="#343442" d="M4 35h1v1H4z" opacity=".365"/><path fill="#353441" d="M5 35h1v1H5zM6 35h1v1H6zM7 35h1v1H7zM8 35h1v1H8zM9 35h1v1H9zM10 35h1v1h-1zM11 35h1v1h-1zM12 35h1v1h-1z"/><path fill="#353341" d="M17 35h1v1h-1z" opacity=".506"/><path fill="#353441" d="M18 35h1v1h-1zM19 35h1v1h-1z"/><path fill="#B18B8B" d="M20 35h1v1h-1zM21 35h1v1h-1zM22 35h1v1h-1z"/><path fill="#353441" d="M23 35h1v1h-1zM24 35h1v1h-1zM25 35h1v1h-1zM26 35h1v1h-1z"/><path fill="#EF1A1A" d="M27 35h1v1h-1zM28 35h1v1h-1zM29 35h1v1h-1zM30 35h1v1h-1zM31 35h1v1h-1z"/><path fill="#353441" d="M32 35h1v1h-1z"/><path fill="#EF1A1A" d="M33 35h1v1h-1zM34 35h1v1h-1zM35 35h1v1h-1zM36 35h1v1h-1zM37 35h1v1h-1z"/><path fill="#353441" d="M38 35h1v1h-1zM39 35h1v1h-1zM40 35h1v1h-1zM41 35h1v1h-1z"/><path fill="#B18B8B" d="M42 35h1v1h-1zM43 35h1v1h-1zM44 35h1v1h-1z"/><path fill="#353441" d="M45 35h1v1h-1zM46 35h1v1h-1zM47 35h1v1h-1zM52 35h1v1h-1zM53 35h1v1h-1zM54 35h1v1h-1zM55 35h1v1h-1zM56 35h1v1h-1zM57 35h1v1h-1zM58 35h1v1h-1zM59 35h1v1h-1zM60 35h1v1h-1zM5 36h1v1H5zM6 36h1v1H6zM7 36h1v1H7zM8 36h1v1H8zM9 36h1v1H9zM10 36h1v1h-1zM11 36h1v1h-1zM12 36h1v1h-1z"/><path fill="#35353E" d="M17 36h1v1h-1z" opacity=".114"/><path fill="#353441" d="M18 36h1v1h-1zM19 36h1v1h-1z"/><path fill="#B18B8B" d="M20 36h1v1h-1zM21 36h1v1h-1zM22 36h1v1h-1z"/><path fill="#353441" d="M23 36h1v1h-1zM24 36h1v1h-1zM25 36h1v1h-1zM26 36h1v1h-1z"/><path fill="#EF1A1A" d="M27 36h1v1h-1zM28 36h1v1h-1zM29 36h1v1h-1zM30 36h1v1h-1zM31 36h1v1h-1z"/><path fill="#353441" d="M32 36h1v1h-1z"/><path fill="#EF1A1A" d="M33 36h1v1h-1zM34 36h1v1h-1zM35 36h1v1h-1zM36 36h1v1h-1zM37 36h1v1h-1z"/><path fill="#353441" d="M38 36h1v1h-1zM39 36h1v1h-1zM40 36h1v1h-1zM41 36h1v1h-1z"/><path fill="#B18B8B" d="M42 36h1v1h-1zM43 36h1v1h-1zM44 36h1v1h-1z"/><path fill="#353441" d="M45 36h1v1h-1zM46 36h1v1h-1zM47 36h1v1h-1zM52 36h1v1h-1zM53 36h1v1h-1zM54 36h1v1h-1zM55 36h1v1h-1zM56 36h1v1h-1zM57 36h1v1h-1zM58 36h1v1h-1zM59 36h1v1h-1z"/><path fill="#242449" d="M5 37h1v1H5z" opacity=".027"/><path fill="#353441" d="M6 37h1v1H6zM7 37h1v1H7zM8 37h1v1H8zM9 37h1v1H9zM10 37h1v1h-1zM11 37h1v1h-1zM12 37h1v1h-1z"/><path fill="#353440" d="M17 37h1v1h-1z" opacity=".714"/><path fill="#353441" d="M18 37h1v1h-1z"/><path fill="#B18B8B" d="M19 37h1v1h-1z"/><path fill="#353441" d="M20 37h1v1h-1zM21 37h1v1h-1zM22 37h1v1h-1zM23 37h1v1h-1zM24 37h1v1h-1zM25 37h1v1h-1zM26 37h1v1h-1z"/><path fill="#EF1A1A" d="M27 37h1v1h-1zM28 37h1v1h-1zM29 37h1v1h-1zM30 37h1v1h-1zM31 37h1v1h-1z"/><path fill="#353441" d="M32 37h1v1h-1z"/><path fill="#EF1A1A" d="M33 37h1v1h-1zM34 37h1v1h-1zM35 37h1v1h-1zM36 37h1v1h-1zM37 37h1v1h-1z"/><path fill="#353441" d="M38 37h1v1h-1zM39 37h1v1h-1zM40 37h1v1h-1zM41 37h1v1h-1z"/><path fill="#B18B8B" d="M42 37h1v1h-1z"/><path fill="#353441" d="M43 37h1v1h-1zM44 37h1v1h-1z"/><path fill="#B18B8B" d="M45 37h1v1h-1z"/><path fill="#353441" d="M46 37h1v1h-1zM47 37h1v1h-1z"/><path fill="#353441" d="M52 37h1v1h-1z" opacity=".945"/><path fill="#343341" d="M53 37h1v1h-1z" opacity=".973"/><path fill="#353441" d="M54 37h1v1h-1zM55 37h1v1h-1zM56 37h1v1h-1zM57 37h1v1h-1zM58 37h1v1h-1z"/><path fill="#353441" d="M59 37h1v1h-1z" opacity=".871"/><path fill="#353441" d="M6 38h1v1H6zM7 38h1v1H7zM8 38h1v1H8zM9 38h1v1H9zM10 38h1v1h-1z"/><path fill="#353441" d="M11 38h1v1h-1z" opacity=".796"/><path fill="#363441" d="M12 38h1v1h-1z" opacity=".596"/><path fill="#353441" d="M17 38h1v1h-1zM18 38h1v1h-1z"/><path fill="#B18B8B" d="M19 38h1v1h-1zM20 38h1v1h-1zM21 38h1v1h-1zM22 38h1v1h-1z"/><path fill="#353441" d="M23 38h1v1h-1zM24 38h1v1h-1zM25 38h1v1h-1zM26 38h1v1h-1z"/><path fill="#EF1A1A" d="M27 38h1v1h-1zM28 38h1v1h-1zM29 38h1v1h-1zM30 38h1v1h-1zM31 38h1v1h-1z"/><path fill="#353441" d="M32 38h1v1h-1z"/><path fill="#EF1A1A" d="M33 38h1v1h-1zM34 38h1v1h-1zM35 38h1v1h-1zM36 38h1v1h-1zM37 38h1v1h-1z"/><path fill="#353441" d="M38 38h1v1h-1zM39 38h1v1h-1zM40 38h1v1h-1zM41 38h1v1h-1zM42 38h1v1h-1z"/><path fill="#B18B8B" d="M43 38h1v1h-1zM44 38h1v1h-1zM45 38h1v1h-1z"/><path fill="#353441" d="M46 38h1v1h-1zM47 38h1v1h-1z"/><path fill="#343440" d="M53 38h1v1h-1z" opacity=".498"/><path fill="#353441" d="M54 38h1v1h-1zM55 38h1v1h-1zM56 38h1v1h-1zM57 38h1v1h-1zM58 38h1v1h-1z"/><path fill="#343440" d="M6 39h1v1H6zM7 39h1v1H7z" opacity=".498"/><path fill="#353441" d="M8 39h1v1H8zM9 39h1v1H9zM10 39h1v1h-1z"/><path fill="#353541" d="M11 39h1v1h-1z" opacity=".647"/><path fill="#363640" d="M12 39h1v1h-1z" opacity=".298"/><path fill="#353441" d="M17 39h1v1h-1zM18 39h1v1h-1z"/><path fill="#B18B8B" d="M19 39h1v1h-1zM20 39h1v1h-1zM21 39h1v1h-1zM22 39h1v1h-1z"/><path fill="#353441" d="M23 39h1v1h-1zM24 39h1v1h-1zM25 39h1v1h-1zM26 39h1v1h-1z"/><path fill="#EF1A1A" d="M27 39h1v1h-1zM28 39h1v1h-1zM29 39h1v1h-1zM30 39h1v1h-1zM31 39h1v1h-1z"/><path fill="#353441" d="M32 39h1v1h-1z"/><path fill="#EF1A1A" d="M33 39h1v1h-1zM34 39h1v1h-1zM35 39h1v1h-1zM36 39h1v1h-1zM37 39h1v1h-1z"/><path fill="#353441" d="M38 39h1v1h-1zM39 39h1v1h-1zM40 39h1v1h-1zM41 39h1v1h-1z"/><path fill="#736066" d="M42 39h1v1h-1z"/><path fill="#B18B8B" d="M43 39h1v1h-1zM44 39h1v1h-1zM45 39h1v1h-1z"/><path fill="#353441" d="M46 39h1v1h-1zM47 39h1v1h-1z"/><path fill="#343440" d="M53 39h1v1h-1z" opacity=".498"/><path fill="#353441" d="M54 39h1v1h-1zM55 39h1v1h-1zM56 39h1v1h-1z"/><path fill="#353440" d="M57 39h1v1h-1zM58 39h1v1h-1z" opacity=".714"/><path fill="#353441" d="M8 40h1v1H8zM9 40h1v1H9zM10 40h1v1h-1z"/><path fill="#343440" d="M11 40h1v1h-1z" opacity=".498"/><path fill="#353441" d="M17 40h1v1h-1zM18 40h1v1h-1z"/><path fill="#B18B8B" d="M19 40h1v1h-1zM20 40h1v1h-1zM21 40h1v1h-1zM22 40h1v1h-1z"/><path fill="#353441" d="M23 40h1v1h-1zM24 40h1v1h-1zM25 40h1v1h-1zM26 40h1v1h-1z"/><path fill="#EF1A1A" d="M27 40h1v1h-1zM28 40h1v1h-1zM29 40h1v1h-1zM30 40h1v1h-1zM31 40h1v1h-1z"/><path fill="#353441" d="M32 40h1v1h-1z"/><path fill="#EF1A1A" d="M33 40h1v1h-1zM34 40h1v1h-1zM35 40h1v1h-1zM36 40h1v1h-1zM37 40h1v1h-1z"/><path fill="#353441" d="M38 40h1v1h-1zM39 40h1v1h-1zM40 40h1v1h-1zM41 40h1v1h-1z"/><path fill="#B18B8B" d="M42 40h1v1h-1zM43 40h1v1h-1zM44 40h1v1h-1zM45 40h1v1h-1z"/><path fill="#353441" d="M46 40h1v1h-1zM47 40h1v1h-1z"/><path fill="#343440" d="M53 40h1v1h-1z" opacity=".498"/><path fill="#353441" d="M54 40h1v1h-1zM55 40h1v1h-1zM56 40h1v1h-1z"/><path fill="#353341" d="M57 40h1v1h-1zM58 40h1v1h-1z" opacity=".431"/><path fill="#353441" d="M8 41h1v1H8zM9 41h1v1H9zM10 41h1v1h-1z"/><path fill="#343440" d="M11 41h1v1h-1z" opacity=".498"/><path fill="#353441" d="M17 41h1v1h-1zM18 41h1v1h-1zM19 41h1v1h-1z"/><path fill="#B18B8B" d="M20 41h1v1h-1zM21 41h1v1h-1zM22 41h1v1h-1z"/><path fill="#353441" d="M23 41h1v1h-1zM24 41h1v1h-1zM25 41h1v1h-1zM26 41h1v1h-1z"/><path fill="#AC1717" d="M27 41h1v1h-1z"/><path fill="#EF1A1A" d="M28 41h1v1h-1zM29 41h1v1h-1zM30 41h1v1h-1zM31 41h1v1h-1z"/><path fill="#353441" d="M32 41h1v1h-1z"/><path fill="#AC1717" d="M33 41h1v1h-1z"/><path fill="#EF1A1A" d="M34 41h1v1h-1zM35 41h1v1h-1zM36 41h1v1h-1zM37 41h1v1h-1z"/><path fill="#353441" d="M38 41h1v1h-1zM39 41h1v1h-1zM40 41h1v1h-1zM41 41h1v1h-1z"/><path fill="#B18B8B" d="M42 41h1v1h-1zM43 41h1v1h-1zM44 41h1v1h-1z"/><path fill="#353441" d="M45 41h1v1h-1zM46 41h1v1h-1zM47 41h1v1h-1z"/><path fill="#36323F" d="M53 41h1v1h-1z" opacity=".318"/><path fill="#363441" d="M54 41h1v1h-1z" opacity=".635"/><path fill="#353441" d="M55 41h1v1h-1zM56 41h1v1h-1zM9 42h1v1H9zM17 42h1v1h-1zM18 42h1v1h-1z"/><path fill="#B18B8B" d="M19 42h1v1h-1z"/><path fill="#353441" d="M20 42h1v1h-1zM21 42h1v1h-1z"/><path fill="#B18B8B" d="M22 42h1v1h-1z"/><path fill="#353441" d="M23 42h1v1h-1zM24 42h1v1h-1zM25 42h1v1h-1zM26 42h1v1h-1z"/><path fill="#AC1717" d="M27 42h1v1h-1z"/><path fill="#EF1A1A" d="M28 42h1v1h-1zM29 42h1v1h-1zM30 42h1v1h-1zM31 42h1v1h-1z"/><path fill="#353441" d="M32 42h1v1h-1z"/><path fill="#EF1A1A" d="M33 42h1v1h-1zM34 42h1v1h-1zM35 42h1v1h-1zM36 42h1v1h-1zM37 42h1v1h-1z"/><path fill="#353441" d="M38 42h1v1h-1zM39 42h1v1h-1zM40 42h1v1h-1zM41 42h1v1h-1z"/><path fill="#B18B8B" d="M42 42h1v1h-1z"/><path fill="#353441" d="M43 42h1v1h-1zM44 42h1v1h-1z"/><path fill="#B18B8B" d="M45 42h1v1h-1z"/><path fill="#353441" d="M46 42h1v1h-1zM47 42h1v1h-1z"/><path fill="#404040" d="M48 42h1v1h-1zM49 42h1v1h-1z" opacity=".016"/><path fill="#353441" d="M55 42h1v1h-1z"/><path fill="#373749" d="M56 42h1v1h-1z" opacity=".055"/><path fill="#353441" d="M17 43h1v1h-1zM18 43h1v1h-1z"/><path fill="#B18B8B" d="M19 43h1v1h-1zM20 43h1v1h-1zM21 43h1v1h-1z"/><path fill="#353441" d="M22 43h1v1h-1zM23 43h1v1h-1zM24 43h1v1h-1zM25 43h1v1h-1zM26 43h1v1h-1z"/><path fill="#EF1A1A" d="M27 43h1v1h-1zM28 43h1v1h-1zM29 43h1v1h-1zM30 43h1v1h-1zM31 43h1v1h-1z"/><path fill="#353441" d="M32 43h1v1h-1z"/><path fill="#EF1A1A" d="M33 43h1v1h-1zM34 43h1v1h-1zM35 43h1v1h-1zM36 43h1v1h-1zM37 43h1v1h-1z"/><path fill="#353441" d="M38 43h1v1h-1zM39 43h1v1h-1zM40 43h1v1h-1zM41 43h1v1h-1zM42 43h1v1h-1z"/><path fill="#B18B8B" d="M43 43h1v1h-1zM44 43h1v1h-1zM45 43h1v1h-1z"/><path fill="#353441" d="M46 43h1v1h-1zM47 43h1v1h-1z"/><path fill="#353440" d="M48 43h1v1h-1zM49 43h1v1h-1z" opacity=".776"/><path fill="#353441" d="M17 44h1v1h-1zM18 44h1v1h-1z"/><path fill="#B18B8B" d="M19 44h1v1h-1zM20 44h1v1h-1zM21 44h1v1h-1z"/><path fill="#353441" d="M22 44h1v1h-1zM23 44h1v1h-1zM24 44h1v1h-1zM25 44h1v1h-1zM26 44h1v1h-1z"/><path fill="#EF1A1A" d="M27 44h1v1h-1zM28 44h1v1h-1zM29 44h1v1h-1zM30 44h1v1h-1zM31 44h1v1h-1z"/><path fill="#353441" d="M32 44h1v1h-1z"/><path fill="#EF1A1A" d="M33 44h1v1h-1zM34 44h1v1h-1zM35 44h1v1h-1zM36 44h1v1h-1zM37 44h1v1h-1z"/><path fill="#353441" d="M38 44h1v1h-1zM39 44h1v1h-1zM40 44h1v1h-1zM41 44h1v1h-1zM42 44h1v1h-1z"/><path fill="#B18B8B" d="M43 44h1v1h-1zM44 44h1v1h-1zM45 44h1v1h-1z"/><path fill="#353441" d="M46 44h1v1h-1zM47 44h1v1h-1z"/><path fill="#353440" d="M48 44h1v1h-1zM49 44h1v1h-1z" opacity=".776"/><path fill="#353441" d="M17 45h1v1h-1zM18 45h1v1h-1z"/><path fill="#B18B8B" d="M19 45h1v1h-1zM20 45h1v1h-1zM21 45h1v1h-1zM22 45h1v1h-1z"/><path fill="#353441" d="M23 45h1v1h-1zM24 45h1v1h-1zM25 45h1v1h-1zM26 45h1v1h-1z"/><path fill="#EF1A1A" d="M27 45h1v1h-1zM28 45h1v1h-1zM29 45h1v1h-1zM30 45h1v1h-1zM31 45h1v1h-1z"/><path fill="#353441" d="M32 45h1v1h-1z"/><path fill="#EF1A1A" d="M33 45h1v1h-1zM34 45h1v1h-1zM35 45h1v1h-1zM36 45h1v1h-1zM37 45h1v1h-1z"/><path fill="#353441" d="M38 45h1v1h-1zM39 45h1v1h-1zM40 45h1v1h-1zM41 45h1v1h-1zM42 45h1v1h-1z"/><path fill="#B18B8B" d="M43 45h1v1h-1zM44 45h1v1h-1zM45 45h1v1h-1zM46 45h1v1h-1z"/><path fill="#353441" d="M47 45h1v1h-1z"/><path fill="#353440" d="M48 45h1v1h-1zM49 45h1v1h-1z" opacity=".729"/><path fill="#353441" d="M17 46h1v1h-1zM18 46h1v1h-1z"/><path fill="#B18B8B" d="M19 46h1v1h-1zM20 46h1v1h-1zM21 46h1v1h-1zM22 46h1v1h-1z"/><path fill="#353441" d="M23 46h1v1h-1zM24 46h1v1h-1zM25 46h1v1h-1zM26 46h1v1h-1z"/><path fill="#EF1A1A" d="M27 46h1v1h-1zM28 46h1v1h-1zM29 46h1v1h-1zM30 46h1v1h-1zM31 46h1v1h-1z"/><path fill="#353441" d="M32 46h1v1h-1z"/><path fill="#EF1A1A" d="M33 46h1v1h-1zM34 46h1v1h-1zM35 46h1v1h-1zM36 46h1v1h-1zM37 46h1v1h-1z"/><path fill="#353441" d="M38 46h1v1h-1zM39 46h1v1h-1zM40 46h1v1h-1zM41 46h1v1h-1z"/><path fill="#B18B8B" d="M42 46h1v1h-1zM43 46h1v1h-1zM44 46h1v1h-1zM45 46h1v1h-1zM46 46h1v1h-1z"/><path fill="#353441" d="M47 46h1v1h-1z"/><path fill="#363441" d="M48 46h1v1h-1zM49 46h1v1h-1z" opacity=".635"/><path fill="#353441" d="M17 47h1v1h-1zM18 47h1v1h-1z"/><path fill="#B18B8B" d="M19 47h1v1h-1zM20 47h1v1h-1zM21 47h1v1h-1zM22 47h1v1h-1zM23 47h1v1h-1z"/><path fill="#353441" d="M24 47h1v1h-1zM25 47h1v1h-1zM26 47h1v1h-1z"/><path fill="#EF1A1A" d="M27 47h1v1h-1zM28 47h1v1h-1zM29 47h1v1h-1zM30 47h1v1h-1zM31 47h1v1h-1z"/><path fill="#353441" d="M32 47h1v1h-1z"/><path fill="#EF1A1A" d="M33 47h1v1h-1zM34 47h1v1h-1zM35 47h1v1h-1zM36 47h1v1h-1zM37 47h1v1h-1z"/><path fill="#353441" d="M38 47h1v1h-1zM39 47h1v1h-1zM40 47h1v1h-1z"/><path fill="#B18B8B" d="M41 47h1v1h-1zM42 47h1v1h-1zM43 47h1v1h-1zM44 47h1v1h-1zM45 47h1v1h-1z"/><path fill="#353441" d="M46 47h1v1h-1zM47 47h1v1h-1z"/><path fill="#353340" d="M48 47h1v1h-1zM49 47h1v1h-1z" opacity=".545"/><path fill="#353441" d="M17 48h1v1h-1zM18 48h1v1h-1z"/><path fill="#B18B8B" d="M19 48h1v1h-1zM20 48h1v1h-1zM21 48h1v1h-1zM22 48h1v1h-1zM23 48h1v1h-1z"/><path fill="#353441" d="M24 48h1v1h-1zM25 48h1v1h-1zM26 48h1v1h-1z"/><path fill="#EF1A1A" d="M27 48h1v1h-1zM28 48h1v1h-1zM29 48h1v1h-1zM30 48h1v1h-1zM31 48h1v1h-1z"/><path fill="#353441" d="M32 48h1v1h-1z"/><path fill="#EF1A1A" d="M33 48h1v1h-1zM34 48h1v1h-1zM35 48h1v1h-1zM36 48h1v1h-1zM37 48h1v1h-1z"/><path fill="#353441" d="M38 48h1v1h-1zM39 48h1v1h-1zM40 48h1v1h-1z"/><path fill="#B18B8B" d="M41 48h1v1h-1zM42 48h1v1h-1zM43 48h1v1h-1zM44 48h1v1h-1zM45 48h1v1h-1z"/><path fill="#353441" d="M46 48h1v1h-1zM47 48h1v1h-1z"/><path fill="#353542" d="M48 48h1v1h-1zM49 48h1v1h-1z" opacity=".455"/><path fill="#353441" d="M17 49h1v1h-1zM18 49h1v1h-1z"/><path fill="#B18B8B" d="M19 49h1v1h-1zM20 49h1v1h-1zM21 49h1v1h-1zM22 49h1v1h-1zM23 49h1v1h-1z"/><path fill="#353441" d="M24 49h1v1h-1zM25 49h1v1h-1zM26 49h1v1h-1z"/><path fill="#EF1A1A" d="M27 49h1v1h-1zM28 49h1v1h-1zM29 49h1v1h-1zM30 49h1v1h-1zM31 49h1v1h-1z"/><path fill="#353441" d="M32 49h1v1h-1z"/><path fill="#EF1A1A" d="M33 49h1v1h-1zM34 49h1v1h-1zM35 49h1v1h-1zM36 49h1v1h-1zM37 49h1v1h-1z"/><path fill="#353441" d="M38 49h1v1h-1zM39 49h1v1h-1zM40 49h1v1h-1z"/><path fill="#B18B8B" d="M41 49h1v1h-1zM42 49h1v1h-1zM43 49h1v1h-1zM44 49h1v1h-1zM45 49h1v1h-1z"/><path fill="#353441" d="M46 49h1v1h-1zM47 49h1v1h-1z"/><path fill="#353542" d="M48 49h1v1h-1zM49 49h1v1h-1z" opacity=".455"/><path fill="#353441" d="M17 50h1v1h-1zM18 50h1v1h-1zM19 50h1v1h-1z"/><path fill="#B18B8B" d="M20 50h1v1h-1zM21 50h1v1h-1zM22 50h1v1h-1zM23 50h1v1h-1z"/><path fill="#353441" d="M24 50h1v1h-1zM25 50h1v1h-1zM26 50h1v1h-1z"/><path fill="#EF1A1A" d="M27 50h1v1h-1zM28 50h1v1h-1zM29 50h1v1h-1zM30 50h1v1h-1zM31 50h1v1h-1z"/><path fill="#353441" d="M32 50h1v1h-1z"/><path fill="#EF1A1A" d="M33 50h1v1h-1zM34 50h1v1h-1zM35 50h1v1h-1zM36 50h1v1h-1zM37 50h1v1h-1z"/><path fill="#353441" d="M38 50h1v1h-1zM39 50h1v1h-1zM40 50h1v1h-1z"/><path fill="#B18B8B" d="M41 50h1v1h-1zM42 50h1v1h-1zM43 50h1v1h-1zM44 50h1v1h-1z"/><path fill="#353441" d="M45 50h1v1h-1zM46 50h1v1h-1zM47 50h1v1h-1z"/><path fill="#343442" d="M48 50h1v1h-1zM49 50h1v1h-1z" opacity=".365"/><path fill="#353441" d="M17 51h1v1h-1zM18 51h1v1h-1zM19 51h1v1h-1zM20 51h1v1h-1zM21 51h1v1h-1z"/><path fill="#B18B8B" d="M22 51h1v1h-1zM23 51h1v1h-1zM24 51h1v1h-1z"/><path fill="#736066" d="M25 51h1v1h-1z"/><path fill="#353441" d="M26 51h1v1h-1z"/><path fill="#EF1A1A" d="M27 51h1v1h-1zM28 51h1v1h-1zM29 51h1v1h-1zM30 51h1v1h-1zM31 51h1v1h-1z"/><path fill="#353441" d="M32 51h1v1h-1z"/><path fill="#EF1A1A" d="M33 51h1v1h-1zM34 51h1v1h-1zM35 51h1v1h-1zM36 51h1v1h-1zM37 51h1v1h-1z"/><path fill="#353441" d="M38 51h1v1h-1zM39 51h1v1h-1zM40 51h1v1h-1z"/><path fill="#B18B8B" d="M41 51h1v1h-1zM42 51h1v1h-1z"/><path fill="#353441" d="M43 51h1v1h-1zM44 51h1v1h-1zM45 51h1v1h-1zM46 51h1v1h-1zM47 51h1v1h-1z"/><path fill="#373342" d="M48 51h1v1h-1zM49 51h1v1h-1z" opacity=".275"/><path fill="#353441" d="M17 52h1v1h-1zM18 52h1v1h-1zM19 52h1v1h-1zM20 52h1v1h-1zM21 52h1v1h-1zM22 52h1v1h-1z"/><path fill="#B18B8B" d="M23 52h1v1h-1zM24 52h1v1h-1z"/><path fill="#736066" d="M25 52h1v1h-1z"/><path fill="#353441" d="M26 52h1v1h-1zM27 52h1v1h-1z"/><path fill="#EF1A1A" d="M28 52h1v1h-1zM29 52h1v1h-1zM30 52h1v1h-1zM31 52h1v1h-1z"/><path fill="#353441" d="M32 52h1v1h-1z"/><path fill="#EF1A1A" d="M33 52h1v1h-1zM34 52h1v1h-1zM35 52h1v1h-1zM36 52h1v1h-1zM37 52h1v1h-1z"/><path fill="#353441" d="M38 52h1v1h-1z"/><path fill="#736066" d="M39 52h1v1h-1z"/><path fill="#B18B8B" d="M40 52h1v1h-1zM41 52h1v1h-1zM42 52h1v1h-1z"/><path fill="#353441" d="M43 52h1v1h-1zM44 52h1v1h-1zM45 52h1v1h-1zM46 52h1v1h-1zM47 52h1v1h-1z"/><path fill="#353540" d="M48 52h1v1h-1zM49 52h1v1h-1z" opacity=".188"/><path fill="#353441" d="M17 53h1v1h-1zM18 53h1v1h-1zM19 53h1v1h-1zM20 53h1v1h-1zM21 53h1v1h-1zM22 53h1v1h-1z"/><path fill="#736066" d="M23 53h1v1h-1z"/><path fill="#B18B8B" d="M24 53h1v1h-1z"/><path fill="#736066" d="M25 53h1v1h-1z"/><path fill="#353441" d="M26 53h1v1h-1zM27 53h1v1h-1z"/><path fill="#EF1A1A" d="M28 53h1v1h-1zM29 53h1v1h-1zM30 53h1v1h-1zM31 53h1v1h-1z"/><path fill="#353441" d="M32 53h1v1h-1z"/><path fill="#EF1A1A" d="M33 53h1v1h-1zM34 53h1v1h-1zM35 53h1v1h-1zM36 53h1v1h-1z"/><path fill="#92272D" d="M37 53h1v1h-1z"/><path fill="#353441" d="M38 53h1v1h-1z"/><path fill="#736066" d="M39 53h1v1h-1z"/><path fill="#B18B8B" d="M40 53h1v1h-1zM41 53h1v1h-1z"/><path fill="#736066" d="M42 53h1v1h-1z"/><path fill="#353441" d="M43 53h1v1h-1zM44 53h1v1h-1zM45 53h1v1h-1zM46 53h1v1h-1zM47 53h1v1h-1z"/><path fill="#323240" d="M48 53h1v1h-1zM49 53h1v1h-1z" opacity=".141"/><path fill="#353441" d="M17 54h1v1h-1zM18 54h1v1h-1zM19 54h1v1h-1zM20 54h1v1h-1zM21 54h1v1h-1zM22 54h1v1h-1zM23 54h1v1h-1z"/><path fill="#B18B8B" d="M24 54h1v1h-1z"/><path fill="#736066" d="M25 54h1v1h-1z"/><path fill="#353441" d="M26 54h1v1h-1zM27 54h1v1h-1z"/><path fill="#EF1A1A" d="M28 54h1v1h-1zM29 54h1v1h-1zM30 54h1v1h-1zM31 54h1v1h-1z"/><path fill="#353441" d="M32 54h1v1h-1z"/><path fill="#EF1A1A" d="M33 54h1v1h-1zM34 54h1v1h-1zM35 54h1v1h-1zM36 54h1v1h-1z"/><path fill="#353441" d="M37 54h1v1h-1zM38 54h1v1h-1z"/><path fill="#736066" d="M39 54h1v1h-1z"/><path fill="#B18B8B" d="M40 54h1v1h-1zM41 54h1v1h-1z"/><path fill="#353441" d="M42 54h1v1h-1zM43 54h1v1h-1zM44 54h1v1h-1zM45 54h1v1h-1zM46 54h1v1h-1zM47 54h1v1h-1z"/><path fill="#33333D" d="M48 54h1v1h-1zM49 54h1v1h-1z" opacity=".098"/><path fill="#353441" d="M17 55h1v1h-1zM18 55h1v1h-1zM19 55h1v1h-1zM20 55h1v1h-1zM21 55h1v1h-1zM22 55h1v1h-1zM23 55h1v1h-1zM24 55h1v1h-1zM25 55h1v1h-1zM26 55h1v1h-1zM27 55h1v1h-1z"/><path fill="#EF1A1A" d="M28 55h1v1h-1zM29 55h1v1h-1zM30 55h1v1h-1zM31 55h1v1h-1z"/><path fill="#353441" d="M32 55h1v1h-1z"/><path fill="#EF1A1A" d="M33 55h1v1h-1zM34 55h1v1h-1zM35 55h1v1h-1zM36 55h1v1h-1z"/><path fill="#353441" d="M37 55h1v1h-1zM38 55h1v1h-1zM39 55h1v1h-1zM40 55h1v1h-1zM41 55h1v1h-1zM42 55h1v1h-1zM43 55h1v1h-1zM44 55h1v1h-1zM45 55h1v1h-1zM46 55h1v1h-1zM47 55h1v1h-1zM18 56h1v1h-1zM19 56h1v1h-1zM20 56h1v1h-1zM21 56h1v1h-1zM22 56h1v1h-1zM23 56h1v1h-1zM24 56h1v1h-1zM25 56h1v1h-1zM26 56h1v1h-1zM27 56h1v1h-1zM28 56h1v1h-1z"/><path fill="#EF1A1A" d="M29 56h1v1h-1zM30 56h1v1h-1zM31 56h1v1h-1z"/><path fill="#353441" d="M32 56h1v1h-1z"/><path fill="#EF1A1A" d="M33 56h1v1h-1zM34 56h1v1h-1zM35 56h1v1h-1zM36 56h1v1h-1z"/><path fill="#353441" d="M37 56h1v1h-1zM38 56h1v1h-1zM39 56h1v1h-1zM40 56h1v1h-1zM41 56h1v1h-1zM42 56h1v1h-1zM43 56h1v1h-1zM44 56h1v1h-1zM45 56h1v1h-1zM46 56h1v1h-1zM19 57h1v1h-1zM20 57h1v1h-1zM21 57h1v1h-1zM22 57h1v1h-1zM23 57h1v1h-1zM24 57h1v1h-1zM25 57h1v1h-1zM26 57h1v1h-1zM27 57h1v1h-1zM28 57h1v1h-1z"/><path fill="#EF1A1A" d="M29 57h1v1h-1zM30 57h1v1h-1zM31 57h1v1h-1z"/><path fill="#353441" d="M32 57h1v1h-1z"/><path fill="#EF1A1A" d="M33 57h1v1h-1zM34 57h1v1h-1zM35 57h1v1h-1z"/><path fill="#353441" d="M36 57h1v1h-1zM37 57h1v1h-1zM38 57h1v1h-1zM39 57h1v1h-1zM40 57h1v1h-1zM41 57h1v1h-1zM42 57h1v1h-1zM43 57h1v1h-1zM44 57h1v1h-1zM45 57h1v1h-1zM19 58h1v1h-1zM20 58h1v1h-1zM21 58h1v1h-1zM22 58h1v1h-1zM23 58h1v1h-1zM24 58h1v1h-1zM25 58h1v1h-1zM26 58h1v1h-1zM27 58h1v1h-1zM28 58h1v1h-1z"/><path fill="#EF1A1A" d="M29 58h1v1h-1zM30 58h1v1h-1zM31 58h1v1h-1z"/><path fill="#353441" d="M32 58h1v1h-1z"/><path fill="#EF1A1A" d="M33 58h1v1h-1zM34 58h1v1h-1zM35 58h1v1h-1z"/><path fill="#353441" d="M36 58h1v1h-1zM37 58h1v1h-1zM38 58h1v1h-1zM39 58h1v1h-1zM40 58h1v1h-1zM41 58h1v1h-1zM42 58h1v1h-1zM43 58h1v1h-1zM44 58h1v1h-1zM45 58h1v1h-1zM20 59h1v1h-1zM21 59h1v1h-1zM22 59h1v1h-1zM23 59h1v1h-1zM24 59h1v1h-1zM25 59h1v1h-1zM26 59h1v1h-1zM27 59h1v1h-1zM28 59h1v1h-1z"/><path fill="#AC1717" d="M29 59h1v1h-1zM30 59h1v1h-1z"/><path fill="#EF1A1A" d="M31 59h1v1h-1z"/><path fill="#353441" d="M32 59h1v1h-1z"/><path fill="#EF1A1A" d="M33 59h1v1h-1zM34 59h1v1h-1zM35 59h1v1h-1z"/><path fill="#353441" d="M36 59h1v1h-1zM37 59h1v1h-1zM38 59h1v1h-1zM39 59h1v1h-1zM40 59h1v1h-1zM41 59h1v1h-1zM42 59h1v1h-1zM43 59h1v1h-1zM44 59h1v1h-1zM22 60h1v1h-1zM23 60h1v1h-1zM24 60h1v1h-1zM25 60h1v1h-1zM26 60h1v1h-1zM27 60h1v1h-1zM28 60h1v1h-1zM29 60h1v1h-1zM30 60h1v1h-1z"/><path fill="#EF1A1A" d="M31 60h1v1h-1z"/><path fill="#353441" d="M32 60h1v1h-1z"/><path fill="#EF1A1A" d="M33 60h1v1h-1z"/><path fill="#353441" d="M34 60h1v1h-1zM35 60h1v1h-1zM36 60h1v1h-1zM37 60h1v1h-1zM38 60h1v1h-1zM39 60h1v1h-1zM40 60h1v1h-1zM41 60h1v1h-1zM42 60h1v1h-1z"/><path fill="#353543" d="M23 61h1v1h-1z" opacity=".133"/><path fill="#353441" d="M24 61h1v1h-1zM25 61h1v1h-1zM26 61h1v1h-1zM27 61h1v1h-1zM28 61h1v1h-1zM29 61h1v1h-1zM30 61h1v1h-1zM31 61h1v1h-1zM32 61h1v1h-1zM33 61h1v1h-1zM34 61h1v1h-1zM35 61h1v1h-1zM36 61h1v1h-1zM37 61h1v1h-1zM38 61h1v1h-1zM39 61h1v1h-1zM40 61h1v1h-1z"/><path fill="#2A2A55" d="M41 61h1v1h-1z" opacity=".024"/><path fill="#2D2D3C" d="M23 62h1v1h-1z" opacity=".067"/><path fill="#343440" d="M24 62h1v1h-1z" opacity=".498"/><path fill="#353542" d="M25 62h1v1h-1z" opacity=".549"/><path fill="#353541" d="M26 62h1v1h-1z" opacity=".6"/><path fill="#353441" d="M27 62h1v1h-1zM28 62h1v1h-1zM29 62h1v1h-1zM30 62h1v1h-1zM31 62h1v1h-1zM32 62h1v1h-1zM33 62h1v1h-1zM34 62h1v1h-1zM35 62h1v1h-1zM36 62h1v1h-1zM37 62h1v1h-1z"/><path fill="#353540" d="M38 62h1v1h-1z" opacity=".514"/><path fill="#353341" d="M39 62h1v1h-1z" opacity=".506"/><path fill="#343440" d="M40 62h1v1h-1z" opacity=".498"/><path fill="#005" d="M41 62h1v1h-1z" opacity=".012"/><path fill="#31313B" d="M25 63h1v1h-1z" opacity=".102"/><path fill="#363640" d="M26 63h1v1h-1z" opacity=".204"/><path fill="#353441" d="M27 63h1v1h-1zM28 63h1v1h-1zM29 63h1v1h-1zM30 63h1v1h-1zM31 63h1v1h-1zM32 63h1v1h-1zM33 63h1v1h-1zM34 63h1v1h-1zM35 63h1v1h-1zM36 63h1v1h-1zM37 63h1v1h-1z"/><path fill="#404040" d="M38 63h1v1h-1z" opacity=".031"/><path fill="#404040" d="M39 63h1v1h-1z" opacity=".016"/></svg>