<svg xmlns="http://www.w3.org/2000/svg" width="25" height="93" shape-rendering="crispEdges"><path fill="#E39C69" d="M12 0h1v1h-1z"/><path fill="#E4A070" d="M12 1h1v1h-1zM11 2h1v1h-1z"/><path fill="#D38757" d="M12 2h1v1h-1z"/><path fill="#DA7A34" d="M13 2h1v1h-1z"/><path fill="#E4A070" d="M11 3h1v1h-1z"/><path fill="#D38757" d="M12 3h1v1h-1z"/><path fill="#DA7A34" d="M13 3h1v1h-1z"/><path fill="#E4A070" d="M11 4h1v1h-1z"/><path fill="#D38757" d="M12 4h1v1h-1z"/><path fill="#DA7A34" d="M13 4h1v1h-1z"/><path fill="#E4A070" d="M11 5h1v1h-1z"/><path fill="#D38757" d="M12 5h1v1h-1z"/><path fill="#DA7A34" d="M13 5h1v1h-1z"/><path fill="#E4A070" d="M10 6h1v1h-1z"/><path fill="#E29966" d="M11 6h1v1h-1z"/><path fill="#D48B5B" d="M12 6h1v1h-1z"/><path fill="#CD6B25" d="M13 6h1v1h-1z"/><path fill="#DA7A34" d="M14 6h1v1h-1z"/><path fill="#E4A070" d="M10 7h1v1h-1z"/><path fill="#E39D6B" d="M11 7h1v1h-1z"/><path fill="#C77C4E" d="M12 7h1v1h-1z"/><path fill="#E1935E" d="M13 7h1v1h-1z"/><path fill="#DA7A34" d="M14 7h1v1h-1z"/><path fill="#E8A778" d="M10 8h1v1h-1z"/><path fill="#E39C6C" d="M11 8h1v1h-1z"/><path fill="#BD6F43" d="M12 8h1v1h-1z"/><path fill="#E1935E" d="M13 8h1v1h-1z"/><path fill="#DA7A34" d="M14 8h1v1h-1z"/><path fill="#E4A171" d="M10 9h1v1h-1zM11 9h1v1h-1z"/><path fill="#BA6533" d="M12 9h1v1h-1z"/><path fill="#E1935E" d="M13 9h1v1h-1z"/><path fill="#DA7A34" d="M14 9h1v1h-1z"/><path fill="#E49F6D" d="M9 10h1v1H9z"/><path fill="#E29A67" d="M10 10h1v1h-1z"/><path fill="#E29762" d="M11 10h1v1h-1z"/><path fill="#A24D24" d="M12 10h1v1h-1z"/><path fill="#E1935E" d="M13 10h1v1h-1z"/><path fill="#CD6B25" d="M14 10h1v1h-1z"/><path fill="#DA7A34" d="M15 10h1v1h-1z"/><path fill="#E29963" d="M9 11h1v1H9z"/><path fill="#E49A67" d="M10 11h1v1h-1z"/><path fill="#E1935E" d="M11 11h1v1h-1z"/><path fill="#9E4820" d="M12 11h1v1h-1z"/><path fill="#E1935E" d="M13 11h1v1h-1z"/><path fill="#CD6B25" d="M14 11h1v1h-1z"/><path fill="#DA7A34" d="M15 11h1v1h-1z"/><path fill="#E19661" d="M9 12h1v1H9z"/><path fill="#E49A67" d="M10 12h1v1h-1z"/><path fill="#E39B69" d="M11 12h1v1h-1z"/><path fill="#923B15" d="M12 12h1v1h-1z"/><path fill="#E1935E" d="M13 12h1v1h-1z"/><path fill="#CD6B25" d="M14 12h1v1h-1z"/><path fill="#DA7A34" d="M15 12h1v1h-1z"/><path fill="#E1905A" d="M9 13h1v1H9z"/><path fill="#E39B69" d="M10 13h1v1h-1z"/><path fill="#E1935E" d="M11 13h1v1h-1z"/><path fill="#923A14" d="M12 13h1v1h-1z"/><path fill="#E1935E" d="M13 13h1v1h-1z"/><path fill="#CD6B25" d="M14 13h1v1h-1z"/><path fill="#DA7A34" d="M15 13h1v1h-1z"/><path fill="#E39A65" d="M8 14h1v1H8z"/><path fill="#E29563" d="M9 14h1v1H9zM10 14h1v1h-1z"/><path fill="#E1935E" d="M11 14h1v1h-1z"/><path fill="#88300C" d="M12 14h1v1h-1z"/><path fill="#E1935E" d="M13 14h1v1h-1z"/><path fill="#D87027" d="M14 14h1v1h-1z"/><path fill="#D87227" d="M15 14h1v1h-1z"/><path fill="#DA7A34" d="M16 14h1v1h-1z"/><path fill="#E8A778" d="M8 15h1v1H8z"/><path fill="#E49C6D" d="M9 15h1v1H9z"/><path fill="#DF7F41" d="M10 15h1v1h-1z"/><path fill="#E0854B" d="M11 15h1v1h-1z"/><path fill="#99350B" d="M12 15h1v1h-1z"/><path fill="#E1935E" d="M13 15h1v1h-1z"/><path fill="#D86F27" d="M14 15h1v1h-1z"/><path fill="#D87027" d="M15 15h1v1h-1z"/><path fill="#DA7A34" d="M16 15h1v1h-1z"/><path fill="#E49F6D" d="M8 16h1v1H8z"/><path fill="#DF8144" d="M9 16h1v1H9z"/><path fill="#DD7634" d="M10 16h1v1h-1z"/><path fill="#DF7F41" d="M11 16h1v1h-1z"/><path fill="#A0360B" d="M12 16h1v1h-1z"/><path fill="#E1935E" d="M13 16h1v1h-1z"/><path fill="#D46B25" d="M14 16h1v1h-1z"/><path fill="#D87027" d="M15 16h1v1h-1z"/><path fill="#C04014" d="M16 16h1v1h-1zM9 17h1v1H9z"/><path fill="#DC702C" d="M10 17h1v1h-1z"/><path fill="#D4621F" d="M11 17h1v1h-1z"/><path fill="#521C0A" d="M12 17h1v1h-1z"/><path fill="#E1935E" d="M13 17h1v1h-1z"/><path fill="#DB722D" d="M14 17h1v1h-1z"/><path fill="#C04014" d="M15 17h1v1h-1z"/><path fill="#E39E6B" d="M8 18h1v1H8z"/><path fill="#88300C" d="M9 18h1v1H9z"/><path fill="#C04014" d="M10 18h1v1h-1zM11 18h1v1h-1z"/><path fill="#3D1409" d="M12 18h1v1h-1z"/><path fill="#BA4915" d="M13 18h1v1h-1z"/><path fill="#C04014" d="M14 18h1v1h-1z"/><path fill="#88300C" d="M15 18h1v1h-1z"/><path fill="#E1935E" d="M16 18h1v1h-1z"/><path fill="#DB7D3B" d="M8 19h1v1H8z"/><path fill="#DD8244" d="M9 19h1v1H9z"/><path fill="#88300C" d="M10 19h1v1h-1z"/><path fill="#E49A67" d="M11 19h1v1h-1z"/><path fill="#CD2309" d="M12 19h1v1h-1z"/><path fill="#E49A67" d="M13 19h1v1h-1z"/><path fill="#88300C" d="M14 19h1v1h-1z"/><path fill="#DD8244" d="M15 19h1v1h-1z"/><path fill="#DB7026" d="M16 19h1v1h-1z"/><path fill="#C9541C" d="M8 20h1v1H8zM9 20h1v1H9z"/><path fill="#E49A67" d="M10 20h1v1h-1z"/><path fill="#CD2309" d="M11 20h1v1h-1zM12 20h1v1h-1z"/><path fill="#A51B06" d="M13 20h1v1h-1z"/><path fill="#CE7537" d="M14 20h1v1h-1z"/><path fill="#88300C" d="M15 20h1v1h-1z"/><path fill="#DE8446" d="M16 20h1v1h-1z"/><path fill="#88300C" d="M9 21h1v1H9z"/><path fill="#E49A67" d="M10 21h1v1h-1z"/><path fill="#CD2309" d="M11 21h1v1h-1z"/><path fill="#A51B06" d="M12 21h1v1h-1z"/><path fill="#6C0E00" d="M13 21h1v1h-1z"/><path fill="#CE7537" d="M14 21h1v1h-1z"/><path fill="#88300C" d="M15 21h1v1h-1z"/><path fill="#DD8244" d="M8 22h1v1H8z"/><path fill="#BE6127" d="M9 22h1v1H9z"/><path fill="#F08A43" d="M10 22h1v1h-1z"/><path fill="#A51B06" d="M11 22h1v1h-1zM12 22h1v1h-1z"/><path fill="#6C0E00" d="M13 22h1v1h-1z"/><path fill="#CE7537" d="M14 22h1v1h-1z"/><path fill="#BE6127" d="M15 22h1v1h-1z"/><path fill="#DD8244" d="M16 22h1v1h-1z"/><path fill="#C04014" d="M8 23h1v1H8z"/><path fill="#C74F19" d="M9 23h1v1H9z"/><path fill="#88300C" d="M10 23h1v1h-1z"/><path fill="#CE7537" d="M11 23h1v1h-1z"/><path fill="#6C0E00" d="M12 23h1v1h-1z"/><path fill="#CE7537" d="M13 23h1v1h-1z"/><path fill="#88300C" d="M14 23h1v1h-1z"/><path fill="#C04014" d="M15 23h1v1h-1zM16 23h1v1h-1zM8 24h1v1H8z"/><path fill="#88300C" d="M9 24h1v1H9z"/><path fill="#D0632E" d="M10 24h1v1h-1z"/><path fill="#AC4C1B" d="M11 24h1v1h-1z"/><path fill="#381107" d="M12 24h1v1h-1z"/><path fill="#AC4C1B" d="M13 24h1v1h-1z"/><path fill="#E07538" d="M14 24h1v1h-1z"/><path fill="#88300C" d="M15 24h1v1h-1z"/><path fill="#DA7A34" d="M16 24h1v1h-1z"/><path fill="#D26C3B" d="M9 25h1v1H9z"/><path fill="#E07533" d="M10 25h1v1h-1z"/><path fill="#CE5B1C" d="M11 25h1v1h-1z"/><path fill="#381107" d="M12 25h1v1h-1z"/><path fill="#D96F2F" d="M13 25h1v1h-1z"/><path fill="#D15A25" d="M14 25h1v1h-1z"/><path fill="#CA5829" d="M15 25h1v1h-1z"/><path fill="#DF6D2E" d="M9 26h1v1H9zM10 26h1v1h-1zM11 26h1v1h-1z"/><path fill="#6B1E07" d="M12 26h1v1h-1z"/><path fill="#DA7131" d="M13 26h1v1h-1z"/><path fill="#C04014" d="M14 26h1v1h-1z"/><path fill="#C84E18" d="M15 26h1v1h-1z"/><path fill="#BB4D19" d="M9 27h1v1H9zM10 27h1v1h-1z"/><path fill="#DF6D2E" d="M11 27h1v1h-1z"/><path fill="#772509" d="M12 27h1v1h-1z"/><path fill="#DB7431" d="M13 27h1v1h-1z"/><path fill="#C84E18" d="M14 27h1v1h-1zM15 27h1v1h-1z"/><path fill="#BB4D19" d="M9 28h1v1H9zM10 28h1v1h-1z"/><path fill="#B94E18" d="M11 28h1v1h-1z"/><path fill="#781C05" d="M12 28h1v1h-1z"/><path fill="#E97D3A" d="M13 28h1v1h-1z"/><path fill="#DB6B26" d="M14 28h1v1h-1z"/><path fill="#C84E18" d="M15 28h1v1h-1z"/><path fill="#BB4D19" d="M10 29h1v1h-1z"/><path fill="#B94E18" d="M11 29h1v1h-1z"/><path fill="#821F05" d="M12 29h1v1h-1z"/><path fill="#E97D3A" d="M13 29h1v1h-1z"/><path fill="#DF6D2E" d="M14 29h1v1h-1z"/><path fill="#DF8649" d="M9 30h1v1H9z"/><path fill="#D06321" d="M10 30h1v1h-1z"/><path fill="#BB4D19" d="M11 30h1v1h-1z"/><path fill="#821F05" d="M12 30h1v1h-1z"/><path fill="#D97131" d="M13 30h1v1h-1z"/><path fill="#DF6D2E" d="M14 30h1v1h-1z"/><path fill="#DA7A34" d="M15 30h1v1h-1z"/><path fill="#DD7836" d="M10 31h1v1h-1z"/><path fill="#D06321" d="M11 31h1v1h-1z"/><path fill="#882508" d="M12 31h1v1h-1z"/><path fill="#D97131" d="M13 31h1v1h-1z"/><path fill="#BB4D19" d="M14 31h1v1h-1z"/><path fill="#E1905A" d="M9 32h1v1H9zM10 32h1v1h-1z"/><path fill="#DE7637" d="M11 32h1v1h-1z"/><path fill="#781804" d="M12 32h1v1h-1z"/><path fill="#D97131" d="M13 32h1v1h-1z"/><path fill="#BB4D19" d="M14 32h1v1h-1zM15 32h1v1h-1z"/><path fill="#E1905A" d="M10 33h1v1h-1z"/><path fill="#E0874D" d="M11 33h1v1h-1z"/><path fill="#781804" d="M12 33h1v1h-1z"/><path fill="#D46C2A" d="M13 33h1v1h-1z"/><path fill="#BB4D19" d="M14 33h1v1h-1z"/><path fill="#E1905A" d="M9 34h1v1H9z"/><path fill="#E39865" d="M10 34h1v1h-1z"/><path fill="#E1905A" d="M11 34h1v1h-1z"/><path fill="#781804" d="M12 34h1v1h-1z"/><path fill="#CF6522" d="M13 34h1v1h-1z"/><path fill="#BB4D19" d="M14 34h1v1h-1zM15 34h1v1h-1z"/><path fill="#E1905A" d="M10 35h1v1h-1zM11 35h1v1h-1z"/><path fill="#781804" d="M12 35h1v1h-1z"/><path fill="#E1905A" d="M13 35h1v1h-1z"/><path fill="#DE7637" d="M14 35h1v1h-1z"/><path fill="#E1905A" d="M9 36h1v1H9z"/><path fill="#DF8449" d="M10 36h1v1h-1z"/><path fill="#DE7637" d="M11 36h1v1h-1z"/><path fill="#781804" d="M12 36h1v1h-1z"/><path fill="#E1905A" d="M13 36h1v1h-1zM14 36h1v1h-1z"/><path fill="#BB4D19" d="M15 36h1v1h-1z"/><path fill="#DF8349" d="M10 37h1v1h-1z"/><path fill="#D25C1E" d="M11 37h1v1h-1z"/><path fill="#781804" d="M12 37h1v1h-1z"/><path fill="#DE7637" d="M13 37h1v1h-1z"/><path fill="#E1905A" d="M14 37h1v1h-1z"/><path fill="#DF8649" d="M9 38h1v1H9z"/><path fill="#DD7131" d="M10 38h1v1h-1z"/><path fill="#D25C1E" d="M11 38h1v1h-1z"/><path fill="#781804" d="M12 38h1v1h-1z"/><path fill="#D06320" d="M13 38h1v1h-1z"/><path fill="#DE7637" d="M14 38h1v1h-1z"/><path fill="#DA7A34" d="M15 38h1v1h-1z"/><path fill="#DD7E41" d="M10 39h1v1h-1z"/><path fill="#D25C1E" d="M11 39h1v1h-1z"/><path fill="#781804" d="M12 39h1v1h-1z"/><path fill="#D06320" d="M13 39h1v1h-1z"/><path fill="#DA7A34" d="M14 39h1v1h-1z"/><path fill="#E1905A" d="M9 40h1v1H9z"/><path fill="#DF6A2E" d="M10 40h1v1h-1z"/><path fill="#C04014" d="M11 40h1v1h-1z"/><path fill="#882508" d="M12 40h1v1h-1z"/><path fill="#D06320" d="M13 40h1v1h-1z"/><path fill="#DA7A34" d="M14 40h1v1h-1z"/><path fill="#BB4D19" d="M15 40h1v1h-1z"/><path fill="#DF6D2E" d="M10 41h1v1h-1z"/><path fill="#BE4516" d="M11 41h1v1h-1z"/><path fill="#821F05" d="M12 41h1v1h-1z"/><path fill="#C65F1F" d="M13 41h1v1h-1z"/><path fill="#DA7A34" d="M14 41h1v1h-1z"/><path fill="#E1905A" d="M9 42h1v1H9z"/><path fill="#DE712F" d="M10 42h1v1h-1z"/><path fill="#BB4D19" d="M11 42h1v1h-1z"/><path fill="#821F05" d="M12 42h1v1h-1z"/><path fill="#C65F1F" d="M13 42h1v1h-1z"/><path fill="#DA7A34" d="M14 42h1v1h-1z"/><path fill="#BB4D19" d="M15 42h1v1h-1z"/><path fill="#DF6D2E" d="M10 43h1v1h-1z"/><path fill="#BE4516" d="M11 43h1v1h-1z"/><path fill="#781A04" d="M12 43h1v1h-1z"/><path fill="#C65F1F" d="M13 43h1v1h-1z"/><path fill="#DA7A34" d="M14 43h1v1h-1z"/><path fill="#DE712F" d="M10 44h1v1h-1z"/><path fill="#BB4D19" d="M11 44h1v1h-1z"/><path fill="#711603" d="M12 44h1v1h-1z"/><path fill="#C65F1F" d="M13 44h1v1h-1z"/><path fill="#DA7A34" d="M14 44h1v1h-1z"/><path fill="#DE712F" d="M10 45h1v1h-1z"/><path fill="#BB4D19" d="M11 45h1v1h-1z"/><path fill="#762106" d="M12 45h1v1h-1z"/><path fill="#C65F1F" d="M13 45h1v1h-1z"/><path fill="#DA7A34" d="M14 45h1v1h-1z"/><path fill="#E07D43" d="M10 46h1v1h-1z"/><path fill="#BB4D19" d="M11 46h1v1h-1z"/><path fill="#762106" d="M12 46h1v1h-1z"/><path fill="#C65F1F" d="M13 46h1v1h-1z"/><path fill="#DA7A34" d="M14 46h1v1h-1z"/><path fill="#DF6A2E" d="M10 47h1v1h-1z"/><path fill="#C04014" d="M11 47h1v1h-1z"/><path fill="#7E280A" d="M12 47h1v1h-1z"/><path fill="#D06320" d="M13 47h1v1h-1z"/><path fill="#DA7A34" d="M14 47h1v1h-1z"/><path fill="#DF6D2E" d="M10 48h1v1h-1z"/><path fill="#BE4516" d="M11 48h1v1h-1z"/><path fill="#762106" d="M12 48h1v1h-1z"/><path fill="#C65F1F" d="M13 48h1v1h-1z"/><path fill="#DA7A34" d="M14 48h1v1h-1z"/><path fill="#E18750" d="M10 49h1v1h-1z"/><path fill="#BE4516" d="M11 49h1v1h-1z"/><path fill="#762106" d="M12 49h1v1h-1z"/><path fill="#C65F1F" d="M13 49h1v1h-1z"/><path fill="#DA7A34" d="M14 49h1v1h-1z"/><path fill="#E18750" d="M10 50h1v1h-1z"/><path fill="#BE4516" d="M11 50h1v1h-1z"/><path fill="#762106" d="M12 50h1v1h-1z"/><path fill="#C65F1F" d="M13 50h1v1h-1z"/><path fill="#DA7A34" d="M14 50h1v1h-1z"/><path fill="#E07D43" d="M10 51h1v1h-1z"/><path fill="#BE4516" d="M11 51h1v1h-1z"/><path fill="#6E1F06" d="M12 51h1v1h-1z"/><path fill="#C65F1F" d="M13 51h1v1h-1z"/><path fill="#DA7A34" d="M14 51h1v1h-1z"/><path fill="#E07D43" d="M10 52h1v1h-1z"/><path fill="#BB4D19" d="M11 52h1v1h-1z"/><path fill="#6A1E06" d="M12 52h1v1h-1z"/><path fill="#C65F1F" d="M13 52h1v1h-1z"/><path fill="#DA7A34" d="M14 52h1v1h-1z"/><path fill="#DF6D2E" d="M10 53h1v1h-1z"/><path fill="#C15017" d="M11 53h1v1h-1z"/><path fill="#6A1E06" d="M12 53h1v1h-1z"/><path fill="#A0360B" d="M13 53h1v1h-1z"/><path fill="#DA7A34" d="M14 53h1v1h-1z"/><path fill="#DE712F" d="M10 54h1v1h-1z"/><path fill="#DD6D29" d="M11 54h1v1h-1z"/><path fill="#6A1E06" d="M12 54h1v1h-1z"/><path fill="#A0360B" d="M13 54h1v1h-1z"/><path fill="#DA7A34" d="M14 54h1v1h-1z"/><path fill="#DE712F" d="M10 55h1v1h-1z"/><path fill="#C15017" d="M11 55h1v1h-1z"/><path fill="#671D06" d="M12 55h1v1h-1z"/><path fill="#821F05" d="M13 55h1v1h-1z"/><path fill="#A0360B" d="M14 55h1v1h-1z"/><path fill="#C15017" d="M10 56h1v1h-1z"/><path fill="#E17832" d="M11 56h1v1h-1zM12 56h1v1h-1zM13 56h1v1h-1z"/><path fill="#821F05" d="M14 56h1v1h-1z"/><path fill="#E17832" d="M5 57h1v1H5zM6 57h1v1H6z"/><path fill="#C86B2E" d="M8 57h1v1H8z"/><path fill="#E17832" d="M9 57h1v1H9zM10 57h1v1h-1z"/><path fill="#8F2A0A" d="M11 57h1v1h-1z"/><path fill="#671403" d="M12 57h1v1h-1z"/><path fill="#771C05" d="M13 57h1v1h-1z"/><path fill="#C86B2E" d="M14 57h1v1h-1zM15 57h1v1h-1zM16 57h1v1h-1zM18 57h1v1h-1z"/><path fill="#E17832" d="M19 57h1v1h-1z"/><path fill="#C86B2E" d="M4 58h1v1H4z"/><path fill="#AE5F2B" d="M7 58h1v1H7z"/><path fill="#8F2A0A" d="M10 58h1v1h-1z"/><path fill="#90320B" d="M11 58h1v1h-1z"/><path fill="#431407" d="M12 58h1v1h-1z"/><path fill="#701402" d="M13 58h1v1h-1z"/><path fill="#771C05" d="M14 58h1v1h-1z"/><path fill="#9B4E1B" d="M17 58h1v1h-1z"/><path fill="#C86B2E" d="M20 58h1v1h-1z"/><path fill="#9B4E1B" d="M7 59h1v1H7zM8 59h1v1H8z"/><path fill="#90320B" d="M10 59h1v1h-1z"/><path fill="#852107" d="M11 59h1v1h-1z"/><path fill="#411206" d="M12 59h1v1h-1z"/><path fill="#731603" d="M13 59h1v1h-1z"/><path fill="#7B1D05" d="M14 59h1v1h-1z"/><path fill="#9B4E1B" d="M16 59h1v1h-1zM17 59h1v1h-1zM6 60h1v1H6z"/><path fill="#B14413" d="M10 60h1v1h-1z"/><path fill="#852107" d="M11 60h1v1h-1z"/><path fill="#361007" d="M12 60h1v1h-1z"/><path fill="#711503" d="M13 60h1v1h-1z"/><path fill="#7F2107" d="M14 60h1v1h-1z"/><path fill="#9B4E1B" d="M18 60h1v1h-1z"/><path fill="#E17832" d="M5 61h1v1H5z"/><path fill="#CF5B1C" d="M9 61h1v1H9z"/><path fill="#7A1E06" d="M10 61h1v1h-1z"/><path fill="#6D1603" d="M11 61h1v1h-1z"/><path fill="#350F07" d="M12 61h1v1h-1z"/><path fill="#6D1202" d="M13 61h1v1h-1z"/><path fill="#721503" d="M14 61h1v1h-1z"/><path fill="#B65F21" d="M15 61h1v1h-1z"/><path fill="#E17832" d="M19 61h1v1h-1zM5 62h1v1H5z"/><path fill="#DF7B3A" d="M7 62h1v1H7z"/><path fill="#E0864A" d="M8 62h1v1H8z"/><path fill="#E2905A" d="M9 62h1v1H9z"/><path fill="#E0864A" d="M10 62h1v1h-1zM11 62h1v1h-1z"/><path fill="#DF7B3A" d="M12 62h1v1h-1z"/><path fill="#E0864A" d="M13 62h1v1h-1z"/><path fill="#E18C54" d="M14 62h1v1h-1z"/><path fill="#DF7B3A" d="M15 62h1v1h-1zM16 62h1v1h-1z"/><path fill="#B65F21" d="M17 62h1v1h-1z"/><path fill="#E17832" d="M19 62h1v1h-1zM5 63h1v1H5z"/><path fill="#CF5B1C" d="M7 63h1v1H7zM8 63h1v1H8zM9 63h1v1H9zM10 63h1v1h-1zM11 63h1v1h-1zM12 63h1v1h-1zM13 63h1v1h-1zM14 63h1v1h-1zM15 63h1v1h-1zM16 63h1v1h-1zM17 63h1v1h-1z"/><path fill="#C86B2E" d="M19 63h1v1h-1z"/><path fill="#DA7A34" d="M0 64h1v1H0z"/><path fill="#C86B2E" d="M4 64h1v1H4zM5 64h1v1H5z"/><path fill="#4E0C00" d="M8 64h1v1H8z"/><path fill="#2E0E08" d="M9 64h1v1H9zM10 64h1v1h-1zM11 64h1v1h-1zM12 64h1v1h-1zM13 64h1v1h-1zM14 64h1v1h-1zM15 64h1v1h-1z"/><path fill="#4E0C00" d="M16 64h1v1h-1z"/><path fill="#9B4E1B" d="M19 64h1v1h-1z"/><path fill="#C86B2E" d="M20 64h1v1h-1z"/><path fill="#DA7A34" d="M24 64h1v1h-1zM1 65h1v1H1zM2 65h1v1H2zM3 65h1v1H3z"/><path fill="#9B4E1B" d="M6 65h1v1H6z"/><path fill="#9E310E" d="M9 65h1v1H9z"/><path fill="#751F07" d="M10 65h1v1h-1z"/><path fill="#6A1A05" d="M11 65h1v1h-1z"/><path fill="#2E0E08" d="M12 65h1v1h-1z"/><path fill="#6B1303" d="M13 65h1v1h-1zM14 65h1v1h-1z"/><path fill="#771805" d="M15 65h1v1h-1z"/><path fill="#9B4E1B" d="M18 65h1v1h-1z"/><path fill="#DA7A34" d="M21 65h1v1h-1zM22 65h1v1h-1zM23 65h1v1h-1z"/><path fill="#E17832" d="M3 66h1v1H3z"/><path fill="#C86B2E" d="M7 66h1v1H7zM8 66h1v1H8z"/><path fill="#85280C" d="M9 66h1v1H9z"/><path fill="#752009" d="M10 66h1v1h-1z"/><path fill="#2E0E08" d="M11 66h1v1h-1zM12 66h1v1h-1zM13 66h1v1h-1z"/><path fill="#771905" d="M14 66h1v1h-1z"/><path fill="#8E250A" d="M15 66h1v1h-1z"/><path fill="#883012" d="M16 66h1v1h-1zM17 66h1v1h-1z"/><path fill="#9B4E1B" d="M21 66h1v1h-1zM4 67h1v1H4z"/><path fill="#DA7A34" d="M5 67h1v1H5zM6 67h1v1H6z"/><path fill="#DF7B3A" d="M7 67h1v1H7z"/><path fill="#B35A29" d="M8 67h1v1H8z"/><path fill="#A34E20" d="M9 67h1v1H9z"/><path fill="#2E0E08" d="M10 67h1v1h-1z"/><path fill="#CF1A00" d="M11 67h1v1h-1z"/><path fill="#AB1500" d="M12 67h1v1h-1z"/><path fill="#8F1300" d="M13 67h1v1h-1z"/><path fill="#2E0E08" d="M14 67h1v1h-1z"/><path fill="#78210A" d="M15 67h1v1h-1z"/><path fill="#8A2E11" d="M16 67h1v1h-1z"/><path fill="#DF7B3A" d="M17 67h1v1h-1zM18 67h1v1h-1zM19 67h1v1h-1z"/><path fill="#9B4E1B" d="M20 67h1v1h-1z"/><path fill="#DA7A34" d="M3 68h1v1H3z"/><path fill="#BB4D19" d="M4 68h1v1H4zM5 68h1v1H5zM6 68h1v1H6z"/><path fill="#B65F21" d="M7 68h1v1H7z"/><path fill="#4E0C00" d="M8 68h1v1H8zM9 68h1v1H9zM10 68h1v1h-1z"/><path fill="#8F1300" d="M11 68h1v1h-1z"/><path fill="#CF1A00" d="M12 68h1v1h-1z"/><path fill="#6C0E00" d="M13 68h1v1h-1z"/><path fill="#2E0E08" d="M14 68h1v1h-1zM15 68h1v1h-1zM16 68h1v1h-1z"/><path fill="#B65F21" d="M17 68h1v1h-1z"/><path fill="#BB4D19" d="M18 68h1v1h-1zM19 68h1v1h-1z"/><path fill="#915124" d="M20 68h1v1h-1z"/><path fill="#DA7A34" d="M21 68h1v1h-1z"/><path fill="#B8632A" d="M2 69h1v1H2z"/><path fill="#98491F" d="M3 69h1v1H3z"/><path fill="#6D2C12" d="M4 69h1v1H4zM5 69h1v1H5zM6 69h1v1H6z"/><path fill="#4E0C00" d="M7 69h1v1H7z"/><path fill="#B65F21" d="M8 69h1v1H8z"/><path fill="#BE6427" d="M9 69h1v1H9z"/><path fill="#4E0C00" d="M10 69h1v1h-1z"/><path fill="#8F1300" d="M11 69h1v1h-1z"/><path fill="#6C0E00" d="M12 69h1v1h-1zM13 69h1v1h-1z"/><path fill="#2E0E08" d="M14 69h1v1h-1z"/><path fill="#C15B22" d="M15 69h1v1h-1z"/><path fill="#B65F21" d="M16 69h1v1h-1z"/><path fill="#2E0E08" d="M17 69h1v1h-1z"/><path fill="#6D2C12" d="M18 69h1v1h-1zM19 69h1v1h-1zM20 69h1v1h-1z"/><path fill="#98491F" d="M21 69h1v1h-1z"/><path fill="#DA7A34" d="M22 69h1v1h-1zM1 70h1v1H1z"/><path fill="#98491F" d="M2 70h1v1H2z"/><path fill="#65240E" d="M3 70h1v1H3z"/><path fill="#6D2C12" d="M8 70h1v1H8z"/><path fill="#C86B2E" d="M9 70h1v1H9z"/><path fill="#BB4C0E" d="M10 70h1v1h-1z"/><path fill="#4E0C00" d="M11 70h1v1h-1z"/><path fill="#2E0E08" d="M12 70h1v1h-1zM13 70h1v1h-1z"/><path fill="#BB4C0E" d="M14 70h1v1h-1z"/><path fill="#C86B2E" d="M15 70h1v1h-1z"/><path fill="#6D2C12" d="M16 70h1v1h-1zM21 70h1v1h-1z"/><path fill="#98491F" d="M22 70h1v1h-1z"/><path fill="#DA7A34" d="M23 70h1v1h-1zM1 71h1v1H1z"/><path fill="#7D3415" d="M2 71h1v1H2z"/><path fill="#2E0E08" d="M3 71h1v1H3z"/><path fill="#5E1C0A" d="M4 71h1v1H4z"/><path fill="#6D2C12" d="M9 71h1v1H9z"/><path fill="#C86B2E" d="M10 71h1v1h-1z"/><path fill="#9E4318" d="M11 71h1v1h-1z"/><path fill="#4E0C00" d="M12 71h1v1h-1z"/><path fill="#C15B22" d="M13 71h1v1h-1z"/><path fill="#C86B2E" d="M14 71h1v1h-1z"/><path fill="#6D2C12" d="M15 71h1v1h-1z"/><path fill="#5A1807" d="M20 71h1v1h-1z"/><path fill="#2E0E08" d="M21 71h1v1h-1z"/><path fill="#7D3415" d="M22 71h1v1h-1z"/><path fill="#915124" d="M23 71h1v1h-1z"/><path fill="#DA7A34" d="M1 72h1v1H1z"/><path fill="#B65F21" d="M2 72h1v1H2z"/><path fill="#5E1C0A" d="M3 72h1v1H3z"/><path fill="#DA7A34" d="M4 72h1v1H4z"/><path fill="#64230D" d="M10 72h1v1h-1z"/><path fill="#72290C" d="M11 72h1v1h-1z"/><path fill="#2E0E08" d="M12 72h1v1h-1z"/><path fill="#813510" d="M13 72h1v1h-1z"/><path fill="#64230D" d="M14 72h1v1h-1z"/><path fill="#BE6427" d="M20 72h1v1h-1z"/><path fill="#5A1807" d="M21 72h1v1h-1z"/><path fill="#BE6427" d="M22 72h1v1h-1z"/><path fill="#C5692C" d="M23 72h1v1h-1z"/><path fill="#C3672A" d="M2 73h1v1H2z"/><path fill="#DA7A34" d="M3 73h1v1H3z"/><path fill="#4E0C00" d="M11 73h1v1h-1z"/><path fill="#2E0E08" d="M12 73h1v1h-1zM13 73h1v1h-1z"/><path fill="#C5692C" d="M21 73h1v1h-1zM22 73h1v1h-1z"/><path fill="#BB4D19" d="M10 74h1v1h-1z"/><path fill="#DF7B3A" d="M11 74h1v1h-1z"/><path fill="#E18C54" d="M12 74h1v1h-1z"/><path fill="#DF7B3A" d="M13 74h1v1h-1z"/><path fill="#B65F21" d="M14 74h1v1h-1zM11 75h1v1h-1z"/><path fill="#BB4C0E" d="M12 75h1v1h-1zM13 75h1v1h-1z"/><path fill="#2E0E08" d="M11 76h1v1h-1zM12 76h1v1h-1zM13 76h1v1h-1z"/><path fill="#7A1905" d="M11 77h1v1h-1z"/><path fill="#2E0E08" d="M12 77h1v1h-1z"/><path fill="#741604" d="M13 77h1v1h-1z"/><path fill="#80210A" d="M11 78h1v1h-1z"/><path fill="#2E0E08" d="M12 78h1v1h-1z"/><path fill="#7A1903" d="M13 78h1v1h-1z"/><path fill="#9C3B18" d="M11 79h1v1h-1z"/><path fill="#4E0C00" d="M12 79h1v1h-1z"/><path fill="#7A1903" d="M13 79h1v1h-1z"/><path fill="#B65F21" d="M11 80h1v1h-1z"/><path fill="#4E0C00" d="M12 80h1v1h-1z"/><path fill="#741602" d="M13 80h1v1h-1z"/><path fill="#DF7B3A" d="M11 81h1v1h-1z"/><path fill="#4E0C00" d="M12 81h1v1h-1z"/><path fill="#8D2806" d="M13 81h1v1h-1z"/><path fill="#DF7B3A" d="M11 82h1v1h-1z"/><path fill="#4E0C00" d="M12 82h1v1h-1z"/><path fill="#8D2806" d="M13 82h1v1h-1z"/><path fill="#B65F21" d="M11 83h1v1h-1z"/><path fill="#4E0C00" d="M12 83h1v1h-1z"/><path fill="#7F2005" d="M13 83h1v1h-1z"/><path fill="#DF7B3A" d="M11 84h1v1h-1z"/><path fill="#4E0C00" d="M12 84h1v1h-1z"/><path fill="#8D2806" d="M13 84h1v1h-1z"/><path fill="#DF7B3A" d="M11 85h1v1h-1z"/><path fill="#4E0C00" d="M12 85h1v1h-1z"/><path fill="#BB4C0E" d="M13 85h1v1h-1z"/><path fill="#DF7B3A" d="M11 86h1v1h-1z"/><path fill="#4E0C00" d="M12 86h1v1h-1z"/><path fill="#BB4C0E" d="M13 86h1v1h-1z"/><path fill="#DF7B3A" d="M11 87h1v1h-1z"/><path fill="#2E0E08" d="M12 87h1v1h-1z"/><path fill="#BB4C0E" d="M13 87h1v1h-1z"/><path fill="#B65F21" d="M11 88h1v1h-1z"/><path fill="#2E0E08" d="M12 88h1v1h-1z"/><path fill="#9A390A" d="M13 88h1v1h-1z"/><path fill="#2E0E08" d="M10 89h1v1h-1z"/><path fill="#DF7B3A" d="M11 89h1v1h-1z"/><path fill="#2E0E08" d="M12 89h1v1h-1z"/><path fill="#BB4C0E" d="M13 89h1v1h-1z"/><path fill="#2E0E08" d="M14 89h1v1h-1z"/><path fill="#B65F21" d="M10 90h1v1h-1z"/><path fill="#2E0E08" d="M11 90h1v1h-1zM12 90h1v1h-1zM13 90h1v1h-1z"/><path fill="#B65F21" d="M14 90h1v1h-1zM11 91h1v1h-1zM12 91h1v1h-1zM13 91h1v1h-1zM10 92h1v1h-1zM12 92h1v1h-1zM14 92h1v1h-1z"/></svg>