<svg xmlns="http://www.w3.org/2000/svg" width="35" height="90" shape-rendering="crispEdges"><path fill="#34383F" d="M12 0h1v1h-1zM13 0h1v1h-1zM14 0h1v1h-1zM15 0h1v1h-1zM16 0h1v1h-1zM17 0h1v1h-1zM11 1h1v1h-1z"/><path fill="#15181D" d="M12 1h1v1h-1zM13 1h1v1h-1zM14 1h1v1h-1z"/><path fill="#181C21" d="M15 1h1v1h-1zM16 1h1v1h-1z"/><path fill="#21252B" d="M17 1h1v1h-1z"/><path fill="#2C3239" d="M18 1h1v1h-1z"/><path fill="#343941" d="M19 1h1v1h-1z"/><path fill="#34383F" d="M10 2h1v1h-1z"/><path fill="#15181D" d="M11 2h1v1h-1zM12 2h1v1h-1z"/><path fill="#14171C" d="M13 2h1v1h-1z"/><path fill="#14171B" d="M14 2h1v1h-1z"/><path fill="#181C21" d="M17 2h1v1h-1z"/><path fill="#1E2228" d="M18 2h1v1h-1z"/><path fill="#2B3037" d="M19 2h1v1h-1z"/><path fill="#353B46" d="M20 2h1v1h-1z"/><path fill="#34383F" d="M10 3h1v1h-1z"/><path fill="#15181D" d="M11 3h1v1h-1zM12 3h1v1h-1z"/><path fill="#14161B" d="M13 3h1v1h-1z"/><path fill="#181C21" d="M18 3h1v1h-1z"/><path fill="#1C1F25" d="M19 3h1v1h-1z"/><path fill="#24292F" d="M20 3h1v1h-1z"/><path fill="#30353C" d="M21 3h1v1h-1z"/><path fill="#34383F" d="M9 4h1v1H9z"/><path fill="#1B1F24" d="M10 4h1v1h-1z"/><path fill="#14171B" d="M11 4h1v1h-1zM12 4h1v1h-1z"/><path fill="#14171C" d="M13 4h1v1h-1z"/><path fill="#161A1E" d="M18 4h1v1h-1z"/><path fill="#171B1F" d="M19 4h1v1h-1z"/><path fill="#1B1F24" d="M20 4h1v1h-1z"/><path fill="#282E35" d="M21 4h1v1h-1z"/><path fill="#353B4B" d="M22 4h1v1h-1z"/><path fill="#34383F" d="M9 5h1v1H9z"/><path fill="#111011" d="M10 5h1v1h-1z"/><path fill="#14171B" d="M12 5h1v1h-1z"/><path fill="#15181D" d="M13 5h1v1h-1z"/><path fill="#14171B" d="M14 5h1v1h-1zM17 5h1v1h-1zM18 5h1v1h-1z"/><path fill="#161A1E" d="M19 5h1v1h-1z"/><path fill="#171B1F" d="M20 5h1v1h-1z"/><path fill="#1E2329" d="M21 5h1v1h-1z"/><path fill="#272B32" d="M22 5h1v1h-1z"/><path fill="#34383F" d="M9 6h1v1H9z"/><path fill="#111011" d="M10 6h1v1h-1zM11 6h1v1h-1z"/><path fill="#14171B" d="M12 6h1v1h-1zM13 6h1v1h-1zM14 6h1v1h-1zM15 6h1v1h-1zM16 6h1v1h-1zM17 6h1v1h-1zM18 6h1v1h-1z"/><path fill="#1B1E23" d="M21 6h1v1h-1z"/><path fill="#1F2329" d="M22 6h1v1h-1z"/><path fill="#32373E" d="M23 6h1v1h-1z"/><path fill="#34383F" d="M9 7h1v1H9z"/><path fill="#14171B" d="M10 7h1v1h-1zM11 7h1v1h-1zM16 7h1v1h-1zM17 7h1v1h-1zM18 7h1v1h-1zM21 7h1v1h-1z"/><path fill="#1F2329" d="M22 7h1v1h-1z"/><path fill="#2C3238" d="M23 7h1v1h-1z"/><path fill="#1B1F24" d="M9 8h1v1H9z"/><path fill="#14171B" d="M10 8h1v1h-1zM17 8h1v1h-1zM18 8h1v1h-1zM19 8h1v1h-1zM20 8h1v1h-1zM21 8h1v1h-1z"/><path fill="#1C1F25" d="M22 8h1v1h-1z"/><path fill="#23282E" d="M23 8h1v1h-1z"/><path fill="#393F5C" d="M24 8h1v1h-1z"/><path fill="#1B1F24" d="M9 9h1v1H9z"/><path fill="#171B1F" d="M18 9h1v1h-1z"/><path fill="#14171B" d="M19 9h1v1h-1zM20 9h1v1h-1zM21 9h1v1h-1z"/><path fill="#1B1E23" d="M22 9h1v1h-1z"/><path fill="#22272C" d="M23 9h1v1h-1z"/><path fill="#383D51" d="M24 9h1v1h-1z"/><path fill="#131112" d="M9 10h1v1H9z"/><path fill="#171B1F" d="M19 10h1v1h-1z"/><path fill="#14171B" d="M20 10h1v1h-1zM21 10h1v1h-1z"/><path fill="#343941" d="M24 10h1v1h-1z"/><path fill="#131112" d="M9 11h1v1H9z"/><path fill="#171B1F" d="M19 11h1v1h-1z"/><path fill="#14171B" d="M20 11h1v1h-1zM21 11h1v1h-1z"/><path fill="#2C3138" d="M24 11h1v1h-1z"/><path fill="#131112" d="M9 12h1v1H9z"/><path fill="#171B1F" d="M20 12h1v1h-1z"/><path fill="#14171B" d="M21 12h1v1h-1z"/><path fill="#161A1E" d="M22 12h1v1h-1z"/><path fill="#171B1F" d="M23 12h1v1h-1z"/><path fill="#1B1E23" d="M24 12h1v1h-1z"/><path fill="#343941" d="M25 12h1v1h-1z"/><path fill="#131112" d="M9 13h1v1H9z"/><path fill="#171B1F" d="M20 13h1v1h-1z"/><path fill="#14171B" d="M21 13h1v1h-1z"/><path fill="#171B1F" d="M22 13h1v1h-1zM23 13h1v1h-1z"/><path fill="#1B1F24" d="M24 13h1v1h-1z"/><path fill="#2E343B" d="M25 13h1v1h-1z"/><path fill="#FBB036" d="M5 14h1v1H5z" opacity=".012"/><path fill="#FBB036" d="M6 14h1v1H6z" opacity=".016"/><path fill="#FBB036" d="M7 14h1v1H7z" opacity=".031"/><path fill="#1D1713" d="M8 14h1v1H8z"/><path fill="#131112" d="M9 14h1v1H9z"/><path fill="#1D1713" d="M10 14h1v1h-1z"/><path fill="#FBB036" d="M11 14h1v1h-1z" opacity=".031"/><path fill="#FBB036" d="M12 14h1v1h-1zM13 14h1v1h-1z" opacity=".012"/><path fill="#FBB036" d="M14 14h1v1h-1z" opacity=".004"/><path fill="#1B1E23" d="M20 14h1v1h-1z"/><path fill="#14171B" d="M21 14h1v1h-1z"/><path fill="#171B1F" d="M22 14h1v1h-1zM23 14h1v1h-1z"/><path fill="#1B1F24" d="M24 14h1v1h-1z"/><path fill="#2E3439" d="M25 14h1v1h-1z"/><path fill="#FBB036" d="M2 15h1v1H2z" opacity=".004"/><path fill="#FBB036" d="M5 15h1v1H5z" opacity=".035"/><path fill="#FBB036" d="M6 15h1v1H6z" opacity=".051"/><path fill="#FBB036" d="M7 15h1v1H7z" opacity=".063"/><path fill="#FBB036" d="M8 15h1v1H8z" opacity=".075"/><path fill="#131112" d="M9 15h1v1H9z"/><path fill="#FBB036" d="M10 15h1v1h-1z" opacity=".075"/><path fill="#FBB036" d="M11 15h1v1h-1z" opacity=".055"/><path fill="#FBB036" d="M12 15h1v1h-1z" opacity=".043"/><path fill="#FBB036" d="M13 15h1v1h-1z" opacity=".024"/><path fill="#FBB036" d="M14 15h1v1h-1z" opacity=".016"/><path fill="#FBB036" d="M15 15h1v1h-1zM16 15h1v1h-1z" opacity=".004"/><path fill="#1B1E23" d="M21 15h1v1h-1z"/><path fill="#161A1E" d="M22 15h1v1h-1z"/><path fill="#171B1F" d="M23 15h1v1h-1z"/><path fill="#1B1F24" d="M24 15h1v1h-1z"/><path fill="#22272C" d="M25 15h1v1h-1z"/><path fill="#FBB036" d="M2 16h1v1H2z" opacity=".016"/><path fill="#FBB036" d="M3 16h1v1H3z" opacity=".027"/><path fill="#FBB036" d="M4 16h1v1H4z" opacity=".047"/><path fill="#FBB036" d="M5 16h1v1H5z" opacity=".051"/><path fill="#FBB036" d="M6 16h1v1H6zM7 16h1v1H7z" opacity=".059"/><path fill="#FBB036" d="M8 16h1v1H8z" opacity=".063"/><path fill="#12140E" d="M9 16h1v1H9z"/><path fill="#FBB036" d="M10 16h1v1h-1z" opacity=".063"/><path fill="#FBB036" d="M11 16h1v1h-1z" opacity=".059"/><path fill="#FBB036" d="M12 16h1v1h-1z" opacity=".051"/><path fill="#FBB036" d="M13 16h1v1h-1z" opacity=".035"/><path fill="#FBB036" d="M14 16h1v1h-1z" opacity=".027"/><path fill="#FBB036" d="M15 16h1v1h-1z" opacity=".02"/><path fill="#FBB036" d="M16 16h1v1h-1z" opacity=".012"/><path fill="#1B1E23" d="M21 16h1v1h-1z"/><path fill="#161A1E" d="M22 16h1v1h-1zM23 16h1v1h-1z"/><path fill="#1D2125" d="M24 16h1v1h-1z"/><path fill="#22272C" d="M25 16h1v1h-1z"/><path fill="#FBB036" d="M2 17h1v1H2z" opacity=".027"/><path fill="#FBB036" d="M3 17h1v1H3z" opacity=".047"/><path fill="#FBB036" d="M4 17h1v1H4z" opacity=".055"/><path fill="#FBB036" d="M5 17h1v1H5zM6 17h1v1H6z" opacity=".063"/><path fill="#FBB036" d="M7 17h1v1H7z" opacity=".078"/><path fill="#19180F" d="M8 17h1v1H8z"/><path fill="#1E1B10" d="M9 17h1v1H9zM10 17h1v1h-1z"/><path fill="#FBB036" d="M11 17h1v1h-1z" opacity=".094"/><path fill="#FBB036" d="M12 17h1v1h-1z" opacity=".078"/><path fill="#FBB036" d="M13 17h1v1h-1z" opacity=".055"/><path fill="#FBB036" d="M14 17h1v1h-1z" opacity=".047"/><path fill="#FBB036" d="M15 17h1v1h-1z" opacity=".031"/><path fill="#FBB036" d="M16 17h1v1h-1z" opacity=".035"/><path fill="#FBB036" d="M17 17h1v1h-1z" opacity=".004"/><path fill="#1B1E23" d="M21 17h1v1h-1z"/><path fill="#161A1E" d="M22 17h1v1h-1z"/><path fill="#171B1F" d="M23 17h1v1h-1z"/><path fill="#1B1E23" d="M24 17h1v1h-1z"/><path fill="#1E2227" d="M25 17h1v1h-1z"/><path fill="#FBB036" d="M2 18h1v1H2z" opacity=".031"/><path fill="#FBB036" d="M3 18h1v1H3z" opacity=".051"/><path fill="#FBB036" d="M4 18h1v1H4zM5 18h1v1H5z" opacity=".063"/><path fill="#FBB036" d="M6 18h1v1H6z" opacity=".078"/><path fill="#211D11" d="M7 18h1v1H7z"/><path fill="#2D2613" d="M8 18h1v1H8z"/><path fill="#352B14" d="M9 18h1v1H9z"/><path fill="#312914" d="M10 18h1v1h-1z"/><path fill="#2A2312" d="M11 18h1v1h-1z"/><path fill="#FBB036" d="M12 18h1v1h-1z" opacity=".114"/><path fill="#FBB036" d="M13 18h1v1h-1z" opacity=".078"/><path fill="#FBB036" d="M14 18h1v1h-1z" opacity=".047"/><path fill="#FBB036" d="M15 18h1v1h-1z" opacity=".039"/><path fill="#FBB036" d="M16 18h1v1h-1z" opacity=".024"/><path fill="#FBB036" d="M17 18h1v1h-1z" opacity=".012"/><path fill="#1B1E23" d="M21 18h1v1h-1z"/><path fill="#14171B" d="M22 18h1v1h-1z"/><path fill="#171B1F" d="M23 18h1v1h-1z"/><path fill="#1B1F24" d="M24 18h1v1h-1z"/><path fill="#21242B" d="M25 18h1v1h-1z"/><path fill="#FBB036" d="M0 19h1v1H0z" opacity=".016"/><path fill="#FBB036" d="M1 19h1v1H1z" opacity=".027"/><path fill="#FBB036" d="M2 19h1v1H2z" opacity=".039"/><path fill="#FBB036" d="M3 19h1v1H3z" opacity=".055"/><path fill="#FBB036" d="M4 19h1v1H4z" opacity=".075"/><path fill="#FBB036" d="M5 19h1v1H5z" opacity=".094"/><path fill="#282212" d="M6 19h1v1H6z"/><path fill="#2A2312" d="M7 19h1v1H7z"/><path fill="#5C451B" d="M8 19h1v1H8z"/><path fill="#6A4F1D" d="M9 19h1v1H9z"/><path fill="#5F471B" d="M10 19h1v1h-1z"/><path fill="#2A2312" d="M11 19h1v1h-1z"/><path fill="#2D2613" d="M12 19h1v1h-1z"/><path fill="#FBB036" d="M13 19h1v1h-1z" opacity=".114"/><path fill="#FBB036" d="M14 19h1v1h-1z" opacity=".078"/><path fill="#FBB036" d="M15 19h1v1h-1z" opacity=".039"/><path fill="#FBB036" d="M16 19h1v1h-1z" opacity=".031"/><path fill="#FBB036" d="M17 19h1v1h-1z" opacity=".02"/><path fill="#FBB036" d="M18 19h1v1h-1z" opacity=".004"/><path fill="#88692F" d="M20 19h1v1h-1z" opacity=".012"/><path fill="#1B1E23" d="M21 19h1v1h-1z"/><path fill="#14171B" d="M22 19h1v1h-1z"/><path fill="#171B1F" d="M23 19h1v1h-1z"/><path fill="#1B1F24" d="M24 19h1v1h-1z"/><path fill="#21242B" d="M25 19h1v1h-1z"/><path fill="#FAAF35" d="M0 20h1v1H0z" opacity=".024"/><path fill="#FBB036" d="M1 20h1v1H1zM2 20h1v1H2z" opacity=".043"/><path fill="#FBB036" d="M3 20h1v1H3z" opacity=".063"/><path fill="#FBB036" d="M4 20h1v1H4z" opacity=".078"/><path fill="#FBB036" d="M5 20h1v1H5z" opacity=".153"/><path fill="#483817" d="M6 20h1v1H6z"/><path fill="#2A2312" d="M7 20h1v1H7z"/><path fill="#926924" d="M8 20h1v1H8z"/><path fill="#A37527" d="M9 20h1v1H9z"/><path fill="#926924" d="M10 20h1v1h-1z"/><path fill="#2A2312" d="M11 20h1v1h-1z"/><path fill="#473717" d="M12 20h1v1h-1z"/><path fill="#FBB036" d="M13 20h1v1h-1z" opacity=".176"/><path fill="#FBB036" d="M14 20h1v1h-1z" opacity=".114"/><path fill="#FBB036" d="M15 20h1v1h-1z" opacity=".067"/><path fill="#FBB036" d="M16 20h1v1h-1z" opacity=".047"/><path fill="#FBB036" d="M17 20h1v1h-1z" opacity=".027"/><path fill="#FBB036" d="M18 20h1v1h-1z" opacity=".016"/><path fill="#E8A333" d="M19 20h1v1h-1z" opacity=".012"/><path fill="#62522E" d="M20 20h1v1h-1z" opacity=".016"/><path fill="#1B1E23" d="M21 20h1v1h-1z"/><path fill="#14171B" d="M22 20h1v1h-1z"/><path fill="#161A1E" d="M23 20h1v1h-1z"/><path fill="#1B1F24" d="M24 20h1v1h-1z"/><path fill="#22272C" d="M25 20h1v1h-1z"/><path fill="#FAAF35" d="M0 21h1v1H0z" opacity=".024"/><path fill="#FBB036" d="M1 21h1v1H1z" opacity=".047"/><path fill="#FBB036" d="M2 21h1v1H2z" opacity=".055"/><path fill="#FBB036" d="M3 21h1v1H3z" opacity=".063"/><path fill="#FBB036" d="M4 21h1v1H4z" opacity=".078"/><path fill="#FBB036" d="M5 21h1v1H5z" opacity=".114"/><path fill="#352B14" d="M6 21h1v1H6z"/><path fill="#2A2312" d="M7 21h1v1H7z"/><path fill="#825F21" d="M8 21h1v1H8z"/><path fill="#976D25" d="M9 21h1v1H9z"/><path fill="#866222" d="M10 21h1v1h-1z"/><path fill="#2A2312" d="M11 21h1v1h-1z"/><path fill="#3F3216" d="M12 21h1v1h-1z"/><path fill="#FBB036" d="M13 21h1v1h-1z" opacity=".165"/><path fill="#FBB036" d="M14 21h1v1h-1z" opacity=".114"/><path fill="#FBB036" d="M15 21h1v1h-1z" opacity=".078"/><path fill="#FBB036" d="M16 21h1v1h-1z" opacity=".063"/><path fill="#FBB036" d="M17 21h1v1h-1z" opacity=".043"/><path fill="#FAAF35" d="M18 21h1v1h-1z" opacity=".024"/><path fill="#F4AB34" d="M19 21h1v1h-1z" opacity=".008"/><path fill="#6E5A2F" d="M20 21h1v1h-1z" opacity=".031"/><path fill="#1B1E23" d="M22 21h1v1h-1z"/><path fill="#14171B" d="M23 21h1v1h-1z"/><path fill="#171B1F" d="M24 21h1v1h-1z"/><path fill="#22272C" d="M25 21h1v1h-1z"/><path fill="#FBB036" d="M0 22h1v1H0z" opacity=".035"/><path fill="#FBB036" d="M1 22h1v1H1z" opacity=".039"/><path fill="#FBB036" d="M2 22h1v1H2z" opacity=".055"/><path fill="#FBB036" d="M3 22h1v1H3z" opacity=".071"/><path fill="#FBB036" d="M4 22h1v1H4z" opacity=".094"/><path fill="#FBB036" d="M5 22h1v1H5z" opacity=".173"/><path fill="#544019" d="M6 22h1v1H6z"/><path fill="#2A2312" d="M7 22h1v1H7z"/><path fill="#BA842B" d="M8 22h1v1H8z"/><path fill="#F4B754" d="M9 22h1v1H9z"/><path fill="#BE872B" d="M10 22h1v1h-1z"/><path fill="#2A2312" d="M11 22h1v1h-1z"/><path fill="#5A441A" d="M12 22h1v1h-1z"/><path fill="#FBB036" d="M13 22h1v1h-1z" opacity=".224"/><path fill="#FBB036" d="M14 22h1v1h-1z" opacity=".145"/><path fill="#FBB036" d="M15 22h1v1h-1z" opacity=".094"/><path fill="#FBB036" d="M16 22h1v1h-1z" opacity=".063"/><path fill="#FBB036" d="M17 22h1v1h-1z" opacity=".047"/><path fill="#FAAF35" d="M18 22h1v1h-1z" opacity=".024"/><path fill="#F9AF35" d="M19 22h1v1h-1z" opacity=".008"/><path fill="#50482E" d="M20 22h1v1h-1z" opacity=".035"/><path fill="#1B1E23" d="M22 22h1v1h-1z"/><path fill="#14171B" d="M23 22h1v1h-1z"/><path fill="#161A1E" d="M24 22h1v1h-1z"/><path fill="#1D2127" d="M25 22h1v1h-1z"/><path fill="#FBB036" d="M0 23h1v1H0z" opacity=".02"/><path fill="#FBB036" d="M1 23h1v1H1z" opacity=".039"/><path fill="#FBB036" d="M2 23h1v1H2z" opacity=".055"/><path fill="#FBB036" d="M3 23h1v1H3z" opacity=".075"/><path fill="#FBB036" d="M4 23h1v1H4z" opacity=".114"/><path fill="#FBB036" d="M5 23h1v1H5z" opacity=".216"/><path fill="#6E511E" d="M6 23h1v1H6z"/><path fill="#2A2312" d="M7 23h1v1H7z"/><path fill="#D6972F" d="M8 23h1v1H8z"/><path fill="#EBC17A" d="M9 23h1v1H9z"/><path fill="#DA9A30" d="M10 23h1v1h-1z"/><path fill="#2A2312" d="M11 23h1v1h-1z"/><path fill="#73541F" d="M12 23h1v1h-1z"/><path fill="#FBB036" d="M13 23h1v1h-1z" opacity=".267"/><path fill="#FBB036" d="M14 23h1v1h-1z" opacity=".165"/><path fill="#FBB036" d="M15 23h1v1h-1z" opacity=".114"/><path fill="#FBB036" d="M16 23h1v1h-1z" opacity=".063"/><path fill="#FBB036" d="M17 23h1v1h-1z" opacity=".039"/><path fill="#FBB036" d="M18 23h1v1h-1z" opacity=".035"/><path fill="#1B1E23" d="M22 23h1v1h-1z"/><path fill="#14171B" d="M23 23h1v1h-1zM24 23h1v1h-1z"/><path fill="#1B1F24" d="M25 23h1v1h-1z"/><path fill="#FBB036" d="M0 24h1v1H0z" opacity=".016"/><path fill="#FBB036" d="M1 24h1v1H1z" opacity=".035"/><path fill="#FBB036" d="M2 24h1v1H2z" opacity=".055"/><path fill="#FBB036" d="M3 24h1v1H3z" opacity=".075"/><path fill="#FBB036" d="M4 24h1v1H4z" opacity=".114"/><path fill="#FBB036" d="M5 24h1v1H5z" opacity=".243"/><path fill="#76561F" d="M6 24h1v1H6z"/><path fill="#2A2312" d="M7 24h1v1H7z"/><path fill="#D89930" d="M8 24h1v1H8z"/><path fill="#EBC17A" d="M9 24h1v1H9z"/><path fill="#DB9B30" d="M10 24h1v1h-1z"/><path fill="#2A2312" d="M11 24h1v1h-1z"/><path fill="#76561F" d="M12 24h1v1h-1z"/><path fill="#FBB036" d="M13 24h1v1h-1z" opacity=".282"/><path fill="#FBB036" d="M14 24h1v1h-1z" opacity=".165"/><path fill="#FBB036" d="M15 24h1v1h-1z" opacity=".114"/><path fill="#FBB036" d="M16 24h1v1h-1z" opacity=".055"/><path fill="#FBB036" d="M17 24h1v1h-1z" opacity=".039"/><path fill="#FBB036" d="M18 24h1v1h-1z" opacity=".031"/><path fill="#FBB036" d="M19 24h1v1h-1z" opacity=".004"/><path fill="#1E2328" d="M22 24h1v1h-1z"/><path fill="#14171B" d="M23 24h1v1h-1zM24 24h1v1h-1z"/><path fill="#1B1E23" d="M25 24h1v1h-1z"/><path fill="#FBB036" d="M0 25h1v1H0z" opacity=".012"/><path fill="#FBB036" d="M1 25h1v1H1z" opacity=".027"/><path fill="#FBB036" d="M2 25h1v1H2z" opacity=".051"/><path fill="#FBB036" d="M3 25h1v1H3z" opacity=".071"/><path fill="#FBB036" d="M4 25h1v1H4z" opacity=".094"/><path fill="#FBB036" d="M5 25h1v1H5z" opacity=".212"/><path fill="#664C1C" d="M6 25h1v1H6z"/><path fill="#2A2312" d="M7 25h1v1H7z"/><path fill="#C38A2C" d="M8 25h1v1H8z"/><path fill="#D3952F" d="M9 25h1v1H9z"/><path fill="#C48B2C" d="M10 25h1v1h-1z"/><path fill="#2A2312" d="M11 25h1v1h-1z"/><path fill="#62491C" d="M12 25h1v1h-1z"/><path fill="#FBB036" d="M13 25h1v1h-1z" opacity=".239"/><path fill="#FBB036" d="M14 25h1v1h-1z" opacity=".145"/><path fill="#FBB036" d="M15 25h1v1h-1z" opacity=".094"/><path fill="#FBB036" d="M16 25h1v1h-1z" opacity=".055"/><path fill="#FBB036" d="M17 25h1v1h-1z" opacity=".035"/><path fill="#F9AF35" d="M18 25h1v1h-1z" opacity=".02"/><path fill="#F6B33C" d="M19 25h1v1h-1z" opacity=".008"/><path fill="#EFBE4E" d="M20 25h1v1h-1z" opacity=".004"/><path fill="#E7E681" d="M21 25h1v1h-1z" opacity=".012"/><path fill="#1E2328" d="M22 25h1v1h-1z"/><path fill="#14171B" d="M23 25h1v1h-1zM24 25h1v1h-1z"/><path fill="#1D2125" d="M25 25h1v1h-1z"/><path fill="#FBB036" d="M0 26h1v1H0z" opacity=".008"/><path fill="#FBB036" d="M1 26h1v1H1z" opacity=".024"/><path fill="#FBB036" d="M2 26h1v1H2z" opacity=".043"/><path fill="#FBB036" d="M3 26h1v1H3z" opacity=".063"/><path fill="#FBB036" d="M4 26h1v1H4z" opacity=".078"/><path fill="#FBB036" d="M5 26h1v1H5z" opacity=".153"/><path fill="#483817" d="M6 26h1v1H6z"/><path fill="#2A2312" d="M7 26h1v1H7z"/><path fill="#926924" d="M8 26h1v1H8z"/><path fill="#A37527" d="M9 26h1v1H9z"/><path fill="#926924" d="M10 26h1v1h-1z"/><path fill="#2A2312" d="M11 26h1v1h-1z"/><path fill="#473717" d="M12 26h1v1h-1z"/><path fill="#FBB036" d="M13 26h1v1h-1z" opacity=".176"/><path fill="#FBB036" d="M14 26h1v1h-1z" opacity=".114"/><path fill="#FBB036" d="M15 26h1v1h-1z" opacity=".067"/><path fill="#FBB036" d="M16 26h1v1h-1z" opacity=".047"/><path fill="#FBB036" d="M17 26h1v1h-1z" opacity=".027"/><path fill="#F9AF35" d="M18 26h1v1h-1z" opacity=".012"/><path fill="#F3B13B" d="M19 26h1v1h-1z" opacity=".004"/><path fill="#EBC254" d="M20 26h1v1h-1z" opacity=".004"/><path fill="#E7E681" d="M21 26h1v1h-1z" opacity=".012"/><path fill="#1E2328" d="M22 26h1v1h-1z"/><path fill="#14171B" d="M23 26h1v1h-1zM24 26h1v1h-1z"/><path fill="#1B1E23" d="M25 26h1v1h-1z"/><path fill="#FBB036" d="M0 27h1v1H0z" opacity=".004"/><path fill="#FBB036" d="M1 27h1v1H1z" opacity=".02"/><path fill="#FBB036" d="M2 27h1v1H2z" opacity=".039"/><path fill="#FBB036" d="M3 27h1v1H3z" opacity=".055"/><path fill="#FBB036" d="M4 27h1v1H4z" opacity=".075"/><path fill="#FBB036" d="M5 27h1v1H5z" opacity=".094"/><path fill="#282212" d="M6 27h1v1H6z"/><path fill="#2A2312" d="M7 27h1v1H7z"/><path fill="#5C451B" d="M8 27h1v1H8z"/><path fill="#6A4F1D" d="M9 27h1v1H9z"/><path fill="#5F471B" d="M10 27h1v1h-1z"/><path fill="#2A2312" d="M11 27h1v1h-1z"/><path fill="#2D2613" d="M12 27h1v1h-1z"/><path fill="#FBB036" d="M13 27h1v1h-1z" opacity=".114"/><path fill="#FBB036" d="M14 27h1v1h-1z" opacity=".078"/><path fill="#FBB036" d="M15 27h1v1h-1z" opacity=".039"/><path fill="#FBB036" d="M16 27h1v1h-1z" opacity=".035"/><path fill="#FBB036" d="M17 27h1v1h-1z" opacity=".016"/><path fill="#FBB036" d="M18 27h1v1h-1z" opacity=".004"/><path fill="#E8A332" d="M20 27h1v1h-1z" opacity=".004"/><path fill="#E7E681" d="M21 27h1v1h-1z" opacity=".012"/><path fill="#1E2328" d="M22 27h1v1h-1z"/><path fill="#14171B" d="M23 27h1v1h-1zM24 27h1v1h-1z"/><path fill="#22272B" d="M25 27h1v1h-1z"/><path fill="#FBB036" d="M1 28h1v1H1z" opacity=".016"/><path fill="#FBB036" d="M2 28h1v1H2zM3 28h1v1H3z" opacity=".055"/><path fill="#FBB036" d="M4 28h1v1H4z" opacity=".067"/><path fill="#FBB036" d="M5 28h1v1H5z" opacity=".063"/><path fill="#FBB036" d="M6 28h1v1H6z" opacity=".078"/><path fill="#211D11" d="M7 28h1v1H7z"/><path fill="#2D2613" d="M8 28h1v1H8z"/><path fill="#352B14" d="M9 28h1v1H9z"/><path fill="#312914" d="M10 28h1v1h-1z"/><path fill="#2A2312" d="M11 28h1v1h-1z"/><path fill="#FBB036" d="M12 28h1v1h-1z" opacity=".114"/><path fill="#FBB036" d="M13 28h1v1h-1z" opacity=".078"/><path fill="#FBB036" d="M14 28h1v1h-1z" opacity=".047"/><path fill="#FBB036" d="M15 28h1v1h-1z" opacity=".039"/><path fill="#FBB036" d="M16 28h1v1h-1z" opacity=".024"/><path fill="#FBB036" d="M17 28h1v1h-1z" opacity=".012"/><path fill="#E5A132" d="M20 28h1v1h-1z" opacity=".004"/><path fill="#E7E681" d="M21 28h1v1h-1z" opacity=".008"/><path fill="#1E2328" d="M22 28h1v1h-1z"/><path fill="#14171B" d="M23 28h1v1h-1z"/><path fill="#181C21" d="M24 28h1v1h-1z"/><path fill="#23272E" d="M25 28h1v1h-1z"/><path fill="#FBB036" d="M1 29h1v1H1z" opacity=".012"/><path fill="#FBB036" d="M2 29h1v1H2z" opacity=".027"/><path fill="#FBB036" d="M3 29h1v1H3z" opacity=".047"/><path fill="#FBB036" d="M4 29h1v1H4z" opacity=".055"/><path fill="#FBB036" d="M5 29h1v1H5zM6 29h1v1H6z" opacity=".063"/><path fill="#FBB036" d="M7 29h1v1H7z" opacity=".078"/><path fill="#FBB036" d="M8 29h1v1H8z" opacity=".094"/><path fill="#03090C" d="M9 29h1v1H9z"/><path fill="#FBB036" d="M10 29h1v1h-1z" opacity=".114"/><path fill="#FBB036" d="M11 29h1v1h-1z" opacity=".094"/><path fill="#FBB036" d="M12 29h1v1h-1z" opacity=".078"/><path fill="#FBB036" d="M13 29h1v1h-1z" opacity=".055"/><path fill="#FBB036" d="M14 29h1v1h-1z" opacity=".047"/><path fill="#FBB036" d="M15 29h1v1h-1z" opacity=".031"/><path fill="#FBB036" d="M16 29h1v1h-1z" opacity=".035"/><path fill="#FBB036" d="M17 29h1v1h-1z" opacity=".004"/><path fill="#E5A132" d="M20 29h1v1h-1z" opacity=".008"/><path fill="#E7E681" d="M21 29h1v1h-1z" opacity=".008"/><path fill="#1E2328" d="M22 29h1v1h-1z"/><path fill="#14171B" d="M23 29h1v1h-1z"/><path fill="#1B1F24" d="M24 29h1v1h-1z"/><path fill="#252A31" d="M25 29h1v1h-1z"/><path fill="#FBB036" d="M1 30h1v1H1z" opacity=".004"/><path fill="#FBB036" d="M2 30h1v1H2z" opacity=".016"/><path fill="#FBB036" d="M3 30h1v1H3z" opacity=".027"/><path fill="#FBB036" d="M4 30h1v1H4z" opacity=".047"/><path fill="#FBB036" d="M5 30h1v1H5z" opacity=".051"/><path fill="#FBB036" d="M6 30h1v1H6zM7 30h1v1H7z" opacity=".059"/><path fill="#FBB036" d="M8 30h1v1H8z" opacity=".063"/><path fill="#131112" d="M9 30h1v1H9z"/><path fill="#FBB036" d="M10 30h1v1h-1z" opacity=".063"/><path fill="#FBB036" d="M11 30h1v1h-1z" opacity=".059"/><path fill="#FBB036" d="M12 30h1v1h-1z" opacity=".051"/><path fill="#FBB036" d="M13 30h1v1h-1z" opacity=".039"/><path fill="#FBB036" d="M14 30h1v1h-1z" opacity=".027"/><path fill="#FBB036" d="M15 30h1v1h-1z" opacity=".02"/><path fill="#FBB036" d="M16 30h1v1h-1z" opacity=".012"/><path fill="#E5A132" d="M20 30h1v1h-1z" opacity=".008"/><path fill="#1E2328" d="M22 30h1v1h-1z"/><path fill="#14171B" d="M23 30h1v1h-1z"/><path fill="#1C1F25" d="M24 30h1v1h-1z"/><path fill="#2C3238" d="M25 30h1v1h-1z"/><path fill="#FBB036" d="M2 31h1v1H2z" opacity=".008"/><path fill="#FBB036" d="M3 31h1v1H3z" opacity=".012"/><path fill="#FBB036" d="M4 31h1v1H4z" opacity=".02"/><path fill="#FBB036" d="M5 31h1v1H5z" opacity=".031"/><path fill="#FBB036" d="M6 31h1v1H6z" opacity=".051"/><path fill="#FBB036" d="M7 31h1v1H7z" opacity=".063"/><path fill="#FBB036" d="M8 31h1v1H8z" opacity=".075"/><path fill="#131112" d="M9 31h1v1H9z"/><path fill="#FBB036" d="M10 31h1v1h-1z" opacity=".075"/><path fill="#FBB036" d="M11 31h1v1h-1z" opacity=".055"/><path fill="#FBB036" d="M12 31h1v1h-1z" opacity=".043"/><path fill="#FBB036" d="M13 31h1v1h-1z" opacity=".024"/><path fill="#FBB036" d="M14 31h1v1h-1z" opacity=".016"/><path fill="#FBB036" d="M15 31h1v1h-1z" opacity=".008"/><path fill="#FBB036" d="M16 31h1v1h-1z" opacity=".004"/><path fill="#1E2328" d="M22 31h1v1h-1z"/><path fill="#14171B" d="M23 31h1v1h-1z"/><path fill="#1C1F25" d="M24 31h1v1h-1z"/><path fill="#343941" d="M25 31h1v1h-1z"/><path fill="#FBB036" d="M4 32h1v1H4z" opacity=".004"/><path fill="#FBB036" d="M5 32h1v1H5z" opacity=".016"/><path fill="#FBB036" d="M6 32h1v1H6z" opacity=".031"/><path fill="#FBB036" d="M7 32h1v1H7z" opacity=".078"/><path fill="#FBB036" d="M8 32h1v1H8z" opacity=".11"/><path fill="#2F2416" d="M9 32h1v1H9z"/><path fill="#FBB036" d="M10 32h1v1h-1z" opacity=".11"/><path fill="#FBB036" d="M11 32h1v1h-1z" opacity=".067"/><path fill="#FBB036" d="M12 32h1v1h-1z" opacity=".027"/><path fill="#FBB036" d="M13 32h1v1h-1z" opacity=".016"/><path fill="#FBB036" d="M14 32h1v1h-1z" opacity=".004"/><path fill="#1E2328" d="M22 32h1v1h-1z"/><path fill="#14171B" d="M23 32h1v1h-1z"/><path fill="#1C1F25" d="M24 32h1v1h-1z"/><path fill="#343941" d="M25 32h1v1h-1z"/><path fill="#FBB036" d="M5 33h1v1H5z" opacity=".004"/><path fill="#FBB036" d="M6 33h1v1H6z" opacity=".039"/><path fill="#FBB036" d="M7 33h1v1H7z" opacity=".114"/><path fill="#2E2713" d="M8 33h1v1H8z"/><path fill="#382D15" d="M9 33h1v1H9z"/><path fill="#2E2713" d="M10 33h1v1h-1z"/><path fill="#FBB036" d="M11 33h1v1h-1z" opacity=".098"/><path fill="#FBB036" d="M12 33h1v1h-1z" opacity=".035"/><path fill="#FBB036" d="M13 33h1v1h-1z" opacity=".02"/><path fill="#FBB036" d="M14 33h1v1h-1z" opacity=".004"/><path fill="#1E2328" d="M22 33h1v1h-1z"/><path fill="#14171B" d="M23 33h1v1h-1z"/><path fill="#1C1F25" d="M24 33h1v1h-1z"/><path fill="#383D51" d="M25 33h1v1h-1z"/><path fill="#FBB036" d="M4 34h1v1H4z" opacity=".004"/><path fill="#FBB036" d="M5 34h1v1H5z" opacity=".031"/><path fill="#FBB036" d="M6 34h1v1H6z" opacity=".098"/><path fill="#312914" d="M7 34h1v1H7z"/><path fill="#2A2312" d="M8 34h1v1H8zM9 34h1v1H9zM10 34h1v1h-1zM11 34h1v1h-1z"/><path fill="#FBB036" d="M12 34h1v1h-1z" opacity=".082"/><path fill="#FBB036" d="M13 34h1v1h-1z" opacity=".024"/><path fill="#FBB036" d="M14 34h1v1h-1z" opacity=".008"/><path fill="#1E2328" d="M22 34h1v1h-1z"/><path fill="#14171B" d="M23 34h1v1h-1z"/><path fill="#1C1F25" d="M24 34h1v1h-1z"/><path fill="#383D51" d="M25 34h1v1h-1z"/><path fill="#FBB036" d="M4 35h1v1H4z" opacity=".012"/><path fill="#FBB036" d="M5 35h1v1H5z" opacity=".059"/><path fill="#2A2312" d="M6 35h1v1H6zM7 35h1v1H7zM8 35h1v1H8zM9 35h1v1H9zM10 35h1v1h-1zM11 35h1v1h-1z"/><path fill="#241F11" d="M12 35h1v1h-1z"/><path fill="#FBB036" d="M13 35h1v1h-1z" opacity=".051"/><path fill="#FBB036" d="M14 35h1v1h-1z" opacity=".012"/><path fill="#1E2328" d="M22 35h1v1h-1z"/><path fill="#14171B" d="M23 35h1v1h-1z"/><path fill="#161A1E" d="M24 35h1v1h-1z"/><path fill="#32373E" d="M25 35h1v1h-1z"/><path fill="#FBB036" d="M4 36h1v1H4z" opacity=".02"/><path fill="#FBB036" d="M5 36h1v1H5z" opacity=".078"/><path fill="#332A14" d="M6 36h1v1H6z"/><path fill="#513E19" d="M7 36h1v1H7z"/><path fill="#2A2312" d="M8 36h1v1H8z"/><path fill="#F4B754" d="M9 36h1v1H9z"/><path fill="#2A2312" d="M10 36h1v1h-1z"/><path fill="#513E19" d="M11 36h1v1h-1z"/><path fill="#2B2513" d="M12 36h1v1h-1z"/><path fill="#FBB036" d="M13 36h1v1h-1z" opacity=".067"/><path fill="#FBB036" d="M14 36h1v1h-1z" opacity=".016"/><path fill="#1E2328" d="M22 36h1v1h-1z"/><path fill="#14171B" d="M23 36h1v1h-1z"/><path fill="#161A1E" d="M24 36h1v1h-1z"/><path fill="#292E34" d="M25 36h1v1h-1z"/><path fill="#FBB036" d="M4 37h1v1H4z" opacity=".012"/><path fill="#FBB036" d="M5 37h1v1H5z" opacity=".059"/><path fill="#2A2312" d="M6 37h1v1H6z"/><path fill="#483817" d="M7 37h1v1H7z"/><path fill="#131112" d="M8 37h1v1H8z"/><path fill="#F4B754" d="M9 37h1v1H9z"/><path fill="#131112" d="M10 37h1v1h-1z"/><path fill="#483817" d="M11 37h1v1h-1z"/><path fill="#2A2312" d="M12 37h1v1h-1z"/><path fill="#FBB036" d="M13 37h1v1h-1z" opacity=".051"/><path fill="#FBB036" d="M14 37h1v1h-1z" opacity=".012"/><path fill="#1E2328" d="M22 37h1v1h-1z"/><path fill="#14171B" d="M23 37h1v1h-1z"/><path fill="#161A1E" d="M24 37h1v1h-1z"/><path fill="#1D2125" d="M25 37h1v1h-1z"/><path fill="#FBB036" d="M4 38h1v1H4z" opacity=".004"/><path fill="#FBB036" d="M5 38h1v1H5z" opacity=".031"/><path fill="#FBB036" d="M6 38h1v1H6z" opacity=".098"/><path fill="#2A2312" d="M7 38h1v1H7z"/><path fill="#131112" d="M8 38h1v1H8z"/><path fill="#2A2312" d="M9 38h1v1H9z"/><path fill="#131112" d="M10 38h1v1h-1z"/><path fill="#2A2312" d="M11 38h1v1h-1z"/><path fill="#FBB036" d="M12 38h1v1h-1z" opacity=".098"/><path fill="#FBB036" d="M13 38h1v1h-1z" opacity=".031"/><path fill="#FBB036" d="M14 38h1v1h-1z" opacity=".004"/><path fill="#1E2328" d="M22 38h1v1h-1z"/><path fill="#14171B" d="M23 38h1v1h-1z"/><path fill="#161A1E" d="M24 38h1v1h-1z"/><path fill="#1D2125" d="M25 38h1v1h-1z"/><path fill="#FBB036" d="M5 39h1v1H5z" opacity=".004"/><path fill="#FBB036" d="M6 39h1v1H6z" opacity=".031"/><path fill="#FBB036" d="M7 39h1v1H7z" opacity=".098"/><path fill="#2A2312" d="M8 39h1v1H8z"/><path fill="#332A14" d="M9 39h1v1H9z"/><path fill="#2A2312" d="M10 39h1v1h-1z"/><path fill="#FBB036" d="M11 39h1v1h-1z" opacity=".098"/><path fill="#FBB036" d="M12 39h1v1h-1z" opacity=".031"/><path fill="#FBB036" d="M13 39h1v1h-1z" opacity=".004"/><path fill="#1E2328" d="M22 39h1v1h-1z"/><path fill="#14171B" d="M23 39h1v1h-1z"/><path fill="#161A1E" d="M24 39h1v1h-1z"/><path fill="#22272B" d="M25 39h1v1h-1z"/><path fill="#FBB036" d="M6 40h1v1H6z" opacity=".004"/><path fill="#FBB036" d="M7 40h1v1H7z" opacity=".031"/><path fill="#FBB036" d="M8 40h1v1H8z" opacity=".059"/><path fill="#15160F" d="M9 40h1v1H9z"/><path fill="#FBB036" d="M10 40h1v1h-1z" opacity=".059"/><path fill="#FBB036" d="M11 40h1v1h-1z" opacity=".031"/><path fill="#FBB036" d="M12 40h1v1h-1z" opacity=".004"/><path fill="#1E2328" d="M22 40h1v1h-1z"/><path fill="#14171B" d="M23 40h1v1h-1z"/><path fill="#171B1F" d="M24 40h1v1h-1z"/><path fill="#22272B" d="M25 40h1v1h-1z"/><path fill="#FBB036" d="M7 41h1v1H7z" opacity=".004"/><path fill="#FBB036" d="M8 41h1v1H8z" opacity=".012"/><path fill="#131112" d="M9 41h1v1H9z"/><path fill="#FBB036" d="M10 41h1v1h-1z" opacity=".012"/><path fill="#FBB036" d="M11 41h1v1h-1z" opacity=".004"/><path fill="#1E2328" d="M22 41h1v1h-1z"/><path fill="#14171B" d="M23 41h1v1h-1z"/><path fill="#1D2125" d="M24 41h1v1h-1z"/><path fill="#252A31" d="M25 41h1v1h-1z"/><path fill="#131112" d="M9 42h1v1H9z"/><path fill="#E5A132" d="M20 42h1v1h-1z" opacity=".004"/><path fill="#E7E681" d="M21 42h1v1h-1z" opacity=".008"/><path fill="#1E2328" d="M22 42h1v1h-1z"/><path fill="#14171B" d="M23 42h1v1h-1z"/><path fill="#2A2F35" d="M24 42h1v1h-1z"/><path fill="#131112" d="M9 43h1v1H9z"/><path fill="#E7E681" d="M21 43h1v1h-1z" opacity=".008"/><path fill="#1E2328" d="M22 43h1v1h-1z"/><path fill="#181C21" d="M23 43h1v1h-1z"/><path fill="#2C3138" d="M24 43h1v1h-1z"/><path fill="#FBB036" d="M6 44h1v1H6z" opacity=".004"/><path fill="#FBB036" d="M7 44h1v1H7z" opacity=".012"/><path fill="#131112" d="M9 44h1v1H9z"/><path fill="#FBB036" d="M11 44h1v1h-1z" opacity=".016"/><path fill="#FBB036" d="M12 44h1v1h-1z" opacity=".008"/><path fill="#E5A132" d="M20 44h1v1h-1z" opacity=".008"/><path fill="#E7E681" d="M21 44h1v1h-1z" opacity=".008"/><path fill="#1E2328" d="M22 44h1v1h-1z"/><path fill="#181C21" d="M23 44h1v1h-1z"/><path fill="#2C3138" d="M24 44h1v1h-1z"/><path fill="#FBB036" d="M6 45h1v1H6z" opacity=".02"/><path fill="#FBB036" d="M7 45h1v1H7z" opacity=".035"/><path fill="#FBB036" d="M8 45h1v1H8z" opacity=".063"/><path fill="#131112" d="M9 45h1v1H9z"/><path fill="#FBB036" d="M10 45h1v1h-1z" opacity=".063"/><path fill="#FBB036" d="M11 45h1v1h-1z" opacity=".035"/><path fill="#FBB036" d="M12 45h1v1h-1z" opacity=".024"/><path fill="#FBB036" d="M13 45h1v1h-1z" opacity=".008"/><path fill="#E5A132" d="M19 45h1v1h-1z" opacity=".008"/><path fill="#E6C359" d="M20 45h1v1h-1z" opacity=".016"/><path fill="#585B45" d="M21 45h1v1h-1z" opacity=".031"/><path fill="#1E2328" d="M22 45h1v1h-1z"/><path fill="#0F1216" d="M23 45h1v1h-1z"/><path fill="#31363C" d="M24 45h1v1h-1z"/><path fill="#FBB036" d="M4 46h1v1H4z" opacity=".004"/><path fill="#FBB036" d="M5 46h1v1H5z" opacity=".02"/><path fill="#FBB036" d="M6 46h1v1H6zM7 46h1v1H7z" opacity=".063"/><path fill="#FBB036" d="M8 46h1v1H8z" opacity=".075"/><path fill="#03090C" d="M9 46h1v1H9z"/><path fill="#FBB036" d="M10 46h1v1h-1z" opacity=".075"/><path fill="#FBB036" d="M11 46h1v1h-1z" opacity=".063"/><path fill="#FBB036" d="M12 46h1v1h-1z" opacity=".043"/><path fill="#FBB036" d="M13 46h1v1h-1z" opacity=".02"/><path fill="#FBB036" d="M14 46h1v1h-1z" opacity=".004"/><path fill="#E5A132" d="M19 46h1v1h-1z" opacity=".008"/><path fill="#E6C359" d="M20 46h1v1h-1z" opacity=".016"/><path fill="#292D31" d="M21 46h1v1h-1z" opacity=".016"/><path fill="#1E2328" d="M22 46h1v1h-1z"/><path fill="#0F1216" d="M23 46h1v1h-1z"/><path fill="#2E3439" d="M24 46h1v1h-1z"/><path fill="#FBB036" d="M3 47h1v1H3z" opacity=".008"/><path fill="#FBB036" d="M4 47h1v1H4z" opacity=".024"/><path fill="#FBB036" d="M5 47h1v1H5z" opacity=".043"/><path fill="#FBB036" d="M6 47h1v1H6z" opacity=".063"/><path fill="#FBB036" d="M7 47h1v1H7z" opacity=".082"/><path fill="#FBB036" d="M8 47h1v1H8z" opacity=".094"/><path fill="#1B1A10" d="M9 47h1v1H9z"/><path fill="#FBB036" d="M10 47h1v1h-1z" opacity=".094"/><path fill="#FBB036" d="M11 47h1v1h-1z" opacity=".082"/><path fill="#FBB036" d="M12 47h1v1h-1z" opacity=".063"/><path fill="#FBB036" d="M13 47h1v1h-1z" opacity=".039"/><path fill="#FBB036" d="M14 47h1v1h-1z" opacity=".016"/><path fill="#E5A132" d="M19 47h1v1h-1z" opacity=".016"/><path fill="#E7E681" d="M20 47h1v1h-1z" opacity=".008"/><path fill="#888959" d="M21 47h1v1h-1z" opacity=".016"/><path fill="#1E2328" d="M22 47h1v1h-1z"/><path fill="#0F1216" d="M23 47h1v1h-1z"/><path fill="#272B32" d="M24 47h1v1h-1z"/><path fill="#FBB036" d="M3 48h1v1H3z" opacity=".016"/><path fill="#FBB036" d="M4 48h1v1H4z" opacity=".035"/><path fill="#FBB036" d="M5 48h1v1H5z" opacity=".063"/><path fill="#FBB036" d="M6 48h1v1H6z" opacity=".082"/><path fill="#FBB036" d="M7 48h1v1H7z" opacity=".118"/><path fill="#2A2312" d="M8 48h1v1H8z"/><path fill="#2B2513" d="M9 48h1v1H9z"/><path fill="#262112" d="M10 48h1v1h-1z"/><path fill="#FBB036" d="M11 48h1v1h-1z" opacity=".102"/><path fill="#FBB036" d="M12 48h1v1h-1z" opacity=".082"/><path fill="#FBB036" d="M13 48h1v1h-1z" opacity=".063"/><path fill="#FBB036" d="M14 48h1v1h-1z" opacity=".035"/><path fill="#FBB036" d="M15 48h1v1h-1z" opacity=".012"/><path fill="#E5A132" d="M19 48h1v1h-1z" opacity=".008"/><path fill="#E7E681" d="M20 48h1v1h-1z" opacity=".008"/><path fill="#888959" d="M21 48h1v1h-1z" opacity=".016"/><path fill="#1E2328" d="M22 48h1v1h-1z"/><path fill="#0F1216" d="M23 48h1v1h-1zM24 48h1v1h-1z"/><path fill="#343941" d="M25 48h1v1h-1z"/><path fill="#FBB036" d="M3 49h1v1H3z" opacity=".02"/><path fill="#FBB036" d="M4 49h1v1H4z" opacity=".043"/><path fill="#FBB036" d="M5 49h1v1H5z" opacity=".075"/><path fill="#FBB036" d="M6 49h1v1H6z" opacity=".094"/><path fill="#2A2312" d="M7 49h1v1H7z"/><path fill="#413316" d="M8 49h1v1H8z"/><path fill="#453617" d="M9 49h1v1H9z"/><path fill="#392E15" d="M10 49h1v1h-1z"/><path fill="#221E11" d="M11 49h1v1h-1z"/><path fill="#FBB036" d="M12 49h1v1h-1z" opacity=".094"/><path fill="#FBB036" d="M13 49h1v1h-1z" opacity=".075"/><path fill="#FBB036" d="M14 49h1v1h-1z" opacity=".043"/><path fill="#FBB036" d="M15 49h1v1h-1z" opacity=".02"/><path fill="#292E31" d="M20 49h1v1h-1z" opacity=".008"/><path fill="#282C31" d="M21 49h1v1h-1z" opacity=".008"/><path fill="#1E2328" d="M22 49h1v1h-1z"/><path fill="#0F1216" d="M23 49h1v1h-1zM24 49h1v1h-1z"/><path fill="#343941" d="M25 49h1v1h-1z"/><path fill="#FBB036" d="M3 50h1v1H3z" opacity=".02"/><path fill="#FBB036" d="M4 50h1v1H4z" opacity=".043"/><path fill="#FBB036" d="M5 50h1v1H5z" opacity=".082"/><path fill="#FBB036" d="M6 50h1v1H6z" opacity=".102"/><path fill="#2B2513" d="M7 50h1v1H7z"/><path fill="#453617" d="M8 50h1v1H8z"/><path fill="#E5A132" d="M9 50h1v1H9z"/><path fill="#3D3016" d="M10 50h1v1h-1z"/><path fill="#241F11" d="M11 50h1v1h-1z"/><path fill="#FBB036" d="M12 50h1v1h-1z" opacity=".102"/><path fill="#FBB036" d="M13 50h1v1h-1z" opacity=".082"/><path fill="#FBB036" d="M14 50h1v1h-1z" opacity=".043"/><path fill="#FBB036" d="M15 50h1v1h-1z" opacity=".02"/><path fill="#1E2328" d="M22 50h1v1h-1z"/><path fill="#0F1216" d="M23 50h1v1h-1zM24 50h1v1h-1z"/><path fill="#2E343B" d="M25 50h1v1h-1z"/><path fill="#FBB036" d="M3 51h1v1H3z" opacity=".02"/><path fill="#FBB036" d="M4 51h1v1H4z" opacity=".043"/><path fill="#FBB036" d="M5 51h1v1H5z" opacity=".075"/><path fill="#FBB036" d="M6 51h1v1H6z" opacity=".094"/><path fill="#262112" d="M7 51h1v1H7z"/><path fill="#392E15" d="M8 51h1v1H8z"/><path fill="#060A0D" d="M9 51h1v1H9z"/><path fill="#352B14" d="M10 51h1v1h-1z"/><path fill="#221E11" d="M11 51h1v1h-1z"/><path fill="#FBB036" d="M12 51h1v1h-1z" opacity=".094"/><path fill="#FBB036" d="M13 51h1v1h-1z" opacity=".075"/><path fill="#FBB036" d="M14 51h1v1h-1z" opacity=".039"/><path fill="#FBB036" d="M15 51h1v1h-1z" opacity=".016"/><path fill="#1E2328" d="M22 51h1v1h-1z"/><path fill="#0F1216" d="M23 51h1v1h-1zM24 51h1v1h-1z"/><path fill="#2E343B" d="M25 51h1v1h-1z"/><path fill="#FBB036" d="M3 52h1v1H3z" opacity=".012"/><path fill="#FBB036" d="M4 52h1v1H4z" opacity=".035"/><path fill="#FBB036" d="M5 52h1v1H5z" opacity=".063"/><path fill="#FBB036" d="M6 52h1v1H6z" opacity=".082"/><path fill="#FBB036" d="M7 52h1v1H7z" opacity=".102"/><path fill="#040A0C" d="M8 52h1v1H8zM9 52h1v1H9zM10 52h1v1h-1z"/><path fill="#FBB036" d="M11 52h1v1h-1z" opacity=".102"/><path fill="#FBB036" d="M12 52h1v1h-1z" opacity=".082"/><path fill="#FBB036" d="M13 52h1v1h-1z" opacity=".063"/><path fill="#FBB036" d="M14 52h1v1h-1z" opacity=".035"/><path fill="#1E2328" d="M22 52h1v1h-1z"/><path fill="#0F1216" d="M23 52h1v1h-1zM24 52h1v1h-1zM25 52h1v1h-1z"/><path fill="#272B32" d="M26 52h1v1h-1z"/><path fill="#FBB036" d="M4 53h1v1H4z" opacity=".016"/><path fill="#FBB036" d="M5 53h1v1H5z" opacity=".039"/><path fill="#FBB036" d="M6 53h1v1H6z" opacity=".063"/><path fill="#FBB036" d="M7 53h1v1H7z" opacity=".082"/><path fill="#FBB036" d="M8 53h1v1H8z" opacity=".094"/><path fill="#2A2115" d="M9 53h1v1H9z"/><path fill="#FBB036" d="M10 53h1v1h-1z" opacity=".094"/><path fill="#FBB036" d="M11 53h1v1h-1z" opacity=".082"/><path fill="#FBB036" d="M12 53h1v1h-1z" opacity=".063"/><path fill="#FBB036" d="M13 53h1v1h-1z" opacity=".043"/><path fill="#FBB036" d="M14 53h1v1h-1z" opacity=".02"/><path fill="#485847" d="M17 53h1v1h-1z"/><path fill="#1E2328" d="M22 53h1v1h-1z"/><path fill="#0F1216" d="M23 53h1v1h-1zM24 53h1v1h-1zM25 53h1v1h-1z"/><path fill="#181C21" d="M26 53h1v1h-1z"/><path fill="#34383F" d="M27 53h1v1h-1z"/><path fill="#FBB036" d="M4 54h1v1H4z" opacity=".004"/><path fill="#FBB036" d="M5 54h1v1H5z" opacity=".02"/><path fill="#FBB036" d="M6 54h1v1H6z" opacity=".043"/><path fill="#FBB036" d="M7 54h1v1H7z" opacity=".063"/><path fill="#14150F" d="M8 54h1v1H8zM9 54h1v1H9zM10 54h1v1h-1z"/><path fill="#FBB036" d="M11 54h1v1h-1z" opacity=".063"/><path fill="#FBB036" d="M12 54h1v1h-1z" opacity=".043"/><path fill="#FBB036" d="M13 54h1v1h-1z" opacity=".02"/><path fill="#485847" d="M16 54h1v1h-1z"/><path fill="#1E2328" d="M21 54h1v1h-1z"/><path fill="#181C21" d="M22 54h1v1h-1z"/><path fill="#0F1216" d="M23 54h1v1h-1zM24 54h1v1h-1zM25 54h1v1h-1zM26 54h1v1h-1z"/><path fill="#181C21" d="M27 54h1v1h-1z"/><path fill="#272B31" d="M28 54h1v1h-1z"/><path fill="#FBB036" d="M5 55h1v1H5z" opacity=".008"/><path fill="#FBB036" d="M6 55h1v1H6z" opacity=".02"/><path fill="#FBB036" d="M7 55h1v1H7zM8 55h1v1H8z" opacity=".063"/><path fill="#131112" d="M9 55h1v1H9z"/><path fill="#FBB036" d="M10 55h1v1h-1zM11 55h1v1h-1z" opacity=".063"/><path fill="#FBB036" d="M12 55h1v1h-1z" opacity=".02"/><path fill="#FBB036" d="M13 55h1v1h-1z" opacity=".004"/><path fill="#485847" d="M16 55h1v1h-1z"/><path fill="#282A27" d="M17 55h1v1h-1z"/><path fill="#1E2328" d="M20 55h1v1h-1z"/><path fill="#181C21" d="M21 55h1v1h-1z"/><path fill="#0F1216" d="M22 55h1v1h-1zM23 55h1v1h-1zM24 55h1v1h-1zM25 55h1v1h-1zM26 55h1v1h-1zM27 55h1v1h-1zM28 55h1v1h-1z"/><path fill="#272B32" d="M29 55h1v1h-1z"/><path fill="#34383F" d="M30 55h1v1h-1zM31 55h1v1h-1zM32 55h1v1h-1z"/><path fill="#0A0E10" d="M8 56h1v1H8zM9 56h1v1H9zM10 56h1v1h-1z"/><path fill="#485847" d="M17 56h1v1h-1z"/><path fill="#2B342C" d="M18 56h1v1h-1z"/><path fill="#181D18" d="M19 56h1v1h-1zM20 56h1v1h-1zM21 56h1v1h-1zM22 56h1v1h-1zM23 56h1v1h-1zM24 56h1v1h-1z"/><path fill="#232823" d="M25 56h1v1h-1zM26 56h1v1h-1z"/><path fill="#2B342C" d="M27 56h1v1h-1zM28 56h1v1h-1z"/><path fill="#334034" d="M29 56h1v1h-1zM30 56h1v1h-1z"/><path fill="#485847" d="M31 56h1v1h-1zM32 56h1v1h-1zM33 56h1v1h-1zM34 56h1v1h-1z"/><path fill="#403216" d="M7 57h1v1H7z"/><path fill="#2A2312" d="M8 57h1v1H8z"/><path fill="#231F11" d="M9 57h1v1H9z"/><path fill="#2A2312" d="M10 57h1v1h-1z"/><path fill="#231F11" d="M11 57h1v1h-1z"/><path fill="#0A0E10" d="M18 57h1v1h-1zM19 57h1v1h-1zM20 57h1v1h-1zM21 57h1v1h-1zM22 57h1v1h-1z"/><path fill="#4C381A" d="M23 57h1v1h-1z"/><path fill="#AF7D29" d="M24 57h1v1h-1z"/><path fill="#403216" d="M25 57h1v1h-1z"/><path fill="#0A0E10" d="M26 57h1v1h-1zM27 57h1v1h-1zM28 57h1v1h-1zM29 57h1v1h-1zM30 57h1v1h-1z"/><path fill="#403216" d="M6 58h1v1H6z"/><path fill="#2A2312" d="M7 58h1v1H7z"/><path fill="#E5A132" d="M8 58h1v1H8z"/><path fill="#6D511E" d="M9 58h1v1H9z"/><path fill="#E5A132" d="M10 58h1v1h-1z"/><path fill="#403216" d="M11 58h1v1h-1z"/><path fill="#231F11" d="M12 58h1v1h-1z"/><path fill="#0A0E10" d="M19 58h1v1h-1z"/><path fill="#242116" d="M20 58h1v1h-1z"/><path fill="#1A1A13" d="M21 58h1v1h-1z"/><path fill="#0A0E10" d="M22 58h1v1h-1zM23 58h1v1h-1z"/><path fill="#403216" d="M24 58h1v1h-1z"/><path fill="#0A0E10" d="M25 58h1v1h-1zM26 58h1v1h-1zM27 58h1v1h-1zM5 59h1v1H5z"/><path fill="#403216" d="M6 59h1v1H6z"/><path fill="#EAB969" d="M7 59h1v1H7z"/><path fill="#E5A132" d="M8 59h1v1H8z"/><path fill="#6D511E" d="M9 59h1v1H9z"/><path fill="#E5A132" d="M10 59h1v1h-1z"/><path fill="#EAB969" d="M11 59h1v1h-1z"/><path fill="#231F11" d="M12 59h1v1h-1z"/><path fill="#0A0E10" d="M13 59h1v1h-1z"/><path fill="#242116" d="M19 59h1v1h-1z"/><path fill="#1F1E14" d="M20 59h1v1h-1z"/><path fill="#1A1A13" d="M21 59h1v1h-1z"/><path fill="#1F1E14" d="M22 59h1v1h-1z"/><path fill="#29251E" d="M23 59h1v1h-1z"/><path fill="#0A0E10" d="M24 59h1v1h-1zM25 59h1v1h-1zM27 59h1v1h-1zM6 60h1v1H6z"/><path fill="#2A2312" d="M7 60h1v1H7zM8 60h1v1H8zM9 60h1v1H9zM10 60h1v1h-1zM11 60h1v1h-1z"/><path fill="#0A0E10" d="M12 60h1v1h-1z"/><path fill="#1F1E14" d="M18 60h1v1h-1zM19 60h1v1h-1zM20 60h1v1h-1z"/><path fill="#E6A335" d="M21 60h1v1h-1z"/><path fill="#1F1E14" d="M22 60h1v1h-1z"/><path fill="#0A0E10" d="M23 60h1v1h-1zM24 60h1v1h-1z"/><path fill="#485847" d="M27 60h1v1h-1z"/><path fill="#171517" d="M8 61h1v1H8z"/><path fill="#131112" d="M9 61h1v1H9z"/><path fill="#171517" d="M10 61h1v1h-1z"/><path fill="#F4B754" d="M17 61h1v1h-1z" opacity=".012"/><path fill="#F4B754" d="M18 61h1v1h-1z" opacity=".102"/><path fill="#1F1E14" d="M19 61h1v1h-1z"/><path fill="#E7A437" d="M20 61h1v1h-1zM21 61h1v1h-1z"/><path fill="#1A1A13" d="M22 61h1v1h-1z"/><path fill="#2C271F" d="M23 61h1v1h-1z"/><path fill="#0A0E10" d="M24 61h1v1h-1z"/><path fill="#131312" d="M27 61h1v1h-1zM28 61h1v1h-1z"/><path fill="#131112" d="M9 62h1v1H9z"/><path fill="#F4B754" d="M17 62h1v1h-1z" opacity=".024"/><path fill="#F4B754" d="M18 62h1v1h-1z" opacity=".047"/><path fill="#2A2618" d="M19 62h1v1h-1z"/><path fill="#F4B754" d="M20 62h1v1h-1z"/><path fill="#E7A437" d="M21 62h1v1h-1z"/><path fill="#252216" d="M22 62h1v1h-1z"/><path fill="#29251E" d="M23 62h1v1h-1z"/><path fill="#0A0E10" d="M24 62h1v1h-1z"/><path fill="#131312" d="M26 62h1v1h-1z"/><path fill="#232823" d="M28 62h1v1h-1z"/><path fill="#F4B754" d="M17 63h1v1h-1z" opacity=".024"/><path fill="#F4B754" d="M18 63h1v1h-1z" opacity=".063"/><path fill="#161812" d="M19 63h1v1h-1z"/><path fill="#EBC17B" d="M20 63h1v1h-1z"/><path fill="#EBC17A" d="M21 63h1v1h-1z"/><path fill="#1F1E14" d="M22 63h1v1h-1z"/><path fill="#1A1A13" d="M23 63h1v1h-1z"/><path fill="#0A0E10" d="M24 63h1v1h-1zM25 63h1v1h-1z"/><path fill="#485847" d="M28 63h1v1h-1z"/><path fill="#F4B754" d="M17 64h1v1h-1z" opacity=".024"/><path fill="#F4B754" d="M18 64h1v1h-1z" opacity=".075"/><path fill="#161812" d="M19 64h1v1h-1z"/><path fill="#EBC17C" d="M20 64h1v1h-1z"/><path fill="#EBC17A" d="M21 64h1v1h-1z"/><path fill="#1F1E14" d="M22 64h1v1h-1z"/><path fill="#362E21" d="M23 64h1v1h-1z"/><path fill="#0A0E10" d="M24 64h1v1h-1z"/><path fill="#131312" d="M28 64h1v1h-1z"/><path fill="#F4B754" d="M17 65h1v1h-1z" opacity=".016"/><path fill="#F4B754" d="M18 65h1v1h-1z" opacity=".055"/><path fill="#0F120F" d="M19 65h1v1h-1z"/><path fill="#EBC17D" d="M20 65h1v1h-1z"/><path fill="#EBC17A" d="M21 65h1v1h-1z"/><path fill="#1F1E14" d="M22 65h1v1h-1z"/><path fill="#1A1A13" d="M23 65h1v1h-1z"/><path fill="#0A0E10" d="M24 65h1v1h-1zM25 65h1v1h-1z"/><path fill="#131312" d="M26 65h1v1h-1zM27 65h1v1h-1zM28 65h1v1h-1z"/><path fill="#F4B754" d="M17 66h1v1h-1z" opacity=".024"/><path fill="#F4B754" d="M18 66h1v1h-1z" opacity=".035"/><path fill="#111310" d="M19 66h1v1h-1z"/><path fill="#EAC27E" d="M20 66h1v1h-1z"/><path fill="#E6A336" d="M21 66h1v1h-1z"/><path fill="#2A2618" d="M22 66h1v1h-1z"/><path fill="#141511" d="M23 66h1v1h-1z"/><path fill="#0A0E10" d="M24 66h1v1h-1zM25 66h1v1h-1z"/><path fill="#131312" d="M26 66h1v1h-1z"/><path fill="#232823" d="M27 66h1v1h-1z"/><path fill="#F4B754" d="M17 67h1v1h-1z" opacity=".02"/><path fill="#F4B754" d="M18 67h1v1h-1z" opacity=".027"/><path fill="#0B0F0E" d="M19 67h1v1h-1z"/><path fill="#E5A234" d="M20 67h1v1h-1zM21 67h1v1h-1z"/><path fill="#0F120F" d="M22 67h1v1h-1z"/><path fill="#0A0E10" d="M23 67h1v1h-1z"/><path fill="#131312" d="M24 67h1v1h-1zM25 67h1v1h-1z"/><path fill="#191B1A" d="M26 67h1v1h-1z"/><path fill="#282A27" d="M27 67h1v1h-1z"/><path fill="#F4B754" d="M18 68h1v1h-1z" opacity=".024"/><path fill="#090E0E" d="M19 68h1v1h-1z"/><path fill="#E5A233" d="M20 68h1v1h-1z"/><path fill="#0D110F" d="M21 68h1v1h-1z"/><path fill="#0A0E10" d="M22 68h1v1h-1z"/><path fill="#131312" d="M23 68h1v1h-1zM24 68h1v1h-1z"/><path fill="#1A1614" d="M19 69h1v1h-1z"/><path fill="#191513" d="M20 69h1v1h-1z"/><path fill="#0A0E10" d="M21 69h1v1h-1z"/><path fill="#131312" d="M22 69h1v1h-1zM23 69h1v1h-1zM24 69h1v1h-1z"/><path fill="#232823" d="M25 69h1v1h-1z"/><path fill="#0A0E10" d="M17 70h1v1h-1zM18 70h1v1h-1z"/><path fill="#282A27" d="M19 70h1v1h-1z"/><path fill="#191B1A" d="M20 70h1v1h-1z"/><path fill="#181D18" d="M21 70h1v1h-1z"/><path fill="#0A0E10" d="M22 70h1v1h-1z"/><path fill="#131312" d="M23 70h1v1h-1z"/><path fill="#191B1A" d="M24 70h1v1h-1z"/><path fill="#282A27" d="M25 70h1v1h-1z"/><path fill="#3D463C" d="M16 71h1v1h-1z"/><path fill="#282A27" d="M17 71h1v1h-1zM18 71h1v1h-1z"/><path fill="#0A0E10" d="M19 71h1v1h-1z"/><path fill="#131312" d="M20 71h1v1h-1zM21 71h1v1h-1zM22 71h1v1h-1z"/><path fill="#3D463C" d="M15 72h1v1h-1z"/><path fill="#191B1A" d="M16 72h1v1h-1zM17 72h1v1h-1z"/><path fill="#131312" d="M18 72h1v1h-1z"/><path fill="#191B1A" d="M19 72h1v1h-1z"/><path fill="#0A0E10" d="M20 72h1v1h-1z"/><path fill="#191B1A" d="M21 72h1v1h-1z"/><path fill="#282A27" d="M22 72h1v1h-1z"/><path fill="#0A0E10" d="M15 73h1v1h-1zM16 73h1v1h-1zM17 73h1v1h-1z"/><path fill="#181D18" d="M18 73h1v1h-1z"/><path fill="#282A27" d="M19 73h1v1h-1z"/><path fill="#3D463C" d="M14 74h1v1h-1z"/><path fill="#282A27" d="M15 74h1v1h-1z"/><path fill="#191B1A" d="M16 74h1v1h-1z"/><path fill="#0A0E10" d="M17 74h1v1h-1zM18 74h1v1h-1zM11 75h1v1h-1zM12 75h1v1h-1z"/><path fill="#282A27" d="M14 75h1v1h-1z"/><path fill="#191B1A" d="M15 75h1v1h-1z"/><path fill="#181D18" d="M16 75h1v1h-1z"/><path fill="#191B1A" d="M17 75h1v1h-1z"/><path fill="#0A0E10" d="M18 75h1v1h-1zM11 76h1v1h-1zM12 76h1v1h-1zM13 76h1v1h-1zM14 76h1v1h-1zM15 76h1v1h-1z"/><path fill="#131312" d="M16 76h1v1h-1zM17 76h1v1h-1zM18 76h1v1h-1z"/><path fill="#0A0E10" d="M11 77h1v1h-1z"/><path fill="#59431A" d="M12 77h1v1h-1z"/><path fill="#CD912E" d="M13 77h1v1h-1z"/><path fill="#0A0E10" d="M14 77h1v1h-1zM15 77h1v1h-1zM16 77h1v1h-1z"/><path fill="#131312" d="M17 77h1v1h-1z"/><path fill="#0A0E10" d="M11 78h1v1h-1z"/><path fill="#231F11" d="M12 78h1v1h-1z"/><path fill="#59431A" d="M13 78h1v1h-1z"/><path fill="#0A0E10" d="M14 78h1v1h-1zM15 78h1v1h-1zM16 78h1v1h-1z"/><path fill="#131312" d="M17 78h1v1h-1z"/><path fill="#0A0E10" d="M12 79h1v1h-1zM13 79h1v1h-1zM14 79h1v1h-1z"/><path fill="#191B1A" d="M15 79h1v1h-1zM16 79h1v1h-1z"/><path fill="#282A27" d="M17 79h1v1h-1z"/><path fill="#3D463C" d="M12 80h1v1h-1z"/><path fill="#282A27" d="M13 80h1v1h-1z"/><path fill="#191B1A" d="M14 80h1v1h-1z"/><path fill="#131312" d="M15 80h1v1h-1z"/><path fill="#181D18" d="M16 80h1v1h-1z"/><path fill="#191B1A" d="M17 80h1v1h-1z"/><path fill="#131312" d="M13 81h1v1h-1zM14 81h1v1h-1z"/><path fill="#181D18" d="M15 81h1v1h-1z"/><path fill="#131312" d="M16 81h1v1h-1z"/><path fill="#191B1A" d="M17 81h1v1h-1z"/><path fill="#282A27" d="M13 82h1v1h-1z"/><path fill="#131312" d="M14 82h1v1h-1zM15 82h1v1h-1zM16 82h1v1h-1z"/><path fill="#0A0E10" d="M17 82h1v1h-1z"/><path fill="#3D463C" d="M13 83h1v1h-1z"/><path fill="#191B1A" d="M14 83h1v1h-1zM15 83h1v1h-1z"/><path fill="#0A0E10" d="M16 83h1v1h-1zM17 83h1v1h-1z"/><path fill="#131312" d="M18 83h1v1h-1z"/><path fill="#191B1A" d="M13 84h1v1h-1z"/><path fill="#0A0E10" d="M14 84h1v1h-1zM15 84h1v1h-1zM16 84h1v1h-1z"/><path fill="#191B1A" d="M17 84h1v1h-1z"/><path fill="#282A27" d="M18 84h1v1h-1z"/><path fill="#0A0E10" d="M14 85h1v1h-1z"/><path fill="#3D463C" d="M15 85h1v1h-1z"/><path fill="#282A27" d="M16 85h1v1h-1z"/><path fill="#181D18" d="M17 85h1v1h-1z"/><path fill="#191B1A" d="M18 85h1v1h-1z"/><path fill="#0A0E10" d="M19 85h1v1h-1z"/><path fill="#3D463C" d="M14 86h1v1h-1z"/><path fill="#131312" d="M15 86h1v1h-1zM16 86h1v1h-1z"/><path fill="#181D18" d="M17 86h1v1h-1z"/><path fill="#0A0E10" d="M18 86h1v1h-1zM19 86h1v1h-1z"/><path fill="#131312" d="M14 87h1v1h-1zM15 87h1v1h-1z"/><path fill="#0A0E10" d="M16 87h1v1h-1zM17 87h1v1h-1z"/><path fill="#131312" d="M18 87h1v1h-1zM17 88h1v1h-1zM18 88h1v1h-1zM19 88h1v1h-1zM18 89h1v1h-1zM19 89h1v1h-1z"/></svg>