<svg xmlns="http://www.w3.org/2000/svg" width="36" height="99" shape-rendering="crispEdges"><path fill="#B8BBBD" d="M13 0h1v1h-1z"/><path fill="#667680" d="M24 0h1v1h-1z"/><path fill="#B8BBBD" d="M12 1h1v1h-1zM13 1h1v1h-1zM14 1h1v1h-1z"/><path fill="#A6AEB2" d="M23 1h1v1h-1z"/><path fill="#3F5566" d="M24 1h1v1h-1z"/><path fill="#667680" d="M25 1h1v1h-1z"/><path fill="#B8BBBD" d="M13 2h1v1h-1z"/><path fill="#3F5566" d="M24 2h1v1h-1z"/><path fill="#6F7578" d="M13 3h1v1h-1z"/><path fill="#707B81" d="M23 3h1v1h-1z"/><path fill="#2B373F" d="M24 3h1v1h-1z"/><path fill="#2E3B44" d="M25 3h1v1h-1z"/><path fill="#7F8588" d="M13 4h1v1h-1z"/><path fill="#252E34" d="M23 4h1v1h-1z"/><path fill="#1E2428" d="M24 4h1v1h-1z"/><path fill="#334551" d="M25 4h1v1h-1z"/><path fill="#8A9093" d="M13 5h1v1h-1z"/><path fill="#68727A" d="M23 5h1v1h-1z"/><path fill="#4E5961" d="M24 5h1v1h-1z"/><path fill="#1E2428" d="M25 5h1v1h-1z"/><path fill="#8D9396" d="M13 6h1v1h-1z"/><path fill="#69747C" d="M23 6h1v1h-1z"/><path fill="#344049" d="M24 6h1v1h-1z"/><path fill="#39505F" d="M25 6h1v1h-1z"/><path fill="#93999C" d="M13 7h1v1h-1z"/><path fill="#252E34" d="M23 7h1v1h-1z"/><path fill="#1E2428" d="M24 7h1v1h-1z"/><path fill="#3B4E5B" d="M25 7h1v1h-1z"/><path fill="#93999C" d="M13 8h1v1h-1z"/><path fill="#68727A" d="M23 8h1v1h-1z"/><path fill="#667279" d="M24 8h1v1h-1z"/><path fill="#1E2428" d="M25 8h1v1h-1z"/><path fill="#9FA5A8" d="M13 9h1v1h-1z"/><path fill="#68727A" d="M23 9h1v1h-1z"/><path fill="#3B4852" d="M24 9h1v1h-1z"/><path fill="#3D5567" d="M25 9h1v1h-1z"/><path fill="#9FA5A8" d="M13 10h1v1h-1z"/><path fill="#252E34" d="M23 10h1v1h-1z"/><path fill="#1E2428" d="M24 10h1v1h-1z"/><path fill="#31424E" d="M25 10h1v1h-1z"/><path fill="#A2A8AB" d="M13 11h1v1h-1z"/><path fill="#626C73" d="M23 11h1v1h-1z"/><path fill="#596267" d="M24 11h1v1h-1z"/><path fill="#1E2428" d="M25 11h1v1h-1z"/><path fill="#A2A8AB" d="M13 12h1v1h-1z"/><path fill="#4E5961" d="M23 12h1v1h-1z"/><path fill="#3B4852" d="M24 12h1v1h-1z"/><path fill="#31424E" d="M25 12h1v1h-1z"/><path fill="#A2A8AB" d="M13 13h1v1h-1z"/><path fill="#889195" d="M20 13h1v1h-1z"/><path fill="#939CA0" d="M21 13h1v1h-1z"/><path fill="#5A5E60" d="M22 13h1v1h-1z"/><path fill="#1E2428" d="M23 13h1v1h-1zM24 13h1v1h-1z"/><path fill="#384E5D" d="M25 13h1v1h-1z"/><path fill="#A2A8AB" d="M13 14h1v1h-1z"/><path fill="#8F989C" d="M18 14h1v1h-1z"/><path fill="#818A8E" d="M19 14h1v1h-1z"/><path fill="#31373B" d="M20 14h1v1h-1zM21 14h1v1h-1z"/><path fill="#15191B" d="M22 14h1v1h-1z"/><path fill="#344049" d="M23 14h1v1h-1z"/><path fill="#252E34" d="M24 14h1v1h-1z"/><path fill="#1E2428" d="M25 14h1v1h-1z"/><path fill="#777E82" d="M30 14h1v1h-1z"/><path fill="#A2A8AB" d="M13 15h1v1h-1z"/><path fill="#99A2A6" d="M17 15h1v1h-1z"/><path fill="#31373B" d="M18 15h1v1h-1zM19 15h1v1h-1zM20 15h1v1h-1zM21 15h1v1h-1z"/><path fill="#121517" d="M22 15h1v1h-1z"/><path fill="#344049" d="M23 15h1v1h-1z"/><path fill="#252E34" d="M24 15h1v1h-1z"/><path fill="#31424E" d="M25 15h1v1h-1z"/><path fill="#636A6D" d="M29 15h1v1h-1z"/><path fill="#31373B" d="M30 15h1v1h-1z"/><path fill="#575E61" d="M31 15h1v1h-1z"/><path fill="#A2A8AB" d="M13 16h1v1h-1z"/><path fill="#979FA3" d="M17 16h1v1h-1z"/><path fill="#31373B" d="M18 16h1v1h-1z"/><path fill="#8B9397" d="M19 16h1v1h-1z"/><path fill="#939CA0" d="M20 16h1v1h-1z"/><path fill="#858D90" d="M21 16h1v1h-1z"/><path fill="#121517" d="M22 16h1v1h-1z"/><path fill="#1C2023" d="M23 16h1v1h-1zM24 16h1v1h-1z"/><path fill="#2C3A44" d="M25 16h1v1h-1z"/><path fill="#161A1E" d="M26 16h1v1h-1z"/><path fill="#646B6F" d="M27 16h1v1h-1z"/><path fill="#51585D" d="M28 16h1v1h-1z"/><path fill="#191D23" d="M29 16h1v1h-1z"/><path fill="#30363A" d="M30 16h1v1h-1z"/><path fill="#4D5357" d="M31 16h1v1h-1z"/><path fill="#A2A8AB" d="M13 17h1v1h-1z"/><path fill="#8B9397" d="M17 17h1v1h-1z"/><path fill="#A0A9AD" d="M18 17h1v1h-1zM19 17h1v1h-1z"/><path fill="#7D8487" d="M20 17h1v1h-1zM21 17h1v1h-1z"/><path fill="#8B9397" d="M22 17h1v1h-1z"/><path fill="#181C1F" d="M23 17h1v1h-1z"/><path fill="#1C2023" d="M24 17h1v1h-1zM25 17h1v1h-1z"/><path fill="#15191C" d="M26 17h1v1h-1zM27 17h1v1h-1z"/><path fill="#171B20" d="M28 17h1v1h-1z"/><path fill="#1A1F25" d="M29 17h1v1h-1z"/><path fill="#2E343A" d="M30 17h1v1h-1z"/><path fill="#4A5154" d="M31 17h1v1h-1z"/><path fill="#A2A8AB" d="M13 18h1v1h-1z"/><path fill="#7D8487" d="M17 18h1v1h-1z"/><path fill="#A0A9AD" d="M18 18h1v1h-1zM19 18h1v1h-1zM20 18h1v1h-1z"/><path fill="#7D8487" d="M21 18h1v1h-1z"/><path fill="#858D90" d="M22 18h1v1h-1z"/><path fill="#181C1F" d="M23 18h1v1h-1zM24 18h1v1h-1z"/><path fill="#1C2023" d="M25 18h1v1h-1z"/><path fill="#15191C" d="M26 18h1v1h-1zM27 18h1v1h-1z"/><path fill="#171B22" d="M28 18h1v1h-1z"/><path fill="#40464C" d="M29 18h1v1h-1z"/><path fill="#2C323A" d="M30 18h1v1h-1z"/><path fill="#4B5155" d="M31 18h1v1h-1z"/><path fill="#A2A8AB" d="M13 19h1v1h-1z"/><path fill="#7D8487" d="M17 19h1v1h-1z"/><path fill="#A0A9AD" d="M18 19h1v1h-1zM19 19h1v1h-1zM20 19h1v1h-1z"/><path fill="#7D8487" d="M21 19h1v1h-1zM22 19h1v1h-1z"/><path fill="#A0A9AD" d="M23 19h1v1h-1z"/><path fill="#181C1F" d="M24 19h1v1h-1z"/><path fill="#1A1F24" d="M25 19h1v1h-1z"/><path fill="#181C23" d="M26 19h1v1h-1zM27 19h1v1h-1z"/><path fill="#3B434B" d="M28 19h1v1h-1z"/><path fill="#3A424A" d="M29 19h1v1h-1z"/><path fill="#2E343A" d="M30 19h1v1h-1z"/><path fill="#585E61" d="M31 19h1v1h-1z"/><path fill="#989FA2" d="M13 20h1v1h-1z"/><path fill="#A0A9AD" d="M18 20h1v1h-1zM19 20h1v1h-1z"/><path fill="#7D8487" d="M20 20h1v1h-1zM21 20h1v1h-1z"/><path fill="#43525E" d="M22 20h1v1h-1z"/><path fill="#57646D" d="M23 20h1v1h-1z"/><path fill="#687177" d="M24 20h1v1h-1z"/><path fill="#606972" d="M25 20h1v1h-1z"/><path fill="#57626C" d="M26 20h1v1h-1z"/><path fill="#3F4D5A" d="M27 20h1v1h-1z"/><path fill="#3F4852" d="M28 20h1v1h-1z"/><path fill="#323944" d="M29 20h1v1h-1z"/><path fill="#697074" d="M30 20h1v1h-1z"/><path fill="#989FA2" d="M13 21h1v1h-1z"/><path fill="#7D8487" d="M18 21h1v1h-1zM19 21h1v1h-1zM20 21h1v1h-1z"/><path fill="#495257" d="M21 21h1v1h-1z"/><path fill="#404C56" d="M22 21h1v1h-1z"/><path fill="#262C3A" d="M23 21h1v1h-1zM24 21h1v1h-1z"/><path fill="#2B313C" d="M25 21h1v1h-1z"/><path fill="#38414B" d="M26 21h1v1h-1z"/><path fill="#3D4650" d="M27 21h1v1h-1z"/><path fill="#38404B" d="M28 21h1v1h-1zM29 21h1v1h-1z"/><path fill="#565F65" d="M30 21h1v1h-1z"/><path fill="#989FA2" d="M13 22h1v1h-1z"/><path fill="#6C757A" d="M19 22h1v1h-1z"/><path fill="#495257" d="M20 22h1v1h-1zM21 22h1v1h-1z"/><path fill="#3D4650" d="M22 22h1v1h-1z"/><path fill="#38404B" d="M23 22h1v1h-1z"/><path fill="#2B313C" d="M24 22h1v1h-1z"/><path fill="#323944" d="M25 22h1v1h-1z"/><path fill="#38404B" d="M26 22h1v1h-1z"/><path fill="#414B55" d="M27 22h1v1h-1z"/><path fill="#4C5860" d="M28 22h1v1h-1z"/><path fill="#565F66" d="M29 22h1v1h-1z"/><path fill="#989FA2" d="M13 23h1v1h-1z"/><path fill="#495257" d="M20 23h1v1h-1z"/><path fill="#2B313C" d="M21 23h1v1h-1z"/><path fill="#38404B" d="M22 23h1v1h-1z"/><path fill="#222732" d="M23 23h1v1h-1zM24 23h1v1h-1z"/><path fill="#2B313C" d="M25 23h1v1h-1z"/><path fill="#323944" d="M26 23h1v1h-1z"/><path fill="#2B313C" d="M27 23h1v1h-1z"/><path fill="#4B555A" d="M28 23h1v1h-1z"/><path fill="#989FA2" d="M13 24h1v1h-1z"/><path fill="#424D35" d="M21 24h1v1h-1z"/><path fill="#363D2D" d="M22 24h1v1h-1z"/><path fill="#292F22" d="M23 24h1v1h-1z"/><path fill="#21251C" d="M24 24h1v1h-1z"/><path fill="#1F221A" d="M25 24h1v1h-1z"/><path fill="#262B20" d="M26 24h1v1h-1z"/><path fill="#363D2D" d="M27 24h1v1h-1z"/><path fill="#989FA2" d="M13 25h1v1h-1z"/><path fill="#432527" d="M23 25h1v1h-1z"/><path fill="#6C7274" d="M24 25h1v1h-1z"/><path fill="#432527" d="M25 25h1v1h-1zM26 25h1v1h-1zM27 25h1v1h-1z"/><path fill="#989FA2" d="M13 26h1v1h-1z"/><path fill="#6C7274" d="M24 26h1v1h-1z"/><path fill="#432527" d="M25 26h1v1h-1zM26 26h1v1h-1zM27 26h1v1h-1zM28 26h1v1h-1zM29 26h1v1h-1z"/><path fill="#512E2F" d="M30 26h1v1h-1zM31 26h1v1h-1z"/><path fill="#8B9498" d="M13 27h1v1h-1z"/><path fill="#707679" d="M24 27h1v1h-1z"/><path fill="#432527" d="M27 27h1v1h-1zM28 27h1v1h-1zM29 27h1v1h-1zM30 27h1v1h-1zM31 27h1v1h-1z"/><path fill="#5D2F33" d="M32 27h1v1h-1z"/><path fill="#552D2D" d="M33 27h1v1h-1z"/><path fill="#8B9498" d="M13 28h1v1h-1z"/><path fill="#71777A" d="M24 28h1v1h-1z"/><path fill="#432527" d="M29 28h1v1h-1zM30 28h1v1h-1zM31 28h1v1h-1zM32 28h1v1h-1z"/><path fill="#56282B" d="M33 28h1v1h-1z"/><path fill="#4E272A" d="M34 28h1v1h-1z"/><path fill="#8B9498" d="M13 29h1v1h-1z"/><path fill="#71777A" d="M24 29h1v1h-1z"/><path fill="#432527" d="M31 29h1v1h-1zM32 29h1v1h-1zM33 29h1v1h-1z"/><path fill="#51292C" d="M34 29h1v1h-1z"/><path fill="#8B9498" d="M13 30h1v1h-1z"/><path fill="#616566" d="M24 30h1v1h-1z"/><path fill="#432527" d="M33 30h1v1h-1z"/><path fill="#592A2E" d="M34 30h1v1h-1z"/><path fill="#542A2D" d="M35 30h1v1h-1z"/><path fill="#8B9498" d="M13 31h1v1h-1z"/><path fill="#545859" d="M24 31h1v1h-1z"/><path fill="#632C30" d="M34 31h1v1h-1z"/><path fill="#5D2C2F" d="M35 31h1v1h-1z"/><path fill="#8B9498" d="M13 32h1v1h-1z"/><path fill="#3F4141" d="M24 32h1v1h-1z"/><path fill="#692C30" d="M34 32h1v1h-1z"/><path fill="#652D30" d="M35 32h1v1h-1z"/><path fill="#8B9498" d="M13 33h1v1h-1z"/><path fill="#502B2C" d="M19 33h1v1h-1zM20 33h1v1h-1z"/><path fill="#592D30" d="M21 33h1v1h-1zM22 33h1v1h-1z"/><path fill="#4E2E2F" d="M23 33h1v1h-1z"/><path fill="#3F4141" d="M24 33h1v1h-1z"/><path fill="#763034" d="M34 33h1v1h-1z"/><path fill="#7C3036" d="M35 33h1v1h-1z"/><path fill="#8B9498" d="M13 34h1v1h-1z"/><path fill="#502B2C" d="M18 34h1v1h-1z"/><path fill="#412727" d="M19 34h1v1h-1zM20 34h1v1h-1z"/><path fill="#452A2A" d="M21 34h1v1h-1z"/><path fill="#462A2A" d="M22 34h1v1h-1z"/><path fill="#4F3033" d="M23 34h1v1h-1z"/><path fill="#522F33" d="M24 34h1v1h-1z"/><path fill="#4F3033" d="M25 34h1v1h-1z"/><path fill="#512E2F" d="M26 34h1v1h-1z"/><path fill="#7A3035" d="M34 34h1v1h-1z"/><path fill="#7C3036" d="M35 34h1v1h-1z"/><path fill="#8B9498" d="M13 35h1v1h-1z"/><path fill="#682F32" d="M17 35h1v1h-1z"/><path fill="#412727" d="M18 35h1v1h-1zM19 35h1v1h-1zM20 35h1v1h-1z"/><path fill="#45292A" d="M21 35h1v1h-1z"/><path fill="#482D2D" d="M22 35h1v1h-1z"/><path fill="#4F3033" d="M23 35h1v1h-1z"/><path fill="#522F33" d="M24 35h1v1h-1z"/><path fill="#4F3033" d="M25 35h1v1h-1z"/><path fill="#522F33" d="M26 35h1v1h-1z"/><path fill="#512E2F" d="M27 35h1v1h-1z"/><path fill="#7A3035" d="M34 35h1v1h-1z"/><path fill="#2A6567" d="M1 36h1v1H1z"/><path fill="#8B9498" d="M13 36h1v1h-1z"/><path fill="#833339" d="M16 36h1v1h-1z"/><path fill="#412727" d="M17 36h1v1h-1zM18 36h1v1h-1z"/><path fill="#522F33" d="M23 36h1v1h-1z"/><path fill="#4F3033" d="M24 36h1v1h-1zM25 36h1v1h-1z"/><path fill="#573134" d="M26 36h1v1h-1z"/><path fill="#5E3034" d="M27 36h1v1h-1z"/><path fill="#512E2F" d="M28 36h1v1h-1z"/><path fill="#7A3035" d="M33 36h1v1h-1z"/><path fill="#7B3036" d="M34 36h1v1h-1z"/><path fill="#2A6567" d="M0 37h1v1H0z"/><path fill="#245355" d="M5 37h1v1H5z"/><path fill="#24494B" d="M6 37h1v1H6z"/><path fill="#8B9498" d="M13 37h1v1h-1z"/><path fill="#833339" d="M16 37h1v1h-1z"/><path fill="#402727" d="M17 37h1v1h-1z"/><path fill="#676C6F" d="M24 37h1v1h-1z"/><path fill="#552F32" d="M25 37h1v1h-1z"/><path fill="#5E3034" d="M26 37h1v1h-1z"/><path fill="#6C3135" d="M27 37h1v1h-1z"/><path fill="#653035" d="M28 37h1v1h-1z"/><path fill="#683033" d="M29 37h1v1h-1z"/><path fill="#702D32" d="M30 37h1v1h-1z"/><path fill="#752E33" d="M31 37h1v1h-1z"/><path fill="#782F34" d="M32 37h1v1h-1z"/><path fill="#7A3036" d="M33 37h1v1h-1z"/><path fill="#2A6567" d="M0 38h1v1H0zM4 38h1v1H4z"/><path fill="#244D4F" d="M5 38h1v1H5z"/><path fill="#8B9498" d="M13 38h1v1h-1z"/><path fill="#432828" d="M15 38h1v1h-1zM16 38h1v1h-1z"/><path fill="#25393A" d="M17 38h1v1h-1zM18 38h1v1h-1z"/><path fill="#234749" d="M19 38h1v1h-1zM20 38h1v1h-1z"/><path fill="#72787C" d="M24 38h1v1h-1z"/><path fill="#6C3135" d="M26 38h1v1h-1z"/><path fill="#653035" d="M27 38h1v1h-1z"/><path fill="#693035" d="M28 38h1v1h-1zM29 38h1v1h-1z"/><path fill="#683033" d="M30 38h1v1h-1z"/><path fill="#743035" d="M31 38h1v1h-1z"/><path fill="#783036" d="M32 38h1v1h-1z"/><path fill="#2A6567" d="M0 39h1v1H0z"/><path fill="#24393B" d="M1 39h1v1H1z"/><path fill="#2A6567" d="M3 39h1v1H3z"/><path fill="#245759" d="M4 39h1v1H4z"/><path fill="#8B9498" d="M13 39h1v1h-1z"/><path fill="#295A5C" d="M15 39h1v1h-1z"/><path fill="#274B4D" d="M16 39h1v1h-1z"/><path fill="#264041" d="M17 39h1v1h-1z"/><path fill="#25393A" d="M18 39h1v1h-1z"/><path fill="#213133" d="M19 39h1v1h-1zM20 39h1v1h-1z"/><path fill="#234749" d="M21 39h1v1h-1z"/><path fill="#72787C" d="M24 39h1v1h-1z"/><path fill="#863138" d="M28 39h1v1h-1z"/><path fill="#723137" d="M29 39h1v1h-1z"/><path fill="#683036" d="M30 39h1v1h-1z"/><path fill="#6B3034" d="M31 39h1v1h-1z"/><path fill="#2A6567" d="M0 40h1v1H0z"/><path fill="#24393B" d="M1 40h1v1H1z"/><path fill="#24494B" d="M2 40h1v1H2z"/><path fill="#2A6567" d="M3 40h1v1H3z"/><path fill="#24393B" d="M4 40h1v1H4z"/><path fill="#6F7578" d="M13 40h1v1h-1z"/><path fill="#2A6567" d="M14 40h1v1h-1z"/><path fill="#2A6265" d="M15 40h1v1h-1z"/><path fill="#264A4B" d="M16 40h1v1h-1zM17 40h1v1h-1z"/><path fill="#213A3B" d="M18 40h1v1h-1zM19 40h1v1h-1zM20 40h1v1h-1z"/><path fill="#1C2B2D" d="M21 40h1v1h-1z"/><path fill="#1B292B" d="M22 40h1v1h-1z"/><path fill="#7E868A" d="M24 40h1v1h-1z"/><path fill="#2A6567" d="M0 41h1v1H0zM1 41h1v1H1zM2 41h1v1H2zM3 41h1v1H3z"/><path fill="#24393B" d="M4 41h1v1H4z"/><path fill="#2A6063" d="M13 41h1v1h-1zM14 41h1v1h-1z"/><path fill="#432828" d="M15 41h1v1h-1z"/><path fill="#1A2B2C" d="M21 41h1v1h-1z"/><path fill="#1A282A" d="M22 41h1v1h-1z"/><path fill="#8B9498" d="M24 41h1v1h-1z"/><path fill="#2A6567" d="M0 42h1v1H0zM1 42h1v1H1zM2 42h1v1H2zM3 42h1v1H3z"/><path fill="#24393B" d="M4 42h1v1H4z"/><path fill="#285557" d="M12 42h1v1h-1z"/><path fill="#295A5C" d="M13 42h1v1h-1z"/><path fill="#264A4B" d="M14 42h1v1h-1z"/><path fill="#432828" d="M15 42h1v1h-1zM16 42h1v1h-1z"/><path fill="#1A282A" d="M22 42h1v1h-1z"/><path fill="#8B9498" d="M24 42h1v1h-1z"/><path fill="#46292A" d="M25 42h1v1h-1z"/><path fill="#693035" d="M26 42h1v1h-1zM27 42h1v1h-1zM28 42h1v1h-1zM29 42h1v1h-1z"/><path fill="#2A6567" d="M1 43h1v1H1z"/><path fill="#245A5C" d="M2 43h1v1H2z"/><path fill="#24595B" d="M3 43h1v1H3z"/><path fill="#245355" d="M4 43h1v1H4z"/><path fill="#24393B" d="M5 43h1v1H5z"/><path fill="#285456" d="M10 43h1v1h-1z"/><path fill="#28585A" d="M11 43h1v1h-1z"/><path fill="#24393B" d="M12 43h1v1h-1z"/><path fill="#3F4141" d="M13 43h1v1h-1z"/><path fill="#432828" d="M15 43h1v1h-1zM16 43h1v1h-1zM17 43h1v1h-1z"/><path fill="#532E31" d="M18 43h1v1h-1z"/><path fill="#532E2E" d="M19 43h1v1h-1z"/><path fill="#7A3237" d="M20 43h1v1h-1zM21 43h1v1h-1zM22 43h1v1h-1z"/><path fill="#552D2D" d="M23 43h1v1h-1z"/><path fill="#8B9498" d="M24 43h1v1h-1z"/><path fill="#432828" d="M25 43h1v1h-1zM26 43h1v1h-1zM27 43h1v1h-1zM28 43h1v1h-1z"/><path fill="#472A2B" d="M29 43h1v1h-1z"/><path fill="#693035" d="M30 43h1v1h-1zM31 43h1v1h-1z"/><path fill="#2A6567" d="M2 44h1v1H2z"/><path fill="#24595B" d="M3 44h1v1H3z"/><path fill="#245557" d="M4 44h1v1H4z"/><path fill="#24494B" d="M5 44h1v1H5z"/><path fill="#24393B" d="M6 44h1v1H6z"/><path fill="#254445" d="M8 44h1v1H8z"/><path fill="#274B4D" d="M9 44h1v1H9z"/><path fill="#285254" d="M10 44h1v1h-1z"/><path fill="#24393B" d="M11 44h1v1h-1z"/><path fill="#3F4141" d="M13 44h1v1h-1z"/><path fill="#432828" d="M15 44h1v1h-1zM16 44h1v1h-1z"/><path fill="#603033" d="M17 44h1v1h-1z"/><path fill="#512E31" d="M18 44h1v1h-1z"/><path fill="#482D2D" d="M19 44h1v1h-1z"/><path fill="#472D2D" d="M20 44h1v1h-1zM21 44h1v1h-1zM22 44h1v1h-1z"/><path fill="#432828" d="M23 44h1v1h-1z"/><path fill="#8B9498" d="M24 44h1v1h-1z"/><path fill="#432828" d="M25 44h1v1h-1zM26 44h1v1h-1zM27 44h1v1h-1zM28 44h1v1h-1z"/><path fill="#472A2B" d="M29 44h1v1h-1zM30 44h1v1h-1z"/><path fill="#4A2C2C" d="M31 44h1v1h-1z"/><path fill="#693035" d="M32 44h1v1h-1z"/><path fill="#245052" d="M4 45h1v1H4zM5 45h1v1H5z"/><path fill="#244041" d="M6 45h1v1H6z"/><path fill="#24393B" d="M7 45h1v1H7zM8 45h1v1H8zM9 45h1v1H9zM10 45h1v1h-1z"/><path fill="#545859" d="M13 45h1v1h-1z"/><path fill="#733237" d="M16 45h1v1h-1z"/><path fill="#693135" d="M17 45h1v1h-1z"/><path fill="#522E31" d="M18 45h1v1h-1z"/><path fill="#482D2D" d="M19 45h1v1h-1z"/><path fill="#472D2D" d="M20 45h1v1h-1zM21 45h1v1h-1z"/><path fill="#432828" d="M22 45h1v1h-1zM23 45h1v1h-1z"/><path fill="#8B9498" d="M24 45h1v1h-1z"/><path fill="#432828" d="M25 45h1v1h-1zM26 45h1v1h-1zM27 45h1v1h-1zM28 45h1v1h-1z"/><path fill="#472A2B" d="M29 45h1v1h-1zM30 45h1v1h-1z"/><path fill="#4A2C2C" d="M31 45h1v1h-1z"/><path fill="#512E32" d="M32 45h1v1h-1z"/><path fill="#592F33" d="M33 45h1v1h-1z"/><path fill="#6F7578" d="M13 46h1v1h-1z"/><path fill="#683135" d="M16 46h1v1h-1z"/><path fill="#693135" d="M17 46h1v1h-1z"/><path fill="#582E31" d="M18 46h1v1h-1z"/><path fill="#4A2D2F" d="M19 46h1v1h-1z"/><path fill="#472D2D" d="M20 46h1v1h-1z"/><path fill="#432828" d="M21 46h1v1h-1zM22 46h1v1h-1zM23 46h1v1h-1z"/><path fill="#8B9498" d="M24 46h1v1h-1z"/><path fill="#432828" d="M25 46h1v1h-1zM26 46h1v1h-1zM27 46h1v1h-1zM28 46h1v1h-1z"/><path fill="#472A2B" d="M29 46h1v1h-1zM30 46h1v1h-1z"/><path fill="#4E2E30" d="M31 46h1v1h-1z"/><path fill="#522E32" d="M32 46h1v1h-1z"/><path fill="#582E33" d="M33 46h1v1h-1z"/><path fill="#8B9498" d="M13 47h1v1h-1z"/><path fill="#5D3034" d="M17 47h1v1h-1zM18 47h1v1h-1z"/><path fill="#4E2E32" d="M19 47h1v1h-1z"/><path fill="#4A2D2F" d="M20 47h1v1h-1z"/><path fill="#432828" d="M21 47h1v1h-1zM22 47h1v1h-1zM23 47h1v1h-1z"/><path fill="#8B9498" d="M24 47h1v1h-1z"/><path fill="#432828" d="M25 47h1v1h-1zM26 47h1v1h-1zM27 47h1v1h-1z"/><path fill="#522E32" d="M31 47h1v1h-1zM32 47h1v1h-1z"/><path fill="#5C2F34" d="M33 47h1v1h-1z"/><path fill="#723137" d="M34 47h1v1h-1z"/><path fill="#8B9498" d="M13 48h1v1h-1z"/><path fill="#1A282A" d="M22 48h1v1h-1z"/><path fill="#1A292B" d="M23 48h1v1h-1z"/><path fill="#8B9498" d="M24 48h1v1h-1z"/><path fill="#582E33" d="M32 48h1v1h-1z"/><path fill="#5D2F34" d="M33 48h1v1h-1z"/><path fill="#642F33" d="M34 48h1v1h-1z"/><path fill="#4E2A2B" d="M11 49h1v1h-1z"/><path fill="#462A2A" d="M12 49h1v1h-1z"/><path fill="#8B9498" d="M13 49h1v1h-1z"/><path fill="#462A2A" d="M14 49h1v1h-1zM15 49h1v1h-1z"/><path fill="#1E3234" d="M21 49h1v1h-1z"/><path fill="#1B2B2D" d="M22 49h1v1h-1z"/><path fill="#1A292B" d="M23 49h1v1h-1z"/><path fill="#8B9498" d="M24 49h1v1h-1z"/><path fill="#653135" d="M33 49h1v1h-1zM34 49h1v1h-1z"/><path fill="#632E31" d="M9 50h1v1H9z"/><path fill="#562C2E" d="M10 50h1v1h-1z"/><path fill="#472A2A" d="M11 50h1v1h-1z"/><path fill="#452A2A" d="M12 50h1v1h-1z"/><path fill="#8B9498" d="M13 50h1v1h-1z"/><path fill="#452A2A" d="M14 50h1v1h-1zM15 50h1v1h-1z"/><path fill="#472A2A" d="M16 50h1v1h-1z"/><path fill="#432828" d="M17 50h1v1h-1z"/><path fill="#1E3334" d="M20 50h1v1h-1z"/><path fill="#1C3032" d="M21 50h1v1h-1z"/><path fill="#1C3234" d="M22 50h1v1h-1z"/><path fill="#1C3032" d="M23 50h1v1h-1z"/><path fill="#8B9498" d="M24 50h1v1h-1z"/><path fill="#602F33" d="M34 50h1v1h-1z"/><path fill="#683035" d="M35 50h1v1h-1z"/><path fill="#2A6567" d="M5 51h1v1H5zM6 51h1v1H6z"/><path fill="#243A3A" d="M7 51h1v1H7z"/><path fill="#632E31" d="M8 51h1v1H8zM9 51h1v1H9zM10 51h1v1h-1z"/><path fill="#4B2A2B" d="M11 51h1v1h-1z"/><path fill="#492A2A" d="M12 51h1v1h-1z"/><path fill="#8B9498" d="M13 51h1v1h-1z"/><path fill="#1A2729" d="M14 51h1v1h-1z"/><path fill="#1B292B" d="M15 51h1v1h-1z"/><path fill="#432828" d="M17 51h1v1h-1zM18 51h1v1h-1z"/><path fill="#243D3D" d="M19 51h1v1h-1z"/><path fill="#213637" d="M20 51h1v1h-1z"/><path fill="#1E3535" d="M21 51h1v1h-1z"/><path fill="#203C3E" d="M22 51h1v1h-1z"/><path fill="#8B9498" d="M24 51h1v1h-1z"/><path fill="#602F33" d="M34 51h1v1h-1z"/><path fill="#5D2F34" d="M35 51h1v1h-1z"/><path fill="#2A6567" d="M4 52h1v1H4z"/><path fill="#274C4E" d="M5 52h1v1H5z"/><path fill="#244041" d="M6 52h1v1H6z"/><path fill="#733134" d="M7 52h1v1H7z"/><path fill="#7A3237" d="M8 52h1v1H8z"/><path fill="#632D2F" d="M9 52h1v1H9z"/><path fill="#632E31" d="M10 52h1v1h-1z"/><path fill="#7A3237" d="M11 52h1v1h-1z"/><path fill="#1A2729" d="M12 52h1v1h-1z"/><path fill="#8B9498" d="M13 52h1v1h-1z"/><path fill="#1A2729" d="M14 52h1v1h-1z"/><path fill="#1B292B" d="M15 52h1v1h-1zM16 52h1v1h-1z"/><path fill="#1E2F31" d="M17 52h1v1h-1z"/><path fill="#213335" d="M18 52h1v1h-1z"/><path fill="#24393A" d="M19 52h1v1h-1z"/><path fill="#243D3D" d="M20 52h1v1h-1z"/><path fill="#213939" d="M21 52h1v1h-1z"/><path fill="#234545" d="M22 52h1v1h-1z"/><path fill="#6F7578" d="M24 52h1v1h-1z"/><path fill="#4A2A2B" d="M34 52h1v1h-1z"/><path fill="#4F2B2E" d="M35 52h1v1h-1z"/><path fill="#2A6567" d="M4 53h1v1H4z"/><path fill="#274C4E" d="M5 53h1v1H5z"/><path fill="#243C3D" d="M6 53h1v1H6z"/><path fill="#7A3237" d="M7 53h1v1H7z"/><path fill="#6B3031" d="M8 53h1v1H8z"/><path fill="#1C2A2C" d="M9 53h1v1H9z"/><path fill="#733134" d="M10 53h1v1h-1z"/><path fill="#7A3237" d="M11 53h1v1h-1z"/><path fill="#1A2729" d="M12 53h1v1h-1z"/><path fill="#8B9498" d="M13 53h1v1h-1z"/><path fill="#1A2729" d="M14 53h1v1h-1z"/><path fill="#1B292B" d="M15 53h1v1h-1z"/><path fill="#1D2D2F" d="M16 53h1v1h-1z"/><path fill="#213335" d="M17 53h1v1h-1zM18 53h1v1h-1z"/><path fill="#223537" d="M19 53h1v1h-1z"/><path fill="#243C3C" d="M20 53h1v1h-1z"/><path fill="#254142" d="M21 53h1v1h-1z"/><path fill="#432828" d="M22 53h1v1h-1z"/><path fill="#545859" d="M24 53h1v1h-1z"/><path fill="#552B2D" d="M34 53h1v1h-1z"/><path fill="#602D30" d="M35 53h1v1h-1z"/><path fill="#28585A" d="M3 54h1v1H3z"/><path fill="#285254" d="M4 54h1v1H4z"/><path fill="#264547" d="M5 54h1v1H5z"/><path fill="#243B3C" d="M6 54h1v1H6z"/><path fill="#7A3237" d="M7 54h1v1H7z"/><path fill="#233335" d="M8 54h1v1H8z"/><path fill="#1E2C2E" d="M9 54h1v1H9z"/><path fill="#6B3031" d="M10 54h1v1h-1zM11 54h1v1h-1z"/><path fill="#1A2729" d="M12 54h1v1h-1z"/><path fill="#8B9498" d="M13 54h1v1h-1z"/><path fill="#1A2729" d="M14 54h1v1h-1z"/><path fill="#1D2D2F" d="M15 54h1v1h-1z"/><path fill="#1F3032" d="M16 54h1v1h-1z"/><path fill="#213335" d="M17 54h1v1h-1zM18 54h1v1h-1z"/><path fill="#223537" d="M19 54h1v1h-1z"/><path fill="#243E40" d="M20 54h1v1h-1z"/><path fill="#432828" d="M22 54h1v1h-1zM23 54h1v1h-1z"/><path fill="#3F4141" d="M24 54h1v1h-1z"/><path fill="#692D31" d="M34 54h1v1h-1z"/><path fill="#672D32" d="M35 54h1v1h-1z"/><path fill="#295F61" d="M3 55h1v1H3z"/><path fill="#285254" d="M4 55h1v1H4z"/><path fill="#243A3C" d="M5 55h1v1H5z"/><path fill="#243D3E" d="M6 55h1v1H6z"/><path fill="#7A3237" d="M7 55h1v1H7z"/><path fill="#243C3F" d="M8 55h1v1H8z"/><path fill="#1A292B" d="M9 55h1v1H9z"/><path fill="#1A282A" d="M10 55h1v1h-1z"/><path fill="#6B3031" d="M11 55h1v1h-1z"/><path fill="#1A2729" d="M12 55h1v1h-1z"/><path fill="#8B9498" d="M13 55h1v1h-1z"/><path fill="#1A2729" d="M14 55h1v1h-1z"/><path fill="#1C2B2D" d="M15 55h1v1h-1z"/><path fill="#1F3032" d="M16 55h1v1h-1z"/><path fill="#213335" d="M17 55h1v1h-1z"/><path fill="#223D3F" d="M18 55h1v1h-1z"/><path fill="#223C3E" d="M19 55h1v1h-1z"/><path fill="#632E31" d="M23 55h1v1h-1z"/><path fill="#572D30" d="M24 55h1v1h-1z"/><path fill="#683035" d="M25 55h1v1h-1z"/><path fill="#6D2E33" d="M34 55h1v1h-1z"/><path fill="#2A6567" d="M3 56h1v1H3z"/><path fill="#243A3C" d="M4 56h1v1H4z"/><path fill="#6B3031" d="M12 56h1v1h-1z"/><path fill="#8B9498" d="M13 56h1v1h-1z"/><path fill="#1A292B" d="M14 56h1v1h-1z"/><path fill="#1C2F30" d="M15 56h1v1h-1z"/><path fill="#213A3B" d="M16 56h1v1h-1z"/><path fill="#203939" d="M17 56h1v1h-1z"/><path fill="#763237" d="M24 56h1v1h-1z"/><path fill="#7C3339" d="M25 56h1v1h-1z"/><path fill="#653035" d="M26 56h1v1h-1z"/><path fill="#692D31" d="M33 56h1v1h-1z"/><path fill="#6D2E32" d="M34 56h1v1h-1z"/><path fill="#2A6567" d="M3 57h1v1H3z"/><path fill="#8B9498" d="M13 57h1v1h-1z"/><path fill="#6F7578" d="M24 57h1v1h-1z"/><path fill="#863439" d="M25 57h1v1h-1zM26 57h1v1h-1z"/><path fill="#653035" d="M27 57h1v1h-1z"/><path fill="#6E2E33" d="M32 57h1v1h-1z"/><path fill="#692D31" d="M33 57h1v1h-1z"/><path fill="#2A6567" d="M3 58h1v1H3z"/><path fill="#7E868A" d="M13 58h1v1h-1z"/><path fill="#6F7578" d="M24 58h1v1h-1z"/><path fill="#8C343B" d="M26 58h1v1h-1z"/><path fill="#89343A" d="M27 58h1v1h-1z"/><path fill="#653035" d="M28 58h1v1h-1z"/><path fill="#6D3036" d="M29 58h1v1h-1z"/><path fill="#6E2E33" d="M30 58h1v1h-1zM31 58h1v1h-1z"/><path fill="#692D31" d="M32 58h1v1h-1z"/><path fill="#682D30" d="M33 58h1v1h-1z"/><path fill="#243A3C" d="M3 59h1v1H3z"/><path fill="#72787C" d="M13 59h1v1h-1z"/><path fill="#286163" d="M16 59h1v1h-1z"/><path fill="#2A6567" d="M17 59h1v1h-1zM18 59h1v1h-1zM19 59h1v1h-1z"/><path fill="#8B9498" d="M24 59h1v1h-1z"/><path fill="#7C3339" d="M27 59h1v1h-1z"/><path fill="#683135" d="M28 59h1v1h-1z"/><path fill="#623135" d="M29 59h1v1h-1z"/><path fill="#6A2E32" d="M30 59h1v1h-1zM31 59h1v1h-1z"/><path fill="#692D31" d="M32 59h1v1h-1z"/><path fill="#243A3C" d="M3 60h1v1H3z"/><path fill="#1E2E30" d="M4 60h1v1H4z"/><path fill="#676C6F" d="M13 60h1v1h-1z"/><path fill="#274E50" d="M14 60h1v1h-1z"/><path fill="#2A6567" d="M15 60h1v1h-1z"/><path fill="#264D4E" d="M16 60h1v1h-1zM17 60h1v1h-1z"/><path fill="#243A3C" d="M18 60h1v1h-1zM19 60h1v1h-1z"/><path fill="#2A6567" d="M20 60h1v1h-1z"/><path fill="#8B9498" d="M24 60h1v1h-1z"/><path fill="#4E3032" d="M29 60h1v1h-1z"/><path fill="#622D31" d="M30 60h1v1h-1z"/><path fill="#6A2E32" d="M31 60h1v1h-1z"/><path fill="#203738" d="M4 61h1v1H4z"/><path fill="#1E2E30" d="M5 61h1v1H5z"/><path fill="#253E3F" d="M13 61h1v1h-1z"/><path fill="#264546" d="M14 61h1v1h-1z"/><path fill="#274E50" d="M15 61h1v1h-1z"/><path fill="#264A4B" d="M16 61h1v1h-1z"/><path fill="#243A3C" d="M17 61h1v1h-1z"/><path fill="#1D3132" d="M18 61h1v1h-1zM19 61h1v1h-1zM20 61h1v1h-1z"/><path fill="#1E3636" d="M21 61h1v1h-1z"/><path fill="#8B9498" d="M24 61h1v1h-1z"/><path fill="#213A3B" d="M4 62h1v1H4z"/><path fill="#1E2E30" d="M5 62h1v1H5zM6 62h1v1H6z"/><path fill="#253D3D" d="M11 62h1v1h-1z"/><path fill="#253B3B" d="M12 62h1v1h-1zM13 62h1v1h-1z"/><path fill="#264041" d="M14 62h1v1h-1z"/><path fill="#264546" d="M15 62h1v1h-1z"/><path fill="#243A3C" d="M16 62h1v1h-1z"/><path fill="#1D3132" d="M21 62h1v1h-1z"/><path fill="#20383A" d="M22 62h1v1h-1z"/><path fill="#8B9498" d="M24 62h1v1h-1z"/><path fill="#203738" d="M5 63h1v1H5z"/><path fill="#1E2E30" d="M6 63h1v1H6zM7 63h1v1H7z"/><path fill="#203234" d="M9 63h1v1H9z"/><path fill="#233436" d="M10 63h1v1h-1z"/><path fill="#253B3B" d="M11 63h1v1h-1z"/><path fill="#253D3D" d="M12 63h1v1h-1z"/><path fill="#253B3B" d="M13 63h1v1h-1z"/><path fill="#253D3D" d="M14 63h1v1h-1z"/><path fill="#243A3C" d="M15 63h1v1h-1z"/><path fill="#1D3132" d="M22 63h1v1h-1z"/><path fill="#8B9498" d="M24 63h1v1h-1z"/><path fill="#2A6567" d="M5 64h1v1H5z" opacity=".627"/><path fill="#1E2E30" d="M6 64h1v1H6zM7 64h1v1H7zM8 64h1v1H8z"/><path fill="#213335" d="M9 64h1v1H9zM10 64h1v1h-1z"/><path fill="#253B3B" d="M11 64h1v1h-1z"/><path fill="#253D3D" d="M12 64h1v1h-1z"/><path fill="#253B3B" d="M13 64h1v1h-1z"/><path fill="#243A3C" d="M14 64h1v1h-1z"/><path fill="#1D3132" d="M22 64h1v1h-1z"/><path fill="#1E3536" d="M23 64h1v1h-1z"/><path fill="#8B9498" d="M24 64h1v1h-1z"/><path fill="#2A6567" d="M6 65h1v1H6z" opacity=".773"/><path fill="#23484A" d="M7 65h1v1H7z"/><path fill="#1E2E30" d="M8 65h1v1H8z"/><path fill="#1F3032" d="M9 65h1v1H9z"/><path fill="#213335" d="M10 65h1v1h-1z"/><path fill="#24383A" d="M11 65h1v1h-1z"/><path fill="#253839" d="M12 65h1v1h-1z"/><path fill="#3F4141" d="M13 65h1v1h-1z"/><path fill="#1C2E2F" d="M22 65h1v1h-1z"/><path fill="#1C3032" d="M23 65h1v1h-1z"/><path fill="#8B9498" d="M24 65h1v1h-1z"/><path fill="#255254" d="M8 66h1v1H8z"/><path fill="#234A4A" d="M9 66h1v1H9z"/><path fill="#234749" d="M10 66h1v1h-1z"/><path fill="#3F4141" d="M13 66h1v1h-1z"/><path fill="#1B2B2D" d="M22 66h1v1h-1z"/><path fill="#1A282A" d="M23 66h1v1h-1z"/><path fill="#8B9498" d="M24 66h1v1h-1z"/><path fill="#545859" d="M13 67h1v1h-1z"/><path fill="#1A292B" d="M22 67h1v1h-1z"/><path fill="#1A2729" d="M23 67h1v1h-1z"/><path fill="#8B9498" d="M24 67h1v1h-1z"/><path fill="#616566" d="M13 68h1v1h-1z"/><path fill="#1A2B2C" d="M22 68h1v1h-1z"/><path fill="#1A2729" d="M23 68h1v1h-1z"/><path fill="#8B9498" d="M24 68h1v1h-1z"/><path fill="#71777A" d="M13 69h1v1h-1z"/><path fill="#1C3234" d="M22 69h1v1h-1z"/><path fill="#1A2729" d="M23 69h1v1h-1z"/><path fill="#8B9498" d="M24 69h1v1h-1z"/><path fill="#71777A" d="M13 70h1v1h-1z"/><path fill="#253F42" d="M20 70h1v1h-1z"/><path fill="#204042" d="M21 70h1v1h-1z"/><path fill="#1E383A" d="M22 70h1v1h-1z"/><path fill="#1C3032" d="M23 70h1v1h-1z"/><path fill="#8B9498" d="M24 70h1v1h-1z"/><path fill="#707679" d="M13 71h1v1h-1z"/><path fill="#264041" d="M15 71h1v1h-1z"/><path fill="#264243" d="M16 71h1v1h-1z"/><path fill="#264546" d="M17 71h1v1h-1z"/><path fill="#264C4D" d="M18 71h1v1h-1z"/><path fill="#25494A" d="M19 71h1v1h-1zM20 71h1v1h-1z"/><path fill="#243F42" d="M21 71h1v1h-1z"/><path fill="#1E3739" d="M22 71h1v1h-1z"/><path fill="#1D3334" d="M23 71h1v1h-1z"/><path fill="#8B9498" d="M24 71h1v1h-1z"/><path fill="#6C7274" d="M13 72h1v1h-1z"/><path fill="#253B3B" d="M14 72h1v1h-1z"/><path fill="#243A3C" d="M15 72h1v1h-1zM16 72h1v1h-1zM17 72h1v1h-1zM18 72h1v1h-1z"/><path fill="#264A4B" d="M19 72h1v1h-1z"/><path fill="#25494A" d="M20 72h1v1h-1z"/><path fill="#254445" d="M21 72h1v1h-1z"/><path fill="#233C3F" d="M22 72h1v1h-1z"/><path fill="#1E3032" d="M23 72h1v1h-1z"/><path fill="#989FA2" d="M24 72h1v1h-1z"/><path fill="#253B3B" d="M11 73h1v1h-1zM12 73h1v1h-1z"/><path fill="#6C7274" d="M13 73h1v1h-1z"/><path fill="#253B3B" d="M14 73h1v1h-1zM15 73h1v1h-1z"/><path fill="#243A3C" d="M19 73h1v1h-1zM20 73h1v1h-1zM21 73h1v1h-1z"/><path fill="#233839" d="M22 73h1v1h-1z"/><path fill="#989FA2" d="M24 73h1v1h-1z"/><path fill="#253B3B" d="M10 74h1v1h-1z"/><path fill="#4E704E" d="M11 74h1v1h-1z"/><path fill="#4A5D4E" d="M12 74h1v1h-1z"/><path fill="#6A7073" d="M13 74h1v1h-1z"/><path fill="#2E3F2E" d="M14 74h1v1h-1z"/><path fill="#445A44" d="M15 74h1v1h-1z"/><path fill="#989FA2" d="M24 74h1v1h-1z"/><path fill="#527D52" d="M10 75h1v1h-1z"/><path fill="#476147" d="M11 75h1v1h-1z"/><path fill="#364A35" d="M12 75h1v1h-1z"/><path fill="#2C3B2B" d="M13 75h1v1h-1z"/><path fill="#293729" d="M14 75h1v1h-1z"/><path fill="#324432" d="M15 75h1v1h-1z"/><path fill="#476147" d="M16 75h1v1h-1z"/><path fill="#989FA2" d="M24 75h1v1h-1z"/><path fill="#6C757A" d="M8 76h1v1H8z"/><path fill="#455159" d="M9 76h1v1H9z"/><path fill="#2D3544" d="M10 76h1v1h-1z"/><path fill="#4E704E" d="M11 76h1v1h-1z"/><path fill="#476147" d="M12 76h1v1h-1zM13 76h1v1h-1z"/><path fill="#2E3F2E" d="M14 76h1v1h-1zM15 76h1v1h-1z"/><path fill="#222732" d="M16 76h1v1h-1z"/><path fill="#455159" d="M17 76h1v1h-1z"/><path fill="#565F65" d="M18 76h1v1h-1z"/><path fill="#989FA2" d="M24 76h1v1h-1z"/><path fill="#959CA0" d="M7 77h1v1H7z"/><path fill="#AEB5B9" d="M8 77h1v1H8z"/><path fill="#A0A9AD" d="M9 77h1v1H9z"/><path fill="#3C5165" d="M10 77h1v1h-1z"/><path fill="#2D3544" d="M11 77h1v1h-1z"/><path fill="#262C3A" d="M12 77h1v1h-1zM13 77h1v1h-1z"/><path fill="#222732" d="M14 77h1v1h-1z"/><path fill="#222833" d="M15 77h1v1h-1z"/><path fill="#344353" d="M16 77h1v1h-1z"/><path fill="#2E3941" d="M17 77h1v1h-1zM18 77h1v1h-1z"/><path fill="#565F65" d="M19 77h1v1h-1z"/><path fill="#989FA2" d="M24 77h1v1h-1z"/><path fill="#959CA0" d="M7 78h1v1H7z"/><path fill="#A6AEB2" d="M8 78h1v1H8z"/><path fill="#A0A9AD" d="M9 78h1v1H9z"/><path fill="#667680" d="M10 78h1v1h-1z"/><path fill="#475763" d="M11 78h1v1h-1z"/><path fill="#384752" d="M12 78h1v1h-1z"/><path fill="#2E3941" d="M13 78h1v1h-1z"/><path fill="#364856" d="M14 78h1v1h-1z"/><path fill="#3C4F5D" d="M15 78h1v1h-1z"/><path fill="#3F5566" d="M16 78h1v1h-1z"/><path fill="#37444D" d="M17 78h1v1h-1z"/><path fill="#31373B" d="M18 78h1v1h-1z"/><path fill="#6C7275" d="M19 78h1v1h-1z"/><path fill="#989FA2" d="M24 78h1v1h-1z"/><path fill="#9DA4A8" d="M6 79h1v1H6z"/><path fill="#7D8487" d="M7 79h1v1H7zM8 79h1v1H8zM9 79h1v1H9zM10 79h1v1h-1z"/><path fill="#475763" d="M11 79h1v1h-1z"/><path fill="#31373B" d="M12 79h1v1h-1z"/><path fill="#181C1F" d="M13 79h1v1h-1zM14 79h1v1h-1z"/><path fill="#15191D" d="M15 79h1v1h-1zM16 79h1v1h-1z"/><path fill="#495257" d="M17 79h1v1h-1zM18 79h1v1h-1z"/><path fill="#31373B" d="M19 79h1v1h-1z"/><path fill="#6C7275" d="M20 79h1v1h-1z"/><path fill="#A2A8AB" d="M24 79h1v1h-1z"/><path fill="#9DA4A8" d="M6 80h1v1H6z"/><path fill="#495257" d="M7 80h1v1H7z"/><path fill="#7D8487" d="M8 80h1v1H8zM9 80h1v1H9z"/><path fill="#495257" d="M10 80h1v1h-1zM11 80h1v1h-1z"/><path fill="#181C1F" d="M12 80h1v1h-1zM13 80h1v1h-1z"/><path fill="#1C2023" d="M14 80h1v1h-1z"/><path fill="#15191C" d="M15 80h1v1h-1zM16 80h1v1h-1z"/><path fill="#161A20" d="M17 80h1v1h-1z"/><path fill="#6C7275" d="M18 80h1v1h-1z"/><path fill="#31373B" d="M19 80h1v1h-1z"/><path fill="#7D8487" d="M20 80h1v1h-1z"/><path fill="#A2A8AB" d="M24 80h1v1h-1z"/><path fill="#7D8487" d="M6 81h1v1H6z"/><path fill="#495257" d="M7 81h1v1H7zM8 81h1v1H8zM9 81h1v1H9zM10 81h1v1h-1zM11 81h1v1h-1z"/><path fill="#181C1F" d="M12 81h1v1h-1z"/><path fill="#1C2023" d="M13 81h1v1h-1zM14 81h1v1h-1z"/><path fill="#15191C" d="M15 81h1v1h-1zM16 81h1v1h-1z"/><path fill="#171B20" d="M17 81h1v1h-1z"/><path fill="#181C22" d="M18 81h1v1h-1z"/><path fill="#31373B" d="M19 81h1v1h-1z"/><path fill="#8B9295" d="M20 81h1v1h-1z"/><path fill="#A2A8AB" d="M24 81h1v1h-1z"/><path fill="#7D8487" d="M6 82h1v1H6z"/><path fill="#31373B" d="M7 82h1v1H7z"/><path fill="#495257" d="M8 82h1v1H8zM9 82h1v1H9zM10 82h1v1h-1z"/><path fill="#121517" d="M11 82h1v1h-1z"/><path fill="#1C2023" d="M12 82h1v1h-1zM13 82h1v1h-1z"/><path fill="#2C3A44" d="M14 82h1v1h-1z"/><path fill="#161A1E" d="M15 82h1v1h-1zM16 82h1v1h-1z"/><path fill="#171B21" d="M17 82h1v1h-1z"/><path fill="#181C22" d="M18 82h1v1h-1z"/><path fill="#31373B" d="M19 82h1v1h-1z"/><path fill="#959CA0" d="M20 82h1v1h-1z"/><path fill="#A2A8AB" d="M24 82h1v1h-1z"/><path fill="#6C7275" d="M6 83h1v1H6z"/><path fill="#31373B" d="M7 83h1v1H7zM8 83h1v1H8zM9 83h1v1H9zM10 83h1v1h-1z"/><path fill="#121517" d="M11 83h1v1h-1z"/><path fill="#344049" d="M12 83h1v1h-1z"/><path fill="#252E34" d="M13 83h1v1h-1z"/><path fill="#31424E" d="M14 83h1v1h-1z"/><path fill="#14181A" d="M18 83h1v1h-1z"/><path fill="#31373B" d="M19 83h1v1h-1z"/><path fill="#8B9295" d="M20 83h1v1h-1z"/><path fill="#A2A8AB" d="M24 83h1v1h-1z"/><path fill="#495257" d="M7 84h1v1H7zM8 84h1v1H8z"/><path fill="#31373B" d="M9 84h1v1H9zM10 84h1v1h-1z"/><path fill="#15191B" d="M11 84h1v1h-1z"/><path fill="#344049" d="M12 84h1v1h-1z"/><path fill="#252E34" d="M13 84h1v1h-1z"/><path fill="#1E2428" d="M14 84h1v1h-1z"/><path fill="#7D8487" d="M19 84h1v1h-1z"/><path fill="#A2A8AB" d="M24 84h1v1h-1z"/><path fill="#495257" d="M9 85h1v1H9zM10 85h1v1h-1z"/><path fill="#1E2428" d="M12 85h1v1h-1zM13 85h1v1h-1z"/><path fill="#384E5D" d="M14 85h1v1h-1z"/><path fill="#A2A8AB" d="M24 85h1v1h-1z"/><path fill="#344049" d="M12 86h1v1h-1z"/><path fill="#3B4852" d="M13 86h1v1h-1z"/><path fill="#31424E" d="M14 86h1v1h-1z"/><path fill="#A2A8AB" d="M24 86h1v1h-1z"/><path fill="#344049" d="M12 87h1v1h-1z"/><path fill="#252E34" d="M13 87h1v1h-1z"/><path fill="#1E2428" d="M14 87h1v1h-1z"/><path fill="#A2A8AB" d="M24 87h1v1h-1z"/><path fill="#252E34" d="M12 88h1v1h-1z"/><path fill="#1E2428" d="M13 88h1v1h-1z"/><path fill="#31424E" d="M14 88h1v1h-1z"/><path fill="#9FA5A8" d="M24 88h1v1h-1z"/><path fill="#56616A" d="M12 89h1v1h-1z"/><path fill="#3B4852" d="M13 89h1v1h-1z"/><path fill="#3D5567" d="M14 89h1v1h-1z"/><path fill="#9FA5A8" d="M24 89h1v1h-1z"/><path fill="#56616A" d="M12 90h1v1h-1z"/><path fill="#3C4953" d="M13 90h1v1h-1z"/><path fill="#1E2428" d="M14 90h1v1h-1z"/><path fill="#93999C" d="M24 90h1v1h-1z"/><path fill="#252E34" d="M12 91h1v1h-1z"/><path fill="#1E2428" d="M13 91h1v1h-1z"/><path fill="#3B4E5B" d="M14 91h1v1h-1z"/><path fill="#93999C" d="M24 91h1v1h-1z"/><path fill="#57636C" d="M12 92h1v1h-1z"/><path fill="#344049" d="M13 92h1v1h-1z"/><path fill="#39505F" d="M14 92h1v1h-1z"/><path fill="#8D9396" d="M24 92h1v1h-1z"/><path fill="#56616A" d="M12 93h1v1h-1z"/><path fill="#344049" d="M13 93h1v1h-1z"/><path fill="#1E2428" d="M14 93h1v1h-1z"/><path fill="#8A9093" d="M24 93h1v1h-1z"/><path fill="#252E34" d="M12 94h1v1h-1z"/><path fill="#1E2428" d="M13 94h1v1h-1z"/><path fill="#334551" d="M14 94h1v1h-1z"/><path fill="#7F8588" d="M24 94h1v1h-1z"/><path fill="#4D5961" d="M12 95h1v1h-1z"/><path fill="#2B373F" d="M13 95h1v1h-1z"/><path fill="#2E3B44" d="M14 95h1v1h-1z"/><path fill="#6F7578" d="M24 95h1v1h-1z"/><path fill="#3F5566" d="M13 96h1v1h-1z"/><path fill="#B8BBBD" d="M24 96h1v1h-1z"/><path fill="#A6AEB2" d="M12 97h1v1h-1z"/><path fill="#3F5566" d="M13 97h1v1h-1z"/><path fill="#667680" d="M14 97h1v1h-1z"/><path fill="#B8BBBD" d="M23 97h1v1h-1zM24 97h1v1h-1zM25 97h1v1h-1z"/><path fill="#667680" d="M13 98h1v1h-1z"/><path fill="#B8BBBD" d="M24 98h1v1h-1z"/></svg>