<svg xmlns="http://www.w3.org/2000/svg" width="19" height="94" shape-rendering="crispEdges"><path fill="#9D8C88" d="M9 0h1v1H9zM7 1h1v1H7zM8 1h1v1H8zM9 1h1v1H9zM10 1h1v1h-1zM11 1h1v1h-1zM6 2h1v1H6zM7 2h1v1H7z"/><path fill="#83726F" d="M8 2h1v1H8z"/><path fill="#8D7A77" d="M9 2h1v1H9z"/><path fill="#7A6A67" d="M10 2h1v1h-1z"/><path fill="#867472" d="M11 2h1v1h-1z"/><path fill="#B2B290" d="M12 2h1v1h-1z"/><path fill="#2C1A14" d="M13 2h1v1h-1z"/><path fill="#9D9D7A" d="M14 2h1v1h-1z"/><path fill="#998883" d="M2 3h1v1H2z"/><path fill="#9B8985" d="M3 3h1v1H3z"/><path fill="#917E7B" d="M4 3h1v1H4z"/><path fill="#776764" d="M6 3h1v1H6z"/><path fill="#5F4E4B" d="M7 3h1v1H7z"/><path fill="#524947" d="M8 3h1v1H8z"/><path fill="#393130" d="M9 3h1v1H9z"/><path fill="#504645" d="M10 3h1v1h-1z"/><path fill="#4A3F3E" d="M11 3h1v1h-1z"/><path fill="#B2B290" d="M12 3h1v1h-1zM13 3h1v1h-1z"/><path fill="#2C1A14" d="M14 3h1v1h-1z"/><path fill="#828264" d="M15 3h1v1h-1z"/><path fill="#9D8C88" d="M16 3h1v1h-1z"/><path fill="#907B79" d="M1 4h1v1H1z"/><path fill="#90817E" d="M2 4h1v1H2z"/><path fill="#837370" d="M3 4h1v1H3z"/><path fill="#776764" d="M4 4h1v1H4z"/><path fill="#685A56" d="M5 4h1v1H5z"/><path fill="#504543" d="M6 4h1v1H6z"/><path fill="#3B3130" d="M7 4h1v1H7z"/><path fill="#362F2E" d="M8 4h1v1H8z"/><path fill="#322B2A" d="M9 4h1v1H9z"/><path fill="#362F2E" d="M10 4h1v1h-1z"/><path fill="#B2B290" d="M11 4h1v1h-1z"/><path fill="#3E221C" d="M12 4h1v1h-1zM13 4h1v1h-1z"/><path fill="#B2B290" d="M14 4h1v1h-1z"/><path fill="#594E4D" d="M15 4h1v1h-1z"/><path fill="#837673" d="M16 4h1v1h-1z"/><path fill="#9D8C88" d="M17 4h1v1h-1z"/><path fill="#8E7E7B" d="M1 5h1v1H1z"/><path fill="#7F6F6C" d="M2 5h1v1H2z"/><path fill="#594B49" d="M3 5h1v1H3z"/><path fill="#3B3130" d="M4 5h1v1H4zM5 5h1v1H5z"/><path fill="#4A3B37" d="M6 5h1v1H6z"/><path fill="#6E605D" d="M7 5h1v1H7z"/><path fill="#6F615F" d="M8 5h1v1H8z"/><path fill="#3D3534" d="M9 5h1v1H9z"/><path fill="#615451" d="M10 5h1v1h-1z"/><path fill="#B2B290" d="M11 5h1v1h-1zM12 5h1v1h-1zM13 5h1v1h-1z"/><path fill="#828264" d="M14 5h1v1h-1z"/><path fill="#493E3D" d="M15 5h1v1h-1z"/><path fill="#837370" d="M16 5h1v1h-1z"/><path fill="#9D8C88" d="M17 5h1v1h-1z"/><path fill="#7D6B67" d="M1 6h1v1H1z"/><path fill="#685A56" d="M2 6h1v1H2z"/><path fill="#383130" d="M3 6h1v1H3z"/><path fill="#413534" d="M4 6h1v1H4z"/><path fill="#322B2A" d="M5 6h1v1H5z"/><path fill="#6E605D" d="M6 6h1v1H6z"/><path fill="#867773" d="M9 6h1v1H9z"/><path fill="#B2B290" d="M12 6h1v1h-1z"/><path fill="#828264" d="M13 6h1v1h-1z"/><path fill="#2C2524" d="M14 6h1v1h-1z"/><path fill="#4D413E" d="M15 6h1v1h-1z"/><path fill="#74615F" d="M16 6h1v1h-1z"/><path fill="#9D8C88" d="M17 6h1v1h-1z"/><path fill="#B2B290" d="M1 7h1v1H1zM2 7h1v1H2z"/><path fill="#362F2E" d="M3 7h1v1H3z"/><path fill="#493937" d="M4 7h1v1H4z"/><path fill="#5F5250" d="M5 7h1v1H5z"/><path fill="#5C5451" d="M13 7h1v1h-1z"/><path fill="#322B2A" d="M14 7h1v1h-1z"/><path fill="#423735" d="M15 7h1v1h-1z"/><path fill="#796763" d="M16 7h1v1h-1z"/><path fill="#9D8C88" d="M17 7h1v1h-1z"/><path fill="#9D9D7A" d="M1 8h1v1H1z"/><path fill="#979774" d="M2 8h1v1H2z"/><path fill="#2C2524" d="M3 8h1v1H3z"/><path fill="#B2B290" d="M4 8h1v1H4z"/><path fill="#554745" d="M5 8h1v1H5z"/><path fill="#4A4A3D" d="M12 8h1v1h-1z"/><path fill="#4A3F3E" d="M13 8h1v1h-1z"/><path fill="#322B2A" d="M14 8h1v1h-1z"/><path fill="#3C3431" d="M15 8h1v1h-1z"/><path fill="#796763" d="M16 8h1v1h-1z"/><path fill="#9D8C88" d="M17 8h1v1h-1z"/><path fill="#B2B290" d="M1 9h1v1H1z"/><path fill="#381E1A" d="M2 9h1v1H2z"/><path fill="#979774" d="M3 9h1v1H3z"/><path fill="#919170" d="M4 9h1v1H4zM5 9h1v1H5z"/><path fill="#595947" d="M10 9h1v1h-1z"/><path fill="#4A4A3D" d="M11 9h1v1h-1zM12 9h1v1h-1z"/><path fill="#5C5451" d="M13 9h1v1h-1z"/><path fill="#322B2A" d="M14 9h1v1h-1z"/><path fill="#3C3431" d="M15 9h1v1h-1z"/><path fill="#9D9D7A" d="M1 10h1v1H1z"/><path fill="#381E1A" d="M2 10h1v1H2z"/><path fill="#B2B290" d="M3 10h1v1H3z"/><path fill="#321B17" d="M4 10h1v1H4z"/><path fill="#828264" d="M5 10h1v1H5z"/><path fill="#595947" d="M8 10h1v1H8zM9 10h1v1H9zM10 10h1v1h-1zM11 10h1v1h-1z"/><path fill="#4A4A3D" d="M12 10h1v1h-1z"/><path fill="#5C5451" d="M13 10h1v1h-1z"/><path fill="#322B2A" d="M14 10h1v1h-1z"/><path fill="#413634" d="M15 10h1v1h-1z"/><path fill="#6C5C58" d="M16 10h1v1h-1z"/><path fill="#362C2B" d="M1 11h1v1H1z"/><path fill="#9D9D7A" d="M2 11h1v1H2z"/><path fill="#341C17" d="M3 11h1v1H3z"/><path fill="#B2B290" d="M4 11h1v1H4z"/><path fill="#9D9D7A" d="M5 11h1v1H5z"/><path fill="#4A4A3D" d="M6 11h1v1H6z"/><path fill="#595947" d="M7 11h1v1H7zM8 11h1v1H8zM9 11h1v1H9zM10 11h1v1h-1zM11 11h1v1h-1z"/><path fill="#4A4A3D" d="M12 11h1v1h-1z"/><path fill="#675C58" d="M13 11h1v1h-1z"/><path fill="#3F3431" d="M14 11h1v1h-1z"/><path fill="#493C39" d="M15 11h1v1h-1z"/><path fill="#6C5C58" d="M16 11h1v1h-1z"/><path fill="#9D8C88" d="M17 11h1v1h-1z"/><path fill="#635451" d="M1 12h1v1H1z"/><path fill="#372F2E" d="M2 12h1v1H2z"/><path fill="#282221" d="M3 12h1v1H3z"/><path fill="#828264" d="M4 12h1v1H4zM5 12h1v1H5z"/><path fill="#4A4A3D" d="M6 12h1v1H6zM7 12h1v1H7z"/><path fill="#595947" d="M8 12h1v1H8zM9 12h1v1H9zM10 12h1v1h-1zM11 12h1v1h-1z"/><path fill="#4A4A3D" d="M12 12h1v1h-1z"/><path fill="#655855" d="M13 12h1v1h-1z"/><path fill="#493937" d="M14 12h1v1h-1z"/><path fill="#493C39" d="M15 12h1v1h-1z"/><path fill="#6C5C58" d="M16 12h1v1h-1z"/><path fill="#9D8C88" d="M17 12h1v1h-1z"/><path fill="#635451" d="M1 13h1v1H1zM2 13h1v1H2z"/><path fill="#352C2B" d="M3 13h1v1H3z"/><path fill="#2A2221" d="M4 13h1v1H4z"/><path fill="#271F1E" d="M5 13h1v1H5z"/><path fill="#4A4A3D" d="M6 13h1v1H6z"/><path fill="#595947" d="M7 13h1v1H7zM8 13h1v1H8zM9 13h1v1H9zM10 13h1v1h-1z"/><path fill="#5A4E4B" d="M13 13h1v1h-1z"/><path fill="#3F3431" d="M14 13h1v1h-1z"/><path fill="#493C39" d="M15 13h1v1h-1z"/><path fill="#6C5C58" d="M16 13h1v1h-1z"/><path fill="#9D8C88" d="M17 13h1v1h-1z"/><path fill="#B2B290" d="M1 14h1v1H1z"/><path fill="#321B17" d="M2 14h1v1H2z"/><path fill="#B2B290" d="M3 14h1v1H3zM4 14h1v1H4zM5 14h1v1H5z"/><path fill="#4A4A3D" d="M6 14h1v1H6zM7 14h1v1H7z"/><path fill="#595947" d="M8 14h1v1H8z"/><path fill="#514542" d="M13 14h1v1h-1z"/><path fill="#322B2A" d="M14 14h1v1h-1z"/><path fill="#493C39" d="M15 14h1v1h-1z"/><path fill="#6C5C58" d="M16 14h1v1h-1z"/><path fill="#9D8C88" d="M17 14h1v1h-1z"/><path fill="#B2B290" d="M1 15h1v1H1z"/><path fill="#301A15" d="M2 15h1v1H2z"/><path fill="#919170" d="M3 15h1v1H3z"/><path fill="#321B17" d="M4 15h1v1H4zM5 15h1v1H5z"/><path fill="#9D9D7A" d="M6 15h1v1H6zM7 15h1v1H7z"/><path fill="#B2B290" d="M8 15h1v1H8z"/><path fill="#3B3431" d="M13 15h1v1h-1z"/><path fill="#322B2A" d="M14 15h1v1h-1z"/><path fill="#493C39" d="M15 15h1v1h-1z"/><path fill="#6C5C58" d="M16 15h1v1h-1z"/><path fill="#B2B290" d="M1 16h1v1H1zM2 16h1v1H2zM3 16h1v1H3z"/><path fill="#321B17" d="M4 16h1v1H4z"/><path fill="#979774" d="M5 16h1v1H5z"/><path fill="#919170" d="M6 16h1v1H6z"/><path fill="#361D18" d="M7 16h1v1H7z"/><path fill="#979774" d="M8 16h1v1H8zM10 16h1v1h-1z"/><path fill="#9D9D7A" d="M11 16h1v1h-1z"/><path fill="#3E221C" d="M12 16h1v1h-1z"/><path fill="#B2B290" d="M13 16h1v1h-1zM14 16h1v1h-1zM15 16h1v1h-1z"/><path fill="#828264" d="M16 16h1v1h-1z"/><path fill="#9D9D7A" d="M1 17h1v1H1zM2 17h1v1H2z"/><path fill="#2A2221" d="M3 17h1v1H3z"/><path fill="#9D9D7A" d="M4 17h1v1H4zM5 17h1v1H5z"/><path fill="#B2B290" d="M6 17h1v1H6zM7 17h1v1H7z"/><path fill="#361E18" d="M8 17h1v1H8z"/><path fill="#3C221B" d="M9 17h1v1H9z"/><path fill="#9D9D7A" d="M10 17h1v1h-1z"/><path fill="#3D221C" d="M11 17h1v1h-1z"/><path fill="#9D9D7A" d="M12 17h1v1h-1z"/><path fill="#3E221C" d="M13 17h1v1h-1z"/><path fill="#676750" d="M14 17h1v1h-1zM15 17h1v1h-1z"/><path fill="#B2B290" d="M16 17h1v1h-1z"/><path fill="#828264" d="M17 17h1v1h-1z"/><path fill="#554542" d="M2 18h1v1H2z"/><path fill="#2F2827" d="M3 18h1v1H3z"/><path fill="#2A2221" d="M4 18h1v1H4zM5 18h1v1H5z"/><path fill="#828264" d="M6 18h1v1H6zM7 18h1v1H7zM8 18h1v1H8z"/><path fill="#9D9D7A" d="M9 18h1v1H9zM10 18h1v1h-1zM11 18h1v1h-1zM12 18h1v1h-1z"/><path fill="#3D211B" d="M13 18h1v1h-1z"/><path fill="#676750" d="M14 18h1v1h-1z"/><path fill="#341B17" d="M15 18h1v1h-1z"/><path fill="#676750" d="M16 18h1v1h-1z"/><path fill="#301A15" d="M17 18h1v1h-1z"/><path fill="#554542" d="M2 19h1v1H2z"/><path fill="#352C2B" d="M3 19h1v1H3z"/><path fill="#2F2827" d="M4 19h1v1H4z"/><path fill="#271F1E" d="M5 19h1v1H5z"/><path fill="#241D1C" d="M6 19h1v1H6z"/><path fill="#828264" d="M12 19h1v1h-1zM13 19h1v1h-1zM14 19h1v1h-1z"/><path fill="#321B17" d="M15 19h1v1h-1z"/><path fill="#9D9D7A" d="M16 19h1v1h-1z"/><path fill="#301A15" d="M17 19h1v1h-1z"/><path fill="#726461" d="M2 20h1v1H2z"/><path fill="#3D3534" d="M3 20h1v1H3z"/><path fill="#322B2A" d="M4 20h1v1H4z"/><path fill="#302928" d="M5 20h1v1H5z"/><path fill="#423937" d="M6 20h1v1H6z"/><path fill="#372F2E" d="M12 20h1v1h-1z"/><path fill="#2A2221" d="M13 20h1v1h-1z"/><path fill="#342A29" d="M14 20h1v1h-1z"/><path fill="#9D9D7A" d="M15 20h1v1h-1z"/><path fill="#301A15" d="M16 20h1v1h-1z"/><path fill="#828264" d="M17 20h1v1h-1z"/><path fill="#7B6E6B" d="M2 21h1v1H2z"/><path fill="#433937" d="M3 21h1v1H3z"/><path fill="#322B2A" d="M4 21h1v1H4z"/><path fill="#423837" d="M5 21h1v1H5z"/><path fill="#554A47" d="M6 21h1v1H6z"/><path fill="#423837" d="M12 21h1v1h-1z"/><path fill="#3B3231" d="M13 21h1v1h-1z"/><path fill="#423837" d="M14 21h1v1h-1z"/><path fill="#413635" d="M15 21h1v1h-1z"/><path fill="#828264" d="M16 21h1v1h-1zM17 21h1v1h-1z"/><path fill="#736563" d="M2 22h1v1H2z"/><path fill="#584B49" d="M3 22h1v1H3z"/><path fill="#322B2A" d="M4 22h1v1H4z"/><path fill="#423837" d="M5 22h1v1H5z"/><path fill="#655956" d="M6 22h1v1H6z"/><path fill="#4A4A3D" d="M11 22h1v1h-1z"/><path fill="#594D4A" d="M12 22h1v1h-1z"/><path fill="#423837" d="M13 22h1v1h-1z"/><path fill="#322B2A" d="M14 22h1v1h-1z"/><path fill="#39302F" d="M15 22h1v1h-1z"/><path fill="#776864" d="M16 22h1v1h-1z"/><path fill="#8E7E7A" d="M2 23h1v1H2z"/><path fill="#584B49" d="M3 23h1v1H3z"/><path fill="#322B2A" d="M4 23h1v1H4z"/><path fill="#423837" d="M5 23h1v1H5z"/><path fill="#5A4E4B" d="M6 23h1v1H6z"/><path fill="#4A4A3D" d="M10 23h1v1h-1zM11 23h1v1h-1z"/><path fill="#6B5C59" d="M12 23h1v1h-1z"/><path fill="#3B3231" d="M13 23h1v1h-1z"/><path fill="#463C39" d="M14 23h1v1h-1z"/><path fill="#776864" d="M15 23h1v1h-1z"/><path fill="#857672" d="M2 24h1v1H2z"/><path fill="#584B49" d="M3 24h1v1H3z"/><path fill="#322B2A" d="M4 24h1v1H4zM5 24h1v1H5z"/><path fill="#463C3B" d="M6 24h1v1H6z"/><path fill="#595947" d="M8 24h1v1H8zM9 24h1v1H9z"/><path fill="#4A4A3D" d="M10 24h1v1h-1zM11 24h1v1h-1z"/><path fill="#6B5C59" d="M12 24h1v1h-1z"/><path fill="#463B39" d="M13 24h1v1h-1z"/><path fill="#776864" d="M14 24h1v1h-1z"/><path fill="#857672" d="M2 25h1v1H2z"/><path fill="#433937" d="M3 25h1v1H3z"/><path fill="#322B2A" d="M4 25h1v1H4zM5 25h1v1H5z"/><path fill="#463C3B" d="M6 25h1v1H6z"/><path fill="#4A4A3D" d="M7 25h1v1H7zM8 25h1v1H8z"/><path fill="#595947" d="M9 25h1v1H9zM10 25h1v1h-1z"/><path fill="#4A4A3D" d="M11 25h1v1h-1z"/><path fill="#564A47" d="M12 25h1v1h-1z"/><path fill="#39302F" d="M13 25h1v1h-1z"/><path fill="#4D413F" d="M14 25h1v1h-1z"/><path fill="#493C39" d="M15 25h1v1h-1z"/><path fill="#6C5C58" d="M16 25h1v1h-1z"/><path fill="#645654" d="M2 26h1v1H2z"/><path fill="#544643" d="M3 26h1v1H3z"/><path fill="#322B2A" d="M4 26h1v1H4z"/><path fill="#3F3431" d="M5 26h1v1H5z"/><path fill="#564A47" d="M6 26h1v1H6z"/><path fill="#4A4A3D" d="M7 26h1v1H7z"/><path fill="#595947" d="M8 26h1v1H8zM9 26h1v1H9zM10 26h1v1h-1z"/><path fill="#4A4A3D" d="M11 26h1v1h-1z"/><path fill="#463B39" d="M12 26h1v1h-1z"/><path fill="#828264" d="M13 26h1v1h-1zM14 26h1v1h-1z"/><path fill="#676750" d="M15 26h1v1h-1z"/><path fill="#828264" d="M16 26h1v1h-1z"/><path fill="#544643" d="M2 27h1v1H2z"/><path fill="#635451" d="M3 27h1v1H3z"/><path fill="#493937" d="M4 27h1v1H4z"/><path fill="#3F3431" d="M5 27h1v1H5z"/><path fill="#635552" d="M6 27h1v1H6z"/><path fill="#4A4A3D" d="M7 27h1v1H7z"/><path fill="#434337" d="M8 27h1v1H8z"/><path fill="#9D9D7A" d="M9 27h1v1H9zM10 27h1v1h-1zM11 27h1v1h-1zM12 27h1v1h-1zM13 27h1v1h-1z"/><path fill="#321B17" d="M14 27h1v1h-1z"/><path fill="#301A15" d="M15 27h1v1h-1z"/><path fill="#828264" d="M16 27h1v1h-1z"/><path fill="#635451" d="M2 28h1v1H2z"/><path fill="#544643" d="M3 28h1v1H3z"/><path fill="#B2B290" d="M4 28h1v1H4zM5 28h1v1H5zM6 28h1v1H6z"/><path fill="#9D9D7A" d="M7 28h1v1H7zM8 28h1v1H8zM9 28h1v1H9zM10 28h1v1h-1z"/><path fill="#391F1A" d="M11 28h1v1h-1z"/><path fill="#8D8D6C" d="M12 28h1v1h-1z"/><path fill="#341C17" d="M13 28h1v1h-1z"/><path fill="#676750" d="M14 28h1v1h-1z"/><path fill="#321B17" d="M15 28h1v1h-1z"/><path fill="#676750" d="M16 28h1v1h-1z"/><path fill="#B2B290" d="M2 29h1v1H2zM3 29h1v1H3z"/><path fill="#381E1A" d="M4 29h1v1H4z"/><path fill="#B2B290" d="M5 29h1v1H5zM6 29h1v1H6z"/><path fill="#3F231C" d="M7 29h1v1H7z"/><path fill="#979774" d="M8 29h1v1H8z"/><path fill="#361D18" d="M9 29h1v1H9z"/><path fill="#979774" d="M10 29h1v1h-1z"/><path fill="#371E18" d="M11 29h1v1h-1z"/><path fill="#828264" d="M12 29h1v1h-1zM13 29h1v1h-1z"/><path fill="#321B17" d="M14 29h1v1h-1z"/><path fill="#676750" d="M15 29h1v1h-1z"/><path fill="#828264" d="M16 29h1v1h-1z"/><path fill="#B2B290" d="M2 30h1v1H2z"/><path fill="#351C17" d="M3 30h1v1H3z"/><path fill="#B2B290" d="M4 30h1v1H4z"/><path fill="#381E1A" d="M5 30h1v1H5z"/><path fill="#9D9D7A" d="M6 30h1v1H6z"/><path fill="#3F231C" d="M7 30h1v1H7z"/><path fill="#9D9D7A" d="M8 30h1v1H8zM9 30h1v1H9z"/><path fill="#381F1A" d="M10 30h1v1h-1z"/><path fill="#828264" d="M11 30h1v1h-1z"/><path fill="#9D9D7A" d="M12 30h1v1h-1z"/><path fill="#221B1A" d="M13 30h1v1h-1z"/><path fill="#828264" d="M14 30h1v1h-1zM15 30h1v1h-1zM16 30h1v1h-1z"/><path fill="#B2B290" d="M2 31h1v1H2z"/><path fill="#301A15" d="M3 31h1v1H3z"/><path fill="#9D9D7A" d="M4 31h1v1H4zM5 31h1v1H5zM6 31h1v1H6z"/><path fill="#828264" d="M7 31h1v1H7zM8 31h1v1H8zM9 31h1v1H9z"/><path fill="#595947" d="M10 31h1v1h-1z"/><path fill="#4A4A3D" d="M11 31h1v1h-1z"/><path fill="#312827" d="M12 31h1v1h-1z"/><path fill="#281F1E" d="M13 31h1v1h-1z"/><path fill="#2A2221" d="M14 31h1v1h-1zM15 31h1v1h-1z"/><path fill="#312A28" d="M16 31h1v1h-1z"/><path fill="#9D9D7A" d="M2 32h1v1H2zM3 32h1v1H3zM4 32h1v1H4zM5 32h1v1H5z"/><path fill="#2F2725" d="M6 32h1v1H6z"/><path fill="#595947" d="M7 32h1v1H7zM9 32h1v1H9zM10 32h1v1h-1zM11 32h1v1h-1z"/><path fill="#3B312F" d="M12 32h1v1h-1z"/><path fill="#2C2524" d="M13 32h1v1h-1z"/><path fill="#2B2423" d="M14 32h1v1h-1z"/><path fill="#6C5C58" d="M15 32h1v1h-1zM16 32h1v1h-1z"/><path fill="#9D9D7A" d="M2 33h1v1H2z"/><path fill="#2A2221" d="M3 33h1v1H3zM4 33h1v1H4z"/><path fill="#9D9D7A" d="M5 33h1v1H5z"/><path fill="#423837" d="M6 33h1v1H6zM12 33h1v1h-1z"/><path fill="#2C2524" d="M13 33h1v1h-1zM14 33h1v1h-1z"/><path fill="#6C5C58" d="M15 33h1v1h-1z"/><path fill="#9D8C88" d="M16 33h1v1h-1z"/><path fill="#B2B290" d="M2 34h1v1H2z"/><path fill="#919170" d="M3 34h1v1H3zM4 34h1v1H4z"/><path fill="#828264" d="M5 34h1v1H5z"/><path fill="#4A4A3D" d="M6 34h1v1H6zM7 34h1v1H7z"/><path fill="#564A47" d="M13 34h1v1h-1z"/><path fill="#322B2A" d="M14 34h1v1h-1z"/><path fill="#81706C" d="M15 34h1v1h-1z"/><path fill="#9D9D7A" d="M2 35h1v1H2z"/><path fill="#2C1A14" d="M3 35h1v1H3z"/><path fill="#828264" d="M4 35h1v1H4z"/><path fill="#979774" d="M5 35h1v1H5z"/><path fill="#4A4A3D" d="M6 35h1v1H6zM7 35h1v1H7zM8 35h1v1H8z"/><path fill="#595947" d="M9 35h1v1H9z"/><path fill="#5D4E4B" d="M13 35h1v1h-1z"/><path fill="#322B2A" d="M14 35h1v1h-1z"/><path fill="#81706C" d="M15 35h1v1h-1z"/><path fill="#9D9D7A" d="M2 36h1v1H2z"/><path fill="#321C17" d="M3 36h1v1H3z"/><path fill="#9D9D7A" d="M4 36h1v1H4z"/><path fill="#2A2221" d="M5 36h1v1H5z"/><path fill="#4A4A3D" d="M6 36h1v1H6zM7 36h1v1H7z"/><path fill="#595947" d="M8 36h1v1H8zM9 36h1v1H9zM10 36h1v1h-1z"/><path fill="#4A4A3D" d="M11 36h1v1h-1zM12 36h1v1h-1z"/><path fill="#70605D" d="M13 36h1v1h-1z"/><path fill="#372C2A" d="M14 36h1v1h-1z"/><path fill="#81706C" d="M15 36h1v1h-1z"/><path fill="#23120F" d="M2 37h1v1H2z"/><path fill="#9D9D7A" d="M3 37h1v1H3z"/><path fill="#828264" d="M4 37h1v1H4z"/><path fill="#322B2A" d="M5 37h1v1H5z"/><path fill="#70615F" d="M6 37h1v1H6z"/><path fill="#4A4A3D" d="M7 37h1v1H7z"/><path fill="#595947" d="M8 37h1v1H8zM9 37h1v1H9zM10 37h1v1h-1z"/><path fill="#4A4A3D" d="M11 37h1v1h-1z"/><path fill="#7B6B67" d="M12 37h1v1h-1z"/><path fill="#2F2827" d="M13 37h1v1h-1z"/><path fill="#372C2A" d="M14 37h1v1h-1z"/><path fill="#8D7B77" d="M15 37h1v1h-1z"/><path fill="#B2B290" d="M2 38h1v1H2z"/><path fill="#352B2A" d="M3 38h1v1H3z"/><path fill="#2A2221" d="M4 38h1v1H4z"/><path fill="#372C2A" d="M5 38h1v1H5z"/><path fill="#635552" d="M6 38h1v1H6z"/><path fill="#4A4A3D" d="M7 38h1v1H7zM8 38h1v1H8z"/><path fill="#595947" d="M9 38h1v1H9zM10 38h1v1h-1z"/><path fill="#4A4A3D" d="M11 38h1v1h-1z"/><path fill="#70605D" d="M12 38h1v1h-1z"/><path fill="#2F2827" d="M13 38h1v1h-1z"/><path fill="#372C2A" d="M14 38h1v1h-1z"/><path fill="#6C5C58" d="M15 38h1v1h-1z"/><path fill="#524341" d="M3 39h1v1H3z"/><path fill="#372C2A" d="M4 39h1v1H4zM5 39h1v1H5z"/><path fill="#4E4341" d="M6 39h1v1H6z"/><path fill="#4A4A3D" d="M10 39h1v1h-1zM11 39h1v1h-1z"/><path fill="#5D4E4B" d="M12 39h1v1h-1z"/><path fill="#372C2A" d="M13 39h1v1h-1zM14 39h1v1h-1z"/><path fill="#81706C" d="M15 39h1v1h-1z"/><path fill="#635451" d="M3 40h1v1H3z"/><path fill="#372C2A" d="M4 40h1v1H4zM5 40h1v1H5z"/><path fill="#2C2524" d="M6 40h1v1H6z"/><path fill="#3F3736" d="M7 40h1v1H7z"/><path fill="#564946" d="M11 40h1v1h-1z"/><path fill="#2F2724" d="M12 40h1v1h-1z"/><path fill="#372C2A" d="M13 40h1v1h-1z"/><path fill="#2F2827" d="M14 40h1v1h-1z"/><path fill="#6C5C58" d="M15 40h1v1h-1z"/><path fill="#736563" d="M3 41h1v1H3z"/><path fill="#4E413E" d="M4 41h1v1H4z"/><path fill="#2C2524" d="M5 41h1v1H5z"/><path fill="#312928" d="M6 41h1v1H6z"/><path fill="#352C2B" d="M7 41h1v1H7z"/><path fill="#544542" d="M8 41h1v1H8z"/><path fill="#5D4E4B" d="M9 41h1v1H9z"/><path fill="#544542" d="M10 41h1v1h-1z"/><path fill="#2E2424" d="M11 41h1v1h-1zM12 41h1v1h-1z"/><path fill="#2E2724" d="M13 41h1v1h-1z"/><path fill="#372C2A" d="M14 41h1v1h-1z"/><path fill="#6C5C58" d="M15 41h1v1h-1z"/><path fill="#544743" d="M5 42h1v1H5z"/><path fill="#312928" d="M6 42h1v1H6zM7 42h1v1H7zM8 42h1v1H8z"/><path fill="#2C2524" d="M9 42h1v1H9z"/><path fill="#2E2424" d="M10 42h1v1h-1zM11 42h1v1h-1zM12 42h1v1h-1z"/><path fill="#828264" d="M13 42h1v1h-1zM14 42h1v1h-1z"/><path fill="#493C39" d="M6 43h1v1H6z"/><path fill="#312928" d="M7 43h1v1H7zM8 43h1v1H8z"/><path fill="#2C2524" d="M9 43h1v1H9z"/><path fill="#2E2424" d="M10 43h1v1h-1zM11 43h1v1h-1z"/><path fill="#828264" d="M12 43h1v1h-1z"/><path fill="#B2B290" d="M13 43h1v1h-1z"/><path fill="#828264" d="M14 43h1v1h-1z"/><path fill="#85736F" d="M6 44h1v1H6z"/><path fill="#312928" d="M7 44h1v1H7zM8 44h1v1H8z"/><path fill="#2C2524" d="M9 44h1v1H9z"/><path fill="#2E2424" d="M10 44h1v1h-1z"/><path fill="#828264" d="M11 44h1v1h-1z"/><path fill="#B2B290" d="M12 44h1v1h-1z"/><path fill="#341D17" d="M13 44h1v1h-1z"/><path fill="#828264" d="M14 44h1v1h-1z"/><path fill="#74615F" d="M6 45h1v1H6z"/><path fill="#312928" d="M7 45h1v1H7z"/><path fill="#322B2A" d="M8 45h1v1H8z"/><path fill="#4A3D3B" d="M9 45h1v1H9z"/><path fill="#221B1A" d="M10 45h1v1h-1z"/><path fill="#828264" d="M11 45h1v1h-1z"/><path fill="#45251E" d="M12 45h1v1h-1z"/><path fill="#341D17" d="M13 45h1v1h-1z"/><path fill="#828264" d="M14 45h1v1h-1z"/><path fill="#766563" d="M5 46h1v1H5z"/><path fill="#433836" d="M6 46h1v1H6z"/><path fill="#322B2A" d="M7 46h1v1H7z"/><path fill="#372E2E" d="M8 46h1v1H8z"/><path fill="#9D9D7A" d="M9 46h1v1H9z"/><path fill="#3B1F1B" d="M10 46h1v1h-1z"/><path fill="#828264" d="M11 46h1v1h-1zM12 46h1v1h-1zM13 46h1v1h-1zM14 46h1v1h-1z"/><path fill="#74615F" d="M4 47h1v1H4z"/><path fill="#493C39" d="M5 47h1v1H5z"/><path fill="#322B2A" d="M6 47h1v1H6z"/><path fill="#362E2C" d="M7 47h1v1H7z"/><path fill="#979774" d="M8 47h1v1H8z"/><path fill="#3C211B" d="M9 47h1v1H9z"/><path fill="#3B1F1B" d="M10 47h1v1h-1z"/><path fill="#391F1A" d="M11 47h1v1h-1z"/><path fill="#828264" d="M12 47h1v1h-1zM13 47h1v1h-1z"/><path fill="#74615F" d="M14 47h1v1h-1z"/><path fill="#736563" d="M4 48h1v1H4z"/><path fill="#322B2A" d="M5 48h1v1H5z"/><path fill="#362E2C" d="M6 48h1v1H6z"/><path fill="#979774" d="M7 48h1v1H7zM8 48h1v1H8zM9 48h1v1H9zM10 48h1v1h-1z"/><path fill="#9D9D7A" d="M11 48h1v1h-1z"/><path fill="#828264" d="M12 48h1v1h-1z"/><path fill="#322B2A" d="M13 48h1v1h-1z"/><path fill="#7B6B68" d="M14 48h1v1h-1z"/><path fill="#584A47" d="M4 49h1v1H4z"/><path fill="#B2B290" d="M5 49h1v1H5z"/><path fill="#321C17" d="M6 49h1v1H6z"/><path fill="#39211A" d="M7 49h1v1H7z"/><path fill="#9D9D7A" d="M8 49h1v1H8z"/><path fill="#221B1A" d="M9 49h1v1H9zM10 49h1v1h-1z"/><path fill="#9D9D7A" d="M11 49h1v1h-1z"/><path fill="#413431" d="M12 49h1v1h-1z"/><path fill="#322B2A" d="M13 49h1v1h-1z"/><path fill="#7B6B68" d="M14 49h1v1h-1z"/><path fill="#B2B290" d="M4 50h1v1H4z"/><path fill="#919170" d="M5 50h1v1H5z"/><path fill="#B2B290" d="M6 50h1v1H6z"/><path fill="#371F1A" d="M7 50h1v1H7z"/><path fill="#979774" d="M8 50h1v1H8z"/><path fill="#9D9D7A" d="M9 50h1v1H9zM10 50h1v1h-1z"/><path fill="#322B2A" d="M11 50h1v1h-1z"/><path fill="#433734" d="M12 50h1v1h-1z"/><path fill="#322B2A" d="M13 50h1v1h-1z"/><path fill="#867672" d="M14 50h1v1h-1z"/><path fill="#B2B290" d="M4 51h1v1H4z"/><path fill="#351C17" d="M5 51h1v1H5z"/><path fill="#341C17" d="M6 51h1v1H6z"/><path fill="#979774" d="M7 51h1v1H7z"/><path fill="#9D9D7A" d="M8 51h1v1H8z"/><path fill="#281F1E" d="M9 51h1v1H9z"/><path fill="#3F3634" d="M10 51h1v1h-1z"/><path fill="#322B2A" d="M11 51h1v1h-1z"/><path fill="#433734" d="M12 51h1v1h-1z"/><path fill="#493937" d="M13 51h1v1h-1z"/><path fill="#766563" d="M14 51h1v1h-1z"/><path fill="#B2B290" d="M4 52h1v1H4zM5 52h1v1H5z"/><path fill="#979774" d="M6 52h1v1H6z"/><path fill="#9D9D7A" d="M7 52h1v1H7z"/><path fill="#322B2A" d="M8 52h1v1H8z"/><path fill="#4B3F3D" d="M10 52h1v1h-1z"/><path fill="#322B2A" d="M11 52h1v1h-1z"/><path fill="#362E2C" d="M12 52h1v1h-1z"/><path fill="#493937" d="M13 52h1v1h-1z"/><path fill="#584A47" d="M14 52h1v1h-1z"/><path fill="#351C17" d="M4 53h1v1H4z"/><path fill="#979774" d="M5 53h1v1H5z"/><path fill="#9D9D7A" d="M6 53h1v1H6z"/><path fill="#2E2725" d="M7 53h1v1H7z"/><path fill="#3F3736" d="M8 53h1v1H8z"/><path fill="#4B3F3D" d="M10 53h1v1h-1z"/><path fill="#322B2A" d="M11 53h1v1h-1zM12 53h1v1h-1z"/><path fill="#3F3431" d="M13 53h1v1h-1z"/><path fill="#766563" d="M14 53h1v1h-1z"/><path fill="#B2B290" d="M4 54h1v1H4z"/><path fill="#9D9D7A" d="M5 54h1v1H5z"/><path fill="#2B2423" d="M6 54h1v1H6z"/><path fill="#38302E" d="M7 54h1v1H7z"/><path fill="#605150" d="M8 54h1v1H8z"/><path fill="#6A5A58" d="M10 54h1v1h-1z"/><path fill="#322B2A" d="M11 54h1v1h-1z"/><path fill="#5C5451" d="M12 54h1v1h-1z"/><path fill="#B2B290" d="M4 55h1v1H4z"/><path fill="#2E2724" d="M5 55h1v1H5z"/><path fill="#2F2827" d="M6 55h1v1H6z"/><path fill="#322B2A" d="M7 55h1v1H7z"/><path fill="#6A5A58" d="M8 55h1v1H8z"/><path fill="#685856" d="M10 55h1v1h-1z"/><path fill="#322B2A" d="M11 55h1v1h-1zM12 55h1v1h-1z"/><path fill="#6B5C5A" d="M13 55h1v1h-1z"/><path fill="#352C2B" d="M4 56h1v1H4zM5 56h1v1H5z"/><path fill="#322B2A" d="M6 56h1v1H6z"/><path fill="#524543" d="M7 56h1v1H7zM11 56h1v1h-1z"/><path fill="#322B2A" d="M12 56h1v1h-1z"/><path fill="#584A47" d="M13 56h1v1h-1z"/><path fill="#736563" d="M14 56h1v1h-1z"/><path fill="#584A47" d="M4 57h1v1H4zM5 57h1v1H5z"/><path fill="#322B2A" d="M6 57h1v1H6z"/><path fill="#524543" d="M7 57h1v1H7zM11 57h1v1h-1z"/><path fill="#322B2A" d="M12 57h1v1h-1z"/><path fill="#584A47" d="M13 57h1v1h-1z"/><path fill="#867672" d="M14 57h1v1h-1z"/><path fill="#766563" d="M4 58h1v1H4z"/><path fill="#3F3634" d="M5 58h1v1H5z"/><path fill="#352B2A" d="M6 58h1v1H6z"/><path fill="#4E413D" d="M7 58h1v1H7z"/><path fill="#919170" d="M8 58h1v1H8z"/><path fill="#493D3C" d="M11 58h1v1h-1z"/><path fill="#322B2A" d="M12 58h1v1h-1z"/><path fill="#584A47" d="M13 58h1v1h-1z"/><path fill="#766563" d="M14 58h1v1h-1z"/><path fill="#3F3634" d="M5 59h1v1H5z"/><path fill="#9D9D7A" d="M6 59h1v1H6z"/><path fill="#2F2825" d="M7 59h1v1H7z"/><path fill="#9D9D7A" d="M8 59h1v1H8z"/><path fill="#615250" d="M11 59h1v1h-1z"/><path fill="#322B2A" d="M12 59h1v1h-1z"/><path fill="#584A47" d="M13 59h1v1h-1z"/><path fill="#B2B290" d="M5 60h1v1H5z"/><path fill="#979774" d="M6 60h1v1H6z"/><path fill="#321B17" d="M7 60h1v1H7z"/><path fill="#9D9D7A" d="M8 60h1v1H8z"/><path fill="#615250" d="M11 60h1v1h-1z"/><path fill="#322B2A" d="M12 60h1v1h-1z"/><path fill="#584A47" d="M13 60h1v1h-1z"/><path fill="#9D9D7A" d="M4 61h1v1H4z"/><path fill="#321B17" d="M5 61h1v1H5z"/><path fill="#828264" d="M6 61h1v1H6z"/><path fill="#311B16" d="M7 61h1v1H7z"/><path fill="#9D9D7A" d="M8 61h1v1H8z"/><path fill="#4B3F3D" d="M11 61h1v1h-1z"/><path fill="#3F3431" d="M12 61h1v1h-1z"/><path fill="#584A47" d="M13 61h1v1h-1z"/><path fill="#9D9D7A" d="M4 62h1v1H4z"/><path fill="#321B17" d="M5 62h1v1H5z"/><path fill="#828264" d="M6 62h1v1H6z"/><path fill="#9D9D7A" d="M7 62h1v1H7z"/><path fill="#524543" d="M11 62h1v1h-1z"/><path fill="#322B2A" d="M12 62h1v1h-1z"/><path fill="#736563" d="M13 62h1v1h-1z"/><path fill="#B2B290" d="M4 63h1v1H4z"/><path fill="#9D9D7A" d="M5 63h1v1H5z"/><path fill="#221B1A" d="M6 63h1v1H6z"/><path fill="#52423F" d="M12 63h1v1h-1z"/><path fill="#736563" d="M13 63h1v1h-1z"/><path fill="#B2B290" d="M4 64h1v1H4z"/><path fill="#281F1E" d="M5 64h1v1H5z"/><path fill="#493D3C" d="M6 64h1v1H6z"/><path fill="#16161C" d="M9 64h1v1H9z"/><path fill="#5A4A47" d="M12 64h1v1h-1z"/><path fill="#736563" d="M13 64h1v1h-1z"/><path fill="#9D9D7A" d="M4 65h1v1H4z"/><path fill="#2B2423" d="M5 65h1v1H5z"/><path fill="#524543" d="M6 65h1v1H6z"/><path fill="#16161C" d="M8 65h1v1H8z"/><path fill="#B35D65" d="M9 65h1v1H9z"/><path fill="#16161C" d="M10 65h1v1h-1z"/><path fill="#5A4B4A" d="M12 65h1v1h-1z"/><path fill="#736563" d="M13 65h1v1h-1z"/><path fill="#281F1E" d="M4 66h1v1H4z"/><path fill="#2B2423" d="M5 66h1v1H5z"/><path fill="#3F3431" d="M6 66h1v1H6z"/><path fill="#B35D65" d="M8 66h1v1H8z"/><path fill="#EF7982" d="M9 66h1v1H9z"/><path fill="#883F45" d="M10 66h1v1h-1z"/><path fill="#3F3431" d="M12 66h1v1h-1z"/><path fill="#736563" d="M13 66h1v1h-1z"/><path fill="#2F3441" d="M2 67h1v1H2z"/><path fill="#2B2423" d="M4 67h1v1H4z"/><path fill="#352B2A" d="M5 67h1v1H5z"/><path fill="#3F3431" d="M6 67h1v1H6z"/><path fill="#16161C" d="M7 67h1v1H7z"/><path fill="#883F45" d="M8 67h1v1H8z"/><path fill="#452427" d="M9 67h1v1H9z"/><path fill="#632C30" d="M10 67h1v1h-1z"/><path fill="#16161C" d="M11 67h1v1h-1z"/><path fill="#3F3431" d="M12 67h1v1h-1zM13 67h1v1h-1z"/><path fill="#493D3C" d="M14 67h1v1h-1z"/><path fill="#2F3441" d="M16 67h1v1h-1zM1 68h1v1H1z"/><path fill="#171721" d="M2 68h1v1H2z"/><path fill="#2F3441" d="M3 68h1v1H3z"/><path fill="#161A21" d="M4 68h1v1H4z"/><path fill="#161A1F" d="M5 68h1v1H5z"/><path fill="#16161C" d="M6 68h1v1H6zM7 68h1v1H7z"/><path fill="#883F45" d="M8 68h1v1H8z"/><path fill="#452427" d="M9 68h1v1H9zM10 68h1v1h-1z"/><path fill="#16161C" d="M11 68h1v1h-1zM12 68h1v1h-1zM13 68h1v1h-1z"/><path fill="#161A21" d="M14 68h1v1h-1z"/><path fill="#292C39" d="M15 68h1v1h-1z"/><path fill="#16161C" d="M16 68h1v1h-1z"/><path fill="#2F3441" d="M17 68h1v1h-1z"/><path fill="#2A231A" d="M1 69h1v1H1z"/><path fill="#16161C" d="M2 69h1v1H2z"/><path fill="#171A21" d="M3 69h1v1H3zM4 69h1v1H4z"/><path fill="#883F45" d="M5 69h1v1H5z"/><path fill="#632C30" d="M6 69h1v1H6z"/><path fill="#161A21" d="M7 69h1v1H7zM8 69h1v1H8z"/><path fill="#452427" d="M9 69h1v1H9z"/><path fill="#161A21" d="M10 69h1v1h-1zM11 69h1v1h-1z"/><path fill="#883F45" d="M12 69h1v1h-1z"/><path fill="#632C30" d="M13 69h1v1h-1z"/><path fill="#16161C" d="M14 69h1v1h-1z"/><path fill="#161A21" d="M15 69h1v1h-1z"/><path fill="#16161C" d="M16 69h1v1h-1z"/><path fill="#21222A" d="M17 69h1v1h-1z"/><path fill="#A37F6E" d="M0 70h1v1H0z"/><path fill="#21232E" d="M2 70h1v1H2z"/><path fill="#15151B" d="M3 70h1v1H3z"/><path fill="#161A21" d="M4 70h1v1H4z"/><path fill="#16161C" d="M5 70h1v1H5z"/><path fill="#452427" d="M6 70h1v1H6z"/><path fill="#161A21" d="M7 70h1v1H7zM8 70h1v1H8z"/><path fill="#4D3C38" d="M9 70h1v1H9z"/><path fill="#161A21" d="M10 70h1v1h-1zM11 70h1v1h-1z"/><path fill="#452427" d="M12 70h1v1h-1z"/><path fill="#16161C" d="M13 70h1v1h-1z"/><path fill="#161A21" d="M14 70h1v1h-1zM15 70h1v1h-1z"/><path fill="#21222A" d="M16 70h1v1h-1z"/><path fill="#2F281E" d="M17 70h1v1h-1z"/><path fill="#72584B" d="M0 71h1v1H0z"/><path fill="#2A231A" d="M3 71h1v1H3z"/><path fill="#16161C" d="M4 71h1v1H4z"/><path fill="#15151B" d="M5 71h1v1H5zM6 71h1v1H6zM7 71h1v1H7z"/><path fill="#322B2A" d="M8 71h1v1H8zM9 71h1v1H9zM10 71h1v1h-1z"/><path fill="#15151B" d="M11 71h1v1h-1zM12 71h1v1h-1zM13 71h1v1h-1z"/><path fill="#16161C" d="M14 71h1v1h-1z"/><path fill="#544238" d="M17 71h1v1h-1z"/><path fill="#45382F" d="M0 72h1v1H0z"/><path fill="#2A231A" d="M3 72h1v1H3z"/><path fill="#3D3D35" d="M7 72h1v1H7z"/><path fill="#16161C" d="M8 72h1v1H8z"/><path fill="#1D1F28" d="M9 72h1v1H9z"/><path fill="#16161C" d="M10 72h1v1h-1z"/><path fill="#3D3D35" d="M11 72h1v1h-1z"/><path fill="#3E322E" d="M16 72h1v1h-1z"/><path fill="#312A21" d="M17 72h1v1h-1z"/><path fill="#5F4D42" d="M18 72h1v1h-1z"/><path fill="#2A231A" d="M0 73h1v1H0z"/><path fill="#3E322E" d="M3 73h1v1H3z"/><path fill="#83856A" d="M7 73h1v1H7z"/><path fill="#16161C" d="M8 73h1v1H8z"/><path fill="#161A21" d="M9 73h1v1H9z"/><path fill="#16161C" d="M10 73h1v1h-1z"/><path fill="#828264" d="M11 73h1v1h-1z"/><path fill="#644E43" d="M16 73h1v1h-1z"/><path fill="#544238" d="M18 73h1v1h-1z"/><path fill="#2A231A" d="M1 74h1v1H1z"/><path fill="#3E322E" d="M2 74h1v1H2z"/><path fill="#282F30" d="M7 74h1v1H7z"/><path fill="#3D3D35" d="M8 74h1v1H8z"/><path fill="#16161C" d="M9 74h1v1H9z"/><path fill="#9D9D7A" d="M10 74h1v1h-1z"/><path fill="#828264" d="M11 74h1v1h-1z"/><path fill="#6F5549" d="M16 74h1v1h-1z"/><path fill="#2F281E" d="M18 74h1v1h-1z"/><path fill="#9D9D7A" d="M8 75h1v1H8zM9 75h1v1H9z"/><path fill="#321B17" d="M10 75h1v1h-1zM11 75h1v1h-1z"/><path fill="#2F281E" d="M16 75h1v1h-1z"/><path fill="#2F231E" d="M17 75h1v1h-1z"/><path fill="#2F281E" d="M18 75h1v1h-1z"/><path fill="#B2B290" d="M8 76h1v1H8zM9 76h1v1H9z"/><path fill="#45251E" d="M10 76h1v1h-1z"/><path fill="#9D9D7A" d="M11 76h1v1h-1z"/><path fill="#2F281E" d="M17 76h1v1h-1z"/><path fill="#614E4B" d="M6 77h1v1H6z"/><path fill="#2A2529" d="M7 77h1v1H7z"/><path fill="#9D9D7A" d="M8 77h1v1H8z"/><path fill="#3D3D35" d="M9 77h1v1H9zM10 77h1v1h-1z"/><path fill="#322B2A" d="M11 77h1v1h-1z"/><path fill="#4E413E" d="M12 77h1v1h-1z"/><path fill="#685451" d="M13 77h1v1h-1z"/><path fill="#54463C" d="M17 77h1v1h-1z"/><path fill="#614E4B" d="M4 78h1v1H4z"/><path fill="#6B5854" d="M5 78h1v1H5z"/><path fill="#4E413E" d="M6 78h1v1H6z"/><path fill="#322B2A" d="M7 78h1v1H7z"/><path fill="#2A2529" d="M8 78h1v1H8z"/><path fill="#3D3D35" d="M9 78h1v1H9z"/><path fill="#9D9D7A" d="M10 78h1v1h-1z"/><path fill="#3E322E" d="M16 78h1v1h-1z"/><path fill="#362A25" d="M17 78h1v1h-1z"/><path fill="#503E35" d="M18 78h1v1h-1z"/><path fill="#3D3D35" d="M8 79h1v1H8z"/><path fill="#828265" d="M9 79h1v1H9z"/><path fill="#9D9D7A" d="M10 79h1v1h-1z"/><path fill="#997464" d="M16 79h1v1h-1z"/><path fill="#493834" d="M18 79h1v1h-1z"/><path fill="#614E4B" d="M7 80h1v1H7z"/><path fill="#321B17" d="M8 80h1v1H8z"/><path fill="#9D9D7A" d="M9 80h1v1H9zM10 80h1v1h-1z"/><path fill="#614E4B" d="M11 80h1v1h-1z"/><path fill="#6F5549" d="M16 80h1v1h-1z"/><path fill="#2F281E" d="M18 80h1v1h-1z"/><path fill="#9D9D7A" d="M8 81h1v1H8zM9 81h1v1H9z"/><path fill="#2A2529" d="M10 81h1v1h-1zM11 81h1v1h-1z"/><path fill="#614E4B" d="M12 81h1v1h-1zM13 81h1v1h-1z"/><path fill="#312A21" d="M16 81h1v1h-1z"/><path fill="#2F231E" d="M17 81h1v1h-1z"/><path fill="#2F281E" d="M18 81h1v1h-1z"/><path fill="#322B2A" d="M7 82h1v1H7z"/><path fill="#9D9D7A" d="M8 82h1v1H8z"/><path fill="#3D3D35" d="M9 82h1v1H9zM10 82h1v1h-1z"/><path fill="#614E4B" d="M5 83h1v1H5z"/><path fill="#2A2529" d="M6 83h1v1H6zM7 83h1v1H7z"/><path fill="#3D3D35" d="M8 83h1v1H8z"/><path fill="#45251E" d="M9 83h1v1H9z"/><path fill="#9D9D7A" d="M10 83h1v1h-1z"/><path fill="#4E413E" d="M11 83h1v1h-1z"/><path fill="#B2B290" d="M8 84h1v1H8z"/><path fill="#45251E" d="M9 84h1v1H9z"/><path fill="#9D9D7A" d="M10 84h1v1h-1z"/><path fill="#321B17" d="M8 85h1v1H8z"/><path fill="#9D9D7A" d="M9 85h1v1H9z"/><path fill="#585947" d="M10 85h1v1h-1z"/><path fill="#4E413E" d="M11 85h1v1h-1zM12 85h1v1h-1zM7 86h1v1H7z"/><path fill="#2C2A3D" d="M8 86h1v1H8z"/><path fill="#9D9D7A" d="M9 86h1v1H9z"/><path fill="#321B17" d="M10 86h1v1h-1z"/><path fill="#2C2937" d="M8 87h1v1H8zM9 87h1v1H9z"/><path fill="#9D9D7A" d="M10 87h1v1h-1z"/><path fill="#F8F8BD" d="M8 88h1v1H8zM9 88h1v1H9zM10 88h1v1h-1zM7 89h1v1H7zM8 89h1v1H8zM9 89h1v1H9z"/><path fill="#9C9C74" d="M10 89h1v1h-1zM11 89h1v1h-1z"/><path fill="#1C1C1B" d="M7 90h1v1H7zM8 90h1v1H8z"/><path fill="#9C9C74" d="M9 90h1v1H9z"/><path fill="#1C1C1B" d="M10 90h1v1h-1zM11 90h1v1h-1z"/><path fill="#F8F8BD" d="M7 91h1v1H7zM8 91h1v1H8z"/><path fill="#1C1C1B" d="M9 91h1v1H9z"/><path fill="#9C9C74" d="M10 91h1v1h-1zM11 91h1v1h-1z"/><path fill="#F8F8BD" d="M8 92h1v1H8z"/><path fill="#9C9C74" d="M9 92h1v1H9zM10 92h1v1h-1z"/><path fill="#FFFFDC" d="M8 93h1v1H8z"/><path fill="#9C9C74" d="M9 93h1v1H9z"/><path fill="#F8F8BD" d="M10 93h1v1h-1z"/></svg>