<svg xmlns="http://www.w3.org/2000/svg" width="16" height="90" shape-rendering="crispEdges"><path fill="#5C4474" d="M7 0h1v1H7z"/><path fill="#45325A" d="M7 1h1v1H7z"/><path fill="#272726" d="M8 1h1v1H8z"/><path fill="#583F71" d="M6 2h1v1H6z"/><path fill="#22132D" d="M7 2h1v1H7z"/><path fill="#67339A" d="M8 2h1v1H8z"/><path fill="#583F71" d="M6 3h1v1H6z"/><path fill="#41186E" d="M7 3h1v1H7z"/><path fill="#67339A" d="M8 3h1v1H8z"/><path fill="#402D55" d="M5 4h1v1H5z"/><path fill="#583F71" d="M6 4h1v1H6z"/><path fill="#41186E" d="M7 4h1v1H7z"/><path fill="#1C1422" d="M8 4h1v1H8z"/><path fill="#67339A" d="M9 4h1v1H9z"/><path fill="#7D5E9C" d="M5 5h1v1H5z"/><path fill="#9471B8" d="M6 5h1v1H6z"/><path fill="#41186E" d="M7 5h1v1H7z"/><path fill="#1C1422" d="M8 5h1v1H8z"/><path fill="#67339A" d="M9 5h1v1H9z"/><path fill="#694D84" d="M4 6h1v1H4z"/><path fill="#9471B8" d="M5 6h1v1H5z"/><path fill="#22132D" d="M6 6h1v1H6z"/><path fill="#41186E" d="M7 6h1v1H7z"/><path fill="#150E1B" d="M8 6h1v1H8zM9 6h1v1H9z"/><path fill="#3D1961" d="M10 6h1v1h-1z"/><path fill="#745792" d="M4 7h1v1H4z"/><path fill="#22132D" d="M5 7h1v1H5zM6 7h1v1H6z"/><path fill="#592F82" d="M7 7h1v1H7z"/><path fill="#150E1B" d="M8 7h1v1H8zM9 7h1v1H9z"/><path fill="#3D1961" d="M10 7h1v1h-1z"/><path fill="#583F71" d="M4 8h1v1H4z"/><path fill="#2C1445" d="M5 8h1v1H5z"/><path fill="#2F2553" d="M6 8h1v1H6z"/><path fill="#9471B8" d="M7 8h1v1H7z"/><path fill="#150E1B" d="M8 8h1v1H8z"/><path fill="#1F162C" d="M9 8h1v1H9z"/><path fill="#3D1961" d="M10 8h1v1h-1z"/><path fill="#4C3970" d="M4 9h1v1H4z"/><path fill="#2F2553" d="M5 9h1v1H5z"/><path fill="#9471B8" d="M6 9h1v1H6zM7 9h1v1H7z"/><path fill="#150E1B" d="M8 9h1v1H8z"/><path fill="#2A2147" d="M9 9h1v1H9z"/><path fill="#3D1961" d="M10 9h1v1h-1z"/><path fill="#604983" d="M3 10h1v1H3z"/><path fill="#2F2553" d="M4 10h1v1H4z"/><path fill="#9471B8" d="M5 10h1v1H5zM6 10h1v1H6z"/><path fill="#41186E" d="M7 10h1v1H7z"/><path fill="#1F162C" d="M8 10h1v1H8z"/><path fill="#2B2248" d="M9 10h1v1H9z"/><path fill="#271F3B" d="M10 10h1v1h-1z"/><path fill="#3D1961" d="M11 10h1v1h-1z"/><path fill="#604983" d="M3 11h1v1H3z"/><path fill="#9471B8" d="M4 11h1v1H4zM5 11h1v1H5z"/><path fill="#41186E" d="M6 11h1v1H6zM7 11h1v1H7z"/><path fill="#1F162C" d="M8 11h1v1H8z"/><path fill="#281F41" d="M9 11h1v1H9z"/><path fill="#292043" d="M10 11h1v1h-1z"/><path fill="#3D1961" d="M11 11h1v1h-1z"/><path fill="#9471B8" d="M3 12h1v1H3zM4 12h1v1H4z"/><path fill="#2F2553" d="M5 12h1v1H5z"/><path fill="#41186E" d="M6 12h1v1H6z"/><path fill="#3D1961" d="M7 12h1v1H7z"/><path fill="#150E1B" d="M8 12h1v1H8z"/><path fill="#1F162C" d="M9 12h1v1H9z"/><path fill="#271F3B" d="M10 12h1v1h-1z"/><path fill="#3D1961" d="M11 12h1v1h-1z"/><path fill="#9471B8" d="M3 13h1v1H3z"/><path fill="#2F2553" d="M4 13h1v1H4z"/><path fill="#41186E" d="M5 13h1v1H5zM6 13h1v1H6z"/><path fill="#3D1961" d="M7 13h1v1H7z"/><path fill="#150E1B" d="M8 13h1v1H8z"/><path fill="#1F162C" d="M9 13h1v1H9z"/><path fill="#231A30" d="M10 13h1v1h-1z"/><path fill="#3D1961" d="M11 13h1v1h-1z"/><path fill="#22132D" d="M3 14h1v1H3zM4 14h1v1H4z"/><path fill="#41186E" d="M5 14h1v1H5zM6 14h1v1H6z"/><path fill="#754E9C" d="M7 14h1v1H7z"/><path fill="#150E1B" d="M8 14h1v1H8zM9 14h1v1H9z"/><path fill="#1C1422" d="M10 14h1v1h-1z"/><path fill="#3D1961" d="M11 14h1v1h-1z"/><path fill="#22132D" d="M2 15h1v1H2zM3 15h1v1H3zM4 15h1v1H4z"/><path fill="#41186E" d="M5 15h1v1H5z"/><path fill="#2E144C" d="M6 15h1v1H6z"/><path fill="#654B7C" d="M7 15h1v1H7z"/><path fill="#150E1B" d="M8 15h1v1H8z"/><path fill="#192226" d="M9 15h1v1H9z"/><path fill="#150E1B" d="M10 15h1v1h-1z"/><path fill="#1C1422" d="M11 15h1v1h-1z"/><path fill="#3D1961" d="M12 15h1v1h-1z"/><path fill="#180E1F" d="M2 16h1v1H2z"/><path fill="#2C1445" d="M3 16h1v1H3zM4 16h1v1H4z"/><path fill="#22132D" d="M5 16h1v1H5z"/><path fill="#2E144C" d="M6 16h1v1H6z"/><path fill="#654B7C" d="M7 16h1v1H7z"/><path fill="#150E1B" d="M8 16h1v1H8z"/><path fill="#192226" d="M9 16h1v1H9z"/><path fill="#1C1422" d="M10 16h1v1h-1zM11 16h1v1h-1z"/><path fill="#271F3B" d="M12 16h1v1h-1z"/><path fill="#180E1F" d="M2 17h1v1H2zM3 17h1v1H3z"/><path fill="#271139" d="M4 17h1v1H4z"/><path fill="#331554" d="M5 17h1v1H5z"/><path fill="#311450" d="M6 17h1v1H6z"/><path fill="#3D1961" d="M7 17h1v1H7z"/><path fill="#150E1B" d="M8 17h1v1H8z"/><path fill="#212F31" d="M9 17h1v1H9z"/><path fill="#1C1422" d="M10 17h1v1h-1z"/><path fill="#150E1B" d="M11 17h1v1h-1z"/><path fill="#3D1961" d="M12 17h1v1h-1z"/><path fill="#150E1B" d="M2 18h1v1H2zM3 18h1v1H3zM4 18h1v1H4z"/><path fill="#261138" d="M5 18h1v1H5z"/><path fill="#3D1961" d="M6 18h1v1H6zM7 18h1v1H7z"/><path fill="#1C1422" d="M8 18h1v1H8z"/><path fill="#1C2C2D" d="M9 18h1v1H9z"/><path fill="#150E1B" d="M10 18h1v1h-1z"/><path fill="#272E38" d="M11 18h1v1h-1z"/><path fill="#3D1961" d="M12 18h1v1h-1z"/><path fill="#150E1B" d="M2 19h1v1H2z"/><path fill="#412066" d="M3 19h1v1H3z"/><path fill="#22112F" d="M4 19h1v1H4z"/><path fill="#150E1B" d="M5 19h1v1H5z"/><path fill="#442C5C" d="M6 19h1v1H6z"/><path fill="#502D73" d="M7 19h1v1H7z"/><path fill="#150E1B" d="M8 19h1v1H8z"/><path fill="#212F31" d="M9 19h1v1H9z"/><path fill="#2D2C47" d="M10 19h1v1h-1z"/><path fill="#2C3F41" d="M11 19h1v1h-1z"/><path fill="#3D1961" d="M12 19h1v1h-1z"/><path fill="#150E1B" d="M2 20h1v1H2z"/><path fill="#5A2B89" d="M3 20h1v1H3z"/><path fill="#452368" d="M4 20h1v1H4z"/><path fill="#382A46" d="M5 20h1v1H5z"/><path fill="#523D66" d="M6 20h1v1H6z"/><path fill="#65408A" d="M7 20h1v1H7z"/><path fill="#3C2D4B" d="M8 20h1v1H8z"/><path fill="#304051" d="M9 20h1v1H9z"/><path fill="#261434" d="M10 20h1v1h-1z"/><path fill="#32534C" d="M11 20h1v1h-1z"/><path fill="#3D1961" d="M12 20h1v1h-1z"/><path fill="#150E1B" d="M2 21h1v1H2z"/><path fill="#3B1F5B" d="M3 21h1v1H3z"/><path fill="#281836" d="M4 21h1v1H4z"/><path fill="#442C5C" d="M5 21h1v1H5z"/><path fill="#382A46" d="M6 21h1v1H6z"/><path fill="#7E5E9F" d="M7 21h1v1H7z"/><path fill="#3C3F4E" d="M8 21h1v1H8z"/><path fill="#345754" d="M9 21h1v1H9z"/><path fill="#273838" d="M10 21h1v1h-1z"/><path fill="#34594F" d="M11 21h1v1h-1z"/><path fill="#3D1961" d="M12 21h1v1h-1z"/><path fill="#150E1B" d="M2 22h1v1H2z"/><path fill="#191020" d="M3 22h1v1H3z"/><path fill="#2A1243" d="M4 22h1v1H4z"/><path fill="#2D1247" d="M5 22h1v1H5z"/><path fill="#5D3F79" d="M6 22h1v1H6z"/><path fill="#38374C" d="M7 22h1v1H7z"/><path fill="#2C4641" d="M8 22h1v1H8z"/><path fill="#366154" d="M9 22h1v1H9z"/><path fill="#2C4641" d="M10 22h1v1h-1z"/><path fill="#32534C" d="M11 22h1v1h-1z"/><path fill="#3D1961" d="M12 22h1v1h-1z"/><path fill="#191020" d="M3 23h1v1H3z"/><path fill="#251136" d="M4 23h1v1H4z"/><path fill="#351459" d="M5 23h1v1H5z"/><path fill="#2E134C" d="M6 23h1v1H6z"/><path fill="#374150" d="M7 23h1v1H7z"/><path fill="#2F5047" d="M8 23h1v1H8z"/><path fill="#345F51" d="M9 23h1v1H9z"/><path fill="#2F5047" d="M10 23h1v1h-1z"/><path fill="#3D1961" d="M11 23h1v1h-1z"/><path fill="#191020" d="M3 24h1v1H3z"/><path fill="#2C1245" d="M4 24h1v1H4z"/><path fill="#2D1247" d="M5 24h1v1H5z"/><path fill="#3D1961" d="M6 24h1v1H6z"/><path fill="#374150" d="M7 24h1v1H7z"/><path fill="#32594D" d="M8 24h1v1H8z"/><path fill="#2F5449" d="M9 24h1v1H9z"/><path fill="#1F252B" d="M10 24h1v1h-1z"/><path fill="#3D1961" d="M11 24h1v1h-1z"/><path fill="#150E1B" d="M3 25h1v1H3z"/><path fill="#26113A" d="M4 25h1v1H4z"/><path fill="#2D1247" d="M5 25h1v1H5z"/><path fill="#291240" d="M6 25h1v1H6z"/><path fill="#38374C" d="M7 25h1v1H7z"/><path fill="#33594D" d="M8 25h1v1H8z"/><path fill="#212F31" d="M9 25h1v1H9z"/><path fill="#1F252B" d="M10 25h1v1h-1z"/><path fill="#67339A" d="M11 25h1v1h-1z"/><path fill="#150E1B" d="M3 26h1v1H3z"/><path fill="#3D1961" d="M4 26h1v1H4z"/><path fill="#261138" d="M5 26h1v1H5z"/><path fill="#22112F" d="M6 26h1v1H6z"/><path fill="#38374C" d="M7 26h1v1H7z"/><path fill="#1C1422" d="M8 26h1v1H8z"/><path fill="#1F252B" d="M9 26h1v1H9z"/><path fill="#2D254A" d="M10 26h1v1h-1z"/><path fill="#9471B8" d="M11 26h1v1h-1z"/><path fill="#150E1B" d="M3 27h1v1H3z"/><path fill="#1B1023" d="M4 27h1v1H4z"/><path fill="#251136" d="M5 27h1v1H5z"/><path fill="#232338" d="M6 27h1v1H6z"/><path fill="#150E1B" d="M7 27h1v1H7z"/><path fill="#1C1422" d="M8 27h1v1H8z"/><path fill="#1F252B" d="M9 27h1v1H9z"/><path fill="#2D254A" d="M10 27h1v1h-1z"/><path fill="#9471B8" d="M11 27h1v1h-1z"/><path fill="#150E1B" d="M3 28h1v1H3z"/><path fill="#3D1961" d="M4 28h1v1H4z"/><path fill="#251136" d="M5 28h1v1H5z"/><path fill="#242D3E" d="M6 28h1v1H6z"/><path fill="#150E1B" d="M7 28h1v1H7z"/><path fill="#1C1422" d="M8 28h1v1H8z"/><path fill="#3D1961" d="M9 28h1v1H9z"/><path fill="#231A30" d="M10 28h1v1h-1z"/><path fill="#67339A" d="M11 28h1v1h-1z"/><path fill="#150E1B" d="M3 29h1v1H3z"/><path fill="#3D1961" d="M4 29h1v1H4z"/><path fill="#26233E" d="M5 29h1v1H5z"/><path fill="#3C2863" d="M6 29h1v1H6z"/><path fill="#483559" d="M7 29h1v1H7z"/><path fill="#1C1422" d="M8 29h1v1H8z"/><path fill="#3D1961" d="M9 29h1v1H9z"/><path fill="#231A30" d="M10 29h1v1h-1z"/><path fill="#67339A" d="M11 29h1v1h-1z"/><path fill="#150E1B" d="M3 30h1v1H3z"/><path fill="#3D1961" d="M4 30h1v1H4z"/><path fill="#26233E" d="M5 30h1v1H5z"/><path fill="#3C2863" d="M6 30h1v1H6z"/><path fill="#483559" d="M7 30h1v1H7z"/><path fill="#1C1422" d="M8 30h1v1H8z"/><path fill="#3D1961" d="M9 30h1v1H9z"/><path fill="#231A30" d="M10 30h1v1h-1z"/><path fill="#3D1961" d="M11 30h1v1h-1z"/><path fill="#150E1B" d="M3 31h1v1H3z"/><path fill="#1B1023" d="M4 31h1v1H4z"/><path fill="#26233E" d="M5 31h1v1H5z"/><path fill="#3C2863" d="M6 31h1v1H6z"/><path fill="#483559" d="M7 31h1v1H7z"/><path fill="#3D1961" d="M8 31h1v1H8zM9 31h1v1H9z"/><path fill="#231A30" d="M10 31h1v1h-1z"/><path fill="#3D1961" d="M11 31h1v1h-1z"/><path fill="#150E1B" d="M3 32h1v1H3z"/><path fill="#1B1023" d="M4 32h1v1H4z"/><path fill="#26233E" d="M5 32h1v1H5z"/><path fill="#3B3265" d="M6 32h1v1H6z"/><path fill="#483559" d="M7 32h1v1H7z"/><path fill="#3D1961" d="M8 32h1v1H8z"/><path fill="#3C2F5E" d="M9 32h1v1H9z"/><path fill="#28303C" d="M10 32h1v1h-1z"/><path fill="#3D1961" d="M11 32h1v1h-1z"/><path fill="#150E1B" d="M3 33h1v1H3z"/><path fill="#1B1023" d="M4 33h1v1H4zM5 33h1v1H5z"/><path fill="#3A3A66" d="M6 33h1v1H6z"/><path fill="#483559" d="M7 33h1v1H7z"/><path fill="#2D1444" d="M8 33h1v1H8z"/><path fill="#3C2F5E" d="M9 33h1v1H9z"/><path fill="#272E38" d="M10 33h1v1h-1z"/><path fill="#3D1961" d="M11 33h1v1h-1z"/><path fill="#150E1B" d="M3 34h1v1H3z"/><path fill="#1B1023" d="M4 34h1v1H4zM5 34h1v1H5z"/><path fill="#2B354E" d="M6 34h1v1H6z"/><path fill="#483559" d="M7 34h1v1H7z"/><path fill="#2D1444" d="M8 34h1v1H8z"/><path fill="#2D254A" d="M9 34h1v1H9z"/><path fill="#212734" d="M10 34h1v1h-1z"/><path fill="#2D0A4B" d="M11 34h1v1h-1z"/><path fill="#1B1023" d="M4 35h1v1H4zM5 35h1v1H5z"/><path fill="#3B3265" d="M6 35h1v1H6z"/><path fill="#483559" d="M7 35h1v1H7z"/><path fill="#2D1444" d="M8 35h1v1H8z"/><path fill="#2D2F4F" d="M9 35h1v1H9z"/><path fill="#2D0A4B" d="M10 35h1v1h-1z"/><path fill="#191020" d="M4 36h1v1H4z"/><path fill="#1C1026" d="M5 36h1v1H5z"/><path fill="#2A2447" d="M6 36h1v1H6z"/><path fill="#674D7F" d="M7 36h1v1H7z"/><path fill="#2D1444" d="M8 36h1v1H8z"/><path fill="#366054" d="M9 36h1v1H9z"/><path fill="#30284E" d="M10 36h1v1h-1z"/><path fill="#191020" d="M4 37h1v1H4z"/><path fill="#2C1442" d="M5 37h1v1H5z"/><path fill="#2A2447" d="M6 37h1v1H6z"/><path fill="#6B4C89" d="M7 37h1v1H7z"/><path fill="#2D1444" d="M8 37h1v1H8z"/><path fill="#304652" d="M9 37h1v1H9z"/><path fill="#2D0A4B" d="M10 37h1v1h-1z"/><path fill="#150E1B" d="M4 38h1v1H4z"/><path fill="#191020" d="M5 38h1v1H5z"/><path fill="#1C2328" d="M6 38h1v1H6z"/><path fill="#7549A5" d="M7 38h1v1H7z"/><path fill="#1B1222" d="M8 38h1v1H8z"/><path fill="#24323E" d="M9 38h1v1H9z"/><path fill="#2D0A4B" d="M10 38h1v1h-1z"/><path fill="#150E1B" d="M4 39h1v1H4zM5 39h1v1H5z"/><path fill="#1C2329" d="M6 39h1v1H6z"/><path fill="#40245E" d="M7 39h1v1H7z"/><path fill="#1A1221" d="M8 39h1v1H8z"/><path fill="#324F58" d="M9 39h1v1H9z"/><path fill="#2D1F50" d="M10 39h1v1h-1z"/><path fill="#150E1B" d="M4 40h1v1H4zM5 40h1v1H5z"/><path fill="#2C2548" d="M6 40h1v1H6z"/><path fill="#412460" d="M7 40h1v1H7z"/><path fill="#1A1221" d="M8 40h1v1H8z"/><path fill="#324C56" d="M9 40h1v1H9z"/><path fill="#2D0A4B" d="M10 40h1v1h-1z"/><path fill="#150E1B" d="M4 41h1v1H4zM5 41h1v1H5z"/><path fill="#2C2548" d="M6 41h1v1H6z"/><path fill="#4B2870" d="M7 41h1v1H7z"/><path fill="#2B153F" d="M8 41h1v1H8z"/><path fill="#324C56" d="M9 41h1v1H9z"/><path fill="#2D0A4B" d="M10 41h1v1h-1z"/><path fill="#150E1B" d="M5 42h1v1H5z"/><path fill="#1C1124" d="M6 42h1v1H6z"/><path fill="#412360" d="M7 42h1v1H7z"/><path fill="#331650" d="M8 42h1v1H8z"/><path fill="#303C54" d="M9 42h1v1H9z"/><path fill="#221A35" d="M10 42h1v1h-1z"/><path fill="#150E1B" d="M5 43h1v1H5z"/><path fill="#1C1123" d="M6 43h1v1H6z"/><path fill="#412360" d="M7 43h1v1H7z"/><path fill="#331650" d="M8 43h1v1H8z"/><path fill="#303352" d="M9 43h1v1H9z"/><path fill="#1B1328" d="M10 43h1v1h-1z"/><path fill="#18101F" d="M5 44h1v1H5z"/><path fill="#1C1123" d="M6 44h1v1H6z"/><path fill="#412360" d="M7 44h1v1H7z"/><path fill="#2B153F" d="M8 44h1v1H8z"/><path fill="#2D1F50" d="M9 44h1v1H9z"/><path fill="#1B1328" d="M10 44h1v1h-1z"/><path fill="#16101D" d="M5 45h1v1H5z"/><path fill="#1C1124" d="M6 45h1v1H6z"/><path fill="#412460" d="M7 45h1v1H7z"/><path fill="#1A1221" d="M8 45h1v1H8z"/><path fill="#2D1F50" d="M9 45h1v1H9z"/><path fill="#1B1328" d="M10 45h1v1h-1z"/><path fill="#150E1B" d="M5 46h1v1H5z"/><path fill="#1F1128" d="M6 46h1v1H6z"/><path fill="#36204E" d="M7 46h1v1H7z"/><path fill="#1A1221" d="M8 46h1v1H8z"/><path fill="#2D1F50" d="M9 46h1v1H9z"/><path fill="#150E1B" d="M5 47h1v1H5z"/><path fill="#20112B" d="M6 47h1v1H6z"/><path fill="#362050" d="M7 47h1v1H7z"/><path fill="#1A1221" d="M8 47h1v1H8z"/><path fill="#2D1F50" d="M9 47h1v1H9z"/><path fill="#150E1B" d="M5 48h1v1H5z"/><path fill="#20112B" d="M6 48h1v1H6z"/><path fill="#362050" d="M7 48h1v1H7z"/><path fill="#19121F" d="M8 48h1v1H8z"/><path fill="#2D1F50" d="M9 48h1v1H9z"/><path fill="#150E1B" d="M5 49h1v1H5z"/><path fill="#22112F" d="M6 49h1v1H6z"/><path fill="#362050" d="M7 49h1v1H7z"/><path fill="#19121F" d="M8 49h1v1H8z"/><path fill="#2D1F50" d="M9 49h1v1H9z"/><path fill="#150E1B" d="M5 50h1v1H5z"/><path fill="#22112F" d="M6 50h1v1H6z"/><path fill="#2D1A41" d="M7 50h1v1H7z"/><path fill="#19121F" d="M8 50h1v1H8z"/><path fill="#2D1F50" d="M9 50h1v1H9z"/><path fill="#150E1B" d="M5 51h1v1H5z"/><path fill="#22112F" d="M6 51h1v1H6z"/><path fill="#22122F" d="M7 51h1v1H7z"/><path fill="#19121F" d="M8 51h1v1H8z"/><path fill="#2D1F50" d="M9 51h1v1H9z"/><path fill="#150E1B" d="M5 52h1v1H5z"/><path fill="#251137" d="M6 52h1v1H6z"/><path fill="#22122F" d="M7 52h1v1H7z"/><path fill="#19121F" d="M8 52h1v1H8z"/><path fill="#2D1F50" d="M9 52h1v1H9z"/><path fill="#150E1B" d="M5 53h1v1H5z"/><path fill="#2A1143" d="M6 53h1v1H6z"/><path fill="#251237" d="M7 53h1v1H7z"/><path fill="#19121F" d="M8 53h1v1H8z"/><path fill="#2D2A54" d="M9 53h1v1H9z"/><path fill="#150E1B" d="M5 54h1v1H5z"/><path fill="#2D114C" d="M6 54h1v1H6z"/><path fill="#2D124C" d="M7 54h1v1H7z"/><path fill="#19121F" d="M8 54h1v1H8z"/><path fill="#272E38" d="M9 54h1v1H9z"/><path fill="#150E1B" d="M5 55h1v1H5z"/><path fill="#2D114C" d="M6 55h1v1H6zM7 55h1v1H7z"/><path fill="#21182D" d="M8 55h1v1H8z"/><path fill="#2C3F41" d="M9 55h1v1H9z"/><path fill="#6B35A1" d="M2 56h1v1H2z"/><path fill="#0E0914" d="M5 56h1v1H5z"/><path fill="#291142" d="M6 56h1v1H6z"/><path fill="#2A1143" d="M7 56h1v1H7z"/><path fill="#1F162C" d="M8 56h1v1H8z"/><path fill="#315550" d="M9 56h1v1H9z"/><path fill="#47276B" d="M1 57h1v1H1z"/><path fill="#783CB6" d="M2 57h1v1H2z"/><path fill="#150E1B" d="M3 57h1v1H3z"/><path fill="#0E0914" d="M5 57h1v1H5z"/><path fill="#301152" d="M6 57h1v1H6zM7 57h1v1H7z"/><path fill="#1F162C" d="M8 57h1v1H8z"/><path fill="#396757" d="M9 57h1v1H9z"/><path fill="#572D82" d="M1 58h1v1H1z"/><path fill="#9471B8" d="M2 58h1v1H2z"/><path fill="#251832" d="M3 58h1v1H3z"/><path fill="#150E1B" d="M4 58h1v1H4z"/><path fill="#0E0914" d="M5 58h1v1H5z"/><path fill="#2D114C" d="M6 58h1v1H6zM7 58h1v1H7z"/><path fill="#241C38" d="M8 58h1v1H8z"/><path fill="#396757" d="M9 58h1v1H9z"/><path fill="#502A77" d="M1 59h1v1H1z"/><path fill="#9471B8" d="M2 59h1v1H2z"/><path fill="#150E1B" d="M3 59h1v1H3z"/><path fill="#47276B" d="M4 59h1v1H4z"/><path fill="#0E0914" d="M5 59h1v1H5z"/><path fill="#291142" d="M6 59h1v1H6zM7 59h1v1H7z"/><path fill="#241C38" d="M8 59h1v1H8z"/><path fill="#396757" d="M9 59h1v1H9z"/><path fill="#572D82" d="M1 60h1v1H1z"/><path fill="#623194" d="M2 60h1v1H2z"/><path fill="#272E38" d="M3 60h1v1H3z"/><path fill="#150E1B" d="M4 60h1v1H4z"/><path fill="#21132D" d="M5 60h1v1H5z"/><path fill="#291142" d="M6 60h1v1H6zM7 60h1v1H7z"/><path fill="#281F41" d="M8 60h1v1H8z"/><path fill="#396757" d="M9 60h1v1H9z"/><path fill="#4E2874" d="M10 60h1v1h-1z"/><path fill="#3D235B" d="M1 61h1v1H1zM2 61h1v1H2z"/><path fill="#2C3F41" d="M3 61h1v1H3z"/><path fill="#272E38" d="M4 61h1v1H4z"/><path fill="#0E0914" d="M5 61h1v1H5z"/><path fill="#231032" d="M6 61h1v1H6zM7 61h1v1H7z"/><path fill="#281F41" d="M8 61h1v1H8z"/><path fill="#396757" d="M9 61h1v1H9z"/><path fill="#21132D" d="M10 61h1v1h-1z"/><path fill="#272E38" d="M11 61h1v1h-1z"/><path fill="#251832" d="M2 62h1v1H2z"/><path fill="#32534C" d="M3 62h1v1H3z"/><path fill="#2C3F41" d="M4 62h1v1H4z"/><path fill="#0E0914" d="M5 62h1v1H5z"/><path fill="#150E1B" d="M6 62h1v1H6zM7 62h1v1H7z"/><path fill="#241C38" d="M8 62h1v1H8z"/><path fill="#162928" d="M9 62h1v1H9z"/><path fill="#21132D" d="M10 62h1v1h-1z"/><path fill="#2C3F41" d="M11 62h1v1h-1z"/><path fill="#61455E" d="M12 62h1v1h-1z"/><path fill="#6B4B68" d="M13 62h1v1h-1z" opacity=".875"/><path fill="#252E2E" d="M14 62h1v1h-1z"/><path fill="#150E1B" d="M2 63h1v1H2z"/><path fill="#251832" d="M3 63h1v1H3z"/><path fill="#32534C" d="M4 63h1v1H4z"/><path fill="#150E1B" d="M5 63h1v1H5z"/><path fill="#0E0914" d="M6 63h1v1H6z"/><path fill="#150E1B" d="M7 63h1v1H7z"/><path fill="#241C38" d="M8 63h1v1H8z"/><path fill="#162928" d="M9 63h1v1H9z"/><path fill="#21132D" d="M10 63h1v1h-1z"/><path fill="#396757" d="M11 63h1v1h-1z"/><path fill="#291127" d="M12 63h1v1h-1z"/><path fill="#61455E" d="M13 63h1v1h-1zM14 63h1v1h-1z"/><path fill="#252E2E" d="M15 63h1v1h-1z"/><path fill="#150E1B" d="M2 64h1v1H2zM3 64h1v1H3z"/><path fill="#3D235B" d="M4 64h1v1H4z"/><path fill="#150E1B" d="M5 64h1v1H5z"/><path fill="#0E0914" d="M6 64h1v1H6z"/><path fill="#150E1B" d="M7 64h1v1H7z"/><path fill="#241C38" d="M8 64h1v1H8z"/><path fill="#162928" d="M9 64h1v1H9z"/><path fill="#21132D" d="M10 64h1v1h-1z"/><path fill="#391535" d="M11 64h1v1h-1z"/><path fill="#1F131D" d="M12 64h1v1h-1z"/><path fill="#381534" d="M13 64h1v1h-1z"/><path fill="#624B5F" d="M14 64h1v1h-1z"/><path fill="#314E44" d="M15 64h1v1h-1z"/><path fill="#150E1B" d="M3 65h1v1H3z"/><path fill="#3D235B" d="M4 65h1v1H4z"/><path fill="#251832" d="M5 65h1v1H5z"/><path fill="#0E0914" d="M6 65h1v1H6z"/><path fill="#150E1B" d="M7 65h1v1H7z"/><path fill="#241C38" d="M8 65h1v1H8z"/><path fill="#0E0914" d="M9 65h1v1H9zM10 65h1v1h-1z"/><path fill="#391535" d="M11 65h1v1h-1zM12 65h1v1h-1z"/><path fill="#381534" d="M13 65h1v1h-1z"/><path fill="#624B5F" d="M14 65h1v1h-1z"/><path fill="#314E44" d="M15 65h1v1h-1z"/><path fill="#150E1B" d="M3 66h1v1H3zM4 66h1v1H4z"/><path fill="#251832" d="M5 66h1v1H5z"/><path fill="#0E0914" d="M6 66h1v1H6z"/><path fill="#150E1B" d="M7 66h1v1H7z"/><path fill="#1F162C" d="M8 66h1v1H8z"/><path fill="#131F22" d="M9 66h1v1H9z"/><path fill="#0E0914" d="M10 66h1v1h-1z"/><path fill="#391535" d="M11 66h1v1h-1z"/><path fill="#381534" d="M12 66h1v1h-1z"/><path fill="#61455E" d="M13 66h1v1h-1z"/><path fill="#624B5F" d="M14 66h1v1h-1z"/><path fill="#396757" d="M15 66h1v1h-1z"/><path fill="#150E1B" d="M3 67h1v1H3zM4 67h1v1H4z"/><path fill="#251832" d="M5 67h1v1H5z"/><path fill="#0E0914" d="M6 67h1v1H6z"/><path fill="#251832" d="M7 67h1v1H7z"/><path fill="#150E1B" d="M8 67h1v1H8z"/><path fill="#0E0914" d="M9 67h1v1H9z"/><path fill="#73438C" d="M10 67h1v1h-1z"/><path fill="#381534" d="M11 67h1v1h-1z"/><path fill="#1F131D" d="M12 67h1v1h-1z"/><path fill="#624B5F" d="M13 67h1v1h-1z"/><path fill="#0E0914" d="M14 67h1v1h-1z"/><path fill="#396757" d="M15 67h1v1h-1z"/><path fill="#7C5979" d="M3 68h1v1H3z" opacity=".984"/><path fill="#150E1B" d="M4 68h1v1H4zM5 68h1v1H5z"/><path fill="#0E0914" d="M6 68h1v1H6z"/><path fill="#251832" d="M7 68h1v1H7z"/><path fill="#150E1B" d="M8 68h1v1H8zM9 68h1v1H9z"/><path fill="#532E63" d="M10 68h1v1h-1z"/><path fill="#3C2847" d="M11 68h1v1h-1z"/><path fill="#61455E" d="M12 68h1v1h-1z"/><path fill="#624B5F" d="M13 68h1v1h-1z"/><path fill="#0E0914" d="M14 68h1v1h-1z"/><path fill="#396757" d="M15 68h1v1h-1z"/><path fill="#886484" d="M2 69h1v1H2z" opacity=".643"/><path fill="#664463" d="M3 69h1v1H3z" opacity=".996"/><path fill="#150E1B" d="M4 69h1v1H4zM5 69h1v1H5z"/><path fill="#0E0914" d="M6 69h1v1H6z"/><path fill="#150E1B" d="M7 69h1v1H7zM8 69h1v1H8z"/><path fill="#56395A" d="M9 69h1v1H9z"/><path fill="#2E2133" d="M10 69h1v1h-1z"/><path fill="#61455E" d="M11 69h1v1h-1zM12 69h1v1h-1z"/><path fill="#0E0914" d="M13 69h1v1h-1z"/><path fill="#396757" d="M14 69h1v1h-1z"/><path fill="#886484" d="M1 70h1v1H1z" opacity=".643"/><path fill="#705977" d="M2 70h1v1H2z"/><path fill="#4B2F5A" d="M3 70h1v1H3z"/><path fill="#1F131D" d="M4 70h1v1H4z"/><path fill="#150E1B" d="M5 70h1v1H5z"/><path fill="#0E0914" d="M6 70h1v1H6z"/><path fill="#150E1B" d="M7 70h1v1H7z"/><path fill="#56395A" d="M8 70h1v1H8z"/><path fill="#594A61" d="M9 70h1v1H9z"/><path fill="#613E5D" d="M10 70h1v1h-1z"/><path fill="#543C52" d="M11 70h1v1h-1z"/><path fill="#0E0914" d="M12 70h1v1h-1zM13 70h1v1h-1z"/><path fill="#396757" d="M14 70h1v1h-1z"/><path fill="#6B4B68" d="M1 71h1v1H1z" opacity=".875"/><path fill="#472753" d="M2 71h1v1H2z"/><path fill="#705977" d="M3 71h1v1H3z"/><path fill="#4E2A5A" d="M4 71h1v1H4z"/><path fill="#331630" d="M5 71h1v1H5z"/><path fill="#291127" d="M6 71h1v1H6z"/><path fill="#391635" d="M7 71h1v1H7z"/><path fill="#61395C" d="M8 71h1v1H8z"/><path fill="#705876" d="M9 71h1v1H9z"/><path fill="#604662" d="M10 71h1v1h-1z"/><path fill="#0E0914" d="M11 71h1v1h-1zM12 71h1v1h-1zM13 71h1v1h-1z"/><path fill="#314E44" d="M14 71h1v1h-1z"/><path fill="#886484" d="M0 72h1v1H0z" opacity=".643"/><path fill="#1D091B" d="M1 72h1v1H1z" opacity=".643"/><path fill="#472753" d="M2 72h1v1H2zM3 72h1v1H3z"/><path fill="#705977" d="M4 72h1v1H4z"/><path fill="#443454" d="M5 72h1v1H5z"/><path fill="#291127" d="M6 72h1v1H6z"/><path fill="#59425A" d="M7 72h1v1H7z"/><path fill="#56495B" d="M8 72h1v1H8z"/><path fill="#543651" d="M9 72h1v1H9z"/><path fill="#0E0914" d="M10 72h1v1h-1zM11 72h1v1h-1zM12 72h1v1h-1z"/><path fill="#314E44" d="M13 72h1v1h-1z"/><path fill="#886484" d="M0 73h1v1H0z" opacity=".643"/><path fill="#1F131D" d="M1 73h1v1H1zM2 73h1v1H2z"/><path fill="#472753" d="M3 73h1v1H3zM4 73h1v1H4z"/><path fill="#705977" d="M5 73h1v1H5z"/><path fill="#5B4A5D" d="M6 73h1v1H6z"/><path fill="#564D5B" d="M7 73h1v1H7z"/><path fill="#221024" d="M8 73h1v1H8z"/><path fill="#0E0914" d="M9 73h1v1H9zM10 73h1v1h-1zM11 73h1v1h-1zM12 73h1v1h-1z"/><path fill="#314E44" d="M13 73h1v1h-1z"/><path fill="#61455E" d="M1 74h1v1H1zM2 74h1v1H2z"/><path fill="#68476C" d="M3 74h1v1H3z"/><path fill="#6C4972" d="M4 74h1v1H4z"/><path fill="#6F4E74" d="M5 74h1v1H5z"/><path fill="#59475B" d="M6 74h1v1H6z"/><path fill="#140C1B" d="M7 74h1v1H7z"/><path fill="#140D1A" d="M8 74h1v1H8z"/><path fill="#0E0914" d="M9 74h1v1H9zM10 74h1v1h-1zM11 74h1v1h-1z"/><path fill="#314E44" d="M12 74h1v1h-1z"/><path fill="#2A403B" d="M1 75h1v1H1z" opacity=".643"/><path fill="#314E44" d="M2 75h1v1H2z"/><path fill="#140C1B" d="M3 75h1v1H3z"/><path fill="#291C34" d="M4 75h1v1H4z"/><path fill="#281932" d="M5 75h1v1H5z"/><path fill="#0E0914" d="M6 75h1v1H6z"/><path fill="#130A1A" d="M7 75h1v1H7zM8 75h1v1H8z"/><path fill="#0E0914" d="M9 75h1v1H9zM10 75h1v1h-1z"/><path fill="#391635" d="M11 75h1v1h-1z"/><path fill="#304E43" d="M3 76h1v1H3z"/><path fill="#2D483F" d="M4 76h1v1H4z"/><path fill="#281932" d="M5 76h1v1H5z"/><path fill="#0E0914" d="M6 76h1v1H6zM7 76h1v1H7zM8 76h1v1H8z"/><path fill="#201222" d="M9 76h1v1H9z"/><path fill="#391635" d="M10 76h1v1h-1z"/><path fill="#29403B" d="M5 77h1v1H5z"/><path fill="#0E0914" d="M6 77h1v1H6z"/><path fill="#241C38" d="M7 77h1v1H7z"/><path fill="#0E0914" d="M8 77h1v1H8zM6 78h1v1H6zM7 78h1v1H7zM8 78h1v1H8zM6 79h1v1H6z"/><path fill="#241C38" d="M7 79h1v1H7z"/><path fill="#0E0914" d="M8 79h1v1H8zM6 80h1v1H6zM7 80h1v1H7zM8 80h1v1H8zM6 81h1v1H6z"/><path fill="#241C38" d="M7 81h1v1H7z"/><path fill="#0E0914" d="M8 81h1v1H8zM6 82h1v1H6zM7 82h1v1H7zM8 82h1v1H8zM6 83h1v1H6zM7 83h1v1H7zM8 83h1v1H8zM5 84h1v1H5zM6 84h1v1H6z"/><path fill="#21132D" d="M7 84h1v1H7z"/><path fill="#0E0914" d="M8 84h1v1H8zM9 84h1v1H9z"/><path fill="#21132D" d="M6 85h1v1H6zM7 85h1v1H7zM8 85h1v1H8z"/><path fill="#5B4C63" d="M6 86h1v1H6z"/><path fill="#21132D" d="M7 86h1v1H7z"/><path fill="#4E2874" d="M8 86h1v1H8z"/><path fill="#5B4C63" d="M6 87h1v1H6z"/><path fill="#21132D" d="M7 87h1v1H7zM8 87h1v1H8z"/><path fill="#0E0914" d="M6 88h1v1H6z"/><path fill="#21132D" d="M7 88h1v1H7z"/><path fill="#0E0914" d="M8 88h1v1H8z"/><path fill="#272726" d="M7 89h1v1H7z"/></svg>