<svg xmlns="http://www.w3.org/2000/svg" width="33" height="94" shape-rendering="crispEdges"><path fill="#917447" d="M16 0h1v1h-1zM15 1h1v1h-1z" opacity=".024"/><path fill="#3B1314" d="M16 1h1v1h-1z"/><path fill="#917447" d="M17 1h1v1h-1zM15 2h1v1h-1z" opacity=".024"/><path fill="#370E0F" d="M16 2h1v1h-1z"/><path fill="#917447" d="M17 2h1v1h-1zM15 3h1v1h-1z" opacity=".024"/><path fill="#231319" d="M16 3h1v1h-1z"/><path fill="#917447" d="M17 3h1v1h-1zM14 4h1v1h-1z" opacity=".024"/><path fill="#281419" d="M15 4h1v1h-1z"/><path fill="#1F151A" d="M16 4h1v1h-1z"/><path fill="#2A1316" d="M17 4h1v1h-1z"/><path fill="#917447" d="M18 4h1v1h-1zM14 5h1v1h-1z" opacity=".024"/><path fill="#19181F" d="M15 5h1v1h-1z"/><path fill="#12171E" d="M16 5h1v1h-1z"/><path fill="#1E161C" d="M17 5h1v1h-1z"/><path fill="#917447" d="M18 5h1v1h-1zM14 6h1v1h-1z" opacity=".024"/><path fill="#19181F" d="M15 6h1v1h-1z"/><path fill="#10141B" d="M16 6h1v1h-1z"/><path fill="#1A1820" d="M17 6h1v1h-1z"/><path fill="#917447" d="M18 6h1v1h-1zM13 7h1v1h-1z" opacity=".024"/><path fill="#22161B" d="M14 7h1v1h-1z"/><path fill="#1B141A" d="M15 7h1v1h-1z"/><path fill="#10141B" d="M16 7h1v1h-1z"/><path fill="#1B1319" d="M17 7h1v1h-1z"/><path fill="#22161A" d="M18 7h1v1h-1z"/><path fill="#917447" d="M19 7h1v1h-1zM13 8h1v1h-1z" opacity=".024"/><path fill="#23161C" d="M14 8h1v1h-1z"/><path fill="#16151C" d="M15 8h1v1h-1z"/><path fill="#10141B" d="M16 8h1v1h-1z"/><path fill="#16141A" d="M17 8h1v1h-1z"/><path fill="#23161B" d="M18 8h1v1h-1z"/><path fill="#917447" d="M19 8h1v1h-1zM12 9h1v1h-1z" opacity=".024"/><path fill="#2A1519" d="M13 9h1v1h-1z"/><path fill="#1E171D" d="M14 9h1v1h-1z"/><path fill="#10161E" d="M15 9h1v1h-1z"/><path fill="#10141B" d="M16 9h1v1h-1z"/><path fill="#101319" d="M17 9h1v1h-1z"/><path fill="#1E161C" d="M18 9h1v1h-1z"/><path fill="#2A1419" d="M19 9h1v1h-1z"/><path fill="#917447" d="M20 9h1v1h-1zM12 10h1v1h-1z" opacity=".024"/><path fill="#24171C" d="M13 10h1v1h-1z"/><path fill="#16151C" d="M14 10h1v1h-1z"/><path fill="#10161E" d="M15 10h1v1h-1z"/><path fill="#10141B" d="M16 10h1v1h-1z"/><path fill="#101319" d="M17 10h1v1h-1z"/><path fill="#161317" d="M18 10h1v1h-1z"/><path fill="#24171C" d="M19 10h1v1h-1z"/><path fill="#917447" d="M20 10h1v1h-1zM12 11h1v1h-1z" opacity=".024"/><path fill="#23161C" d="M13 11h1v1h-1z"/><path fill="#16151C" d="M14 11h1v1h-1z"/><path fill="#10161E" d="M15 11h1v1h-1z"/><path fill="#10151C" d="M16 11h1v1h-1z"/><path fill="#101318" d="M17 11h1v1h-1z"/><path fill="#161317" d="M18 11h1v1h-1z"/><path fill="#22161A" d="M19 11h1v1h-1z"/><path fill="#917447" d="M20 11h1v1h-1zM12 12h1v1h-1z" opacity=".024"/><path fill="#24171C" d="M13 12h1v1h-1z"/><path fill="#16151C" d="M14 12h1v1h-1z"/><path fill="#10161E" d="M15 12h1v1h-1z"/><path fill="#10141A" d="M16 12h1v1h-1z"/><path fill="#101318" d="M17 12h1v1h-1z"/><path fill="#161317" d="M18 12h1v1h-1z"/><path fill="#24161C" d="M19 12h1v1h-1z"/><path fill="#917447" d="M20 12h1v1h-1zM12 13h1v1h-1z" opacity=".024"/><path fill="#24171C" d="M13 13h1v1h-1z"/><path fill="#121820" d="M14 13h1v1h-1z"/><path fill="#10161E" d="M15 13h1v1h-1z"/><path fill="#101318" d="M16 13h1v1h-1zM17 13h1v1h-1z"/><path fill="#12161D" d="M18 13h1v1h-1z"/><path fill="#24171C" d="M19 13h1v1h-1z"/><path fill="#917447" d="M20 13h1v1h-1zM11 14h1v1h-1z" opacity=".024"/><path fill="#2A1519" d="M12 14h1v1h-1z"/><path fill="#18171E" d="M13 14h1v1h-1z"/><path fill="#10161E" d="M14 14h1v1h-1zM15 14h1v1h-1z"/><path fill="#101318" d="M16 14h1v1h-1zM17 14h1v1h-1zM18 14h1v1h-1z"/><path fill="#18151B" d="M19 14h1v1h-1z"/><path fill="#2A1519" d="M20 14h1v1h-1z"/><path fill="#917447" d="M21 14h1v1h-1zM11 15h1v1h-1z" opacity=".024"/><path fill="#24171C" d="M12 15h1v1h-1z"/><path fill="#121820" d="M13 15h1v1h-1z"/><path fill="#10161E" d="M14 15h1v1h-1zM15 15h1v1h-1z"/><path fill="#101318" d="M16 15h1v1h-1zM17 15h1v1h-1zM18 15h1v1h-1z"/><path fill="#13171E" d="M19 15h1v1h-1z"/><path fill="#24171C" d="M20 15h1v1h-1z"/><path fill="#917447" d="M21 15h1v1h-1zM11 16h1v1h-1z" opacity=".024"/><path fill="#20181E" d="M12 16h1v1h-1z"/><path fill="#0E1116" d="M13 16h1v1h-1z"/><path fill="#10161E" d="M14 16h1v1h-1zM15 16h1v1h-1z"/><path fill="#101318" d="M16 16h1v1h-1zM17 16h1v1h-1z"/><path fill="#131820" d="M18 16h1v1h-1z"/><path fill="#11151B" d="M19 16h1v1h-1z"/><path fill="#20181E" d="M20 16h1v1h-1z"/><path fill="#917447" d="M21 16h1v1h-1zM11 17h1v1h-1z" opacity=".024"/><path fill="#24171C" d="M12 17h1v1h-1z"/><path fill="#13171E" d="M13 17h1v1h-1z"/><path fill="#0E1116" d="M14 17h1v1h-1zM15 17h1v1h-1z"/><path fill="#12161D" d="M16 17h1v1h-1z"/><path fill="#141920" d="M17 17h1v1h-1z"/><path fill="#11151B" d="M18 17h1v1h-1z"/><path fill="#13171E" d="M19 17h1v1h-1z"/><path fill="#24171C" d="M20 17h1v1h-1z"/><path fill="#917447" d="M21 17h1v1h-1zM11 18h1v1h-1z" opacity=".024"/><path fill="#20181E" d="M12 18h1v1h-1z"/><path fill="#13171E" d="M13 18h1v1h-1z"/><path fill="#11151B" d="M14 18h1v1h-1z"/><path fill="#0E1116" d="M15 18h1v1h-1z"/><path fill="#141920" d="M16 18h1v1h-1z"/><path fill="#0E1116" d="M17 18h1v1h-1z"/><path fill="#11151B" d="M18 18h1v1h-1z"/><path fill="#13171E" d="M19 18h1v1h-1z"/><path fill="#20181E" d="M20 18h1v1h-1z"/><path fill="#917447" d="M21 18h1v1h-1zM11 19h1v1h-1z" opacity=".024"/><path fill="#24171C" d="M12 19h1v1h-1z"/><path fill="#11151B" d="M13 19h1v1h-1z"/><path fill="#0E1116" d="M14 19h1v1h-1zM15 19h1v1h-1z"/><path fill="#141920" d="M16 19h1v1h-1z"/><path fill="#0E1116" d="M17 19h1v1h-1zM18 19h1v1h-1z"/><path fill="#111419" d="M19 19h1v1h-1z"/><path fill="#24171C" d="M20 19h1v1h-1z"/><path fill="#917447" d="M21 19h1v1h-1zM11 20h1v1h-1z" opacity=".024"/><path fill="#1B1820" d="M12 20h1v1h-1z"/><path fill="#13171F" d="M13 20h1v1h-1z"/><path fill="#11151B" d="M14 20h1v1h-1z"/><path fill="#0E1217" d="M15 20h1v1h-1z"/><path fill="#13181F" d="M16 20h1v1h-1z"/><path fill="#08090C" d="M17 20h1v1h-1z"/><path fill="#111419" d="M18 20h1v1h-1z"/><path fill="#13171D" d="M19 20h1v1h-1z"/><path fill="#1B181F" d="M20 20h1v1h-1z"/><path fill="#917447" d="M21 20h1v1h-1zM11 21h1v1h-1z" opacity=".024"/><path fill="#1F171C" d="M12 21h1v1h-1z"/><path fill="#131720" d="M13 21h1v1h-1z"/><path fill="#11151C" d="M14 21h1v1h-1z"/><path fill="#13171E" d="M15 21h1v1h-1z"/><path fill="#13181F" d="M16 21h1v1h-1z"/><path fill="#13171E" d="M17 21h1v1h-1z"/><path fill="#11151A" d="M18 21h1v1h-1z"/><path fill="#13171D" d="M19 21h1v1h-1z"/><path fill="#1F171C" d="M20 21h1v1h-1z"/><path fill="#917447" d="M21 21h1v1h-1zM11 22h1v1h-1z" opacity=".024"/><path fill="#20181D" d="M12 22h1v1h-1z"/><path fill="#13171D" d="M13 22h1v1h-1z"/><path fill="#11151D" d="M14 22h1v1h-1z"/><path fill="#0E1217" d="M15 22h1v1h-1z"/><path fill="#12161C" d="M16 22h1v1h-1z"/><path fill="#0E1114" d="M17 22h1v1h-1z"/><path fill="#11151A" d="M18 22h1v1h-1z"/><path fill="#13171D" d="M19 22h1v1h-1z"/><path fill="#20181E" d="M20 22h1v1h-1z"/><path fill="#917447" d="M21 22h1v1h-1zM10 23h1v1h-1z" opacity=".024"/><path fill="#27161A" d="M11 23h1v1h-1z"/><path fill="#1A181E" d="M12 23h1v1h-1z"/><path fill="#111417" d="M13 23h1v1h-1z"/><path fill="#111419" d="M14 23h1v1h-1z"/><path fill="#0E1013" d="M15 23h1v1h-1z"/><path fill="#12161C" d="M16 23h1v1h-1z"/><path fill="#08090C" d="M17 23h1v1h-1z"/><path fill="#11151A" d="M18 23h1v1h-1zM19 23h1v1h-1z"/><path fill="#1A181E" d="M20 23h1v1h-1z"/><path fill="#27161A" d="M21 23h1v1h-1z"/><path fill="#917447" d="M22 23h1v1h-1zM10 24h1v1h-1z" opacity=".024"/><path fill="#24171C" d="M11 24h1v1h-1z"/><path fill="#151B23" d="M12 24h1v1h-1z"/><path fill="#0E0F11" d="M13 24h1v1h-1zM14 24h1v1h-1z"/><path fill="#0E1013" d="M15 24h1v1h-1z"/><path fill="#13181F" d="M16 24h1v1h-1z"/><path fill="#0E1114" d="M17 24h1v1h-1zM18 24h1v1h-1zM19 24h1v1h-1z"/><path fill="#151B23" d="M20 24h1v1h-1z"/><path fill="#24171C" d="M21 24h1v1h-1z"/><path fill="#917447" d="M22 24h1v1h-1zM10 25h1v1h-1z" opacity=".024"/><path fill="#20181E" d="M11 25h1v1h-1z"/><path fill="#151B24" d="M12 25h1v1h-1z"/><path fill="#111419" d="M13 25h1v1h-1z"/><path fill="#111418" d="M14 25h1v1h-1z"/><path fill="#13171D" d="M15 25h1v1h-1z"/><path fill="#111419" d="M16 25h1v1h-1z"/><path fill="#13171D" d="M17 25h1v1h-1z"/><path fill="#11151A" d="M18 25h1v1h-1zM19 25h1v1h-1z"/><path fill="#151B24" d="M20 25h1v1h-1z"/><path fill="#20181E" d="M21 25h1v1h-1z"/><path fill="#917447" d="M22 25h1v1h-1zM10 26h1v1h-1z" opacity=".024"/><path fill="#24171C" d="M11 26h1v1h-1z"/><path fill="#1B1921" d="M12 26h1v1h-1z"/><path fill="#11141A" d="M13 26h1v1h-1z"/><path fill="#111419" d="M14 26h1v1h-1z"/><path fill="#0E0F11" d="M15 26h1v1h-1z"/><path fill="#08090C" d="M16 26h1v1h-1z"/><path fill="#0E0F11" d="M17 26h1v1h-1z"/><path fill="#111419" d="M18 26h1v1h-1z"/><path fill="#11151A" d="M19 26h1v1h-1z"/><path fill="#1B1920" d="M20 26h1v1h-1z"/><path fill="#24171C" d="M21 26h1v1h-1z"/><path fill="#917447" d="M22 26h1v1h-1zM10 27h1v1h-1z" opacity=".024"/><path fill="#24171C" d="M11 27h1v1h-1z"/><path fill="#22141A" d="M12 27h1v1h-1z"/><path fill="#0E1219" d="M13 27h1v1h-1zM14 27h1v1h-1z"/><path fill="#0E0F12" d="M15 27h1v1h-1z"/><path fill="#08090C" d="M16 27h1v1h-1z"/><path fill="#0E0F11" d="M17 27h1v1h-1zM18 27h1v1h-1z"/><path fill="#0E1012" d="M19 27h1v1h-1z"/><path fill="#221419" d="M20 27h1v1h-1z"/><path fill="#24171C" d="M21 27h1v1h-1z"/><path fill="#917447" d="M22 27h1v1h-1zM10 28h1v1h-1z" opacity=".024"/><path fill="#27161A" d="M11 28h1v1h-1z"/><path fill="#20171E" d="M12 28h1v1h-1z"/><path fill="#0E1219" d="M13 28h1v1h-1zM14 28h1v1h-1zM15 28h1v1h-1z"/><path fill="#08090C" d="M16 28h1v1h-1z"/><path fill="#0E0F11" d="M17 28h1v1h-1zM18 28h1v1h-1zM19 28h1v1h-1z"/><path fill="#20171D" d="M20 28h1v1h-1z"/><path fill="#27161A" d="M21 28h1v1h-1z"/><path fill="#917447" d="M22 28h1v1h-1zM10 29h1v1h-1z" opacity=".024"/><path fill="#27161A" d="M11 29h1v1h-1z"/><path fill="#151B24" d="M12 29h1v1h-1z"/><path fill="#131720" d="M13 29h1v1h-1z"/><path fill="#0E1219" d="M14 29h1v1h-1zM15 29h1v1h-1z"/><path fill="#101317" d="M16 29h1v1h-1z"/><path fill="#0E1012" d="M17 29h1v1h-1z"/><path fill="#0E0F11" d="M18 29h1v1h-1z"/><path fill="#13171D" d="M19 29h1v1h-1z"/><path fill="#151B24" d="M20 29h1v1h-1z"/><path fill="#27161A" d="M21 29h1v1h-1z"/><path fill="#917447" d="M22 29h1v1h-1zM10 30h1v1h-1z" opacity=".024"/><path fill="#1B1921" d="M11 30h1v1h-1z"/><path fill="#1A181E" d="M12 30h1v1h-1z"/><path fill="#141920" d="M13 30h1v1h-1z"/><path fill="#131720" d="M14 30h1v1h-1zM15 30h1v1h-1z"/><path fill="#0F1114" d="M16 30h1v1h-1z"/><path fill="#13171E" d="M17 30h1v1h-1z"/><path fill="#13171D" d="M18 30h1v1h-1z"/><path fill="#141920" d="M19 30h1v1h-1z"/><path fill="#1A181E" d="M20 30h1v1h-1z"/><path fill="#1B1921" d="M21 30h1v1h-1z"/><path fill="#917447" d="M22 30h1v1h-1zM10 31h1v1h-1z" opacity=".024"/><path fill="#20181E" d="M11 31h1v1h-1z"/><path fill="#19161C" d="M12 31h1v1h-1z"/><path fill="#0E1115" d="M13 31h1v1h-1z"/><path fill="#0B0C10" d="M14 31h1v1h-1zM15 31h1v1h-1z"/><path fill="#0F1114" d="M16 31h1v1h-1z"/><path fill="#0B0C10" d="M17 31h1v1h-1zM18 31h1v1h-1z"/><path fill="#0E1012" d="M19 31h1v1h-1z"/><path fill="#19161B" d="M20 31h1v1h-1z"/><path fill="#20181E" d="M21 31h1v1h-1z"/><path fill="#917447" d="M22 31h1v1h-1zM10 32h1v1h-1z" opacity=".024"/><path fill="#23161A" d="M11 32h1v1h-1z"/><path fill="#1C1319" d="M12 32h1v1h-1z"/><path fill="#11151B" d="M13 32h1v1h-1z"/><path fill="#0E1115" d="M14 32h1v1h-1z"/><path fill="#0E1116" d="M15 32h1v1h-1z"/><path fill="#08090C" d="M16 32h1v1h-1z"/><path fill="#0E1115" d="M17 32h1v1h-1zM18 32h1v1h-1z"/><path fill="#11151B" d="M19 32h1v1h-1z"/><path fill="#1C1318" d="M20 32h1v1h-1z"/><path fill="#23161A" d="M21 32h1v1h-1z"/><path fill="#917447" d="M22 32h1v1h-1zM10 33h1v1h-1z" opacity=".024"/><path fill="#24161B" d="M11 33h1v1h-1z"/><path fill="#0E1116" d="M12 33h1v1h-1z"/><path fill="#11151B" d="M13 33h1v1h-1z"/><path fill="#0E1116" d="M14 33h1v1h-1z"/><path fill="#0E1217" d="M15 33h1v1h-1z"/><path fill="#08090C" d="M16 33h1v1h-1z"/><path fill="#0E1012" d="M17 33h1v1h-1z"/><path fill="#0E1114" d="M18 33h1v1h-1z"/><path fill="#11151A" d="M19 33h1v1h-1z"/><path fill="#0E1114" d="M20 33h1v1h-1z"/><path fill="#24161B" d="M21 33h1v1h-1z"/><path fill="#917447" d="M22 33h1v1h-1zM10 34h1v1h-1z" opacity=".024"/><path fill="#24171C" d="M11 34h1v1h-1z"/><path fill="#0E1116" d="M12 34h1v1h-1z"/><path fill="#141920" d="M13 34h1v1h-1z"/><path fill="#11151B" d="M14 34h1v1h-1z"/><path fill="#0E1116" d="M15 34h1v1h-1z"/><path fill="#08090C" d="M16 34h1v1h-1z"/><path fill="#0E1012" d="M17 34h1v1h-1z"/><path fill="#111519" d="M18 34h1v1h-1z"/><path fill="#141920" d="M19 34h1v1h-1z"/><path fill="#0E1114" d="M20 34h1v1h-1z"/><path fill="#24171C" d="M21 34h1v1h-1z"/><path fill="#917447" d="M22 34h1v1h-1zM10 35h1v1h-1z" opacity=".024"/><path fill="#1B1921" d="M11 35h1v1h-1z"/><path fill="#13171D" d="M12 35h1v1h-1z"/><path fill="#13171E" d="M13 35h1v1h-1z"/><path fill="#11151B" d="M14 35h1v1h-1z"/><path fill="#0E1116" d="M15 35h1v1h-1z"/><path fill="#08090C" d="M16 35h1v1h-1z"/><path fill="#0E1012" d="M17 35h1v1h-1z"/><path fill="#11151A" d="M18 35h1v1h-1z"/><path fill="#13171E" d="M19 35h1v1h-1zM20 35h1v1h-1z"/><path fill="#1B1921" d="M21 35h1v1h-1z"/><path fill="#917447" d="M22 35h1v1h-1zM10 36h1v1h-1z" opacity=".024"/><path fill="#1B181F" d="M11 36h1v1h-1z"/><path fill="#111419" d="M12 36h1v1h-1z"/><path fill="#0E1013" d="M13 36h1v1h-1z"/><path fill="#0B0C10" d="M14 36h1v1h-1z"/><path fill="#0E1116" d="M15 36h1v1h-1z"/><path fill="#0D0E0F" d="M16 36h1v1h-1z"/><path fill="#0E1012" d="M17 36h1v1h-1z"/><path fill="#0B0C0F" d="M18 36h1v1h-1z"/><path fill="#0E1114" d="M19 36h1v1h-1z"/><path fill="#11151A" d="M20 36h1v1h-1z"/><path fill="#1B181F" d="M21 36h1v1h-1z"/><path fill="#917447" d="M22 36h1v1h-1zM10 37h1v1h-1z" opacity=".024"/><path fill="#271519" d="M11 37h1v1h-1z"/><path fill="#111419" d="M12 37h1v1h-1z"/><path fill="#0E1013" d="M13 37h1v1h-1z"/><path fill="#0B0C0F" d="M14 37h1v1h-1z"/><path fill="#13171E" d="M15 37h1v1h-1z"/><path fill="#101317" d="M16 37h1v1h-1z"/><path fill="#13171E" d="M17 37h1v1h-1z"/><path fill="#0B0C0F" d="M18 37h1v1h-1z"/><path fill="#0E1114" d="M19 37h1v1h-1z"/><path fill="#11151A" d="M20 37h1v1h-1z"/><path fill="#271519" d="M21 37h1v1h-1z"/><path fill="#917447" d="M22 37h1v1h-1zM11 38h1v1h-1z" opacity=".024"/><path fill="#1F171C" d="M12 38h1v1h-1z"/><path fill="#13171D" d="M13 38h1v1h-1z"/><path fill="#0E1013" d="M14 38h1v1h-1z"/><path fill="#0B0C0F" d="M15 38h1v1h-1z"/><path fill="#0D0E0F" d="M16 38h1v1h-1z"/><path fill="#0B0C0F" d="M17 38h1v1h-1z"/><path fill="#0E1114" d="M18 38h1v1h-1z"/><path fill="#13171E" d="M19 38h1v1h-1z"/><path fill="#1F171C" d="M20 38h1v1h-1z"/><path fill="#917447" d="M21 38h1v1h-1zM11 39h1v1h-1z" opacity=".024"/><path fill="#1F171C" d="M12 39h1v1h-1z"/><path fill="#111419" d="M13 39h1v1h-1z"/><path fill="#0E1013" d="M14 39h1v1h-1zM15 39h1v1h-1z"/><path fill="#0D0E0F" d="M16 39h1v1h-1z"/><path fill="#0E1114" d="M17 39h1v1h-1zM18 39h1v1h-1z"/><path fill="#11151A" d="M19 39h1v1h-1z"/><path fill="#1F171C" d="M20 39h1v1h-1z"/><path fill="#917447" d="M21 39h1v1h-1zM11 40h1v1h-1z" opacity=".024"/><path fill="#1B181F" d="M12 40h1v1h-1z"/><path fill="#111419" d="M13 40h1v1h-1zM14 40h1v1h-1z"/><path fill="#0E1013" d="M15 40h1v1h-1z"/><path fill="#08090C" d="M16 40h1v1h-1z"/><path fill="#0E1012" d="M17 40h1v1h-1z"/><path fill="#11151A" d="M18 40h1v1h-1zM19 40h1v1h-1z"/><path fill="#1B181F" d="M20 40h1v1h-1z"/><path fill="#917447" d="M21 40h1v1h-1zM11 41h1v1h-1z" opacity=".024"/><path fill="#261519" d="M12 41h1v1h-1z"/><path fill="#111419" d="M13 41h1v1h-1z"/><path fill="#0E1013" d="M14 41h1v1h-1zM15 41h1v1h-1z"/><path fill="#101317" d="M16 41h1v1h-1z"/><path fill="#0E1012" d="M17 41h1v1h-1zM18 41h1v1h-1z"/><path fill="#111419" d="M19 41h1v1h-1z"/><path fill="#271519" d="M20 41h1v1h-1z"/><path fill="#917447" d="M21 41h1v1h-1zM11 42h1v1h-1z" opacity=".024"/><path fill="#23161A" d="M12 42h1v1h-1z"/><path fill="#12161C" d="M13 42h1v1h-1z"/><path fill="#0E1013" d="M14 42h1v1h-1z"/><path fill="#111419" d="M15 42h1v1h-1z"/><path fill="#12161C" d="M16 42h1v1h-1z"/><path fill="#111419" d="M17 42h1v1h-1z"/><path fill="#0E1012" d="M18 42h1v1h-1z"/><path fill="#13171D" d="M19 42h1v1h-1z"/><path fill="#24161B" d="M20 42h1v1h-1z"/><path fill="#917447" d="M21 42h1v1h-1zM11 43h1v1h-1z" opacity=".024"/><path fill="#20171D" d="M12 43h1v1h-1z"/><path fill="#18151A" d="M13 43h1v1h-1z"/><path fill="#101317" d="M14 43h1v1h-1z"/><path fill="#111419" d="M15 43h1v1h-1z"/><path fill="#0D0E0F" d="M16 43h1v1h-1z"/><path fill="#111419" d="M17 43h1v1h-1zM18 43h1v1h-1z"/><path fill="#19161B" d="M19 43h1v1h-1z"/><path fill="#20181E" d="M20 43h1v1h-1z"/><path fill="#917447" d="M21 43h1v1h-1zM12 44h1v1h-1z" opacity=".024"/><path fill="#18151A" d="M13 44h1v1h-1z"/><path fill="#12161C" d="M14 44h1v1h-1z"/><path fill="#0E1013" d="M15 44h1v1h-1z"/><path fill="#08090C" d="M16 44h1v1h-1z"/><path fill="#0E1012" d="M17 44h1v1h-1z"/><path fill="#13171D" d="M18 44h1v1h-1z"/><path fill="#19161B" d="M19 44h1v1h-1z"/><path fill="#917447" d="M20 44h1v1h-1zM12 45h1v1h-1z" opacity=".024"/><path fill="#19171D" d="M13 45h1v1h-1z"/><path fill="#0D0E0F" d="M14 45h1v1h-1zM15 45h1v1h-1zM16 45h1v1h-1z"/><path fill="#0E1012" d="M17 45h1v1h-1zM18 45h1v1h-1z"/><path fill="#1A181E" d="M19 45h1v1h-1z"/><path fill="#917447" d="M20 45h1v1h-1zM12 46h1v1h-1z" opacity=".024"/><path fill="#1F171C" d="M13 46h1v1h-1z"/><path fill="#0D0E0F" d="M14 46h1v1h-1z"/><path fill="#13181F" d="M15 46h1v1h-1z"/><path fill="#12161C" d="M16 46h1v1h-1z"/><path fill="#141920" d="M17 46h1v1h-1z"/><path fill="#0E1012" d="M18 46h1v1h-1z"/><path fill="#1F171C" d="M19 46h1v1h-1z"/><path fill="#917447" d="M20 46h1v1h-1zM13 47h1v1h-1z" opacity=".024"/><path fill="#101317" d="M14 47h1v1h-1zM15 47h1v1h-1z"/><path fill="#08090C" d="M16 47h1v1h-1z"/><path fill="#101317" d="M17 47h1v1h-1z"/><path fill="#111419" d="M18 47h1v1h-1z"/><path fill="#917447" d="M19 47h1v1h-1zM13 48h1v1h-1z" opacity=".024"/><path fill="#101317" d="M14 48h1v1h-1z"/><path fill="#0D0E0F" d="M15 48h1v1h-1zM16 48h1v1h-1zM17 48h1v1h-1z"/><path fill="#101317" d="M18 48h1v1h-1z"/><path fill="#917447" d="M19 48h1v1h-1zM13 49h1v1h-1z" opacity=".024"/><path fill="#12161C" d="M14 49h1v1h-1z"/><path fill="#0D0E0F" d="M15 49h1v1h-1z"/><path fill="#12161C" d="M16 49h1v1h-1z"/><path fill="#0D0E0F" d="M17 49h1v1h-1z"/><path fill="#12161C" d="M18 49h1v1h-1z"/><path fill="#917447" d="M19 49h1v1h-1zM12 50h1v1h-1z" opacity=".024"/><path fill="#22181E" d="M13 50h1v1h-1z"/><path fill="#191318" d="M14 50h1v1h-1z"/><path fill="#0D0E0F" d="M15 50h1v1h-1zM16 50h1v1h-1zM17 50h1v1h-1z"/><path fill="#181316" d="M18 50h1v1h-1z"/><path fill="#22181E" d="M19 50h1v1h-1z"/><path fill="#917447" d="M20 50h1v1h-1zM13 51h1v1h-1z" opacity=".024"/><path fill="#191419" d="M14 51h1v1h-1z"/><path fill="#0E1013" d="M15 51h1v1h-1z"/><path fill="#0D0E0F" d="M16 51h1v1h-1zM17 51h1v1h-1z"/><path fill="#181316" d="M18 51h1v1h-1z"/><path fill="#917447" d="M19 51h1v1h-1zM12 52h1v1h-1z" opacity=".024"/><path fill="#2E1519" d="M13 52h1v1h-1z"/><path fill="#231114" d="M14 52h1v1h-1z"/><path fill="#0E1116" d="M15 52h1v1h-1z"/><path fill="#0D0E0F" d="M16 52h1v1h-1z"/><path fill="#0E1013" d="M17 52h1v1h-1z"/><path fill="#1C0E0F" d="M18 52h1v1h-1z"/><path fill="#2E1519" d="M19 52h1v1h-1z"/><path fill="#917447" d="M20 52h1v1h-1zM13 53h1v1h-1z" opacity=".024"/><path fill="#1D1114" d="M14 53h1v1h-1z"/><path fill="#0E1116" d="M15 53h1v1h-1z"/><path fill="#0D0E0F" d="M16 53h1v1h-1z"/><path fill="#0E1013" d="M17 53h1v1h-1z"/><path fill="#161013" d="M18 53h1v1h-1z"/><path fill="#917447" d="M19 53h1v1h-1zM12 54h1v1h-1z" opacity=".024"/><path fill="#2B161A" d="M13 54h1v1h-1z"/><path fill="#1D1215" d="M14 54h1v1h-1z"/><path fill="#0E1217" d="M15 54h1v1h-1z"/><path fill="#0D0E0F" d="M16 54h1v1h-1z"/><path fill="#0E1116" d="M17 54h1v1h-1z"/><path fill="#161013" d="M18 54h1v1h-1z"/><path fill="#2B161A" d="M19 54h1v1h-1z"/><path fill="#917447" d="M20 54h1v1h-1zM13 55h1v1h-1z" opacity=".024"/><path fill="#0E1218" d="M14 55h1v1h-1zM15 55h1v1h-1z"/><path fill="#0D0E0F" d="M16 55h1v1h-1z"/><path fill="#0E1116" d="M17 55h1v1h-1zM18 55h1v1h-1z"/><path fill="#917447" d="M19 55h1v1h-1zM12 56h1v1h-1z" opacity=".024"/><path fill="#0E1218" d="M13 56h1v1h-1zM14 56h1v1h-1z"/><path fill="#0B0D11" d="M15 56h1v1h-1z"/><path fill="#151B23" d="M16 56h1v1h-1z"/><path fill="#0A0B0E" d="M17 56h1v1h-1z"/><path fill="#0E1217" d="M18 56h1v1h-1z"/><path fill="#0E1116" d="M19 56h1v1h-1z"/><path fill="#917447" d="M20 56h1v1h-1zM12 57h1v1h-1z" opacity=".024"/><path fill="#0E1219" d="M13 57h1v1h-1z"/><path fill="#0B0D11" d="M14 57h1v1h-1z"/><path fill="#151B23" d="M15 57h1v1h-1z"/><path fill="#0D0E0F" d="M16 57h1v1h-1z"/><path fill="#151B23" d="M17 57h1v1h-1z"/><path fill="#0A0B0E" d="M18 57h1v1h-1z"/><path fill="#0E1218" d="M19 57h1v1h-1z"/><path fill="#917447" d="M20 57h1v1h-1zM11 58h1v1h-1z" opacity=".024"/><path fill="#0E1218" d="M12 58h1v1h-1zM13 58h1v1h-1z"/><path fill="#0B0D11" d="M14 58h1v1h-1z"/><path fill="#151B23" d="M15 58h1v1h-1z"/><path fill="#0D0E0F" d="M16 58h1v1h-1z"/><path fill="#151B23" d="M17 58h1v1h-1z"/><path fill="#0A0B0E" d="M18 58h1v1h-1z"/><path fill="#0E1218" d="M19 58h1v1h-1zM20 58h1v1h-1z"/><path fill="#917447" d="M21 58h1v1h-1zM12 59h1v1h-1z" opacity=".024"/><path fill="#151B23" d="M13 59h1v1h-1zM14 59h1v1h-1zM15 59h1v1h-1z"/><path fill="#0D0E0F" d="M16 59h1v1h-1z"/><path fill="#151B23" d="M17 59h1v1h-1zM18 59h1v1h-1zM19 59h1v1h-1z"/><path fill="#917447" d="M20 59h1v1h-1zM7 60h1v1H7zM8 60h1v1H8zM12 60h1v1h-1z" opacity=".024"/><path fill="#0E1116" d="M13 60h1v1h-1z"/><path fill="#08090C" d="M14 60h1v1h-1z"/><path fill="#151B23" d="M15 60h1v1h-1z"/><path fill="#0D0E0F" d="M16 60h1v1h-1z"/><path fill="#151B23" d="M17 60h1v1h-1z"/><path fill="#08090C" d="M18 60h1v1h-1z"/><path fill="#0E1218" d="M19 60h1v1h-1z"/><path fill="#917447" d="M20 60h1v1h-1zM24 60h1v1h-1zM25 60h1v1h-1zM5 61h1v1H5zM6 61h1v1H6z" opacity=".024"/><path fill="#120E0F" d="M7 61h1v1H7zM8 61h1v1H8z"/><path fill="#917447" d="M9 61h1v1H9zM11 61h1v1h-1z" opacity=".024"/><path fill="#0E1013" d="M12 61h1v1h-1zM13 61h1v1h-1z"/><path fill="#08090C" d="M14 61h1v1h-1zM15 61h1v1h-1z"/><path fill="#0D0E0F" d="M16 61h1v1h-1z"/><path fill="#08090C" d="M17 61h1v1h-1zM18 61h1v1h-1z"/><path fill="#0E1219" d="M19 61h1v1h-1zM20 61h1v1h-1z"/><path fill="#917447" d="M21 61h1v1h-1zM23 61h1v1h-1z" opacity=".024"/><path fill="#120E0F" d="M24 61h1v1h-1zM25 61h1v1h-1z"/><path fill="#917447" d="M26 61h1v1h-1zM27 61h1v1h-1zM3 62h1v1H3zM4 62h1v1H4z" opacity=".024"/><path fill="#0D0E0F" d="M5 62h1v1H5z"/><path fill="#120E0F" d="M6 62h1v1H6z"/><path fill="#160E0F" d="M7 62h1v1H7zM8 62h1v1H8zM9 62h1v1H9z"/><path fill="#917447" d="M10 62h1v1h-1zM11 62h1v1h-1zM12 62h1v1h-1z" opacity=".024"/><path fill="#151B23" d="M13 62h1v1h-1zM14 62h1v1h-1z"/><path fill="#0E1116" d="M15 62h1v1h-1z"/><path fill="#0D0E0F" d="M16 62h1v1h-1z"/><path fill="#0E1116" d="M17 62h1v1h-1z"/><path fill="#151B23" d="M18 62h1v1h-1zM19 62h1v1h-1z"/><path fill="#917447" d="M20 62h1v1h-1zM21 62h1v1h-1zM22 62h1v1h-1z" opacity=".024"/><path fill="#160E0F" d="M23 62h1v1h-1zM24 62h1v1h-1zM25 62h1v1h-1z"/><path fill="#120E0F" d="M26 62h1v1h-1z"/><path fill="#0D0E0F" d="M27 62h1v1h-1z"/><path fill="#917447" d="M28 62h1v1h-1zM29 62h1v1h-1zM2 63h1v1H2z" opacity=".024"/><path fill="#08090C" d="M3 63h1v1H3zM4 63h1v1H4z"/><path fill="#917447" d="M5 63h1v1H5z" opacity=".024"/><path fill="#120E0F" d="M6 63h1v1H6z"/><path fill="#220E0F" d="M7 63h1v1H7z"/><path fill="#250E0F" d="M8 63h1v1H8z"/><path fill="#280E0F" d="M9 63h1v1H9z"/><path fill="#917447" d="M10 63h1v1h-1z" opacity=".024"/><path fill="#310E0F" d="M11 63h1v1h-1z"/><path fill="#917447" d="M12 63h1v1h-1z" opacity=".024"/><path fill="#0E1013" d="M13 63h1v1h-1z"/><path fill="#08090C" d="M14 63h1v1h-1z"/><path fill="#151B23" d="M15 63h1v1h-1z"/><path fill="#0D0E0F" d="M16 63h1v1h-1z"/><path fill="#151B23" d="M17 63h1v1h-1z"/><path fill="#08090C" d="M18 63h1v1h-1z"/><path fill="#0E1217" d="M19 63h1v1h-1z"/><path fill="#917447" d="M20 63h1v1h-1z" opacity=".024"/><path fill="#310E0F" d="M21 63h1v1h-1z"/><path fill="#917447" d="M22 63h1v1h-1z" opacity=".024"/><path fill="#280E0F" d="M23 63h1v1h-1z"/><path fill="#250E0F" d="M24 63h1v1h-1z"/><path fill="#220E0F" d="M25 63h1v1h-1z"/><path fill="#120E0F" d="M26 63h1v1h-1z"/><path fill="#917447" d="M27 63h1v1h-1z" opacity=".024"/><path fill="#08090C" d="M28 63h1v1h-1zM29 63h1v1h-1z"/><path fill="#917447" d="M30 63h1v1h-1zM2 64h1v1H2z" opacity=".024"/><path fill="#08090C" d="M3 64h1v1H3zM4 64h1v1H4z"/><path fill="#917447" d="M5 64h1v1H5zM6 64h1v1H6z" opacity=".024"/><path fill="#250E0F" d="M7 64h1v1H7z"/><path fill="#330E0F" d="M8 64h1v1H8z"/><path fill="#3B0E0F" d="M9 64h1v1H9z"/><path fill="#410E0F" d="M10 64h1v1h-1z"/><path fill="#390E0F" d="M11 64h1v1h-1z"/><path fill="#917447" d="M12 64h1v1h-1z" opacity=".024"/><path fill="#0D0E0F" d="M13 64h1v1h-1z"/><path fill="#08090C" d="M14 64h1v1h-1zM15 64h1v1h-1z"/><path fill="#0D0E0F" d="M16 64h1v1h-1z"/><path fill="#08090C" d="M17 64h1v1h-1zM18 64h1v1h-1z"/><path fill="#0E1116" d="M19 64h1v1h-1z"/><path fill="#917447" d="M20 64h1v1h-1z" opacity=".024"/><path fill="#390E0F" d="M21 64h1v1h-1z"/><path fill="#410E0F" d="M22 64h1v1h-1z"/><path fill="#3B0E0F" d="M23 64h1v1h-1z"/><path fill="#330E0F" d="M24 64h1v1h-1z"/><path fill="#250E0F" d="M25 64h1v1h-1z"/><path fill="#917447" d="M26 64h1v1h-1zM27 64h1v1h-1z" opacity=".024"/><path fill="#08090C" d="M28 64h1v1h-1zM29 64h1v1h-1z"/><path fill="#917447" d="M30 64h1v1h-1zM2 65h1v1H2z" opacity=".024"/><path fill="#08090C" d="M3 65h1v1H3z"/><path fill="#131417" d="M4 65h1v1H4z"/><path fill="#917447" d="M5 65h1v1H5zM7 65h1v1H7zM8 65h1v1H8z" opacity=".024"/><path fill="#310E0F" d="M9 65h1v1H9z"/><path fill="#2B0E0F" d="M10 65h1v1h-1z"/><path fill="#917447" d="M11 65h1v1h-1zM12 65h1v1h-1z" opacity=".024"/><path fill="#151B23" d="M13 65h1v1h-1zM14 65h1v1h-1z"/><path fill="#0D0E0F" d="M15 65h1v1h-1zM16 65h1v1h-1z"/><path fill="#0E1013" d="M17 65h1v1h-1z"/><path fill="#151B23" d="M18 65h1v1h-1zM19 65h1v1h-1z"/><path fill="#917447" d="M20 65h1v1h-1zM21 65h1v1h-1z" opacity=".024"/><path fill="#2B0E0F" d="M22 65h1v1h-1z"/><path fill="#310E0F" d="M23 65h1v1h-1z"/><path fill="#917447" d="M24 65h1v1h-1zM25 65h1v1h-1zM27 65h1v1h-1z" opacity=".024"/><path fill="#131417" d="M28 65h1v1h-1z"/><path fill="#08090C" d="M29 65h1v1h-1z"/><path fill="#917447" d="M30 65h1v1h-1zM2 66h1v1H2z" opacity=".024"/><path fill="#0D0E0F" d="M3 66h1v1H3zM4 66h1v1H4z"/><path fill="#917447" d="M5 66h1v1H5zM9 66h1v1H9zM10 66h1v1h-1zM12 66h1v1h-1z" opacity=".024"/><path fill="#0D0E0F" d="M13 66h1v1h-1z"/><path fill="#08090C" d="M14 66h1v1h-1z"/><path fill="#151B23" d="M15 66h1v1h-1z"/><path fill="#0D0E0F" d="M16 66h1v1h-1z"/><path fill="#151B23" d="M17 66h1v1h-1z"/><path fill="#08090C" d="M18 66h1v1h-1z"/><path fill="#0E1013" d="M19 66h1v1h-1z"/><path fill="#917447" d="M20 66h1v1h-1zM22 66h1v1h-1zM23 66h1v1h-1zM27 66h1v1h-1z" opacity=".024"/><path fill="#0D0E0F" d="M28 66h1v1h-1zM29 66h1v1h-1z"/><path fill="#917447" d="M30 66h1v1h-1zM1 67h1v1H1zM2 67h1v1H2z" opacity=".024"/><path fill="#0D0E0F" d="M3 67h1v1H3z"/><path fill="#08090C" d="M4 67h1v1H4z"/><path fill="#111214" d="M5 67h1v1H5z"/><path fill="#917447" d="M6 67h1v1H6zM7 67h1v1H7zM8 67h1v1H8zM11 67h1v1h-1zM12 67h1v1h-1z" opacity=".024"/><path fill="#0D0E0F" d="M13 67h1v1h-1z"/><path fill="#08090C" d="M14 67h1v1h-1zM15 67h1v1h-1z"/><path fill="#0D0E0F" d="M16 67h1v1h-1z"/><path fill="#08090C" d="M17 67h1v1h-1zM18 67h1v1h-1z"/><path fill="#0D0E0F" d="M19 67h1v1h-1z"/><path fill="#917447" d="M20 67h1v1h-1zM21 67h1v1h-1zM24 67h1v1h-1zM25 67h1v1h-1zM26 67h1v1h-1z" opacity=".024"/><path fill="#111214" d="M27 67h1v1h-1z"/><path fill="#08090C" d="M28 67h1v1h-1z"/><path fill="#0D0E0F" d="M29 67h1v1h-1z"/><path fill="#917447" d="M30 67h1v1h-1zM31 67h1v1h-1zM0 68h1v1H0z" opacity=".024"/><path fill="#08090C" d="M1 68h1v1H1zM2 68h1v1H2z"/><path fill="#917447" d="M3 68h1v1H3z" opacity=".024"/><path fill="#101113" d="M4 68h1v1H4z"/><path fill="#0B0C0E" d="M5 68h1v1H5z"/><path fill="#08090C" d="M6 68h1v1H6z"/><path fill="#131417" d="M7 68h1v1H7z"/><path fill="#0D0E0F" d="M8 68h1v1H8z"/><path fill="#917447" d="M9 68h1v1H9zM10 68h1v1h-1z" opacity=".024"/><path fill="#08090C" d="M11 68h1v1h-1zM12 68h1v1h-1zM13 68h1v1h-1zM14 68h1v1h-1zM15 68h1v1h-1zM16 68h1v1h-1zM17 68h1v1h-1zM18 68h1v1h-1zM19 68h1v1h-1zM20 68h1v1h-1zM21 68h1v1h-1z"/><path fill="#917447" d="M22 68h1v1h-1zM23 68h1v1h-1z" opacity=".024"/><path fill="#0D0E0F" d="M24 68h1v1h-1z"/><path fill="#131417" d="M25 68h1v1h-1z"/><path fill="#08090C" d="M26 68h1v1h-1z"/><path fill="#0B0C0E" d="M27 68h1v1h-1z"/><path fill="#101113" d="M28 68h1v1h-1z"/><path fill="#917447" d="M29 68h1v1h-1z" opacity=".024"/><path fill="#08090C" d="M30 68h1v1h-1zM31 68h1v1h-1z"/><path fill="#917447" d="M32 68h1v1h-1zM1 69h1v1H1zM2 69h1v1H2zM3 69h1v1H3z" opacity=".024"/><path fill="#0D0E0F" d="M4 69h1v1H4z"/><path fill="#08090C" d="M5 69h1v1H5z"/><path fill="#121316" d="M6 69h1v1H6z"/><path fill="#0B0C0E" d="M7 69h1v1H7z"/><path fill="#0D0E0F" d="M8 69h1v1H8z"/><path fill="#08090C" d="M9 69h1v1H9z"/><path fill="#111214" d="M10 69h1v1h-1z"/><path fill="#131519" d="M11 69h1v1h-1z"/><path fill="#15171C" d="M12 69h1v1h-1z"/><path fill="#131517" d="M13 69h1v1h-1z"/><path fill="#15171C" d="M14 69h1v1h-1z"/><path fill="#0B0C0E" d="M15 69h1v1h-1z"/><path fill="#08090C" d="M16 69h1v1h-1z"/><path fill="#0B0C0E" d="M17 69h1v1h-1z"/><path fill="#131417" d="M18 69h1v1h-1z"/><path fill="#15171D" d="M19 69h1v1h-1z"/><path fill="#111214" d="M20 69h1v1h-1zM21 69h1v1h-1zM22 69h1v1h-1z"/><path fill="#08090C" d="M23 69h1v1h-1z"/><path fill="#0D0E0F" d="M24 69h1v1h-1z"/><path fill="#0B0C0E" d="M25 69h1v1h-1z"/><path fill="#121316" d="M26 69h1v1h-1z"/><path fill="#08090C" d="M27 69h1v1h-1z"/><path fill="#0D0E0F" d="M28 69h1v1h-1z"/><path fill="#917447" d="M29 69h1v1h-1zM30 69h1v1h-1zM31 69h1v1h-1zM1 70h1v1H1z" opacity=".024"/><path fill="#08090C" d="M2 70h1v1H2zM3 70h1v1H3z"/><path fill="#917447" d="M4 70h1v1H4z" opacity=".024"/><path fill="#08090C" d="M5 70h1v1H5z"/><path fill="#0B0C0E" d="M6 70h1v1H6z"/><path fill="#0A0B0E" d="M7 70h1v1H7z"/><path fill="#08090C" d="M8 70h1v1H8z"/><path fill="#101113" d="M9 70h1v1H9zM10 70h1v1h-1zM11 70h1v1h-1z"/><path fill="#0B0C0E" d="M12 70h1v1h-1zM13 70h1v1h-1z"/><path fill="#0D0E0F" d="M14 70h1v1h-1z"/><path fill="#15161B" d="M15 70h1v1h-1z"/><path fill="#0B0C0E" d="M16 70h1v1h-1z"/><path fill="#16181B" d="M17 70h1v1h-1z"/><path fill="#0D0E0F" d="M18 70h1v1h-1z"/><path fill="#0B0C0E" d="M19 70h1v1h-1zM20 70h1v1h-1z"/><path fill="#101113" d="M21 70h1v1h-1zM22 70h1v1h-1zM23 70h1v1h-1z"/><path fill="#08090C" d="M24 70h1v1h-1z"/><path fill="#0A0B0E" d="M25 70h1v1h-1z"/><path fill="#0B0C0E" d="M26 70h1v1h-1z"/><path fill="#0D0E0F" d="M27 70h1v1h-1z"/><path fill="#917447" d="M28 70h1v1h-1z" opacity=".024"/><path fill="#08090C" d="M29 70h1v1h-1zM30 70h1v1h-1z"/><path fill="#917447" d="M31 70h1v1h-1zM1 71h1v1H1z" opacity=".024"/><path fill="#08090C" d="M2 71h1v1H2z"/><path fill="#917447" d="M3 71h1v1H3zM4 71h1v1H4zM5 71h1v1H5zM6 71h1v1H6z" opacity=".024"/><path fill="#0D0E0F" d="M7 71h1v1H7z"/><path fill="#08090C" d="M8 71h1v1H8z"/><path fill="#0F1013" d="M9 71h1v1H9z"/><path fill="#0A0B0E" d="M10 71h1v1h-1z"/><path fill="#111319" d="M11 71h1v1h-1z"/><path fill="#0A0B0E" d="M12 71h1v1h-1z"/><path fill="#08090C" d="M13 71h1v1h-1z"/><path fill="#3F090C" d="M14 71h1v1h-1z"/><path fill="#0D0E0F" d="M15 71h1v1h-1z"/><path fill="#0A0B0E" d="M16 71h1v1h-1z"/><path fill="#121315" d="M17 71h1v1h-1z"/><path fill="#3F090C" d="M18 71h1v1h-1z"/><path fill="#08090C" d="M19 71h1v1h-1z"/><path fill="#0A0B0E" d="M20 71h1v1h-1z"/><path fill="#111319" d="M21 71h1v1h-1z"/><path fill="#0A0B0E" d="M22 71h1v1h-1z"/><path fill="#0F1013" d="M23 71h1v1h-1z"/><path fill="#08090C" d="M24 71h1v1h-1z"/><path fill="#0D0E0F" d="M25 71h1v1h-1z"/><path fill="#917447" d="M26 71h1v1h-1zM27 71h1v1h-1zM28 71h1v1h-1zM29 71h1v1h-1z" opacity=".024"/><path fill="#08090C" d="M30 71h1v1h-1z"/><path fill="#917447" d="M31 71h1v1h-1zM2 72h1v1H2zM3 72h1v1H3z" opacity=".024"/><path fill="#08090C" d="M4 72h1v1H4zM5 72h1v1H5zM6 72h1v1H6z"/><path fill="#917447" d="M7 72h1v1H7z" opacity=".024"/><path fill="#08090C" d="M8 72h1v1H8z"/><path fill="#0B0C0E" d="M9 72h1v1H9zM10 72h1v1h-1z"/><path fill="#0A0B0E" d="M11 72h1v1h-1zM12 72h1v1h-1z"/><path fill="#0D0E0F" d="M13 72h1v1h-1zM14 72h1v1h-1zM15 72h1v1h-1z"/><path fill="#0A0B0E" d="M16 72h1v1h-1z"/><path fill="#0D0E0F" d="M17 72h1v1h-1zM18 72h1v1h-1zM19 72h1v1h-1z"/><path fill="#0A0B0E" d="M20 72h1v1h-1zM21 72h1v1h-1z"/><path fill="#0B0C0E" d="M22 72h1v1h-1zM23 72h1v1h-1z"/><path fill="#08090C" d="M24 72h1v1h-1z"/><path fill="#917447" d="M25 72h1v1h-1z" opacity=".024"/><path fill="#08090C" d="M26 72h1v1h-1zM27 72h1v1h-1zM28 72h1v1h-1z"/><path fill="#917447" d="M29 72h1v1h-1zM30 72h1v1h-1zM3 73h1v1H3z" opacity=".024"/><path fill="#08090C" d="M4 73h1v1H4z"/><path fill="#917447" d="M5 73h1v1H5zM6 73h1v1H6zM7 73h1v1H7zM8 73h1v1H8z" opacity=".024"/><path fill="#0D0E0F" d="M9 73h1v1H9zM10 73h1v1h-1zM11 73h1v1h-1z"/><path fill="#0E0F10" d="M12 73h1v1h-1z"/><path fill="#0D0E0F" d="M13 73h1v1h-1zM14 73h1v1h-1z"/><path fill="#0A0B0E" d="M15 73h1v1h-1z"/><path fill="#08090C" d="M16 73h1v1h-1z"/><path fill="#0A0B0E" d="M17 73h1v1h-1z"/><path fill="#0D0E0F" d="M18 73h1v1h-1zM19 73h1v1h-1zM20 73h1v1h-1zM21 73h1v1h-1zM22 73h1v1h-1zM23 73h1v1h-1z"/><path fill="#917447" d="M24 73h1v1h-1zM25 73h1v1h-1zM26 73h1v1h-1zM27 73h1v1h-1z" opacity=".024"/><path fill="#08090C" d="M28 73h1v1h-1z"/><path fill="#917447" d="M29 73h1v1h-1zM4 74h1v1H4zM6 74h1v1H6z" opacity=".024"/><path fill="#08090C" d="M7 74h1v1H7zM8 74h1v1H8zM9 74h1v1H9z"/><path fill="#0D0E0F" d="M10 74h1v1h-1z"/><path fill="#917447" d="M11 74h1v1h-1zM12 74h1v1h-1zM13 74h1v1h-1z" opacity=".024"/><path fill="#0A0B0E" d="M14 74h1v1h-1zM15 74h1v1h-1zM16 74h1v1h-1zM17 74h1v1h-1z"/><path fill="#08090C" d="M18 74h1v1h-1z"/><path fill="#917447" d="M19 74h1v1h-1zM20 74h1v1h-1zM21 74h1v1h-1z" opacity=".024"/><path fill="#0D0E0F" d="M22 74h1v1h-1z"/><path fill="#08090C" d="M23 74h1v1h-1zM24 74h1v1h-1zM25 74h1v1h-1z"/><path fill="#917447" d="M26 74h1v1h-1zM28 74h1v1h-1zM6 75h1v1H6z" opacity=".024"/><path fill="#08090C" d="M7 75h1v1H7zM8 75h1v1H8z"/><path fill="#917447" d="M9 75h1v1H9zM10 75h1v1h-1zM13 75h1v1h-1z" opacity=".024"/><path fill="#08090C" d="M14 75h1v1h-1z"/><path fill="#0B0C0F" d="M15 75h1v1h-1z"/><path fill="#15161D" d="M16 75h1v1h-1z"/><path fill="#0C0D10" d="M17 75h1v1h-1z"/><path fill="#0B0C0F" d="M18 75h1v1h-1z"/><path fill="#917447" d="M19 75h1v1h-1zM22 75h1v1h-1zM23 75h1v1h-1z" opacity=".024"/><path fill="#08090C" d="M24 75h1v1h-1zM25 75h1v1h-1z"/><path fill="#917447" d="M26 75h1v1h-1zM5 76h1v1H5z" opacity=".024"/><path fill="#0D0E0F" d="M6 76h1v1H6z"/><path fill="#08090C" d="M7 76h1v1H7zM8 76h1v1H8z"/><path fill="#1E0E0F" d="M9 76h1v1H9z"/><path fill="#917447" d="M10 76h1v1h-1zM14 76h1v1h-1z" opacity=".024"/><path fill="#0A0B0E" d="M15 76h1v1h-1z"/><path fill="#0B0C0F" d="M16 76h1v1h-1z"/><path fill="#08090C" d="M17 76h1v1h-1z"/><path fill="#917447" d="M18 76h1v1h-1zM22 76h1v1h-1z" opacity=".024"/><path fill="#1E0E0F" d="M23 76h1v1h-1z"/><path fill="#08090C" d="M24 76h1v1h-1zM25 76h1v1h-1z"/><path fill="#0D0E0F" d="M26 76h1v1h-1z"/><path fill="#917447" d="M27 76h1v1h-1zM4 77h1v1H4z" opacity=".024"/><path fill="#120E0F" d="M5 77h1v1H5zM6 77h1v1H6z"/><path fill="#0D0E0F" d="M7 77h1v1H7z"/><path fill="#160E0F" d="M8 77h1v1H8z"/><path fill="#220E0F" d="M9 77h1v1H9z"/><path fill="#280E0F" d="M10 77h1v1h-1z"/><path fill="#917447" d="M11 77h1v1h-1zM14 77h1v1h-1z" opacity=".024"/><path fill="#0A0B0E" d="M15 77h1v1h-1zM16 77h1v1h-1z"/><path fill="#08090C" d="M17 77h1v1h-1z"/><path fill="#917447" d="M18 77h1v1h-1zM21 77h1v1h-1z" opacity=".024"/><path fill="#280E0F" d="M22 77h1v1h-1z"/><path fill="#220E0F" d="M23 77h1v1h-1z"/><path fill="#160E0F" d="M24 77h1v1h-1z"/><path fill="#0D0E0F" d="M25 77h1v1h-1z"/><path fill="#120E0F" d="M26 77h1v1h-1zM27 77h1v1h-1z"/><path fill="#917447" d="M28 77h1v1h-1zM4 78h1v1H4z" opacity=".024"/><path fill="#160E0F" d="M5 78h1v1H5zM6 78h1v1H6z"/><path fill="#120E0F" d="M7 78h1v1H7z"/><path fill="#160E0F" d="M8 78h1v1H8z"/><path fill="#917447" d="M9 78h1v1H9zM10 78h1v1h-1zM14 78h1v1h-1z" opacity=".024"/><path fill="#08090C" d="M15 78h1v1h-1zM16 78h1v1h-1zM17 78h1v1h-1z"/><path fill="#917447" d="M18 78h1v1h-1zM22 78h1v1h-1zM23 78h1v1h-1z" opacity=".024"/><path fill="#160E0F" d="M24 78h1v1h-1z"/><path fill="#120E0F" d="M25 78h1v1h-1z"/><path fill="#160E0F" d="M26 78h1v1h-1zM27 78h1v1h-1z"/><path fill="#917447" d="M28 78h1v1h-1zM5 79h1v1H5z" opacity=".024"/><path fill="#1A0E0F" d="M6 79h1v1H6z"/><path fill="#160E0F" d="M7 79h1v1H7zM8 79h1v1H8z"/><path fill="#1E0E0F" d="M9 79h1v1H9z"/><path fill="#917447" d="M10 79h1v1h-1zM11 79h1v1h-1zM15 79h1v1h-1z" opacity=".024"/><path fill="#08090C" d="M16 79h1v1h-1z"/><path fill="#917447" d="M17 79h1v1h-1zM21 79h1v1h-1zM22 79h1v1h-1z" opacity=".024"/><path fill="#1E0E0F" d="M23 79h1v1h-1z"/><path fill="#160E0F" d="M24 79h1v1h-1zM25 79h1v1h-1z"/><path fill="#1A0E0F" d="M26 79h1v1h-1z"/><path fill="#917447" d="M27 79h1v1h-1zM5 80h1v1H5z" opacity=".024"/><path fill="#1A0E0F" d="M6 80h1v1H6z"/><path fill="#1E0E0F" d="M7 80h1v1H7z"/><path fill="#250E0F" d="M8 80h1v1H8z"/><path fill="#280E0F" d="M9 80h1v1H9z"/><path fill="#2E0E0F" d="M10 80h1v1h-1zM11 80h1v1h-1z"/><path fill="#917447" d="M12 80h1v1h-1zM14 80h1v1h-1z" opacity=".024"/><path fill="#0B0C0F" d="M15 80h1v1h-1z"/><path fill="#111319" d="M16 80h1v1h-1z"/><path fill="#08090C" d="M17 80h1v1h-1z"/><path fill="#917447" d="M18 80h1v1h-1zM20 80h1v1h-1z" opacity=".024"/><path fill="#2E0E0F" d="M21 80h1v1h-1zM22 80h1v1h-1z"/><path fill="#280E0F" d="M23 80h1v1h-1z"/><path fill="#250E0F" d="M24 80h1v1h-1z"/><path fill="#1E0E0F" d="M25 80h1v1h-1z"/><path fill="#1A0E0F" d="M26 80h1v1h-1z"/><path fill="#917447" d="M27 80h1v1h-1zM6 81h1v1H6z" opacity=".024"/><path fill="#1A0E0F" d="M7 81h1v1H7z"/><path fill="#250E0F" d="M8 81h1v1H8z"/><path fill="#280E0F" d="M9 81h1v1H9z"/><path fill="#2E0E0F" d="M10 81h1v1h-1z"/><path fill="#917447" d="M11 81h1v1h-1zM14 81h1v1h-1z" opacity=".024"/><path fill="#0A0B0E" d="M15 81h1v1h-1zM16 81h1v1h-1z"/><path fill="#08090C" d="M17 81h1v1h-1z"/><path fill="#917447" d="M18 81h1v1h-1zM21 81h1v1h-1z" opacity=".024"/><path fill="#2E0E0F" d="M22 81h1v1h-1z"/><path fill="#280E0F" d="M23 81h1v1h-1z"/><path fill="#250E0F" d="M24 81h1v1h-1z"/><path fill="#1A0E0F" d="M25 81h1v1h-1z"/><path fill="#917447" d="M26 81h1v1h-1zM7 82h1v1H7zM8 82h1v1H8zM9 82h1v1H9zM10 82h1v1h-1zM14 82h1v1h-1z" opacity=".024"/><path fill="#08090C" d="M15 82h1v1h-1zM16 82h1v1h-1zM17 82h1v1h-1z"/><path fill="#917447" d="M18 82h1v1h-1zM22 82h1v1h-1zM23 82h1v1h-1zM24 82h1v1h-1zM25 82h1v1h-1zM15 83h1v1h-1z" opacity=".024"/><path fill="#08090C" d="M16 83h1v1h-1z"/><path fill="#917447" d="M17 83h1v1h-1zM14 84h1v1h-1z" opacity=".024"/><path fill="#08090C" d="M15 84h1v1h-1z"/><path fill="#0F1015" d="M16 84h1v1h-1z"/><path fill="#08090C" d="M17 84h1v1h-1z"/><path fill="#917447" d="M18 84h1v1h-1zM14 85h1v1h-1z" opacity=".024"/><path fill="#0C0D10" d="M15 85h1v1h-1zM16 85h1v1h-1z"/><path fill="#08090C" d="M17 85h1v1h-1z"/><path fill="#917447" d="M18 85h1v1h-1zM14 86h1v1h-1z" opacity=".024"/><path fill="#08090C" d="M15 86h1v1h-1z"/><path fill="#0A0B0E" d="M16 86h1v1h-1z"/><path fill="#08090C" d="M17 86h1v1h-1z"/><path fill="#917447" d="M18 86h1v1h-1zM15 87h1v1h-1z" opacity=".024"/><path fill="#08090C" d="M16 87h1v1h-1z"/><path fill="#917447" d="M17 87h1v1h-1zM14 88h1v1h-1z" opacity=".024"/><path fill="#0A0B0E" d="M15 88h1v1h-1z"/><path fill="#0F1117" d="M16 88h1v1h-1z"/><path fill="#08090C" d="M17 88h1v1h-1z"/><path fill="#917447" d="M18 88h1v1h-1zM14 89h1v1h-1z" opacity=".024"/><path fill="#0B0C0F" d="M15 89h1v1h-1zM16 89h1v1h-1z"/><path fill="#0A0B0E" d="M17 89h1v1h-1z"/><path fill="#917447" d="M18 89h1v1h-1zM13 90h1v1h-1z" opacity=".024"/><path fill="#08090C" d="M14 90h1v1h-1zM15 90h1v1h-1z"/><path fill="#0A0B0E" d="M16 90h1v1h-1z"/><path fill="#08090C" d="M17 90h1v1h-1zM18 90h1v1h-1z"/><path fill="#917447" d="M19 90h1v1h-1zM12 91h1v1h-1z" opacity=".024"/><path fill="#08090C" d="M13 91h1v1h-1z"/><path fill="#917447" d="M14 91h1v1h-1zM15 91h1v1h-1z" opacity=".024"/><path fill="#08090C" d="M16 91h1v1h-1z"/><path fill="#917447" d="M17 91h1v1h-1zM18 91h1v1h-1z" opacity=".024"/><path fill="#08090C" d="M19 91h1v1h-1z"/><path fill="#917447" d="M20 91h1v1h-1zM12 92h1v1h-1z" opacity=".024"/><path fill="#08090C" d="M13 92h1v1h-1z"/><path fill="#917447" d="M14 92h1v1h-1z" opacity=".024"/><path fill="#08090C" d="M15 92h1v1h-1z"/><path fill="#917447" d="M16 92h1v1h-1z" opacity=".024"/><path fill="#08090C" d="M17 92h1v1h-1z"/><path fill="#917447" d="M18 92h1v1h-1z" opacity=".024"/><path fill="#08090C" d="M19 92h1v1h-1z"/><path fill="#917447" d="M20 92h1v1h-1zM13 93h1v1h-1zM15 93h1v1h-1zM17 93h1v1h-1zM19 93h1v1h-1z" opacity=".024"/></svg>