<svg xmlns="http://www.w3.org/2000/svg" width="24" height="99" shape-rendering="crispEdges"><path fill="#A1D2F2" d="M13 0h1v1h-1z"/><path fill="#38BFCF" d="M14 0h1v1h-1z"/><path fill="#5CC9DA" d="M12 1h1v1h-1z"/><path fill="#8CD7E8" d="M13 1h1v1h-1z"/><path fill="#7DC4E0" d="M14 1h1v1h-1z"/><path fill="#38BFCF" d="M12 2h1v1h-1z"/><path fill="#BFE3F7" d="M13 2h1v1h-1z"/><path fill="#88CAE2" d="M8 3h1v1H8z"/><path fill="#6BC4D5" d="M9 3h1v1H9z"/><path fill="#73C8DE" d="M12 3h1v1h-1z"/><path fill="#76BCD8" d="M13 3h1v1h-1z"/><path fill="#9FD2F1" d="M7 4h1v1H7z"/><path fill="#88CAE2" d="M8 4h1v1H8z"/><path fill="#6BC4D5" d="M9 4h1v1H9z"/><path fill="#99D0ED" d="M7 5h1v1H7z"/><path fill="#88CAE2" d="M8 5h1v1H8z"/><path fill="#6BC4D5" d="M9 5h1v1H9z"/><path fill="#8ECFEC" d="M6 6h1v1H6z"/><path fill="#6BC4D5" d="M7 6h1v1H7z"/><path fill="#88CAE2" d="M8 6h1v1H8z"/><path fill="#63C4D4" d="M6 7h1v1H6z"/><path fill="#3884AB" d="M7 7h1v1H7z"/><path fill="#388DB1" d="M6 8h1v1H6z"/><path fill="#8ECAE0" d="M7 8h1v1H7z"/><path fill="#56B5CC" d="M6 9h1v1H6z"/><path fill="#CAE9FA" d="M7 9h1v1H7z"/><path fill="#5CB4CC" d="M6 10h1v1H6z"/><path fill="#A8D9EC" d="M7 10h1v1H7z"/><path fill="#63B2CC" d="M6 11h1v1H6zM7 11h1v1H7z"/><path fill="#6BB0CC" d="M7 12h1v1H7z"/><path fill="#38BFCF" d="M11 12h1v1h-1z"/><path fill="#3881A9" d="M7 13h1v1H7z"/><path fill="#81C8E4" d="M8 13h1v1H8z"/><path fill="#3881A9" d="M7 14h1v1H7z"/><path fill="#76BCD8" d="M8 14h1v1H8z"/><path fill="#7DC4E0" d="M7 15h1v1H7z"/><path fill="#3881A9" d="M8 15h1v1H8z"/><path fill="#86CEE9" d="M7 16h1v1H7z"/><path fill="#76BCD8" d="M8 16h1v1H8z"/><path fill="#8CBCDB" d="M9 16h1v1H9z"/><path fill="#99D0ED" d="M8 17h1v1H8z"/><path fill="#38BFCF" d="M9 17h1v1H9zM9 18h1v1H9zM10 19h1v1h-1z"/><path fill="#75C4D6" d="M5 20h1v1H5zM6 20h1v1H6z"/><path fill="#316A95" d="M10 20h1v1h-1z"/><path fill="#75C4D6" d="M4 21h1v1H4z"/><path fill="#38BFCF" d="M5 21h1v1H5z"/><path fill="#88CAE2" d="M6 21h1v1H6zM7 21h1v1H7z"/><path fill="#446F97" d="M10 21h1v1h-1z"/><path fill="#38BFCF" d="M11 21h1v1h-1z"/><path fill="#88CAE2" d="M5 22h1v1H5z"/><path fill="#99D0ED" d="M6 22h1v1H6z"/><path fill="#6DBAD8" d="M7 22h1v1H7z"/><path fill="#347295" d="M10 22h1v1h-1z"/><path fill="#38BFCF" d="M11 22h1v1h-1z"/><path fill="#88CAE2" d="M6 23h1v1H6z"/><path fill="#819DBA" d="M10 23h1v1h-1z"/><path fill="#294B77" d="M11 23h1v1h-1z"/><path fill="#38BFCF" d="M12 23h1v1h-1z"/><path fill="#348FAE" d="M10 24h1v1h-1z"/><path fill="#2D557D" d="M11 24h1v1h-1z"/><path fill="#38BFCF" d="M12 24h1v1h-1z"/><path fill="#2B4072" d="M11 25h1v1h-1z"/><path fill="#38BFCF" d="M12 25h1v1h-1z"/><path fill="#2C7897" d="M12 26h1v1h-1z"/><path fill="#65C3D5" d="M17 26h1v1h-1z"/><path fill="#2C7897" d="M12 27h1v1h-1z"/><path fill="#9DD1EF" d="M9 28h1v1H9z"/><path fill="#71B3D4" d="M10 28h1v1h-1z"/><path fill="#2D4977" d="M12 28h1v1h-1z"/><path fill="#95C5E5" d="M9 29h1v1H9z"/><path fill="#386B9C" d="M10 29h1v1h-1z"/><path fill="#60A1C2" d="M11 29h1v1h-1z"/><path fill="#68AACB" d="M12 29h1v1h-1z"/><path fill="#8CBCDB" d="M16 29h1v1h-1z"/><path fill="#93CEE9" d="M17 29h1v1h-1z"/><path fill="#7CACCB" d="M10 30h1v1h-1z"/><path fill="#386B9C" d="M11 30h1v1h-1z"/><path fill="#3881A9" d="M12 30h1v1h-1z"/><path fill="#73C8DE" d="M13 30h1v1h-1z"/><path fill="#5CA6C5" d="M15 30h1v1h-1z"/><path fill="#386B9C" d="M16 30h1v1h-1z"/><path fill="#8CBCDB" d="M17 30h1v1h-1z"/><path fill="#75C4D6" d="M12 31h1v1h-1z"/><path fill="#38BFCF" d="M13 31h1v1h-1z"/><path fill="#38A7C0" d="M14 31h1v1h-1z"/><path fill="#3899B8" d="M15 31h1v1h-1z"/><path fill="#4E99BB" d="M16 31h1v1h-1z"/><path fill="#75C4D6" d="M12 32h1v1h-1z"/><path fill="#63C4D4" d="M13 32h1v1h-1z"/><path fill="#34769F" d="M14 32h1v1h-1z"/><path fill="#A2C1DA" d="M15 32h1v1h-1z"/><path fill="#92C2DD" d="M16 32h1v1h-1z"/><path fill="#386B9C" d="M13 33h1v1h-1z"/><path fill="#5191B5" d="M14 33h1v1h-1z"/><path fill="#34769F" d="M15 33h1v1h-1z"/><path fill="#83ACCC" d="M16 33h1v1h-1z"/><path fill="#38BFCF" d="M7 34h1v1H7z"/><path fill="#88CAE2" d="M8 34h1v1H8z"/><path fill="#274071" d="M13 34h1v1h-1z"/><path fill="#659FC2" d="M14 34h1v1h-1z"/><path fill="#6588B0" d="M15 34h1v1h-1z"/><path fill="#93CEE9" d="M7 35h1v1H7z"/><path fill="#38BFCF" d="M8 35h1v1H8z"/><path fill="#7BCDE7" d="M11 35h1v1h-1z"/><path fill="#396691" d="M12 35h1v1h-1z"/><path fill="#274071" d="M13 35h1v1h-1z"/><path fill="#36507D" d="M14 35h1v1h-1z"/><path fill="#475D87" d="M15 35h1v1h-1z"/><path fill="#70CBE3" d="M10 36h1v1h-1z"/><path fill="#7BCDE7" d="M11 36h1v1h-1z"/><path fill="#388CB0" d="M12 36h1v1h-1z"/><path fill="#274071" d="M13 36h1v1h-1zM14 36h1v1h-1z"/><path fill="#70CBE3" d="M10 37h1v1h-1z"/><path fill="#389AB8" d="M11 37h1v1h-1z"/><path fill="#62C6DA" d="M12 37h1v1h-1z"/><path fill="#3899B8" d="M13 37h1v1h-1z"/><path fill="#92D1EE" d="M10 38h1v1h-1z"/><path fill="#389AB8" d="M11 38h1v1h-1z"/><path fill="#B3DFF2" d="M12 38h1v1h-1z"/><path fill="#6CBAD9" d="M13 38h1v1h-1z"/><path fill="#92D1EE" d="M10 39h1v1h-1z"/><path fill="#38BFCF" d="M11 39h1v1h-1z"/><path fill="#388BAF" d="M12 39h1v1h-1z"/><path fill="#6CBAD9" d="M13 39h1v1h-1z"/><path fill="#A4D4F4" d="M11 40h1v1h-1z"/><path fill="#386B9C" d="M12 40h1v1h-1z"/><path fill="#7CACCB" d="M13 40h1v1h-1z"/><path fill="#38BFCF" d="M12 41h1v1h-1zM13 41h1v1h-1z"/><path fill="#7394BA" d="M14 41h1v1h-1z"/><path fill="#75C4D6" d="M7 42h1v1H7z"/><path fill="#88CAE2" d="M8 42h1v1H8z"/><path fill="#386B9C" d="M13 42h1v1h-1z"/><path fill="#516A96" d="M14 42h1v1h-1z"/><path fill="#8CBCDB" d="M7 43h1v1H7z"/><path fill="#386B9C" d="M8 43h1v1H8z"/><path fill="#628DB2" d="M13 43h1v1h-1z"/><path fill="#284072" d="M14 43h1v1h-1z"/><path fill="#38BFCF" d="M15 43h1v1h-1z"/><path fill="#667EA2" d="M13 44h1v1h-1z"/><path fill="#2A4577" d="M14 44h1v1h-1z"/><path fill="#38BFCF" d="M15 44h1v1h-1z"/><path fill="#56678F" d="M13 45h1v1h-1z"/><path fill="#2C7897" d="M14 45h1v1h-1z"/><path fill="#38BFCF" d="M15 45h1v1h-1z"/><path fill="#A4D4F4" d="M7 46h1v1H7z"/><path fill="#62C6DA" d="M8 46h1v1H8z"/><path fill="#516A95" d="M13 46h1v1h-1z"/><path fill="#3196AF" d="M14 46h1v1h-1z"/><path fill="#A4D4F4" d="M6 47h1v1H6z"/><path fill="#38BFCF" d="M7 47h1v1H7z"/><path fill="#62C6DA" d="M8 47h1v1H8zM9 47h1v1H9z"/><path fill="#2C7897" d="M12 47h1v1h-1z"/><path fill="#315F8F" d="M13 47h1v1h-1z"/><path fill="#A4D4F4" d="M7 48h1v1H7z"/><path fill="#386B9C" d="M8 48h1v1H8z"/><path fill="#6BB0CC" d="M9 48h1v1H9z"/><path fill="#79B7D6" d="M10 48h1v1h-1z"/><path fill="#2C7897" d="M11 48h1v1h-1z"/><path fill="#263C6D" d="M12 48h1v1h-1z"/><path fill="#38BFCF" d="M8 49h1v1H8z"/><path fill="#88CFEB" d="M9 49h1v1H9z"/><path fill="#79B7D6" d="M10 49h1v1h-1z"/><path fill="#3F7E9D" d="M11 49h1v1h-1z"/><path fill="#38BFCF" d="M10 50h1v1h-1zM11 50h1v1h-1z"/><path fill="#88C5DD" d="M21 50h1v1h-1z"/><path fill="#B1DDF0" d="M22 50h1v1h-1z"/><path fill="#62C6DA" d="M11 51h1v1h-1z"/><path fill="#88CFEB" d="M12 51h1v1h-1zM13 51h1v1h-1z"/><path fill="#88C5DD" d="M20 51h1v1h-1z"/><path fill="#B8DDF1" d="M21 51h1v1h-1z"/><path fill="#8CC1DA" d="M22 51h1v1h-1z"/><path fill="#ABD6EB" d="M23 51h1v1h-1z"/><path fill="#62C6DA" d="M13 52h1v1h-1z"/><path fill="#38BFCF" d="M14 52h1v1h-1z"/><path fill="#88CFEB" d="M15 52h1v1h-1z"/><path fill="#A4D4F4" d="M16 52h1v1h-1z"/><path fill="#38BFCF" d="M20 52h1v1h-1zM21 52h1v1h-1z"/><path fill="#388DB1" d="M22 52h1v1h-1z"/><path fill="#A3C9E2" d="M23 52h1v1h-1z"/><path fill="#38BFCF" d="M14 53h1v1h-1z"/><path fill="#386B9C" d="M15 53h1v1h-1zM16 53h1v1h-1z"/><path fill="#A4D4F4" d="M17 53h1v1h-1z"/><path fill="#38BFCF" d="M21 53h1v1h-1z"/><path fill="#3883AB" d="M22 53h1v1h-1z"/><path fill="#73C8DE" d="M5 54h1v1H5z"/><path fill="#93CEE9" d="M6 54h1v1H6z"/><path fill="#A4D4F4" d="M15 54h1v1h-1zM16 54h1v1h-1z"/><path fill="#386B9C" d="M17 54h1v1h-1z"/><path fill="#6B9DC5" d="M18 54h1v1h-1z"/><path fill="#38BFCF" d="M5 55h1v1H5z"/><path fill="#3881A9" d="M6 55h1v1H6z"/><path fill="#99D0ED" d="M9 55h1v1H9z"/><path fill="#93CEE9" d="M10 55h1v1h-1z"/><path fill="#83CEE9" d="M16 55h1v1h-1z"/><path fill="#38BFCF" d="M17 55h1v1h-1z"/><path fill="#5E9BC2" d="M18 55h1v1h-1z"/><path fill="#38BFCF" d="M9 56h1v1H9z"/><path fill="#386B9C" d="M10 56h1v1h-1z"/><path fill="#95C5E5" d="M11 56h1v1h-1z"/><path fill="#5580A6" d="M16 56h1v1h-1z"/><path fill="#38BFCF" d="M17 56h1v1h-1z"/><path fill="#386B9C" d="M10 57h1v1h-1z"/><path fill="#2A6C8E" d="M16 57h1v1h-1z"/><path fill="#2A5D84" d="M17 57h1v1h-1z"/><path fill="#C6E8FA" d="M4 58h1v1H4z"/><path fill="#92D7EC" d="M5 58h1v1H5z"/><path fill="#51B6CC" d="M6 58h1v1H6z"/><path fill="#2C6189" d="M16 58h1v1h-1z"/><path fill="#4E769A" d="M17 58h1v1h-1z"/><path fill="#92D7EC" d="M4 59h1v1H4z"/><path fill="#AEDDF0" d="M5 59h1v1H5z"/><path fill="#8CC9DF" d="M6 59h1v1H6z"/><path fill="#56B5CC" d="M7 59h1v1H7z"/><path fill="#C6E8FA" d="M13 59h1v1h-1z"/><path fill="#2C7897" d="M15 59h1v1h-1z"/><path fill="#304F7D" d="M16 59h1v1h-1z"/><path fill="#6384A8" d="M17 59h1v1h-1z"/><path fill="#71C9E0" d="M4 60h1v1H4z"/><path fill="#38BFCF" d="M5 60h1v1H5zM6 60h1v1H6z"/><path fill="#3884AC" d="M7 60h1v1H7z"/><path fill="#C6E8FA" d="M9 60h1v1H9zM10 60h1v1h-1z"/><path fill="#294071" d="M15 60h1v1h-1z"/><path fill="#38BFCF" d="M16 60h1v1h-1z"/><path fill="#437CA8" d="M5 61h1v1H5z"/><path fill="#38BFCF" d="M6 61h1v1H6z"/><path fill="#366D99" d="M7 61h1v1H7z"/><path fill="#6994BC" d="M8 61h1v1H8z"/><path fill="#38BFCF" d="M9 61h1v1H9zM10 61h1v1h-1zM11 61h1v1h-1z"/><path fill="#2C7897" d="M12 61h1v1h-1zM13 61h1v1h-1z"/><path fill="#38BFCF" d="M14 61h1v1h-1zM15 61h1v1h-1z"/><path fill="#B6E2F4" d="M1 62h1v1H1z"/><path fill="#70C8DD" d="M2 62h1v1H2z"/><path fill="#ABCEE7" d="M6 62h1v1H6z"/><path fill="#6892B7" d="M7 62h1v1H7z"/><path fill="#366293" d="M8 62h1v1H8zM9 62h1v1H9z"/><path fill="#C6E8FA" d="M10 62h1v1h-1z"/><path fill="#315889" d="M11 62h1v1h-1z"/><path fill="#2C6089" d="M12 62h1v1h-1z"/><path fill="#90D3EA" d="M0 63h1v1H0z"/><path fill="#79C4DF" d="M1 63h1v1H1z"/><path fill="#3884AB" d="M2 63h1v1H2z"/><path fill="#97D6EA" d="M3 63h1v1H3z"/><path fill="#C6E8FA" d="M9 63h1v1H9zM10 63h1v1h-1z"/><path fill="#6091BA" d="M11 63h1v1h-1z"/><path fill="#88CAE2" d="M0 64h1v1H0z"/><path fill="#68B1CB" d="M1 64h1v1H1z"/><path fill="#3884AB" d="M2 64h1v1H2z"/><path fill="#93CEE9" d="M3 64h1v1H3z"/><path fill="#38BFCF" d="M10 64h1v1h-1z"/><path fill="#A5C9E4" d="M16 64h1v1h-1z"/><path fill="#38BFCF" d="M17 64h1v1h-1z"/><path fill="#3884AB" d="M2 65h1v1H2z"/><path fill="#387EA8" d="M16 65h1v1h-1z"/><path fill="#386B9C" d="M17 65h1v1h-1z"/><path fill="#B6E2F4" d="M8 66h1v1H8z"/><path fill="#5695B8" d="M12 66h1v1h-1z"/><path fill="#B6E2F4" d="M7 67h1v1H7z"/><path fill="#90D3EA" d="M8 67h1v1H8z"/><path fill="#51B6CC" d="M9 67h1v1H9z"/><path fill="#68B1CB" d="M7 68h1v1H7z"/><path fill="#38BFCF" d="M8 68h1v1H8z"/><path fill="#6496BF" d="M9 68h1v1H9z"/><path fill="#90D3EA" d="M8 69h1v1H8z"/><path fill="#386B9C" d="M9 69h1v1H9zM9 72h1v1H9z"/><path fill="#B6E2F4" d="M5 73h1v1H5z"/><path fill="#90D3EA" d="M6 73h1v1H6zM9 73h1v1H9z"/><path fill="#38BFCF" d="M5 74h1v1H5z"/><path fill="#3884AB" d="M6 74h1v1H6z"/><path fill="#B2C9FB" d="M11 75h1v1h-1zM12 75h1v1h-1zM10 76h1v1h-1z"/><path fill="#2C244D" d="M11 76h1v1h-1zM12 76h1v1h-1z"/><path fill="#7FA7FF" d="M13 76h1v1h-1z"/><path fill="#41648F" d="M15 76h1v1h-1zM16 76h1v1h-1z"/><path fill="#7FA7FF" d="M10 77h1v1h-1z"/><path fill="#2C244D" d="M11 77h1v1h-1zM12 77h1v1h-1z"/><path fill="#B2C9FB" d="M13 77h1v1h-1z"/><path fill="#10374F" d="M14 77h1v1h-1z"/><path fill="#2C244D" d="M15 77h1v1h-1z"/><path fill="#7FA7FF" d="M16 77h1v1h-1z"/><path fill="#41648F" d="M17 77h1v1h-1z"/><path fill="#7FA7FF" d="M11 78h1v1h-1z"/><path fill="#B2C9FB" d="M12 78h1v1h-1z"/><path fill="#10374F" d="M13 78h1v1h-1z"/><path fill="#2A569F" d="M14 78h1v1h-1z"/><path fill="#41648F" d="M15 78h1v1h-1z"/><path fill="#2C244D" d="M16 78h1v1h-1z"/><path fill="#7FA7FF" d="M17 78h1v1h-1z"/><path fill="#FDFEFF" d="M7 79h1v1H7zM8 79h1v1H8z"/><path fill="#10374F" d="M12 79h1v1h-1z"/><path fill="#456EC1" d="M13 79h1v1h-1zM14 79h1v1h-1z"/><path fill="#2C244D" d="M15 79h1v1h-1z"/><path fill="#1C0354" d="M16 79h1v1h-1z"/><path fill="#419CC7" d="M17 79h1v1h-1z"/><path fill="#FDFEFF" d="M6 80h1v1H6zM7 80h1v1H7zM8 80h1v1H8z"/><path fill="#AEA0F1" d="M9 80h1v1H9z"/><path fill="#41648F" d="M11 80h1v1h-1z"/><path fill="#7FA7FF" d="M12 80h1v1h-1zM13 80h1v1h-1z"/><path fill="#41648F" d="M14 80h1v1h-1zM15 80h1v1h-1z"/><path fill="#2C244D" d="M16 80h1v1h-1zM17 80h1v1h-1z"/><path fill="#FDFEFF" d="M6 81h1v1H6zM7 81h1v1H7zM8 81h1v1H8z"/><path fill="#AEA0F1" d="M9 81h1v1H9z"/><path fill="#41648F" d="M11 81h1v1h-1zM12 81h1v1h-1z"/><path fill="#1C0354" d="M13 81h1v1h-1z"/><path fill="#2C244D" d="M14 81h1v1h-1zM15 81h1v1h-1zM16 81h1v1h-1z"/><path fill="#C4EEFF" d="M17 81h1v1h-1z"/><path fill="#AEA0F1" d="M7 82h1v1H7zM8 82h1v1H8z"/><path fill="#10374F" d="M12 82h1v1h-1z"/><path fill="#1C0354" d="M13 82h1v1h-1zM14 82h1v1h-1z"/><path fill="#2C244D" d="M15 82h1v1h-1z"/><path fill="#C4EEFF" d="M16 82h1v1h-1z"/><path fill="#6DC0FF" d="M17 82h1v1h-1z"/><path fill="#FDFEFF" d="M13 83h1v1h-1zM14 83h1v1h-1z"/><path fill="#C4EEFF" d="M15 83h1v1h-1z"/><path fill="#5FA2FF" d="M16 83h1v1h-1z"/><path fill="#6DC0FF" d="M17 83h1v1h-1z"/><path fill="#A4D9FF" d="M13 84h1v1h-1z"/><path fill="#4B7CFF" d="M14 84h1v1h-1z"/><path fill="#6DC0FF" d="M15 84h1v1h-1z"/><path fill="#3CA0AF" d="M16 84h1v1h-1z"/><path fill="#4B7CFF" d="M13 85h1v1h-1zM14 85h1v1h-1z"/><path fill="#65AFFF" d="M15 85h1v1h-1z"/><path fill="#4B7CFF" d="M16 85h1v1h-1zM12 86h1v1h-1zM13 86h1v1h-1z"/><path fill="#65AFFF" d="M14 86h1v1h-1z"/><path fill="#3E62F3" d="M15 86h1v1h-1z"/><path fill="#4B7CFF" d="M12 87h1v1h-1z"/><path fill="#78D7FF" d="M13 87h1v1h-1z"/><path fill="#3E62F3" d="M14 87h1v1h-1zM15 87h1v1h-1z"/><path fill="#FDFEFF" d="M11 88h1v1h-1zM12 88h1v1h-1z"/><path fill="#78D7FF" d="M13 88h1v1h-1z"/><path fill="#3E62F3" d="M14 88h1v1h-1z"/><path fill="#41648F" d="M10 89h1v1h-1z"/><path fill="#2C244D" d="M11 89h1v1h-1z"/><path fill="#1C0354" d="M12 89h1v1h-1z"/><path fill="#FDFEFF" d="M13 89h1v1h-1zM14 89h1v1h-1z"/><path fill="#41648F" d="M9 90h1v1H9z"/><path fill="#7FA7FF" d="M10 90h1v1h-1zM11 90h1v1h-1z"/><path fill="#1C0354" d="M12 90h1v1h-1z"/><path fill="#2C244D" d="M13 90h1v1h-1z"/><path fill="#10374F" d="M14 90h1v1h-1z"/><path fill="#4671D1" d="M9 91h1v1H9z"/><path fill="#7FA7FF" d="M10 91h1v1h-1z"/><path fill="#41648F" d="M11 91h1v1h-1z"/><path fill="#2C244D" d="M12 91h1v1h-1z"/><path fill="#3A4C9D" d="M13 91h1v1h-1z"/><path fill="#41648F" d="M14 91h1v1h-1z"/><path fill="#456EC1" d="M9 92h1v1H9zM10 92h1v1h-1z"/><path fill="#1C0354" d="M11 92h1v1h-1z"/><path fill="#2C244D" d="M12 92h1v1h-1z"/><path fill="#4161C9" d="M13 92h1v1h-1z"/><path fill="#7FA7FF" d="M14 92h1v1h-1z"/><path fill="#4875E5" d="M10 93h1v1h-1z"/><path fill="#1C0354" d="M11 93h1v1h-1z"/><path fill="#343B7B" d="M12 93h1v1h-1z"/><path fill="#456EC1" d="M13 93h1v1h-1z"/><path fill="#7FA7FF" d="M14 93h1v1h-1z"/><path fill="#41648F" d="M11 94h1v1h-1zM12 94h1v1h-1z"/><path fill="#7FA7FF" d="M13 94h1v1h-1z"/></svg>