<svg xmlns="http://www.w3.org/2000/svg" width="21" height="96" shape-rendering="crispEdges"><path fill="#CADCDE" d="M4 0h1v1H4zM5 0h1v1H5zM6 0h1v1H6zM7 0h1v1H7zM8 0h1v1H8zM9 0h1v1H9z"/><path fill="#4D5858" d="M5 1h1v1H5z"/><path fill="#7D898A" d="M6 1h1v1H6z"/><path fill="#A6B4B7" d="M7 1h1v1H7z"/><path fill="#CADCDE" d="M8 1h1v1H8zM9 1h1v1H9zM10 1h1v1h-1z"/><path fill="#454D4D" d="M6 2h1v1H6z"/><path fill="#363C3C" d="M7 2h1v1H7z"/><path fill="#7C8486" d="M8 2h1v1H8z"/><path fill="#94A1A3" d="M9 2h1v1H9z"/><path fill="#CADCDE" d="M10 2h1v1h-1zM11 2h1v1h-1z"/><path fill="#454D4D" d="M7 3h1v1H7z"/><path fill="#4F5555" d="M8 3h1v1H8z"/><path fill="#7C8486" d="M9 3h1v1H9z"/><path fill="#94A1A3" d="M10 3h1v1h-1z"/><path fill="#CADCDE" d="M11 3h1v1h-1zM12 3h1v1h-1z"/><path fill="#3C4343" d="M7 4h1v1H7z"/><path fill="#303636" d="M8 4h1v1H8z"/><path fill="#5F6667" d="M9 4h1v1H9z"/><path fill="#7C8486" d="M10 4h1v1h-1z"/><path fill="#94A1A3" d="M11 4h1v1h-1z"/><path fill="#CADCDE" d="M12 4h1v1h-1z"/><path fill="#3C4343" d="M7 5h1v1H7z"/><path fill="#2A3030" d="M8 5h1v1H8z"/><path fill="#303535" d="M9 5h1v1H9z"/><path fill="#7C8486" d="M10 5h1v1h-1zM11 5h1v1h-1z"/><path fill="#CADCDE" d="M12 5h1v1h-1zM13 5h1v1h-1z"/><path fill="#3C4343" d="M8 6h1v1H8z"/><path fill="#2C3030" d="M9 6h1v1H9z"/><path fill="#2F3333" d="M10 6h1v1h-1z"/><path fill="#6A7273" d="M11 6h1v1h-1z"/><path fill="#94A1A3" d="M12 6h1v1h-1z"/><path fill="#CADCDE" d="M13 6h1v1h-1zM14 6h1v1h-1z"/><path fill="#303636" d="M8 7h1v1H8z"/><path fill="#2D3232" d="M9 7h1v1H9z"/><path fill="#242929" d="M10 7h1v1h-1z"/><path fill="#6A7273" d="M11 7h1v1h-1zM12 7h1v1h-1z"/><path fill="#94A1A3" d="M13 7h1v1h-1z"/><path fill="#CADCDE" d="M14 7h1v1h-1z"/><path fill="#303636" d="M8 8h1v1H8z"/><path fill="#272D2D" d="M9 8h1v1H9z"/><path fill="#2F3333" d="M10 8h1v1h-1zM11 8h1v1h-1z"/><path fill="#6A7273" d="M12 8h1v1h-1z"/><path fill="#7C8486" d="M13 8h1v1h-1z"/><path fill="#CADCDE" d="M14 8h1v1h-1z"/><path fill="#303636" d="M8 9h1v1H8z"/><path fill="#2C3232" d="M9 9h1v1H9z"/><path fill="#242929" d="M10 9h1v1h-1zM11 9h1v1h-1z"/><path fill="#5C6365" d="M12 9h1v1h-1z"/><path fill="#7C8486" d="M13 9h1v1h-1z"/><path fill="#CADCDE" d="M14 9h1v1h-1zM15 9h1v1h-1z"/><path fill="#303636" d="M9 10h1v1H9z"/><path fill="#242929" d="M10 10h1v1h-1zM11 10h1v1h-1z"/><path fill="#2F3333" d="M12 10h1v1h-1z"/><path fill="#6A7273" d="M13 10h1v1h-1z"/><path fill="#7C8486" d="M14 10h1v1h-1z"/><path fill="#CADCDE" d="M15 10h1v1h-1z"/><path fill="#303636" d="M9 11h1v1H9z"/><path fill="#242929" d="M10 11h1v1h-1z"/><path fill="#528650" d="M11 11h1v1h-1z"/><path fill="#487045" d="M12 11h1v1h-1z"/><path fill="#6A7273" d="M13 11h1v1h-1z"/><path fill="#7C8486" d="M14 11h1v1h-1z"/><path fill="#CADCDE" d="M15 11h1v1h-1z"/><path fill="#303636" d="M9 12h1v1H9z"/><path fill="#528650" d="M10 12h1v1h-1z"/><path fill="#1A1C1C" d="M11 12h1v1h-1zM12 12h1v1h-1z"/><path fill="#528650" d="M13 12h1v1h-1z"/><path fill="#7C8486" d="M14 12h1v1h-1z"/><path fill="#CADCDE" d="M15 12h1v1h-1z"/><path fill="#303636" d="M9 13h1v1H9z"/><path fill="#487045" d="M10 13h1v1h-1z"/><path fill="#263636" d="M11 13h1v1h-1z"/><path fill="#2F3333" d="M12 13h1v1h-1z"/><path fill="#454C4C" d="M13 13h1v1h-1z"/><path fill="#528650" d="M14 13h1v1h-1z"/><path fill="#CADCDE" d="M15 13h1v1h-1z"/><path fill="#2C3232" d="M9 14h1v1H9z"/><path fill="#242929" d="M10 14h1v1h-1z"/><path fill="#263636" d="M11 14h1v1h-1z"/><path fill="#2F3333" d="M12 14h1v1h-1z"/><path fill="#454C4C" d="M13 14h1v1h-1z"/><path fill="#528650" d="M14 14h1v1h-1z"/><path fill="#CADCDE" d="M15 14h1v1h-1z"/><path fill="#2A3030" d="M9 15h1v1H9z"/><path fill="#242929" d="M10 15h1v1h-1z"/><path fill="#263333" d="M11 15h1v1h-1z"/><path fill="#2D3B3B" d="M12 15h1v1h-1z"/><path fill="#6A7273" d="M13 15h1v1h-1z"/><path fill="#454C4C" d="M14 15h1v1h-1z"/><path fill="#528650" d="M15 15h1v1h-1z"/><path fill="#272D2D" d="M9 16h1v1H9z"/><path fill="#242929" d="M10 16h1v1h-1z"/><path fill="#263030" d="M11 16h1v1h-1z"/><path fill="#2A3535" d="M12 16h1v1h-1z"/><path fill="#7C8486" d="M13 16h1v1h-1z"/><path fill="#454C4C" d="M14 16h1v1h-1z"/><path fill="#487045" d="M15 16h1v1h-1z"/><path fill="#2F3333" d="M9 17h1v1H9z"/><path fill="#242929" d="M10 17h1v1h-1zM11 17h1v1h-1z"/><path fill="#263333" d="M12 17h1v1h-1z"/><path fill="#7C8486" d="M13 17h1v1h-1zM14 17h1v1h-1z"/><path fill="#454C4C" d="M15 17h1v1h-1z"/><path fill="#528650" d="M16 17h1v1h-1z"/><path fill="#2F3333" d="M9 18h1v1H9z"/><path fill="#242929" d="M10 18h1v1h-1zM11 18h1v1h-1z"/><path fill="#263636" d="M12 18h1v1h-1zM13 18h1v1h-1z"/><path fill="#7C8486" d="M14 18h1v1h-1z"/><path fill="#94A1A3" d="M15 18h1v1h-1z"/><path fill="#B1C1C4" d="M16 18h1v1h-1z"/><path fill="#2F3333" d="M9 19h1v1H9z"/><path fill="#242929" d="M10 19h1v1h-1zM11 19h1v1h-1zM12 19h1v1h-1zM13 19h1v1h-1z"/><path fill="#7C8486" d="M14 19h1v1h-1z"/><path fill="#778081" d="M15 19h1v1h-1z"/><path fill="#BDCFD2" d="M16 19h1v1h-1z"/><path fill="#242929" d="M9 20h1v1H9zM10 20h1v1h-1z"/><path fill="#528650" d="M11 20h1v1h-1zM12 20h1v1h-1z"/><path fill="#242929" d="M13 20h1v1h-1z"/><path fill="#6D7677" d="M14 20h1v1h-1z"/><path fill="#778081" d="M15 20h1v1h-1z"/><path fill="#B1C1C4" d="M16 20h1v1h-1z"/><path fill="#242929" d="M9 21h1v1H9z"/><path fill="#528650" d="M10 21h1v1h-1z"/><path fill="#1A1C1C" d="M11 21h1v1h-1zM12 21h1v1h-1z"/><path fill="#528650" d="M13 21h1v1h-1z"/><path fill="#747D7F" d="M14 21h1v1h-1z"/><path fill="#778081" d="M15 21h1v1h-1z"/><path fill="#A6B4B7" d="M16 21h1v1h-1z"/><path fill="#242929" d="M9 22h1v1H9z"/><path fill="#243030" d="M10 22h1v1h-1z"/><path fill="#487045" d="M11 22h1v1h-1z"/><path fill="#1A1C1C" d="M12 22h1v1h-1z"/><path fill="#365535" d="M13 22h1v1h-1z"/><path fill="#747D7F" d="M14 22h1v1h-1z"/><path fill="#778081" d="M15 22h1v1h-1z"/><path fill="#B1C1C4" d="M16 22h1v1h-1z"/><path fill="#242929" d="M9 23h1v1H9zM10 23h1v1h-1z"/><path fill="#242D2D" d="M11 23h1v1h-1zM12 23h1v1h-1z"/><path fill="#365535" d="M13 23h1v1h-1z"/><path fill="#6D7677" d="M14 23h1v1h-1zM15 23h1v1h-1z"/><path fill="#A6B4B7" d="M16 23h1v1h-1z"/><path fill="#242929" d="M9 24h1v1H9zM10 24h1v1h-1zM11 24h1v1h-1z"/><path fill="#365535" d="M12 24h1v1h-1z"/><path fill="#1A1C1C" d="M13 24h1v1h-1z"/><path fill="#6D7677" d="M14 24h1v1h-1zM15 24h1v1h-1z"/><path fill="#A6B4B7" d="M16 24h1v1h-1z"/><path fill="#242929" d="M9 25h1v1H9zM10 25h1v1h-1z"/><path fill="#365535" d="M11 25h1v1h-1z"/><path fill="#1A1C1C" d="M12 25h1v1h-1z"/><path fill="#273939" d="M13 25h1v1h-1z"/><path fill="#606769" d="M14 25h1v1h-1z"/><path fill="#6D7677" d="M15 25h1v1h-1z"/><path fill="#7C8486" d="M16 25h1v1h-1z"/><path fill="#242929" d="M9 26h1v1H9z"/><path fill="#528650" d="M10 26h1v1h-1z"/><path fill="#1A1C1C" d="M11 26h1v1h-1z"/><path fill="#242929" d="M12 26h1v1h-1z"/><path fill="#262F2F" d="M13 26h1v1h-1z"/><path fill="#454C4C" d="M14 26h1v1h-1z"/><path fill="#656D6F" d="M15 26h1v1h-1z"/><path fill="#7C8486" d="M16 26h1v1h-1z"/><path fill="#242929" d="M9 27h1v1H9z"/><path fill="#487045" d="M10 27h1v1h-1z"/><path fill="#1A1C1C" d="M11 27h1v1h-1z"/><path fill="#242D2D" d="M12 27h1v1h-1z"/><path fill="#262F2F" d="M13 27h1v1h-1z"/><path fill="#454C4C" d="M14 27h1v1h-1z"/><path fill="#656D6F" d="M15 27h1v1h-1z"/><path fill="#242929" d="M9 28h1v1H9z"/><path fill="#365535" d="M10 28h1v1h-1z"/><path fill="#1A1C1C" d="M11 28h1v1h-1z"/><path fill="#242D2D" d="M12 28h1v1h-1z"/><path fill="#242929" d="M13 28h1v1h-1z"/><path fill="#454C4C" d="M14 28h1v1h-1z"/><path fill="#5A6263" d="M15 28h1v1h-1z"/><path fill="#242929" d="M9 29h1v1H9z"/><path fill="#365535" d="M10 29h1v1h-1z"/><path fill="#1A1C1C" d="M11 29h1v1h-1z"/><path fill="#242D2D" d="M12 29h1v1h-1z"/><path fill="#242929" d="M13 29h1v1h-1z"/><path fill="#5F696A" d="M14 29h1v1h-1z"/><path fill="#565D5F" d="M15 29h1v1h-1z"/><path fill="#242929" d="M9 30h1v1H9z"/><path fill="#1A1C1C" d="M10 30h1v1h-1z"/><path fill="#487045" d="M11 30h1v1h-1z"/><path fill="#242D2D" d="M12 30h1v1h-1z"/><path fill="#242929" d="M13 30h1v1h-1z"/><path fill="#555C5C" d="M14 30h1v1h-1z"/><path fill="#4C5353" d="M15 30h1v1h-1z"/><path fill="#242929" d="M9 31h1v1H9z"/><path fill="#1A1C1C" d="M10 31h1v1h-1z"/><path fill="#487045" d="M11 31h1v1h-1z"/><path fill="#242929" d="M12 31h1v1h-1z"/><path fill="#6F7A7C" d="M13 31h1v1h-1z"/><path fill="#454C4C" d="M14 31h1v1h-1z"/><path fill="#4B5252" d="M15 31h1v1h-1z"/><path fill="#487045" d="M8 32h1v1H8z"/><path fill="#242929" d="M9 32h1v1H9z"/><path fill="#1A1C1C" d="M10 32h1v1h-1z"/><path fill="#487045" d="M11 32h1v1h-1z"/><path fill="#242929" d="M12 32h1v1h-1z"/><path fill="#697274" d="M13 32h1v1h-1z"/><path fill="#454C4C" d="M14 32h1v1h-1zM15 32h1v1h-1z"/><path fill="#487045" d="M8 33h1v1H8z"/><path fill="#242929" d="M9 33h1v1H9z"/><path fill="#1A1C1C" d="M10 33h1v1h-1z"/><path fill="#3B5939" d="M11 33h1v1h-1z"/><path fill="#242929" d="M12 33h1v1h-1z"/><path fill="#586060" d="M13 33h1v1h-1z"/><path fill="#454C4C" d="M14 33h1v1h-1zM15 33h1v1h-1z"/><path fill="#487045" d="M9 34h1v1H9z"/><path fill="#1A1C1C" d="M10 34h1v1h-1z"/><path fill="#365535" d="M11 34h1v1h-1z"/><path fill="#242929" d="M12 34h1v1h-1z"/><path fill="#525C5C" d="M13 34h1v1h-1z"/><path fill="#454C4C" d="M14 34h1v1h-1zM15 34h1v1h-1z"/><path fill="#242929" d="M9 35h1v1H9z"/><path fill="#365535" d="M10 35h1v1h-1z"/><path fill="#1A1C1C" d="M11 35h1v1h-1z"/><path fill="#2A2F2F" d="M12 35h1v1h-1z"/><path fill="#5F696A" d="M13 35h1v1h-1z"/><path fill="#454C4C" d="M14 35h1v1h-1zM15 35h1v1h-1z"/><path fill="#242929" d="M9 36h1v1H9z"/><path fill="#487045" d="M10 36h1v1h-1z"/><path fill="#1A1C1C" d="M11 36h1v1h-1z"/><path fill="#242929" d="M12 36h1v1h-1z"/><path fill="#6F7A7C" d="M13 36h1v1h-1z"/><path fill="#454C4C" d="M14 36h1v1h-1zM15 36h1v1h-1z"/><path fill="#242929" d="M9 37h1v1H9z"/><path fill="#487045" d="M10 37h1v1h-1z"/><path fill="#1A1C1C" d="M11 37h1v1h-1z"/><path fill="#242929" d="M12 37h1v1h-1z"/><path fill="#528650" d="M13 37h1v1h-1zM14 37h1v1h-1z"/><path fill="#242929" d="M9 38h1v1H9z"/><path fill="#3B5939" d="M10 38h1v1h-1z"/><path fill="#1A1C1C" d="M11 38h1v1h-1z"/><path fill="#528650" d="M12 38h1v1h-1z"/><path fill="#487045" d="M13 38h1v1h-1z"/><path fill="#3B5939" d="M14 38h1v1h-1z"/><path fill="#242929" d="M9 39h1v1H9z"/><path fill="#365535" d="M10 39h1v1h-1z"/><path fill="#1A1C1C" d="M11 39h1v1h-1z"/><path fill="#3B5939" d="M12 39h1v1h-1zM13 39h1v1h-1z"/><path fill="#454C4C" d="M14 39h1v1h-1z"/><path fill="#528650" d="M5 40h1v1H5zM6 40h1v1H6z"/><path fill="#242929" d="M9 40h1v1H9zM10 40h1v1h-1z"/><path fill="#2A3F29" d="M11 40h1v1h-1z"/><path fill="#1A1C1C" d="M12 40h1v1h-1z"/><path fill="#5F696A" d="M13 40h1v1h-1z"/><path fill="#454C4C" d="M14 40h1v1h-1z"/><path fill="#3B5939" d="M5 41h1v1H5z"/><path fill="#487045" d="M6 41h1v1H6z"/><path fill="#528650" d="M7 41h1v1H7z"/><path fill="#242929" d="M9 41h1v1H9zM10 41h1v1h-1z"/><path fill="#2A3F29" d="M11 41h1v1h-1z"/><path fill="#365535" d="M12 41h1v1h-1z"/><path fill="#727C7F" d="M13 41h1v1h-1z"/><path fill="#454C4C" d="M14 41h1v1h-1z"/><path fill="#3B5939" d="M6 42h1v1H6zM7 42h1v1H7z"/><path fill="#2A3F29" d="M8 42h1v1H8z"/><path fill="#242929" d="M9 42h1v1H9zM10 42h1v1h-1z"/><path fill="#2A3F29" d="M11 42h1v1h-1z"/><path fill="#365535" d="M12 42h1v1h-1z"/><path fill="#6F7A7C" d="M13 42h1v1h-1z"/><path fill="#454C4C" d="M14 42h1v1h-1z"/><path fill="#2A3F29" d="M8 43h1v1H8z"/><path fill="#242929" d="M9 43h1v1H9z"/><path fill="#2A3F29" d="M10 43h1v1h-1z"/><path fill="#365535" d="M11 43h1v1h-1z"/><path fill="#528650" d="M12 43h1v1h-1zM13 43h1v1h-1z"/><path fill="#454C4C" d="M14 43h1v1h-1z"/><path fill="#2A3F29" d="M9 44h1v1H9z"/><path fill="#365535" d="M10 44h1v1h-1z"/><path fill="#1A1C1C" d="M11 44h1v1h-1z"/><path fill="#3B5939" d="M12 44h1v1h-1z"/><path fill="#487045" d="M13 44h1v1h-1z"/><path fill="#528650" d="M14 44h1v1h-1z"/><path fill="#242929" d="M9 45h1v1H9z"/><path fill="#365535" d="M10 45h1v1h-1z"/><path fill="#1A1C1C" d="M11 45h1v1h-1zM12 45h1v1h-1z"/><path fill="#3B5939" d="M13 45h1v1h-1zM14 45h1v1h-1z"/><path fill="#242929" d="M9 46h1v1H9z"/><path fill="#365535" d="M10 46h1v1h-1z"/><path fill="#1A1C1C" d="M11 46h1v1h-1z"/><path fill="#242929" d="M12 46h1v1h-1z"/><path fill="#555F60" d="M13 46h1v1h-1z"/><path fill="#242929" d="M9 47h1v1H9z"/><path fill="#365535" d="M10 47h1v1h-1z"/><path fill="#1A1C1C" d="M11 47h1v1h-1z"/><path fill="#242929" d="M12 47h1v1h-1z"/><path fill="#4B5252" d="M13 47h1v1h-1z"/><path fill="#4C211C" d="M14 47h1v1h-1z"/><path fill="#528650" d="M6 48h1v1H6zM7 48h1v1H7zM8 48h1v1H8z"/><path fill="#242929" d="M9 48h1v1H9z"/><path fill="#2A3F29" d="M10 48h1v1h-1z"/><path fill="#1A1C1C" d="M11 48h1v1h-1z"/><path fill="#2F3333" d="M12 48h1v1h-1z"/><path fill="#4B5252" d="M13 48h1v1h-1z"/><path fill="#4C211C" d="M14 48h1v1h-1z"/><path fill="#6D2619" d="M15 48h1v1h-1z"/><path fill="#528650" d="M16 48h1v1h-1zM17 48h1v1h-1zM5 49h1v1H5z"/><path fill="#487045" d="M6 49h1v1H6zM7 49h1v1H7z"/><path fill="#3B5939" d="M8 49h1v1H8z"/><path fill="#242929" d="M9 49h1v1H9z"/><path fill="#2A3F29" d="M10 49h1v1h-1z"/><path fill="#365535" d="M11 49h1v1h-1z"/><path fill="#2F3333" d="M12 49h1v1h-1z"/><path fill="#4B5252" d="M13 49h1v1h-1z"/><path fill="#4C211C" d="M14 49h1v1h-1z"/><path fill="#528650" d="M15 49h1v1h-1z"/><path fill="#487045" d="M16 49h1v1h-1z"/><path fill="#3B5939" d="M17 49h1v1h-1z"/><path fill="#528650" d="M9 50h1v1H9z"/><path fill="#2A3F29" d="M10 50h1v1h-1z"/><path fill="#365535" d="M11 50h1v1h-1z"/><path fill="#2F3333" d="M12 50h1v1h-1z"/><path fill="#454C4C" d="M13 50h1v1h-1z"/><path fill="#365535" d="M14 50h1v1h-1z"/><path fill="#3B5939" d="M15 50h1v1h-1zM16 50h1v1h-1zM5 51h1v1H5z"/><path fill="#943829" d="M6 51h1v1H6z"/><path fill="#872717" d="M7 51h1v1H7z"/><path fill="#55261F" d="M8 51h1v1H8z"/><path fill="#3B5939" d="M9 51h1v1H9z"/><path fill="#2A3F29" d="M10 51h1v1h-1zM11 51h1v1h-1z"/><path fill="#2F3333" d="M12 51h1v1h-1z"/><path fill="#454C4C" d="M13 51h1v1h-1z"/><path fill="#365535" d="M14 51h1v1h-1z"/><path fill="#4C211C" d="M15 51h1v1h-1z"/><path fill="#3B5939" d="M4 52h1v1H4z"/><path fill="#5F211C" d="M5 52h1v1H5z"/><path fill="#4C211C" d="M6 52h1v1H6z"/><path fill="#943829" d="M7 52h1v1H7z"/><path fill="#4C211C" d="M8 52h1v1H8z"/><path fill="#943829" d="M9 52h1v1H9z"/><path fill="#1A1C1C" d="M10 52h1v1h-1z"/><path fill="#2A3F29" d="M11 52h1v1h-1z"/><path fill="#365535" d="M12 52h1v1h-1z"/><path fill="#2A3F29" d="M13 52h1v1h-1z"/><path fill="#528650" d="M15 52h1v1h-1zM16 52h1v1h-1z"/><path fill="#3B5939" d="M4 53h1v1H4z"/><path fill="#56211C" d="M5 53h1v1H5z"/><path fill="#943829" d="M6 53h1v1H6z"/><path fill="#872717" d="M7 53h1v1H7z"/><path fill="#4C211C" d="M8 53h1v1H8z"/><path fill="#872717" d="M9 53h1v1H9z"/><path fill="#2A3F29" d="M10 53h1v1h-1zM11 53h1v1h-1zM12 53h1v1h-1z"/><path fill="#4B5252" d="M13 53h1v1h-1z"/><path fill="#3B5939" d="M15 53h1v1h-1z"/><path fill="#487045" d="M16 53h1v1h-1z"/><path fill="#528650" d="M17 53h1v1h-1z"/><path fill="#872717" d="M5 54h1v1H5z"/><path fill="#4C211C" d="M6 54h1v1H6zM7 54h1v1H7z"/><path fill="#872717" d="M8 54h1v1H8z"/><path fill="#532419" d="M9 54h1v1H9z"/><path fill="#1A1C1C" d="M10 54h1v1h-1z"/><path fill="#2A3F29" d="M11 54h1v1h-1zM12 54h1v1h-1z"/><path fill="#555C5C" d="M13 54h1v1h-1z"/><path fill="#3B5939" d="M16 54h1v1h-1zM17 54h1v1h-1zM4 55h1v1H4z"/><path fill="#2A3F29" d="M5 55h1v1H5z"/><path fill="#872717" d="M6 55h1v1H6z"/><path fill="#6D2619" d="M7 55h1v1H7zM8 55h1v1H8z"/><path fill="#242929" d="M9 55h1v1H9z"/><path fill="#1A1C1C" d="M10 55h1v1h-1z"/><path fill="#2A3F29" d="M11 55h1v1h-1z"/><path fill="#365535" d="M12 55h1v1h-1z"/><path fill="#505858" d="M13 55h1v1h-1z"/><path fill="#528650" d="M4 56h1v1H4z"/><path fill="#3B5939" d="M5 56h1v1H5z"/><path fill="#2A3F29" d="M6 56h1v1H6zM7 56h1v1H7z"/><path fill="#3B5939" d="M8 56h1v1H8z"/><path fill="#242929" d="M9 56h1v1H9z"/><path fill="#365535" d="M10 56h1v1h-1z"/><path fill="#2A3F29" d="M11 56h1v1h-1z"/><path fill="#454C4C" d="M12 56h1v1h-1z"/><path fill="#666D6F" d="M13 56h1v1h-1z"/><path fill="#3B5939" d="M6 57h1v1H6zM7 57h1v1H7z"/><path fill="#365535" d="M9 57h1v1H9z"/><path fill="#2A3F29" d="M10 57h1v1h-1zM11 57h1v1h-1z"/><path fill="#666D6F" d="M12 57h1v1h-1z"/><path fill="#636A6C" d="M13 57h1v1h-1z"/><path fill="#487045" d="M14 57h1v1h-1z"/><path fill="#528650" d="M15 57h1v1h-1z"/><path fill="#365535" d="M8 58h1v1H8z"/><path fill="#55261F" d="M9 58h1v1H9z"/><path fill="#872717" d="M10 58h1v1h-1z"/><path fill="#943829" d="M11 58h1v1h-1z"/><path fill="#4B5252" d="M12 58h1v1h-1z"/><path fill="#6D7677" d="M13 58h1v1h-1z"/><path fill="#3B5939" d="M14 58h1v1h-1z"/><path fill="#487045" d="M15 58h1v1h-1z"/><path fill="#528650" d="M16 58h1v1h-1z"/><path fill="#943829" d="M2 59h1v1H2z"/><path fill="#872717" d="M3 59h1v1H3z"/><path fill="#55261F" d="M4 59h1v1H4z"/><path fill="#365535" d="M7 59h1v1H7z"/><path fill="#943829" d="M8 59h1v1H8z"/><path fill="#4C211C" d="M9 59h1v1H9z"/><path fill="#943829" d="M10 59h1v1h-1z"/><path fill="#4C211C" d="M11 59h1v1h-1z"/><path fill="#5F211C" d="M12 59h1v1h-1z"/><path fill="#6D7677" d="M13 59h1v1h-1z"/><path fill="#3B5939" d="M14 59h1v1h-1zM15 59h1v1h-1z"/><path fill="#5F211C" d="M1 60h1v1H1z"/><path fill="#4C211C" d="M2 60h1v1H2z"/><path fill="#943829" d="M3 60h1v1H3z"/><path fill="#4C211C" d="M4 60h1v1H4z"/><path fill="#943829" d="M5 60h1v1H5z"/><path fill="#365535" d="M6 60h1v1H6z"/><path fill="#2A3F29" d="M7 60h1v1H7z"/><path fill="#872717" d="M8 60h1v1H8z"/><path fill="#4C211C" d="M9 60h1v1H9z"/><path fill="#872717" d="M10 60h1v1h-1z"/><path fill="#943829" d="M11 60h1v1h-1z"/><path fill="#56211C" d="M12 60h1v1h-1z"/><path fill="#747D7F" d="M13 60h1v1h-1z"/><path fill="#56211C" d="M1 61h1v1H1z"/><path fill="#943829" d="M2 61h1v1H2z"/><path fill="#872717" d="M3 61h1v1H3z"/><path fill="#4C211C" d="M4 61h1v1H4z"/><path fill="#872717" d="M5 61h1v1H5z"/><path fill="#2A3F29" d="M6 61h1v1H6z"/><path fill="#20301F" d="M7 61h1v1H7z"/><path fill="#532419" d="M8 61h1v1H8z"/><path fill="#872717" d="M9 61h1v1H9z"/><path fill="#4C211C" d="M10 61h1v1h-1zM11 61h1v1h-1z"/><path fill="#872717" d="M12 61h1v1h-1z"/><path fill="#7A8384" d="M13 61h1v1h-1z"/><path fill="#6D2619" d="M14 61h1v1h-1z"/><path fill="#872717" d="M1 62h1v1H1z"/><path fill="#4C211C" d="M2 62h1v1H2zM3 62h1v1H3z"/><path fill="#872717" d="M4 62h1v1H4z"/><path fill="#532419" d="M5 62h1v1H5z"/><path fill="#20301F" d="M6 62h1v1H6z"/><path fill="#6D2619" d="M9 62h1v1H9zM10 62h1v1h-1z"/><path fill="#872717" d="M11 62h1v1h-1z"/><path fill="#4B5252" d="M12 62h1v1h-1z"/><path fill="#7A8384" d="M13 62h1v1h-1z"/><path fill="#4C211C" d="M14 62h1v1h-1z"/><path fill="#943829" d="M15 62h1v1h-1z"/><path fill="#872717" d="M2 63h1v1H2z"/><path fill="#6D2619" d="M3 63h1v1H3zM4 63h1v1H4z"/><path fill="#2A3F29" d="M5 63h1v1H5zM6 63h1v1H6z"/><path fill="#1A1C1C" d="M9 63h1v1H9zM10 63h1v1h-1zM11 63h1v1h-1z"/><path fill="#606769" d="M12 63h1v1h-1z"/><path fill="#798183" d="M13 63h1v1h-1z"/><path fill="#4C211C" d="M14 63h1v1h-1z"/><path fill="#6D2619" d="M15 63h1v1h-1z"/><path fill="#2A3F29" d="M5 64h1v1H5zM6 64h1v1H6z"/><path fill="#242929" d="M9 64h1v1H9z"/><path fill="#263636" d="M10 64h1v1h-1z"/><path fill="#242929" d="M11 64h1v1h-1zM12 64h1v1h-1z"/><path fill="#6D7677" d="M13 64h1v1h-1zM14 64h1v1h-1z"/><path fill="#4C211C" d="M15 64h1v1h-1z"/><path fill="#365535" d="M5 65h1v1H5z"/><path fill="#2A3F29" d="M6 65h1v1H6z"/><path fill="#242929" d="M9 65h1v1H9z"/><path fill="#263636" d="M10 65h1v1h-1zM11 65h1v1h-1z"/><path fill="#242929" d="M12 65h1v1h-1z"/><path fill="#606769" d="M13 65h1v1h-1z"/><path fill="#747D7F" d="M14 65h1v1h-1z"/><path fill="#798183" d="M15 65h1v1h-1z"/><path fill="#386239" d="M1 66h1v1H1zM2 66h1v1H2zM3 66h1v1H3z"/><path fill="#2A3F29" d="M5 66h1v1H5zM6 66h1v1H6z"/><path fill="#242929" d="M9 66h1v1H9z"/><path fill="#263636" d="M10 66h1v1h-1z"/><path fill="#274040" d="M11 66h1v1h-1z"/><path fill="#242929" d="M12 66h1v1h-1zM13 66h1v1h-1z"/><path fill="#606769" d="M14 66h1v1h-1z"/><path fill="#6D7677" d="M15 66h1v1h-1z"/><path fill="#798183" d="M16 66h1v1h-1z"/><path fill="#386239" d="M0 67h1v1H0z"/><path fill="#294832" d="M1 67h1v1H1z"/><path fill="#24392C" d="M2 67h1v1H2z"/><path fill="#1D3324" d="M3 67h1v1H3z"/><path fill="#2C4F38" d="M4 67h1v1H4z"/><path fill="#20301F" d="M5 67h1v1H5zM6 67h1v1H6z"/><path fill="#2A3F29" d="M7 67h1v1H7z"/><path fill="#242929" d="M9 67h1v1H9zM10 67h1v1h-1zM11 67h1v1h-1z"/><path fill="#263636" d="M12 67h1v1h-1z"/><path fill="#242929" d="M13 67h1v1h-1zM14 67h1v1h-1zM15 67h1v1h-1zM16 67h1v1h-1zM17 67h1v1h-1zM18 67h1v1h-1z"/><path fill="#2C4F38" d="M1 68h1v1H1zM2 68h1v1H2zM3 68h1v1H3z"/><path fill="#121C15" d="M4 68h1v1H4zM5 68h1v1H5z"/><path fill="#20301F" d="M6 68h1v1H6z"/><path fill="#121C15" d="M7 68h1v1H7z"/><path fill="#132A1A" d="M8 68h1v1H8z"/><path fill="#463521" d="M9 68h1v1H9zM10 68h1v1h-1z"/><path fill="#5D4226" d="M11 68h1v1h-1zM12 68h1v1h-1z"/><path fill="#704F2A" d="M13 68h1v1h-1zM14 68h1v1h-1z"/><path fill="#7D582D" d="M15 68h1v1h-1z"/><path fill="#A67A49" d="M16 68h1v1h-1z"/><path fill="#D7BA99" d="M17 68h1v1h-1z"/><path fill="#A67A49" d="M18 68h1v1h-1z"/><path fill="#704F2A" d="M19 68h1v1h-1z"/><path fill="#7D582D" d="M20 68h1v1h-1z"/><path fill="#1D3324" d="M2 69h1v1H2z"/><path fill="#386239" d="M3 69h1v1H3z"/><path fill="#1D3324" d="M4 69h1v1H4zM5 69h1v1H5z"/><path fill="#121C15" d="M6 69h1v1H6z"/><path fill="#2A3F29" d="M7 69h1v1H7z"/><path fill="#121C15" d="M8 69h1v1H8zM9 69h1v1H9zM10 69h1v1h-1z"/><path fill="#3B2C1C" d="M11 69h1v1h-1zM12 69h1v1h-1z"/><path fill="#36291A" d="M13 69h1v1h-1z"/><path fill="#3B2C1C" d="M14 69h1v1h-1z"/><path fill="#42301C" d="M15 69h1v1h-1zM16 69h1v1h-1z"/><path fill="#563F24" d="M17 69h1v1h-1zM18 69h1v1h-1zM19 69h1v1h-1z"/><path fill="#386239" d="M2 70h1v1H2z"/><path fill="#1D3324" d="M3 70h1v1H3zM4 70h1v1H4z"/><path fill="#132A1A" d="M5 70h1v1H5zM6 70h1v1H6z"/><path fill="#2A3F29" d="M8 70h1v1H8z"/><path fill="#20301F" d="M9 70h1v1H9z"/><path fill="#121C15" d="M10 70h1v1h-1zM11 70h1v1h-1zM12 70h1v1h-1z"/><path fill="#291F14" d="M13 70h1v1h-1zM14 70h1v1h-1z"/><path fill="#386239" d="M1 71h1v1H1z"/><path fill="#294832" d="M2 71h1v1H2z"/><path fill="#386239" d="M3 71h1v1H3z"/><path fill="#132A1A" d="M4 71h1v1H4zM5 71h1v1H5z"/><path fill="#304838" d="M9 71h1v1H9z"/><path fill="#20301F" d="M10 71h1v1h-1z"/><path fill="#2A3F29" d="M11 71h1v1h-1z"/><path fill="#121C15" d="M12 71h1v1h-1zM13 71h1v1h-1z"/><path fill="#2A3F29" d="M14 71h1v1h-1z"/><path fill="#2C4F38" d="M1 72h1v1H1z"/><path fill="#386239" d="M2 72h1v1H2z"/><path fill="#1D3324" d="M3 72h1v1H3z"/><path fill="#304838" d="M9 72h1v1H9z"/><path fill="#21201F" d="M10 72h1v1h-1z"/><path fill="#20301F" d="M11 72h1v1h-1z"/><path fill="#2A3F29" d="M12 72h1v1h-1zM13 72h1v1h-1z"/><path fill="#121C15" d="M14 72h1v1h-1z"/><path fill="#2A3F29" d="M15 72h1v1h-1zM16 72h1v1h-1z"/><path fill="#386239" d="M1 73h1v1H1zM2 73h1v1H2z"/><path fill="#21201F" d="M9 73h1v1H9z"/><path fill="#304838" d="M10 73h1v1h-1zM11 73h1v1h-1z"/><path fill="#20301F" d="M12 73h1v1h-1z"/><path fill="#2A3F29" d="M13 73h1v1h-1z"/><path fill="#365535" d="M14 73h1v1h-1z"/><path fill="#121C15" d="M15 73h1v1h-1z"/><path fill="#2A3F29" d="M16 73h1v1h-1z"/><path fill="#487045" d="M17 73h1v1h-1z"/><path fill="#386239" d="M1 74h1v1H1z"/><path fill="#486C53" d="M9 74h1v1H9zM10 74h1v1h-1z"/><path fill="#304838" d="M11 74h1v1h-1z"/><path fill="#20301F" d="M13 74h1v1h-1z"/><path fill="#365535" d="M14 74h1v1h-1z"/><path fill="#487045" d="M15 74h1v1h-1z"/><path fill="#121C15" d="M16 74h1v1h-1z"/><path fill="#3B5939" d="M17 74h1v1h-1z"/><path fill="#487045" d="M18 74h1v1h-1z"/><path fill="#21201F" d="M9 75h1v1H9zM10 75h1v1h-1z"/><path fill="#304838" d="M11 75h1v1h-1z"/><path fill="#20301F" d="M14 75h1v1h-1z"/><path fill="#3B5939" d="M15 75h1v1h-1z"/><path fill="#487045" d="M16 75h1v1h-1z"/><path fill="#121C15" d="M17 75h1v1h-1z"/><path fill="#487045" d="M18 75h1v1h-1z"/><path fill="#304838" d="M9 76h1v1H9z"/><path fill="#486C53" d="M10 76h1v1h-1z"/><path fill="#21201F" d="M11 76h1v1h-1z"/><path fill="#20301F" d="M14 76h1v1h-1z"/><path fill="#365535" d="M15 76h1v1h-1z"/><path fill="#487045" d="M16 76h1v1h-1z"/><path fill="#121C15" d="M17 76h1v1h-1z"/><path fill="#365535" d="M18 76h1v1h-1z"/><path fill="#487045" d="M19 76h1v1h-1z"/><path fill="#304838" d="M9 77h1v1H9z"/><path fill="#486C53" d="M10 77h1v1h-1zM11 77h1v1h-1z"/><path fill="#20301F" d="M15 77h1v1h-1z"/><path fill="#365535" d="M16 77h1v1h-1z"/><path fill="#487045" d="M17 77h1v1h-1z"/><path fill="#121C15" d="M18 77h1v1h-1z"/><path fill="#365535" d="M19 77h1v1h-1z"/><path fill="#486C53" d="M9 78h1v1H9zM10 78h1v1h-1z"/><path fill="#21201F" d="M11 78h1v1h-1z"/><path fill="#20301F" d="M15 78h1v1h-1z"/><path fill="#2A3F29" d="M16 78h1v1h-1z"/><path fill="#365535" d="M17 78h1v1h-1z"/><path fill="#121C15" d="M18 78h1v1h-1z"/><path fill="#2A3F29" d="M19 78h1v1h-1z"/><path fill="#21201F" d="M9 79h1v1H9zM10 79h1v1h-1z"/><path fill="#486C53" d="M11 79h1v1h-1z"/><path fill="#20301F" d="M15 79h1v1h-1z"/><path fill="#2A3F29" d="M16 79h1v1h-1z"/><path fill="#365535" d="M17 79h1v1h-1z"/><path fill="#20301F" d="M18 79h1v1h-1z"/><path fill="#2A3F29" d="M19 79h1v1h-1z"/><path fill="#304838" d="M9 80h1v1H9z"/><path fill="#486C53" d="M10 80h1v1h-1z"/><path fill="#304838" d="M11 80h1v1h-1z"/><path fill="#20301F" d="M15 80h1v1h-1z"/><path fill="#2A3F29" d="M16 80h1v1h-1zM17 80h1v1h-1z"/><path fill="#20301F" d="M18 80h1v1h-1z"/><path fill="#487045" d="M19 80h1v1h-1z"/><path fill="#304838" d="M9 81h1v1H9z"/><path fill="#486C53" d="M10 81h1v1h-1z"/><path fill="#304838" d="M11 81h1v1h-1z"/><path fill="#20301F" d="M15 81h1v1h-1zM16 81h1v1h-1z"/><path fill="#2A3F29" d="M17 81h1v1h-1z"/><path fill="#20301F" d="M18 81h1v1h-1z"/><path fill="#487045" d="M19 81h1v1h-1z"/><path fill="#304838" d="M9 82h1v1H9z"/><path fill="#21201F" d="M10 82h1v1h-1zM11 82h1v1h-1z"/><path fill="#20301F" d="M15 82h1v1h-1zM16 82h1v1h-1z"/><path fill="#2A3F29" d="M17 82h1v1h-1z"/><path fill="#20301F" d="M18 82h1v1h-1z"/><path fill="#487045" d="M19 82h1v1h-1z"/><path fill="#21201F" d="M9 83h1v1H9z"/><path fill="#486C53" d="M10 83h1v1h-1zM11 83h1v1h-1z"/><path fill="#20301F" d="M15 83h1v1h-1zM16 83h1v1h-1zM17 83h1v1h-1zM18 83h1v1h-1z"/><path fill="#486C53" d="M9 84h1v1H9zM10 84h1v1h-1z"/><path fill="#304838" d="M11 84h1v1h-1z"/><path fill="#20301F" d="M14 84h1v1h-1zM15 84h1v1h-1zM16 84h1v1h-1zM17 84h1v1h-1z"/><path fill="#2A3F29" d="M18 84h1v1h-1z"/><path fill="#21201F" d="M9 85h1v1H9z"/><path fill="#486C53" d="M10 85h1v1h-1z"/><path fill="#304838" d="M11 85h1v1h-1z"/><path fill="#365535" d="M13 85h1v1h-1z"/><path fill="#20301F" d="M14 85h1v1h-1zM15 85h1v1h-1zM16 85h1v1h-1z"/><path fill="#2A3F29" d="M17 85h1v1h-1z"/><path fill="#486C53" d="M9 86h1v1H9z"/><path fill="#21201F" d="M10 86h1v1h-1z"/><path fill="#20301F" d="M11 86h1v1h-1z"/><path fill="#2A3F29" d="M12 86h1v1h-1z"/><path fill="#20301F" d="M13 86h1v1h-1zM14 86h1v1h-1zM15 86h1v1h-1z"/><path fill="#2A3F29" d="M16 86h1v1h-1z"/><path fill="#304838" d="M9 87h1v1H9z"/><path fill="#486C53" d="M10 87h1v1h-1z"/><path fill="#2A3F29" d="M11 87h1v1h-1z"/><path fill="#20301F" d="M12 87h1v1h-1zM13 87h1v1h-1z"/><path fill="#2A3F29" d="M14 87h1v1h-1z"/><path fill="#20301F" d="M9 88h1v1H9z"/><path fill="#2A3F29" d="M10 88h1v1h-1z"/><path fill="#20301F" d="M11 88h1v1h-1z"/><path fill="#121C15" d="M12 88h1v1h-1z"/><path fill="#20301F" d="M13 88h1v1h-1z"/><path fill="#2A3F29" d="M8 89h1v1H8zM9 89h1v1H9z"/><path fill="#20301F" d="M10 89h1v1h-1z"/><path fill="#121C15" d="M11 89h1v1h-1zM12 89h1v1h-1z"/><path fill="#365535" d="M7 90h1v1H7z"/><path fill="#2A3F29" d="M8 90h1v1H8z"/><path fill="#121C15" d="M9 90h1v1H9zM10 90h1v1h-1z"/><path fill="#943829" d="M11 90h1v1h-1z"/><path fill="#872717" d="M12 90h1v1h-1z"/><path fill="#4C211C" d="M13 90h1v1h-1z"/><path fill="#365535" d="M7 91h1v1H7z"/><path fill="#121C15" d="M8 91h1v1H8z"/><path fill="#943829" d="M9 91h1v1H9z"/><path fill="#451911" d="M10 91h1v1h-1zM11 91h1v1h-1z"/><path fill="#365535" d="M12 91h1v1h-1zM13 91h1v1h-1zM7 92h1v1H7z"/><path fill="#451911" d="M8 92h1v1H8z"/><path fill="#872717" d="M9 92h1v1H9z"/><path fill="#4C211C" d="M10 92h1v1h-1z"/><path fill="#365535" d="M11 92h1v1h-1z"/><path fill="#451911" d="M12 92h1v1h-1z"/><path fill="#4C211C" d="M13 92h1v1h-1z"/><path fill="#365535" d="M14 92h1v1h-1zM7 93h1v1H7z"/><path fill="#4C211C" d="M8 93h1v1H8zM9 93h1v1H9z"/><path fill="#632A20" d="M10 93h1v1h-1z"/><path fill="#365535" d="M11 93h1v1h-1z"/><path fill="#53231C" d="M12 93h1v1h-1z"/><path fill="#5F2A20" d="M13 93h1v1h-1z"/><path fill="#365535" d="M14 93h1v1h-1zM8 94h1v1H8z"/><path fill="#4C211C" d="M9 94h1v1H9zM10 94h1v1h-1zM11 94h1v1h-1z"/><path fill="#56241D" d="M12 94h1v1h-1z"/><path fill="#365535" d="M13 94h1v1h-1z"/><path fill="#632A20" d="M9 95h1v1H9z"/><path fill="#56241D" d="M10 95h1v1h-1z"/><path fill="#4C211C" d="M11 95h1v1h-1zM12 95h1v1h-1z"/></svg>