<svg xmlns="http://www.w3.org/2000/svg" width="26" height="99" shape-rendering="crispEdges"><path fill="#D54236" d="M16 0h1v1h-1z" opacity=".039"/><path fill="#D54236" d="M16 1h1v1h-1z" opacity=".043"/><path fill="#D54236" d="M17 1h1v1h-1z" opacity=".024"/><path fill="#D54236" d="M14 2h1v1h-1z" opacity=".02"/><path fill="#D54236" d="M16 2h1v1h-1z" opacity=".043"/><path fill="#D54236" d="M17 2h1v1h-1z" opacity=".027"/><path fill="#D54236" d="M14 3h1v1h-1z" opacity=".039"/><path fill="#D54236" d="M15 3h1v1h-1z" opacity=".031"/><path fill="#D54236" d="M16 3h1v1h-1z" opacity=".039"/><path fill="#D54236" d="M17 3h1v1h-1z" opacity=".027"/><path fill="#D54236" d="M13 4h1v1h-1z" opacity=".02"/><path fill="#D54236" d="M14 4h1v1h-1z" opacity=".043"/><path fill="#D54236" d="M15 4h1v1h-1z" opacity=".047"/><path fill="#D54236" d="M16 4h1v1h-1z" opacity=".027"/><path fill="#D54236" d="M17 4h1v1h-1z" opacity=".008"/><path fill="#D54236" d="M12 5h1v1h-1z" opacity=".012"/><path fill="#D54236" d="M13 5h1v1h-1z" opacity=".039"/><path fill="#D54236" d="M14 5h1v1h-1z" opacity=".055"/><path fill="#D54236" d="M15 5h1v1h-1z" opacity=".043"/><path fill="#D54236" d="M16 5h1v1h-1z" opacity=".039"/><path fill="#D54236" d="M17 5h1v1h-1z" opacity=".027"/><path fill="#D54236" d="M18 5h1v1h-1z" opacity=".016"/><path fill="#D54236" d="M12 6h1v1h-1z" opacity=".02"/><path fill="#D54236" d="M13 6h1v1h-1z" opacity=".055"/><path fill="#D54236" d="M14 6h1v1h-1z" opacity=".063"/><path fill="#D54236" d="M15 6h1v1h-1z" opacity=".043"/><path fill="#D54236" d="M16 6h1v1h-1z" opacity=".047"/><path fill="#D54236" d="M17 6h1v1h-1z" opacity=".086"/><path fill="#D54236" d="M18 6h1v1h-1z" opacity=".039"/><path fill="#D54236" d="M19 6h1v1h-1zM11 7h1v1h-1z" opacity=".008"/><path fill="#D54236" d="M12 7h1v1h-1z" opacity=".027"/><path fill="#D54236" d="M13 7h1v1h-1zM14 7h1v1h-1z" opacity=".063"/><path fill="#D54236" d="M15 7h1v1h-1z" opacity=".043"/><path fill="#D54236" d="M16 7h1v1h-1z" opacity=".051"/><path fill="#D54236" d="M17 7h1v1h-1z" opacity=".098"/><path fill="#D54236" d="M18 7h1v1h-1z" opacity=".071"/><path fill="#D54236" d="M19 7h1v1h-1z" opacity=".012"/><path fill="#D54236" d="M11 8h1v1h-1z" opacity=".024"/><path fill="#D54236" d="M12 8h1v1h-1z" opacity=".071"/><path fill="#D54236" d="M13 8h1v1h-1z" opacity=".059"/><path fill="#D54236" d="M14 8h1v1h-1z" opacity=".063"/><path fill="#D54236" d="M15 8h1v1h-1z" opacity=".043"/><path fill="#C3B08B" d="M16 8h1v1h-1z"/><path fill="#D54236" d="M17 8h1v1h-1z" opacity=".078"/><path fill="#D54236" d="M18 8h1v1h-1z" opacity=".043"/><path fill="#D54236" d="M19 8h1v1h-1z" opacity=".016"/><path fill="#D54236" d="M11 9h1v1h-1z" opacity=".035"/><path fill="#D54236" d="M12 9h1v1h-1z" opacity=".11"/><path fill="#D54236" d="M13 9h1v1h-1z" opacity=".067"/><path fill="#D54236" d="M14 9h1v1h-1z" opacity=".071"/><path fill="#C4B18C" d="M15 9h1v1h-1z"/><path fill="#B4A07C" d="M16 9h1v1h-1z"/><path fill="#927D5D" d="M17 9h1v1h-1z"/><path fill="#D54236" d="M18 9h1v1h-1z" opacity=".059"/><path fill="#D54236" d="M19 9h1v1h-1z" opacity=".004"/><path fill="#D54236" d="M10 10h1v1h-1z" opacity=".008"/><path fill="#D54236" d="M11 10h1v1h-1z" opacity=".031"/><path fill="#D54236" d="M12 10h1v1h-1z" opacity=".161"/><path fill="#D54236" d="M13 10h1v1h-1z" opacity=".075"/><path fill="#C5B08B" d="M14 10h1v1h-1z"/><path fill="#AC9272" d="M15 10h1v1h-1z"/><path fill="#9F8666" d="M16 10h1v1h-1z"/><path fill="#8F7F5F" d="M17 10h1v1h-1z"/><path fill="#8D8160" d="M18 10h1v1h-1z"/><path fill="#D54236" d="M10 11h1v1h-1z" opacity=".004"/><path fill="#D54236" d="M11 11h1v1h-1z" opacity=".122"/><path fill="#D54236" d="M12 11h1v1h-1z" opacity=".235"/><path fill="#C5A986" d="M13 11h1v1h-1z"/><path fill="#B09777" d="M14 11h1v1h-1z"/><path fill="#B08A6C" d="M15 11h1v1h-1z"/><path fill="#A78D6E" d="M16 11h1v1h-1z"/><path fill="#938462" d="M17 11h1v1h-1z"/><path fill="#8D8160" d="M18 11h1v1h-1zM19 11h1v1h-1z"/><path fill="#D54236" d="M10 12h1v1h-1z" opacity=".008"/><path fill="#D54236" d="M11 12h1v1h-1z" opacity=".129"/><path fill="#C8997A" d="M12 12h1v1h-1z"/><path fill="#AC9373" d="M13 12h1v1h-1z"/><path fill="#B3765D" d="M14 12h1v1h-1z"/><path fill="#9E8A6A" d="M15 12h1v1h-1z"/><path fill="#A88D6D" d="M16 12h1v1h-1z"/><path fill="#938462" d="M17 12h1v1h-1z"/><path fill="#947B5C" d="M18 12h1v1h-1z"/><path fill="#8D8160" d="M19 12h1v1h-1zM20 12h1v1h-1z"/><path fill="#D54236" d="M10 13h1v1h-1z" opacity=".008"/><path fill="#C6A784" d="M11 13h1v1h-1z"/><path fill="#AF7D62" d="M12 13h1v1h-1z"/><path fill="#AC8065" d="M13 13h1v1h-1z"/><path fill="#98896A" d="M14 13h1v1h-1z"/><path fill="#9D8C6C" d="M15 13h1v1h-1z"/><path fill="#A19273" d="M16 13h1v1h-1z"/><path fill="#997E5E" d="M17 13h1v1h-1z"/><path fill="#947B5C" d="M18 13h1v1h-1z"/><path fill="#8D8160" d="M19 13h1v1h-1zM20 13h1v1h-1zM21 13h1v1h-1z"/><path fill="#D54236" d="M10 14h1v1h-1z" opacity=".004"/><path fill="#C3A480" d="M11 14h1v1h-1z"/><path fill="#A66A52" d="M12 14h1v1h-1z"/><path fill="#A26D54" d="M13 14h1v1h-1z"/><path fill="#98896A" d="M14 14h1v1h-1z"/><path fill="#9B8E6D" d="M15 14h1v1h-1z"/><path fill="#A18667" d="M16 14h1v1h-1z"/><path fill="#87795A" d="M17 14h1v1h-1z"/><path fill="#9B7458" d="M18 14h1v1h-1z"/><path fill="#8E8160" d="M19 14h1v1h-1z"/><path fill="#8D8160" d="M20 14h1v1h-1zM21 14h1v1h-1z"/><path fill="#978B6B" d="M11 15h1v1h-1z"/><path fill="#AB735A" d="M12 15h1v1h-1z"/><path fill="#A45E48" d="M13 15h1v1h-1z"/><path fill="#9C7258" d="M14 15h1v1h-1z"/><path fill="#938464" d="M15 15h1v1h-1z"/><path fill="#997E60" d="M16 15h1v1h-1z"/><path fill="#7E7253" d="M17 15h1v1h-1z"/><path fill="#7E644A" d="M18 15h1v1h-1z"/><path fill="#9C7458" d="M19 15h1v1h-1z"/><path fill="#8E8160" d="M20 15h1v1h-1z"/><path fill="#8D8160" d="M21 15h1v1h-1z"/><path fill="#BFB089" d="M10 16h1v1h-1z"/><path fill="#A57A5F" d="M11 16h1v1h-1z"/><path fill="#95795C" d="M12 16h1v1h-1z"/><path fill="#A46C53" d="M13 16h1v1h-1z"/><path fill="#A26D54" d="M14 16h1v1h-1z"/><path fill="#A1765B" d="M15 16h1v1h-1z"/><path fill="#9E8164" d="M16 16h1v1h-1z"/><path fill="#7F7153" d="M17 16h1v1h-1z"/><path fill="#75674C" d="M18 16h1v1h-1z"/><path fill="#9D624A" d="M19 16h1v1h-1z"/><path fill="#8D8160" d="M20 16h1v1h-1zM21 16h1v1h-1zM22 16h1v1h-1z"/><path fill="#988C6C" d="M10 17h1v1h-1z"/><path fill="#AD755B" d="M11 17h1v1h-1z"/><path fill="#A18467" d="M12 17h1v1h-1z"/><path fill="#84795B" d="M13 17h1v1h-1z"/><path fill="#976D53" d="M14 17h1v1h-1z"/><path fill="#A76951" d="M15 17h1v1h-1z"/><path fill="#A1775C" d="M16 17h1v1h-1z"/><path fill="#995C45" d="M17 17h1v1h-1z"/><path fill="#6B5E45" d="M18 17h1v1h-1z"/><path fill="#9A5943" d="M19 17h1v1h-1z"/><path fill="#8D8160" d="M20 17h1v1h-1zM21 17h1v1h-1z"/><path fill="#978A69" d="M22 17h1v1h-1z"/><path fill="#9E916F" d="M10 18h1v1h-1z"/><path fill="#AE765C" d="M11 18h1v1h-1z"/><path fill="#A0755A" d="M12 18h1v1h-1z"/><path fill="#998D6D" d="M13 18h1v1h-1z"/><path fill="#84795B" d="M14 18h1v1h-1z"/><path fill="#986E54" d="M15 18h1v1h-1z"/><path fill="#956A51" d="M16 18h1v1h-1z"/><path fill="#6F6549" d="M17 18h1v1h-1z"/><path fill="#534C36" d="M18 18h1v1h-1z"/><path fill="#904F3C" d="M19 18h1v1h-1z"/><path fill="#967A5D" d="M20 18h1v1h-1z"/><path fill="#9E9170" d="M21 18h1v1h-1z"/><path fill="#2F2F3C" d="M9 19h1v1H9z"/><path fill="#1A1A23" d="M10 19h1v1h-1z"/><path fill="#2E1C22" d="M11 19h1v1h-1z"/><path fill="#A97158" d="M12 19h1v1h-1z"/><path fill="#9A8D6B" d="M13 19h1v1h-1z"/><path fill="#A89A76" d="M14 19h1v1h-1z"/><path fill="#CC4E3E" d="M15 19h1v1h-1z"/><path fill="#A1765C" d="M16 19h1v1h-1z"/><path fill="#625940" d="M17 19h1v1h-1z"/><path fill="#785E47" d="M18 19h1v1h-1z"/><path fill="#925C47" d="M19 19h1v1h-1z"/><path fill="#A4795F" d="M20 19h1v1h-1z"/><path fill="#2F2F3C" d="M8 20h1v1H8z"/><path fill="#23232E" d="M9 20h1v1H9zM10 20h1v1h-1zM11 20h1v1h-1z"/><path fill="#462328" d="M12 20h1v1h-1z"/><path fill="#311F25" d="M13 20h1v1h-1z"/><path fill="#2E1C22" d="M14 20h1v1h-1z"/><path fill="#2C191F" d="M15 20h1v1h-1z"/><path fill="#A48869" d="M16 20h1v1h-1z"/><path fill="#7B7054" d="M17 20h1v1h-1z"/><path fill="#9D725A" d="M18 20h1v1h-1z"/><path fill="#AA6852" d="M19 20h1v1h-1z"/><path fill="#896F56" d="M20 20h1v1h-1z"/><path fill="#867B5D" d="M21 20h1v1h-1z"/><path fill="#817658" d="M22 20h1v1h-1z"/><path fill="#8D8160" d="M23 20h1v1h-1z"/><path fill="#2F2F3C" d="M8 21h1v1H8z"/><path fill="#1F1F29" d="M9 21h1v1H9z"/><path fill="#16161E" d="M10 21h1v1h-1z"/><path fill="#17171F" d="M11 21h1v1h-1z"/><path fill="#1F1F29" d="M12 21h1v1h-1z"/><path fill="#39262F" d="M13 21h1v1h-1z"/><path fill="#23232E" d="M14 21h1v1h-1zM15 21h1v1h-1z"/><path fill="#4C2A2F" d="M16 21h1v1h-1z"/><path fill="#171720" d="M17 21h1v1h-1z"/><path fill="#7D2D2A" d="M18 21h1v1h-1z"/><path fill="#965542" d="M19 21h1v1h-1z"/><path fill="#785E47" d="M20 21h1v1h-1z"/><path fill="#4F4833" d="M21 21h1v1h-1z"/><path fill="#73694C" d="M22 21h1v1h-1z"/><path fill="#847858" d="M23 21h1v1h-1z"/><path fill="#2F2F3C" d="M8 22h1v1H8z"/><path fill="#1C1C26" d="M9 22h1v1H9zM10 22h1v1h-1zM11 22h1v1h-1z"/><path fill="#35232A" d="M12 22h1v1h-1z"/><path fill="#1C1C26" d="M13 22h1v1h-1z"/><path fill="#3C1E22" d="M14 22h1v1h-1z"/><path fill="#2D3055" d="M15 22h1v1h-1z"/><path fill="#54344F" d="M16 22h1v1h-1z"/><path fill="#38283E" d="M17 22h1v1h-1z"/><path fill="#442125" d="M18 22h1v1h-1z"/><path fill="#542425" d="M19 22h1v1h-1z"/><path fill="#14141C" d="M20 22h1v1h-1zM21 22h1v1h-1z"/><path fill="#111119" d="M22 22h1v1h-1z"/><path fill="#9C9070" d="M23 22h1v1h-1z"/><path fill="#1F1B23" d="M8 23h1v1H8z"/><path fill="#281E25" d="M9 23h1v1H9z"/><path fill="#1C1C25" d="M10 23h1v1h-1z"/><path fill="#1F1F29" d="M11 23h1v1h-1z"/><path fill="#2E1C21" d="M12 23h1v1h-1z"/><path fill="#9B342E" d="M13 23h1v1h-1z"/><path fill="#2D3055" d="M14 23h1v1h-1z"/><path fill="#1C1F36" d="M15 23h1v1h-1z"/><path fill="#332336" d="M16 23h1v1h-1zM17 23h1v1h-1z"/><path fill="#38283E" d="M18 23h1v1h-1z"/><path fill="#6D2927" d="M19 23h1v1h-1z"/><path fill="#15151C" d="M20 23h1v1h-1z"/><path fill="#16161E" d="M21 23h1v1h-1zM22 23h1v1h-1z"/><path fill="#14141C" d="M23 23h1v1h-1z"/><path fill="#111119" d="M24 23h1v1h-1z"/><path fill="#575042" d="M9 24h1v1H9z"/><path fill="#281E25" d="M10 24h1v1h-1z"/><path fill="#332228" d="M11 24h1v1h-1z"/><path fill="#39262F" d="M12 24h1v1h-1z"/><path fill="#2D3055" d="M13 24h1v1h-1z"/><path fill="#1C1F36" d="M14 24h1v1h-1z"/><path fill="#22253F" d="M15 24h1v1h-1z"/><path fill="#82251D" d="M16 24h1v1h-1z"/><path fill="#22253F" d="M17 24h1v1h-1z"/><path fill="#4B2B3D" d="M18 24h1v1h-1z"/><path fill="#5C2D3D" d="M19 24h1v1h-1z"/><path fill="#2D1A1E" d="M20 24h1v1h-1z"/><path fill="#15151B" d="M21 24h1v1h-1zM22 24h1v1h-1z"/><path fill="#2E1B20" d="M23 24h1v1h-1z"/><path fill="#1B181E" d="M24 24h1v1h-1z"/><path fill="#14141C" d="M25 24h1v1h-1z"/><path fill="#7D745F" d="M9 25h1v1H9z"/><path fill="#575042" d="M10 25h1v1h-1z"/><path fill="#4A443A" d="M11 25h1v1h-1z"/><path fill="#6D3D34" d="M12 25h1v1h-1z"/><path fill="#2D3055" d="M13 25h1v1h-1z"/><path fill="#1C1F36" d="M14 25h1v1h-1z"/><path fill="#22253F" d="M15 25h1v1h-1z"/><path fill="#CA3E32" d="M16 25h1v1h-1z"/><path fill="#A12F26" d="M17 25h1v1h-1z"/><path fill="#38283E" d="M18 25h1v1h-1z"/><path fill="#54344F" d="M19 25h1v1h-1z"/><path fill="#672726" d="M20 25h1v1h-1z"/><path fill="#2B1A20" d="M21 25h1v1h-1z"/><path fill="#4D2022" d="M22 25h1v1h-1z"/><path fill="#1E181E" d="M23 25h1v1h-1z"/><path fill="#111119" d="M24 25h1v1h-1zM25 25h1v1h-1z"/><path fill="#1E1E28" d="M7 26h1v1H7z" opacity=".243"/><path fill="#23232E" d="M8 26h1v1H8z"/><path fill="#1D1A21" d="M9 26h1v1H9z"/><path fill="#211B23" d="M10 26h1v1h-1z"/><path fill="#281E25" d="M11 26h1v1h-1z"/><path fill="#442428" d="M12 26h1v1h-1z"/><path fill="#38283E" d="M13 26h1v1h-1z"/><path fill="#1C1F36" d="M14 26h1v1h-1z"/><path fill="#6A1D17" d="M15 26h1v1h-1z"/><path fill="#C23B30" d="M16 26h1v1h-1z"/><path fill="#38283E" d="M17 26h1v1h-1z"/><path fill="#22253F" d="M18 26h1v1h-1z"/><path fill="#64354C" d="M19 26h1v1h-1z"/><path fill="#672725" d="M20 26h1v1h-1z"/><path fill="#14141B" d="M21 26h1v1h-1z"/><path fill="#19161E" d="M22 26h1v1h-1z"/><path fill="#111119" d="M23 26h1v1h-1zM24 26h1v1h-1zM25 26h1v1h-1z"/><path fill="#1E1E28" d="M6 27h1v1H6z" opacity=".243"/><path fill="#23232E" d="M7 27h1v1H7z"/><path fill="#191922" d="M8 27h1v1H8z"/><path fill="#17171F" d="M9 27h1v1H9z"/><path fill="#16161E" d="M10 27h1v1h-1z"/><path fill="#17171F" d="M11 27h1v1h-1z"/><path fill="#15151D" d="M12 27h1v1h-1z"/><path fill="#582324" d="M13 27h1v1h-1z"/><path fill="#38283E" d="M14 27h1v1h-1z"/><path fill="#22253F" d="M15 27h1v1h-1z"/><path fill="#6A1D17" d="M16 27h1v1h-1z"/><path fill="#22253F" d="M17 27h1v1h-1z"/><path fill="#423252" d="M18 27h1v1h-1z"/><path fill="#652524" d="M19 27h1v1h-1z"/><path fill="#23151C" d="M20 27h1v1h-1z"/><path fill="#1D141A" d="M21 27h1v1h-1z"/><path fill="#111119" d="M22 27h1v1h-1z"/><path fill="#23171D" d="M23 27h1v1h-1z"/><path fill="#29181E" d="M24 27h1v1h-1z"/><path fill="#111119" d="M25 27h1v1h-1z"/><path fill="#272733" d="M6 28h1v1H6z"/><path fill="#2C1B21" d="M7 28h1v1H7z"/><path fill="#13131B" d="M8 28h1v1H8z"/><path fill="#29181E" d="M9 28h1v1H9z"/><path fill="#3C1C1F" d="M10 28h1v1h-1z"/><path fill="#4C2021" d="M11 28h1v1h-1z"/><path fill="#15151D" d="M12 28h1v1h-1z"/><path fill="#2E1C21" d="M13 28h1v1h-1z"/><path fill="#692928" d="M14 28h1v1h-1z"/><path fill="#22253F" d="M15 28h1v1h-1z"/><path fill="#2D3055" d="M16 28h1v1h-1z"/><path fill="#423252" d="M17 28h1v1h-1z"/><path fill="#742A27" d="M18 28h1v1h-1z"/><path fill="#411E22" d="M19 28h1v1h-1z"/><path fill="#2C191F" d="M20 28h1v1h-1z"/><path fill="#29181E" d="M21 28h1v1h-1z"/><path fill="#1B161D" d="M22 28h1v1h-1z"/><path fill="#111119" d="M23 28h1v1h-1zM24 28h1v1h-1zM25 28h1v1h-1z"/><path fill="#21212C" d="M5 29h1v1H5z"/><path fill="#14141C" d="M6 29h1v1H6z"/><path fill="#16161E" d="M7 29h1v1H7z"/><path fill="#181822" d="M8 29h1v1H8z"/><path fill="#1B171E" d="M9 29h1v1H9z"/><path fill="#1F161D" d="M10 29h1v1h-1z"/><path fill="#2A191F" d="M11 29h1v1h-1z"/><path fill="#3C1C1F" d="M12 29h1v1h-1z"/><path fill="#13131B" d="M13 29h1v1h-1zM14 29h1v1h-1z"/><path fill="#3A1C1F" d="M15 29h1v1h-1z"/><path fill="#371A1E" d="M16 29h1v1h-1zM17 29h1v1h-1z"/><path fill="#111119" d="M18 29h1v1h-1zM19 29h1v1h-1zM20 29h1v1h-1zM21 29h1v1h-1zM22 29h1v1h-1zM23 29h1v1h-1zM24 29h1v1h-1z"/><path fill="#1B1B25" d="M5 30h1v1H5z"/><path fill="#111119" d="M6 30h1v1H6zM7 30h1v1H7zM8 30h1v1H8z"/><path fill="#16161E" d="M9 30h1v1H9z"/><path fill="#171720" d="M10 30h1v1h-1zM11 30h1v1h-1z"/><path fill="#16161E" d="M12 30h1v1h-1zM13 30h1v1h-1z"/><path fill="#14141C" d="M14 30h1v1h-1zM15 30h1v1h-1zM16 30h1v1h-1zM17 30h1v1h-1z"/><path fill="#3D3830" d="M18 30h1v1h-1z"/><path fill="#35302B" d="M19 30h1v1h-1z"/><path fill="#3E3931" d="M20 30h1v1h-1z"/><path fill="#464035" d="M21 30h1v1h-1z"/><path fill="#3B362E" d="M22 30h1v1h-1z"/><path fill="#615842" d="M23 30h1v1h-1z"/><path fill="#21212C" d="M4 31h1v1H4z"/><path fill="#111119" d="M5 31h1v1H5zM6 31h1v1H6zM7 31h1v1H7zM8 31h1v1H8z"/><path fill="#5C5544" d="M10 31h1v1h-1z"/><path fill="#443E34" d="M11 31h1v1h-1z"/><path fill="#3D3832" d="M12 31h1v1h-1z"/><path fill="#2C2925" d="M13 31h1v1h-1z"/><path fill="#2C2923" d="M14 31h1v1h-1z"/><path fill="#37342B" d="M15 31h1v1h-1z"/><path fill="#685F4D" d="M16 31h1v1h-1z"/><path fill="#3D372F" d="M17 31h1v1h-1z"/><path fill="#413C33" d="M18 31h1v1h-1z"/><path fill="#464035" d="M19 31h1v1h-1z"/><path fill="#37332C" d="M20 31h1v1h-1z"/><path fill="#3D382E" d="M21 31h1v1h-1z"/><path fill="#59513D" d="M22 31h1v1h-1z"/><path fill="#696046" d="M23 31h1v1h-1z"/><path fill="#22222E" d="M3 32h1v1H3z"/><path fill="#111119" d="M4 32h1v1H4zM5 32h1v1H5z"/><path fill="#6A604B" d="M10 32h1v1h-1z"/><path fill="#524B3B" d="M11 32h1v1h-1z"/><path fill="#4C4539" d="M12 32h1v1h-1z"/><path fill="#2C2924" d="M13 32h1v1h-1z"/><path fill="#2D2A22" d="M14 32h1v1h-1z"/><path fill="#494333" d="M15 32h1v1h-1z"/><path fill="#867B61" d="M16 32h1v1h-1z"/><path fill="#5F5642" d="M17 32h1v1h-1z"/><path fill="#5D5540" d="M18 32h1v1h-1z"/><path fill="#554E3B" d="M19 32h1v1h-1z"/><path fill="#423D2B" d="M20 32h1v1h-1z"/><path fill="#46402E" d="M21 32h1v1h-1z"/><path fill="#6A6044" d="M22 32h1v1h-1z"/><path fill="#6C6449" d="M23 32h1v1h-1z"/><path fill="#22222E" d="M2 33h1v1H2z"/><path fill="#111119" d="M3 33h1v1H3zM4 33h1v1H4zM5 33h1v1H5z"/><path fill="#B2A582" d="M9 33h1v1H9z"/><path fill="#968A6D" d="M10 33h1v1h-1z"/><path fill="#706851" d="M11 33h1v1h-1z"/><path fill="#6E644F" d="M12 33h1v1h-1z"/><path fill="#443E2D" d="M13 33h1v1h-1z"/><path fill="#403B29" d="M14 33h1v1h-1z"/><path fill="#7E7353" d="M15 33h1v1h-1z"/><path fill="#948768" d="M16 33h1v1h-1z"/><path fill="#776C4D" d="M17 33h1v1h-1z"/><path fill="#675D43" d="M18 33h1v1h-1z"/><path fill="#544C36" d="M19 33h1v1h-1z"/><path fill="#3C3726" d="M20 33h1v1h-1z"/><path fill="#49422E" d="M21 33h1v1h-1z"/><path fill="#564F39" d="M22 33h1v1h-1z"/><path fill="#6C6449" d="M23 33h1v1h-1z"/><path fill="#22222E" d="M1 34h1v1H1z"/><path fill="#111119" d="M2 34h1v1H2zM4 34h1v1H4z"/><path fill="#16161E" d="M5 34h1v1H5z"/><path fill="#B8AA87" d="M9 34h1v1H9z"/><path fill="#B6A886" d="M10 34h1v1h-1z"/><path fill="#7F7557" d="M11 34h1v1h-1z"/><path fill="#73694F" d="M12 34h1v1h-1z"/><path fill="#59513A" d="M13 34h1v1h-1z"/><path fill="#73694C" d="M14 34h1v1h-1z"/><path fill="#675D43" d="M15 34h1v1h-1z"/><path fill="#948768" d="M16 34h1v1h-1z"/><path fill="#5F563E" d="M17 34h1v1h-1z"/><path fill="#6D6347" d="M18 34h1v1h-1z"/><path fill="#443E2B" d="M19 34h1v1h-1z"/><path fill="#3B3625" d="M20 34h1v1h-1z"/><path fill="#443E2B" d="M21 34h1v1h-1z"/><path fill="#564F39" d="M22 34h1v1h-1z"/><path fill="#988C6D" d="M23 34h1v1h-1z"/><path fill="#21212C" d="M1 35h1v1H1z"/><path fill="#111119" d="M2 35h1v1H2zM4 35h1v1H4z"/><path fill="#14141C" d="M5 35h1v1H5z"/><path fill="#9D916F" d="M9 35h1v1H9z"/><path fill="#9D9171" d="M10 35h1v1h-1z"/><path fill="#73694F" d="M11 35h1v1h-1z"/><path fill="#837755" d="M12 35h1v1h-1z"/><path fill="#72674A" d="M13 35h1v1h-1zM14 35h1v1h-1z"/><path fill="#6A6045" d="M15 35h1v1h-1z"/><path fill="#968969" d="M16 35h1v1h-1z"/><path fill="#706649" d="M17 35h1v1h-1z"/><path fill="#585039" d="M18 35h1v1h-1z"/><path fill="#403B29" d="M19 35h1v1h-1z"/><path fill="#5D5540" d="M20 35h1v1h-1z"/><path fill="#796F55" d="M21 35h1v1h-1z"/><path fill="#80755A" d="M22 35h1v1h-1z"/><path fill="#8C8163" d="M23 35h1v1h-1z"/><path fill="#1B1B25" d="M1 36h1v1H1z"/><path fill="#111119" d="M4 36h1v1H4zM5 36h1v1H5z"/><path fill="#8D8263" d="M9 36h1v1H9z"/><path fill="#918562" d="M10 36h1v1h-1z"/><path fill="#8D805F" d="M11 36h1v1h-1z"/><path fill="#72674A" d="M12 36h1v1h-1z"/><path fill="#4B4430" d="M13 36h1v1h-1z"/><path fill="#857856" d="M14 36h1v1h-1z"/><path fill="#7F7252" d="M15 36h1v1h-1z"/><path fill="#8D8163" d="M16 36h1v1h-1z"/><path fill="#6A6045" d="M17 36h1v1h-1z"/><path fill="#585039" d="M18 36h1v1h-1z"/><path fill="#3E3927" d="M19 36h1v1h-1z"/><path fill="#776D54" d="M20 36h1v1h-1z"/><path fill="#423B29" d="M21 36h1v1h-1z"/><path fill="#655C43" d="M22 36h1v1h-1z"/><path fill="#22222E" d="M0 37h1v1H0z"/><path fill="#111119" d="M1 37h1v1H1zM4 37h1v1H4z"/><path fill="#14141C" d="M5 37h1v1H5z"/><path fill="#817554" d="M10 37h1v1h-1z"/><path fill="#4B4430" d="M11 37h1v1h-1z"/><path fill="#8E8261" d="M12 37h1v1h-1z"/><path fill="#4B4430" d="M13 37h1v1h-1z"/><path fill="#7A6F4F" d="M14 37h1v1h-1z"/><path fill="#5F563E" d="M15 37h1v1h-1z"/><path fill="#8F8365" d="M16 37h1v1h-1z"/><path fill="#655C42" d="M17 37h1v1h-1z"/><path fill="#585039" d="M18 37h1v1h-1z"/><path fill="#49422E" d="M19 37h1v1h-1z"/><path fill="#453E2B" d="M20 37h1v1h-1z"/><path fill="#49422E" d="M21 37h1v1h-1z"/><path fill="#655C43" d="M22 37h1v1h-1z"/><path fill="#1F1F29" d="M0 38h1v1H0z"/><path fill="#111119" d="M1 38h1v1H1zM5 38h1v1H5zM6 38h1v1H6z"/><path fill="#71674A" d="M10 38h1v1h-1z"/><path fill="#4B4430" d="M11 38h1v1h-1z"/><path fill="#7A6F4F" d="M12 38h1v1h-1z"/><path fill="#72684E" d="M13 38h1v1h-1z"/><path fill="#A39574" d="M14 38h1v1h-1z"/><path fill="#8D8163" d="M15 38h1v1h-1z"/><path fill="#928667" d="M16 38h1v1h-1z"/><path fill="#655C42" d="M17 38h1v1h-1z"/><path fill="#60573E" d="M18 38h1v1h-1zM19 38h1v1h-1z"/><path fill="#5A5139" d="M20 38h1v1h-1z"/><path fill="#4F4833" d="M21 38h1v1h-1z"/><path fill="#5D553D" d="M22 38h1v1h-1z"/><path fill="#1A1A23" d="M0 39h1v1H0z"/><path fill="#111119" d="M1 39h1v1H1z"/><path fill="#14141C" d="M5 39h1v1H5z"/><path fill="#111119" d="M6 39h1v1H6z"/><path fill="#817555" d="M10 39h1v1h-1z"/><path fill="#71674A" d="M11 39h1v1h-1z"/><path fill="#7E7251" d="M12 39h1v1h-1z"/><path fill="#4B4430" d="M13 39h1v1h-1zM14 39h1v1h-1z"/><path fill="#7C7151" d="M15 39h1v1h-1z"/><path fill="#968A6A" d="M16 39h1v1h-1z"/><path fill="#655C42" d="M17 39h1v1h-1z"/><path fill="#5A533B" d="M18 39h1v1h-1z"/><path fill="#4F4833" d="M19 39h1v1h-1z"/><path fill="#5A533B" d="M20 39h1v1h-1zM21 39h1v1h-1z"/><path fill="#5A523B" d="M22 39h1v1h-1z"/><path fill="#15151D" d="M0 40h1v1H0z"/><path fill="#111119" d="M1 40h1v1H1zM5 40h1v1H5zM6 40h1v1H6z"/><path fill="#817555" d="M10 40h1v1h-1z"/><path fill="#796E4F" d="M11 40h1v1h-1z"/><path fill="#7F7352" d="M12 40h1v1h-1z"/><path fill="#4B4430" d="M13 40h1v1h-1zM14 40h1v1h-1z"/><path fill="#75694C" d="M15 40h1v1h-1z"/><path fill="#968A6A" d="M16 40h1v1h-1z"/><path fill="#7D7253" d="M17 40h1v1h-1z"/><path fill="#72684C" d="M18 40h1v1h-1zM19 40h1v1h-1z"/><path fill="#5A533B" d="M20 40h1v1h-1z"/><path fill="#7B704F" d="M21 40h1v1h-1z"/><path fill="#7C7150" d="M22 40h1v1h-1z"/><path fill="#14141C" d="M0 41h1v1H0z"/><path fill="#111119" d="M1 41h1v1H1zM5 41h1v1H5z"/><path fill="#15151D" d="M6 41h1v1H6z"/><path fill="#827756" d="M10 41h1v1h-1z"/><path fill="#71674A" d="M11 41h1v1h-1z"/><path fill="#685F45" d="M12 41h1v1h-1z"/><path fill="#817554" d="M13 41h1v1h-1z"/><path fill="#4B4430" d="M14 41h1v1h-1z"/><path fill="#5F563E" d="M15 41h1v1h-1z"/><path fill="#928667" d="M16 41h1v1h-1z"/><path fill="#7D7253" d="M17 41h1v1h-1z"/><path fill="#5A533B" d="M18 41h1v1h-1zM19 41h1v1h-1z"/><path fill="#6D6346" d="M20 41h1v1h-1z"/><path fill="#3E3927" d="M21 41h1v1h-1zM22 41h1v1h-1z"/><path fill="#74694B" d="M23 41h1v1h-1z"/><path fill="#15151D" d="M0 42h1v1H0z"/><path fill="#111119" d="M1 42h1v1H1zM5 42h1v1H5z"/><path fill="#13131C" d="M6 42h1v1H6z"/><path fill="#968A68" d="M10 42h1v1h-1z"/><path fill="#796F50" d="M11 42h1v1h-1z"/><path fill="#817554" d="M12 42h1v1h-1z"/><path fill="#7F7453" d="M13 42h1v1h-1z"/><path fill="#4B4430" d="M14 42h1v1h-1z"/><path fill="#5F563E" d="M15 42h1v1h-1z"/><path fill="#968A6A" d="M16 42h1v1h-1z"/><path fill="#7D7253" d="M17 42h1v1h-1z"/><path fill="#5A533B" d="M18 42h1v1h-1z"/><path fill="#6B6145" d="M19 42h1v1h-1z"/><path fill="#72684C" d="M20 42h1v1h-1zM21 42h1v1h-1z"/><path fill="#3E3927" d="M22 42h1v1h-1z"/><path fill="#7E7251" d="M23 42h1v1h-1z"/><path fill="#17171F" d="M0 43h1v1H0z"/><path fill="#111119" d="M1 43h1v1H1z"/><path fill="#13131C" d="M6 43h1v1H6z"/><path fill="#111119" d="M7 43h1v1H7z"/><path fill="#AB9D79" d="M10 43h1v1h-1z"/><path fill="#9B8B64" d="M11 43h1v1h-1z"/><path fill="#93855F" d="M12 43h1v1h-1z"/><path fill="#817554" d="M13 43h1v1h-1z"/><path fill="#685F45" d="M14 43h1v1h-1z"/><path fill="#6A6045" d="M15 43h1v1h-1z"/><path fill="#968A6A" d="M16 43h1v1h-1z"/><path fill="#6B6246" d="M17 43h1v1h-1z"/><path fill="#6D6346" d="M18 43h1v1h-1z"/><path fill="#3E3927" d="M19 43h1v1h-1zM20 43h1v1h-1z"/><path fill="#6B6145" d="M21 43h1v1h-1z"/><path fill="#7D7151" d="M22 43h1v1h-1z"/><path fill="#5A523B" d="M23 43h1v1h-1z"/><path fill="#171720" d="M0 44h1v1H0z"/><path fill="#111119" d="M1 44h1v1H1z"/><path fill="#15151D" d="M6 44h1v1H6z"/><path fill="#111119" d="M7 44h1v1H7z"/><path fill="#A79A77" d="M9 44h1v1H9z"/><path fill="#A79973" d="M10 44h1v1h-1z"/><path fill="#978862" d="M11 44h1v1h-1z"/><path fill="#887B59" d="M12 44h1v1h-1z"/><path fill="#685F45" d="M13 44h1v1h-1zM14 44h1v1h-1z"/><path fill="#6A6045" d="M15 44h1v1h-1z"/><path fill="#8C8060" d="M16 44h1v1h-1z"/><path fill="#6B6246" d="M17 44h1v1h-1z"/><path fill="#4F4833" d="M18 44h1v1h-1z"/><path fill="#6B6145" d="M19 44h1v1h-1z"/><path fill="#685F43" d="M20 44h1v1h-1z"/><path fill="#7A6F4F" d="M21 44h1v1h-1z"/><path fill="#897C59" d="M22 44h1v1h-1z"/><path fill="#7E7251" d="M23 44h1v1h-1z"/><path fill="#181821" d="M0 45h1v1H0z"/><path fill="#111119" d="M1 45h1v1H1z"/><path fill="#17171F" d="M6 45h1v1H6z"/><path fill="#111119" d="M7 45h1v1H7z"/><path fill="#8E815E" d="M9 45h1v1H9z"/><path fill="#928560" d="M10 45h1v1h-1z"/><path fill="#7D7150" d="M11 45h1v1h-1z"/><path fill="#897C59" d="M12 45h1v1h-1zM13 45h1v1h-1z"/><path fill="#685F45" d="M14 45h1v1h-1z"/><path fill="#6A6045" d="M15 45h1v1h-1z"/><path fill="#7B7054" d="M16 45h1v1h-1z"/><path fill="#7D7253" d="M17 45h1v1h-1z"/><path fill="#4F4833" d="M18 45h1v1h-1zM19 45h1v1h-1z"/><path fill="#585038" d="M20 45h1v1h-1z"/><path fill="#897C59" d="M21 45h1v1h-1z"/><path fill="#3E3927" d="M22 45h1v1h-1zM23 45h1v1h-1z"/><path fill="#1C1C26" d="M0 46h1v1H0z"/><path fill="#111119" d="M1 46h1v1H1zM2 46h1v1H2z"/><path fill="#15151D" d="M6 46h1v1H6z"/><path fill="#14141C" d="M7 46h1v1H7z"/><path fill="#928660" d="M9 46h1v1H9z"/><path fill="#7D7150" d="M10 46h1v1h-1z"/><path fill="#48412D" d="M11 46h1v1h-1z"/><path fill="#3F3927" d="M12 46h1v1h-1z"/><path fill="#897C59" d="M13 46h1v1h-1z"/><path fill="#7D7150" d="M14 46h1v1h-1z"/><path fill="#6A6045" d="M15 46h1v1h-1z"/><path fill="#7B7054" d="M16 46h1v1h-1z"/><path fill="#5A523B" d="M17 46h1v1h-1z"/><path fill="#4B4430" d="M18 46h1v1h-1z"/><path fill="#4F4833" d="M19 46h1v1h-1z"/><path fill="#524B35" d="M20 46h1v1h-1z"/><path fill="#897C59" d="M21 46h1v1h-1z"/><path fill="#3E3927" d="M22 46h1v1h-1zM23 46h1v1h-1z"/><path fill="#1C1C26" d="M0 47h1v1H0z"/><path fill="#111119" d="M1 47h1v1H1zM2 47h1v1H2z"/><path fill="#1A1A23" d="M6 47h1v1H6z"/><path fill="#14141C" d="M7 47h1v1H7z"/><path fill="#8C7F5E" d="M9 47h1v1H9z"/><path fill="#61583E" d="M10 47h1v1h-1z"/><path fill="#423B29" d="M11 47h1v1h-1z"/><path fill="#3F3927" d="M12 47h1v1h-1z"/><path fill="#897C59" d="M13 47h1v1h-1z"/><path fill="#4B4430" d="M14 47h1v1h-1z"/><path fill="#6A6045" d="M15 47h1v1h-1z"/><path fill="#827659" d="M16 47h1v1h-1z"/><path fill="#645B41" d="M17 47h1v1h-1z"/><path fill="#554C36" d="M18 47h1v1h-1z"/><path fill="#6F654C" d="M19 47h1v1h-1z"/><path fill="#554C36" d="M20 47h1v1h-1z"/><path fill="#897C59" d="M21 47h1v1h-1z"/><path fill="#3E3927" d="M22 47h1v1h-1zM23 47h1v1h-1z"/><path fill="#1B1B25" d="M1 48h1v1H1z"/><path fill="#111119" d="M2 48h1v1H2z"/><path fill="#1A1A23" d="M6 48h1v1H6z"/><path fill="#14141C" d="M7 48h1v1H7z"/><path fill="#8E815E" d="M9 48h1v1H9z"/><path fill="#90835F" d="M10 48h1v1h-1z"/><path fill="#4B4430" d="M11 48h1v1h-1z"/><path fill="#817554" d="M12 48h1v1h-1z"/><path fill="#897C59" d="M13 48h1v1h-1z"/><path fill="#3F3927" d="M14 48h1v1h-1z"/><path fill="#5F563E" d="M15 48h1v1h-1z"/><path fill="#827759" d="M16 48h1v1h-1z"/><path fill="#695F44" d="M17 48h1v1h-1z"/><path fill="#554C36" d="M18 48h1v1h-1zM19 48h1v1h-1zM20 48h1v1h-1z"/><path fill="#5C543C" d="M21 48h1v1h-1z"/><path fill="#7E7251" d="M22 48h1v1h-1z"/><path fill="#3E3927" d="M23 48h1v1h-1z"/><path fill="#1B1B25" d="M1 49h1v1H1z"/><path fill="#111119" d="M2 49h1v1H2zM3 49h1v1H3z"/><path fill="#13131B" d="M6 49h1v1H6z"/><path fill="#16161E" d="M7 49h1v1H7z"/><path fill="#938766" d="M10 49h1v1h-1z"/><path fill="#897C59" d="M11 49h1v1h-1z"/><path fill="#574F37" d="M12 49h1v1h-1z"/><path fill="#5B533C" d="M13 49h1v1h-1z"/><path fill="#463F2C" d="M14 49h1v1h-1z"/><path fill="#756B4E" d="M15 49h1v1h-1z"/><path fill="#8F8364" d="M16 49h1v1h-1z"/><path fill="#695F44" d="M17 49h1v1h-1z"/><path fill="#554C36" d="M18 49h1v1h-1z"/><path fill="#645B40" d="M19 49h1v1h-1z"/><path fill="#5D543B" d="M20 49h1v1h-1z"/><path fill="#5C543C" d="M21 49h1v1h-1z"/><path fill="#7E7251" d="M22 49h1v1h-1z"/><path fill="#3E3927" d="M23 49h1v1h-1z"/><path fill="#21212C" d="M1 50h1v1H1z"/><path fill="#111119" d="M2 50h1v1H2zM3 50h1v1H3zM6 50h1v1H6z"/><path fill="#171720" d="M7 50h1v1H7z"/><path fill="#998D6D" d="M9 50h1v1H9z"/><path fill="#958764" d="M10 50h1v1h-1z"/><path fill="#897C59" d="M11 50h1v1h-1zM12 50h1v1h-1z"/><path fill="#685F45" d="M13 50h1v1h-1z"/><path fill="#766C4E" d="M14 50h1v1h-1z"/><path fill="#6F6549" d="M15 50h1v1h-1z"/><path fill="#8F8364" d="M16 50h1v1h-1z"/><path fill="#7D7255" d="M17 50h1v1h-1z"/><path fill="#60573E" d="M18 50h1v1h-1z"/><path fill="#6B6144" d="M19 50h1v1h-1z"/><path fill="#655B41" d="M20 50h1v1h-1z"/><path fill="#5C543C" d="M21 50h1v1h-1z"/><path fill="#635A41" d="M22 50h1v1h-1z"/><path fill="#7D7256" d="M23 50h1v1h-1z"/><path fill="#22222E" d="M1 51h1v1H1z"/><path fill="#111119" d="M2 51h1v1H2zM3 51h1v1H3zM6 51h1v1H6z"/><path fill="#181821" d="M7 51h1v1H7z"/><path fill="#847957" d="M9 51h1v1H9z"/><path fill="#897C59" d="M10 51h1v1h-1z"/><path fill="#423B29" d="M11 51h1v1h-1z"/><path fill="#4B4430" d="M12 51h1v1h-1z"/><path fill="#897C59" d="M13 51h1v1h-1z"/><path fill="#60573F" d="M14 51h1v1h-1z"/><path fill="#6F6549" d="M15 51h1v1h-1z"/><path fill="#8C8063" d="M16 51h1v1h-1z"/><path fill="#8A7E61" d="M17 51h1v1h-1z"/><path fill="#887C5F" d="M18 51h1v1h-1z"/><path fill="#837759" d="M19 51h1v1h-1z"/><path fill="#6B6145" d="M20 51h1v1h-1z"/><path fill="#645B41" d="M21 51h1v1h-1z"/><path fill="#635A41" d="M22 51h1v1h-1z"/><path fill="#22222E" d="M2 52h1v1H2z"/><path fill="#14141C" d="M6 52h1v1H6z"/><path fill="#171720" d="M7 52h1v1H7z"/><path fill="#867956" d="M9 52h1v1H9z"/><path fill="#48412D" d="M10 52h1v1h-1z"/><path fill="#3B3625" d="M11 52h1v1h-1z"/><path fill="#897C59" d="M12 52h1v1h-1z"/><path fill="#59513A" d="M13 52h1v1h-1z"/><path fill="#534C36" d="M14 52h1v1h-1z"/><path fill="#655C42" d="M15 52h1v1h-1z"/><path fill="#918565" d="M16 52h1v1h-1z"/><path fill="#5D543C" d="M17 52h1v1h-1z"/><path fill="#887C5F" d="M18 52h1v1h-1z"/><path fill="#6B6145" d="M19 52h1v1h-1z"/><path fill="#7C7154" d="M20 52h1v1h-1zM21 52h1v1h-1z"/><path fill="#111119" d="M6 53h1v1H6z"/><path fill="#181821" d="M7 53h1v1H7z"/><path fill="#7D7150" d="M9 53h1v1H9z"/><path fill="#463F2C" d="M10 53h1v1h-1z"/><path fill="#48412D" d="M11 53h1v1h-1z"/><path fill="#897C59" d="M12 53h1v1h-1z"/><path fill="#59513A" d="M13 53h1v1h-1z"/><path fill="#534C36" d="M14 53h1v1h-1z"/><path fill="#7F7352" d="M15 53h1v1h-1z"/><path fill="#867B5E" d="M16 53h1v1h-1z"/><path fill="#4E4731" d="M17 53h1v1h-1z"/><path fill="#60573E" d="M18 53h1v1h-1z"/><path fill="#585039" d="M19 53h1v1h-1z"/><path fill="#70674D" d="M20 53h1v1h-1z"/><path fill="#766D51" d="M21 53h1v1h-1z"/><path fill="#928769" d="M22 53h1v1h-1z"/><path fill="#978B6C" d="M23 53h1v1h-1z"/><path fill="#111119" d="M6 54h1v1H6z"/><path fill="#181821" d="M7 54h1v1H7z"/><path fill="#7D7150" d="M9 54h1v1H9z"/><path fill="#4B4430" d="M10 54h1v1h-1z"/><path fill="#897C59" d="M11 54h1v1h-1z"/><path fill="#59513A" d="M12 54h1v1h-1z"/><path fill="#534C36" d="M13 54h1v1h-1z"/><path fill="#675E43" d="M14 54h1v1h-1z"/><path fill="#756A4C" d="M15 54h1v1h-1z"/><path fill="#7F7459" d="M16 54h1v1h-1z"/><path fill="#4E4731" d="M17 54h1v1h-1z"/><path fill="#60573E" d="M18 54h1v1h-1z"/><path fill="#897C59" d="M19 54h1v1h-1zM20 54h1v1h-1z"/><path fill="#645B41" d="M21 54h1v1h-1z"/><path fill="#7A7053" d="M22 54h1v1h-1z"/><path fill="#7A6F54" d="M23 54h1v1h-1z"/><path fill="#111119" d="M5 55h1v1H5zM6 55h1v1H6z"/><path fill="#14141C" d="M7 55h1v1H7z"/><path fill="#61583E" d="M9 55h1v1H9z"/><path fill="#4B4430" d="M10 55h1v1h-1z"/><path fill="#716648" d="M11 55h1v1h-1z"/><path fill="#59513A" d="M12 55h1v1h-1z"/><path fill="#534C36" d="M13 55h1v1h-1z"/><path fill="#766B4C" d="M14 55h1v1h-1z"/><path fill="#645A3F" d="M15 55h1v1h-1z"/><path fill="#7F7459" d="M16 55h1v1h-1z"/><path fill="#4E4731" d="M17 55h1v1h-1z"/><path fill="#897C59" d="M18 55h1v1h-1zM19 55h1v1h-1zM20 55h1v1h-1z"/><path fill="#4F4833" d="M21 55h1v1h-1z"/><path fill="#5C543C" d="M22 55h1v1h-1z"/><path fill="#111119" d="M5 56h1v1H5zM6 56h1v1H6zM7 56h1v1H7z"/><path fill="#7D7150" d="M10 56h1v1h-1z"/><path fill="#796D4E" d="M11 56h1v1h-1z"/><path fill="#534C36" d="M12 56h1v1h-1zM13 56h1v1h-1z"/><path fill="#766B4C" d="M14 56h1v1h-1z"/><path fill="#4E4731" d="M15 56h1v1h-1z"/><path fill="#7F7459" d="M16 56h1v1h-1z"/><path fill="#60573D" d="M17 56h1v1h-1z"/><path fill="#897C59" d="M18 56h1v1h-1z"/><path fill="#353020" d="M19 56h1v1h-1zM20 56h1v1h-1z"/><path fill="#897C59" d="M21 56h1v1h-1z"/><path fill="#564E38" d="M22 56h1v1h-1z"/><path fill="#685E45" d="M23 56h1v1h-1z"/><path fill="#111119" d="M5 57h1v1H5zM6 57h1v1H6zM7 57h1v1H7z"/><path fill="#766B4E" d="M10 57h1v1h-1z"/><path fill="#5F563E" d="M11 57h1v1h-1z"/><path fill="#534C36" d="M12 57h1v1h-1zM13 57h1v1h-1z"/><path fill="#5C543B" d="M14 57h1v1h-1z"/><path fill="#786D4D" d="M15 57h1v1h-1z"/><path fill="#7F7459" d="M16 57h1v1h-1z"/><path fill="#6E6348" d="M17 57h1v1h-1z"/><path fill="#6D6346" d="M18 57h1v1h-1z"/><path fill="#353020" d="M19 57h1v1h-1zM20 57h1v1h-1zM21 57h1v1h-1z"/><path fill="#534B35" d="M22 57h1v1h-1z"/><path fill="#655D43" d="M23 57h1v1h-1z"/><path fill="#111119" d="M4 58h1v1H4zM5 58h1v1H5zM6 58h1v1H6zM7 58h1v1H7z"/><path fill="#766B4E" d="M10 58h1v1h-1z"/><path fill="#60573F" d="M11 58h1v1h-1z"/><path fill="#534C36" d="M12 58h1v1h-1zM13 58h1v1h-1z"/><path fill="#675D42" d="M14 58h1v1h-1z"/><path fill="#6F6548" d="M15 58h1v1h-1z"/><path fill="#897D60" d="M16 58h1v1h-1z"/><path fill="#59513A" d="M17 58h1v1h-1z"/><path fill="#585039" d="M18 58h1v1h-1z"/><path fill="#60573E" d="M19 58h1v1h-1z"/><path fill="#353020" d="M20 58h1v1h-1zM21 58h1v1h-1z"/><path fill="#534B35" d="M22 58h1v1h-1z"/><path fill="#635A42" d="M23 58h1v1h-1z"/><path fill="#111119" d="M4 59h1v1H4zM5 59h1v1H5zM6 59h1v1H6z"/><path fill="#908463" d="M9 59h1v1H9z"/><path fill="#887C5E" d="M10 59h1v1h-1z"/><path fill="#5A523B" d="M11 59h1v1h-1z"/><path fill="#534C36" d="M12 59h1v1h-1z"/><path fill="#4F4833" d="M13 59h1v1h-1z"/><path fill="#5D543B" d="M14 59h1v1h-1z"/><path fill="#877B5B" d="M15 59h1v1h-1z"/><path fill="#8B8062" d="M16 59h1v1h-1z"/><path fill="#4E4731" d="M17 59h1v1h-1z"/><path fill="#4F4833" d="M18 59h1v1h-1z"/><path fill="#60573E" d="M19 59h1v1h-1z"/><path fill="#585039" d="M20 59h1v1h-1zM21 59h1v1h-1z"/><path fill="#645A3F" d="M22 59h1v1h-1z"/><path fill="#685E45" d="M23 59h1v1h-1z"/><path fill="#111119" d="M3 60h1v1H3zM4 60h1v1H4zM5 60h1v1H5zM6 60h1v1H6z"/><path fill="#847857" d="M9 60h1v1H9z"/><path fill="#7D7152" d="M10 60h1v1h-1z"/><path fill="#6E654C" d="M11 60h1v1h-1z"/><path fill="#4F4833" d="M12 60h1v1h-1z"/><path fill="#4B4430" d="M13 60h1v1h-1z"/><path fill="#685F47" d="M14 60h1v1h-1z"/><path fill="#5D543C" d="M15 60h1v1h-1z"/><path fill="#84795D" d="M16 60h1v1h-1z"/><path fill="#564E38" d="M17 60h1v1h-1z"/><path fill="#353020" d="M18 60h1v1h-1z"/><path fill="#60573E" d="M19 60h1v1h-1zM20 60h1v1h-1z"/><path fill="#736849" d="M21 60h1v1h-1z"/><path fill="#524A34" d="M22 60h1v1h-1z"/><path fill="#685E45" d="M23 60h1v1h-1z"/><path fill="#111119" d="M2 61h1v1H2zM3 61h1v1H3zM4 61h1v1H4zM5 61h1v1H5z"/><path fill="#827857" d="M9 61h1v1H9z"/><path fill="#6E6449" d="M10 61h1v1h-1z"/><path fill="#564E38" d="M11 61h1v1h-1z"/><path fill="#7D7358" d="M12 61h1v1h-1zM13 61h1v1h-1z"/><path fill="#4F4833" d="M14 61h1v1h-1z"/><path fill="#5F563E" d="M15 61h1v1h-1z"/><path fill="#887D60" d="M16 61h1v1h-1z"/><path fill="#675D43" d="M17 61h1v1h-1z"/><path fill="#60573E" d="M18 61h1v1h-1z"/><path fill="#4F4833" d="M19 61h1v1h-1z"/><path fill="#60573E" d="M20 61h1v1h-1zM21 61h1v1h-1z"/><path fill="#504834" d="M22 61h1v1h-1z"/><path fill="#655C43" d="M23 61h1v1h-1z"/><path fill="#111119" d="M1 62h1v1H1zM2 62h1v1H2zM3 62h1v1H3zM4 62h1v1H4zM5 62h1v1H5z"/><path fill="#7D7253" d="M9 62h1v1H9z"/><path fill="#6E6449" d="M10 62h1v1h-1z"/><path fill="#534B35" d="M11 62h1v1h-1z"/><path fill="#4F4833" d="M12 62h1v1h-1zM13 62h1v1h-1zM14 62h1v1h-1z"/><path fill="#5D543C" d="M15 62h1v1h-1z"/><path fill="#84795D" d="M16 62h1v1h-1z"/><path fill="#4E4731" d="M17 62h1v1h-1z"/><path fill="#353020" d="M18 62h1v1h-1z"/><path fill="#585039" d="M19 62h1v1h-1z"/><path fill="#4F4833" d="M20 62h1v1h-1zM21 62h1v1h-1z"/><path fill="#544E37" d="M22 62h1v1h-1z"/><path fill="#645A41" d="M23 62h1v1h-1z"/><path fill="#111119" d="M1 63h1v1H1zM2 63h1v1H2zM3 63h1v1H3zM4 63h1v1H4zM5 63h1v1H5z"/><path fill="#746A4D" d="M9 63h1v1H9z"/><path fill="#655C43" d="M10 63h1v1h-1z"/><path fill="#48412E" d="M11 63h1v1h-1z"/><path fill="#4B4430" d="M12 63h1v1h-1z"/><path fill="#4F4833" d="M13 63h1v1h-1zM14 63h1v1h-1z"/><path fill="#5F563E" d="M15 63h1v1h-1z"/><path fill="#857A5E" d="M16 63h1v1h-1z"/><path fill="#4E4731" d="M17 63h1v1h-1z"/><path fill="#353020" d="M18 63h1v1h-1z"/><path fill="#585039" d="M19 63h1v1h-1zM20 63h1v1h-1z"/><path fill="#4F4833" d="M21 63h1v1h-1z"/><path fill="#4D4732" d="M22 63h1v1h-1z"/><path fill="#685E44" d="M23 63h1v1h-1z"/><path fill="#111119" d="M2 64h1v1H2zM3 64h1v1H3zM4 64h1v1H4z"/><path fill="#6C6246" d="M11 64h1v1h-1z"/><path fill="#635940" d="M12 64h1v1h-1z"/><path fill="#7F7353" d="M13 64h1v1h-1z"/><path fill="#807553" d="M14 64h1v1h-1z"/><path fill="#807554" d="M15 64h1v1h-1z"/><path fill="#13131D" d="M16 64h1v1h-1z"/><path fill="#4E4731" d="M17 64h1v1h-1z"/><path fill="#353020" d="M18 64h1v1h-1zM19 64h1v1h-1z"/><path fill="#4F4833" d="M20 64h1v1h-1zM21 64h1v1h-1z"/><path fill="#574E39" d="M22 64h1v1h-1z"/><path fill="#111119" d="M3 65h1v1H3z"/><path fill="#746A4C" d="M10 65h1v1h-1z"/><path fill="#867957" d="M11 65h1v1h-1z"/><path fill="#837755" d="M12 65h1v1h-1z"/><path fill="#675E43" d="M13 65h1v1h-1z"/><path fill="#6A6045" d="M14 65h1v1h-1z"/><path fill="#202030" d="M15 65h1v1h-1z"/><path fill="#13131D" d="M16 65h1v1h-1zM17 65h1v1h-1z"/><path fill="#353020" d="M18 65h1v1h-1zM19 65h1v1h-1z"/><path fill="#585039" d="M20 65h1v1h-1z"/><path fill="#4F4833" d="M21 65h1v1h-1z"/><path fill="#534B35" d="M22 65h1v1h-1z"/><path fill="#7F7353" d="M9 66h1v1H9z"/><path fill="#897C59" d="M10 66h1v1h-1z"/><path fill="#7F7353" d="M11 66h1v1h-1z"/><path fill="#7A6D4E" d="M12 66h1v1h-1z"/><path fill="#766C4D" d="M13 66h1v1h-1z"/><path fill="#202030" d="M14 66h1v1h-1zM15 66h1v1h-1z"/><path fill="#957D39" d="M16 66h1v1h-1z"/><path fill="#202030" d="M17 66h1v1h-1z"/><path fill="#13131D" d="M18 66h1v1h-1z"/><path fill="#353020" d="M19 66h1v1h-1z"/><path fill="#585039" d="M20 66h1v1h-1z"/><path fill="#4F4833" d="M21 66h1v1h-1z"/><path fill="#837756" d="M9 67h1v1H9z"/><path fill="#8B7F5B" d="M10 67h1v1h-1z"/><path fill="#7A6D4E" d="M11 67h1v1h-1z"/><path fill="#837554" d="M12 67h1v1h-1z"/><path fill="#202030" d="M13 67h1v1h-1z"/><path fill="#746A4C" d="M14 67h1v1h-1z"/><path fill="#13131D" d="M15 67h1v1h-1z"/><path fill="#2E2E44" d="M16 67h1v1h-1z"/><path fill="#13131D" d="M17 67h1v1h-1z"/><path fill="#413B28" d="M18 67h1v1h-1z"/><path fill="#13131D" d="M19 67h1v1h-1z"/><path fill="#4F4833" d="M20 67h1v1h-1zM21 67h1v1h-1z"/><path fill="#756C53" d="M22 67h1v1h-1z"/><path fill="#93886A" d="M23 67h1v1h-1z"/><path fill="#887C59" d="M9 68h1v1H9z"/><path fill="#564E37" d="M10 68h1v1h-1zM11 68h1v1h-1z"/><path fill="#13131D" d="M12 68h1v1h-1z"/><path fill="#6A6045" d="M13 68h1v1h-1z"/><path fill="#534C36" d="M14 68h1v1h-1z"/><path fill="#6F6549" d="M15 68h1v1h-1z"/><path fill="#13131D" d="M16 68h1v1h-1z"/><path fill="#5D543C" d="M17 68h1v1h-1z"/><path fill="#675D42" d="M18 68h1v1h-1z"/><path fill="#585039" d="M19 68h1v1h-1z"/><path fill="#13131D" d="M20 68h1v1h-1z"/><path fill="#4F4833" d="M21 68h1v1h-1z"/><path fill="#94896C" d="M22 68h1v1h-1z"/><path fill="#ADA180" d="M23 68h1v1h-1z"/><path fill="#564E37" d="M9 69h1v1H9zM10 69h1v1h-1z"/><path fill="#353020" d="M11 69h1v1h-1z"/><path fill="#13131D" d="M12 69h1v1h-1z"/><path fill="#877A58" d="M13 69h1v1h-1z"/><path fill="#534C36" d="M14 69h1v1h-1z"/><path fill="#6F6549" d="M15 69h1v1h-1z"/><path fill="#13131D" d="M16 69h1v1h-1z"/><path fill="#5F563E" d="M17 69h1v1h-1z"/><path fill="#60573E" d="M18 69h1v1h-1zM19 69h1v1h-1z"/><path fill="#13131D" d="M20 69h1v1h-1z"/><path fill="#786F55" d="M21 69h1v1h-1z"/><path fill="#897E62" d="M22 69h1v1h-1z"/><path fill="#93886A" d="M23 69h1v1h-1z"/><path fill="#897D5B" d="M9 70h1v1H9z"/><path fill="#564E37" d="M10 70h1v1h-1z"/><path fill="#353020" d="M11 70h1v1h-1z"/><path fill="#13131D" d="M12 70h1v1h-1zM13 70h1v1h-1z"/><path fill="#353020" d="M14 70h1v1h-1z"/><path fill="#6F6549" d="M15 70h1v1h-1z"/><path fill="#13131D" d="M16 70h1v1h-1z"/><path fill="#5F563E" d="M17 70h1v1h-1z"/><path fill="#585039" d="M18 70h1v1h-1z"/><path fill="#13131D" d="M19 70h1v1h-1zM20 70h1v1h-1z"/><path fill="#786F55" d="M21 70h1v1h-1z"/><path fill="#8B8064" d="M22 70h1v1h-1z"/><path fill="#7B7155" d="M23 70h1v1h-1z"/><path fill="#897D5B" d="M9 71h1v1H9z"/><path fill="#837857" d="M10 71h1v1h-1z"/><path fill="#353020" d="M11 71h1v1h-1z"/><path fill="#13131D" d="M12 71h1v1h-1zM13 71h1v1h-1z"/><path fill="#202030" d="M14 71h1v1h-1z"/><path fill="#0E0E15" d="M15 71h1v1h-1zM16 71h1v1h-1zM17 71h1v1h-1z"/><path fill="#202030" d="M18 71h1v1h-1z"/><path fill="#13131D" d="M19 71h1v1h-1zM20 71h1v1h-1z"/><path fill="#4F4833" d="M21 71h1v1h-1z"/><path fill="#6E654B" d="M22 71h1v1h-1z"/><path fill="#7F7457" d="M23 71h1v1h-1z"/><path fill="#857959" d="M9 72h1v1H9z"/><path fill="#837857" d="M10 72h1v1h-1z"/><path fill="#73684A" d="M11 72h1v1h-1z"/><path fill="#13131D" d="M12 72h1v1h-1z"/><path fill="#2E2E44" d="M13 72h1v1h-1z"/><path fill="#13131D" d="M14 72h1v1h-1zM15 72h1v1h-1z"/><path fill="#0E0E15" d="M16 72h1v1h-1z"/><path fill="#13131D" d="M17 72h1v1h-1zM18 72h1v1h-1z"/><path fill="#202030" d="M19 72h1v1h-1z"/><path fill="#13131D" d="M20 72h1v1h-1z"/><path fill="#897C58" d="M21 72h1v1h-1z"/><path fill="#60573E" d="M22 72h1v1h-1z"/><path fill="#7B7256" d="M23 72h1v1h-1z"/><path fill="#8E825E" d="M9 73h1v1H9z"/><path fill="#7C7152" d="M10 73h1v1h-1z"/><path fill="#7A6F50" d="M11 73h1v1h-1z"/><path fill="#2E2E44" d="M12 73h1v1h-1z"/><path fill="#0E0E15" d="M13 73h1v1h-1z"/><path fill="#13131D" d="M14 73h1v1h-1z"/><path fill="#0E0E15" d="M15 73h1v1h-1zM16 73h1v1h-1zM17 73h1v1h-1z"/><path fill="#13131D" d="M18 73h1v1h-1z"/><path fill="#0E0E15" d="M19 73h1v1h-1z"/><path fill="#13131D" d="M20 73h1v1h-1z"/><path fill="#807352" d="M21 73h1v1h-1z"/><path fill="#5C543B" d="M22 73h1v1h-1z"/><path fill="#6B6348" d="M23 73h1v1h-1z"/><path fill="#887B59" d="M9 74h1v1H9z"/><path fill="#817554" d="M10 74h1v1h-1z"/><path fill="#202030" d="M11 74h1v1h-1z"/><path fill="#13131D" d="M12 74h1v1h-1z"/><path fill="#0E0E15" d="M13 74h1v1h-1zM14 74h1v1h-1z"/><path fill="#7E6E44" d="M15 74h1v1h-1z"/><path fill="#5F512B" d="M16 74h1v1h-1z"/><path fill="#39301A" d="M17 74h1v1h-1z"/><path fill="#0E0E15" d="M18 74h1v1h-1zM19 74h1v1h-1z"/><path fill="#13131D" d="M20 74h1v1h-1zM21 74h1v1h-1z"/><path fill="#706548" d="M22 74h1v1h-1z"/><path fill="#6B6348" d="M23 74h1v1h-1z"/><path fill="#827655" d="M9 75h1v1H9z"/><path fill="#2E2E44" d="M10 75h1v1h-1z"/><path fill="#6D5E37" d="M11 75h1v1h-1z"/><path fill="#13131D" d="M12 75h1v1h-1z"/><path fill="#0E0E15" d="M13 75h1v1h-1z"/><path fill="#817044" d="M14 75h1v1h-1z"/><path fill="#39301A" d="M15 75h1v1h-1z"/><path fill="#0E0E15" d="M16 75h1v1h-1z"/><path fill="#372917" d="M17 75h1v1h-1z"/><path fill="#39301A" d="M18 75h1v1h-1z"/><path fill="#0E0E15" d="M19 75h1v1h-1z"/><path fill="#13131D" d="M20 75h1v1h-1z"/><path fill="#39301A" d="M21 75h1v1h-1z"/><path fill="#13131D" d="M22 75h1v1h-1z"/><path fill="#675F45" d="M23 75h1v1h-1z"/><path fill="#2E2E44" d="M9 76h1v1H9z"/><path fill="#0E0E15" d="M10 76h1v1h-1z"/><path fill="#13131D" d="M11 76h1v1h-1z"/><path fill="#6D5E39" d="M12 76h1v1h-1z"/><path fill="#493E24" d="M13 76h1v1h-1z"/><path fill="#5F512B" d="M14 76h1v1h-1z"/><path fill="#0E0E15" d="M15 76h1v1h-1zM16 76h1v1h-1zM17 76h1v1h-1z"/><path fill="#5F512B" d="M18 76h1v1h-1z"/><path fill="#362615" d="M19 76h1v1h-1z"/><path fill="#39301A" d="M20 76h1v1h-1z"/><path fill="#13131D" d="M21 76h1v1h-1z"/><path fill="#0E0E15" d="M22 76h1v1h-1z"/><path fill="#13131D" d="M23 76h1v1h-1z"/><path fill="#2E2E44" d="M8 77h1v1H8z"/><path fill="#13131D" d="M9 77h1v1H9zM10 77h1v1h-1z"/><path fill="#0E0E15" d="M11 77h1v1h-1zM12 77h1v1h-1z"/><path fill="#13131D" d="M13 77h1v1h-1z"/><path fill="#372917" d="M14 77h1v1h-1z"/><path fill="#362615" d="M15 77h1v1h-1z"/><path fill="#0E0E15" d="M16 77h1v1h-1z"/><path fill="#5F512B" d="M17 77h1v1h-1zM18 77h1v1h-1z"/><path fill="#13131D" d="M19 77h1v1h-1z"/><path fill="#0E0E15" d="M20 77h1v1h-1zM21 77h1v1h-1z"/><path fill="#13131D" d="M22 77h1v1h-1zM23 77h1v1h-1zM24 77h1v1h-1zM8 78h1v1H8z"/><path fill="#0E0E15" d="M9 78h1v1H9zM10 78h1v1h-1zM11 78h1v1h-1zM12 78h1v1h-1zM13 78h1v1h-1z"/><path fill="#13131D" d="M14 78h1v1h-1z"/><path fill="#362615" d="M15 78h1v1h-1z"/><path fill="#5F512B" d="M16 78h1v1h-1zM17 78h1v1h-1z"/><path fill="#13131D" d="M18 78h1v1h-1z"/><path fill="#0E0E15" d="M19 78h1v1h-1zM20 78h1v1h-1zM21 78h1v1h-1zM22 78h1v1h-1zM23 78h1v1h-1z"/><path fill="#13131D" d="M24 78h1v1h-1zM9 79h1v1H9z"/><path fill="#0E0E15" d="M10 79h1v1h-1z"/><path fill="#2E2E44" d="M11 79h1v1h-1z"/><path fill="#13131D" d="M12 79h1v1h-1z"/><path fill="#0E0E15" d="M13 79h1v1h-1z"/><path fill="#202030" d="M14 79h1v1h-1z"/><path fill="#13131D" d="M15 79h1v1h-1z"/><path fill="#6D5E35" d="M16 79h1v1h-1z"/><path fill="#13131D" d="M17 79h1v1h-1z"/><path fill="#2E2E44" d="M18 79h1v1h-1z"/><path fill="#0E0E15" d="M19 79h1v1h-1z"/><path fill="#13131D" d="M20 79h1v1h-1z"/><path fill="#202030" d="M21 79h1v1h-1z"/><path fill="#0E0E15" d="M22 79h1v1h-1z"/><path fill="#13131D" d="M23 79h1v1h-1zM9 80h1v1H9zM10 80h1v1h-1z"/><path fill="#0E0E15" d="M11 80h1v1h-1z"/><path fill="#2E2E44" d="M12 80h1v1h-1z"/><path fill="#202030" d="M13 80h1v1h-1z"/><path fill="#0E0E15" d="M14 80h1v1h-1z"/><path fill="#13131D" d="M15 80h1v1h-1z"/><path fill="#77673C" d="M16 80h1v1h-1z"/><path fill="#13131D" d="M17 80h1v1h-1z"/><path fill="#0E0E15" d="M18 80h1v1h-1z"/><path fill="#2E2E44" d="M19 80h1v1h-1zM20 80h1v1h-1z"/><path fill="#0E0E15" d="M21 80h1v1h-1z"/><path fill="#13131D" d="M22 80h1v1h-1zM23 80h1v1h-1zM10 81h1v1h-1zM11 81h1v1h-1z"/><path fill="#0E0E15" d="M12 81h1v1h-1zM13 81h1v1h-1zM14 81h1v1h-1z"/><path fill="#13131D" d="M15 81h1v1h-1z"/><path fill="#5F512B" d="M16 81h1v1h-1z"/><path fill="#13131D" d="M17 81h1v1h-1z"/><path fill="#0E0E15" d="M18 81h1v1h-1zM19 81h1v1h-1zM20 81h1v1h-1z"/><path fill="#13131D" d="M21 81h1v1h-1zM22 81h1v1h-1z"/><path fill="#39301A" d="M12 82h1v1h-1z"/><path fill="#493E24" d="M13 82h1v1h-1z"/><path fill="#7A6A3F" d="M14 82h1v1h-1z"/><path fill="#6A5B34" d="M15 82h1v1h-1z"/><path fill="#5F512B" d="M16 82h1v1h-1z"/><path fill="#6A5B34" d="M17 82h1v1h-1z"/><path fill="#362615" d="M18 82h1v1h-1z"/><path fill="#39301A" d="M19 82h1v1h-1z"/><path fill="#55492B" d="M20 82h1v1h-1z"/><path fill="#13131D" d="M12 83h1v1h-1zM13 83h1v1h-1z"/><path fill="#0E0E15" d="M14 83h1v1h-1zM15 83h1v1h-1zM16 83h1v1h-1zM17 83h1v1h-1zM18 83h1v1h-1z"/><path fill="#13131D" d="M19 83h1v1h-1zM20 83h1v1h-1z"/><path fill="#202030" d="M15 84h1v1h-1z"/><path fill="#12121B" d="M16 84h1v1h-1z"/><path fill="#15151F" d="M17 84h1v1h-1z"/><path fill="#202030" d="M15 85h1v1h-1z"/><path fill="#12121B" d="M16 85h1v1h-1z"/><path fill="#171722" d="M17 85h1v1h-1z"/><path fill="#0E0E15" d="M15 86h1v1h-1zM16 86h1v1h-1zM17 86h1v1h-1z"/><path fill="#202030" d="M15 87h1v1h-1z"/><path fill="#12121B" d="M16 87h1v1h-1z"/><path fill="#15151F" d="M17 87h1v1h-1z"/><path fill="#202030" d="M15 88h1v1h-1z"/><path fill="#12121B" d="M16 88h1v1h-1z"/><path fill="#181823" d="M17 88h1v1h-1z"/><path fill="#0E0E15" d="M15 89h1v1h-1zM16 89h1v1h-1zM17 89h1v1h-1z"/><path fill="#202030" d="M15 90h1v1h-1z"/><path fill="#12121B" d="M16 90h1v1h-1z"/><path fill="#15151F" d="M17 90h1v1h-1z"/><path fill="#202030" d="M15 91h1v1h-1z"/><path fill="#12121B" d="M16 91h1v1h-1z"/><path fill="#181824" d="M17 91h1v1h-1z"/><path fill="#0E0E15" d="M15 92h1v1h-1zM16 92h1v1h-1zM17 92h1v1h-1z"/><path fill="#504223" d="M15 93h1v1h-1z"/><path fill="#3B2A19" d="M16 93h1v1h-1z"/><path fill="#39301A" d="M17 93h1v1h-1z"/><path fill="#5F512B" d="M14 94h1v1h-1zM15 94h1v1h-1zM16 94h1v1h-1z"/><path fill="#41361D" d="M17 94h1v1h-1z"/><path fill="#5E5130" d="M18 94h1v1h-1z"/><path fill="#3F2F1B" d="M15 95h1v1h-1z"/><path fill="#362515" d="M16 95h1v1h-1z"/><path fill="#3B2A19" d="M17 95h1v1h-1z"/><path fill="#473B1F" d="M15 96h1v1h-1z"/><path fill="#3B2A19" d="M16 96h1v1h-1zM17 96h1v1h-1z"/><path fill="#534524" d="M15 97h1v1h-1z"/><path fill="#39301A" d="M16 97h1v1h-1z"/><path fill="#5E5130" d="M17 97h1v1h-1z"/><path fill="#4C3F21" d="M16 98h1v1h-1z"/></svg>