<svg xmlns="http://www.w3.org/2000/svg" width="19" height="94" shape-rendering="crispEdges"><path fill="#DA3304" d="M11 0h1v1h-1z" opacity=".639"/><path fill="#DB3102" d="M10 1h1v1h-1z" opacity=".639"/><path fill="#B62E09" d="M4 2h1v1H4z"/><path fill="#E94802" d="M10 2h1v1h-1z" opacity=".639"/><path fill="#DB3102" d="M5 3h1v1H5z" opacity=".639"/><path fill="#EF5002" d="M10 3h1v1h-1z" opacity=".51"/><path fill="#DA2E01" d="M5 4h1v1H5zM6 4h1v1H6z" opacity=".51"/><path fill="#EA4702" d="M10 4h1v1h-1z" opacity=".51"/><path fill="#D83806" d="M11 4h1v1h-1z"/><path fill="#D92D01" d="M6 5h1v1H6z" opacity=".761"/><path fill="#D43306" d="M10 5h1v1h-1z"/><path fill="#AE2F05" d="M11 5h1v1h-1z"/><path fill="#DE3601" d="M6 6h1v1H6z" opacity=".639"/><path fill="#BE1F0B" d="M10 6h1v1h-1z"/><path fill="#A12D05" d="M11 6h1v1h-1z"/><path fill="#E74303" d="M6 7h1v1H6z" opacity=".671"/><path fill="#AF1D0B" d="M9 7h1v1H9z"/><path fill="#701509" d="M10 7h1v1h-1zM11 7h1v1h-1z"/><path fill="#DC3201" d="M5 8h1v1H5z" opacity=".51"/><path fill="#E44103" d="M6 8h1v1H6z" opacity=".6"/><path fill="#BE1F0B" d="M9 8h1v1H9z"/><path fill="#701509" d="M10 8h1v1h-1z"/><path fill="#AE2F05" d="M11 8h1v1h-1z"/><path fill="#EB4702" d="M13 8h1v1h-1z" opacity=".408"/><path fill="#DD3502" d="M5 9h1v1H5z" opacity=".859"/><path fill="#E54002" d="M6 9h1v1H6z" opacity=".51"/><path fill="#B51D0B" d="M8 9h1v1H8z"/><path fill="#E62C0E" d="M9 9h1v1H9z"/><path fill="#B73605" d="M10 9h1v1h-1z"/><path fill="#AE2F05" d="M11 9h1v1h-1z"/><path fill="#E53E02" d="M12 9h1v1h-1z" opacity=".408"/><path fill="#E54002" d="M13 9h1v1h-1z" opacity=".325"/><path fill="#DE3601" d="M4 10h1v1H4z" opacity=".639"/><path fill="#DC3502" d="M5 10h1v1H5z" opacity=".827"/><path fill="#E4260B" d="M8 10h1v1H8z"/><path fill="#DA280F" d="M9 10h1v1H9z"/><path fill="#892308" d="M10 10h1v1h-1z"/><path fill="#9B2508" d="M11 10h1v1h-1z"/><path fill="#E53E02" d="M12 10h1v1h-1z" opacity=".408"/><path fill="#E74201" d="M13 10h1v1h-1z" opacity=".325"/><path fill="#DC3201" d="M4 11h1v1H4z" opacity=".639"/><path fill="#DE3502" d="M5 11h1v1H5z" opacity=".51"/><path fill="#EA4502" d="M7 11h1v1H7z" opacity=".325"/><path fill="#AE1F0B" d="M8 11h1v1H8z"/><path fill="#AE220E" d="M9 11h1v1H9z"/><path fill="#832507" d="M10 11h1v1h-1z"/><path fill="#972407" d="M11 11h1v1h-1z"/><path fill="#E33B03" d="M12 11h1v1h-1z" opacity=".325"/><path fill="#DA2F01" d="M3 12h1v1H3zM4 12h1v1H4z" opacity=".639"/><path fill="#DC3201" d="M5 12h1v1H5z" opacity=".51"/><path fill="#B72809" d="M7 12h1v1H7z"/><path fill="#B12509" d="M8 12h1v1H8z"/><path fill="#A5200F" d="M9 12h1v1H9z"/><path fill="#3C0F0A" d="M10 12h1v1h-1z"/><path fill="#A62907" d="M11 12h1v1h-1z"/><path fill="#E53E02" d="M12 12h1v1h-1z" opacity=".408"/><path fill="#DC3404" d="M0 13h1v1H0z" opacity=".8"/><path fill="#D92E02" d="M3 13h1v1H3z" opacity=".639"/><path fill="#DB2F01" d="M4 13h1v1H4z" opacity=".639"/><path fill="#E23B01" d="M5 13h1v1H5z" opacity=".51"/><path fill="#B72909" d="M7 13h1v1H7z"/><path fill="#AD230D" d="M8 13h1v1H8z"/><path fill="#5B130A" d="M9 13h1v1H9z"/><path fill="#3C0F0A" d="M10 13h1v1h-1z"/><path fill="#B53406" d="M11 13h1v1h-1z"/><path fill="#E74201" d="M12 13h1v1h-1z" opacity=".51"/><path fill="#DD3503" d="M3 14h1v1H3z" opacity=".8"/><path fill="#DB3102" d="M4 14h1v1H4z" opacity=".639"/><path fill="#E23B01" d="M5 14h1v1H5z" opacity=".51"/><path fill="#C62B09" d="M7 14h1v1H7z"/><path fill="#A5200F" d="M8 14h1v1H8z"/><path fill="#551209" d="M9 14h1v1H9z"/><path fill="#280C09" d="M10 14h1v1h-1z"/><path fill="#B13305" d="M11 14h1v1h-1z"/><path fill="#E74201" d="M12 14h1v1h-1z" opacity=".51"/><path fill="#DD3302" d="M3 15h1v1H3z" opacity=".8"/><path fill="#DD3503" d="M4 15h1v1H4z" opacity=".8"/><path fill="#E23D02" d="M5 15h1v1H5z" opacity=".639"/><path fill="#C62A08" d="M6 15h1v1H6z"/><path fill="#D53308" d="M7 15h1v1H7z"/><path fill="#C82410" d="M8 15h1v1H8z"/><path fill="#360F09" d="M9 15h1v1H9z"/><path fill="#280C09" d="M10 15h1v1h-1z"/><path fill="#A32D07" d="M11 15h1v1h-1z"/><path fill="#DF3803" d="M3 16h1v1H3z" opacity=".8"/><path fill="#E34003" d="M4 16h1v1H4z" opacity=".8"/><path fill="#E14004" d="M5 16h1v1H5z" opacity=".639"/><path fill="#CB3108" d="M6 16h1v1H6z"/><path fill="#E93D0D" d="M7 16h1v1H7z"/><path fill="#801609" d="M8 16h1v1H8z"/><path fill="#280C09" d="M9 16h1v1H9zM10 16h1v1h-1z"/><path fill="#6D1509" d="M11 16h1v1h-1z"/><path fill="#DD3604" d="M3 17h1v1H3z"/><path fill="#E34003" d="M4 17h1v1H4z" opacity=".8"/><path fill="#C83704" d="M5 17h1v1H5z" opacity=".58"/><path fill="#CA3507" d="M6 17h1v1H6z"/><path fill="#D4260F" d="M7 17h1v1H7z"/><path fill="#490F09" d="M8 17h1v1H8z"/><path fill="#280C09" d="M9 17h1v1H9z"/><path fill="#732308" d="M10 17h1v1h-1z"/><path fill="#6D1509" d="M11 17h1v1h-1z"/><path fill="#E04105" d="M4 18h1v1H4z" opacity=".8"/><path fill="#B82F07" d="M5 18h1v1H5zM6 18h1v1H6z"/><path fill="#CC200C" d="M7 18h1v1H7z"/><path fill="#2C0D0A" d="M8 18h1v1H8z"/><path fill="#340D0A" d="M9 18h1v1H9z"/><path fill="#983007" d="M10 18h1v1h-1z"/><path fill="#5D140A" d="M11 18h1v1h-1z"/><path fill="#E54202" d="M4 19h1v1H4z" opacity=".639"/><path fill="#C33507" d="M5 19h1v1H5z"/><path fill="#B72F07" d="M6 19h1v1H6z"/><path fill="#A71D0D" d="M7 19h1v1H7z"/><path fill="#280D0A" d="M8 19h1v1H8z"/><path fill="#3C0E0B" d="M9 19h1v1H9z"/><path fill="#7D2807" d="M10 19h1v1h-1z"/><path fill="#5D140A" d="M11 19h1v1h-1z"/><path fill="#DD3402" d="M4 20h1v1H4z" opacity=".639"/><path fill="#D23D07" d="M5 20h1v1H5z"/><path fill="#BF3009" d="M6 20h1v1H6z"/><path fill="#9A1B0E" d="M7 20h1v1H7z"/><path fill="#340E0B" d="M8 20h1v1H8z"/><path fill="#320E0B" d="M9 20h1v1H9z"/><path fill="#5F2308" d="M10 20h1v1h-1z"/><path fill="#571309" d="M11 20h1v1h-1z"/><path fill="#D72C03" d="M4 21h1v1H4z" opacity=".51"/><path fill="#B9280A" d="M5 21h1v1H5z"/><path fill="#B42B08" d="M6 21h1v1H6z"/><path fill="#AF1D0E" d="M7 21h1v1H7z"/><path fill="#340D0A" d="M8 21h1v1H8z"/><path fill="#280C09" d="M9 21h1v1H9z"/><path fill="#501E08" d="M10 21h1v1h-1z"/><path fill="#571309" d="M11 21h1v1h-1z"/><path fill="#D92C02" d="M1 22h1v1H1z" opacity=".639"/><path fill="#D52803" d="M4 22h1v1H4z" opacity=".408"/><path fill="#C52A0A" d="M5 22h1v1H5z"/><path fill="#B82B09" d="M6 22h1v1H6z"/><path fill="#BD310A" d="M7 22h1v1H7z"/><path fill="#280C09" d="M8 22h1v1H8zM9 22h1v1H9z"/><path fill="#501E08" d="M10 22h1v1h-1z"/><path fill="#5D1309" d="M11 22h1v1h-1z"/><path fill="#B62E09" d="M0 23h1v1H0z"/><path fill="#D72B02" d="M3 23h1v1H3z" opacity=".639"/><path fill="#B42305" d="M4 23h1v1H4z" opacity=".494"/><path fill="#9C2509" d="M5 23h1v1H5z"/><path fill="#5B150A" d="M6 23h1v1H6z"/><path fill="#97230C" d="M7 23h1v1H7z"/><path fill="#360C08" d="M8 23h1v1H8z"/><path fill="#280C09" d="M9 23h1v1H9z"/><path fill="#571909" d="M10 23h1v1h-1z"/><path fill="#5F1409" d="M11 23h1v1h-1z"/><path fill="#BC2D07" d="M0 24h1v1H0z" opacity=".741"/><path fill="#D42703" d="M3 24h1v1H3z" opacity=".51"/><path fill="#AA2105" d="M4 24h1v1H4z" opacity=".424"/><path fill="#7C1B0A" d="M5 24h1v1H5z"/><path fill="#43100B" d="M6 24h1v1H6z"/><path fill="#89180C" d="M7 24h1v1H7z"/><path fill="#400E0B" d="M8 24h1v1H8z"/><path fill="#4E120B" d="M9 24h1v1H9z"/><path fill="#5F140B" d="M10 24h1v1h-1z"/><path fill="#781408" d="M11 24h1v1h-1z"/><path fill="#BB2C07" d="M0 25h1v1H0z" opacity=".718"/><path fill="#D32404" d="M4 25h1v1H4z" opacity=".208"/><path fill="#74160B" d="M5 25h1v1H5z"/><path fill="#90190C" d="M6 25h1v1H6z"/><path fill="#921D0C" d="M7 25h1v1H7z"/><path fill="#440D0A" d="M8 25h1v1H8z"/><path fill="#400E0B" d="M9 25h1v1H9z"/><path fill="#3F1008" d="M10 25h1v1h-1z"/><path fill="#761308" d="M11 25h1v1h-1z"/><path fill="#BF2B06" d="M0 26h1v1H0z" opacity=".541"/><path fill="#C12A06" d="M1 26h1v1H1z" opacity=".58"/><path fill="#D42502" d="M3 26h1v1H3z" opacity=".408"/><path fill="#CF1E05" d="M4 26h1v1H4z" opacity=".133"/><path fill="#C11B0B" d="M5 26h1v1H5z"/><path fill="#A61B0B" d="M6 26h1v1H6z"/><path fill="#A9380C" d="M7 26h1v1H7z"/><path fill="#3D0D0A" d="M8 26h1v1H8z"/><path fill="#3C0E0B" d="M9 26h1v1H9z"/><path fill="#471109" d="M10 26h1v1h-1z"/><path fill="#761308" d="M11 26h1v1h-1z"/><path fill="#C22C06" d="M0 27h1v1H0z" opacity=".58"/><path fill="#BF2C06" d="M1 27h1v1H1z" opacity=".812"/><path fill="#D72B02" d="M2 27h1v1H2z" opacity=".639"/><path fill="#E13A02" d="M3 27h1v1H3z" opacity=".51"/><path fill="#861A07" d="M4 27h1v1H4z" opacity=".286"/><path fill="#CA280E" d="M5 27h1v1H5z"/><path fill="#C01D0E" d="M6 27h1v1H6z"/><path fill="#9D2E0B" d="M7 27h1v1H7z"/><path fill="#2B0D0A" d="M8 27h1v1H8z"/><path fill="#3C0E0B" d="M9 27h1v1H9z"/><path fill="#52110B" d="M10 27h1v1h-1z"/><path fill="#761308" d="M11 27h1v1h-1z"/><path fill="#D72A02" d="M0 28h1v1H0z" opacity=".325"/><path fill="#B93007" d="M1 28h1v1H1z" opacity=".914"/><path fill="#DB3102" d="M2 28h1v1H2z" opacity=".51"/><path fill="#DE3303" d="M3 28h1v1H3z" opacity=".325"/><path fill="#4A1208" d="M4 28h1v1H4z" opacity=".404"/><path fill="#A5220D" d="M5 28h1v1H5z"/><path fill="#D3370D" d="M6 28h1v1H6z"/><path fill="#97190F" d="M7 28h1v1H7z"/><path fill="#2C0D0A" d="M8 28h1v1H8z"/><path fill="#3A0E0B" d="M9 28h1v1H9z"/><path fill="#58120B" d="M10 28h1v1h-1z"/><path fill="#80140A" d="M11 28h1v1h-1z"/><path fill="#D82C02" d="M0 29h1v1H0z" opacity=".259"/><path fill="#C22D06" d="M1 29h1v1H1z" opacity=".58"/><path fill="#BC3007" d="M2 29h1v1H2z" opacity=".859"/><path fill="#D72A04" d="M3 29h1v1H3z" opacity=".208"/><path fill="#4C1208" d="M4 29h1v1H4z" opacity=".388"/><path fill="#A9270E" d="M5 29h1v1H5z"/><path fill="#C82C0D" d="M6 29h1v1H6z"/><path fill="#AB1B0F" d="M7 29h1v1H7z"/><path fill="#3E0D0A" d="M8 29h1v1H8z"/><path fill="#300E0B" d="M9 29h1v1H9z"/><path fill="#67100B" d="M10 29h1v1h-1z"/><path fill="#82140A" d="M11 29h1v1h-1z"/><path fill="#DB3002" d="M1 30h1v1H1z" opacity=".325"/><path fill="#C73206" d="M2 30h1v1H2z" opacity=".631"/><path fill="#B82D08" d="M3 30h1v1H3z" opacity=".875"/><path fill="#D12105" d="M4 30h1v1H4z" opacity=".043"/><path fill="#AE1D0D" d="M5 30h1v1H5z"/><path fill="#A3280B" d="M6 30h1v1H6z"/><path fill="#B11B0D" d="M7 30h1v1H7z"/><path fill="#650D0A" d="M8 30h1v1H8z"/><path fill="#360D0A" d="M9 30h1v1H9z"/><path fill="#6C130B" d="M10 30h1v1h-1z"/><path fill="#90140A" d="M11 30h1v1h-1z"/><path fill="#DC3102" d="M1 31h1v1H1z" opacity=".325"/><path fill="#E33B03" d="M2 31h1v1H2z" opacity=".325"/><path fill="#BA2F08" d="M3 31h1v1H3z" opacity=".678"/><path fill="#B82F08" d="M4 31h1v1H4z" opacity=".78"/><path fill="#981A0C" d="M5 31h1v1H5z"/><path fill="#9C240B" d="M6 31h1v1H6z"/><path fill="#91200B" d="M7 31h1v1H7z"/><path fill="#670D0A" d="M8 31h1v1H8z"/><path fill="#570D0A" d="M9 31h1v1H9z"/><path fill="#AB370B" d="M10 31h1v1h-1z"/><path fill="#72140A" d="M11 31h1v1h-1z"/><path fill="#EB4801" d="M2 32h1v1H2z" opacity=".51"/><path fill="#E64002" d="M3 32h1v1H3z" opacity=".208"/><path fill="#BC3008" d="M4 32h1v1H4z" opacity=".435"/><path fill="#B52E0B" d="M5 32h1v1H5z"/><path fill="#9B260B" d="M6 32h1v1H6z"/><path fill="#96260B" d="M7 32h1v1H7z"/><path fill="#2A0D0A" d="M8 32h1v1H8z"/><path fill="#530E0B" d="M9 32h1v1H9z"/><path fill="#8B290B" d="M10 32h1v1h-1z"/><path fill="#8C150B" d="M11 32h1v1h-1z"/><path fill="#E74202" d="M3 33h1v1H3z" opacity=".259"/><path fill="#E43C03" d="M4 33h1v1H4z" opacity=".165"/><path fill="#BB2A0D" d="M5 33h1v1H5z"/><path fill="#AF2F0C" d="M6 33h1v1H6z"/><path fill="#9C150B" d="M7 33h1v1H7z"/><path fill="#740E0B" d="M8 33h1v1H8z"/><path fill="#7C170B" d="M9 33h1v1H9z"/><path fill="#5B0F0B" d="M10 33h1v1h-1z"/><path fill="#79100A" d="M11 33h1v1h-1z"/><path fill="#E74202" d="M4 34h1v1H4z" opacity=".259"/><path fill="#BB2E0D" d="M5 34h1v1H5z"/><path fill="#BA2D0A" d="M6 34h1v1H6z"/><path fill="#C91F0E" d="M7 34h1v1H7z"/><path fill="#6E0D0A" d="M8 34h1v1H8z"/><path fill="#6A0E0B" d="M9 34h1v1H9z"/><path fill="#630F0B" d="M10 34h1v1h-1z"/><path fill="#86100A" d="M11 34h1v1h-1z"/><path fill="#E44104" d="M4 35h1v1H4z" opacity=".278"/><path fill="#BD340E" d="M5 35h1v1H5z"/><path fill="#C5320C" d="M6 35h1v1H6z"/><path fill="#B9190B" d="M7 35h1v1H7z"/><path fill="#6B0D0A" d="M8 35h1v1H8z"/><path fill="#5B0F0B" d="M9 35h1v1H9z"/><path fill="#520F0B" d="M10 35h1v1h-1z"/><path fill="#82120B" d="M11 35h1v1h-1z"/><path fill="#D93D07" d="M4 36h1v1H4z" opacity=".345"/><path fill="#ED400E" d="M5 36h1v1H5z"/><path fill="#E1280C" d="M6 36h1v1H6z"/><path fill="#D0280B" d="M7 36h1v1H7z"/><path fill="#860D0A" d="M8 36h1v1H8z"/><path fill="#510F0B" d="M9 36h1v1H9z"/><path fill="#380F0B" d="M10 36h1v1h-1z"/><path fill="#95250B" d="M11 36h1v1h-1z"/><path fill="#EE400F" d="M5 37h1v1H5z"/><path fill="#EB360E" d="M6 37h1v1H6z"/><path fill="#D7310B" d="M7 37h1v1H7z"/><path fill="#700E0B" d="M8 37h1v1H8z"/><path fill="#420F0B" d="M9 37h1v1H9z"/><path fill="#8C210B" d="M10 37h1v1h-1z"/><path fill="#570F0B" d="M11 37h1v1h-1z"/><path fill="#BB2E0D" d="M6 38h1v1H6z"/><path fill="#A51B0C" d="M7 38h1v1H7z"/><path fill="#A4290B" d="M8 38h1v1H8z"/><path fill="#490F0B" d="M9 38h1v1H9z"/><path fill="#A6260B" d="M10 38h1v1h-1z"/><path fill="#690F0B" d="M11 38h1v1h-1z"/><path fill="#BD330D" d="M6 39h1v1H6z"/><path fill="#911A0C" d="M7 39h1v1H7z"/><path fill="#A1280B" d="M8 39h1v1H8z"/><path fill="#86240B" d="M9 39h1v1H9z"/><path fill="#8F1E0B" d="M10 39h1v1h-1z"/><path fill="#650E0B" d="M11 39h1v1h-1z"/><path fill="#BD340D" d="M6 40h1v1H6z"/><path fill="#A7250E" d="M7 40h1v1H7z"/><path fill="#9B2C0B" d="M8 40h1v1H8z"/><path fill="#87240B" d="M9 40h1v1H9z"/><path fill="#88200B" d="M10 40h1v1h-1z"/><path fill="#4A0E0B" d="M11 40h1v1h-1z"/><path fill="#CF380E" d="M6 41h1v1H6z"/><path fill="#BF2B0D" d="M7 41h1v1H7z"/><path fill="#A3250B" d="M8 41h1v1H8z"/><path fill="#751B0B" d="M9 41h1v1H9z"/><path fill="#600E0B" d="M10 41h1v1h-1z"/><path fill="#5B0E0B" d="M11 41h1v1h-1z"/><path fill="#ED3F0E" d="M6 42h1v1H6z"/><path fill="#C52B0D" d="M7 42h1v1H7z"/><path fill="#A9220B" d="M8 42h1v1H8z"/><path fill="#7F1C0B" d="M9 42h1v1H9z"/><path fill="#6E0E0B" d="M10 42h1v1h-1z"/><path fill="#610D0A" d="M11 42h1v1h-1z"/><path fill="#CF390E" d="M6 43h1v1H6z"/><path fill="#AF2B0D" d="M7 43h1v1H7z"/><path fill="#A61F0B" d="M8 43h1v1H8z"/><path fill="#A81E0A" d="M9 43h1v1H9z"/><path fill="#9D140A" d="M10 43h1v1h-1z"/><path fill="#640D0A" d="M11 43h1v1h-1z"/><path fill="#BD340D" d="M6 44h1v1H6z"/><path fill="#AB2D0D" d="M7 44h1v1H7z"/><path fill="#9D1D0B" d="M8 44h1v1H8z"/><path fill="#650D08" d="M9 44h1v1H9z"/><path fill="#680E0B" d="M10 44h1v1h-1z"/><path fill="#821B09" d="M11 44h1v1h-1z"/><path fill="#B12E0D" d="M7 45h1v1H7z"/><path fill="#A6260C" d="M8 45h1v1H8z"/><path fill="#6F0D09" d="M9 45h1v1H9z"/><path fill="#97110B" d="M10 45h1v1h-1z"/><path fill="#660D0A" d="M11 45h1v1h-1z"/><path fill="#EB3E0E" d="M7 46h1v1H7z"/><path fill="#B9310C" d="M8 46h1v1H8z"/><path fill="#A01D09" d="M9 46h1v1H9z"/><path fill="#95150B" d="M10 46h1v1h-1z"/><path fill="#860F0B" d="M11 46h1v1h-1z"/><path fill="#EB3E0E" d="M7 47h1v1H7z"/><path fill="#B3290C" d="M8 47h1v1H8z"/><path fill="#7E1A09" d="M9 47h1v1H9z"/><path fill="#89130B" d="M10 47h1v1h-1z"/><path fill="#660F0B" d="M11 47h1v1h-1z"/><path fill="#BB340D" d="M7 48h1v1H7z"/><path fill="#AA300D" d="M8 48h1v1H8z"/><path fill="#6E1509" d="M9 48h1v1H9z"/><path fill="#680E0B" d="M10 48h1v1h-1z"/><path fill="#780F0B" d="M11 48h1v1h-1z"/><path fill="#ED400E" d="M7 49h1v1H7z"/><path fill="#A4290D" d="M8 49h1v1H8z"/><path fill="#7C1809" d="M9 49h1v1H9z"/><path fill="#88190B" d="M10 49h1v1h-1z"/><path fill="#96110B" d="M11 49h1v1h-1z"/><path fill="#ED3F0E" d="M7 50h1v1H7z"/><path fill="#ED3C0E" d="M8 50h1v1H8z"/><path fill="#89150B" d="M9 50h1v1H9z"/><path fill="#A31409" d="M10 50h1v1h-1z"/><path fill="#9F140B" d="M11 50h1v1h-1z"/><path fill="#E93C0E" d="M8 51h1v1H8z"/><path fill="#C0190B" d="M9 51h1v1H9z"/><path fill="#8C1309" d="M10 51h1v1h-1z"/><path fill="#89130B" d="M11 51h1v1h-1z"/><path fill="#BC300D" d="M8 52h1v1H8z"/><path fill="#CE1B0B" d="M9 52h1v1H9z"/><path fill="#74100B" d="M10 52h1v1h-1z"/><path fill="#871A0A" d="M11 52h1v1h-1z"/><path fill="#CF350F" d="M8 53h1v1H8z"/><path fill="#E8280E" d="M9 53h1v1H9z"/><path fill="#9D110B" d="M10 53h1v1h-1z"/><path fill="#9D170B" d="M11 53h1v1h-1z"/><path fill="#F14B11" d="M8 54h1v1H8z"/><path fill="#BF170B" d="M9 54h1v1H9z"/><path fill="#B3110B" d="M10 54h1v1h-1z"/><path fill="#C2170B" d="M11 54h1v1h-1z"/><path fill="#EE4210" d="M8 55h1v1H8z"/><path fill="#CB2909" d="M9 55h1v1H9z"/><path fill="#C6140B" d="M10 55h1v1h-1z"/><path fill="#EE3E10" d="M11 55h1v1h-1z"/><path fill="#EE4010" d="M8 56h1v1H8z"/><path fill="#C51A0A" d="M9 56h1v1H9z"/><path fill="#EB2A0E" d="M10 56h1v1h-1z"/><path fill="#E8280E" d="M11 56h1v1h-1z"/><path fill="#E9280E" d="M8 57h1v1H8z"/><path fill="#C0120B" d="M9 57h1v1H9z"/><path fill="#E61B0B" d="M10 57h1v1h-1z"/><path fill="#EC380F" d="M11 57h1v1h-1z"/><path fill="#EA300F" d="M8 58h1v1H8z"/><path fill="#CE150B" d="M9 58h1v1H9z"/><path fill="#EB2C0E" d="M10 58h1v1h-1z"/><path fill="#EC380F" d="M11 58h1v1h-1z"/><path fill="#CE140B" d="M8 59h1v1H8z"/><path fill="#CE150B" d="M9 59h1v1H9z"/><path fill="#EF4210" d="M10 59h1v1h-1zM11 59h1v1h-1z"/><path fill="#151923" d="M3 60h1v1H3z"/><path fill="#C6140B" d="M8 60h1v1H8z"/><path fill="#E4190B" d="M9 60h1v1H9z"/><path fill="#EF4210" d="M10 60h1v1h-1z"/><path fill="#EF4410" d="M11 60h1v1h-1z"/><path fill="#151923" d="M2 61h1v1H2z"/><path fill="#DA190B" d="M8 61h1v1H8z"/><path fill="#E61F0B" d="M9 61h1v1H9z"/><path fill="#EF4210" d="M10 61h1v1h-1z"/><path fill="#EB340E" d="M11 61h1v1h-1z"/><path fill="#181C28" d="M2 62h1v1H2z"/><path fill="#E6200B" d="M8 62h1v1H8z"/><path fill="#EC340E" d="M9 62h1v1H9z"/><path fill="#EF4210" d="M10 62h1v1h-1z"/><path fill="#EB340E" d="M11 62h1v1h-1z"/><path fill="#151922" d="M2 63h1v1H2z"/><path fill="#E7200B" d="M8 63h1v1H8z"/><path fill="#EC320E" d="M9 63h1v1H9z"/><path fill="#EF4210" d="M10 63h1v1h-1zM11 63h1v1h-1z"/><path fill="#0E1116" d="M2 64h1v1H2z"/><path fill="#13161F" d="M3 64h1v1H3z"/><path fill="#EA2A0E" d="M8 64h1v1H8z"/><path fill="#EB300E" d="M9 64h1v1H9z"/><path fill="#EF4210" d="M10 64h1v1h-1zM11 64h1v1h-1z"/><path fill="#0E1116" d="M3 65h1v1H3z"/><path fill="#13161F" d="M4 65h1v1H4z"/><path fill="#151923" d="M5 65h1v1H5z"/><path fill="#E41A07" d="M8 65h1v1H8z"/><path fill="#E71807" d="M9 65h1v1H9z"/><path fill="#E81A08" d="M10 65h1v1h-1z"/><path fill="#EF4210" d="M11 65h1v1h-1z"/><path fill="#0C0E13" d="M14 65h1v1h-1z"/><path fill="#11151C" d="M15 65h1v1h-1z"/><path fill="#1A1E2A" d="M16 65h1v1h-1z"/><path fill="#141821" d="M17 65h1v1h-1z"/><path fill="#0F1218" d="M2 66h1v1H2z"/><path fill="#191D28" d="M3 66h1v1H3zM4 66h1v1H4z"/><path fill="#0C0E12" d="M5 66h1v1H5z"/><path fill="#11151C" d="M6 66h1v1H6z"/><path fill="#0D1016" d="M7 66h1v1H7z"/><path fill="#E72A0C" d="M8 66h1v1H8z"/><path fill="#E41907" d="M9 66h1v1H9z"/><path fill="#B3110B" d="M10 66h1v1h-1z"/><path fill="#EF4210" d="M11 66h1v1h-1z"/><path fill="#060709" d="M12 66h1v1h-1z"/><path fill="#0A0C10" d="M13 66h1v1h-1z"/><path fill="#1C212F" d="M17 66h1v1h-1z"/><path fill="#0F1218" d="M18 66h1v1h-1zM1 67h1v1H1z"/><path fill="#090B0E" d="M2 67h1v1H2z"/><path fill="#080A0D" d="M3 67h1v1H3z"/><path fill="#060709" d="M4 67h1v1H4z"/><path fill="#191D28" d="M5 67h1v1H5z"/><path fill="#0C0F13" d="M6 67h1v1H6z"/><path fill="#060709" d="M7 67h1v1H7z"/><path fill="#E92C09" d="M8 67h1v1H8z"/><path fill="#B4130B" d="M9 67h1v1H9z"/><path fill="#B5160B" d="M10 67h1v1h-1z"/><path fill="#E9240A" d="M11 67h1v1h-1z"/><path fill="#1B202D" d="M16 67h1v1h-1z"/><path fill="#101319" d="M17 67h1v1h-1z"/><path fill="#0E1116" d="M18 67h1v1h-1z"/><path fill="#0B0E12" d="M1 68h1v1H1z"/><path fill="#0A0C0F" d="M5 68h1v1H5z"/><path fill="#0E1116" d="M6 68h1v1H6z"/><path fill="#0C0E13" d="M7 68h1v1H7z"/><path fill="#08090B" d="M8 68h1v1H8z"/><path fill="#070809" d="M9 68h1v1H9z"/><path fill="#070709" d="M10 68h1v1h-1z"/><path fill="#B3110B" d="M11 68h1v1h-1z"/><path fill="#191E2A" d="M15 68h1v1h-1z"/><path fill="#0F1218" d="M16 68h1v1h-1z"/><path fill="#0A0C10" d="M17 68h1v1h-1z"/><path fill="#080A0D" d="M2 69h1v1H2z"/><path fill="#0C0E13" d="M5 69h1v1H5zM6 69h1v1H6z"/><path fill="#07080B" d="M7 69h1v1H7z"/><path fill="#0B0D11" d="M8 69h1v1H8z"/><path fill="#0A0C0F" d="M9 69h1v1H9z"/><path fill="#060709" d="M10 69h1v1h-1z"/><path fill="#07080A" d="M11 69h1v1h-1z"/><path fill="#0B0D11" d="M12 69h1v1h-1z"/><path fill="#0C0E13" d="M13 69h1v1h-1z"/><path fill="#12151D" d="M14 69h1v1h-1z"/><path fill="#0C0F14" d="M15 69h1v1h-1z"/><path fill="#0C0E13" d="M16 69h1v1h-1z"/><path fill="#080A0D" d="M4 70h1v1H4z"/><path fill="#0C0E13" d="M5 70h1v1H5z"/><path fill="#060708" d="M6 70h1v1H6z"/><path fill="#060709" d="M7 70h1v1H7z"/><path fill="#060708" d="M8 70h1v1H8zM9 70h1v1H9z"/><path fill="#090A0D" d="M10 70h1v1h-1z"/><path fill="#090B0E" d="M11 70h1v1h-1z"/><path fill="#0A0B0F" d="M12 70h1v1h-1z"/><path fill="#060708" d="M13 70h1v1h-1z"/><path fill="#060709" d="M14 70h1v1h-1z"/><path fill="#080A0D" d="M4 71h1v1H4z"/><path fill="#0A0C10" d="M5 71h1v1H5z"/><path fill="#060708" d="M6 71h1v1H6z"/><path fill="#0C0E12" d="M7 71h1v1H7z"/><path fill="#060708" d="M8 71h1v1H8zM9 71h1v1H9z"/><path fill="#680E0B" d="M10 71h1v1h-1z"/><path fill="#B3110B" d="M11 71h1v1h-1z"/><path fill="#ED3407" d="M12 71h1v1h-1z"/><path fill="#080A0D" d="M4 72h1v1H4z"/><path fill="#0E1117" d="M5 72h1v1H5z"/><path fill="#060708" d="M7 72h1v1H7z"/><path fill="#0A0B0F" d="M8 72h1v1H8z"/><path fill="#060708" d="M9 72h1v1H9z"/><path fill="#060709" d="M10 72h1v1h-1z"/><path fill="#B3110B" d="M11 72h1v1h-1z"/><path fill="#F1470E" d="M12 72h1v1h-1z"/><path fill="#EA2605" d="M13 72h1v1h-1z"/><path fill="#0C0E13" d="M14 72h1v1h-1zM15 72h1v1h-1z"/><path fill="#060708" d="M5 73h1v1H5z"/><path fill="#0E1117" d="M6 73h1v1H6z"/><path fill="#060708" d="M7 73h1v1H7zM8 73h1v1H8z"/><path fill="#07090B" d="M9 73h1v1H9z"/><path fill="#0C0E13" d="M10 73h1v1h-1z"/><path fill="#060708" d="M11 73h1v1h-1z"/><path fill="#06080A" d="M12 73h1v1h-1z"/><path fill="#F45914" d="M13 73h1v1h-1z"/><path fill="#191D28" d="M16 73h1v1h-1z"/><path fill="#060709" d="M6 74h1v1H6z"/><path fill="#0A0B0F" d="M7 74h1v1H7zM8 74h1v1H8z"/><path fill="#060708" d="M9 74h1v1H9z"/><path fill="#07090B" d="M10 74h1v1h-1z"/><path fill="#0C0E13" d="M11 74h1v1h-1z"/><path fill="#050607" d="M12 74h1v1h-1z"/><path fill="#07090B" d="M13 74h1v1h-1z"/><path fill="#0A0C0F" d="M14 74h1v1h-1z"/><path fill="#171B25" d="M15 74h1v1h-1z"/><path fill="#0E1217" d="M16 74h1v1h-1z"/><path fill="#060708" d="M8 75h1v1H8zM9 75h1v1H9z"/><path fill="#3A1009" d="M10 75h1v1h-1z"/><path fill="#060708" d="M11 75h1v1h-1zM12 75h1v1h-1z"/><path fill="#0C0E13" d="M13 75h1v1h-1z"/><path fill="#0A0C0F" d="M14 75h1v1h-1z"/><path fill="#0D1015" d="M15 75h1v1h-1z"/><path fill="#060708" d="M9 76h1v1H9z"/><path fill="#661C0A" d="M10 76h1v1h-1z"/><path fill="#060708" d="M11 76h1v1h-1zM12 76h1v1h-1zM9 77h1v1H9z"/><path fill="#87250B" d="M10 77h1v1h-1z"/><path fill="#060708" d="M11 77h1v1h-1z"/><path fill="#0E0E12" d="M9 78h1v1H9z"/><path fill="#99270B" d="M10 78h1v1h-1z"/><path fill="#060708" d="M11 78h1v1h-1z"/><path fill="#16171B" d="M9 79h1v1H9z"/><path fill="#BE320C" d="M10 79h1v1h-1z"/><path fill="#060708" d="M11 79h1v1h-1z"/><path fill="#121216" d="M9 80h1v1H9z"/><path fill="#F14A1C" d="M10 80h1v1h-1z"/><path fill="#060708" d="M11 80h1v1h-1z"/><path fill="#101014" d="M9 81h1v1H9z"/><path fill="#FB5424" d="M10 81h1v1h-1z"/><path fill="#101014" d="M11 81h1v1h-1z"/><path fill="#0E0E12" d="M9 82h1v1H9z"/><path fill="#F14918" d="M10 82h1v1h-1z"/><path fill="#0E0E12" d="M11 82h1v1h-1zM9 83h1v1H9z"/><path fill="#AA2D0F" d="M10 83h1v1h-1z"/><path fill="#0E0E12" d="M11 83h1v1h-1z"/><path fill="#16171B" d="M9 84h1v1H9z"/><path fill="#771F0F" d="M10 84h1v1h-1z"/><path fill="#121216" d="M11 84h1v1h-1zM12 84h1v1h-1zM9 85h1v1H9z"/><path fill="#842511" d="M10 85h1v1h-1z"/><path fill="#121216" d="M11 85h1v1h-1zM12 85h1v1h-1z"/><path fill="#0C0C12" d="M8 86h1v1H8z"/><path fill="#100E14" d="M9 86h1v1H9z"/><path fill="#9F3116" d="M10 86h1v1h-1z"/><path fill="#100E14" d="M11 86h1v1h-1zM12 86h1v1h-1z"/><path fill="#0C0C12" d="M8 87h1v1H8z"/><path fill="#060708" d="M9 87h1v1H9z"/><path fill="#C63F18" d="M10 87h1v1h-1z"/><path fill="#0C0C12" d="M11 87h1v1h-1z"/><path fill="#952A10" d="M12 87h1v1h-1z"/><path fill="#0C0C12" d="M7 88h1v1H7z"/><path fill="#060708" d="M8 88h1v1H8z"/><path fill="#AE3412" d="M9 88h1v1H9z"/><path fill="#D3481F" d="M10 88h1v1h-1z"/><path fill="#BC3B17" d="M11 88h1v1h-1z"/><path fill="#82220E" d="M12 88h1v1h-1z"/><path fill="#67170B" d="M13 88h1v1h-1z"/><path fill="#0C0C12" d="M5 89h1v1H5zM6 89h1v1H6zM7 89h1v1H7z"/><path fill="#952A10" d="M8 89h1v1H8z"/><path fill="#82220E" d="M9 89h1v1H9z"/><path fill="#67170B" d="M10 89h1v1h-1z"/><path fill="#AE3412" d="M11 89h1v1h-1z"/><path fill="#67170B" d="M13 89h1v1h-1zM8 90h1v1H8z"/><path fill="#952A10" d="M10 90h1v1h-1z"/><path fill="#67170B" d="M11 90h1v1h-1zM10 91h1v1h-1zM12 91h1v1h-1zM9 92h1v1H9zM12 92h1v1h-1zM9 93h1v1H9z"/></svg>