<svg xmlns="http://www.w3.org/2000/svg" width="37" height="87" shape-rendering="crispEdges"><path fill="#6F9598" d="M20 0h1v1h-1z"/><path fill="#849799" d="M21 0h1v1h-1zM22 0h1v1h-1z"/><path fill="#5D828E" d="M23 0h1v1h-1z"/><path fill="#6F9598" d="M26 0h1v1h-1z"/><path fill="#383B3D" d="M9 1h1v1H9z"/><path fill="#849799" d="M18 1h1v1h-1z"/><path fill="#6F9598" d="M19 1h1v1h-1z"/><path fill="#3A5263" d="M20 1h1v1h-1zM21 1h1v1h-1zM22 1h1v1h-1z"/><path fill="#4B6774" d="M23 1h1v1h-1z"/><path fill="#537789" d="M24 1h1v1h-1z"/><path fill="#466A82" d="M26 1h1v1h-1z"/><path fill="#6F9598" d="M27 1h1v1h-1z"/><path fill="#849799" d="M17 2h1v1h-1z"/><path fill="#537789" d="M18 2h1v1h-1z"/><path fill="#384B5A" d="M19 2h1v1h-1zM23 2h1v1h-1z"/><path fill="#3A5263" d="M24 2h1v1h-1z"/><path fill="#537789" d="M25 2h1v1h-1z"/><path fill="#466A82" d="M27 2h1v1h-1z"/><path fill="#849799" d="M16 3h1v1h-1z"/><path fill="#49636E" d="M17 3h1v1h-1z"/><path fill="#384B5A" d="M18 3h1v1h-1z"/><path fill="#2D3A42" d="M24 3h1v1h-1z"/><path fill="#597B86" d="M25 3h1v1h-1z"/><path fill="#2D3A42" d="M26 3h1v1h-1z"/><path fill="#3A5263" d="M27 3h1v1h-1z"/><path fill="#27292A" d="M10 4h1v1h-1z"/><path fill="#2B2D2F" d="M11 4h1v1h-1z"/><path fill="#849799" d="M15 4h1v1h-1z"/><path fill="#49636E" d="M16 4h1v1h-1z"/><path fill="#384B5A" d="M17 4h1v1h-1zM25 4h1v1h-1z"/><path fill="#526D74" d="M26 4h1v1h-1z"/><path fill="#3A5263" d="M27 4h1v1h-1z"/><path fill="#383B3D" d="M8 5h1v1H8zM9 5h1v1H9z"/><path fill="#27292A" d="M10 5h1v1h-1z"/><path fill="#27292A" d="M11 5h1v1h-1z" opacity=".549"/><path fill="#2A2D2E" d="M12 5h1v1h-1zM13 5h1v1h-1z" opacity=".408"/><path fill="#849799" d="M14 5h1v1h-1z"/><path fill="#537789" d="M15 5h1v1h-1z"/><path fill="#445C68" d="M16 5h1v1h-1z"/><path fill="#5C6F7B" d="M17 5h1v1h-1z"/><path fill="#849799" d="M18 5h1v1h-1z"/><path fill="#384B5A" d="M25 5h1v1h-1z"/><path fill="#526D74" d="M26 5h1v1h-1z"/><path fill="#3A5263" d="M27 5h1v1h-1z"/><path fill="#27292A" d="M6 6h1v1H6z"/><path fill="#383B3D" d="M7 6h1v1H7z"/><path fill="#292B2C" d="M8 6h1v1H8z"/><path fill="#2A2B2D" d="M9 6h1v1H9z"/><path fill="#27292A" d="M10 6h1v1h-1z" opacity=".549"/><path fill="#292B2C" d="M12 6h1v1h-1z" opacity=".408"/><path fill="#849799" d="M13 6h1v1h-1z"/><path fill="#5D8691" d="M14 6h1v1h-1z"/><path fill="#384B5A" d="M15 6h1v1h-1z"/><path fill="#5C6F7B" d="M16 6h1v1h-1z"/><path fill="#323F4C" d="M25 6h1v1h-1z"/><path fill="#455A64" d="M26 6h1v1h-1z"/><path fill="#466A82" d="M27 6h1v1h-1z"/><path fill="#2A2B2D" d="M6 7h1v1H6z"/><path fill="#252729" d="M7 7h1v1H7zM8 7h1v1H8z"/><path fill="#27292A" d="M9 7h1v1H9z" opacity=".549"/><path fill="#111315" d="M10 7h1v1h-1zM11 7h1v1h-1zM12 7h1v1h-1z"/><path fill="#849799" d="M13 7h1v1h-1z"/><path fill="#344056" d="M14 7h1v1h-1z"/><path fill="#384B5A" d="M15 7h1v1h-1z"/><path fill="#323F4C" d="M25 7h1v1h-1z"/><path fill="#466A82" d="M26 7h1v1h-1z"/><path fill="#2B2D2F" d="M4 8h1v1H4z"/><path fill="#454A4C" d="M5 8h1v1H5z"/><path fill="#2A2B2D" d="M6 8h1v1H6z"/><path fill="#383B3D" d="M7 8h1v1H7z"/><path fill="#292B2C" d="M8 8h1v1H8z" opacity=".549"/><path fill="#111315" d="M9 8h1v1H9zM10 8h1v1h-1zM11 8h1v1h-1z"/><path fill="#849799" d="M12 8h1v1h-1z"/><path fill="#557F8F" d="M13 8h1v1h-1z"/><path fill="#344056" d="M14 8h1v1h-1z"/><path fill="#384B5A" d="M15 8h1v1h-1z"/><path fill="#405E72" d="M24 8h1v1h-1z"/><path fill="#466A82" d="M25 8h1v1h-1z"/><path fill="#2A2B2D" d="M6 9h1v1H6z"/><path fill="#2B2D2F" d="M7 9h1v1H7z"/><path fill="#2A2C2D" d="M8 9h1v1H8z" opacity=".549"/><path fill="#1A1D1E" d="M9 9h1v1H9z"/><path fill="#111315" d="M10 9h1v1h-1zM11 9h1v1h-1z"/><path fill="#6E9597" d="M12 9h1v1h-1z"/><path fill="#344056" d="M13 9h1v1h-1z"/><path fill="#384B5A" d="M14 9h1v1h-1z"/><path fill="#121718" d="M15 9h1v1h-1z"/><path fill="#232526" d="M6 10h1v1H6z"/><path fill="#252729" d="M7 10h1v1H7z"/><path fill="#292B2C" d="M8 10h1v1H8z" opacity=".408"/><path fill="#1A1D1E" d="M9 10h1v1H9z"/><path fill="#171B1D" d="M10 10h1v1h-1z"/><path fill="#849799" d="M11 10h1v1h-1z"/><path fill="#557F8F" d="M12 10h1v1h-1z"/><path fill="#384B5A" d="M13 10h1v1h-1z"/><path fill="#516471" d="M14 10h1v1h-1z"/><path fill="#849799" d="M15 10h1v1h-1z"/><path fill="#232526" d="M0 11h1v1H0z"/><path fill="#383B3D" d="M5 11h1v1H5z"/><path fill="#232526" d="M6 11h1v1H6z"/><path fill="#252729" d="M7 11h1v1H7z" opacity=".741"/><path fill="#292B2C" d="M8 11h1v1H8z" opacity=".408"/><path fill="#27292A" d="M9 11h1v1H9z" opacity=".302"/><path fill="#171B1D" d="M10 11h1v1h-1z"/><path fill="#849799" d="M11 11h1v1h-1z"/><path fill="#30394A" d="M12 11h1v1h-1zM13 11h1v1h-1z"/><path fill="#111213" d="M14 11h1v1h-1z" opacity=".549"/><path fill="#131415" d="M15 11h1v1h-1z" opacity=".655"/><path fill="#383B3D" d="M25 11h1v1h-1z"/><path fill="#232526" d="M5 12h1v1H5z"/><path fill="#2B2D2F" d="M8 12h1v1H8z" opacity=".408"/><path fill="#2C2E2F" d="M9 12h1v1H9z" opacity=".302"/><path fill="#849799" d="M10 12h1v1h-1z"/><path fill="#384B5A" d="M11 12h1v1h-1z"/><path fill="#344056" d="M12 12h1v1h-1z"/><path fill="#384B5A" d="M13 12h1v1h-1z"/><path fill="#111213" d="M14 12h1v1h-1z"/><path fill="#131415" d="M15 12h1v1h-1z" opacity=".655"/><path fill="#222425" d="M21 12h1v1h-1z"/><path fill="#111315" d="M24 12h1v1h-1z"/><path fill="#849799" d="M10 13h1v1h-1z"/><path fill="#557F8F" d="M11 13h1v1h-1z"/><path fill="#2A2F39" d="M12 13h1v1h-1z"/><path fill="#2F3C48" d="M13 13h1v1h-1z"/><path fill="#181F20" d="M21 13h1v1h-1z"/><path fill="#141B1C" d="M22 13h1v1h-1z"/><path fill="#182021" d="M23 13h1v1h-1z"/><path fill="#849799" d="M9 14h1v1H9z"/><path fill="#557F8F" d="M10 14h1v1h-1z"/><path fill="#3B4866" d="M11 14h1v1h-1z"/><path fill="#303A48" d="M12 14h1v1h-1zM13 14h1v1h-1z"/><path fill="#141B1C" d="M21 14h1v1h-1z"/><path fill="#192021" d="M22 14h1v1h-1zM23 14h1v1h-1z"/><path fill="#202122" d="M26 14h1v1h-1z"/><path fill="#111315" d="M1 15h1v1H1z"/><path fill="#111618" d="M2 15h1v1H2z"/><path fill="#849799" d="M9 15h1v1H9z"/><path fill="#557F8F" d="M10 15h1v1h-1z"/><path fill="#323E4E" d="M11 15h1v1h-1z"/><path fill="#2E3540" d="M12 15h1v1h-1z"/><path fill="#151B1D" d="M13 15h1v1h-1z"/><path fill="#181F20" d="M14 15h1v1h-1z"/><path fill="#111315" d="M17 15h1v1h-1z"/><path fill="#121718" d="M18 15h1v1h-1z"/><path fill="#192022" d="M20 15h1v1h-1z"/><path fill="#171E20" d="M21 15h1v1h-1zM22 15h1v1h-1z"/><path fill="#161E1F" d="M23 15h1v1h-1z"/><path fill="#111618" d="M24 15h1v1h-1z"/><path fill="#252728" d="M25 15h1v1h-1z"/><path fill="#383B3D" d="M26 15h1v1h-1z"/><path fill="#111315" d="M1 16h1v1H1z"/><path fill="#6F9598" d="M9 16h1v1H9z"/><path fill="#3E4D6B" d="M10 16h1v1h-1z"/><path fill="#323E4E" d="M11 16h1v1h-1z"/><path fill="#445462" d="M12 16h1v1h-1z"/><path fill="#849799" d="M13 16h1v1h-1z"/><path fill="#181F20" d="M14 16h1v1h-1z"/><path fill="#111618" d="M15 16h1v1h-1zM16 16h1v1h-1zM17 16h1v1h-1z"/><path fill="#111315" d="M18 16h1v1h-1z"/><path fill="#121718" d="M19 16h1v1h-1z"/><path fill="#13191B" d="M20 16h1v1h-1zM21 16h1v1h-1z"/><path fill="#182021" d="M22 16h1v1h-1z"/><path fill="#111618" d="M23 16h1v1h-1zM24 16h1v1h-1z"/><path fill="#383B3D" d="M25 16h1v1h-1z"/><path fill="#849799" d="M8 17h1v1H8z"/><path fill="#5A8290" d="M9 17h1v1H9z"/><path fill="#384B5A" d="M10 17h1v1h-1z"/><path fill="#323E4E" d="M11 17h1v1h-1z"/><path fill="#4D5F6C" d="M12 17h1v1h-1z"/><path fill="#111315" d="M15 17h1v1h-1z"/><path fill="#151B1D" d="M16 17h1v1h-1z"/><path fill="#111315" d="M17 17h1v1h-1zM18 17h1v1h-1zM19 17h1v1h-1z"/><path fill="#182021" d="M20 17h1v1h-1zM21 17h1v1h-1z"/><path fill="#121819" d="M22 17h1v1h-1zM23 17h1v1h-1z"/><path fill="#151D1E" d="M24 17h1v1h-1z"/><path fill="#161D1D" d="M7 18h1v1H7z"/><path fill="#849799" d="M8 18h1v1H8z"/><path fill="#41516E" d="M9 18h1v1H9z"/><path fill="#384B5A" d="M10 18h1v1h-1z"/><path fill="#313F4E" d="M11 18h1v1h-1z"/><path fill="#111315" d="M16 18h1v1h-1z"/><path fill="#151B1D" d="M17 18h1v1h-1z"/><path fill="#151D1E" d="M18 18h1v1h-1z"/><path fill="#111315" d="M20 18h1v1h-1zM21 18h1v1h-1zM22 18h1v1h-1zM23 18h1v1h-1z"/><path fill="#151D1E" d="M24 18h1v1h-1z"/><path fill="#181F20" d="M7 19h1v1H7z"/><path fill="#849799" d="M8 19h1v1H8z"/><path fill="#30394A" d="M9 19h1v1H9zM10 19h1v1h-1z"/><path fill="#384B5A" d="M11 19h1v1h-1z"/><path fill="#1C1E1F" d="M15 19h1v1h-1zM16 19h1v1h-1z"/><path fill="#111315" d="M17 19h1v1h-1zM18 19h1v1h-1z"/><path fill="#151D1E" d="M19 19h1v1h-1zM21 19h1v1h-1zM22 19h1v1h-1z"/><path fill="#111315" d="M23 19h1v1h-1z"/><path fill="#1A2122" d="M7 20h1v1H7z"/><path fill="#384B5A" d="M8 20h1v1H8z"/><path fill="#41516E" d="M9 20h1v1H9z"/><path fill="#3E4D6B" d="M10 20h1v1h-1z"/><path fill="#30394A" d="M11 20h1v1h-1z"/><path fill="#192021" d="M12 20h1v1h-1z"/><path fill="#13191B" d="M13 20h1v1h-1z"/><path fill="#111315" d="M18 20h1v1h-1z"/><path fill="#1C1E1F" d="M19 20h1v1h-1z"/><path fill="#27292A" d="M20 20h1v1h-1z" opacity=".408"/><path fill="#111315" d="M25 20h1v1h-1zM26 20h1v1h-1z"/><path fill="#151D1E" d="M2 21h1v1H2z"/><path fill="#111315" d="M3 21h1v1H3z"/><path fill="#161D1E" d="M7 21h1v1H7z"/><path fill="#5A8290" d="M8 21h1v1H8z"/><path fill="#41516E" d="M9 21h1v1H9z"/><path fill="#303D48" d="M10 21h1v1h-1z"/><path fill="#445462" d="M11 21h1v1h-1z"/><path fill="#849799" d="M12 21h1v1h-1z"/><path fill="#121718" d="M13 21h1v1h-1z"/><path fill="#111315" d="M18 21h1v1h-1z"/><path fill="#252729" d="M19 21h1v1h-1z" opacity=".408"/><path fill="#27292A" d="M20 21h1v1h-1z" opacity=".408"/><path fill="#3E4243" d="M21 21h1v1h-1z"/><path fill="#2A2C2D" d="M22 21h1v1h-1z"/><path fill="#383B3D" d="M24 21h1v1h-1z"/><path fill="#111315" d="M2 22h1v1H2z"/><path fill="#1A1D1E" d="M3 22h1v1H3z"/><path fill="#232526" d="M4 22h1v1H4z" opacity=".549"/><path fill="#849799" d="M7 22h1v1H7z"/><path fill="#41516E" d="M8 22h1v1H8z"/><path fill="#2D3542" d="M9 22h1v1H9z"/><path fill="#2F3B45" d="M10 22h1v1h-1z"/><path fill="#4D5F6C" d="M11 22h1v1h-1z"/><path fill="#111315" d="M12 22h1v1h-1zM13 22h1v1h-1zM17 22h1v1h-1z"/><path fill="#1A1D1E" d="M18 22h1v1h-1z"/><path fill="#292B2C" d="M19 22h1v1h-1zM20 22h1v1h-1z" opacity=".408"/><path fill="#2A2C2E" d="M21 22h1v1h-1z"/><path fill="#383B3D" d="M22 22h1v1h-1zM23 22h1v1h-1zM24 22h1v1h-1z"/><path fill="#202122" d="M3 23h1v1H3z"/><path fill="#85989A" d="M7 23h1v1H7z"/><path fill="#41516E" d="M8 23h1v1H8z"/><path fill="#2D3542" d="M9 23h1v1H9z"/><path fill="#2F3B45" d="M10 23h1v1h-1z"/><path fill="#384B5A" d="M11 23h1v1h-1z"/><path fill="#151B1D" d="M12 23h1v1h-1z"/><path fill="#111315" d="M13 23h1v1h-1zM15 23h1v1h-1zM16 23h1v1h-1z"/><path fill="#15191B" d="M17 23h1v1h-1z"/><path fill="#1A1D1E" d="M18 23h1v1h-1z"/><path fill="#1E2122" d="M19 23h1v1h-1z"/><path fill="#262829" d="M20 23h1v1h-1z"/><path fill="#383B3D" d="M21 23h1v1h-1zM22 23h1v1h-1zM23 23h1v1h-1z"/><path fill="#454A4C" d="M24 23h1v1h-1zM25 23h1v1h-1z"/><path fill="#6F9598" d="M7 24h1v1H7z"/><path fill="#41516E" d="M8 24h1v1H8z"/><path fill="#1D1F2A" d="M9 24h1v1H9z"/><path fill="#2F3A45" d="M10 24h1v1h-1z"/><path fill="#323F4C" d="M11 24h1v1h-1z"/><path fill="#151B1D" d="M12 24h1v1h-1z"/><path fill="#15181A" d="M15 24h1v1h-1z"/><path fill="#15181B" d="M16 24h1v1h-1z"/><path fill="#15181A" d="M17 24h1v1h-1zM18 24h1v1h-1z"/><path fill="#1D1E20" d="M19 24h1v1h-1z"/><path fill="#222425" d="M20 24h1v1h-1z"/><path fill="#252728" d="M21 24h1v1h-1z"/><path fill="#3E4243" d="M22 24h1v1h-1zM23 24h1v1h-1z"/><path fill="#383B3D" d="M24 24h1v1h-1z"/><path fill="#3E4243" d="M25 24h1v1h-1zM26 24h1v1h-1zM30 24h1v1h-1z"/><path fill="#5A8290" d="M7 25h1v1H7z"/><path fill="#1D1F2A" d="M8 25h1v1H8z"/><path fill="#58B999" d="M9 25h1v1H9z"/><path fill="#1D1F2A" d="M10 25h1v1h-1z"/><path fill="#3E4D5B" d="M11 25h1v1h-1z"/><path fill="#121617" d="M15 25h1v1h-1z"/><path fill="#131618" d="M16 25h1v1h-1z"/><path fill="#131819" d="M17 25h1v1h-1z"/><path fill="#191D1E" d="M18 25h1v1h-1z"/><path fill="#1E2021" d="M19 25h1v1h-1z"/><path fill="#1F2122" d="M20 25h1v1h-1z"/><path fill="#1C1E1F" d="M21 25h1v1h-1z"/><path fill="#212324" d="M22 25h1v1h-1z"/><path fill="#383B3D" d="M23 25h1v1h-1zM24 25h1v1h-1zM25 25h1v1h-1z"/><path fill="#5A8290" d="M7 26h1v1H7z"/><path fill="#333E52" d="M8 26h1v1H8z"/><path fill="#1D1F2A" d="M9 26h1v1H9z"/><path fill="#2F3846" d="M10 26h1v1h-1z"/><path fill="#4D5F6C" d="M11 26h1v1h-1z"/><path fill="#849799" d="M12 26h1v1h-1z"/><path fill="#121617" d="M15 26h1v1h-1z"/><path fill="#111315" d="M16 26h1v1h-1zM17 26h1v1h-1zM18 26h1v1h-1z"/><path fill="#202223" d="M19 26h1v1h-1z"/><path fill="#111315" d="M20 26h1v1h-1z"/><path fill="#191D1E" d="M21 26h1v1h-1z"/><path fill="#1A1D1E" d="M22 26h1v1h-1z"/><path fill="#383B3D" d="M23 26h1v1h-1z"/><path fill="#5A8290" d="M7 27h1v1H7z"/><path fill="#344154" d="M8 27h1v1H8z"/><path fill="#323B4A" d="M9 27h1v1H9z"/><path fill="#2E3641" d="M10 27h1v1h-1z"/><path fill="#4D5F6C" d="M11 27h1v1h-1z"/><path fill="#121617" d="M14 27h1v1h-1z"/><path fill="#111315" d="M15 27h1v1h-1zM16 27h1v1h-1z"/><path fill="#151D1E" d="M17 27h1v1h-1z"/><path fill="#13191B" d="M18 27h1v1h-1z"/><path fill="#161E1F" d="M19 27h1v1h-1z"/><path fill="#13191B" d="M20 27h1v1h-1z"/><path fill="#192021" d="M21 27h1v1h-1z"/><path fill="#161E1F" d="M22 27h1v1h-1z"/><path fill="#27292A" d="M25 27h1v1h-1z" opacity=".302"/><path fill="#578190" d="M7 28h1v1H7z"/><path fill="#2B333B" d="M8 28h1v1H8z"/><path fill="#323B4A" d="M9 28h1v1H9z"/><path fill="#2B2F37" d="M10 28h1v1h-1z"/><path fill="#445565" d="M11 28h1v1h-1z"/><path fill="#121617" d="M13 28h1v1h-1z"/><path fill="#111315" d="M14 28h1v1h-1zM15 28h1v1h-1z"/><path fill="#171E20" d="M16 28h1v1h-1z"/><path fill="#1A2123" d="M17 28h1v1h-1z"/><path fill="#181F20" d="M18 28h1v1h-1z"/><path fill="#151B1D" d="M19 28h1v1h-1zM20 28h1v1h-1zM21 28h1v1h-1z"/><path fill="#141B1C" d="M22 28h1v1h-1z"/><path fill="#232526" d="M30 28h1v1h-1z" opacity=".408"/><path fill="#6F9598" d="M6 29h1v1H6z"/><path fill="#3E4D6B" d="M7 29h1v1H7z"/><path fill="#2B333B" d="M8 29h1v1H8z"/><path fill="#1D1F2A" d="M9 29h1v1H9z"/><path fill="#2E3540" d="M10 29h1v1h-1z"/><path fill="#4D6071" d="M11 29h1v1h-1z"/><path fill="#111315" d="M13 29h1v1h-1zM14 29h1v1h-1z"/><path fill="#171E20" d="M15 29h1v1h-1z"/><path fill="#13191B" d="M16 29h1v1h-1z"/><path fill="#151B1D" d="M20 29h1v1h-1z"/><path fill="#6F9598" d="M6 30h1v1H6z"/><path fill="#3E4D6B" d="M7 30h1v1H7z"/><path fill="#1D1F2A" d="M8 30h1v1H8z"/><path fill="#58B999" d="M9 30h1v1H9z"/><path fill="#1D1F2A" d="M10 30h1v1h-1z"/><path fill="#596875" d="M11 30h1v1h-1z"/><path fill="#1C1C1B" d="M12 30h1v1h-1z" opacity=".263"/><path fill="#849799" d="M13 30h1v1h-1z"/><path fill="#171E20" d="M14 30h1v1h-1z"/><path fill="#141B1C" d="M15 30h1v1h-1z"/><path fill="#6F9598" d="M6 31h1v1H6z"/><path fill="#323B4F" d="M7 31h1v1H7z"/><path fill="#1D1F2A" d="M8 31h1v1H8z"/><path fill="#2B735B" d="M9 31h1v1H9z"/><path fill="#1D1F2A" d="M10 31h1v1h-1z"/><path fill="#3F474B" d="M11 31h1v1h-1z"/><path fill="#5C6F7B" d="M12 31h1v1h-1z"/><path fill="#111213" d="M13 31h1v1h-1z"/><path fill="#151B1D" d="M14 31h1v1h-1z"/><path fill="#5A8290" d="M6 32h1v1H6z"/><path fill="#323B4F" d="M7 32h1v1H7z"/><path fill="#2B333B" d="M8 32h1v1H8z"/><path fill="#1D1F2A" d="M9 32h1v1H9z"/><path fill="#25272C" d="M10 32h1v1h-1z"/><path fill="#26292E" d="M11 32h1v1h-1z"/><path fill="#5C6F7B" d="M12 32h1v1h-1z"/><path fill="#151A1C" d="M13 32h1v1h-1zM14 32h1v1h-1z"/><path fill="#5A8290" d="M6 33h1v1H6z"/><path fill="#323B4F" d="M7 33h1v1H7z"/><path fill="#272B31" d="M8 33h1v1H8z"/><path fill="#3A465E" d="M9 33h1v1H9z"/><path fill="#30394A" d="M10 33h1v1h-1zM11 33h1v1h-1z"/><path fill="#4D6071" d="M12 33h1v1h-1z"/><path fill="#151A1C" d="M13 33h1v1h-1zM14 33h1v1h-1z"/><path fill="#527285" d="M6 34h1v1H6z"/><path fill="#333E52" d="M7 34h1v1H7z"/><path fill="#272B31" d="M8 34h1v1H8z"/><path fill="#3A465E" d="M9 34h1v1H9z"/><path fill="#2A2E36" d="M10 34h1v1h-1z"/><path fill="#2B2F37" d="M11 34h1v1h-1z"/><path fill="#344056" d="M12 34h1v1h-1z"/><path fill="#151A1C" d="M13 34h1v1h-1z"/><path fill="#5C6F7B" d="M14 34h1v1h-1z"/><path fill="#4D677E" d="M6 35h1v1H6z"/><path fill="#282D34" d="M7 35h1v1H7z"/><path fill="#272B31" d="M8 35h1v1H8z"/><path fill="#111213" d="M9 35h1v1H9z"/><path fill="#3A465E" d="M10 35h1v1h-1z"/><path fill="#292C33" d="M11 35h1v1h-1z"/><path fill="#26282D" d="M12 35h1v1h-1z"/><path fill="#4D6071" d="M13 35h1v1h-1z"/><path fill="#849799" d="M23 35h1v1h-1z"/><path fill="#4D677E" d="M6 36h1v1H6z"/><path fill="#282D34" d="M7 36h1v1H7z"/><path fill="#242529" d="M8 36h1v1H8z"/><path fill="#111213" d="M9 36h1v1H9z"/><path fill="#3A465E" d="M10 36h1v1h-1z"/><path fill="#292C33" d="M11 36h1v1h-1z"/><path fill="#272A30" d="M12 36h1v1h-1z"/><path fill="#30394A" d="M13 36h1v1h-1z"/><path fill="#5C6F7B" d="M23 36h1v1h-1z"/><path fill="#4D677E" d="M6 37h1v1H6z"/><path fill="#282D34" d="M7 37h1v1H7z"/><path fill="#292C33" d="M8 37h1v1H8z"/><path fill="#171E1F" d="M9 37h1v1H9z"/><path fill="#111213" d="M10 37h1v1h-1z"/><path fill="#3A465E" d="M11 37h1v1h-1z"/><path fill="#30394A" d="M12 37h1v1h-1z"/><path fill="#292F38" d="M13 37h1v1h-1z"/><path fill="#344056" d="M14 37h1v1h-1z"/><path fill="#6F9598" d="M22 37h1v1h-1z"/><path fill="#5C6F7B" d="M23 37h1v1h-1z"/><path fill="#578190" d="M24 37h1v1h-1z"/><path fill="#4D677E" d="M6 38h1v1H6z"/><path fill="#282D34" d="M7 38h1v1H7z"/><path fill="#303947" d="M8 38h1v1H8z"/><path fill="#171E1F" d="M9 38h1v1H9z"/><path fill="#111213" d="M10 38h1v1h-1z"/><path fill="#3A465E" d="M11 38h1v1h-1z"/><path fill="#292C33" d="M12 38h1v1h-1z"/><path fill="#2C313A" d="M13 38h1v1h-1z"/><path fill="#2B2F37" d="M14 38h1v1h-1z"/><path fill="#3A465E" d="M15 38h1v1h-1z"/><path fill="#151A1C" d="M16 38h1v1h-1zM17 38h1v1h-1zM18 38h1v1h-1z"/><path fill="#6F9598" d="M21 38h1v1h-1z"/><path fill="#5C6F7B" d="M22 38h1v1h-1zM23 38h1v1h-1z"/><path fill="#587B89" d="M24 38h1v1h-1z"/><path fill="#111315" d="M27 38h1v1h-1zM28 38h1v1h-1z"/><path fill="#1D1F20" d="M29 38h1v1h-1z"/><path fill="#232526" d="M30 38h1v1h-1z" opacity=".549"/><path fill="#496079" d="M6 39h1v1H6z"/><path fill="#282D34" d="M7 39h1v1H7z"/><path fill="#303947" d="M8 39h1v1H8z"/><path fill="#111315" d="M9 39h1v1H9z"/><path fill="#1A2122" d="M10 39h1v1h-1z"/><path fill="#151B1D" d="M11 39h1v1h-1z"/><path fill="#3A465E" d="M12 39h1v1h-1z"/><path fill="#292F39" d="M13 39h1v1h-1z"/><path fill="#303947" d="M14 39h1v1h-1z"/><path fill="#404F6A" d="M15 39h1v1h-1z"/><path fill="#353E4E" d="M16 39h1v1h-1z"/><path fill="#30394A" d="M17 39h1v1h-1z"/><path fill="#384B5A" d="M18 39h1v1h-1z"/><path fill="#618890" d="M19 39h1v1h-1z"/><path fill="#658C92" d="M20 39h1v1h-1z"/><path fill="#5C6F7B" d="M21 39h1v1h-1z"/><path fill="#363F55" d="M22 39h1v1h-1z"/><path fill="#5C6F7B" d="M23 39h1v1h-1z"/><path fill="#48637D" d="M24 39h1v1h-1z"/><path fill="#111315" d="M26 39h1v1h-1z"/><path fill="#151B1D" d="M27 39h1v1h-1z"/><path fill="#151D1E" d="M28 39h1v1h-1z"/><path fill="#1D1F20" d="M29 39h1v1h-1zM30 39h1v1h-1z"/><path fill="#151B1D" d="M32 39h1v1h-1z"/><path fill="#171E1F" d="M33 39h1v1h-1z"/><path fill="#527285" d="M6 40h1v1H6z"/><path fill="#282D34" d="M7 40h1v1H7z"/><path fill="#242529" d="M8 40h1v1H8z"/><path fill="#3A465E" d="M9 40h1v1H9z"/><path fill="#111315" d="M10 40h1v1h-1zM11 40h1v1h-1z"/><path fill="#151B1D" d="M12 40h1v1h-1z"/><path fill="#3A465E" d="M13 40h1v1h-1z"/><path fill="#343D50" d="M14 40h1v1h-1zM15 40h1v1h-1z"/><path fill="#41516B" d="M16 40h1v1h-1z"/><path fill="#45617A" d="M17 40h1v1h-1z"/><path fill="#30394A" d="M18 40h1v1h-1z"/><path fill="#44647D" d="M19 40h1v1h-1z"/><path fill="#466F85" d="M20 40h1v1h-1z"/><path fill="#2D343F" d="M21 40h1v1h-1z"/><path fill="#2B303A" d="M22 40h1v1h-1z"/><path fill="#2E3540" d="M23 40h1v1h-1z"/><path fill="#465569" d="M24 40h1v1h-1z"/><path fill="#151D1E" d="M25 40h1v1h-1zM26 40h1v1h-1z"/><path fill="#181F21" d="M27 40h1v1h-1z"/><path fill="#111315" d="M28 40h1v1h-1z"/><path fill="#1D2122" d="M29 40h1v1h-1zM30 40h1v1h-1z"/><path fill="#111315" d="M31 40h1v1h-1z"/><path fill="#181F21" d="M32 40h1v1h-1z"/><path fill="#151B1D" d="M33 40h1v1h-1z"/><path fill="#232526" d="M34 40h1v1h-1z" opacity=".549"/><path fill="#282D34" d="M7 41h1v1H7z"/><path fill="#292C33" d="M8 41h1v1H8zM9 41h1v1H9z"/><path fill="#3A465E" d="M10 41h1v1h-1zM11 41h1v1h-1z"/><path fill="#30394A" d="M12 41h1v1h-1z"/><path fill="#212426" d="M13 41h1v1h-1z"/><path fill="#232427" d="M14 41h1v1h-1z"/><path fill="#30394A" d="M15 41h1v1h-1z"/><path fill="#232427" d="M16 41h1v1h-1zM17 41h1v1h-1z"/><path fill="#30394A" d="M18 41h1v1h-1z"/><path fill="#232427" d="M19 41h1v1h-1z"/><path fill="#292F38" d="M20 41h1v1h-1z"/><path fill="#111213" d="M21 41h1v1h-1z"/><path fill="#30394A" d="M22 41h1v1h-1z"/><path fill="#292E36" d="M23 41h1v1h-1z"/><path fill="#4C5C6C" d="M24 41h1v1h-1z"/><path fill="#111213" d="M25 41h1v1h-1z"/><path fill="#171F20" d="M26 41h1v1h-1z"/><path fill="#151D1E" d="M27 41h1v1h-1z"/><path fill="#1D1F20" d="M28 41h1v1h-1z"/><path fill="#151D1E" d="M29 41h1v1h-1zM30 41h1v1h-1zM31 41h1v1h-1z"/><path fill="#1A2123" d="M32 41h1v1h-1z"/><path fill="#1D1F20" d="M33 41h1v1h-1z"/><path fill="#496171" d="M7 42h1v1H7z"/><path fill="#282D34" d="M8 42h1v1H8z"/><path fill="#242529" d="M9 42h1v1H9z"/><path fill="#3A465E" d="M10 42h1v1h-1z"/><path fill="#212426" d="M11 42h1v1h-1z"/><path fill="#2F3B46" d="M12 42h1v1h-1z"/><path fill="#334451" d="M13 42h1v1h-1z"/><path fill="#354958" d="M14 42h1v1h-1z"/><path fill="#354859" d="M15 42h1v1h-1z"/><path fill="#324350" d="M16 42h1v1h-1z"/><path fill="#334253" d="M17 42h1v1h-1z"/><path fill="#24252A" d="M18 42h1v1h-1zM19 42h1v1h-1z"/><path fill="#151A1C" d="M20 42h1v1h-1z"/><path fill="#111213" d="M21 42h1v1h-1zM22 42h1v1h-1z"/><path fill="#30394A" d="M23 42h1v1h-1z"/><path fill="#4C5C6C" d="M24 42h1v1h-1z"/><path fill="#151A1C" d="M25 42h1v1h-1z"/><path fill="#1A2122" d="M26 42h1v1h-1z"/><path fill="#181F21" d="M27 42h1v1h-1z"/><path fill="#151D1E" d="M28 42h1v1h-1zM29 42h1v1h-1zM30 42h1v1h-1zM31 42h1v1h-1z"/><path fill="#192122" d="M32 42h1v1h-1z"/><path fill="#1A2123" d="M33 42h1v1h-1z"/><path fill="#30394A" d="M7 43h1v1H7zM8 43h1v1H8z"/><path fill="#3A465E" d="M9 43h1v1H9z"/><path fill="#232427" d="M10 43h1v1h-1z"/><path fill="#334451" d="M11 43h1v1h-1z"/><path fill="#111315" d="M12 43h1v1h-1z"/><path fill="#111213" d="M13 43h1v1h-1zM14 43h1v1h-1z"/><path fill="#151A1C" d="M15 43h1v1h-1z"/><path fill="#111213" d="M16 43h1v1h-1z"/><path fill="#314453" d="M17 43h1v1h-1z"/><path fill="#232528" d="M18 43h1v1h-1z"/><path fill="#25272C" d="M19 43h1v1h-1z"/><path fill="#111213" d="M20 43h1v1h-1z"/><path fill="#151A1C" d="M21 43h1v1h-1zM22 43h1v1h-1z"/><path fill="#30394A" d="M23 43h1v1h-1zM24 43h1v1h-1z"/><path fill="#192021" d="M25 43h1v1h-1z"/><path fill="#151B1D" d="M26 43h1v1h-1z"/><path fill="#151D1E" d="M27 43h1v1h-1z"/><path fill="#181F21" d="M31 43h1v1h-1z"/><path fill="#151D1E" d="M32 43h1v1h-1zM33 43h1v1h-1z"/><path fill="#232526" d="M34 43h1v1h-1z" opacity=".122"/><path fill="#4A5B70" d="M7 44h1v1H7z"/><path fill="#282D34" d="M8 44h1v1H8z"/><path fill="#262A30" d="M9 44h1v1H9z"/><path fill="#334451" d="M10 44h1v1h-1z"/><path fill="#111315" d="M12 44h1v1h-1z"/><path fill="#151B1D" d="M13 44h1v1h-1z"/><path fill="#151A1C" d="M14 44h1v1h-1z"/><path fill="#111213" d="M15 44h1v1h-1zM16 44h1v1h-1zM17 44h1v1h-1z"/><path fill="#334253" d="M18 44h1v1h-1z"/><path fill="#25272C" d="M19 44h1v1h-1z"/><path fill="#30394A" d="M20 44h1v1h-1z"/><path fill="#111213" d="M21 44h1v1h-1z"/><path fill="#30394A" d="M22 44h1v1h-1z"/><path fill="#262A2E" d="M23 44h1v1h-1z"/><path fill="#435164" d="M24 44h1v1h-1z"/><path fill="#151A1C" d="M25 44h1v1h-1z"/><path fill="#192122" d="M32 44h1v1h-1z"/><path fill="#151D1E" d="M33 44h1v1h-1z"/><path fill="#151A1B" d="M34 44h1v1h-1z"/><path fill="#4C5C6C" d="M8 45h1v1H8z"/><path fill="#282D34" d="M9 45h1v1H9z"/><path fill="#30394A" d="M19 45h1v1h-1z"/><path fill="#25272C" d="M20 45h1v1h-1z"/><path fill="#30394A" d="M21 45h1v1h-1z"/><path fill="#26292E" d="M22 45h1v1h-1z"/><path fill="#344056" d="M23 45h1v1h-1z"/><path fill="#171C1D" d="M33 45h1v1h-1z"/><path fill="#121718" d="M34 45h1v1h-1z"/><path fill="#4C5C6C" d="M8 46h1v1H8z"/><path fill="#282D34" d="M9 46h1v1H9z"/><path fill="#30394A" d="M19 46h1v1h-1z"/><path fill="#25272C" d="M20 46h1v1h-1z"/><path fill="#30394A" d="M21 46h1v1h-1z"/><path fill="#26292E" d="M22 46h1v1h-1z"/><path fill="#344056" d="M23 46h1v1h-1z"/><path fill="#171B1D" d="M32 46h1v1h-1z"/><path fill="#111315" d="M33 46h1v1h-1z"/><path fill="#151B1D" d="M34 46h1v1h-1z"/><path fill="#506274" d="M9 47h1v1H9z"/><path fill="#141B1C" d="M15 47h1v1h-1z"/><path fill="#30394A" d="M19 47h1v1h-1zM20 47h1v1h-1z"/><path fill="#262A2E" d="M21 47h1v1h-1z"/><path fill="#272B31" d="M22 47h1v1h-1z"/><path fill="#344056" d="M23 47h1v1h-1z"/><path fill="#27292A" d="M32 47h1v1h-1z" opacity=".302"/><path fill="#121718" d="M33 47h1v1h-1z"/><path fill="#151C1D" d="M34 47h1v1h-1z"/><path fill="#364658" d="M19 48h1v1h-1z"/><path fill="#25272C" d="M20 48h1v1h-1z"/><path fill="#25282C" d="M21 48h1v1h-1z"/><path fill="#394C62" d="M22 48h1v1h-1z"/><path fill="#191D1E" d="M32 48h1v1h-1z"/><path fill="#141B1C" d="M33 48h1v1h-1z"/><path fill="#181E20" d="M34 48h1v1h-1z"/><path fill="#364658" d="M19 49h1v1h-1z"/><path fill="#262A30" d="M20 49h1v1h-1z"/><path fill="#25282C" d="M21 49h1v1h-1z"/><path fill="#394C62" d="M22 49h1v1h-1z"/><path fill="#121718" d="M31 49h1v1h-1z"/><path fill="#171C1D" d="M32 49h1v1h-1z"/><path fill="#151B1D" d="M33 49h1v1h-1z"/><path fill="#181F20" d="M34 49h1v1h-1z"/><path fill="#232526" d="M36 49h1v1h-1z" opacity=".165"/><path fill="#30394A" d="M19 50h1v1h-1z"/><path fill="#2C3239" d="M20 50h1v1h-1z"/><path fill="#232528" d="M21 50h1v1h-1z"/><path fill="#445F78" d="M22 50h1v1h-1z"/><path fill="#13191B" d="M27 50h1v1h-1zM30 50h1v1h-1z"/><path fill="#1B1E20" d="M31 50h1v1h-1z"/><path fill="#191E1E" d="M32 50h1v1h-1z"/><path fill="#181F20" d="M34 50h1v1h-1z"/><path fill="#4A7285" d="M19 51h1v1h-1z"/><path fill="#30394A" d="M20 51h1v1h-1zM21 51h1v1h-1zM22 51h1v1h-1z"/><path fill="#111315" d="M23 51h1v1h-1z"/><path fill="#121718" d="M25 51h1v1h-1zM26 51h1v1h-1z"/><path fill="#181F20" d="M27 51h1v1h-1z"/><path fill="#1B2123" d="M28 51h1v1h-1zM29 51h1v1h-1z"/><path fill="#151B1D" d="M30 51h1v1h-1z"/><path fill="#383B3D" d="M31 51h1v1h-1zM32 51h1v1h-1z"/><path fill="#4A7285" d="M19 52h1v1h-1z"/><path fill="#2A2E37" d="M20 52h1v1h-1z"/><path fill="#232427" d="M21 52h1v1h-1z"/><path fill="#3F5A6F" d="M22 52h1v1h-1z"/><path fill="#1F2020" d="M23 52h1v1h-1z" opacity=".357"/><path fill="#121718" d="M24 52h1v1h-1zM25 52h1v1h-1zM26 52h1v1h-1z"/><path fill="#232526" d="M27 52h1v1h-1z" opacity=".549"/><path fill="#252729" d="M28 52h1v1h-1z"/><path fill="#383B3D" d="M29 52h1v1h-1zM30 52h1v1h-1z"/><path fill="#27292A" d="M31 52h1v1h-1z" opacity=".741"/><path fill="#232526" d="M17 53h1v1h-1z"/><path fill="#516677" d="M18 53h1v1h-1z"/><path fill="#3B5260" d="M19 53h1v1h-1z"/><path fill="#2A2E37" d="M20 53h1v1h-1z"/><path fill="#3F5A6F" d="M21 53h1v1h-1z"/><path fill="#111315" d="M24 53h1v1h-1z"/><path fill="#121718" d="M25 53h1v1h-1zM26 53h1v1h-1z"/><path fill="#252729" d="M27 53h1v1h-1z" opacity=".549"/><path fill="#252729" d="M28 53h1v1h-1zM29 53h1v1h-1z"/><path fill="#383B3D" d="M30 53h1v1h-1z"/><path fill="#232526" d="M31 53h1v1h-1z"/><path fill="#383B3D" d="M32 53h1v1h-1z"/><path fill="#121718" d="M33 53h1v1h-1z"/><path fill="#232526" d="M15 54h1v1h-1zM16 54h1v1h-1z"/><path fill="#1D1E1F" d="M17 54h1v1h-1z"/><path fill="#4C7A8A" d="M18 54h1v1h-1z"/><path fill="#3B5260" d="M19 54h1v1h-1z"/><path fill="#2C313D" d="M20 54h1v1h-1z"/><path fill="#3F5A6F" d="M21 54h1v1h-1z"/><path fill="#111315" d="M22 54h1v1h-1z"/><path fill="#111313" d="M23 54h1v1h-1z"/><path fill="#212222" d="M24 54h1v1h-1z" opacity=".404"/><path fill="#222325" d="M25 54h1v1h-1zM26 54h1v1h-1z" opacity=".545"/><path fill="#141B1C" d="M27 54h1v1h-1z"/><path fill="#232526" d="M32 54h1v1h-1z"/><path fill="#383B3D" d="M33 54h1v1h-1z"/><path fill="#13191B" d="M34 54h1v1h-1z"/><path fill="#1C1F20" d="M10 55h1v1h-1z"/><path fill="#121718" d="M14 55h1v1h-1z"/><path fill="#13191B" d="M15 55h1v1h-1z"/><path fill="#121718" d="M16 55h1v1h-1z"/><path fill="#151B1D" d="M17 55h1v1h-1z"/><path fill="#4C7A8A" d="M18 55h1v1h-1z"/><path fill="#3A4D5D" d="M19 55h1v1h-1z"/><path fill="#25272C" d="M20 55h1v1h-1z"/><path fill="#344056" d="M21 55h1v1h-1z"/><path fill="#171E1F" d="M22 55h1v1h-1z"/><path fill="#111313" d="M23 55h1v1h-1z"/><path fill="#202222" d="M24 55h1v1h-1z" opacity=".545"/><path fill="#222426" d="M25 55h1v1h-1z" opacity=".733"/><path fill="#454A4C" d="M30 55h1v1h-1z"/><path fill="#383B3D" d="M33 55h1v1h-1z"/><path fill="#13191B" d="M34 55h1v1h-1z"/><path fill="#141B1C" d="M35 55h1v1h-1z"/><path fill="#1B2224" d="M14 56h1v1h-1z"/><path fill="#181F20" d="M15 56h1v1h-1z"/><path fill="#13191B" d="M16 56h1v1h-1z"/><path fill="#151C1D" d="M17 56h1v1h-1z"/><path fill="#4C7A8A" d="M18 56h1v1h-1z"/><path fill="#394558" d="M19 56h1v1h-1z"/><path fill="#25272C" d="M20 56h1v1h-1z"/><path fill="#344056" d="M21 56h1v1h-1z"/><path fill="#111213" d="M22 56h1v1h-1z"/><path fill="#151A1C" d="M23 56h1v1h-1z"/><path fill="#13191B" d="M24 56h1v1h-1z"/><path fill="#111315" d="M33 56h1v1h-1z"/><path fill="#121718" d="M34 56h1v1h-1z"/><path fill="#13191B" d="M35 56h1v1h-1z"/><path fill="#141B1C" d="M14 57h1v1h-1zM15 57h1v1h-1zM16 57h1v1h-1z"/><path fill="#13191B" d="M17 57h1v1h-1z"/><path fill="#4C7A8A" d="M18 57h1v1h-1z"/><path fill="#25272C" d="M19 57h1v1h-1zM20 57h1v1h-1z"/><path fill="#344056" d="M21 57h1v1h-1z"/><path fill="#111213" d="M22 57h1v1h-1z"/><path fill="#121718" d="M23 57h1v1h-1z"/><path fill="#111315" d="M24 57h1v1h-1z"/><path fill="#121718" d="M25 57h1v1h-1z"/><path fill="#141B1C" d="M26 57h1v1h-1zM27 57h1v1h-1z"/><path fill="#252729" d="M28 57h1v1h-1zM29 57h1v1h-1z"/><path fill="#383B3D" d="M30 57h1v1h-1z"/><path fill="#111315" d="M33 57h1v1h-1z"/><path fill="#13191B" d="M14 58h1v1h-1zM15 58h1v1h-1z"/><path fill="#466C7E" d="M17 58h1v1h-1z"/><path fill="#344750" d="M18 58h1v1h-1z"/><path fill="#30394A" d="M19 58h1v1h-1z"/><path fill="#25272C" d="M20 58h1v1h-1z"/><path fill="#344056" d="M21 58h1v1h-1z"/><path fill="#1F2020" d="M22 58h1v1h-1z" opacity=".404"/><path fill="#13191B" d="M23 58h1v1h-1zM24 58h1v1h-1z"/><path fill="#1B2223" d="M25 58h1v1h-1z"/><path fill="#111315" d="M26 58h1v1h-1z"/><path fill="#141B1C" d="M27 58h1v1h-1z"/><path fill="#121718" d="M28 58h1v1h-1z"/><path fill="#292B2C" d="M29 58h1v1h-1z"/><path fill="#454A4C" d="M30 58h1v1h-1zM31 58h1v1h-1z"/><path fill="#141B1C" d="M11 59h1v1h-1z"/><path fill="#1A2122" d="M12 59h1v1h-1z"/><path fill="#161D1E" d="M13 59h1v1h-1z"/><path fill="#111315" d="M14 59h1v1h-1z"/><path fill="#121718" d="M15 59h1v1h-1z"/><path fill="#486E80" d="M17 59h1v1h-1z"/><path fill="#2E3740" d="M18 59h1v1h-1z"/><path fill="#222528" d="M19 59h1v1h-1z"/><path fill="#30394A" d="M20 59h1v1h-1z"/><path fill="#303747" d="M21 59h1v1h-1z"/><path fill="#151C1D" d="M23 59h1v1h-1zM24 59h1v1h-1z"/><path fill="#121718" d="M25 59h1v1h-1z"/><path fill="#181F20" d="M26 59h1v1h-1z"/><path fill="#1D2325" d="M27 59h1v1h-1z"/><path fill="#151B1D" d="M28 59h1v1h-1z"/><path fill="#2A2B2D" d="M29 59h1v1h-1z"/><path fill="#2B2E2F" d="M30 59h1v1h-1z"/><path fill="#454A4C" d="M31 59h1v1h-1z"/><path fill="#121718" d="M10 60h1v1h-1zM11 60h1v1h-1zM12 60h1v1h-1z"/><path fill="#13191B" d="M13 60h1v1h-1z"/><path fill="#121718" d="M14 60h1v1h-1z"/><path fill="#3F586C" d="M16 60h1v1h-1z"/><path fill="#384958" d="M17 60h1v1h-1z"/><path fill="#25272C" d="M18 60h1v1h-1z"/><path fill="#212426" d="M19 60h1v1h-1zM20 60h1v1h-1z"/><path fill="#344056" d="M21 60h1v1h-1z"/><path fill="#151B1D" d="M25 60h1v1h-1z"/><path fill="#121718" d="M26 60h1v1h-1z"/><path fill="#151C1D" d="M27 60h1v1h-1z"/><path fill="#13191B" d="M28 60h1v1h-1z"/><path fill="#383B3D" d="M29 60h1v1h-1z"/><path fill="#2B2D2F" d="M30 60h1v1h-1z"/><path fill="#192022" d="M11 61h1v1h-1z"/><path fill="#13191B" d="M12 61h1v1h-1z"/><path fill="#3A525F" d="M16 61h1v1h-1z"/><path fill="#374A56" d="M17 61h1v1h-1z"/><path fill="#222528" d="M18 61h1v1h-1z"/><path fill="#212426" d="M19 61h1v1h-1zM20 61h1v1h-1z"/><path fill="#25272C" d="M21 61h1v1h-1z"/><path fill="#344056" d="M22 61h1v1h-1z"/><path fill="#151C1D" d="M25 61h1v1h-1z"/><path fill="#111315" d="M26 61h1v1h-1z"/><path fill="#121718" d="M27 61h1v1h-1z"/><path fill="#27292A" d="M28 61h1v1h-1z"/><path fill="#252729" d="M29 61h1v1h-1z"/><path fill="#13191B" d="M11 62h1v1h-1z"/><path fill="#446577" d="M15 62h1v1h-1z"/><path fill="#34434E" d="M16 62h1v1h-1z"/><path fill="#33414C" d="M17 62h1v1h-1z"/><path fill="#212426" d="M18 62h1v1h-1z"/><path fill="#9A623C" d="M19 62h1v1h-1z"/><path fill="#844E2E" d="M20 62h1v1h-1zM21 62h1v1h-1z"/><path fill="#344056" d="M22 62h1v1h-1z"/><path fill="#141B1C" d="M25 62h1v1h-1z"/><path fill="#111315" d="M26 62h1v1h-1z"/><path fill="#252729" d="M27 62h1v1h-1z"/><path fill="#111315" d="M28 62h1v1h-1z"/><path fill="#121718" d="M9 63h1v1H9z"/><path fill="#1B2123" d="M10 63h1v1h-1z"/><path fill="#121718" d="M11 63h1v1h-1z"/><path fill="#456278" d="M14 63h1v1h-1z"/><path fill="#4B7586" d="M15 63h1v1h-1z"/><path fill="#3A4D5D" d="M16 63h1v1h-1z"/><path fill="#212426" d="M17 63h1v1h-1z"/><path fill="#BD8158" d="M18 63h1v1h-1z"/><path fill="#4E2410" d="M19 63h1v1h-1z"/><path fill="#6C4329" d="M20 63h1v1h-1z"/><path fill="#321608" d="M21 63h1v1h-1z"/><path fill="#844E2E" d="M22 63h1v1h-1z"/><path fill="#1B1E1F" d="M26 63h1v1h-1z"/><path fill="#111315" d="M27 63h1v1h-1zM28 63h1v1h-1z"/><path fill="#121718" d="M29 63h1v1h-1z"/><path fill="#111618" d="M8 64h1v1H8z"/><path fill="#BD8158" d="M9 64h1v1H9z"/><path fill="#744226" d="M10 64h1v1h-1z"/><path fill="#582F19" d="M11 64h1v1h-1z"/><path fill="#466F7E" d="M13 64h1v1h-1z"/><path fill="#46687B" d="M14 64h1v1h-1z"/><path fill="#3B5160" d="M15 64h1v1h-1z"/><path fill="#9A623C" d="M16 64h1v1h-1z"/><path fill="#542F19" d="M17 64h1v1h-1z"/><path fill="#633E26" d="M18 64h1v1h-1z"/><path fill="#321608" d="M19 64h1v1h-1z"/><path fill="#326C4A" d="M20 64h1v1h-1z"/><path fill="#321608" d="M21 64h1v1h-1z"/><path fill="#744226" d="M22 64h1v1h-1z"/><path fill="#121718" d="M26 64h1v1h-1zM27 64h1v1h-1z"/><path fill="#111315" d="M28 64h1v1h-1z"/><path fill="#121718" d="M29 64h1v1h-1z"/><path fill="#13191B" d="M30 64h1v1h-1z"/><path fill="#181F21" d="M31 64h1v1h-1z"/><path fill="#13191B" d="M32 64h1v1h-1z"/><path fill="#151B1D" d="M33 64h1v1h-1z"/><path fill="#182021" d="M34 64h1v1h-1z"/><path fill="#383B3D" d="M6 65h1v1H6zM7 65h1v1H7z"/><path fill="#BD8158" d="M8 65h1v1H8z"/><path fill="#744226" d="M9 65h1v1H9z"/><path fill="#502513" d="M10 65h1v1h-1z"/><path fill="#441F0F" d="M11 65h1v1h-1z"/><path fill="#744226" d="M12 65h1v1h-1z"/><path fill="#482512" d="M13 65h1v1h-1z"/><path fill="#BD8158" d="M14 65h1v1h-1z"/><path fill="#9A623C" d="M15 65h1v1h-1z"/><path fill="#4B2311" d="M16 65h1v1h-1z"/><path fill="#2A1408" d="M17 65h1v1h-1z"/><path fill="#452A1A" d="M18 65h1v1h-1z"/><path fill="#321608" d="M19 65h1v1h-1z"/><path fill="#23130B" d="M20 65h1v1h-1z"/><path fill="#744226" d="M21 65h1v1h-1z"/><path fill="#121718" d="M26 65h1v1h-1zM27 65h1v1h-1z"/><path fill="#111315" d="M28 65h1v1h-1z"/><path fill="#121718" d="M29 65h1v1h-1zM30 65h1v1h-1z"/><path fill="#13191B" d="M31 65h1v1h-1z"/><path fill="#121718" d="M32 65h1v1h-1z"/><path fill="#13191B" d="M33 65h1v1h-1z"/><path fill="#161D1D" d="M34 65h1v1h-1zM35 65h1v1h-1z"/><path fill="#383B3D" d="M7 66h1v1H7z"/><path fill="#744226" d="M8 66h1v1H8z"/><path fill="#9A623C" d="M9 66h1v1H9z"/><path fill="#744226" d="M10 66h1v1h-1z"/><path fill="#321608" d="M11 66h1v1h-1z"/><path fill="#371A0B" d="M12 66h1v1h-1z"/><path fill="#482512" d="M13 66h1v1h-1z"/><path fill="#321608" d="M14 66h1v1h-1zM15 66h1v1h-1zM16 66h1v1h-1z"/><path fill="#2F190E" d="M17 66h1v1h-1z"/><path fill="#251308" d="M18 66h1v1h-1z"/><path fill="#382114" d="M19 66h1v1h-1z"/><path fill="#27140B" d="M20 66h1v1h-1z"/><path fill="#33190C" d="M21 66h1v1h-1z"/><path fill="#562C14" d="M22 66h1v1h-1z"/><path fill="#232526" d="M25 66h1v1h-1z" opacity=".224"/><path fill="#121718" d="M26 66h1v1h-1z"/><path fill="#111315" d="M27 66h1v1h-1z"/><path fill="#121718" d="M28 66h1v1h-1zM29 66h1v1h-1zM30 66h1v1h-1zM31 66h1v1h-1z"/><path fill="#161C1D" d="M35 66h1v1h-1z"/><path fill="#454A4C" d="M7 67h1v1H7z"/><path fill="#9A623C" d="M8 67h1v1H8z"/><path fill="#326C4A" d="M9 67h1v1H9z"/><path fill="#431F0D" d="M10 67h1v1h-1z"/><path fill="#582F19" d="M11 67h1v1h-1z"/><path fill="#36190A" d="M12 67h1v1h-1z"/><path fill="#5C341E" d="M13 67h1v1h-1zM14 67h1v1h-1z"/><path fill="#482512" d="M15 67h1v1h-1z"/><path fill="#3A1C0C" d="M16 67h1v1h-1z"/><path fill="#2A1408" d="M17 67h1v1h-1z"/><path fill="#2A160C" d="M18 67h1v1h-1z"/><path fill="#27140B" d="M19 67h1v1h-1z"/><path fill="#28150C" d="M20 67h1v1h-1z"/><path fill="#251308" d="M21 67h1v1h-1z"/><path fill="#2A1408" d="M22 67h1v1h-1z"/><path fill="#562C14" d="M23 67h1v1h-1z"/><path fill="#232526" d="M25 67h1v1h-1z" opacity=".165"/><path fill="#121718" d="M26 67h1v1h-1zM27 67h1v1h-1z"/><path fill="#171E20" d="M28 67h1v1h-1z"/><path fill="#13191B" d="M29 67h1v1h-1z"/><path fill="#1B2123" d="M35 67h1v1h-1z"/><path fill="#141B1C" d="M36 67h1v1h-1z"/><path fill="#321608" d="M8 68h1v1H8z"/><path fill="#285136" d="M9 68h1v1H9z"/><path fill="#101F16" d="M10 68h1v1h-1z"/><path fill="#321608" d="M11 68h1v1h-1z"/><path fill="#27292A" d="M12 68h1v1h-1z"/><path fill="#744226" d="M16 68h1v1h-1z"/><path fill="#36180A" d="M17 68h1v1h-1z"/><path fill="#2B1509" d="M18 68h1v1h-1z"/><path fill="#23120A" d="M19 68h1v1h-1z"/><path fill="#221208" d="M20 68h1v1h-1z"/><path fill="#2A1408" d="M21 68h1v1h-1z"/><path fill="#3B1C0C" d="M22 68h1v1h-1z"/><path fill="#482513" d="M23 68h1v1h-1z"/><path fill="#714127" d="M24 68h1v1h-1zM25 68h1v1h-1z"/><path fill="#111315" d="M26 68h1v1h-1z"/><path fill="#13191B" d="M27 68h1v1h-1z"/><path fill="#121718" d="M28 68h1v1h-1z"/><path fill="#13191B" d="M29 68h1v1h-1z"/><path fill="#1A2122" d="M35 68h1v1h-1z"/><path fill="#1D2021" d="M36 68h1v1h-1z"/><path fill="#232526" d="M7 69h1v1H7z"/><path fill="#321608" d="M9 69h1v1H9zM10 69h1v1h-1z"/><path fill="#3E1E0E" d="M17 69h1v1h-1z"/><path fill="#381A0B" d="M18 69h1v1h-1z"/><path fill="#321608" d="M19 69h1v1h-1zM20 69h1v1h-1zM21 69h1v1h-1z"/><path fill="#452513" d="M22 69h1v1h-1z"/><path fill="#321608" d="M23 69h1v1h-1zM24 69h1v1h-1z"/><path fill="#4F2915" d="M25 69h1v1h-1z"/><path fill="#64361E" d="M26 69h1v1h-1z"/><path fill="#121718" d="M27 69h1v1h-1zM28 69h1v1h-1zM29 69h1v1h-1z"/><path fill="#13191B" d="M34 69h1v1h-1z"/><path fill="#121718" d="M35 69h1v1h-1z"/><path fill="#1D1F20" d="M36 69h1v1h-1z"/><path fill="#1D3728" d="M17 70h1v1h-1z"/><path fill="#101F16" d="M18 70h1v1h-1z"/><path fill="#14291C" d="M19 70h1v1h-1zM20 70h1v1h-1z"/><path fill="#101F16" d="M21 70h1v1h-1z"/><path fill="#111315" d="M23 70h1v1h-1z"/><path fill="#452513" d="M24 70h1v1h-1z"/><path fill="#321608" d="M25 70h1v1h-1z"/><path fill="#714127" d="M26 70h1v1h-1z"/><path fill="#111315" d="M27 70h1v1h-1z"/><path fill="#121718" d="M28 70h1v1h-1z"/><path fill="#111315" d="M33 70h1v1h-1zM34 70h1v1h-1z"/><path fill="#1D1F20" d="M35 70h1v1h-1z"/><path fill="#232526" d="M9 71h1v1H9z"/><path fill="#2A563C" d="M17 71h1v1h-1z"/><path fill="#15271C" d="M18 71h1v1h-1z"/><path fill="#182F21" d="M19 71h1v1h-1z"/><path fill="#1B3625" d="M20 71h1v1h-1z"/><path fill="#111213" d="M22 71h1v1h-1z"/><path fill="#111315" d="M23 71h1v1h-1z"/><path fill="#431F0D" d="M24 71h1v1h-1z"/><path fill="#321608" d="M25 71h1v1h-1z"/><path fill="#562F1A" d="M26 71h1v1h-1z"/><path fill="#111315" d="M27 71h1v1h-1zM28 71h1v1h-1z"/><path fill="#15191B" d="M29 71h1v1h-1z"/><path fill="#1A1D1E" d="M30 71h1v1h-1z"/><path fill="#111213" d="M16 72h1v1h-1z"/><path fill="#306546" d="M17 72h1v1h-1z"/><path fill="#1D3728" d="M18 72h1v1h-1z"/><path fill="#15271C" d="M19 72h1v1h-1z"/><path fill="#112218" d="M20 72h1v1h-1z"/><path fill="#111213" d="M21 72h1v1h-1zM22 72h1v1h-1z"/><path fill="#111315" d="M23 72h1v1h-1z"/><path fill="#151B1D" d="M24 72h1v1h-1z"/><path fill="#391C0C" d="M25 72h1v1h-1z"/><path fill="#472513" d="M26 72h1v1h-1z"/><path fill="#111315" d="M27 72h1v1h-1zM28 72h1v1h-1zM29 72h1v1h-1zM30 72h1v1h-1z"/><path fill="#383B3D" d="M31 72h1v1h-1z"/><path fill="#151A1C" d="M16 73h1v1h-1z"/><path fill="#1B2E22" d="M17 73h1v1h-1z"/><path fill="#101F16" d="M18 73h1v1h-1zM19 73h1v1h-1z"/><path fill="#285136" d="M20 73h1v1h-1z"/><path fill="#111213" d="M21 73h1v1h-1zM22 73h1v1h-1z"/><path fill="#151B1D" d="M23 73h1v1h-1z"/><path fill="#111315" d="M24 73h1v1h-1z"/><path fill="#60361F" d="M25 73h1v1h-1z"/><path fill="#321608" d="M26 73h1v1h-1z"/><path fill="#714127" d="M27 73h1v1h-1z"/><path fill="#111315" d="M28 73h1v1h-1zM29 73h1v1h-1z"/><path fill="#181C1D" d="M30 73h1v1h-1z"/><path fill="#252729" d="M31 73h1v1h-1z"/><path fill="#383B3D" d="M32 73h1v1h-1z"/><path fill="#313435" d="M9 74h1v1H9z"/><path fill="#111315" d="M13 74h1v1h-1z"/><path fill="#111213" d="M14 74h1v1h-1z"/><path fill="#151A1C" d="M15 74h1v1h-1z"/><path fill="#111213" d="M16 74h1v1h-1z"/><path fill="#326C4A" d="M17 74h1v1h-1z"/><path fill="#1A2F23" d="M18 74h1v1h-1z"/><path fill="#1F3D2C" d="M19 74h1v1h-1z"/><path fill="#285136" d="M20 74h1v1h-1z"/><path fill="#151A1C" d="M21 74h1v1h-1zM22 74h1v1h-1z"/><path fill="#111315" d="M23 74h1v1h-1zM24 74h1v1h-1zM25 74h1v1h-1z"/><path fill="#3D1F0F" d="M26 74h1v1h-1z"/><path fill="#64361E" d="M27 74h1v1h-1z"/><path fill="#111315" d="M28 74h1v1h-1z"/><path fill="#131819" d="M29 74h1v1h-1z"/><path fill="#15181A" d="M30 74h1v1h-1z"/><path fill="#252729" d="M31 74h1v1h-1z" opacity=".549"/><path fill="#313435" d="M8 75h1v1H8z"/><path fill="#111315" d="M9 75h1v1H9z"/><path fill="#1A1D1E" d="M12 75h1v1h-1z"/><path fill="#1D1F20" d="M13 75h1v1h-1z"/><path fill="#111213" d="M14 75h1v1h-1z"/><path fill="#151A1C" d="M15 75h1v1h-1z"/><path fill="#111213" d="M16 75h1v1h-1z"/><path fill="#2C5A3F" d="M17 75h1v1h-1z"/><path fill="#1A2F23" d="M18 75h1v1h-1z"/><path fill="#1D3728" d="M19 75h1v1h-1z"/><path fill="#285136" d="M20 75h1v1h-1z"/><path fill="#111313" d="M21 75h1v1h-1z"/><path fill="#151B1D" d="M22 75h1v1h-1z"/><path fill="#192021" d="M23 75h1v1h-1z"/><path fill="#171E1F" d="M24 75h1v1h-1z"/><path fill="#111315" d="M25 75h1v1h-1z"/><path fill="#60361F" d="M26 75h1v1h-1z"/><path fill="#381A0A" d="M27 75h1v1h-1z"/><path fill="#64361E" d="M28 75h1v1h-1z"/><path fill="#252729" d="M29 75h1v1h-1zM30 75h1v1h-1z" opacity=".165"/><path fill="#232526" d="M31 75h1v1h-1z" opacity=".302"/><path fill="#1D2325" d="M13 76h1v1h-1z"/><path fill="#151C1D" d="M14 76h1v1h-1z"/><path fill="#1D2325" d="M15 76h1v1h-1zM16 76h1v1h-1z"/><path fill="#306546" d="M17 76h1v1h-1zM18 76h1v1h-1z"/><path fill="#285136" d="M19 76h1v1h-1z"/><path fill="#101F16" d="M20 76h1v1h-1zM21 76h1v1h-1z"/><path fill="#111315" d="M22 76h1v1h-1zM23 76h1v1h-1zM24 76h1v1h-1z"/><path fill="#151B1D" d="M25 76h1v1h-1z"/><path fill="#431F0D" d="M27 76h1v1h-1zM28 76h1v1h-1z"/><path fill="#64361E" d="M29 76h1v1h-1z"/><path fill="#252729" d="M30 76h1v1h-1z" opacity=".224"/><path fill="#232526" d="M33 76h1v1h-1z"/><path fill="#1D2325" d="M13 77h1v1h-1z"/><path fill="#111315" d="M14 77h1v1h-1zM15 77h1v1h-1z"/><path fill="#141B1C" d="M16 77h1v1h-1z"/><path fill="#1B2E22" d="M17 77h1v1h-1zM18 77h1v1h-1z"/><path fill="#101F16" d="M19 77h1v1h-1z"/><path fill="#1A2F23" d="M20 77h1v1h-1z"/><path fill="#285136" d="M21 77h1v1h-1z"/><path fill="#111315" d="M23 77h1v1h-1zM24 77h1v1h-1z"/><path fill="#512914" d="M27 77h1v1h-1zM28 77h1v1h-1z"/><path fill="#714127" d="M29 77h1v1h-1z"/><path fill="#1D2325" d="M12 78h1v1h-1z"/><path fill="#141B1C" d="M13 78h1v1h-1z"/><path fill="#111315" d="M14 78h1v1h-1z"/><path fill="#151C1D" d="M15 78h1v1h-1z"/><path fill="#326C4A" d="M17 78h1v1h-1zM18 78h1v1h-1z"/><path fill="#1A2F23" d="M19 78h1v1h-1z"/><path fill="#1D3728" d="M20 78h1v1h-1z"/><path fill="#285136" d="M21 78h1v1h-1z"/><path fill="#431F0D" d="M27 78h1v1h-1zM28 78h1v1h-1z"/><path fill="#714127" d="M29 78h1v1h-1z"/><path fill="#111315" d="M12 79h1v1h-1z"/><path fill="#1D2325" d="M13 79h1v1h-1zM14 79h1v1h-1z"/><path fill="#141B1C" d="M15 79h1v1h-1z"/><path fill="#1D2325" d="M16 79h1v1h-1z"/><path fill="#1B2E22" d="M17 79h1v1h-1zM18 79h1v1h-1z"/><path fill="#101F16" d="M19 79h1v1h-1zM20 79h1v1h-1z"/><path fill="#1D3728" d="M21 79h1v1h-1z"/><path fill="#285136" d="M22 79h1v1h-1z"/><path fill="#431F0D" d="M26 79h1v1h-1z"/><path fill="#321608" d="M27 79h1v1h-1z"/><path fill="#64361E" d="M28 79h1v1h-1z"/><path fill="#232526" d="M34 79h1v1h-1z"/><path fill="#232526" d="M35 79h1v1h-1z" opacity=".741"/><path fill="#313435" d="M7 80h1v1H7z"/><path fill="#111315" d="M11 80h1v1h-1z"/><path fill="#1D2325" d="M12 80h1v1h-1z"/><path fill="#121718" d="M13 80h1v1h-1z"/><path fill="#13191B" d="M14 80h1v1h-1z"/><path fill="#1D2325" d="M15 80h1v1h-1z"/><path fill="#121718" d="M16 80h1v1h-1z"/><path fill="#191D1E" d="M17 80h1v1h-1z"/><path fill="#285136" d="M18 80h1v1h-1z"/><path fill="#1D3728" d="M19 80h1v1h-1z"/><path fill="#101F16" d="M20 80h1v1h-1zM21 80h1v1h-1z"/><path fill="#285136" d="M22 80h1v1h-1zM23 80h1v1h-1z"/><path fill="#321608" d="M25 80h1v1h-1zM26 80h1v1h-1z"/><path fill="#64361E" d="M27 80h1v1h-1z"/><path fill="#232526" d="M34 80h1v1h-1zM35 80h1v1h-1z" opacity=".741"/><path fill="#454A4C" d="M8 81h1v1H8z"/><path fill="#111315" d="M9 81h1v1H9zM10 81h1v1h-1zM11 81h1v1h-1z"/><path fill="#454A4C" d="M12 81h1v1h-1z"/><path fill="#111315" d="M13 81h1v1h-1zM14 81h1v1h-1z"/><path fill="#121718" d="M15 81h1v1h-1zM16 81h1v1h-1z"/><path fill="#111315" d="M17 81h1v1h-1z"/><path fill="#306546" d="M18 81h1v1h-1z"/><path fill="#29523A" d="M19 81h1v1h-1z"/><path fill="#1A2F23" d="M20 81h1v1h-1z"/><path fill="#1D3728" d="M21 81h1v1h-1z"/><path fill="#431F0D" d="M22 81h1v1h-1z"/><path fill="#62351D" d="M23 81h1v1h-1z"/><path fill="#321608" d="M24 81h1v1h-1zM25 81h1v1h-1zM26 81h1v1h-1z"/><path fill="#454A4C" d="M6 82h1v1H6zM8 82h1v1H8z"/><path fill="#111315" d="M9 82h1v1H9zM10 82h1v1h-1zM11 82h1v1h-1zM12 82h1v1h-1zM13 82h1v1h-1z"/><path fill="#313435" d="M14 82h1v1h-1z"/><path fill="#111315" d="M15 82h1v1h-1zM16 82h1v1h-1z"/><path fill="#27292A" d="M17 82h1v1h-1z" opacity=".408"/><path fill="#27292A" d="M18 82h1v1h-1z" opacity=".224"/><path fill="#306546" d="M19 82h1v1h-1z"/><path fill="#285136" d="M20 82h1v1h-1z"/><path fill="#321608" d="M21 82h1v1h-1zM22 82h1v1h-1z"/><path fill="#60311B" d="M23 82h1v1h-1z"/><path fill="#6C3A21" d="M24 82h1v1h-1z"/><path fill="#232526" d="M30 82h1v1h-1z"/><path fill="#313435" d="M8 83h1v1H8z"/><path fill="#27292A" d="M9 83h1v1H9z"/><path fill="#454A4C" d="M10 83h1v1h-1z"/><path fill="#111315" d="M11 83h1v1h-1z"/><path fill="#27292A" d="M12 83h1v1h-1z"/><path fill="#454A4C" d="M13 83h1v1h-1z"/><path fill="#111315" d="M14 83h1v1h-1z"/><path fill="#383B3D" d="M15 83h1v1h-1z"/><path fill="#282A2B" d="M16 83h1v1h-1z" opacity=".549"/><path fill="#27292A" d="M17 83h1v1h-1z" opacity=".549"/><path fill="#27292A" d="M18 83h1v1h-1z" opacity=".408"/><path fill="#6A3A21" d="M19 83h1v1h-1z"/><path fill="#592D19" d="M20 83h1v1h-1z"/><path fill="#452210" d="M21 83h1v1h-1z"/><path fill="#321608" d="M22 83h1v1h-1z"/><path fill="#592B17" d="M23 83h1v1h-1z"/><path fill="#65351E" d="M24 83h1v1h-1z"/><path fill="#252729" d="M9 84h1v1H9z"/><path fill="#383B3D" d="M10 84h1v1h-1z"/><path fill="#252729" d="M11 84h1v1h-1z"/><path fill="#313435" d="M12 84h1v1h-1z"/><path fill="#111315" d="M13 84h1v1h-1zM14 84h1v1h-1z"/><path fill="#282A2B" d="M15 84h1v1h-1z"/><path fill="#383B3D" d="M16 84h1v1h-1z"/><path fill="#232526" d="M17 84h1v1h-1z" opacity=".549"/><path fill="#252729" d="M18 84h1v1h-1z" opacity=".549"/><path fill="#693A20" d="M20 84h1v1h-1z"/><path fill="#592D19" d="M21 84h1v1h-1zM22 84h1v1h-1z"/><path fill="#592B17" d="M23 84h1v1h-1z"/><path fill="#252729" d="M10 85h1v1h-1zM11 85h1v1h-1z"/><path fill="#383B3D" d="M12 85h1v1h-1z"/><path fill="#232526" d="M13 85h1v1h-1z"/><path fill="#27292A" d="M14 85h1v1h-1z"/><path fill="#313435" d="M15 85h1v1h-1z"/><path fill="#252729" d="M16 85h1v1h-1z"/><path fill="#64361E" d="M20 85h1v1h-1z"/><path fill="#6B3B21" d="M21 85h1v1h-1z"/><path fill="#744226" d="M22 85h1v1h-1z"/><path fill="#232526" d="M12 86h1v1h-1zM13 86h1v1h-1z"/><path fill="#313435" d="M15 86h1v1h-1z"/></svg>